<svg xmlns="http://www.w3.org/2000/svg" width="400" height="182.592" viewBox="0 0 400 182.592">
  <g id="t1-ic4" transform="translate(-1020 -1402)">
    <g id="Image_Place_Holder" data-name="Image Place Holder" transform="translate(1020 1451.592)" opacity="0.25">
      <rect id="Image_Place_Holder-2" data-name="Image Place Holder" width="400" height="133" rx="10" fill="#dbf6e9"/>
    </g>
    <g id="Filled_outline" data-name="Filled outline" transform="translate(1129 1386)">
      <path id="Path_102149" data-name="Path 102149" d="M219.826,101.58,219,109l-.556,5h-70l-.556-5-.825-7.422a38.467,38.467,0,0,1,2.875-19.4A38.5,38.5,0,0,0,153,65.111l-.434-8.65a30.917,30.917,0,1,1,61.756-3.082q.077,1.54,0,3.082l-.434,8.65a38.5,38.5,0,0,0,3.063,17.072,38.446,38.446,0,0,1,2.875,19.4Z" transform="translate(-89.944 -5.502)" fill="#31326f"/>
      <path id="Path_102150" data-name="Path 102150" d="M283.372,101.562l-.825,7.422H254.491v-27.5l5-10v-20A27.527,27.527,0,0,0,239.26,24.955a30.95,30.95,0,0,1,38.609,31.487l-.434,8.65A38.5,38.5,0,0,0,280.5,82.165a38.446,38.446,0,0,1,2.875,19.4Z" transform="translate(-153.491 -5.484)" fill="#21214a"/>
      <path id="Path_102151" data-name="Path 102151" d="M239,236a3.5,3.5,0,0,1-3.5-3.5V216h-20v16.5A3.5,3.5,0,0,1,212,236h-4v15h35V236Z" transform="translate(-132 -137.5)" fill="#ffd4bd"/>
      <path id="Path_102152" data-name="Path 102152" d="M243.507,228.5A13.717,13.717,0,0,0,252,225.435V216H232v9.434a13.718,13.718,0,0,0,8.492,3.066Z" transform="translate(-148.5 -137.5)" fill="#ffbf9d"/>
      <path id="Path_102153" data-name="Path 102153" d="M237,95v12.5a22.5,22.5,0,0,1-45,0V95a33.916,33.916,0,0,0,11.531-13.062L204.5,80l1.419,1.184A62.42,62.42,0,0,0,237,95Z" transform="translate(-121 -44)" fill="#ffd4bd"/>
      <path id="Path_102154" data-name="Path 102154" d="M295.946,122.974v12.5a22.511,22.511,0,0,1-18.206,22.091,27.4,27.4,0,0,0,8.206-19.591V120.69A62.382,62.382,0,0,0,295.946,122.974Z" transform="translate(-179.946 -71.974)" fill="#ffbf9d"/>
      <path id="Path_102155" data-name="Path 102155" d="M224,312h25v17.5H224Z" transform="translate(-143 -203.5)" fill="#f6f6f6"/>
      <path id="Path_102156" data-name="Path 102156" d="M188.428,344.9A7.588,7.588,0,0,1,180,339.862l-16.512-30.978A19.468,19.468,0,0,1,160,327.5v20H115v-20a19.5,19.5,0,0,1-3.45-18.847L94.769,339.862a7.585,7.585,0,0,1-14.4-4.763l18.356-45.691A15,15,0,0,1,112.641,280H122.5l15,27.5,15-27.5h9.822a15.013,15.013,0,0,1,13.937,9.459L194.407,335.1a7.59,7.59,0,0,1-5.978,9.8Z" transform="translate(-44.001 -181.5)" fill="#f24872"/>
      <path id="Path_102157" data-name="Path 102157" d="M74.176,407.441,75.979,384h15v24.086a8.414,8.414,0,0,1-16.828,0Q74.151,407.763,74.176,407.441Z" transform="translate(-39.979 -253)" fill="#f24872"/>
      <path id="Path_102158" data-name="Path 102158" d="M47.382,266.979a4.864,4.864,0,0,0-3.17,6.893l2.289,4.576H37.541a15,15,0,0,1-6.708-1.583l-2.491-1.246A3,3,0,0,0,24,278.3v7.056a5,5,0,0,0,2.764,4.472l4.069,2.035a15,15,0,0,0,6.708,1.583H56.5v-15l-3.423-8.558a4.863,4.863,0,0,0-5.695-2.91Z" transform="translate(-5.5 -172.447)" fill="#ffd4bd"/>
      <path id="Path_102159" data-name="Path 102159" d="M80,352H95v10H80Z" transform="translate(-44 -231)" fill="#f6f6f6"/>
      <path id="Path_102160" data-name="Path 102160" d="M267.236,347.812a7.588,7.588,0,0,1-8.428-5.034L242.3,311.8a19.468,19.468,0,0,1-3.488,18.616v20H194.63c20.634-13.475,38.044-30.575,52.656-66.175a14.975,14.975,0,0,1,7.781,8.134l18.147,45.641a7.59,7.59,0,0,1-5.978,9.8Z" transform="translate(-122.808 -184.415)" fill="#cc3d60"/>
      <path id="Path_102161" data-name="Path 102161" d="M321,376l-25-5V336l25,5Z" transform="translate(-192.5 -220)" fill="#9ddfd3"/>
      <path id="Path_102162" data-name="Path 102162" d="M408,376l25-5V336l-25,5Z" transform="translate(-269.5 -220)" fill="#87bfb5"/>
      <path id="Path_102163" data-name="Path 102163" d="M376,352h10v35H376Z" transform="translate(-247.5 -231)" fill="#9ddfd3"/>
      <path id="Path_102164" data-name="Path 102164" d="M326,324.5a8.854,8.854,0,0,0-7.4-8.733L296,312v7.5l25,5h5a8.854,8.854,0,0,1,7.4-8.733L356,312v7.5l-25,5Z" transform="translate(-192.5 -203.5)" fill="#f6f6f6"/>
      <path id="Path_102165" data-name="Path 102165" d="M444.911,430.762l-10,1.667A2.5,2.5,0,0,1,432,429.963v-9.292a3.254,3.254,0,0,1,2.719-3.21l8.491-1.415a3.254,3.254,0,0,1,3.79,3.21v9.04A2.5,2.5,0,0,1,444.911,430.762Z" transform="translate(-286 -275)" fill="#ffd4bd"/>
      <path id="Path_102166" data-name="Path 102166" d="M219.75,136a3.75,3.75,0,1,0,3.75,3.75A3.75,3.75,0,0,0,219.75,136Z" transform="translate(-137.5 -82.5)"/>
      <path id="Path_102167" data-name="Path 102167" d="M291.75,136a3.75,3.75,0,1,0,3.75,3.75A3.75,3.75,0,0,0,291.75,136Z" transform="translate(-187 -82.5)"/>
      <path id="Path_102168" data-name="Path 102168" d="M247.5,178.5A2.5,2.5,0,0,1,245,176h-5a7.5,7.5,0,0,0,15,0h-5A2.5,2.5,0,0,1,247.5,178.5Z" transform="translate(-154 -110)"/>
      <path id="Path_102169" data-name="Path 102169" d="M165.116,106.594a2.5,2.5,0,0,0-2.027-.559l-22.6,3.767a11.374,11.374,0,0,0-4.187,1.587l-1.723-4.35a16.654,16.654,0,0,0-2.869-4.79l.652-5.912a43.318,43.318,0,0,0,.264-4.537A40.8,40.8,0,0,0,129.3,75.693a36.109,36.109,0,0,1-2.852-15.969l.425-8.653c.026-.545.053-1.109.053-1.669a33.418,33.418,0,0,0-66.836.024q0,.824.041,1.647l.424,8.625c.025.644.048,1.252.048,1.854a35.638,35.638,0,0,1-2.9,14.14A40.852,40.852,0,0,0,54.64,96.354l.65,5.83a16.978,16.978,0,0,0-1.98,2.863L49.9,96.516a7.363,7.363,0,0,0-13.676,5.463q.115.287.253.564l.48.957H32.041a12.561,12.561,0,0,1-5.59-1.32l-2.491-1.246A5.5,5.5,0,0,0,16,105.854v7.056a7.458,7.458,0,0,0,4.146,6.708l4.069,2.035a17.587,17.587,0,0,0,7.826,1.847H33.5v7.4L31.7,154.25A10.914,10.914,0,0,0,41.75,165.968q.417.032.836.032.278,0,.552-.014c.159.008.318.014.477.014a10.062,10.062,0,0,0,9.453-6.61L64.48,138.171a21.869,21.869,0,0,0,4.02,8.7V166h5V146a2.5,2.5,0,0,0-.579-1.6,17.045,17.045,0,0,1,2.18-23.979l-3.2-3.841a22.034,22.034,0,0,0-3.106,3.171,2.549,2.549,0,0,0-.258.312l-.006,0-.044.078c-.011.018-.02.037-.031.055a21.9,21.9,0,0,0-3.25,6.076L53.5,148.031V117.658l3.552-8.846a11.985,11.985,0,0,1,2.631-4.035A12.653,12.653,0,0,1,68.65,101h8.366l14.289,26.2a2.5,2.5,0,0,0,4.389,0L101,117.471V151a2.5,2.5,0,0,0,2.01,2.452l10.49,2.1V166h5v-9.451l9.565,1.91c.063.011.352.04.435.04h4.73l.48.894A10.128,10.128,0,0,0,143.2,166a9.39,9.39,0,0,0,1.648-.136,10.132,10.132,0,0,0,7.825-6.528l6.649-1.108a4.979,4.979,0,0,0,4.167-4.676l.5-.1A2.5,2.5,0,0,0,166,151V108.5a2.5,2.5,0,0,0-.884-1.906Zm-82.687-6.111A6.005,6.005,0,0,0,86,95V87.349a25.01,25.01,0,0,0,15,0V95a6,6,0,0,0,3.571,5.482L101.562,106H85.437ZM93.5,83.5a20.023,20.023,0,0,1-20-20V52.307A36.523,36.523,0,0,0,84.32,39.921a64.755,64.755,0,0,0,29.18,13.21V63.5A20.023,20.023,0,0,1,93.5,83.5Zm33.786,21.32.046.047a11.587,11.587,0,0,1,2.594,4L131,111.582a11.373,11.373,0,0,0-4.487-1.781l-19.552-3.259L109.984,101h8.341A12.386,12.386,0,0,1,127.286,104.82Zm1.462,13.68-11.375-2.275L106,113.95v-2.5l19.691,3.281a6.332,6.332,0,0,1,4.8,3.768Zm12.562-3.767L161,111.451v2.5L149.241,116.3l-10.989,2.2h-1.745a6.332,6.332,0,0,1,4.8-3.767ZM26.451,117.18l-4.069-2.034A2.487,2.487,0,0,1,21,112.91v-7.056a.5.5,0,0,1,.723-.447l2.492,1.246a17.587,17.587,0,0,0,7.826,1.847H41a2.5,2.5,0,0,0,2.236-3.618L40.947,100.3a2.363,2.363,0,1,1,4.307-1.934l3.245,8.112V118.5H32.041a12.562,12.562,0,0,1-5.59-1.32ZM48.5,123.5v5h-10v-5ZM36.69,154.632,38.315,133.5H48.5v21.586a5.918,5.918,0,0,1-5.486,5.893,2.483,2.483,0,0,0-.281.014c-.049,0-.1.007-.147.007a5.913,5.913,0,0,1-5.914-5.913Q36.672,154.86,36.69,154.632Zm31.85-34.567a2.47,2.47,0,0,1,.159-.193c-.051.065-.1.132-.152.2ZM59.9,98.362l-.287-2.569A35.845,35.845,0,0,1,62.3,77.661,40.608,40.608,0,0,0,65.6,61.55c0-.7-.026-1.383-.053-2.073l-.425-8.651a28.419,28.419,0,1,1,56.768-2.82q.035.7.035,1.394c0,.441-.023.922-.047,1.427l-.425,8.644A41.131,41.131,0,0,0,124.7,77.656,35.832,35.832,0,0,1,127.625,91.8a38.272,38.272,0,0,1-.235,4l-.284,2.576A17.486,17.486,0,0,0,118.325,96H107a1.013,1.013,0,0,1-1-1V85.136A25.008,25.008,0,0,0,118.5,63.5V51a2.5,2.5,0,0,0-2.147-2.475A59.772,59.772,0,0,1,86.52,35.263L85.1,34.079a2.5,2.5,0,0,0-3.837.8L80.3,36.819a31.5,31.5,0,0,1-10.682,12.1A2.5,2.5,0,0,0,68.5,51V63.5A25.008,25.008,0,0,0,81,85.136V95a1.013,1.013,0,0,1-1,1H68.65A17.611,17.611,0,0,0,59.9,98.362Zm33.6,22.417L88.166,111H98.834ZM106,119.05l20,4v29.9l-20-4Zm25,4.45h5v30h-5Zm12.99,37.437a4.489,4.489,0,0,1-.79.063,5.122,5.122,0,0,1-4.406-2.519c.047-.005.094-.013.14-.021l.055-.008h0l.017,0,5.139-1.028a4.934,4.934,0,0,0,2.518,2.192,5.212,5.212,0,0,1-2.677,1.325ZM158.5,153.3l-10,1.667V145.67a.753.753,0,0,1,.63-.744l8.492-1.415a.841.841,0,0,1,.128-.011.755.755,0,0,1,.75.755l0,9.04Zm-1.7-14.717-8.491,1.415a5.737,5.737,0,0,0-4.808,5.676v6.781l-2.5.5v-29.9l20-4v20.462a5.738,5.738,0,0,0-4.2-.933Z" transform="translate(0)"/>
    </g>
  </g>
</svg>
