<svg xmlns="http://www.w3.org/2000/svg" width="400" height="183" viewBox="0 0 400 183">
  <g id="t1-ic3" transform="translate(-600 -1401.592)">
    <g id="Image_Place_Holder" data-name="Image Place Holder" transform="translate(600 1451.592)" opacity="0.25">
      <rect id="Image_Place_Holder-2" data-name="Image Place Holder" width="400" height="133" rx="10" fill="#dbf6e9"/>
    </g>
    <g id="Group_57424" data-name="Group 57424" transform="translate(42 50)">
      <g id="Group_57420" data-name="Group 57420" transform="translate(831.858 1351.592) rotate(90)">
        <path id="Path_102190" data-name="Path 102190" d="M.006,4.705A4.463,4.463,0,1,0,4.226.006,4.466,4.466,0,0,0,.006,4.705Z" transform="translate(25.807 27.322)" fill="#dbf6e9"/>
        <path id="Path_102191" data-name="Path 102191" d="M5.413,2.709A2.706,2.706,0,1,0,2.706,5.418,2.707,2.707,0,0,0,5.413,2.709Z" transform="translate(38.143 1.354)" fill="#ffd566"/>
        <path id="Path_102192" data-name="Path 102192" d="M8.119,4.063a4.059,4.059,0,1,0-4.06,4.063A4.061,4.061,0,0,0,8.119,4.063Z" transform="translate(7.302 58.106)" fill="#ffd566"/>
        <path id="Path_102193" data-name="Path 102193" d="M6.766,3.386A3.383,3.383,0,1,0,3.383,6.772,3.384,3.384,0,0,0,6.766,3.386Z" transform="translate(8 7.902)" fill="#f24872"/>
        <path id="Path_102194" data-name="Path 102194" d="M.006,4.705a4.464,4.464,0,1,0,4.22-4.7A4.465,4.465,0,0,0,.006,4.705Z" transform="translate(34.733 34.271)" fill="#dbf6e9"/>
        <path id="Path_102195" data-name="Path 102195" d="M.008,5.759a5.463,5.463,0,1,1,5.746,5.17A5.466,5.466,0,0,1,.008,5.759Z" transform="translate(25.551 33.769)" fill="#444599"/>
        <path id="Path_102196" data-name="Path 102196" d="M.007,4.813A4.566,4.566,0,1,0,4.323.007,4.568,4.568,0,0,0,.007,4.813Z" transform="translate(32.271 27.23)" fill="#444599"/>
        <path id="Path_102197" data-name="Path 102197" d="M4.06,8.127a4.063,4.063,0,1,1,4.06-4.063A4.066,4.066,0,0,1,4.06,8.127Zm0-5.418A1.354,1.354,0,1,0,5.413,4.063,1.355,1.355,0,0,0,4.06,2.709Z" transform="translate(36.79)"/>
        <path id="Path_102198" data-name="Path 102198" d="M68,47.122a36.133,36.133,0,0,0-3.92-7Q62.75,38.2,61.1,36.246q1.641-1.945,2.98-3.868c3.369-4.856,7-11.982,4.27-17.916a9.491,9.491,0,0,0-2.824-3.538C60.64,7.1,53.615,7.761,47.967,9.117a61.94,61.94,0,0,0-14.682,5.807,63.507,63.507,0,0,0-8.592-3.471,23.134,23.134,0,0,1,3.279-5.494,10.458,10.458,0,0,1,4.4-3.33A1.355,1.355,0,0,0,31.913,0a1.331,1.331,0,0,0-.456.08A13.127,13.127,0,0,0,25.89,4.226,25.128,25.128,0,0,0,22.6,9.51c-.183.386-.359.784-.532,1.189q-.39-.1-.778-.194a1.363,1.363,0,0,0-.314-.038,1.355,1.355,0,0,0-.314,2.672c.14.033.282.07.423.105q-.524,1.508-.969,3.145a60.02,60.02,0,0,0-1.583,8.292c-.007.058-.013.116-.02.174a85.505,85.505,0,0,0-7.065,6.419Q10.059,32.7,8.816,34.128q-.747-.963-1.41-1.913c-3.042-4.356-4.711-8.563-4.7-11.849a7.319,7.319,0,0,1,1.552-4.755,1.354,1.354,0,1,0-2.1-1.7A10.07,10.07,0,0,0,0,20.366c.011,4.8,2.512,9.548,5.186,13.4q.863,1.24,1.86,2.495Q6.067,37.5,5.214,38.722C2.517,42.608.03,47.315.016,52.16a10.019,10.019,0,0,0,2.207,6.516,1.353,1.353,0,0,0,1.9.183,1.357,1.357,0,0,0,.182-1.907A7.277,7.277,0,0,1,2.723,52.16c-.012-3.294,1.662-7.517,4.712-11.891q.651-.936,1.384-1.884,1.232,1.409,2.612,2.818a87.341,87.341,0,0,0,7.821,7.024A45.3,45.3,0,0,0,22.59,58.85l.009.019q-.931.268-1.845.489a1.354,1.354,0,0,0,.315,2.671,1.425,1.425,0,0,0,.318-.036q1.24-.3,2.509-.68a19.389,19.389,0,0,0,3.893,4.8,10.646,10.646,0,0,0,6.823,2.754h.027a10.644,10.644,0,0,0,6.822-2.754,18.419,18.419,0,0,0,3.178-3.668q1.7.538,3.334.931c5.389,1.29,12.826,1.893,17.559-1.806a9.524,9.524,0,0,0,2.824-3.539C69.98,54.494,69.43,50.675,68,47.122ZM55.81,10.81h.027c3.38,0,6.154.776,8.02,2.246a6.813,6.813,0,0,1,2.035,2.54,7.968,7.968,0,0,1,.678,3.344c.012,3.3-1.66,7.519-4.712,11.892-.77,1.108-1.631,2.231-2.571,3.36q-.7-.761-1.442-1.521A85.462,85.462,0,0,0,50.9,26.348q-.264-2.712-.714-5.254a49.9,49.9,0,0,0-2.466-9.121A32.331,32.331,0,0,1,55.81,10.81ZM43.451,59.19q-1.594-.576-3.236-1.278c-1.309-.56-2.633-1.181-3.963-1.854A91.309,91.309,0,0,0,47.04,49.146a40.877,40.877,0,0,1-2.827,8.547Q43.847,58.471,43.451,59.19Zm4.163-13.883a89.292,89.292,0,0,1-14.25,9.215,91.4,91.4,0,0,1-11.635-7.784A72.29,72.29,0,0,1,20.687,34.2a77.32,77.32,0,0,1,.394-7.928q.3-.237.6-.474a91.426,91.426,0,0,1,11.672-7.815,88.756,88.756,0,0,1,14.266,9.212q.344.27.683.541c.173,2.094.262,4.257.261,6.464a73.85,73.85,0,0,1-.787,10.983ZM51.171,30.12A76.249,76.249,0,0,1,57.5,36.246a76.708,76.708,0,0,1-6.668,6.425,79.631,79.631,0,0,0,.441-8.474Q51.269,32.124,51.171,30.12ZM40.209,14.586q2.507-1.073,4.9-1.847a49.953,49.953,0,0,1,2.778,11.245,91.719,91.719,0,0,0-11.65-7.541C37.573,15.769,38.9,15.147,40.209,14.586ZM30.4,16.553c-.23.135-.461.269-.691.408a94.985,94.985,0,0,0-8.12,5.494A49.575,49.575,0,0,1,23.7,13.977,58.261,58.261,0,0,1,30.4,16.553Zm-19.839,19.7a73.41,73.41,0,0,1,7.607-7.564c-.12,1.8-.183,3.635-.183,5.5a78.314,78.314,0,0,0,.617,9.981A74.6,74.6,0,0,1,10.557,36.256Zm12.68,16.769c-.225-.721-.435-1.466-.632-2.228,2.342,1.717,4.721,3.306,7.105,4.74.233.141.467.277.7.414-1.76.8-3.5,1.5-5.2,2.092A35.288,35.288,0,0,1,23.237,53.025Zm16.456,11.04a7.666,7.666,0,0,1-5.068,2.1,7.672,7.672,0,0,1-5.069-2.1,16.006,16.006,0,0,1-3.016-3.622,65.684,65.684,0,0,0,6.76-2.864c1.963,1.053,3.921,2,5.851,2.824q1.425.609,2.823,1.129A14.8,14.8,0,0,1,39.692,64.065ZM65.9,56.9c-1.741,3.779-6.283,4.787-10.054,4.787h-.029a34.317,34.317,0,0,1-9.754-1.634,37.5,37.5,0,0,0,2.536-6.22,54.732,54.732,0,0,0,1.688-7.191,86.178,86.178,0,0,0,7.555-6.815q.746-.763,1.449-1.526Q60.7,40,61.865,41.666C64.439,45.357,67.978,52.384,65.9,56.9Z" transform="translate(0 0.478)"/>
        <path id="Path_102199" data-name="Path 102199" d="M5.413,0a5.418,5.418,0,1,0,5.413,5.418A5.421,5.421,0,0,0,5.413,0Zm0,8.127A2.709,2.709,0,1,1,8.119,5.418,2.711,2.711,0,0,1,5.413,8.127Z" transform="translate(5.949 56.752)"/>
        <path id="Path_102200" data-name="Path 102200" d="M4.736,9.481A4.741,4.741,0,1,0,0,4.741,4.744,4.744,0,0,0,4.736,9.481Zm0-6.772a2.032,2.032,0,1,1-2.03,2.032A2.033,2.033,0,0,1,4.736,2.709Z" transform="translate(6.647 6.547)"/>
        <path id="Path_102201" data-name="Path 102201" d="M18.186,8A5.918,5.918,0,0,0,9.27,1.057,5.815,5.815,0,0,0,1.343,9.3,6.82,6.82,0,0,0,6.812,20.183q.183,0,.367-.01a6.791,6.791,0,0,0,4.784-2.347,5.775,5.775,0,0,0,3.033.86c.1,0,.208,0,.313-.009A5.819,5.819,0,0,0,18.186,8ZM12.469,2.714c.059,0,.117,0,.175,0a3.217,3.217,0,1,1-.175,0Zm-6.562.092c.056,0,.112,0,.167,0a3.074,3.074,0,0,1,1.356.315,5.894,5.894,0,0,0-.7,3.125c.005.1.013.2.023.3-.1,0-.2,0-.3.009a6.766,6.766,0,0,0-3.074.924A3.111,3.111,0,0,1,5.907,2.805ZM7.035,17.468A4.114,4.114,0,0,1,6.6,9.252c.075,0,.148-.006.221-.006a4.083,4.083,0,0,1,1.006.126c.155.039.5.61.629.742a5.968,5.968,0,0,0,1.992,1.316,4.115,4.115,0,0,1-3.411,6.038Zm8.129-1.5a3.073,3.073,0,0,1-1.867-.5,6.825,6.825,0,0,0,.153-3.674,5.861,5.861,0,0,0,3.233-1.542,3.11,3.11,0,0,1-1.519,5.721Z" transform="translate(24.197 25.877)"/>
      </g>
      <g id="Group_57419" data-name="Group 57419" transform="translate(685 1374.766)">
        <path id="Path_102170" data-name="Path 102170" d="M186.313,382.222H118.125v-34.6a5.661,5.661,0,0,1,5.661-5.661h56.868a5.66,5.66,0,0,1,5.659,5.661Z" transform="translate(-101.002 -257.255)" fill="#87bfb5"/>
        <path id="Path_102171" data-name="Path 102171" d="M403.4,179.434a8.5,8.5,0,1,1-8.5-8.5A8.5,8.5,0,0,1,403.4,179.434Z" transform="translate(-302.823 -128.593)" fill="#cc9883"/>
        <path id="Path_102172" data-name="Path 102172" d="M73.5,179.434a8.5,8.5,0,1,1-8.5-8.5A8.5,8.5,0,0,1,73.5,179.434Z" transform="translate(-54.642 -128.593)" fill="#cc9883"/>
        <path id="Path_102173" data-name="Path 102173" d="M97.59,385.5a39.18,39.18,0,0,1,78.361,0Z" transform="translate(-85.554 -260.538)" fill="#efedee"/>
        <path id="Path_102174" data-name="Path 102174" d="M240.81,436.8l-4.954-22.29h-4.2L226.7,436.8Z" transform="translate(-182.685 -311.835)" fill="#f24872"/>
        <path id="Path_102175" data-name="Path 102175" d="M211.927,354.836H197.492v8.69s5.506,3.393,14.435,3.393,14.435-3.393,14.435-3.393v-8.69Z" transform="translate(-160.71 -266.941)" fill="#d9d7d8"/>
        <path id="Path_102176" data-name="Path 102176" d="M140.487,346.5c-1.223-.115-2.463-.177-3.716-.177A39.181,39.181,0,0,0,97.59,385.5h7.432A39.182,39.182,0,0,1,140.487,346.5Z" transform="translate(-85.554 -260.538)" fill="#d9d7d8"/>
        <path id="Path_102177" data-name="Path 102177" d="M311.793,356.547v36.648h10.9v-30.35A39.141,39.141,0,0,0,311.793,356.547Z" transform="translate(-246.698 -268.228)" fill="#9ddfd3"/>
        <path id="Path_102178" data-name="Path 102178" d="M155.738,362.845v30.35h10.9V356.547A39.126,39.126,0,0,0,155.738,362.845Z" transform="translate(-129.298 -268.228)" fill="#9ddfd3"/>
        <path id="Path_102179" data-name="Path 102179" d="M168.412,65.382A42.882,42.882,0,1,1,125.53,22.5,42.881,42.881,0,0,1,168.412,65.382Z" transform="translate(-74.313 -16.927)" fill="#fbc4ac"/>
        <path id="Path_102180" data-name="Path 102180" d="M125.53,22.5a42.882,42.882,0,1,0,0,85.763c1.252,0,2.491-.057,3.717-.162a42.885,42.885,0,0,1-39.166-42.72c0-.1,0-.2,0-.3a68.505,68.505,0,0,0,15.839-2.947c8.172-2.614,14.744-6.727,19.607-12.259,4.861,5.531,11.434,9.644,19.6,12.259a72.009,72.009,0,0,0,21.453,3.149h0c.654,0,1.263-.008,1.821-.022A42.879,42.879,0,0,0,125.53,22.5Z" transform="translate(-74.313 -16.927)" fill="#e3b098"/>
        <path id="Path_102181" data-name="Path 102181" d="M114.773,7.5A46.661,46.661,0,0,0,68.348,50.06s32.546,3.554,46.424-17.584C128.651,53.614,161.2,50.06,161.2,50.06A46.66,46.66,0,0,0,114.773,7.5Z" transform="translate(-63.555 -5.642)" fill="#ffd566"/>
        <path id="Path_102182" data-name="Path 102182" d="M75.78,50.06A46.672,46.672,0,0,1,118.488,7.649c-1.226-.1-2.466-.149-3.716-.149A46.661,46.661,0,0,0,68.348,50.06a63.7,63.7,0,0,0,9.145.129C76.4,50.128,75.78,50.06,75.78,50.06Z" transform="translate(-63.555 -5.642)" fill="#ffc93c"/>
        <g id="Group_57418" data-name="Group 57418" transform="translate(32.031 57.298)">
          <path id="Path_102183" data-name="Path 102183" d="M235.841,386.467l-2.726-2.725a3.11,3.11,0,0,1,0-4.4l2.726-2.726a3.111,3.111,0,0,1,4.4,0l2.726,2.726a3.112,3.112,0,0,1,0,4.4l-2.726,2.725A3.109,3.109,0,0,1,235.841,386.467Z" transform="translate(-218.854 -339.94)" fill="#f24872"/>
          <path id="Path_102184" data-name="Path 102184" d="M311.465,235.032h-2.837a1.858,1.858,0,0,1,0-3.716h2.837a1.858,1.858,0,0,1,0,3.716Z" transform="translate(-274.949 -231.316)" fill="#f24872"/>
          <path id="Path_102185" data-name="Path 102185" d="M183,235.032h-2.837a1.858,1.858,0,1,1,0-3.716H183a1.858,1.858,0,1,1,0,3.716Z" transform="translate(-178.309 -231.316)" fill="#f24872"/>
        </g>
        <path id="Path_102186" data-name="Path 102186" d="M242.52,229.654a1.858,1.858,0,0,0-2.537.684,2.969,2.969,0,0,1-5.152,0,1.858,1.858,0,0,0-3.221,1.852,6.685,6.685,0,0,0,11.594,0A1.858,1.858,0,0,0,242.52,229.654Z" transform="translate(-186.191 -172.581)"/>
        <path id="Path_102187" data-name="Path 102187" d="M314.354,198.215a1.858,1.858,0,0,0-1.858,1.858v2.837a1.858,1.858,0,1,0,3.716,0v-2.837A1.858,1.858,0,0,0,314.354,198.215Z" transform="translate(-247.227 -149.116)"/>
        <path id="Path_102188" data-name="Path 102188" d="M185.893,198.215a1.858,1.858,0,0,0-1.858,1.858v2.837a1.858,1.858,0,1,0,3.716,0v-2.837A1.858,1.858,0,0,0,185.893,198.215Z" transform="translate(-150.586 -149.116)"/>
        <path id="Path_102189" data-name="Path 102189" d="M148.424,43.546A48.044,48.044,0,0,0,136.763,16.67a1.858,1.858,0,0,0-2.8,2.44A44.345,44.345,0,0,1,144.588,42.7c-6.941.339-31.569.248-42.818-16.885a1.857,1.857,0,0,0-3.106,0c-5.45,8.3-14.565,13.646-27.095,15.892a71.734,71.734,0,0,1-15.723,1A44.716,44.716,0,0,1,129.3,14.49a1.858,1.858,0,1,0,2.419-2.821A48.459,48.459,0,0,0,52.012,43.544a10.356,10.356,0,0,0,5.255,17.445A44.854,44.854,0,0,0,71.64,82.852a7.526,7.526,0,0,0-7.375,7.514v14.77a41.027,41.027,0,0,0-5.087,19.831,1.858,1.858,0,0,0,1.858,1.858H139.4a1.858,1.858,0,0,0,1.858-1.858,41.028,41.028,0,0,0-5.087-19.833V90.366a7.526,7.526,0,0,0-7.375-7.514,44.853,44.853,0,0,0,14.373-21.863,10.356,10.356,0,0,0,5.257-17.443Zm-95.708,7.3a6.644,6.644,0,0,1,1.756-4.5c.288.021.64.046,1.054.068-.031.681-.049,1.365-.049,2.046a44.88,44.88,0,0,0,.767,8.259A6.636,6.636,0,0,1,52.716,50.842ZM67.98,90.366a3.807,3.807,0,0,1,3.8-3.8H76.8a44.8,44.8,0,0,0,4.039,2.215A40.948,40.948,0,0,0,67.98,99.536Zm5.6,32.742H62.94A37.226,37.226,0,0,1,73.582,98.8Zm10.9-26.238c0,.026,0,.052,0,.079v26.16H77.3V95.5a37.423,37.423,0,0,1,7.183-4.382Zm7.047,26.238H88.2V99.736a32.24,32.24,0,0,0,4.853,1.382,4.955,4.955,0,0,0,.929,1.3l1.757,1.757Zm2.45-27.722a4.947,4.947,0,0,0-1.17,1.872A26.943,26.943,0,0,1,88.2,95.723v-4.17a44.457,44.457,0,0,0,8.144,1.473Zm2.627,2.628,2.725-2.726a1.254,1.254,0,0,1,1.773,0l2.725,2.726a1.253,1.253,0,0,1,0,1.771l-2.725,2.726a1.255,1.255,0,0,1-1.773,0l-2.725-2.726A1.255,1.255,0,0,1,96.605,98.015Zm-1.271,25.094,3.7-16.661a4.957,4.957,0,0,0,1.182.147,5.014,5.014,0,0,0,.9-.085l3.688,16.6H95.334Zm16.9,0h-3.623l-4.154-18.7,1.994-2a4.921,4.921,0,0,0,.929-1.3,32.187,32.187,0,0,0,4.854-1.382Zm0-27.386a27,27,0,0,1-4.612,1.537,4.946,4.946,0,0,0-1.17-1.872l-2.363-2.362a44.456,44.456,0,0,0,8.144-1.473Zm10.9,27.386h-7.183V91.116a37.414,37.414,0,0,1,7.183,4.38Zm14.357,0H126.852V98.8A37.222,37.222,0,0,1,137.494,123.109Zm-5.04-32.742v9.168a40.956,40.956,0,0,0-12.862-10.756,44.766,44.766,0,0,0,4.039-2.215h5.021A3.807,3.807,0,0,1,132.454,90.366Zm-32.236-.888A41.07,41.07,0,0,1,59.193,48.455c0-.649.018-1.3.048-1.951a74.915,74.915,0,0,0,12.885-1.123C84.455,43.191,94.1,37.9,100.217,30.027c6.112,7.877,15.762,13.165,28.091,15.355A74.987,74.987,0,0,0,141.193,46.5c.031.65.049,1.3.049,1.951A41.07,41.07,0,0,1,100.217,89.479Zm43.971-32.764a44.772,44.772,0,0,0,.768-8.259c0-.68-.018-1.363-.049-2.046.414-.022.765-.046,1.053-.068a6.646,6.646,0,0,1-1.773,10.373Z" transform="translate(-49)" stroke="#000" stroke-width="0.7"/>
      </g>
    </g>
  </g>
</svg>
