<svg xmlns="http://www.w3.org/2000/svg" width="168" height="150" viewBox="0 0 168 150">
  <g id="t1-ic5" transform="translate(-307 -1703)">
    <rect id="Rectangle_5165" data-name="Rectangle 5165" width="168" height="150" transform="translate(307 1703)" fill="none"/>
    <g id="filled_outline" data-name="filled outline" transform="translate(312 1675)">
      <path id="Path_101757" data-name="Path 101757" d="M29.288,56H141.4a5.288,5.288,0,0,1,5.288,5.288v7.4H24v-7.4A5.288,5.288,0,0,1,29.288,56Z" transform="translate(-5.885 -5.885)" fill="#9ddfd3"/>
      <circle id="Ellipse_4060" data-name="Ellipse 4060" cx="2.115" cy="2.115" r="2.115" transform="translate(24.462 54.346)" fill="#007af6"/>
      <circle id="Ellipse_4061" data-name="Ellipse 4061" cx="2.115" cy="2.115" r="2.115" transform="translate(32.923 54.346)" fill="#007af6"/>
      <circle id="Ellipse_4062" data-name="Ellipse 4062" cx="2.115" cy="2.115" r="2.115" transform="translate(41.385 54.346)" fill="#007af6"/>
      <path id="Path_101758" data-name="Path 101758" d="M24,104H146.692v70.865a5.288,5.288,0,0,1-5.288,5.288H29.288A5.288,5.288,0,0,1,24,174.865V104Z" transform="translate(-5.885 -41.192)" fill="#dbf6e9"/>
      <path id="Path_101759" data-name="Path 101759" d="M96,136h84.615v67.692H96Z" transform="translate(-58.846 -64.731)" fill="#ffc93c"/>
      <path id="Path_101760" data-name="Path 101760" d="M128,168h44.423v38.077H128Z" transform="translate(-82.385 -88.269)" fill="#eaeae8"/>
      <path id="Path_101761" data-name="Path 101761" d="M183.638,245.982a5.114,5.114,0,0,1-1.24-.153l-2.562-.64A5.058,5.058,0,0,1,176,240.274v-6.158a2.115,2.115,0,1,1,4.231,0v6.158a.834.834,0,0,0,.632.81l2.561.64a.834.834,0,0,0,1.037-.81v-4.683a2.115,2.115,0,1,1,4.231,0v4.683a5.069,5.069,0,0,1-5.054,5.068Z" transform="translate(-117.692 -135.346)" fill="#961b20"/>
      <g id="Group_57212" data-name="Group 57212" transform="translate(47.731 81.846)">
        <path id="Path_101762" data-name="Path 101762" d="M348.692,180.231H338.115a2.115,2.115,0,0,1,0-4.231h10.577a2.115,2.115,0,1,1,0,4.231Z" transform="translate(-283.115 -176)" fill="#d18d28"/>
        <path id="Path_101763" data-name="Path 101763" d="M336.923,228.231H322.115a2.115,2.115,0,0,1,0-4.231h14.808a2.115,2.115,0,1,1,0,4.231Z" transform="translate(-271.346 -211.308)" fill="#d18d28"/>
        <path id="Path_101764" data-name="Path 101764" d="M336.923,276.231H322.115a2.115,2.115,0,1,1,0-4.231h14.808a2.115,2.115,0,1,1,0,4.231Z" transform="translate(-271.346 -246.615)" fill="#d18d28"/>
        <path id="Path_101765" data-name="Path 101765" d="M197.346,340.231H138.115a2.115,2.115,0,0,1,0-4.231h59.231a2.115,2.115,0,1,1,0,4.231Z" transform="translate(-136 -293.692)" fill="#d18d28"/>
      </g>
      <path id="Path_101766" data-name="Path 101766" d="M338.466,305.356l6.236-5.72,28.6,31.181-6.236,5.72Z" transform="translate(-237.199 -185.098)" fill="#31326f"/>
      <path id="Path_101767" data-name="Path 101767" d="M320.376,282.207l4.5,7.414,6.236-5.721-7-5.115a2.581,2.581,0,0,0-3.73,3.422Z" transform="translate(-223.617 -169.395)" fill="#dbf6e9"/>
      <path id="Path_101768" data-name="Path 101768" d="M446.644,423.28l6.236-5.72h0l2.86,3.118a4.231,4.231,0,1,1-6.236,5.72l-2.86-3.118Z" transform="translate(-316.772 -271.84)" fill="#cc3d60"/>
      <path id="Path_101769" data-name="Path 101769" d="M425.006,399.694l6.236-5.72,5.72,6.236-6.236,5.72Z" transform="translate(-300.855 -254.491)" fill="#dbf6e9"/>
      <path id="Path_101770" data-name="Path 101770" d="M184,212.692l19.038,4.231V200L184,204.231Z" transform="translate(-123.577 -111.808)" fill="#cc3d60"/>
      <path id="Path_101771" data-name="Path 101771" d="M164.231,208h0a4.231,4.231,0,0,1,4.231,4.231v4.231a4.231,4.231,0,0,1-4.231,4.231h0A4.231,4.231,0,0,1,160,216.462v-4.231A4.231,4.231,0,0,1,164.231,208Z" transform="translate(-105.923 -117.692)" fill="#cc3d60"/>
      <path id="Path_101772" data-name="Path 101772" d="M135.519,48H23.4A7.412,7.412,0,0,0,16,55.4v78.269a7.412,7.412,0,0,0,7.4,7.4h94.114L128.3,152.827l2.861,3.117a6.346,6.346,0,0,0,9.351-8.582l-2.861-3.117-2.909-3.169h.775a7.412,7.412,0,0,0,7.4-7.4V55.4a7.412,7.412,0,0,0-7.4-7.4ZM20.231,55.4A3.177,3.177,0,0,1,23.4,52.231H135.519a3.177,3.177,0,0,1,3.173,3.173v5.288H20.231Zm19.038,81.442V73.385h80.385v51.247l-10.606-11.558c-.026-.029-.056-.055-.084-.083s-.036-.037-.055-.053a2.111,2.111,0,0,0-.173-.141l-1.828-1.336h6.4a2.115,2.115,0,0,0,0-4.231H100.97a4.694,4.694,0,0,0-6.02,6.678l4.486,7.4.009.015v0l.006.008c.037.06.077.118.119.174.017.022.036.043.053.064s.046.059.072.087l2.293,2.5H49.846a2.115,2.115,0,0,0,0,4.231H105.87l7.765,8.462Zm92.278,10.132-1.56,1.431-2.861-3.117,3.117-2.861,2.861,3.117Zm-7.28-4.8-20.024-21.82,3.117-2.861,20.024,21.82ZM98.651,111.131a.466.466,0,0,1,.589-.033l4.918,3.593-2.433,2.232-3.158-5.208a.466.466,0,0,1,.084-.583Zm38.618,42.081a2.118,2.118,0,0,1-2.988-.128l-1.43-1.559,3.116-2.86,1.431,1.559a2.115,2.115,0,0,1-.128,2.988Zm-1.75-16.366h-4.656l-6.978-7.6V71.269a2.115,2.115,0,0,0-2.115-2.115H37.154a2.115,2.115,0,0,0-2.115,2.115v65.577H23.4a3.176,3.176,0,0,1-3.173-3.173V64.923H138.692v68.75a3.176,3.176,0,0,1-3.173,3.173Z"/>
      <circle id="Ellipse_4063" data-name="Ellipse 4063" cx="2.115" cy="2.115" r="2.115" transform="translate(24.462 54.346)"/>
      <circle id="Ellipse_4064" data-name="Ellipse 4064" cx="2.115" cy="2.115" r="2.115" transform="translate(32.923 54.346)"/>
      <circle id="Ellipse_4065" data-name="Ellipse 4065" cx="2.115" cy="2.115" r="2.115" transform="translate(41.385 54.346)"/>
      <path id="Path_101773" data-name="Path 101773" d="M168.654,200.192V162.115A2.115,2.115,0,0,0,166.538,160H122.115A2.115,2.115,0,0,0,120,162.115v38.077a2.115,2.115,0,0,0,2.115,2.115h44.423A2.116,2.116,0,0,0,168.654,200.192Zm-4.231-2.115H124.231V164.231h40.192Z" transform="translate(-76.5 -82.385)"/>
      <path id="Path_101774" data-name="Path 101774" d="M158.346,211.038h.008a5.054,5.054,0,0,0,3.829,4.727l2.562.641a5.057,5.057,0,0,0,6.293-4.915v-.166l8,1.779a2.115,2.115,0,0,0,2.574-2.065V194.115a2.116,2.116,0,0,0-2.574-2.065l-16.489,3.664A6.342,6.342,0,0,0,152,200.462v4.231a6.353,6.353,0,0,0,6.346,6.346Zm8.462.452a.835.835,0,0,1-1.037.81l-2.561-.64a.834.834,0,0,1-.632-.81v-1.406l4.231.94Zm10.577-3.09-12.754-2.834a6.365,6.365,0,0,0,.062-.875v-4.231a6.365,6.365,0,0,0-.062-.875l12.754-2.834Zm-21.154-7.94a2.115,2.115,0,0,1,4.231,0v4.231a2.115,2.115,0,0,1-4.231,0Z" transform="translate(-100.039 -105.923)"/>
      <path id="Path_101775" data-name="Path 101775" d="M338.115,180.231h10.577a2.115,2.115,0,1,0,0-4.231H338.115a2.115,2.115,0,0,0,0,4.231Z" transform="translate(-235.385 -94.154)"/>
      <path id="Path_101776" data-name="Path 101776" d="M322.115,228.231h14.808a2.115,2.115,0,1,0,0-4.231H322.115a2.115,2.115,0,0,0,0,4.231Z" transform="translate(-223.616 -129.462)"/>
    </g>
  </g>
</svg>
