<svg xmlns="http://www.w3.org/2000/svg" width="160.012" height="160" viewBox="0 0 160.012 160">
  <g id="t1-ic1" transform="translate(-1085 -556)">
    <g id="Filled_outlin" data-name="Filled outlin" transform="translate(1069.003 540.029)">
      <path id="Path_102114" data-name="Path 102114" d="M254.831,83A62.638,62.638,0,0,1,240,128.218H224c6.984-7.4,9.942-17.448,9.944-27.468a65.636,65.636,0,0,0-1.894-14.919A78.965,78.965,0,0,0,227,72.111l25.109-3.778A57.864,57.864,0,0,1,254.831,83Z" transform="translate(-138.673 -34.909)" fill="#c8ea73"/>
      <path id="Path_102115" data-name="Path 102115" d="M80,248v26.665H72a8,8,0,1,0,0,16h8V301.33a16,16,0,0,0,16,16h13.333V328h58.663V316.236A63.141,63.141,0,0,1,174.66,288a63.141,63.141,0,0,0,6.666-28.239V248Z" transform="translate(-32.003 -154.691)" fill="#fdc8a2"/>
      <path id="Path_102116" data-name="Path 102116" d="M37.333,34.666,42.666,24,48,34.666l13.333,2.667-8,8L56,56,42.666,50.665,29.333,56,32,45.332l-8-8Z" transform="translate(-5.335 -5.353)" fill="#ffc93c"/>
      <path id="Path_102117" data-name="Path 102117" d="M93.33,152a98.312,98.312,0,0,0-26.665-42.664L53.333,104,40,109.333s34.665,16,42.664,42.664Z" transform="translate(-16.002 -58.688)" fill="#f24872"/>
      <path id="Path_102118" data-name="Path 102118" d="M152,125.33C146.665,90.665,120,64,120,64l-8,8,2.667,10.666a98.312,98.312,0,0,1,26.665,42.664Z" transform="translate(-64.004 -32.021)" fill="#f24872"/>
      <path id="Path_102119" data-name="Path 102119" d="M403.289,63.067,385.845,50.788l13.089-18.6a19.3,19.3,0,0,1,18.656-7.973,19.3,19.3,0,0,1-1.212,20.252Z" transform="translate(-246.572 -5.356)" fill="#f24872"/>
      <path id="Path_102120" data-name="Path 102120" d="M445.858,48.876a5.333,5.333,0,1,0,1.292,7.43,5.339,5.339,0,0,0-1.292-7.43Z" transform="translate(-280.98 -21.291)" fill="#ffb431"/>
      <g id="Group_57412" data-name="Group 57412" transform="translate(125.946 32.75)">
        <path id="Path_102121" data-name="Path 102121" d="M366.864,68.091l-11.792-1.778L345.863,79.4l8.965-3.472,4.361,3.07Z" transform="translate(-345.863 -66.313)" fill="#dbf6e9"/>
        <path id="Path_102122" data-name="Path 102122" d="M445.854,108.487l5.652,10.5L442.3,132.07l.243-9.611-4.361-3.069Z" transform="translate(-407.41 -94.43)" fill="#dbf6e9"/>
        <path id="Path_102123" data-name="Path 102123" d="M387.051,129.963l-13.083-9.209,8.32-7.187,8.722,6.139Z" transform="translate(-364.6 -97.817)" fill="#dbf6e9"/>
      </g>
      <path id="Path_102124" data-name="Path 102124" d="M333.333,152S320,165.333,320,184h13.333c10.666-8,13.333-24,13.333-24Z" transform="translate(-202.675 -90.689)" fill="#ffc93c"/>
      <path id="Path_102125" data-name="Path 102125" d="M344.878,185.306l7.992-13.325,4.57,2.741-7.992,13.325Z" transform="translate(-219.26 -104.01)" fill="#f9a614"/>
      <circle id="Ellipse_4097" data-name="Ellipse 4097" cx="13.333" cy="13.333" r="13.333" transform="translate(87.994 18.645)" fill="#87bfb5"/>
      <path id="Path_102126" data-name="Path 102126" d="M232.26,40a13.336,13.336,0,0,1,25.822-6.562" transform="translate(-143.996 -5.339)" fill="#dbf6e9"/>
      <path id="Path_102127" data-name="Path 102127" d="M32,218.666V208l8,5.333L48,208v13.333l8,8H42.666L37.333,240,33,229.221l-9-2.555Z" transform="translate(-5.335 -128.023)" fill="#ffc93c"/>
      <path id="Path_102128" data-name="Path 102128" d="M101.7,68.477c1.7-9.852.374-16.03.36-16.091l5.2-1.185c.067.288,1.6,7.185-.3,18.185ZM67.964,19.7l-4.475,2.9a76.681,76.681,0,0,1,4.431,7.881l4.79-2.345A82.073,82.073,0,0,0,67.964,19.7Zm9.364,156.266h58.663a2.667,2.667,0,0,0,2.667-2.667V161.545a60.7,60.7,0,0,1,.464-7.475l-5.292-.659a66.021,66.021,0,0,0-.5,8.133v9.093H79.994V165.3H98.66v-5.333H64a13.348,13.348,0,0,1-13.333-13.333v-.167A21.808,21.808,0,0,0,63.538,140.2l2.343-2.343-3.771-3.771-2.343,2.343a16.519,16.519,0,0,1-9.1,4.661v-5.118A2.667,2.667,0,0,0,48,133.307H40a5.333,5.333,0,1,1,0-10.666h8a2.667,2.667,0,0,0,2.667-2.667V107.642H45.33v9.666H40a10.666,10.666,0,0,0,0,21.332H45.33v8A18.686,18.686,0,0,0,64,165.3H74.661v8a2.667,2.667,0,0,0,2.667,2.667ZM128.772,59.425c-.55.55-12.892,13.1-14.029,31.217h-7.937c14.715-20.471,12.124-41.931,12-42.9l-5.289.688a53.307,53.307,0,0,1-.685,14.139,60.381,60.381,0,0,1-12.748,28.071H90.894c12.011-17.5,5.279-39.567,4.977-40.528l-5.088,1.6c.06.193,5.266,17.386-2.049,32.094-.815-3.125-1.775-6.164-2.847-9.105,1.2-11.727-.97-22.369-6.3-30.813l-4.509,2.848a38.039,38.039,0,0,1,5.4,15.5A141.579,141.579,0,0,0,62.278,34.961l-4.065,3.451c6.513,7.668,21.891,27.849,26.609,52.23H79.287A101.713,101.713,0,0,0,58.4,54.683q-.616-.689-1.185-1.3L53.3,57.007q.536.579,1.119,1.23A96.688,96.688,0,0,1,73.661,90.643H68.6c-6.422-18.313-24.51-31.453-34.95-37.764l-2.757,4.564C40.357,63.166,56.5,74.8,62.9,90.643H57.448a58.293,58.293,0,0,0-5.572-7.133l-3.935,3.6Q49.553,88.872,51,90.766v5.209h95.661v9.093a60.51,60.51,0,0,1-6.385,27.046,65.848,65.848,0,0,0-5.585,16.112l5.222,1.08a60.572,60.572,0,0,1,5.133-14.806,65.846,65.846,0,0,0,6.948-29.431V93.309a2.666,2.666,0,0,0-2.037-2.589c2.454-3.192,5.5-7.86,6.73-12.635l-5.166-1.328c-1.533,5.961-6.87,12.155-8.444,13.885h-5.824c7.27-8.771,9.275-20.313,9.372-20.894l-5.26-.88c-.025.146-2.52,14.356-11.624,21.773H120.1c1.167-15.909,12.33-27.329,12.449-27.449l-1.888-1.883Zm1.96,67.919a76.227,76.227,0,0,0-3.614,8.487l5.024,1.789a70.948,70.948,0,0,1,3.36-7.891,55.192,55.192,0,0,0,5.066-15.6l-5.26-.879A49.9,49.9,0,0,1,130.732,127.344Zm10.592-22.276v-1.093h-5.333v1.093c0,1.333-.056,2.688-.167,4.022l5.315.437C141.262,108.047,141.324,106.548,141.324,105.068ZM44.465,26.954l12.054,2.411a2.667,2.667,0,0,1,1.363,4.5L50.949,40.8l2.3,9.2a2.667,2.667,0,0,1-3.577,3.122L37.33,48.184,24.988,53.121A2.666,2.666,0,0,1,21.411,50l2.3-9.2-6.933-6.933a2.667,2.667,0,0,1,1.363-4.5L30.2,26.954l4.75-9.5a2.667,2.667,0,0,1,4.77,0Zm6.122,6.663L42.14,31.928a2.666,2.666,0,0,1-1.862-1.422l-2.948-5.9-2.948,5.9a2.666,2.666,0,0,1-1.862,1.422l-8.447,1.689,4.476,4.476a2.666,2.666,0,0,1,.7,2.533l-1.4,5.607,8.492-3.4a2.666,2.666,0,0,1,1.981,0l8.49,3.4-1.4-5.607a2.667,2.667,0,0,1,.7-2.533Zm114.29-6.033a5.333,5.333,0,1,0,1.292,7.43,5.339,5.339,0,0,0-1.292-7.43Zm8.487-9.986a21.842,21.842,0,0,1-1.379,23.051l-4.466,6.345,4.871,9.051a2.667,2.667,0,0,1-.167,2.8l-9.209,13.083a2.667,2.667,0,0,1-4.846-1.6l.207-8.185-4.763-3.354-2.729,7.071a2.667,2.667,0,0,1-4.023,1.221l-13.083-9.209a2.666,2.666,0,0,1-.208-4.2l5.736-4.954-4.763-3.352-7.633,2.956a2.667,2.667,0,0,1-3.143-4.021l9.209-13.083a2.668,2.668,0,0,1,2.578-1.1l10.16,1.534,4.466-6.345a21.842,21.842,0,0,1,21.232-9.075,2.666,2.666,0,0,1,1.952,1.373ZM142.283,36.522l-5.9-.889L133.2,40.166l.753-.291a2.667,2.667,0,0,1,2.5.306l2.181,1.535Zm6.835,19.1L143.8,51.878l-4.16,3.593,7.5,5.277Zm17.8,1.5-2.824-5.25-3.656,5.194,2.181,1.533a2.666,2.666,0,0,1,1.131,2.248l-.02.807Zm2.352-35.77a16.519,16.519,0,0,0-14.724,7.02l-5.413,7.69v0l-6.139,8.722,13.083,9.209,11.552-16.415A16.525,16.525,0,0,0,169.266,21.351Zm-30.988,49.33L133.7,67.937l-8,13.333,4.573,2.744ZM120.831,34.423l-3.866.933A15.99,15.99,0,0,1,88.951,42.1s-5.674,1.289-6.3,1.289a8.006,8.006,0,0,1-7.76-6.127,8.114,8.114,0,0,1-.226-1.88,7.978,7.978,0,0,1,6.127-7.775l5.6-1.351a15.968,15.968,0,0,1,2.556-4.416l4.126,3.379a10.657,10.657,0,0,0-1.614,10.787l20.5-4.937a10.678,10.678,0,0,0-10.625-9.762,10.555,10.555,0,0,0-4.717,1.1l-2.363-4.781a15.988,15.988,0,0,1,17.773,2.462l5.062-1.219a8.007,8.007,0,0,1,9.65,5.9,8.115,8.115,0,0,1,.224,1.878,7.975,7.975,0,0,1-6.124,7.77Zm-34.6,2.849A15.927,15.927,0,0,1,85.327,32l-3.289.793a2.661,2.661,0,0,0-2.044,2.591,2.747,2.747,0,0,0,.078.636,2.664,2.664,0,0,0,3.214,1.958Zm24.586-.437L95.091,40.624a10.65,10.65,0,0,0,15.726-3.788Zm10.8-10.184a2.763,2.763,0,0,0-.077-.636,2.667,2.667,0,0,0-3.214-1.961l-2.754.663a15.877,15.877,0,0,1,1.6,5.1l2.4-.579a2.657,2.657,0,0,0,2.041-2.587Zm-20.3-2.673v5.335h5.333V23.98ZM16.779,96.757,24,89.538V79.977a2.666,2.666,0,0,1,4.146-2.219l6.52,4.347,6.52-4.347a2.667,2.667,0,0,1,4.146,2.219V92.2l7.219,7.218a2.666,2.666,0,0,1-1.886,4.552H38.978l-4.6,9.192A2.666,2.666,0,0,1,32,114.641c-.036,0-.073,0-.109,0a2.667,2.667,0,0,1-2.367-1.67l-3.844-9.564-7.742-2.2a2.667,2.667,0,0,1-1.157-4.451Zm6.982.561,4.633,1.315a2.666,2.666,0,0,1,1.746,1.57l2.123,5.281,2.684-5.366a2.666,2.666,0,0,1,2.384-1.475h6.9l-3.448-3.447A2.667,2.667,0,0,1,40,93.309v-8.35l-3.854,2.569a2.666,2.666,0,0,1-2.958,0l-3.854-2.569v5.684a2.667,2.667,0,0,1-.781,1.886ZM18.083,69.246a62,62,0,0,1,15.258,6.321l2.645-4.631a66.127,66.127,0,0,0-16.743-6.895ZM137.287,24.9a25.935,25.935,0,0,0,1.37-8.923h-5.333a20.57,20.57,0,0,1-1.04,7.076Zm37.36,57.163.682-5.289c-8.057-1.04-13.937,4.482-14.183,4.717l3.686,3.854c.042-.041,4.346-3.99,9.815-3.283Zm-3.992,16.575h-5.333v5.333H159.99v5.333h5.333v5.333h5.333v-5.333h5.333v-5.333h-5.333ZM32,157.305v-5.333H37.33v-5.333H32v-5.333H26.664v5.333H21.331v5.333h5.333v5.333ZM159.99,130.64v-5.333h-5.333v5.333Zm2.666,5.333v5.333h5.333v-5.333ZM16,133.307h5.333v-5.333H16Zm93.328-32v5.333h5.333v-5.333Zm-10.666,16v5.333h5.333v-5.333ZM48,15.98v5.333h5.333V15.98Zm74.662,42.664h5.333V53.312h-5.333Z" transform="translate(0)"/>
    </g>
  </g>
</svg>
