<svg xmlns="http://www.w3.org/2000/svg" width="52" height="52" viewBox="0 0 52 52">
  <g id="t2-ic8" transform="translate(-8 -8)">
    <g id="Group_57348" data-name="Group 57348" transform="translate(8.839 8.839)">
      <g id="Group_57322" data-name="Group 57322" transform="translate(12.581 33.548)">
        <path id="Path_102055" data-name="Path 102055" d="M139.355,336l1.451,10.14v.008a1.35,1.35,0,0,0-.486-.084,1.555,1.555,0,0,0-1.392.855l-.411.822H136L137.677,336Z" transform="translate(-136 -336)" fill="#cc3d60"/>
      </g>
      <g id="Group_57323" data-name="Group 57323" transform="translate(12.79 30.194)">
        <path id="Path_102056" data-name="Path 102056" d="M142.613,305.149l-1.468,2.206h-1.677l-1.468-2.2L140.306,304Z" transform="translate(-138 -304)" fill="#cc3d60"/>
      </g>
      <g id="Group_57324" data-name="Group 57324" transform="translate(15.935 31.343)">
        <path id="Path_102057" data-name="Path 102057" d="M172.194,324.714v4.345a2.325,2.325,0,0,0-.839-.151h-.839v-.126a1.539,1.539,0,0,0-1.065-1.468v-.008L168,317.166l1.468-2.206,2.726,1.367Z" transform="translate(-168 -314.96)" fill="#c8ea73"/>
      </g>
      <g id="Group_57325" data-name="Group 57325" transform="translate(10.065 31.351)">
        <path id="Path_102058" data-name="Path 102058" d="M114.726,315.04l1.468,2.2-1.677,11.742H112V316.4Z" transform="translate(-112 -315.04)" fill="#c8ea73"/>
      </g>
      <g id="Group_57326" data-name="Group 57326" transform="translate(15.097 26.839)">
        <path id="Path_102059" data-name="Path 102059" d="M165.032,272v5.871l-2.726-1.367L160,275.355,163.355,272Z" transform="translate(-160 -272)" fill="#c8ea73"/>
      </g>
      <g id="Group_57327" data-name="Group 57327" transform="translate(10.065 26.839)">
        <path id="Path_102060" data-name="Path 102060" d="M117.032,275.355l-2.306,1.157L112,277.871v-5.636a12.238,12.238,0,0,1,1.677-.235Z" transform="translate(-112 -272)" fill="#c8ea73"/>
      </g>
      <g id="Group_57328" data-name="Group 57328" transform="translate(20.129 13.419)">
        <path id="Path_102061" data-name="Path 102061" d="M211.355,157.419A13.416,13.416,0,0,0,224.774,144v2.516a1.69,1.69,0,0,0,1.677,1.677,1.682,1.682,0,0,0,1.677-1.677v-1.677a1.69,1.69,0,0,0,1.677,1.677v2.332a17.614,17.614,0,0,1-6.71,13.839v-1.074a.841.841,0,0,0-.839-.839h-1.677a.841.841,0,0,0-.839.839v3.154a18.046,18.046,0,0,1-4.093,1.359l-2.617.52v4.194h-4.194a.841.841,0,0,0-.839.839V157.419Z" transform="translate(-208 -144)" fill="#f6f6f6"/>
      </g>
      <g id="Group_57329" data-name="Group 57329" transform="translate(0 27.074)">
        <path id="Path_102062" data-name="Path 102062" d="M26.065,292.457H31.1v5.032h-6.71A8.39,8.39,0,0,1,16,289.1v-2.483A12.635,12.635,0,0,1,26.065,274.24v18.217Z" transform="translate(-16 -274.24)" fill="#f6f6f6"/>
      </g>
      <g id="Group_57330" data-name="Group 57330" transform="translate(36.903 3.355)">
        <path id="Path_102063" data-name="Path 102063" d="M371.355,49.677v4.194H368V49.677A1.682,1.682,0,0,1,369.677,48a1.69,1.69,0,0,1,1.677,1.677Z" transform="translate(-368 -48)" fill="#ccd1d9"/>
      </g>
      <g id="Group_57331" data-name="Group 57331" transform="translate(36.903 9.226)">
        <path id="Path_102064" data-name="Path 102064" d="M371.355,109.032v1.677a1.682,1.682,0,0,1-1.677,1.677A1.69,1.69,0,0,1,368,110.71V104h3.355v5.032Z" transform="translate(-368 -104)" fill="#9ddfd3"/>
      </g>
      <g id="Group_57332" data-name="Group 57332" transform="translate(1.677 0)">
        <path id="Path_102065" data-name="Path 102065" d="M58.839,29.419a5.036,5.036,0,0,1-5.032,5.032h-.059a4.311,4.311,0,0,0,.059-.738V30.946a2.506,2.506,0,0,0,0-4.73V24.387a1.682,1.682,0,0,0-1.677-1.677h-6.71a3.354,3.354,0,0,0-3.355,3.355v1.677H40.781a2.071,2.071,0,0,0-.923,3.925l2.206,1.107v6.257a3.263,3.263,0,0,1-1.677.453,3.354,3.354,0,0,1-3.355-3.355A3.352,3.352,0,0,1,34.6,30.468a5.031,5.031,0,0,1,2.432-9.435A5.036,5.036,0,0,1,42.065,16a4.974,4.974,0,0,1,3.355,1.292,5.02,5.02,0,0,1,7.23.528,4.755,4.755,0,0,1,1.157-.143,5.036,5.036,0,0,1,5.032,5.032,4.974,4.974,0,0,1-1.292,3.355A4.974,4.974,0,0,1,58.839,29.419Z" transform="translate(-32 -16)" fill="#31326f"/>
      </g>
      <g id="Group_57333" data-name="Group 57333" transform="translate(11.742 6.71)">
        <path id="Path_102066" data-name="Path 102066" d="M139.742,83.5v.008a2.325,2.325,0,0,0-.839-.151,2.489,2.489,0,0,0-2.365,1.677H132.9l-.017.008a2.5,2.5,0,0,0-4.747.042l-.134-.05V83.355A3.354,3.354,0,0,1,131.355,80h6.71a1.682,1.682,0,0,1,1.677,1.677Z" transform="translate(-128 -80)" fill="#f0d0b4"/>
      </g>
      <g id="Group_57334" data-name="Group 57334" transform="translate(8.387 11.742)">
        <path id="Path_102067" data-name="Path 102067" d="M111.1,131.212v2.759a4.311,4.311,0,0,1-.059.738,5.73,5.73,0,0,1-5.611,5.024v.008l.637,3.355-3.355,3.355L99.355,143.1V133.032l-2.206-1.107A2.071,2.071,0,0,1,98.072,128h1.283l.134.05a2.225,2.225,0,0,0-.134.788,2.516,2.516,0,0,0,5.032,0,2.28,2.28,0,0,0-.151-.83l.017-.008h3.64a2.325,2.325,0,0,0-.151.839,2.513,2.513,0,0,0,2.516,2.516,2.325,2.325,0,0,0,.839-.151Z" transform="translate(-96 -128)" fill="#f0d0b4"/>
      </g>
      <g id="Group_57335" data-name="Group 57335" transform="translate(20.129 10.065)">
        <path id="Path_102068" data-name="Path 102068" d="M210.516,112a2.325,2.325,0,0,1,.839.151,2.506,2.506,0,0,1,0,4.73,2.325,2.325,0,0,1-.839.151A2.513,2.513,0,0,1,208,114.516a2.325,2.325,0,0,1,.151-.839A2.489,2.489,0,0,1,210.516,112Z" transform="translate(-208 -112)" fill="#9ddfd3"/>
      </g>
      <g id="Group_57336" data-name="Group 57336" transform="translate(11.742 10.065)">
        <path id="Path_102069" data-name="Path 102069" d="M132.881,113.686a2.28,2.28,0,0,1,.151.83,2.516,2.516,0,1,1-5.032,0,2.225,2.225,0,0,1,.134-.788,2.5,2.5,0,0,1,4.747-.042Z" transform="translate(-128 -112)" fill="#9ddfd3"/>
      </g>
      <g id="Group_57337" data-name="Group 57337" transform="translate(40.258 9.226)">
        <path id="Path_102070" data-name="Path 102070" d="M403.355,109.032a1.682,1.682,0,0,1-1.677,1.677A1.69,1.69,0,0,1,400,109.032v-3.355A1.682,1.682,0,0,1,401.677,104a1.69,1.69,0,0,1,1.677,1.677Z" transform="translate(-400 -104)" fill="#f0d0b4"/>
      </g>
      <g id="Group_57338" data-name="Group 57338" transform="translate(33.548 9.226)">
        <path id="Path_102071" data-name="Path 102071" d="M338.86,104.495a1.677,1.677,0,0,1-1.183,2.86A1.682,1.682,0,0,1,336,105.677a1.672,1.672,0,0,1,2.86-1.183Z" transform="translate(-336 -104)" fill="#f0d0b4"/>
      </g>
      <g id="Group_57339" data-name="Group 57339" transform="translate(15.097 43.613)">
        <path id="Path_102072" data-name="Path 102072" d="M166.71,436.194a2.507,2.507,0,0,1-1.107,2.088h-.008a2.511,2.511,0,0,1-1.4.428H160v-5.032l.411-.822A1.555,1.555,0,0,1,161.8,432a1.35,1.35,0,0,1,.486.084,1.539,1.539,0,0,1,1.065,1.468v.126h.839a2.325,2.325,0,0,1,.839.151,2.38,2.38,0,0,1,.939.587A2.51,2.51,0,0,1,166.71,436.194Z" transform="translate(-160 -432)" fill="#f0d0b4"/>
      </g>
      <g id="Group_57340" data-name="Group 57340" transform="translate(20.129 40.258)">
        <path id="Path_102073" data-name="Path 102073" d="M216.387,406.71v1.677a1.682,1.682,0,0,1-.763,1.409,1.716,1.716,0,0,1-.914.268h-5.032a1.627,1.627,0,0,1-1.107-.428,2.518,2.518,0,0,0,.369-3.866,2.38,2.38,0,0,0-.939-.587v-4.345a.841.841,0,0,1,.839-.839h6.71a.841.841,0,0,1,.839.839v5.871Z" transform="translate(-208 -400)" fill="#9ddfd3"/>
      </g>
      <g id="Group_57341" data-name="Group 57341" transform="translate(41.935 30.194)">
        <path id="Path_102074" data-name="Path 102074" d="M419.355,304.839v4.194H416v-4.194a.841.841,0,0,1,.839-.839h1.677A.841.841,0,0,1,419.355,304.839Z" transform="translate(-416 -304)" fill="#cc3d60"/>
      </g>
      <g id="Group_57342" data-name="Group 57342" transform="translate(31.871 30.194)">
        <path id="Path_102075" data-name="Path 102075" d="M323.355,305.912v3.12H320v-4.194a.841.841,0,0,1,.839-.839h1.677a.841.841,0,0,1,.839.839Z" transform="translate(-320 -304)" fill="#cc3d60"/>
      </g>
      <g id="Group_57343" data-name="Group 57343" transform="translate(31.871 35.226)">
        <path id="Path_102076" data-name="Path 102076" d="M320,352h3.355v3.355H320Z" transform="translate(-320 -352)" fill="#f3f9ff"/>
      </g>
      <g id="Group_57344" data-name="Group 57344" transform="translate(28.516 38.581)">
        <path id="Path_102077" data-name="Path 102077" d="M295.272,390.71c-2.239,0-2.239,1.677-4.479,1.677-1.476,0-1.979-.73-2.793-1.233v-.168l3.355-4.47V384h3.355v2.516l1.912,2.55,2.449,3.263C297.477,392.035,297.251,390.71,295.272,390.71Z" transform="translate(-288 -384)" fill="#f3f9ff"/>
      </g>
      <g id="Group_57345" data-name="Group 57345" transform="translate(37.146 35.226)">
        <path id="Path_102078" data-name="Path 102078" d="M383.5,361.955a.478.478,0,0,1-.008.109c-2.231-.008-2.231-1.677-4.462-1.677s-2.239,1.677-4.479,1.677c-2.147,0-2.231-1.552-4.227-1.669a5.106,5.106,0,0,1,1.61-2.39l3.179-2.65V352h3.355v3.355l3.179,2.65A5.145,5.145,0,0,1,383.5,361.955Z" transform="translate(-370.32 -352)" fill="#f3f9ff"/>
      </g>
      <g id="Group_57346" data-name="Group 57346" transform="translate(27.753 45.29)">
        <path id="Path_102079" data-name="Path 102079" d="M281.483,448.445c.814.5,1.317,1.233,2.793,1.233,2.239,0,2.239-1.677,4.479-1.677,1.979,0,2.206,1.325,3.8,1.619l.294.394a1.885,1.885,0,0,1-.168,2.457l-.008.008a1.876,1.876,0,0,1-1.334.554h-9.645a1.924,1.924,0,0,1-.973-.268,1.682,1.682,0,0,0,.763-1.409v-2.91Z" transform="translate(-280.72 -448)" fill="#9ddfd3"/>
      </g>
      <g id="Group_57347" data-name="Group 57347" transform="translate(37.138 43.613)">
        <path id="Path_102080" data-name="Path 102080" d="M370.248,432.008c2,.117,2.08,1.669,4.227,1.669,2.239,0,2.239-1.677,4.479-1.677s2.231,1.669,4.462,1.677a5.123,5.123,0,0,1-5.133,5.032h-3.137a5.064,5.064,0,0,1-2.332-.562,1.885,1.885,0,0,0,.168-2.457l-.294-.394-2.449-3.263c0-.008.008-.017.008-.025Z" transform="translate(-370.24 -432)" fill="#9ddfd3"/>
      </g>
    </g>
    <g id="Group_57349" data-name="Group 57349" transform="translate(8 8)">
      <path id="Path_102081" data-name="Path 102081" d="M157.791,188.594a1.875,1.875,0,0,1-3.355,0l-.088-.177-1.5.751.088.176a3.553,3.553,0,0,0,6.356,0l.088-.177-1.5-.751Z" transform="translate(-137.662 -169.501)"/>
      <path id="Path_102082" data-name="Path 102082" d="M57.85,49.427l-2.882-2.4V39.871a1.679,1.679,0,0,0-1.677-1.677H51.613a1.679,1.679,0,0,0-1.677,1.677v7.156l-2.882,2.4a5.951,5.951,0,0,0-1.24,1.442l-.91-1.213V41.335a18.345,18.345,0,0,0,6.71-14.225V25.459A2.513,2.513,0,0,0,53.29,23.1V19.743a2.519,2.519,0,0,0-2.516-2.516,2.488,2.488,0,0,0-.839.154v-3.51a2.516,2.516,0,1,0-5.032,0V17.38a2.488,2.488,0,0,0-.839-.154,2.516,2.516,0,0,0,0,5.032A2.488,2.488,0,0,0,44.9,22.1v.154A12.6,12.6,0,0,1,32.323,34.839H27.985l-.336-1.776a6.62,6.62,0,0,0,5.324-4.971A5.862,5.862,0,0,0,37.134,18.9a5.863,5.863,0,0,0-5.669-9.16,5.858,5.858,0,0,0-7.53-.684,5.864,5.864,0,0,0-9.174,4.026,5.87,5.87,0,0,0-2.841,10.433,4.153,4.153,0,0,0-.566,2.1,4.2,4.2,0,0,0,3.425,4.123,4.147,4.147,0,0,0,4.962,3.331v1.867A13.524,13.524,0,0,0,8,48.288v2.486A9.237,9.237,0,0,0,17.226,60h10.9a3.326,3.326,0,0,0,1.358-.293A2.506,2.506,0,0,0,30.645,60h5.032a2.493,2.493,0,0,0,.924-.181,2.728,2.728,0,0,0,.963.181H47.21a2.7,2.7,0,0,0,1.459-.432A6,6,0,0,0,50.882,60h3.138A5.98,5.98,0,0,0,57.85,49.427ZM53.29,39.871v3.355H51.613V39.871ZM48.129,50.715l3.484-2.9V44.9H53.29v2.909l3.484,2.9a4.289,4.289,0,0,1,1.451,2.4,3.813,3.813,0,0,1-.8-.5,4.234,4.234,0,0,0-5.481,0,2.573,2.573,0,0,1-3.466,0,4.989,4.989,0,0,0-1.3-.766,4.26,4.26,0,0,1,.95-1.138ZM45.615,53.4a4.383,4.383,0,0,0-.993-.11,4.12,4.12,0,0,0-2.74,1.006,2.491,2.491,0,0,1-1.734.671,2.436,2.436,0,0,1-1.687-.637l3.086-4.116V48.258h1.677v1.957ZM34.839,45.591l1.941-.388a18.551,18.551,0,0,0,3.091-.908v5.362l-1.677,2.237V49.935a1.679,1.679,0,0,0-1.677-1.677H34.839Zm8.387.99H41.548V44.9h1.677Zm0-3.355H41.548V39.871h1.677ZM50.774,18.9a.84.84,0,0,1,.839.839V23.1a.839.839,0,1,1-1.677,0V19.742A.84.84,0,0,1,50.774,18.9Zm-3.355-5.871a.84.84,0,0,1,.839.839v3.355H46.581V13.871A.84.84,0,0,1,47.419,13.032Zm-3.355,7.548a.839.839,0,1,1,.839-.839A.84.84,0,0,1,44.065,20.581ZM46.581,18.9h1.677v5.871a.839.839,0,1,1-1.677,0Zm-.728,7.824a2.489,2.489,0,0,0,3.986-1.3c.031.013.065.018.1.03V27.11a16.667,16.667,0,0,1-5.167,12.1,1.678,1.678,0,0,0-1.542-1.021H41.548a1.679,1.679,0,0,0-1.677,1.677v2.605a16.831,16.831,0,0,1-3.42,1.082l-1.612.322V41.548H33.161v6.71H29.806V36.516h2.516A14.275,14.275,0,0,0,45.853,26.728ZM28.129,53.29h-.11a2.4,2.4,0,0,0-1.027-1.312L25.65,42.585l.879-1.318,1.6.8Zm-4.535-.354-.177.354H22.386l1.438-10.065h.222l1.208,8.454a2.363,2.363,0,0,0-1.66,1.256ZM20.275,36.558,22.52,38.8l-2.778,1.389V36.623c.176-.027.355-.046.533-.065Zm7.362-.042h.491v3.675L25.351,38.8Zm-3.312,5.032h-.78l-.692-1.037,1.082-.541,1.082.541Zm-4.584.518,1.6-.8.879,1.318L20.691,53.29h-.949ZM31.484,26.55a4.934,4.934,0,0,1-6.494,4.681l-1.627-.543-.531,1.591,1.627.543a6.618,6.618,0,0,0,1.492.291l.433,2.285-2.448,2.449L21.419,35.33V25.095l-2.673-1.336a1.235,1.235,0,0,1,.553-2.339h.443a3.355,3.355,0,1,0,6.71,0h1.677a3.358,3.358,0,0,0,3.355,3.355Zm-.839-10.163a.84.84,0,0,1,.839.839v.839A3.344,3.344,0,0,0,28.6,19.742H25.984a3.3,3.3,0,0,0-4.527-1.232,2.515,2.515,0,0,1,2.478-2.123Zm.839,6.71a1.677,1.677,0,1,1,1.677-1.677A1.679,1.679,0,0,1,31.484,23.1ZM23.1,19.742a1.677,1.677,0,1,1-1.677,1.677A1.679,1.679,0,0,1,23.1,19.742ZM18.9,31.484a2.519,2.519,0,0,1-2.516-2.516v-.839h-.839a2.509,2.509,0,0,1-1.821-4.242l.746-.787-.949-.524a4.193,4.193,0,0,1,2.024-7.866h.839v-.839a4.188,4.188,0,0,1,6.989-3.119l.559.5.559-.5a4.185,4.185,0,0,1,6.022.44l.332.4.507-.12a4.186,4.186,0,0,1,4.086,6.871l-.5.56.5.56a4.187,4.187,0,0,1-2.28,6.9V24.308a3.326,3.326,0,0,0,0-5.777V17.226a2.519,2.519,0,0,0-2.516-2.516H27.29a.839.839,0,1,1,0-1.677h.839V11.355H27.29a2.519,2.519,0,0,0-2.516,2.516,2.488,2.488,0,0,0,.154.839h-.993A4.2,4.2,0,0,0,19.742,18.9v.839H19.3A2.912,2.912,0,0,0,18,25.258l1.745.873v5.19a2.5,2.5,0,0,1-.839.163ZM9.677,50.774V48.288A11.849,11.849,0,0,1,18.065,37V53.29h-.839a2.519,2.519,0,0,1-2.516-2.516V44.9H13.032v5.871a4.2,4.2,0,0,0,4.194,4.194H23.1v3.355H17.226A7.557,7.557,0,0,1,9.677,50.774Zm15.1,7.548v-4l.32-.641a.716.716,0,0,1,1.357.32v.961h1.677a1.677,1.677,0,0,1,0,3.355Zm6.243,0a3.3,3.3,0,0,0-1.211-4.566V49.935h6.71v1.677H33.161V53.29h3.355v1.677H34.839v1.677h1.677v.839a.84.84,0,0,1-.839.839Zm16.192,0h-9.17a2.488,2.488,0,0,0,.154-.839V56.165a3.88,3.88,0,0,0,1.955.48,4.12,4.12,0,0,0,2.74-1.006,2.576,2.576,0,0,1,3.468,0,4.719,4.719,0,0,0,1.566.839l.126.168a1.048,1.048,0,0,1-.839,1.677Zm6.811,0H50.882a4.309,4.309,0,0,1-1.111-.149,2.687,2.687,0,0,0,.164-.9,2.739,2.739,0,0,0-.545-1.635l-.716-.955a4,4,0,0,0,1.539.284,4.12,4.12,0,0,0,2.74-1.006,2.576,2.576,0,0,1,3.468,0,4.385,4.385,0,0,0,1.815.913,4.309,4.309,0,0,1-4.215,3.448Z" transform="translate(-8 -8)"/>
    </g>
  </g>
</svg>
