<svg xmlns="http://www.w3.org/2000/svg" width="52.105" height="52" viewBox="0 0 52.105 52">
  <g id="t2-ic6" transform="translate(0 -0.518)">
    <g id="Group_57255" data-name="Group 57255" transform="translate(0.765 1.261)">
      <g id="Group_57237" data-name="Group 57237" transform="translate(33.461 14.682)">
        <g id="Group_57236" data-name="Group 57236">
          <path id="Path_101870" data-name="Path 101870" d="M349.642,158.005a1.894,1.894,0,1,1,3.788,0v18.8a5.874,5.874,0,0,1-2.013,4.426l-.163.142v5.193a1.332,1.332,0,0,1-1.332,1.332h-8.684a1.332,1.332,0,0,1-1.332-1.332v-4.971l-1.042-.749a6.121,6.121,0,0,1-2.549-4.971v-8.029a1.935,1.935,0,0,1,1.93-1.936V154.683a1.894,1.894,0,0,1,3.788,0h.035v-.658a1.926,1.926,0,0,1,1.868-1.942,1.892,1.892,0,0,1,1.919,1.893v2.657a1.894,1.894,0,0,1,3.788,0Z" transform="translate(-336.314 -152.082)" fill="#ffdfcf"/>
        </g>
      </g>
      <path id="Path_101871" data-name="Path 101871" d="M353.816,277.474v-5.6a3.973,3.973,0,0,0-3.973-3.973,3.993,3.993,0,0,0-.622.049v9.525Z" transform="translate(-314.446 -241.432)" fill="#ffcebf"/>
      <g id="Group_57242" data-name="Group 57242" transform="translate(0 14.682)">
        <g id="Group_57241" data-name="Group 57241">
          <path id="Path_101872" data-name="Path 101872" d="M340.185,294.569v9.078h-.28V303.6l-1.042-.749a6.121,6.121,0,0,1-2.549-4.971v-8.029a1.936,1.936,0,1,1,3.871,0Z" transform="translate(-302.853 -274.095)" fill="#ffdfcf"/>
          <g id="Group_57239" data-name="Group 57239" transform="translate(0 0.107)">
            <g id="Group_57238" data-name="Group 57238">
              <path id="Path_101873" data-name="Path 101873" d="M20.843,159.059a1.894,1.894,0,1,1,3.788,0v18.8a5.874,5.874,0,0,1-2.013,4.426l-.163.142v5.193a1.332,1.332,0,0,1-1.332,1.332H12.438a1.332,1.332,0,0,1-1.332-1.332v-4.971l-1.042-.749a6.121,6.121,0,0,1-2.549-4.971V168.9a1.935,1.935,0,0,1,1.93-1.936V155.737a1.894,1.894,0,0,1,3.788,0h.035v-.658a1.926,1.926,0,0,1,1.868-1.942,1.892,1.892,0,0,1,1.919,1.893v2.657a1.894,1.894,0,0,1,3.788,0Z" transform="translate(-7.515 -153.136)" fill="#ffe5c2"/>
            </g>
          </g>
          <path id="Path_101874" data-name="Path 101874" d="M31.748,278.778v-5.821a3.971,3.971,0,0,0-3.832-3.969v9.791Z" transform="translate(-25.84 -257.09)" fill="#fed2a4"/>
          <path id="Path_101875" data-name="Path 101875" d="M11.386,295.6v9.078h-.28v-.043l-1.042-.749a6.121,6.121,0,0,1-2.549-4.971V290.89a1.936,1.936,0,1,1,3.871,0Z" transform="translate(-7.515 -275.025)" fill="#ffe5c2"/>
          <g id="Group_57240" data-name="Group 57240" transform="translate(33.461)">
            <path id="Path_101876" data-name="Path 101876" d="M343.173,193.083a1.332,1.332,0,0,1-1.332-1.332v-4.376a1.159,1.159,0,0,0-.482-.941l-.56-.4a6.121,6.121,0,0,1-2.549-4.971v-8.029a1.936,1.936,0,0,1,1.93-1.936V159.872a1.893,1.893,0,0,1,.193-.829,1.92,1.92,0,0,0-.235-.014,1.892,1.892,0,0,0-1.894,1.894v11.223a1.935,1.935,0,0,0-1.93,1.936v8.029a6.121,6.121,0,0,0,2.549,4.971l1.042.749V192.8a1.332,1.332,0,0,0,1.332,1.332h8.684a1.332,1.332,0,0,0,1.3-1.051h-8.05Z" transform="translate(-336.314 -158.322)" fill="#ffcebf"/>
            <path id="Path_101877" data-name="Path 101877" d="M394.779,152.833a1.887,1.887,0,0,1,.153-.74,1.892,1.892,0,0,0-2.089,1.928V165.37a1.936,1.936,0,0,0,1.936-1.936Z" transform="translate(-387.09 -152.082)" fill="#ffcebf"/>
          </g>
        </g>
      </g>
      <g id="Group_57245" data-name="Group 57245" transform="translate(15.091 0.021)">
        <g id="Group_57244" data-name="Group 57244">
          <g id="Group_57243" data-name="Group 57243">
            <path id="Path_101878" data-name="Path 101878" d="M171.605,15.065a2.243,2.243,0,0,1,.659-1.591,2.4,2.4,0,0,1,3.305-.008,1.434,1.434,0,0,1,.538,1.124v22.87a5.809,5.809,0,0,1-2.6,4.842l-.6.394a.463.463,0,0,0-.206.384V57.405a1.094,1.094,0,0,1-1.094,1.094H161.263a1.2,1.2,0,0,1-1.195-1.195V43.1l-1.239-.89A7.274,7.274,0,0,1,155.8,36.3V26.756a2.3,2.3,0,0,1,2.3-2.3V11.119a1.431,1.431,0,0,1,.543-1.127,2.407,2.407,0,0,1,3.3.018A2.243,2.243,0,0,1,162.6,11.6V9.8a1.433,1.433,0,0,1,.537-1.123,2.4,2.4,0,0,1,3.3.009,2.243,2.243,0,0,1,.659,1.591v3.158a2.251,2.251,0,0,1,4.5,0Z" transform="translate(-155.801 -8.027)" fill="#eb9c8d"/>
          </g>
        </g>
      </g>
      <path id="Path_101879" data-name="Path 101879" d="M182.743,160.8v-7.02a4.343,4.343,0,0,0-4.339-4.338V160.8Z" transform="translate(-161.013 -135.026)" fill="#d78878"/>
      <g id="Group_57247" data-name="Group 57247" transform="translate(13.331 16.45)">
        <g id="Group_57246" data-name="Group 57246">
          <path id="Path_101880" data-name="Path 101880" d="M138.507,202.012a1.936,1.936,0,0,0,1.936-1.936v-6.641a1.884,1.884,0,0,1,.136-.7c-.06-.006-.12-.009-.181-.009a1.892,1.892,0,0,0-1.891,1.832Z" transform="translate(-138.507 -190.359)" fill="#fed2a4"/>
          <path id="Path_101881" data-name="Path 101881" d="M160.4,177.361V188.1h-.334l-1.239-.89A7.274,7.274,0,0,1,155.8,181.3v-9.542a2.3,2.3,0,0,1,4.6,0Z" transform="translate(-154.041 -169.459)" fill="#eb9c8d"/>
        </g>
      </g>
      <path id="Path_101882" data-name="Path 101882" d="M204.8,233.233l-3.532-3.547a3.017,3.017,0,0,1,3.932-4.553l.7.518a.206.206,0,0,0,.245,0l.7-.518a3.017,3.017,0,0,1,3.932,4.553l-3.532,3.547a1.725,1.725,0,0,1-2.445,0Z" transform="translate(-180.757 -202.485)" fill="#cc3d60"/>
      <g id="Group_57248" data-name="Group 57248" transform="translate(15.091 1.346)">
        <path id="Path_101883" data-name="Path 101883" d="M162.37,65.941V56.016a2.026,2.026,0,0,0-.83-1.635l-.409-.3a7.446,7.446,0,0,1-3.029-6.013V38.356a2.358,2.358,0,0,1,.673-1.656,2.276,2.276,0,0,1,1.627-.685V22.931a2.3,2.3,0,0,1,.781-1.734,2.256,2.256,0,0,0-.964-.154,2.287,2.287,0,0,0-2.117,2.3v12.8a2.3,2.3,0,0,0-2.3,2.3v9.542a7.274,7.274,0,0,0,3.029,5.907l1.239.89v14.3a1.1,1.1,0,0,0,1.1,1.1h10.438a1.1,1.1,0,0,0,1.1-1.1v-.91h-8.1a2.236,2.236,0,0,1-2.236-2.236Z" transform="translate(-155.802 -21.039)" fill="#d78878"/>
      </g>
      <g id="Group_57251" data-name="Group 57251" transform="translate(21.893)">
        <g id="Group_57249" data-name="Group 57249">
          <path id="Path_101884" data-name="Path 101884" d="M222.646,24.856a2.3,2.3,0,0,0,2.3-2.3V9.708a2.3,2.3,0,0,1,.781-1.734,2.253,2.253,0,0,0-.931-.156,2.285,2.285,0,0,0-2.151,2.3Z" transform="translate(-222.646 -7.816)" fill="#d78878"/>
        </g>
        <g id="Group_57250" data-name="Group 57250" transform="translate(4.506 3.179)">
          <path id="Path_101885" data-name="Path 101885" d="M266.923,52.918a2.3,2.3,0,0,0,2.3-2.3v-10a2.3,2.3,0,0,1,.536-1.482,2.251,2.251,0,0,0-2.836,2.014Z" transform="translate(-266.923 -39.057)" fill="#d78878"/>
          <path id="Path_101886" data-name="Path 101886" d="M311.13,67.327a2.3,2.3,0,0,0,2.3-2.3V56.279a2.305,2.305,0,0,1,.318-1.172,2.2,2.2,0,0,0-.348-.031,2.25,2.25,0,0,0-2.27,2.13Z" transform="translate(-306.631 -53.445)" fill="#d78878"/>
        </g>
      </g>
      <path id="Path_101887" data-name="Path 101887" d="M377.827,341.582l-2.972-2.985a2.538,2.538,0,0,1,3.308-3.831l.589.436a.173.173,0,0,0,.206,0l.589-.436a2.538,2.538,0,0,1,3.308,3.831l-2.972,2.985a1.451,1.451,0,0,1-2.057,0Z" transform="translate(-336.808 -301.046)" fill="#cc3d60"/>
      <g id="Group_57253" data-name="Group 57253" transform="translate(0 14.789)">
        <g id="Group_57252" data-name="Group 57252">
          <path id="Path_101888" data-name="Path 101888" d="M15.143,194.137a2.1,2.1,0,0,1-2.1-2.1v-3.608a1.159,1.159,0,0,0-.482-.941l-.56-.4a6.121,6.121,0,0,1-2.549-4.971v-8.029a1.936,1.936,0,0,1,1.93-1.936V160.926a1.892,1.892,0,0,1,.193-.829,1.921,1.921,0,0,0-.235-.014,1.892,1.892,0,0,0-1.894,1.894V173.2a1.935,1.935,0,0,0-1.93,1.936v8.029a6.121,6.121,0,0,0,2.549,4.971l1.042.749v4.971a1.332,1.332,0,0,0,1.332,1.332h8.684a1.332,1.332,0,0,0,1.3-1.051Z" transform="translate(-7.516 -159.376)" fill="#fed2a4"/>
          <path id="Path_101889" data-name="Path 101889" d="M65.98,153.887a1.887,1.887,0,0,1,.153-.74,1.892,1.892,0,0,0-2.089,1.928v11.349a1.936,1.936,0,0,0,1.936-1.936Z" transform="translate(-58.291 -153.136)" fill="#fed2a4"/>
          <path id="Path_101890" data-name="Path 101890" d="M101.276,189.862a1.936,1.936,0,0,0,1.936-1.936v-7.943a1.882,1.882,0,0,1,.15-.732,1.927,1.927,0,0,0-.193-.01,1.893,1.893,0,0,0-1.892,1.861Z" transform="translate(-91.734 -176.584)" fill="#fed2a4"/>
        </g>
        <path id="Path_101891" data-name="Path 101891" d="M48.737,341.583,45.765,338.6a2.538,2.538,0,0,1,3.308-3.831l.589.436a.174.174,0,0,0,.206,0l.589-.436a2.538,2.538,0,0,1,3.308,3.831l-2.972,2.985a1.452,1.452,0,0,1-2.057,0Z" transform="translate(-41.208 -315.836)" fill="#cc3d60"/>
      </g>
      <g id="Group_57254" data-name="Group 57254" transform="translate(43.003 17.338)">
        <path id="Path_101892" data-name="Path 101892" d="M430.074,188.809a1.936,1.936,0,0,0,1.936-1.936V178.93a1.883,1.883,0,0,1,.15-.732,1.926,1.926,0,0,0-.193-.01,1.893,1.893,0,0,0-1.892,1.861Z" transform="translate(-430.074 -178.188)" fill="#ffcebf"/>
        <path id="Path_101893" data-name="Path 101893" d="M467.306,200.958a1.936,1.936,0,0,0,1.936-1.936v-6.641a1.884,1.884,0,0,1,.136-.7c-.06-.006-.12-.009-.181-.009a1.892,1.892,0,0,0-1.891,1.832Z" transform="translate(-463.517 -190.301)" fill="#ffcebf"/>
      </g>
    </g>
    <g id="Group_57256" data-name="Group 57256" transform="translate(0 0.518)">
      <path id="Path_101894" data-name="Path 101894" d="M171.662,12.039a.764.764,0,0,0,.764-.764V4.857a1.487,1.487,0,1,1,2.973,0V18.111a.764.764,0,1,0,1.528,0V3.533a1.487,1.487,0,0,1,2.973,0V18.111a.764.764,0,1,0,1.528,0V6.691a1.487,1.487,0,1,1,2.973,0v11.42a.764.764,0,1,0,1.528,0V8.322h0a1.487,1.487,0,1,1,2.973,0v2.307a.764.764,0,0,0,1.528,0V8.321a3.012,3.012,0,0,0-4.641-2.537,3.012,3.012,0,0,0-4.362-1.714V3.533a3.014,3.014,0,0,0-5.8-1.152,3.012,3.012,0,0,0-4.73,2.477v6.418a.764.764,0,0,0,.764.764Z" transform="translate(-153.506 -0.518)"/>
      <path id="Path_101895" data-name="Path 101895" d="M319.33,125.112a.764.764,0,0,0-1.528,0v16.83a5.034,5.034,0,0,1-2.257,4.205l-.6.395a1.222,1.222,0,0,0-.548,1.021v15.419a.764.764,0,0,0,1.528,0V147.726l.46-.3a6.558,6.558,0,0,0,2.941-5.479Z" transform="translate(-282.405 -111.746)"/>
      <path id="Path_101896" data-name="Path 101896" d="M164.711,140.813a3.8,3.8,0,0,0-5.117-.576l-.368.273-.368-.273a3.8,3.8,0,0,0-4.437-.042v-3.241a3.07,3.07,0,0,0-2.3-2.968v-2.511a.764.764,0,1,0-1.528,0v2.511a3.07,3.07,0,0,0-2.3,2.968V146.5a8.058,8.058,0,0,0,3.347,6.528l.921.662V168.7a.764.764,0,0,0,1.528,0v-15.4a.764.764,0,0,0-.318-.62l-1.239-.89a6.526,6.526,0,0,1-2.711-5.287v-9.542a1.537,1.537,0,0,1,3.073,0v5.665a3.792,3.792,0,0,0,1.038,3.324l3.532,3.547a2.489,2.489,0,0,0,3.528,0l3.532-3.547a3.8,3.8,0,0,0,.189-5.131Zm-1.272,4.052-3.532,3.547a.961.961,0,0,1-1.362,0l-3.532-3.547a2.25,2.25,0,0,1,1.6-3.839,2.24,2.24,0,0,1,1.336.439l.7.519a.965.965,0,0,0,1.153,0l.7-.518a2.252,2.252,0,0,1,2.936,3.4Z" transform="translate(-133.2 -117.461)"/>
      <path id="Path_101897" data-name="Path 101897" d="M347.673,420.208l-1.042-.749a5.374,5.374,0,0,1-.864-.78.764.764,0,1,0-1.139,1.019,6.9,6.9,0,0,0,1.111,1l.724.52v5.909a.764.764,0,0,0,1.528,0v-6.3a.764.764,0,0,0-.318-.62Z" transform="translate(-309.381 -375.895)"/>
      <path id="Path_101898" data-name="Path 101898" d="M388.845,148.6a2.655,2.655,0,0,1-3.788-1.372,2.641,2.641,0,0,0-1.13.253v-.252a2.657,2.657,0,0,0-5.066-1.124.764.764,0,0,0-.705,1.334,1.121,1.121,0,0,1,.455.9V159.5a.764.764,0,1,0,1.528,0V147.232a1.13,1.13,0,0,1,2.26,0V159.5a.764.764,0,1,0,1.528,0v-9.609a1.13,1.13,0,0,1,2.259,0V159.5a.764.764,0,1,0,1.528,0v-8.238a1.13,1.13,0,1,1,2.26,0v18.8a5.108,5.108,0,0,1-1.751,3.85l-.163.142a.764.764,0,0,0-.262.576v6.524a.764.764,0,0,0,1.528,0v-6.178a6.635,6.635,0,0,0,2.176-4.914v-18.8a2.661,2.661,0,0,0-2.658-2.658Z" transform="translate(-339.397 -129.914)"/>
      <path id="Path_101899" data-name="Path 101899" d="M372.4,327.447l-.238.176-.238-.176a3.3,3.3,0,0,0-4.3,4.985l2.972,2.985a2.216,2.216,0,0,0,3.14,0l2.972-2.985a3.3,3.3,0,0,0-4.3-4.985Zm3.222,3.906-2.972,2.985a.688.688,0,0,1-.975,0h0l-2.972-2.985a1.772,1.772,0,0,1,1.26-3.024,1.764,1.764,0,0,1,1.052.346l.589.436a.933.933,0,0,0,1.115,0l.589-.436a1.774,1.774,0,0,1,2.313,2.678Z" transform="translate(-329.35 -293.598)"/>
      <path id="Path_101900" data-name="Path 101900" d="M4.8,372.037l-1.042-.749a5.37,5.37,0,0,1-2.231-4.35V365.56a.764.764,0,1,0-1.528,0v1.377a6.9,6.9,0,0,0,2.867,5.591l.724.52v5.911a.764.764,0,0,0,1.528,0v-6.3A.764.764,0,0,0,4.8,372.037Z" transform="translate(0 -327.724)"/>
      <path id="Path_101901" data-name="Path 101901" d="M148.668,360.517a.764.764,0,0,0-.764.764v5.459a5.085,5.085,0,0,1-.968,1.134l-.163.142a.764.764,0,0,0-.262.576v6.524a.764.764,0,1,0,1.528,0v-6.178a6.627,6.627,0,0,0,1.291-1.606.763.763,0,0,0,.1-.381v-5.67a.764.764,0,0,0-.764-.764Z" transform="translate(-131.601 -323.881)"/>
      <path id="Path_101902" data-name="Path 101902" d="M9.56,163.763l-.238.176-.238-.176A3.317,3.317,0,0,0,5.4,163.6v-2.5a2.7,2.7,0,0,0-1.936-2.589V148.346a1.13,1.13,0,1,1,2.26,0V159.5a.764.764,0,1,0,1.528,0V147.232a1.13,1.13,0,1,1,2.259,0V159.5a.764.764,0,0,0,1.528,0v-9.609a1.131,1.131,0,0,1,1.13-1.13,1.118,1.118,0,0,1,.463.1.764.764,0,0,0,.629-1.393,2.648,2.648,0,0,0-2.221.017v-.252a2.658,2.658,0,0,0-5.054-1.149,2.656,2.656,0,0,0-4.049,2.263v10.162A2.7,2.7,0,0,0,0,161.1v3.4a.764.764,0,0,0,1.528,0v-3.4a1.172,1.172,0,1,1,2.344,0v4.758a3.313,3.313,0,0,0,.909,2.892l2.972,2.985a2.216,2.216,0,0,0,3.14,0l2.972-2.985a3.3,3.3,0,0,0-4.3-4.985Zm3.221,3.906L9.81,170.654a.688.688,0,0,1-.974,0h0l-2.972-2.985a1.772,1.772,0,0,1,1.26-3.024,1.764,1.764,0,0,1,1.052.346l.589.436a.933.933,0,0,0,1.115,0l.589-.436a1.774,1.774,0,0,1,2.313,2.678Z" transform="translate(0 -129.914)"/>
    </g>
  </g>
</svg>
