<svg xmlns="http://www.w3.org/2000/svg" width="142" height="142" viewBox="0 0 142 142">
  <g id="t2-ic-x2" transform="translate(-543 -1040)">
    <rect id="Rectangle_5406" data-name="Rectangle 5406" width="142" height="142" transform="translate(543 1040)" fill="none"/>
    <g id="Group_57731" data-name="Group 57731" transform="translate(5490.555 3875.288)">
      <g id="Group_57663" data-name="Group 57663" transform="translate(-4871.703 -2830.221)">
        <path id="Path_102546" data-name="Path 102546" d="M287.848,3079.715a26.062,26.062,0,0,1-8.562-15.463l-.859-5.135a2.106,2.106,0,0,0-1.731-1.76,2.058,2.058,0,0,0-2.337,1.7l-.869,5.2a26.06,26.06,0,0,1-8.567,15.466,41.393,41.393,0,0,1-3.569,2.481,2.2,2.2,0,0,0-.5,3.268l.148.177a38.393,38.393,0,0,1,8,16.208h14.685a38.394,38.394,0,0,1,8.067-16.3l.08-.094a2.2,2.2,0,0,0-.473-3.292,40.769,40.769,0,0,1-3.516-2.447Zm-11.471,7.162a3.739,3.739,0,1,1,3.739-3.74A3.739,3.739,0,0,1,276.377,3086.877Z" transform="translate(-260.341 -3057.334)" fill="#ffd566"/>
      </g>
      <g id="Group_57665" data-name="Group 57665" transform="translate(-4858.873 -2830.221)">
        <g id="Group_57664" data-name="Group 57664" transform="translate(0 0)">
          <path id="Path_102547" data-name="Path 102547" d="M324.795,3082.161a40.764,40.764,0,0,1-3.516-2.448,26.063,26.063,0,0,1-8.562-15.463l-.859-5.135a2.106,2.106,0,0,0-1.731-1.759,2.058,2.058,0,0,0-2.337,1.7l-.869,5.2c-.089.531-.2,1.057-.318,1.58a25.932,25.932,0,0,0,8.243,13.883,40.76,40.76,0,0,0,3.516,2.448,2.2,2.2,0,0,1,.473,3.292l-.08.094a38.392,38.392,0,0,0-8.067,16.3h6.434a38.392,38.392,0,0,1,8.067-16.3l.08-.094a2.2,2.2,0,0,0-.473-3.292Z" transform="translate(-306.602 -3057.333)" fill="#ffc93c"/>
        </g>
      </g>
      <g id="Group_57677" data-name="Group 57677" transform="translate(-4945.489 -2791.674)">
        <g id="Group_57667" data-name="Group 57667" transform="translate(11.438 51.538)">
          <g id="Group_57666" data-name="Group 57666">
            <path id="Path_102548" data-name="Path 102548" d="M37.442,3382.146l-1.9,5.424v15.988H148.375V3387.57l-1.9-5.424Z" transform="translate(-35.538 -3382.146)" fill="#31326f"/>
          </g>
        </g>
        <g id="Group_57669" data-name="Group 57669" transform="translate(115.025 51.538)">
          <g id="Group_57668" data-name="Group 57668">
            <path id="Path_102549" data-name="Path 102549" d="M409.034,3382.146v21.411h9.25V3387.57l-1.9-5.424Z" transform="translate(-409.034 -3382.146)" fill="#21214a"/>
          </g>
        </g>
        <g id="Group_57671" data-name="Group 57671" transform="translate(11.438 0)">
          <g id="Group_57670" data-name="Group 57670">
            <path id="Path_102550" data-name="Path 102550" d="M144.3,3196.32H39.617a4.079,4.079,0,0,0-4.079,4.079v52.882H148.375V3200.4a4.08,4.08,0,0,0-4.08-4.079Z" transform="translate(-35.538 -3196.32)" fill="#9ddfd3"/>
          </g>
        </g>
        <g id="Group_57673" data-name="Group 57673" transform="translate(0 67.759)">
          <g id="Group_57672" data-name="Group 57672">
            <path id="Path_102551" data-name="Path 102551" d="M113.928,3458.963H10.377A16.081,16.081,0,0,1-5.7,3442.882a2.247,2.247,0,0,1,2.247-2.247h131.22a2.247,2.247,0,0,1,2.247,2.247,16.081,16.081,0,0,1-16.081,16.081Z" transform="translate(5.704 -3440.635)" fill="#f1f4f6"/>
          </g>
        </g>
        <g id="Group_57674" data-name="Group 57674" transform="translate(1.463 67.759)">
          <path id="Path_102552" data-name="Path 102552" d="M131.575,3440.635h-4.1a16.085,16.085,0,0,1-15.453,11.633H8.468a16,16,0,0,1-8.9-2.686,16.08,16.08,0,0,0,14.618,9.381h103.55a16.081,16.081,0,0,0,16.081-16.081,2.247,2.247,0,0,0-2.247-2.247Z" transform="translate(0.428 -3440.635)" fill="#dfeaef"/>
        </g>
        <g id="Group_57676" data-name="Group 57676" transform="translate(110.945 0)">
          <g id="Group_57675" data-name="Group 57675">
            <path id="Path_102553" data-name="Path 102553" d="M403.575,3196.32h-9.25a4.08,4.08,0,0,1,4.079,4.079v52.882h9.25V3200.4a4.079,4.079,0,0,0-4.079-4.079Z" transform="translate(-394.325 -3196.32)" fill="#87bfb5"/>
          </g>
        </g>
      </g>
      <g id="Group_57678" data-name="Group 57678" transform="translate(-4921.146 -2736.627)">
        <circle id="Ellipse_4136" data-name="Ellipse 4136" cx="19.227" cy="19.227" r="19.227" transform="translate(0 0)" fill="#f24872"/>
      </g>
      <g id="Group_57679" data-name="Group 57679" transform="translate(-4918.208 -2733.689)">
        <path id="Path_102554" data-name="Path 102554" d="M119.16,3405.392a19.224,19.224,0,0,1-26.5,26.5,19.225,19.225,0,1,0,26.5-26.5Z" transform="translate(-92.66 -3405.392)" fill="#cc3d60"/>
      </g>
      <g id="Group_57680" data-name="Group 57680" transform="translate(-4907.422 -2724.22)">
        <path id="Path_102555" data-name="Path 102555" d="M143.682,3444.917l-8.8-5.083a2.219,2.219,0,0,0-3.328,1.921v10.166a2.219,2.219,0,0,0,3.328,1.921l8.8-5.083A2.218,2.218,0,0,0,143.682,3444.917Z" transform="translate(-131.55 -3439.533)" fill="#f9f5f8"/>
      </g>
      <g id="Group_57681" data-name="Group 57681" transform="translate(-4860.212 -2770.684)">
        <path id="Path_102556" data-name="Path 102556" d="M335.615,3272H302.852l-1.078,1.007v17.513l1.08,1.008h32.761l4.19-1.378v-16.773Z" transform="translate(-301.774 -3272.002)" fill="#ffd566"/>
      </g>
      <g id="Group_57682" data-name="Group 57682" transform="translate(-4822.181 -2770.684)">
        <path id="Path_102557" data-name="Path 102557" d="M453.458,3276.135V3287.4a4.133,4.133,0,0,1-4.133,4.133h-6.236l-4.19-1.378V3273.38l4.19-1.377h6.236a4.133,4.133,0,0,1,4.133,4.133Z" transform="translate(-438.899 -3272.003)" fill="#f1f4f6"/>
      </g>
      <g id="Group_57683" data-name="Group 57683" transform="translate(-4822.181 -2770.684)">
        <path id="Path_102558" data-name="Path 102558" d="M449.326,3272H446.84v9.351a4.133,4.133,0,0,1-4.133,4.133H438.9v4.667l4.19,1.378h6.236a4.133,4.133,0,0,0,4.133-4.133v-11.263a4.133,4.133,0,0,0-4.133-4.132Z" transform="translate(-438.9 -3272.002)" fill="#dfeaef"/>
      </g>
      <g id="Group_57684" data-name="Group 57684" transform="translate(-4860.212 -2757.336)">
        <path id="Path_102559" data-name="Path 102559" d="M302.672,3320.267a3.307,3.307,0,0,1-.9-.135v5.172l1.08,1.008h32.761l4.19-1.378v-4.667Z" transform="translate(-301.773 -3320.131)" fill="#ffc93c"/>
      </g>
      <g id="Group_57685" data-name="Group 57685" transform="translate(-4872.978 -2770.684)">
        <path id="Path_102560" data-name="Path 102560" d="M269.588,3272a3.293,3.293,0,0,0-1.047.183l-11.585,4.007-1.212,1.244v8.662l1.212,1.241,11.585,4.01a3.291,3.291,0,0,0,1.048.18Z" transform="translate(-255.744 -3272.002)" fill="#f1f4f6"/>
      </g>
      <g id="Group_57686" data-name="Group 57686" transform="translate(-4872.978 -2761.744)">
        <path id="Path_102561" data-name="Path 102561" d="M269.41,3308.781a3.3,3.3,0,0,1-1.048-.18l-11.585-4.01-1.031-.353v5.157l1.212,1.241,11.585,4.01a3.3,3.3,0,0,0,1.048.18v-6.044h-.18Z" transform="translate(-255.745 -3304.237)" fill="#dfeaef"/>
      </g>
      <g id="Group_57687" data-name="Group 57687" transform="translate(-4882.166 -2766.493)">
        <path id="Path_102562" data-name="Path 102562" d="M233.015,3287.112l-8.5,2.912a2.814,2.814,0,0,0,0,5.323l8.5,2.912Z" transform="translate(-222.615 -3287.112)" fill="#31326f"/>
      </g>
      <g id="Group_57688" data-name="Group 57688" transform="translate(-4882.166 -2763.911)">
        <path id="Path_102563" data-name="Path 102563" d="M232.834,3298.943l-7.356-2.521-.962.33a2.813,2.813,0,0,0,0,5.323l8.5,2.913v-5.982Z" transform="translate(-222.615 -3296.423)" fill="#21214a"/>
      </g>
      <g id="Group_57689" data-name="Group 57689" transform="translate(-4826.371 -2770.684)">
        <path id="Path_102564" data-name="Path 102564" d="M423.793,3291.53V3272h8.379v19.528Z" transform="translate(-423.793 -3272.002)" fill="#31326f"/>
      </g>
      <g id="Group_57690" data-name="Group 57690" transform="translate(-4826.371 -2757.219)">
        <path id="Path_102565" data-name="Path 102565" d="M431.79,3320.569h-8v6.044h8.379v-6.064C432.047,3320.562,431.92,3320.569,431.79,3320.569Z" transform="translate(-423.794 -3320.55)" fill="#21214a"/>
      </g>
      <g id="Group_57691" data-name="Group 57691" transform="translate(-4947.555 -2832.288)">
        <path id="Path_102566" data-name="Path 102566" d="M303.032,3129.438a5.806,5.806,0,1,0,5.806,5.806A5.812,5.812,0,0,0,303.032,3129.438Zm0,7.479a1.673,1.673,0,1,1,1.673-1.673A1.675,1.675,0,0,1,303.032,3136.917Z" transform="translate(-211.144 -3107.373)"/>
        <path id="Path_102567" data-name="Path 102567" d="M139.353,3437.72l-8.848-5.108a4.271,4.271,0,0,0-6.406,3.7v10.216a4.271,4.271,0,0,0,6.406,3.7l8.848-5.108a4.271,4.271,0,0,0,0-7.4Zm-2.066,3.818-8.848,5.108a.138.138,0,0,1-.207-.12V3436.31a.12.12,0,0,1,.069-.12.143.143,0,0,1,.071-.022.13.13,0,0,1,.067.022l8.848,5.108a.138.138,0,0,1,0,.239Z" transform="translate(-86.033 -3326.044)"/>
        <path id="Path_102568" data-name="Path 102568" d="M122.645,3109.417h-7.392v-14.844a6.153,6.153,0,0,0-6.146-6.146H91.116a36.286,36.286,0,0,1,4.585-6.944l.056-.066a4.27,4.27,0,0,0-.918-6.38,34.359,34.359,0,0,1-3.285-2.275,23.746,23.746,0,0,1-7.119-11.041,15.741,15.741,0,0,0,14.24-2.968,15.761,15.761,0,0,0,23.88-4.782,2.066,2.066,0,0,0-3.644-1.949,11.627,11.627,0,0,1-18.1,3.111,3.142,3.142,0,0,0-4.261,0A11.6,11.6,0,0,1,83.41,3056.9l-.587-3.51a4.151,4.151,0,0,0-3.469-3.463,4.1,4.1,0,0,0-4.676,3.4l-.6,3.563a11.609,11.609,0,0,1-13.161-1.752,3.141,3.141,0,0,0-4.261,0,11.628,11.628,0,0,1-18.1-3.112,2.067,2.067,0,0,0-3.645,1.949,15.761,15.761,0,0,0,23.88,4.782,15.7,15.7,0,0,0,14.267,2.954,23.755,23.755,0,0,1-7.128,11.058,34.881,34.881,0,0,1-3.336,2.307,4.272,4.272,0,0,0-.967,6.333l.147.176a36.288,36.288,0,0,1,4.515,6.844H4.429a6.153,6.153,0,0,0-6.146,6.146v61.613H-8.842a4.318,4.318,0,0,0-4.313,4.313,18.168,18.168,0,0,0,18.148,18.148H16.354a21.249,21.249,0,0,0,32.256,0H92.075a2.067,2.067,0,0,0,0-4.133H51.4a21.224,21.224,0,0,0,1.9-14.2h69.073a.181.181,0,0,1,.18.18,14.031,14.031,0,0,1-14.015,14.015h-6.3a2.067,2.067,0,0,0,0,4.133h6.3a18.168,18.168,0,0,0,18.148-18.148,4.318,4.318,0,0,0-4.313-4.313h-7.125v-23.108h7.392a6.207,6.207,0,0,0,6.2-6.2v-11.263a6.207,6.207,0,0,0-6.2-6.2Zm-8.3,19.529H110.1v-15.4h4.246v15.4Zm-37.008,0v-15.4h28.63v15.4Zm-22.529-6.991a.747.747,0,0,1,0-1.415l5.759-1.984v5.385Zm9.9-4.823,8.5-2.928v14.091l-8.5-2.93Zm.242-38.2-.147-.176a.129.129,0,0,1-.031-.109.133.133,0,0,1,.063-.1,33.663,33.663,0,0,0,3.8-2.654,28.166,28.166,0,0,0,9.254-16.689l.859-5.145,0,.009.859,5.135a28.162,28.162,0,0,0,9.249,16.686,33.272,33.272,0,0,0,3.748,2.621.127.127,0,0,1,.06.095.131.131,0,0,1-.035.113l-.1.112a40.378,40.378,0,0,0-5.99,9.6H70.858A40.43,40.43,0,0,0,64.943,3078.93ZM2.416,3149.521H17.638A21.376,21.376,0,0,0,13,3156.186H2.416Zm2.577,24.993A14.031,14.031,0,0,1-9.022,3160.5a.181.181,0,0,1,.18-.181h20.5a21.224,21.224,0,0,0,1.9,14.2H4.993Zm27.489,7.414a17.161,17.161,0,1,1,17.161-17.16A17.18,17.18,0,0,1,32.482,3181.928Zm78.638-36.54H55.748a2.067,2.067,0,0,0,0,4.133H111.12v6.665H51.963a21.266,21.266,0,0,0-28.288-10.8H2.416v-50.815a2.015,2.015,0,0,1,2.013-2.013H109.107a2.015,2.015,0,0,1,2.013,2.013v14.844H75.247a5.344,5.344,0,0,0-1.7.3l-12.325,4.246,5.864-14.1a2.067,2.067,0,1,0-3.816-1.587L56,3115.759l-2.531.872a4.894,4.894,0,0,0-1.991,7.957,6.182,6.182,0,0,1-3.826,1.326h-4.44a6.189,6.189,0,0,1-6.182-6.182,10.317,10.317,0,0,0-19.854-3.933L12.5,3127.134a2.067,2.067,0,1,0,3.821,1.575l4.675-11.335a6.184,6.184,0,0,1,11.9,2.357,10.326,10.326,0,0,0,10.315,10.315h4.44a10.311,10.311,0,0,0,7.755-3.514l18.139,6.252a5.392,5.392,0,0,0,1.725.294H111.12Zm13.592-18.51a2.069,2.069,0,0,1-2.066,2.066h-4.17v-15.4h4.17a2.069,2.069,0,0,1,2.066,2.067Z" transform="translate(13.155 -3049.879)"/>
      </g>
    </g>
  </g>
</svg>
