<svg xmlns="http://www.w3.org/2000/svg" width="142" height="142" viewBox="0 0 142 142">
  <g id="t2-ic-x1" transform="translate(-543 -1528)">
    <rect id="Rectangle_5416" data-name="Rectangle 5416" width="142" height="142" transform="translate(543 1528)" fill="none"/>
    <g id="Group_57732" data-name="Group 57732" transform="translate(4857.509 4414)">
      <g id="Group_57649" data-name="Group 57649" transform="translate(-4280.007 -2878.555)">
        <path id="Path_102523" data-name="Path 102523" d="M805.245,3155.49H720.032a4.4,4.4,0,0,1-4.4-4.4V3027.413a4.4,4.4,0,0,1,4.4-4.4h85.213a4.4,4.4,0,0,1,4.4,4.4v123.675A4.4,4.4,0,0,1,805.245,3155.49Z" transform="translate(-715.63 -3023.011)" fill="#9ddfd3"/>
      </g>
      <g id="Group_57650" data-name="Group 57650" transform="translate(-4280.007 -2878.555)">
        <path id="Path_102524" data-name="Path 102524" d="M805.254,3023.011h-1.334v122.36a4.393,4.393,0,0,1-4.393,4.393h-83.9v1.334a4.393,4.393,0,0,0,4.393,4.393h85.232a4.393,4.393,0,0,0,4.393-4.393V3027.4a4.393,4.393,0,0,0-4.393-4.393Z" transform="translate(-715.63 -3023.011)" fill="#87bfb5"/>
      </g>
      <g id="Group_57651" data-name="Group 57651" transform="translate(-4269.04 -2863.1)">
        <path id="Path_102525" data-name="Path 102525" d="M825.871,3172.6H756.564a1.387,1.387,0,0,1-1.387-1.387v-91.087a1.387,1.387,0,0,1,1.387-1.387h69.308a1.387,1.387,0,0,1,1.387,1.387v91.087A1.387,1.387,0,0,1,825.871,3172.6Z" transform="translate(-755.177 -3078.737)" fill="#f5f5f5"/>
      </g>
      <g id="Group_57652" data-name="Group 57652" transform="translate(-4269.04 -2863.1)">
        <path id="Path_102526" data-name="Path 102526" d="M825.874,3078.737H822.1v87.319a1.384,1.384,0,0,1-1.384,1.384h-65.54v3.773a1.384,1.384,0,0,0,1.384,1.384h69.313a1.384,1.384,0,0,0,1.384-1.384v-91.092a1.383,1.383,0,0,0-1.384-1.384Z" transform="translate(-755.177 -3078.737)" fill="#f1f4f6"/>
      </g>
      <g id="Group_57653" data-name="Group 57653" transform="translate(-4246.04 -2883.924)">
        <path id="Path_102527" data-name="Path 102527" d="M864.187,3017.01a13.041,13.041,0,0,1-26.083,0,13.045,13.045,0,1,1,26.083,0Z" transform="translate(-838.104 -3003.652)" fill="#ffd566"/>
      </g>
      <g id="Group_57654" data-name="Group 57654" transform="translate(-4236.112 -2883.924)">
        <path id="Path_102528" data-name="Path 102528" d="M877.013,3003.651a12.483,12.483,0,0,0-3.113.4,13.451,13.451,0,0,1,9.928,12.962,13.045,13.045,0,0,1-9.928,12.664,13.043,13.043,0,0,0,16.155-12.664A13.315,13.315,0,0,0,877.013,3003.651Z" transform="translate(-873.9 -3003.651)" fill="#ffc93c"/>
      </g>
      <g id="Group_57655" data-name="Group 57655" transform="translate(-4257.38 -2867.726)">
        <path id="Path_102529" data-name="Path 102529" d="M797.952,3075.385l1.972,1.528a1.265,1.265,0,0,0,1.55,0l1.933-1.5a1.266,1.266,0,0,1,1.55,0l1.933,1.5a1.266,1.266,0,0,0,1.55,0l1.932-1.5a1.266,1.266,0,0,1,1.55,0l1.933,1.5a1.265,1.265,0,0,0,1.549,0l1.934-1.5a1.265,1.265,0,0,1,1.549,0l1.933,1.5a1.265,1.265,0,0,0,1.549,0l1.933-1.5a1.265,1.265,0,0,1,1.55,0l1.933,1.5a1.265,1.265,0,0,0,1.55,0l1.932-1.5a1.265,1.265,0,0,1,1.55,0l1.933,1.5a1.265,1.265,0,0,0,1.549,0l1.935-1.5a1.265,1.265,0,0,1,1.549,0l1.934,1.5a1.265,1.265,0,0,0,1.549,0l1.975-1.529a1.9,1.9,0,0,0,.736-1.5v-9.364a2.462,2.462,0,0,0-2.462-2.462H799.679a2.462,2.462,0,0,0-2.462,2.462v9.365a1.9,1.9,0,0,0,.735,1.5Z" transform="translate(-797.217 -3062.058)" fill="#ffd566"/>
      </g>
      <g id="Group_57656" data-name="Group 57656" transform="translate(-4219.228 -2867.726)">
        <path id="Path_102530" data-name="Path 102530" d="M942.927,3062.058h-8.148a3.138,3.138,0,0,1,3.138,3.138v10.064a1.262,1.262,0,0,1,1.279.156l1.934,1.5a1.265,1.265,0,0,0,1.549,0l1.975-1.529a1.9,1.9,0,0,0,.736-1.5v-9.364a2.463,2.463,0,0,0-2.463-2.462Z" transform="translate(-934.779 -3062.058)" fill="#ffc93c"/>
      </g>
      <g id="Group_57657" data-name="Group 57657" transform="translate(-4301.434 -2837.716)">
        <circle id="Ellipse_4131" data-name="Ellipse 4131" cx="36.699" cy="36.699" r="36.699" fill="#f5f5f5"/>
      </g>
      <g id="Group_57658" data-name="Group 57658" transform="translate(-4295.588 -2831.87)">
        <path id="Path_102531" data-name="Path 102531" d="M710.183,3191.339a36.7,36.7,0,0,1-50.731,50.731,36.7,36.7,0,1,0,50.731-50.731Z" transform="translate(-659.452 -3191.339)" fill="#dfeaef"/>
      </g>
      <g id="Group_57659" data-name="Group 57659" transform="translate(-4270.274 -2806.636)">
        <path id="Path_102532" data-name="Path 102532" d="M756.265,3282.325c7.387.126,7.386,11.114,0,11.239C748.878,3293.438,748.879,3282.45,756.265,3282.325Z" transform="translate(-750.725 -3282.325)" fill="#ffd566"/>
      </g>
      <g id="Group_57660" data-name="Group 57660" transform="translate(-4269.902 -2806.184)">
        <path id="Path_102533" data-name="Path 102533" d="M759.445,3283.955c2.075,4.474-2.9,9.451-7.377,7.377C757.183,3300.576,768.683,3289.061,759.445,3283.955Z" transform="translate(-752.068 -3283.955)" fill="#ffc93c"/>
      </g>
      <g id="Group_57661" data-name="Group 57661" transform="translate(-4303.509 -2886)">
        <path id="Path_102534" data-name="Path 102534" d="M748.41,3093.851a2.075,2.075,0,0,0,2.076-2.075V3008a6.476,6.476,0,0,0-6.468-6.469H712.8c-.22-.259-.445-.513-.684-.759a14.753,14.753,0,0,0-21.427,0c-.238.246-.464.5-.684.759H658.785a6.476,6.476,0,0,0-6.469,6.468v38.448a38.842,38.842,0,0,0-10.069,7.28,2.076,2.076,0,0,0,2.935,2.936,34.538,34.538,0,1,1-5.616,7.356,2.076,2.076,0,0,0-3.606-2.057,38.781,38.781,0,0,0,16.355,53.854V3131.7a6.476,6.476,0,0,0,6.469,6.468h85.232a6.476,6.476,0,0,0,6.468-6.468v-30.176a2.076,2.076,0,1,0-4.151,0V3131.7a2.319,2.319,0,0,1-2.317,2.317H658.785a2.319,2.319,0,0,1-2.317-2.317v-14.087A38.735,38.735,0,0,0,688.554,3115H702.34a2.076,2.076,0,0,0,0-4.151h-7.777a38.758,38.758,0,0,0-24.9-68.476c-.747,0-1.49.024-2.23.065v-21.3h7.508v5.125a4,4,0,0,0,1.54,3.141l1.972,1.528a3.339,3.339,0,0,0,4.093,0l1.437-1.113,1.436,1.113a3.34,3.34,0,0,0,4.093,0l1.436-1.113,1.437,1.113a3.339,3.339,0,0,0,4.092,0l1.437-1.113,1.437,1.114a3.341,3.341,0,0,0,4.092,0l1.437-1.113,1.437,1.114a3.339,3.339,0,0,0,4.092,0l1.436-1.113,1.437,1.113a3.34,3.34,0,0,0,4.092,0l1.438-1.114,1.438,1.114a3.342,3.342,0,0,0,4.091,0c1.5-1.126,3.664-2.519,3.516-4.671v-5.125h7.508v89.709H712.824a2.076,2.076,0,0,0,0,4.151h23.235a3.464,3.464,0,0,0,3.46-3.459v-91.092a3.464,3.464,0,0,0-3.46-3.46h-8.2v-.088a4.543,4.543,0,0,0-4.538-4.538H716.5q.019-.382.019-.766a15.436,15.436,0,0,0-1.174-5.913h28.673a2.32,2.32,0,0,1,2.317,2.317v83.771a2.075,2.075,0,0,0,2.075,2.076Zm-81.665-76.859a3.464,3.464,0,0,0-3.46,3.46V3042.9a38.454,38.454,0,0,0-6.817,1.773V3008a2.319,2.319,0,0,1,2.317-2.317h28.673a15.433,15.433,0,0,0-1.174,5.912c0,.255.008.511.021.766h-6.823a4.543,4.543,0,0,0-4.538,4.538v.088h-8.2Zm56.962-.088v9.277l-1.409,1.091-1.438-1.114a3.341,3.341,0,0,0-4.091,0l-1.438,1.114-1.437-1.113a3.341,3.341,0,0,0-4.092,0l-1.436,1.113-1.437-1.113a3.342,3.342,0,0,0-4.092,0l-1.437,1.113-1.437-1.114a3.34,3.34,0,0,0-4.092,0l-1.437,1.113L693,3026.158a3.341,3.341,0,0,0-4.092,0l-1.436,1.113-1.436-1.113a3.341,3.341,0,0,0-4.092,0l-1.437,1.113-1.407-1.09V3016.9a.387.387,0,0,1,.387-.386H723.32a.387.387,0,0,1,.387.386Zm-33.241-4.538c-.017-.255-.03-.51-.03-.766a10.97,10.97,0,1,1,21.931,0c0,.256-.012.511-.03.766Z" transform="translate(-630.891 -2996.167)"/>
        <path id="Path_102535" data-name="Path 102535" d="M705.76,3268.375a2.076,2.076,0,0,0,2.935.056l10.761-10.361a7.693,7.693,0,1,0,5.972-14.041v-10.146a2.076,2.076,0,1,0-4.151,0v10.146a7.69,7.69,0,0,0-4.7,11.052l-10.759,10.36a2.075,2.075,0,0,0-.056,2.935Zm17.591-20.482a3.544,3.544,0,1,1-3.544,3.544,3.548,3.548,0,0,1,3.544-3.544Z" transform="translate(-684.576 -3166.453)"/>
        <circle id="Ellipse_4132" data-name="Ellipse 4132" cx="2.194" cy="2.194" r="2.194" transform="translate(36.531 109.963)"/>
        <circle id="Ellipse_4133" data-name="Ellipse 4133" cx="2.194" cy="2.194" r="2.194" transform="translate(36.531 55.34)"/>
        <circle id="Ellipse_4134" data-name="Ellipse 4134" cx="2.194" cy="2.194" r="2.194" transform="translate(9.219 82.652)"/>
        <circle id="Ellipse_4135" data-name="Ellipse 4135" cx="2.194" cy="2.194" r="2.194" transform="translate(63.842 82.652)"/>
        <path id="Path_102536" data-name="Path 102536" d="M712.452,3379.809a2.194,2.194,0,1,0,3.008-.76A2.193,2.193,0,0,0,712.452,3379.809Z" transform="translate(-689.607 -3272.635)"/>
        <path id="Path_102537" data-name="Path 102537" d="M814.141,3213.692a2.194,2.194,0,1,0-.76-3.008A2.193,2.193,0,0,0,814.141,3213.692Z" transform="translate(-762.545 -3150.416)"/>
        <path id="Path_102538" data-name="Path 102538" d="M681.362,3244.022a2.194,2.194,0,1,0,.76,3.008,2.193,2.193,0,0,0-.76-3.008Z" transform="translate(-664.967 -3175.057)"/>
        <path id="Path_102539" data-name="Path 102539" d="M848.238,3348.72a2.194,2.194,0,1,0-.76-3.008A2.194,2.194,0,0,0,848.238,3348.72Z" transform="translate(-787.185 -3247.995)"/>
        <path id="Path_102540" data-name="Path 102540" d="M811.867,3382.9a2.194,2.194,0,1,0,.812-2.994A2.193,2.193,0,0,0,811.867,3382.9Z" transform="translate(-761.464 -3273.267)"/>
        <path id="Path_102541" data-name="Path 102541" d="M716.921,3212.838a2.194,2.194,0,1,0-2.994-.812A2.193,2.193,0,0,0,716.921,3212.838Z" transform="translate(-690.688 -3149.785)"/>
        <path id="Path_102542" data-name="Path 102542" d="M849.147,3245.5a2.194,2.194,0,1,0,2.994.813,2.194,2.194,0,0,0-2.994-.812Z" transform="translate(-787.818 -3176.137)"/>
        <path id="Path_102543" data-name="Path 102543" d="M678.273,3343.438a2.194,2.194,0,1,0,2.994.812A2.193,2.193,0,0,0,678.273,3343.438Z" transform="translate(-664.334 -3246.914)"/>
        <path id="Path_102544" data-name="Path 102544" d="M916.909,3197.8h13.446a2.076,2.076,0,0,0,0-4.151H916.909a2.076,2.076,0,0,0,0,4.151Z" transform="translate(-836.083 -3138.88)"/>
        <path id="Path_102545" data-name="Path 102545" d="M911.6,3165.792a2.076,2.076,0,0,0-2.076-2.076H888.091a2.076,2.076,0,0,0,0,4.151h21.438a2.076,2.076,0,0,0,2.076-2.076Z" transform="translate(-815.258 -3117.248)"/>
      </g>
    </g>
  </g>
</svg>
