<svg xmlns="http://www.w3.org/2000/svg" width="1029" height="383" viewBox="0 0 1029 383">
  <g id="t2-i12" transform="translate(1435.812 -2626.359)">
    <rect id="Rectángulo_5172" data-name="Rectángulo 5172" width="1029" height="383" transform="translate(-1435.812 2626.359)" fill="#fff"/>
    <path id="Path_102455" data-name="Path 102455" d="M-1071.007,2750.9l29.412,50.925,29.412,50.925-29.412,50.975-29.412,50.925h-117.65l-29.412-50.925-29.412-50.975,29.412-50.925,29.412-50.925h117.65Z" transform="translate(26.985 17.845)" fill="#f24872"/>
    <path id="Path_102456" data-name="Path 102456" d="M-1204.54,2807.222l-16.843,4.77-16.843,4.77,12.57-21.761,12.52-21.761,4.322,16.992Z" transform="translate(28.311 21.045)" fill="#fff"/>
    <path id="Path_102457" data-name="Path 102457" d="M-911.13,2862.352l29.412-50.925,29.412-50.925-29.412-50.975L-911.13,2658.6h-117.65l-29.412,50.925L-1087.6,2760.5l29.412,50.925,29.412,50.925h117.65Z" transform="translate(49.892 4.62)" fill="#9ddfd3"/>
    <path id="Path_102458" data-name="Path 102458" d="M-1044.663,2785.951l-16.843-4.77-16.843-4.77,12.52,21.761,12.57,21.761,4.322-16.992Z" transform="translate(51.219 21.5)" fill="#fff"/>
    <path id="Path_102459" data-name="Path 102459" d="M-868.9,2954.653h117.65l29.412-50.925,29.412-50.975-29.412-50.925-29.412-50.925H-868.9l-29.412,50.925-29.412,50.925,29.412,50.975Z" transform="translate(72.8 17.845)" fill="#81c140"/>
    <path id="Path_102460" data-name="Path 102460" d="M-884.781,2807.222l-4.323-16.991-4.273-16.992L-905.946,2795l-12.57,21.761,16.892-4.77Z" transform="translate(74.12 21.045)" fill="#fff"/>
    <path id="Path_102461" data-name="Path 102461" d="M-591.377,2862.352l29.412-50.925,29.412-50.925-29.412-50.975-29.412-50.925h-117.65l-29.412,50.925-29.412,50.975,29.412,50.925,29.412,50.925h117.65Z" transform="translate(95.708 4.62)" fill="#ffc93c"/>
    <path id="Path_102462" data-name="Path 102462" d="M-724.9,2785.951l-16.892-4.77-16.843-4.77,12.57,21.761,12.57,21.761,4.273-16.992Z" transform="translate(97.028 21.5)" fill="#fff"/>
    <path id="Path_102463" data-name="Path 102463" d="M-1236.837,2668.944l29.412,50.975,29.412,50.925-29.412,50.975-29.412,50.925h-117.65l-29.412-50.925-29.412-50.975,29.412-50.925,29.412-50.975h117.65Z" transform="translate(3.224 6.102)" fill="#ffc93c"/>
    <path id="Path_102464" data-name="Path 102464" d="M-1244.846,2678.678l26.183,45.361,26.233,45.41-26.233,45.41-26.183,45.41h-104.831l-26.233-45.41-26.233-45.41,26.233-45.41,26.233-45.361h104.831Z" transform="translate(4.824 7.496)" fill="none" stroke="#000" stroke-linecap="round" stroke-linejoin="round" stroke-width="1.5"/>
    <path id="Path_102465" data-name="Path 102465" d="M-1393.582,2813l29.412,50.925h58.825" transform="translate(6.051 26.743)" fill="none" stroke="#000" stroke-miterlimit="10" stroke-width="2" stroke-dasharray="6"/>
    <path id="Path_102466" data-name="Path 102466" d="M-1203.015,2709.526l-29.412-50.925H-1363.74l-32.841,56.838" transform="translate(5.621 4.62)" fill="none" stroke="#000" stroke-miterlimit="10" stroke-width="2" stroke-dasharray="6"/>
    <path id="Path_102467" data-name="Path 102467" d="M-1183.854,2760.594h104.832L-1052.79,2806l26.183,45.361-26.183,45.41-26.233,45.41h-104.832l-26.183-45.41-26.233-45.41" transform="translate(28.591 19.233)" fill="none" stroke="#000" stroke-linecap="round" stroke-linejoin="round" stroke-width="1.5"/>
    <path id="Path_102468" data-name="Path 102468" d="M-1227.752,2895.658l29.412,50.975h131.362l32.841-56.887" transform="translate(29.812 37.739)" fill="none" stroke="#000" stroke-miterlimit="10" stroke-width="2" stroke-dasharray="6"/>
    <line id="Line_149" data-name="Line 149" x2="80.089" transform="translate(-1142.892 2756.874)" fill="none" stroke="#000" stroke-miterlimit="10" stroke-width="2" stroke-dasharray="6"/>
    <path id="Path_102469" data-name="Path 102469" d="M-1076.393,2759.112l26.183-45.41,26.233-45.41h104.831l26.233,45.41,26.183,45.41-26.183,45.361-26.233,45.411h-104.831" transform="translate(51.499 6.008)" fill="none" stroke="#000" stroke-linecap="round" stroke-linejoin="round" stroke-width="1.5"/>
    <path id="Path_102470" data-name="Path 102470" d="M-1067.875,2699.19l29.412-50.975H-907.1l32.841,56.887" transform="translate(52.719 3.132)" fill="none" stroke="#000" stroke-miterlimit="10" stroke-width="2" stroke-dasharray="6"/>
    <line id="Line_150" data-name="Line 150" x2="80.089" transform="translate(-960.107 2878.845)" fill="none" stroke="#000" stroke-miterlimit="10" stroke-width="2" stroke-dasharray="6"/>
    <path id="Path_102471" data-name="Path 102471" d="M-864.1,2760.594h104.831L-733.086,2806l26.233,45.361-26.233,45.41-26.183,45.41H-864.1l-26.233-45.41-26.183-45.41" transform="translate(74.406 19.233)" fill="none" stroke="#000" stroke-linecap="round" stroke-linejoin="round" stroke-width="1.5"/>
    <path id="Path_102472" data-name="Path 102472" d="M-717.382,2895.658l-29.412,50.975H-878.157L-911,2889.746" transform="translate(75.197 37.739)" fill="none" stroke="#000" stroke-miterlimit="10" stroke-width="2" stroke-dasharray="6"/>
    <line id="Line_151" data-name="Line 151" x1="80.089" transform="translate(-777.323 2756.874)" fill="none" stroke="#000" stroke-miterlimit="10" stroke-width="2" stroke-dasharray="6"/>
    <path id="Path_102473" data-name="Path 102473" d="M-756.683,2759.112l26.233-45.41,26.183-45.41h104.881l26.183,45.41,26.233,45.41-26.233,45.361-26.183,45.411H-704.268" transform="translate(97.308 6.008)" fill="none" stroke="#000" stroke-linecap="round" stroke-linejoin="round" stroke-width="1.5"/>
    <path id="Path_102474" data-name="Path 102474" d="M-570.756,2802.659l-29.412,50.925h-58.825" transform="translate(111.305 25.261)" fill="none" stroke="#000" stroke-miterlimit="10" stroke-width="2" stroke-dasharray="6"/>
    <path id="Path_102475" data-name="Path 102475" d="M-748.122,2699.19l29.412-50.975H-587.4l32.841,56.887" transform="translate(98.535 3.132)" fill="none" stroke="#000" stroke-miterlimit="10" stroke-width="2" stroke-dasharray="6"/>
    <text id="Fase_1_Empatizar" data-name="Fase 1
Empatizar" transform="translate(-1293.91 2803.499)" font-size="22" font-family="Roboto-Bold, Roboto" font-weight="700"><tspan x="-32.393" y="0">Fase 1</tspan><tspan x="-49.94" y="26">Empatizar</tspan></text>
    <path id="Path_102476" data-name="Path 102476" d="M-1211.056,2802.911l-12.023,3.378-11.974,3.378,8.943-15.451,8.893-15.5,3.08,12.123Z" transform="translate(28.765 21.83)" fill="#ffc93c"/>
    <path id="Path_102477" data-name="Path 102477" d="M-1051.223,2788.688l-11.974-3.379-12.023-3.378,8.943,15.451,8.943,15.5,3.08-12.123Z" transform="translate(51.667 22.291)" fill="#f24872"/>
    <path id="Path_102478" data-name="Path 102478" d="M-891.346,2802.911l-3.031-12.073-3.08-12.123-8.943,15.5-8.943,15.451,12.023-3.378Z" transform="translate(74.575 21.83)" fill="#9ddfd3"/>
    <path id="Path_102479" data-name="Path 102479" d="M-731.47,2788.688l-12.023-3.379-11.974-3.378,8.943,15.451,8.943,15.5,3.031-12.123Z" transform="translate(97.482 22.291)" fill="#81c140"/>
    <g id="Group_57641" data-name="Group 57641" transform="translate(-1134.402 2801.581)">
      <path id="Path_102480" data-name="Path 102480" d="M-1111.84,2812.292a2.776,2.776,0,0,0,2.774-2.773V2802.6a2.776,2.776,0,0,0-2.774-2.773h-9.146a2.776,2.776,0,0,0-2.774,2.773v2.065h-7.3a2.764,2.764,0,0,0-.652-1.037l-3.083-3.083a.925.925,0,0,0-1.308,0,.925.925,0,0,0,0,1.307l3.085,3.084a.918.918,0,0,1,.27.653.919.919,0,0,1-.271.654l-6.951,6.952a.918.918,0,0,1-.654.271.918.918,0,0,1-.654-.271l-6.952-6.952a.919.919,0,0,1-.271-.654.914.914,0,0,1,.271-.653l6.952-6.952a.919.919,0,0,1,.654-.271.919.919,0,0,1,.654.271l.713.714a.924.924,0,0,0,1.307,0,.925.925,0,0,0,0-1.308l-.713-.713a2.756,2.756,0,0,0-1.037-.651v-2.558a23.429,23.429,0,0,0,8.79-1.826c2.841-1.293,4.406-3.1,4.406-5.086s-1.565-3.794-4.406-5.086a24.1,24.1,0,0,0-9.714-1.842,27.076,27.076,0,0,0-7.056.893.926.926,0,0,0-.647,1.137.925.925,0,0,0,1.137.646,25.169,25.169,0,0,1,6.566-.828c7.231,0,12.27,2.677,12.27,5.079s-5.038,5.079-12.27,5.079-12.271-2.677-12.271-5.079c0-.96.784-1.963,2.209-2.822a.926.926,0,0,0,.314-1.269.924.924,0,0,0-1.269-.314c-2.031,1.225-3.1,2.747-3.1,4.405,0,1.987,1.564,3.794,4.406,5.086a23.428,23.428,0,0,0,8.788,1.826v2.558a2.755,2.755,0,0,0-1.037.651l-6.952,6.952a2.765,2.765,0,0,0-.652,1.037h-7.3V2802.6a2.777,2.777,0,0,0-2.774-2.773h-9.146a2.777,2.777,0,0,0-2.775,2.773v6.924a2.777,2.777,0,0,0,2.775,2.773h3.648v3.092a7.356,7.356,0,0,0-6.423,7.287,7.326,7.326,0,0,0,.469,2.587.925.925,0,0,0,1.191.54.924.924,0,0,0,.54-1.191,5.485,5.485,0,0,1-.35-1.936,5.5,5.5,0,0,1,5.5-5.5,5.5,5.5,0,0,1,5.5,5.5,5.5,5.5,0,0,1-5.5,5.5,5.472,5.472,0,0,1-2.99-.884.926.926,0,0,0-1.279.272.925.925,0,0,0,.272,1.279,7.323,7.323,0,0,0,4,1.182,7.356,7.356,0,0,0,7.348-7.347,7.357,7.357,0,0,0-6.423-7.287v-3.092h3.649a2.777,2.777,0,0,0,2.774-2.773v-3.01h7.3a2.762,2.762,0,0,0,.652,1.037l6.952,6.952a2.762,2.762,0,0,0,1.037.652v3.105h-6.118a2.776,2.776,0,0,0-2.774,2.774v5.676a2.776,2.776,0,0,0,2.774,2.773h6.118v2.124h-6.118a2.776,2.776,0,0,0-2.774,2.774v5.677a2.776,2.776,0,0,0,2.774,2.773h14.085a2.777,2.777,0,0,0,2.774-2.773v-5.677a2.777,2.777,0,0,0-2.774-2.774h-6.119v-2.124h6.119a2.777,2.777,0,0,0,2.774-2.773v-5.676a2.777,2.777,0,0,0-2.774-2.774h-6.119v-3.105a2.764,2.764,0,0,0,1.037-.652l6.952-6.952a2.761,2.761,0,0,0,.652-1.037h7.3v3.01a2.777,2.777,0,0,0,2.774,2.775h3.648v3.09a7.355,7.355,0,0,0-6.422,7.287,7.355,7.355,0,0,0,7.347,7.347,7.355,7.355,0,0,0,7.347-7.347,7.356,7.356,0,0,0-6.422-7.287v-3.09h3.648Zm-47.492-2.773a.925.925,0,0,1-.924.925h-9.146a.926.926,0,0,1-.925-.925V2802.6a.926.926,0,0,1,.925-.925h9.146a.925.925,0,0,1,.924.925Zm26.677,24.857v5.677a.926.926,0,0,1-.925.925h-14.084a.926.926,0,0,1-.925-.925v-5.677a.926.926,0,0,1,.925-.925h14.085a.925.925,0,0,1,.924.925Zm0-13.348v5.676a.926.926,0,0,1-.925.925h-14.084a.926.926,0,0,1-.925-.925v-5.676a.926.926,0,0,1,.925-.925h14.085a.925.925,0,0,1,.924.925Zm21.74,1.643a5.5,5.5,0,0,1-5.5,5.5,5.5,5.5,0,0,1-5.5-5.5,5.5,5.5,0,0,1,5.5-5.5A5.5,5.5,0,0,1-1110.915,2822.671Zm-11-13.152V2802.6a.926.926,0,0,1,.925-.925h9.146a.926.926,0,0,1,.925.925v6.924a.926.926,0,0,1-.925.925h-9.146A.926.926,0,0,1-1121.911,2809.519Z" transform="translate(1172.177 -2779.621)"/>
    </g>
    <g id="Group_57644" data-name="Group 57644" transform="translate(-1318.787 2708.328)">
      <g id="Group_57643" data-name="Group 57643">
        <path id="Path_102481" data-name="Path 102481" d="M-1314.522,2730.019a4.381,4.381,0,0,0-4.375,4.375,4.381,4.381,0,0,0,4.375,4.377,4.381,4.381,0,0,0,4.376-4.377A4.381,4.381,0,0,0-1314.522,2730.019Zm0,6.914a2.541,2.541,0,0,1-2.538-2.539,2.541,2.541,0,0,1,2.538-2.538,2.541,2.541,0,0,1,2.538,2.538,2.541,2.541,0,0,1-2.538,2.539Z" transform="translate(1335.539 -2693.475)"/>
        <path id="Path_102482" data-name="Path 102482" d="M-1324.436,2733.343a4.381,4.381,0,0,0-4.376,4.375,4.381,4.381,0,0,0,4.376,4.376,4.381,4.381,0,0,0,4.375-4.376A4.38,4.38,0,0,0-1324.436,2733.343Zm0,6.913a2.541,2.541,0,0,1-2.539-2.538,2.541,2.541,0,0,1,2.539-2.538,2.541,2.541,0,0,1,2.538,2.538A2.541,2.541,0,0,1-1324.436,2740.256Z" transform="translate(1334.118 -2692.999)"/>
        <path id="Path_102483" data-name="Path 102483" d="M-1304.607,2733.343a4.381,4.381,0,0,0-4.376,4.375,4.381,4.381,0,0,0,4.376,4.376,4.381,4.381,0,0,0,4.375-4.376A4.38,4.38,0,0,0-1304.607,2733.343Zm0,6.913a2.541,2.541,0,0,1-2.538-2.538,2.541,2.541,0,0,1,2.538-2.538,2.541,2.541,0,0,1,2.538,2.538A2.541,2.541,0,0,1-1304.607,2740.256Z" transform="translate(1336.959 -2692.999)"/>
        <path id="Path_102484" data-name="Path 102484" d="M-1311.142,2739.577h-6.776a.92.92,0,0,0-.919.919.919.919,0,0,0,.919.919h6.776a.919.919,0,0,0,.918-.919A.919.919,0,0,0-1311.142,2739.577Z" transform="translate(1335.547 -2692.105)"/>
        <path id="Path_102485" data-name="Path 102485" d="M-1328.312,2727.432h15.01a.919.919,0,0,0,.918-.919.918.918,0,0,0-.918-.918h-15.01a.918.918,0,0,0-.919.918A.919.919,0,0,0-1328.312,2727.432Z" transform="translate(1334.058 -2694.109)"/>
        <path id="Path_102486" data-name="Path 102486" d="M-1328.312,2724.024h23.249a.919.919,0,0,0,.918-.918.919.919,0,0,0-.918-.919h-23.249a.919.919,0,0,0-.919.919A.919.919,0,0,0-1328.312,2724.024Z" transform="translate(1334.058 -2694.597)"/>
        <path id="Path_102487" data-name="Path 102487" d="M-1328.312,2720.617h23.249a.919.919,0,0,0,.918-.919.919.919,0,0,0-.918-.919h-23.249a.919.919,0,0,0-.919.919A.919.919,0,0,0-1328.312,2720.617Z" transform="translate(1334.058 -2695.085)"/>
        <path id="Path_102488" data-name="Path 102488" d="M-1311.347,2727.432h3.393a.918.918,0,0,0,.918-.919.917.917,0,0,0-.918-.918h-3.393a.918.918,0,0,0-.919.918.919.919,0,0,0,.919.919Z" transform="translate(1336.489 -2694.109)"/>
        <path id="Path_102489" data-name="Path 102489" d="M-1311.142,2742.876h-6.776a.919.919,0,0,0-.919.919.919.919,0,0,0,.919.918h6.776a.919.919,0,0,0,.918-.918A.919.919,0,0,0-1311.142,2742.876Z" transform="translate(1335.547 -2691.633)"/>
        <path id="Path_102490" data-name="Path 102490" d="M-1301.323,2742.953h-6.776a.919.919,0,0,0-.918.919.919.919,0,0,0,.918.918h6.776a.919.919,0,0,0,.919-.918A.919.919,0,0,0-1301.323,2742.953Z" transform="translate(1336.954 -2691.622)"/>
        <path id="Path_102491" data-name="Path 102491" d="M-1301.323,2746.252h-6.776a.919.919,0,0,0-.918.918.919.919,0,0,0,.918.919h6.776a.919.919,0,0,0,.919-.919A.919.919,0,0,0-1301.323,2746.252Z" transform="translate(1336.954 -2691.149)"/>
        <path id="Path_102492" data-name="Path 102492" d="M-1321.135,2742.953h-6.776a.919.919,0,0,0-.918.919.919.919,0,0,0,.918.918h6.776a.919.919,0,0,0,.919-.918A.919.919,0,0,0-1321.135,2742.953Z" transform="translate(1334.116 -2691.622)"/>
        <path id="Path_102493" data-name="Path 102493" d="M-1321.135,2746.252h-6.776a.919.919,0,0,0-.918.918.919.919,0,0,0,.918.919h6.776a.919.919,0,0,0,.919-.919A.919.919,0,0,0-1321.135,2746.252Z" transform="translate(1334.116 -2691.149)"/>
        <path id="Path_102494" data-name="Path 102494" d="M-1302.367,2753.933h-27.718a1.532,1.532,0,0,1-1.531-1.532v-17.861a.944.944,0,0,0-.891-.957.919.919,0,0,0-.947.918v17.9a3.369,3.369,0,0,0,3.368,3.369h27.718a.918.918,0,0,0,.918-.919.917.917,0,0,0-.918-.918Z" transform="translate(1333.453 -2692.964)"/>
        <g id="Group_57642" data-name="Group 57642" transform="translate(0 7.811)">
          <path id="Path_102495" data-name="Path 102495" d="M-1285.176,2729.411h-.462a.762.762,0,0,1-.763-.762v-8.988a2.6,2.6,0,0,0-2.6-2.6h-1.037a4.3,4.3,0,0,0-4.2-3.378,4.26,4.26,0,0,0-.687.056v-5.482a3.368,3.368,0,0,0-3.368-3.368h-10.729v1.837h10.729a1.532,1.532,0,0,1,1.531,1.531v6.25a4.286,4.286,0,0,0-1.77,3.471v23.818a8.311,8.311,0,0,0,.673,3.279l1.1,2.552v8.888a1.531,1.531,0,0,1-1.531,1.531h-3.382a.919.919,0,0,0-.919.919.919.919,0,0,0,.919.919h3.382a3.369,3.369,0,0,0,3.368-3.369v-6.219a2.05,2.05,0,0,0,.687.118,1.988,1.988,0,0,0,1.852-1.22l1.769-4.118a8.25,8.25,0,0,0,.674-3.279v-22.9h.937a.763.763,0,0,1,.763.764v8.988a2.6,2.6,0,0,0,2.6,2.6h.424a.945.945,0,0,0,.957-.891A.921.921,0,0,0-1285.176,2729.411Zm-6.6,12.383a6.441,6.441,0,0,1-.525,2.553l-1.77,4.119a.163.163,0,0,1-.164.108.164.164,0,0,1-.163-.108l-1.769-4.119a6.422,6.422,0,0,1-.525-2.553v-16.72h4.915Zm0-18.559h-4.915v-5.259a2.459,2.459,0,0,1,2.457-2.457,2.46,2.46,0,0,1,2.458,2.457Z" transform="translate(1336.954 -2704.887)"/>
          <path id="Path_102496" data-name="Path 102496" d="M-1325.408,2705.1h-4.677a3.368,3.368,0,0,0-3.368,3.368v25.878a.945.945,0,0,0,.891.957.919.919,0,0,0,.947-.919v-25.916a1.532,1.532,0,0,1,1.531-1.531h4.677Z" transform="translate(1333.453 -2704.856)"/>
        </g>
        <path id="Path_102497" data-name="Path 102497" d="M-1316.621,2698.055a11.266,11.266,0,0,0-11.266,11.266,11.266,11.266,0,0,0,11.266,11.267,11.267,11.267,0,0,0,11.266-11.267A11.266,11.266,0,0,0-1316.621,2698.055Zm0,20.9a9.634,9.634,0,0,1-9.634-9.634,9.634,9.634,0,0,1,9.634-9.635,9.635,9.635,0,0,1,9.635,9.635A9.635,9.635,0,0,1-1316.621,2718.953Z" transform="translate(1334.25 -2698.055)"/>
        <path id="Path_102498" data-name="Path 102498" d="M-1321.712,2707.69a1.345,1.345,0,0,0-1.9,0l-.518.518a1.344,1.344,0,0,0,0,1.9l3.786,3.787a1.343,1.343,0,0,0,1.9,0l7.794-7.6a1.344,1.344,0,0,0,0-1.9l-.518-.518a1.345,1.345,0,0,0-1.9,0l-6.325,6.136Z" transform="translate(1334.732 -2697.278)"/>
      </g>
    </g>
    <text id="Fase_2_Definir" data-name="Fase 2
Definir" transform="translate(-1104.145 2897.152)" font-size="22" font-family="Roboto-Bold, Roboto" font-weight="700"><tspan x="-32.393" y="0">Fase 2</tspan><tspan x="-32.876" y="26">Definir</tspan></text>
    <text id="Fase_3_Idear" data-name="Fase 3
Idear" transform="translate(-921.218 2791.625)" font-size="22" font-family="Roboto-Bold, Roboto" font-weight="700"><tspan x="-32.393" y="0">Fase 3</tspan><tspan x="-25.26" y="26">Idear</tspan></text>
    <text id="Fase_5_Testear" data-name="Fase 5
Testear" transform="translate(-555.366 2791.625)" font-size="22" font-family="Roboto-Bold, Roboto" font-weight="700"><tspan x="-32.393" y="0">Fase 5</tspan><tspan x="-37.501" y="26">Testear</tspan></text>
    <text id="Fase_4_Prototipar" data-name="Fase 4
Prototipar" transform="translate(-738.726 2897.152)" font-size="22" font-family="Roboto-Bold, Roboto" font-weight="700"><tspan x="-32.393" y="0">Fase 4</tspan><tspan x="-49.645" y="26">Prototipar</tspan></text>
    <g id="Group_57645" data-name="Group 57645" transform="translate(-943.568 2696.454)">
      <path id="Path_102499" data-name="Path 102499" d="M-958.53,2736.351l-1.707-3.423a.892.892,0,0,0-1.2-.4.891.891,0,0,0-.4,1.195l1.707,3.423a.865.865,0,0,1,.047.667.872.872,0,0,1-.438.5l-16.8,8.383a.874.874,0,0,1-1.171-.392l-4.543-9.106a1.425,1.425,0,0,0-1.589-.756l-6.9,1.976a4.449,4.449,0,0,1-3.07-.231,4.456,4.456,0,0,1-2.6-4.029l0-2.3a.892.892,0,0,0-.446-.769l-1.237-.716c-.454-.227.018-.9.1-1.212a2.184,2.184,0,0,0,.145-.873l-.066-1.759a1.254,1.254,0,0,0-.75-1.1l-3.462-1.5a.947.947,0,0,1-.509-.535.938.938,0,0,1,.029-.737l3.5-7.431a2.028,2.028,0,0,0,.118-1.422,19.225,19.225,0,0,1-.741-5.3,19.175,19.175,0,0,1,13.068-18.193.892.892,0,0,0,.561-1.128.892.892,0,0,0-1.128-.56,20.953,20.953,0,0,0-14.283,19.882,21.011,21.011,0,0,0,.809,5.791.244.244,0,0,1-.016.172l-3.5,7.431a2.708,2.708,0,0,0-.085,2.125,2.709,2.709,0,0,0,1.467,1.54l3.153,1.371.054,1.422a5.341,5.341,0,0,1-.3.876,2.179,2.179,0,0,0,.947,2.684l.793.458,0,1.784a6.243,6.243,0,0,0,3.637,5.647,6.23,6.23,0,0,0,4.3.322l6.534-1.87,4.411,8.84a2.659,2.659,0,0,0,2.38,1.47,2.651,2.651,0,0,0,1.181-.279l16.8-8.383a2.634,2.634,0,0,0,1.333-1.534,2.636,2.636,0,0,0-.142-2.027Z" transform="translate(1005.259 -2687.539)"/>
      <path id="Path_102500" data-name="Path 102500" d="M-986.377,2689.611a19.566,19.566,0,0,1,2.63-.16,19.232,19.232,0,0,1,19.053,19.216,19.171,19.171,0,0,1-4.773,12.637,1.7,1.7,0,0,0-.245,1.885l3.585,7.188a.891.891,0,0,0,1.195.4.891.891,0,0,0,.4-1.195l-3.562-7.141a20.948,20.948,0,0,0,5.182-13.77,21.018,21.018,0,0,0-20.823-21,21.266,21.266,0,0,0-2.871.174.892.892,0,0,0-.769,1,.89.89,0,0,0,1,.769Z" transform="translate(1007.82 -2687.67)"/>
      <path id="Path_102501" data-name="Path 102501" d="M-987.546,2711.149a1.407,1.407,0,0,1,.521,1.093v.069a8.472,8.472,0,0,0,.675,3.3,1.145,1.145,0,0,0-.137.547v2.378a4.006,4.006,0,0,0,4,4,4.006,4.006,0,0,0,4-4v-2.378a1.15,1.15,0,0,0-.154-.576,8.474,8.474,0,0,0,.692-3.341,1.422,1.422,0,0,1,.529-1.1,7.973,7.973,0,0,0,2.931-6.19,8.023,8.023,0,0,0-.151-1.552.89.89,0,0,0-1.046-.7.891.891,0,0,0-.7,1.046,6.285,6.285,0,0,1,.118,1.209,6.2,6.2,0,0,1-2.28,4.811,3.2,3.2,0,0,0-1.182,2.478,6.68,6.68,0,0,1-.6,2.76h-1.263v-4.394l2.3-2.74a.89.89,0,0,0-.111-1.255.891.891,0,0,0-1.255.111l-1.821,2.173-1.82-2.173a.891.891,0,0,0-1.255-.111.89.89,0,0,0-.111,1.255l2.3,2.74V2715h-1.3a6.693,6.693,0,0,1-.569-2.691v-.069a3.182,3.182,0,0,0-1.177-2.473,6.2,6.2,0,0,1-2.285-4.842,6.246,6.246,0,0,1,6.128-6.191h.09a6.167,6.167,0,0,1,4.43,1.856.89.89,0,0,0,1.26.01.891.891,0,0,0,.01-1.26,7.912,7.912,0,0,0-5.815-2.387,8.036,8.036,0,0,0-7.885,7.965,7.969,7.969,0,0,0,2.939,6.229Zm7.279,7.388a2.222,2.222,0,0,1-2.219,2.219,2.222,2.222,0,0,1-2.22-2.219v-1.753h4.439Z" transform="translate(1007.376 -2686.339)"/>
      <path id="Path_102502" data-name="Path 102502" d="M-991.807,2704.492a.891.891,0,0,0-.892-.892h-2.557a.89.89,0,0,0-.891.892.89.89,0,0,0,.891.891h2.557A.891.891,0,0,0-991.807,2704.492Z" transform="translate(1006.565 -2685.387)"/>
      <path id="Path_102503" data-name="Path 102503" d="M-987.441,2696.208a.89.89,0,0,0,.819.54.9.9,0,0,0,.82-1.241l-.9-2.111a.892.892,0,0,0-1.171-.468.89.89,0,0,0-.468,1.17Z" transform="translate(1007.672 -2686.926)"/>
      <path id="Path_102504" data-name="Path 102504" d="M-990.858,2699.375a.891.891,0,0,0-.134-1.253l-1.843-1.487a.891.891,0,0,0-1.253.134.89.89,0,0,0,.134,1.253l1.843,1.488A.892.892,0,0,0-990.858,2699.375Z" transform="translate(1006.831 -2686.413)"/>
      <path id="Path_102505" data-name="Path 102505" d="M-973.734,2705.382h2.557a.89.89,0,0,0,.891-.891.89.89,0,0,0-.891-.892h-2.557a.891.891,0,0,0-.892.892A.891.891,0,0,0-973.734,2705.382Z" transform="translate(1009.648 -2685.387)"/>
      <path id="Path_102506" data-name="Path 102506" d="M-979.933,2693.4l-.9,2.111a.89.89,0,0,0,.468,1.169.891.891,0,0,0,1.17-.468l.9-2.111a.89.89,0,0,0-.468-1.17A.891.891,0,0,0-979.933,2693.4Z" transform="translate(1008.748 -2686.926)"/>
      <path id="Path_102507" data-name="Path 102507" d="M-972.433,2696.769a.891.891,0,0,0-1.253-.134l-1.843,1.487a.891.891,0,0,0-.135,1.253.892.892,0,0,0,1.253.134l1.843-1.488A.89.89,0,0,0-972.433,2696.769Z" transform="translate(1009.471 -2686.413)"/>
    </g>
    <g id="Group_57646" data-name="Group 57646" transform="translate(-770.023 2801.981)">
      <path id="Path_102508" data-name="Path 102508" d="M-816.061,2788.872a2.681,2.681,0,0,0-2.678,2.678,2.681,2.681,0,0,0,2.678,2.677,2.681,2.681,0,0,0,2.677-2.677A2.68,2.68,0,0,0-816.061,2788.872Zm0,3.448a.772.772,0,0,1-.772-.77.772.772,0,0,1,.772-.772.772.772,0,0,1,.772.772A.772.772,0,0,1-816.061,2792.32Z" transform="translate(858.44 -2778.695)"/>
      <path id="Path_102509" data-name="Path 102509" d="M-831.073,2825.348l-4.08-2.355a1.947,1.947,0,0,0-1.97,0,1.949,1.949,0,0,0-.984,1.706v4.712a1.95,1.95,0,0,0,.984,1.706,1.951,1.951,0,0,0,1.97,0l4.08-2.356a1.949,1.949,0,0,0,.984-1.706A1.951,1.951,0,0,0-831.073,2825.348Zm-.953,1.761-4.08,2.356a.056.056,0,0,1-.063,0,.055.055,0,0,1-.032-.055V2824.7a.057.057,0,0,1,.032-.056.067.067,0,0,1,.033-.009.073.073,0,0,1,.031.009l4.08,2.356a.054.054,0,0,1,.031.055A.055.055,0,0,1-832.027,2827.108Z" transform="translate(855.664 -2773.844)"/>
      <path id="Path_102510" data-name="Path 102510" d="M-790.834,2807.429h-3.409v-6.846a2.837,2.837,0,0,0-2.834-2.834h-8.3a16.741,16.741,0,0,1,2.115-3.2l.026-.031a1.969,1.969,0,0,0,.458-1.568,1.963,1.963,0,0,0-.883-1.374,16.165,16.165,0,0,1-1.515-1.05,10.954,10.954,0,0,1-3.282-5.092,7.275,7.275,0,0,0,1.969.272,7.246,7.246,0,0,0,4.6-1.641,7.247,7.247,0,0,0,4.6,1.641,7.264,7.264,0,0,0,6.414-3.846.953.953,0,0,0-.391-1.29.953.953,0,0,0-1.29.391,5.361,5.361,0,0,1-4.733,2.839,5.345,5.345,0,0,1-3.616-1.4,1.449,1.449,0,0,0-1.965,0,5.349,5.349,0,0,1-3.616,1.4,5.363,5.363,0,0,1-2.442-.591l-.271-1.619a1.916,1.916,0,0,0-1.6-1.6,1.892,1.892,0,0,0-2.156,1.567l-.274,1.644a5.372,5.372,0,0,1-2.453.6,5.345,5.345,0,0,1-3.616-1.4,1.449,1.449,0,0,0-1.965,0,5.349,5.349,0,0,1-3.616,1.4,5.362,5.362,0,0,1-4.734-2.839.953.953,0,0,0-1.29-.391.953.953,0,0,0-.391,1.29,7.264,7.264,0,0,0,6.414,3.846,7.247,7.247,0,0,0,4.6-1.641,7.246,7.246,0,0,0,4.6,1.641,7.276,7.276,0,0,0,1.981-.278,10.955,10.955,0,0,1-3.287,5.1,16.112,16.112,0,0,1-1.539,1.063,1.969,1.969,0,0,0-.881,1.36,1.969,1.969,0,0,0,.436,1.561l.069.081a16.784,16.784,0,0,1,2.082,3.156h-28.529a2.837,2.837,0,0,0-2.834,2.834V2829h-3.286a1.992,1.992,0,0,0-1.989,1.989,8.379,8.379,0,0,0,8.37,8.37h5.24a9.8,9.8,0,0,0,7.438,3.418,9.8,9.8,0,0,0,7.437-3.418h20.046a.954.954,0,0,0,.953-.954.954.954,0,0,0-.953-.953H-823.69a9.766,9.766,0,0,0,1.093-4.494,9.787,9.787,0,0,0-.217-2.052h31.856a.083.083,0,0,1,.082.083,6.471,6.471,0,0,1-6.463,6.464h-2.905a.953.953,0,0,0-.953.952.954.954,0,0,0,.953.954h2.905a8.379,8.379,0,0,0,8.37-8.37,1.992,1.992,0,0,0-1.989-1.989h-3.286v-10.657h3.409a2.863,2.863,0,0,0,2.859-2.859v-5.194a2.863,2.863,0,0,0-2.859-2.859Zm-3.83,9.005h-1.957v-7.1h1.957v7.1Zm-17.067,0v-7.1h13.2v7.1Zm-10.39-3.224a.325.325,0,0,1-.233-.326.326.326,0,0,1,.234-.326l2.656-.916v2.483Zm4.563-2.223,3.92-1.35v6.5l-3.921-1.352Zm.112-17.618-.067-.081a.056.056,0,0,1-.014-.05.059.059,0,0,1,.029-.044,15.4,15.4,0,0,0,1.753-1.224,12.984,12.984,0,0,0,4.268-7.7l.4-2.373v0l.4,2.369a13,13,0,0,0,4.266,7.7,15.527,15.527,0,0,0,1.729,1.208.057.057,0,0,1,.029.043.063.063,0,0,1-.017.052l-.043.051a18.605,18.605,0,0,0-2.762,4.426h-7.234A18.618,18.618,0,0,0-817.446,2793.369Zm-28.837,32.555h7.021A9.859,9.859,0,0,0-841.4,2829h-4.882Zm1.189,11.527a6.472,6.472,0,0,1-6.464-6.463.084.084,0,0,1,.083-.083h9.455a9.787,9.787,0,0,0-.217,2.052,9.753,9.753,0,0,0,1.094,4.494Zm12.678,3.419a7.923,7.923,0,0,1-7.915-7.914,7.924,7.924,0,0,1,7.915-7.915,7.923,7.923,0,0,1,7.914,7.915A7.922,7.922,0,0,1-832.416,2840.87Zm36.266-16.852h-25.536a.954.954,0,0,0-.953.954.953.953,0,0,0,.953.952h25.536V2829h-27.282a9.831,9.831,0,0,0-8.984-5.863,9.762,9.762,0,0,0-4.062.883h-9.8v-23.435a.93.93,0,0,1,.93-.928h48.276a.93.93,0,0,1,.928.928v6.846h-16.544a2.455,2.455,0,0,0-.784.136l-5.684,1.959,2.7-6.5a.953.953,0,0,0-.513-1.246.953.953,0,0,0-1.246.513l-3.354,8.065-1.167.4a2.223,2.223,0,0,0-1.521,2.129,2.233,2.233,0,0,0,.6,1.541,2.849,2.849,0,0,1-1.764.611h-2.048a2.854,2.854,0,0,1-2.851-2.85,4.762,4.762,0,0,0-4.758-4.757,4.743,4.743,0,0,0-4.4,2.943l-2.156,5.228a.954.954,0,0,0,.518,1.244.953.953,0,0,0,1.245-.518l2.156-5.227a2.842,2.842,0,0,1,2.636-1.764,2.855,2.855,0,0,1,2.851,2.851,4.763,4.763,0,0,0,4.757,4.757h2.048a4.755,4.755,0,0,0,3.576-1.621l8.365,2.884a2.521,2.521,0,0,0,.8.136h16.534Zm6.269-8.536a.954.954,0,0,1-.952.952h-1.923v-7.1h1.923a.954.954,0,0,1,.952.952Z" transform="translate(853.464 -2779.971)"/>
    </g>
    <g id="Group_57647" data-name="Group 57647" transform="translate(-581.368 2695.443)">
      <path id="Path_102511" data-name="Path 102511" d="M-635.638,2730.685a.932.932,0,0,0,.933-.933V2692.1a2.91,2.91,0,0,0-2.907-2.906h-14.03q-.147-.175-.306-.342a6.666,6.666,0,0,0-4.816-2.072,6.663,6.663,0,0,0-4.814,2.072c-.106.111-.208.225-.308.342h-14.029a2.91,2.91,0,0,0-2.907,2.906v17.28a17.436,17.436,0,0,0-4.525,3.271.932.932,0,0,0,0,1.319.932.932,0,0,0,1.319,0,15.459,15.459,0,0,1,11-4.557,15.578,15.578,0,0,1,15.56,15.56,15.579,15.579,0,0,1-15.56,15.56,15.578,15.578,0,0,1-15.561-15.56,15.564,15.564,0,0,1,2.034-7.7.932.932,0,0,0-.348-1.272.933.933,0,0,0-1.272.347,17.427,17.427,0,0,0-2.279,8.622,17.444,17.444,0,0,0,9.629,15.581v7.136a2.911,2.911,0,0,0,2.907,2.907h38.3a2.911,2.911,0,0,0,2.907-2.907v-13.562a.932.932,0,0,0-.933-.933.932.932,0,0,0-.933.933v13.562a1.043,1.043,0,0,1-1.042,1.042h-38.3a1.042,1.042,0,0,1-1.042-1.042v-6.332a17.319,17.319,0,0,0,5.931,1.041,17.307,17.307,0,0,0,8.488-2.212h6.2a.933.933,0,0,0,.933-.933.933.933,0,0,0-.933-.933h-3.5a17.394,17.394,0,0,0,6.238-13.348,17.446,17.446,0,0,0-17.426-17.426q-.5,0-1,.03v-9.572h3.375v2.3a1.8,1.8,0,0,0,.692,1.412l.886.687a1.5,1.5,0,0,0,1.84,0l.645-.5.646.5a1.5,1.5,0,0,0,1.84,0l.645-.5.646.5a1.5,1.5,0,0,0,1.84,0l.645-.5.646.5a1.5,1.5,0,0,0,1.84,0l.646-.5.646.5a1.5,1.5,0,0,0,1.838,0l.646-.5.645.5a1.5,1.5,0,0,0,1.84,0l.646-.5.646.5a1.5,1.5,0,0,0,1.838,0c.673-.505,1.648-1.132,1.58-2.1v-2.3h3.375v40.316h-10.132a.933.933,0,0,0-.933.933.933.933,0,0,0,.933.933h10.443a1.557,1.557,0,0,0,1.555-1.555V2697.7a1.557,1.557,0,0,0-1.555-1.555h-3.686v-.04a2.041,2.041,0,0,0-2.039-2.038h-3.066c.006-.116.009-.23.009-.344a6.923,6.923,0,0,0-.528-2.658h12.886a1.042,1.042,0,0,1,1.042,1.041v37.647a.932.932,0,0,0,.933.933Zm-36.7-34.541a1.557,1.557,0,0,0-1.555,1.555v10.087a17.329,17.329,0,0,0-3.063.8V2692.1a1.042,1.042,0,0,1,1.042-1.04h12.886a6.916,6.916,0,0,0-.528,2.657c0,.114,0,.23.009.344h-3.066a2.041,2.041,0,0,0-2.039,2.04v.039Zm25.6-.04v4.169l-.633.49-.646-.5a1.5,1.5,0,0,0-.919-.314,1.5,1.5,0,0,0-.919.314l-.646.5-.646-.5a1.5,1.5,0,0,0-1.84,0l-.645.5-.646-.5a1.5,1.5,0,0,0-1.84,0l-.646.5-.645-.5a1.5,1.5,0,0,0-1.839,0l-.646.5-.645-.5a1.5,1.5,0,0,0-1.84,0l-.646.5-.645-.5a1.5,1.5,0,0,0-1.84,0l-.646.5-.632-.49V2696.1a.174.174,0,0,1,.174-.174h19.7a.175.175,0,0,1,.174.174Zm-14.938-2.038c-.008-.115-.014-.23-.014-.344a5.068,5.068,0,0,1,4.928-5.071,5.068,5.068,0,0,1,4.929,5.071c0,.114-.006.23-.014.344Z" transform="translate(688.452 -2686.785)"/>
      <path id="Path_102512" data-name="Path 102512" d="M-680.092,2728.909a.932.932,0,0,0,1.318.025l4.836-4.656a3.442,3.442,0,0,0,1.751.478,3.462,3.462,0,0,0,3.458-3.458,3.464,3.464,0,0,0-2.525-3.329v-4.56a.933.933,0,0,0-.933-.933.932.932,0,0,0-.933.933v4.56a3.463,3.463,0,0,0-2.525,3.329,3.437,3.437,0,0,0,.413,1.637l-4.835,4.657a.931.931,0,0,0-.025,1.318Zm7.906-9.2a1.6,1.6,0,0,1,1.593,1.593,1.594,1.594,0,0,1-1.593,1.593,1.594,1.594,0,0,1-1.593-1.593,1.594,1.594,0,0,1,1.593-1.593Z" transform="translate(689.612 -2683.104)"/>
      <circle id="Ellipse_4127" data-name="Ellipse 4127" cx="0.986" cy="0.986" r="0.986" transform="translate(16.417 49.419)"/>
      <circle id="Ellipse_4128" data-name="Ellipse 4128" cx="0.986" cy="0.986" r="0.986" transform="translate(16.417 24.871)"/>
      <circle id="Ellipse_4129" data-name="Ellipse 4129" cx="0.986" cy="0.986" r="0.986" transform="translate(4.143 37.145)"/>
      <circle id="Ellipse_4130" data-name="Ellipse 4130" cx="0.986" cy="0.986" r="0.986" transform="translate(28.691 37.145)"/>
      <path id="Path_102513" data-name="Path 102513" d="M-679.456,2728.974a.985.985,0,0,0,.342,1.351.985.985,0,0,0,1.351-.341.985.985,0,0,0-.341-1.353A.987.987,0,0,0-679.456,2728.974Z" transform="translate(689.721 -2680.809)"/>
      <path id="Path_102514" data-name="Path 102514" d="M-668.11,2711.888a.985.985,0,0,0,1.351-.342.986.986,0,0,0-.342-1.351.985.985,0,0,0-1.351.342A.985.985,0,0,0-668.11,2711.888Z" transform="translate(691.298 -2683.451)"/>
      <path id="Path_102515" data-name="Path 102515" d="M-681.82,2713.913a.985.985,0,0,0-1.353.341.985.985,0,0,0,.342,1.351.984.984,0,0,0,1.351-.341.986.986,0,0,0-.341-1.351Z" transform="translate(689.189 -2682.918)"/>
      <path id="Path_102516" data-name="Path 102516" d="M-664.393,2726.609a.985.985,0,0,0,1.351-.342.986.986,0,0,0-.341-1.352.987.987,0,0,0-1.353.342A.986.986,0,0,0-664.393,2726.609Z" transform="translate(691.83 -2681.341)"/>
      <path id="Path_102517" data-name="Path 102517" d="M-668.624,2730.065a.986.986,0,0,0,1.346.365.987.987,0,0,0,.366-1.346.986.986,0,0,0-1.346-.365A.987.987,0,0,0-668.624,2730.065Z" transform="translate(691.274 -2680.795)"/>
      <path id="Path_102518" data-name="Path 102518" d="M-677.955,2711.8a.984.984,0,0,0,.365-1.344.985.985,0,0,0-1.346-.366.986.986,0,0,0-.365,1.346A.986.986,0,0,0-677.955,2711.8Z" transform="translate(689.745 -2683.464)"/>
      <path id="Path_102519" data-name="Path 102519" d="M-664.283,2714.067a.986.986,0,0,0-.365,1.346.986.986,0,0,0,1.346.365.986.986,0,0,0,.365-1.346.986.986,0,0,0-1.346-.365Z" transform="translate(691.844 -2682.895)"/>
      <path id="Path_102520" data-name="Path 102520" d="M-682.911,2724.743a.985.985,0,0,0-.366,1.346.988.988,0,0,0,1.346.366.986.986,0,0,0,.365-1.346A.985.985,0,0,0-682.911,2724.743Z" transform="translate(689.175 -2681.365)"/>
      <path id="Path_102521" data-name="Path 102521" d="M-656.564,2710.181h6.042a.933.933,0,0,0,.933-.933.932.932,0,0,0-.933-.933h-6.042a.932.932,0,0,0-.933.933A.933.933,0,0,0-656.564,2710.181Z" transform="translate(692.887 -2683.7)"/>
      <path id="Path_102522" data-name="Path 102522" d="M-649.139,2705.984a.933.933,0,0,0-.933-.933h-9.634a.934.934,0,0,0-.933.933.933.933,0,0,0,.933.933h9.634a.932.932,0,0,0,.933-.933Z" transform="translate(692.437 -2684.168)"/>
    </g>
  </g>
</svg>
