<svg xmlns="http://www.w3.org/2000/svg" width="315" height="209" viewBox="0 0 315 209">
  <g id="t2-ixx5" transform="translate(-1033 -2179)">
    <rect id="Rectangle_5251" data-name="Rectangle 5251" width="315" height="209" transform="translate(1033 2179)" fill="none"/>
    <path id="Path_102101" data-name="Path 102101" d="M281.323,99.021H268.369a11.915,11.915,0,0,1-11.734-12.089h0a11.916,11.916,0,0,1,11.734-12.089h8.154a5.116,5.116,0,0,0,.155-10.229h-19.46a.6.6,0,0,1-.582-.614,12.106,12.106,0,0,0-11.922-12.267H174.469a3.221,3.221,0,0,1-.118-6.441h48.967a6.395,6.395,0,0,0,.175-12.787H82.725a6.395,6.395,0,0,0-.175,12.787h24.044a7,7,0,0,1,.191,14H35.311C20.67,59.289,8.8,71.518,8.8,86.6h0a27.111,27.111,0,0,0,21.58,26.834,4,4,0,0,1,3.152,3.975v2.229a4,4,0,0,1-3.94,4.059h0c-10.772,0-19.5,9-19.5,20.1h0c0,11.1,8.733,20.094,19.5,20.094h.07a5.953,5.953,0,0,1,5.862,6.039v.015a6.2,6.2,0,0,1-5.541,6.221,6.206,6.206,0,0,0-1.436.277,15.632,15.632,0,0,0,5.025,30.254H257.9a15.535,15.535,0,0,0,15.416-14.326c.005-.072.011-.145.015-.216a7.371,7.371,0,0,1,7.23-7.053h2.78a12.744,12.744,0,0,0,12.55-12.929h0c0-5.384-4.213-9.838-9.257-11.7a7.912,7.912,0,0,1-5.2-7.421v-.373a8.561,8.561,0,0,1,6.109-8.234A23.08,23.08,0,0,0,303.8,122.18h0C303.8,109.39,293.736,99.021,281.323,99.021Z" transform="translate(1033.7 2163.417)" fill="#9ddfd3"/>
    <g id="Group_57350" data-name="Group 57350" transform="translate(1085 2178)">
      <g id="Group_57348" data-name="Group 57348" transform="translate(11.153 11.153)">
        <g id="Group_57322" data-name="Group 57322" transform="translate(47.298 126.129)">
          <path id="Path_102055" data-name="Path 102055" d="M148.613,336l5.455,38.122v.032a5.072,5.072,0,0,0-1.829-.315A5.845,5.845,0,0,0,147,377.055l-1.545,3.09H136L142.306,336Z" transform="translate(-136 -336)" fill="#cc3d60"/>
        </g>
        <g id="Group_57323" data-name="Group 57323" transform="translate(48.087 113.516)">
          <path id="Path_102056" data-name="Path 102056" d="M155.343,308.32l-5.518,8.293h-6.306L138,308.351,146.671,304Z" transform="translate(-138 -304)" fill="#cc3d60"/>
        </g>
        <g id="Group_57324" data-name="Group 57324" transform="translate(59.911 117.836)">
          <path id="Path_102057" data-name="Path 102057" d="M183.766,351.632v16.334a8.74,8.74,0,0,0-3.153-.568H177.46v-.473a5.785,5.785,0,0,0-4-5.518v-.032L168,323.253l5.518-8.293,10.248,5.14Z" transform="translate(-168 -314.96)" fill="#c8ea73"/>
        </g>
        <g id="Group_57325" data-name="Group 57325" transform="translate(37.839 117.868)">
          <path id="Path_102058" data-name="Path 102058" d="M122.248,315.04l5.518,8.261-6.306,44.145H112v-47.3Z" transform="translate(-112 -315.04)" fill="#c8ea73"/>
        </g>
        <g id="Group_57326" data-name="Group 57326" transform="translate(56.758 100.903)">
          <path id="Path_102059" data-name="Path 102059" d="M178.919,272v22.073l-10.248-5.14L160,284.613,172.613,272Z" transform="translate(-160 -272)" fill="#c8ea73"/>
        </g>
        <g id="Group_57327" data-name="Group 57327" transform="translate(37.839 100.903)">
          <path id="Path_102060" data-name="Path 102060" d="M130.919,284.613l-8.671,4.351L112,294.073v-21.19a46,46,0,0,1,6.306-.883Z" transform="translate(-112 -272)" fill="#c8ea73"/>
        </g>
        <g id="Group_57328" data-name="Group 57328" transform="translate(75.677 50.452)">
          <path id="Path_102061" data-name="Path 102061" d="M220.613,194.452A50.438,50.438,0,0,0,271.065,144v9.46a6.352,6.352,0,0,0,6.306,6.306,6.325,6.325,0,0,0,6.306-6.306v-6.306a6.352,6.352,0,0,0,6.306,6.306v8.766a66.221,66.221,0,0,1-25.226,52.028v-4.036a3.162,3.162,0,0,0-3.153-3.153H255.3a3.162,3.162,0,0,0-3.153,3.153v11.856a67.848,67.848,0,0,1-15.388,5.108l-9.838,1.955V244.9H211.153A3.162,3.162,0,0,0,208,248.056v-53.6Z" transform="translate(-208 -144)" fill="#f6f6f6"/>
        </g>
        <g id="Group_57329" data-name="Group 57329" transform="translate(0 101.786)">
          <path id="Path_102062" data-name="Path 102062" d="M53.839,342.728H72.758v18.919H47.532A31.544,31.544,0,0,1,16,330.115v-9.334A47.5,47.5,0,0,1,53.839,274.24v68.488Z" transform="translate(-16 -274.24)" fill="#f6f6f6"/>
        </g>
        <g id="Group_57330" data-name="Group 57330" transform="translate(138.742 12.613)">
          <path id="Path_102063" data-name="Path 102063" d="M380.613,54.306V70.073H368V54.306A6.325,6.325,0,0,1,374.306,48a6.352,6.352,0,0,1,6.306,6.306Z" transform="translate(-368 -48)" fill="#ccd1d9"/>
        </g>
        <g id="Group_57331" data-name="Group 57331" transform="translate(138.742 34.685)">
          <path id="Path_102064" data-name="Path 102064" d="M380.613,122.919v6.306a6.325,6.325,0,0,1-6.306,6.306A6.352,6.352,0,0,1,368,129.226V104h12.613v18.919Z" transform="translate(-368 -104)" fill="#9ddfd3"/>
        </g>
        <g id="Group_57332" data-name="Group 57332" transform="translate(6.306 0)">
          <path id="Path_102065" data-name="Path 102065" d="M132.9,66.452a18.934,18.934,0,0,1-18.919,18.919h-.221a16.207,16.207,0,0,0,.221-2.775V72.19a9.422,9.422,0,0,0,0-17.784V47.532a6.325,6.325,0,0,0-6.306-6.306H82.452A12.609,12.609,0,0,0,69.839,53.839v6.306H65.014A7.785,7.785,0,0,0,61.546,74.9l8.293,4.162v23.523a12.267,12.267,0,0,1-6.306,1.7A12.609,12.609,0,0,1,50.919,91.677a12.6,12.6,0,0,1-9.144-21.284,18.914,18.914,0,0,1,9.144-35.474A18.934,18.934,0,0,1,69.839,16a18.7,18.7,0,0,1,12.613,4.856,18.875,18.875,0,0,1,27.181,1.987,17.878,17.878,0,0,1,4.351-.536A18.934,18.934,0,0,1,132.9,41.226a18.7,18.7,0,0,1-4.856,12.613A18.7,18.7,0,0,1,132.9,66.452Z" transform="translate(-32 -16)" fill="#31326f"/>
        </g>
        <g id="Group_57333" data-name="Group 57333" transform="translate(44.145 25.226)">
          <path id="Path_102066" data-name="Path 102066" d="M172.145,93.149v.032a8.741,8.741,0,0,0-3.153-.568,9.358,9.358,0,0,0-8.892,6.306H146.415l-.063.032a9.414,9.414,0,0,0-17.847.158l-.5-.189V92.613A12.609,12.609,0,0,1,140.613,80h25.226a6.325,6.325,0,0,1,6.306,6.306Z" transform="translate(-128 -80)" fill="#f0d0b4"/>
        </g>
        <g id="Group_57334" data-name="Group 57334" transform="translate(31.532 44.145)">
          <path id="Path_102067" data-name="Path 102067" d="M152.758,140.077v10.374a16.2,16.2,0,0,1-.221,2.775,21.544,21.544,0,0,1-21.1,18.888v.032l2.4,12.613-12.613,12.613-12.613-12.613V146.919l-8.293-4.162A7.785,7.785,0,0,1,103.788,128h4.824l.5.189a8.365,8.365,0,0,0-.5,2.964,9.46,9.46,0,0,0,18.919,0,8.571,8.571,0,0,0-.568-3.122l.063-.032h13.685a8.74,8.74,0,0,0-.568,3.153,9.447,9.447,0,0,0,9.46,9.46,8.741,8.741,0,0,0,3.153-.568Z" transform="translate(-96 -128)" fill="#f0d0b4"/>
        </g>
        <g id="Group_57335" data-name="Group 57335" transform="translate(75.677 37.839)">
          <path id="Path_102068" data-name="Path 102068" d="M217.46,112a8.741,8.741,0,0,1,3.153.568,9.422,9.422,0,0,1,0,17.784,8.741,8.741,0,0,1-3.153.568,9.447,9.447,0,0,1-9.46-9.46,8.74,8.74,0,0,1,.568-3.153A9.358,9.358,0,0,1,217.46,112Z" transform="translate(-208 -112)" fill="#9ddfd3"/>
        </g>
        <g id="Group_57336" data-name="Group 57336" transform="translate(44.145 37.839)">
          <path id="Path_102069" data-name="Path 102069" d="M146.352,118.338a8.571,8.571,0,0,1,.568,3.122,9.46,9.46,0,1,1-18.919,0,8.365,8.365,0,0,1,.5-2.964,9.414,9.414,0,0,1,17.847-.158Z" transform="translate(-128 -112)" fill="#9ddfd3"/>
        </g>
        <g id="Group_57337" data-name="Group 57337" transform="translate(151.355 34.685)">
          <path id="Path_102070" data-name="Path 102070" d="M412.613,122.919a6.325,6.325,0,0,1-6.306,6.306A6.352,6.352,0,0,1,400,122.919V110.306A6.325,6.325,0,0,1,406.306,104a6.352,6.352,0,0,1,6.306,6.306Z" transform="translate(-400 -104)" fill="#f0d0b4"/>
        </g>
        <g id="Group_57338" data-name="Group 57338" transform="translate(126.129 34.685)">
          <path id="Path_102071" data-name="Path 102071" d="M346.753,105.86a6.307,6.307,0,0,1-4.446,10.752A6.325,6.325,0,0,1,336,110.306a6.288,6.288,0,0,1,10.753-4.446Z" transform="translate(-336 -104)" fill="#f0d0b4"/>
        </g>
        <g id="Group_57339" data-name="Group 57339" transform="translate(56.758 163.968)">
          <path id="Path_102072" data-name="Path 102072" d="M185.226,447.766a9.425,9.425,0,0,1-4.162,7.852h-.032a9.44,9.44,0,0,1-5.266,1.608H160V438.306l1.545-3.09A5.845,5.845,0,0,1,166.779,432a5.073,5.073,0,0,1,1.829.315,5.785,5.785,0,0,1,4,5.518v.473h3.153a8.741,8.741,0,0,1,3.153.568,8.948,8.948,0,0,1,3.532,2.207A9.437,9.437,0,0,1,185.226,447.766Z" transform="translate(-160 -432)" fill="#f0d0b4"/>
        </g>
        <g id="Group_57340" data-name="Group 57340" transform="translate(75.677 151.355)">
          <path id="Path_102073" data-name="Path 102073" d="M239.532,425.226v6.306a6.324,6.324,0,0,1-2.869,5.3,6.451,6.451,0,0,1-3.437,1.009H214.306a6.118,6.118,0,0,1-4.162-1.608,9.466,9.466,0,0,0,1.387-14.536A8.948,8.948,0,0,0,208,419.487V403.153A3.162,3.162,0,0,1,211.153,400h25.226a3.162,3.162,0,0,1,3.153,3.153v22.073Z" transform="translate(-208 -400)" fill="#9ddfd3"/>
        </g>
        <g id="Group_57341" data-name="Group 57341" transform="translate(157.661 113.516)">
          <path id="Path_102074" data-name="Path 102074" d="M428.613,307.153v15.766H416V307.153A3.162,3.162,0,0,1,419.153,304h6.306A3.162,3.162,0,0,1,428.613,307.153Z" transform="translate(-416 -304)" fill="#cc3d60"/>
        </g>
        <g id="Group_57342" data-name="Group 57342" transform="translate(119.823 113.516)">
          <path id="Path_102075" data-name="Path 102075" d="M332.613,311.189v11.73H320V307.153A3.162,3.162,0,0,1,323.153,304h6.306a3.162,3.162,0,0,1,3.153,3.153Z" transform="translate(-320 -304)" fill="#cc3d60"/>
        </g>
        <g id="Group_57343" data-name="Group 57343" transform="translate(119.823 132.435)">
          <path id="Path_102076" data-name="Path 102076" d="M320,352h12.613v12.613H320Z" transform="translate(-320 -352)" fill="#f3f9ff"/>
        </g>
        <g id="Group_57344" data-name="Group 57344" transform="translate(107.21 145.048)">
          <path id="Path_102077" data-name="Path 102077" d="M315.338,409.226c-8.419,0-8.419,6.306-16.838,6.306-5.55,0-7.442-2.743-10.5-4.635v-.631l12.613-16.807V384h12.613v9.46l7.189,9.586,9.207,12.266C323.631,414.208,322.78,409.226,315.338,409.226Z" transform="translate(-288 -384)" fill="#f3f9ff"/>
        </g>
        <g id="Group_57345" data-name="Group 57345" transform="translate(139.656 132.435)">
          <path id="Path_102078" data-name="Path 102078" d="M419.857,389.429a1.8,1.8,0,0,1-.032.41c-8.388-.032-8.388-6.306-16.775-6.306-8.419,0-8.419,6.306-16.838,6.306-8.072,0-8.388-5.833-15.892-6.275a19.2,19.2,0,0,1,6.054-8.987l11.951-9.964V352h12.613v12.613l11.951,9.964A19.345,19.345,0,0,1,419.857,389.429Z" transform="translate(-370.32 -352)" fill="#f3f9ff"/>
        </g>
        <g id="Group_57346" data-name="Group 57346" transform="translate(104.34 170.274)">
          <path id="Path_102079" data-name="Path 102079" d="M283.589,449.671c3.059,1.892,4.951,4.635,10.5,4.635,8.419,0,8.419-6.306,16.838-6.306,7.442,0,8.293,4.982,14.284,6.086l1.1,1.482a7.087,7.087,0,0,1-.631,9.239l-.032.032a7.054,7.054,0,0,1-5.014,2.081H284.378a7.235,7.235,0,0,1-3.658-1.009,6.324,6.324,0,0,0,2.869-5.3V449.671Z" transform="translate(-280.72 -448)" fill="#9ddfd3"/>
        </g>
        <g id="Group_57347" data-name="Group 57347" transform="translate(139.625 163.968)">
          <path id="Path_102080" data-name="Path 102080" d="M370.272,432.032c7.5.441,7.82,6.275,15.892,6.275,8.419,0,8.419-6.306,16.838-6.306,8.388,0,8.388,6.275,16.775,6.306a19.261,19.261,0,0,1-19.3,18.919H388.686a19.038,19.038,0,0,1-8.766-2.113,7.087,7.087,0,0,0,.631-9.239l-1.1-1.482-9.207-12.266c0-.032.032-.063.032-.095Z" transform="translate(-370.24 -432)" fill="#9ddfd3"/>
        </g>
      </g>
      <g id="Group_57349" data-name="Group 57349" transform="translate(8 8)">
        <path id="Path_102081" data-name="Path 102081" d="M171.433,189.084a7.051,7.051,0,0,1-12.613,0l-.331-.665-5.641,2.822.331.662a13.357,13.357,0,0,0,23.9,0l.331-.665-5.641-2.822Z" transform="translate(-95.756 -117.304)"/>
        <path id="Path_102082" data-name="Path 102082" d="M195.415,163.75l-10.834-9.025v-26.9a6.313,6.313,0,0,0-6.306-6.306h-6.306a6.313,6.313,0,0,0-6.306,6.306v26.9l-10.834,9.025a22.372,22.372,0,0,0-4.664,5.42l-3.421-4.56V133.328a68.971,68.971,0,0,0,25.226-53.482V73.641a9.447,9.447,0,0,0,6.306-8.879V52.148a9.471,9.471,0,0,0-9.46-9.46,9.353,9.353,0,0,0-3.153.58v-13.2a9.46,9.46,0,1,0-18.919,0V43.266a9.353,9.353,0,0,0-3.153-.58,9.46,9.46,0,1,0,0,18.919,9.353,9.353,0,0,0,3.153-.58v.58a47.352,47.352,0,0,1-47.3,47.3H83.135l-1.264-6.679a24.889,24.889,0,0,0,20.017-18.689,22.039,22.039,0,0,0,15.646-34.544A22.041,22.041,0,0,0,96.221,14.556a22.025,22.025,0,0,0-28.31-2.573,22.046,22.046,0,0,0-34.49,15.135,22.068,22.068,0,0,0-10.68,39.223,15.614,15.614,0,0,0-2.128,7.877,15.8,15.8,0,0,0,12.878,15.5,15.589,15.589,0,0,0,18.654,12.525v7.019A50.845,50.845,0,0,0,8,159.468v9.346A34.726,34.726,0,0,0,42.685,203.5H83.677a12.5,12.5,0,0,0,5.105-1.1,9.42,9.42,0,0,0,4.355,1.1h18.919a9.372,9.372,0,0,0,3.475-.681,10.256,10.256,0,0,0,3.62.681h36.262a10.159,10.159,0,0,0,5.487-1.624,22.56,22.56,0,0,0,8.321,1.624h11.8a22.482,22.482,0,0,0,14.394-39.75Zm-17.141-35.928v12.613h-6.306V127.823Zm-19.4,40.771,13.1-10.916V146.742h6.306v10.935l13.1,10.916a16.123,16.123,0,0,1,5.455,9.028,14.334,14.334,0,0,1-3-1.87,15.919,15.919,0,0,0-20.606,0c-1.955,1.463-3.364,2.523-6.518,2.523s-4.56-1.056-6.511-2.523a18.757,18.757,0,0,0-4.9-2.879,16.017,16.017,0,0,1,3.573-4.279Zm-9.45,10.093a16.479,16.479,0,0,0-3.733-.413,15.49,15.49,0,0,0-10.3,3.784c-1.955,1.463-3.364,2.523-6.518,2.523-3.055,0-4.481-1-6.341-2.4l11.6-15.473v-7.356h6.306v7.356ZM108.9,149.328l7.3-1.46a69.742,69.742,0,0,0,11.623-3.415v20.159l-6.306,8.41v-7.36a6.313,6.313,0,0,0-6.306-6.306H108.9Zm31.532,3.721h-6.306v-6.306h6.306Zm0-12.613h-6.306V127.823h6.306Zm28.379-91.444a3.156,3.156,0,0,1,3.153,3.153V64.758a3.153,3.153,0,0,1-6.306,0V52.145A3.156,3.156,0,0,1,168.815,48.992ZM156.2,26.919a3.156,3.156,0,0,1,3.153,3.153V42.685h-6.306V30.073A3.156,3.156,0,0,1,156.2,26.919ZM143.589,55.3a3.153,3.153,0,1,1,3.153-3.153A3.156,3.156,0,0,1,143.589,55.3Zm9.46-6.306h6.306V71.065a3.153,3.153,0,0,1-6.306,0Zm-2.737,29.416A9.359,9.359,0,0,0,165.3,73.524c.117.047.246.069.366.114v6.209a62.662,62.662,0,0,1-19.427,45.507,6.308,6.308,0,0,0-5.8-3.837h-6.306a6.313,6.313,0,0,0-6.306,6.306v9.794a63.277,63.277,0,0,1-12.859,4.068L108.9,142.9v-8.766H102.6v25.226H89.984V115.21h9.46A53.669,53.669,0,0,0,150.311,78.408ZM83.677,178.274h-.413a9.005,9.005,0,0,0-3.863-4.932l-5.045-35.316,3.3-4.957,6.016,3.008Zm-17.049-1.331-.665,1.331H62.087l5.4-37.839h.836l4.541,31.785a8.886,8.886,0,0,0-6.24,4.724ZM54.151,115.367l8.438,8.438-10.443,5.222V115.61c.662-.1,1.334-.173,2.005-.243Zm27.679-.158h1.848v13.817l-10.443-5.222ZM69.378,134.129H66.445l-2.6-3.9,4.068-2.034,4.068,2.034Zm-17.232,1.949,6.016-3.008,3.3,4.957-5.751,40.248H52.145ZM96.29,77.74a18.549,18.549,0,0,1-24.415,17.6L65.758,93.3l-2,5.982,6.117,2.04a24.879,24.879,0,0,0,5.61,1.094L77.116,111l-9.2,9.207-9.46-9.46V72.269L48.4,67.246a4.643,4.643,0,0,1,2.078-8.794h1.665a12.613,12.613,0,1,0,25.226,0h6.306A12.626,12.626,0,0,0,96.29,71.065ZM93.137,39.532a3.156,3.156,0,0,1,3.153,3.153v3.153a12.572,12.572,0,0,0-10.86,6.306H75.615A12.395,12.395,0,0,0,58.6,47.513a9.457,9.457,0,0,1,9.315-7.981ZM96.29,64.758a6.306,6.306,0,1,1,6.306-6.306A6.313,6.313,0,0,1,96.29,64.758ZM64.758,52.145a6.306,6.306,0,1,1-6.306,6.306A6.313,6.313,0,0,1,64.758,52.145ZM48.992,96.29a9.471,9.471,0,0,1-9.46-9.46V83.677H36.379a9.432,9.432,0,0,1-6.846-15.949l2.806-2.958L28.77,62.8a15.766,15.766,0,0,1,7.609-29.574h3.153V30.073A15.746,15.746,0,0,1,65.808,18.346l2.1,1.886,2.1-1.886A15.733,15.733,0,0,1,92.655,20l1.249,1.5,1.9-.451A15.737,15.737,0,0,1,111.17,46.886l-1.892,2.106L111.17,51.1A15.74,15.74,0,0,1,102.6,77.052V69.311a12.5,12.5,0,0,0,0-21.719V42.685a9.471,9.471,0,0,0-9.46-9.46H80.524a3.153,3.153,0,1,1,0-6.306h3.153V20.613H80.524a9.471,9.471,0,0,0-9.46,9.46,9.353,9.353,0,0,0,.58,3.153H67.911A15.784,15.784,0,0,0,52.145,48.992v3.153H50.48a10.947,10.947,0,0,0-4.9,20.739l6.562,3.283V95.679a9.417,9.417,0,0,1-3.153.612ZM14.306,168.815v-9.346a44.549,44.549,0,0,1,31.532-42.427v61.232H42.685a9.471,9.471,0,0,1-9.46-9.46V146.742H26.919v22.073a15.784,15.784,0,0,0,15.766,15.766H64.758v12.613H42.685A28.412,28.412,0,0,1,14.306,168.815Zm56.758,28.379V182.172l1.2-2.409a2.693,2.693,0,0,1,5.1,1.2v3.614h6.306a6.306,6.306,0,0,1,0,12.613Zm23.473,0a12.412,12.412,0,0,0-4.553-17.166V165.661H115.21v6.306H102.6v6.306H115.21v6.306H108.9v6.306h6.306v3.153a3.156,3.156,0,0,1-3.153,3.153Zm60.876,0H120.936a9.353,9.353,0,0,0,.58-3.153v-4.957a14.587,14.587,0,0,0,7.35,1.8,15.49,15.49,0,0,0,10.3-3.784c1.955-1.463,3.364-2.523,6.518-2.523s4.566,1.059,6.521,2.523a17.744,17.744,0,0,0,5.887,3.153l.473.631a3.942,3.942,0,0,1-3.153,6.306Zm25.607,0h-11.8a16.2,16.2,0,0,1-4.178-.561,10.1,10.1,0,0,0,.618-3.38,10.3,10.3,0,0,0-2.05-6.149l-2.693-3.592a15.047,15.047,0,0,0,5.786,1.069,15.49,15.49,0,0,0,10.3-3.784c1.955-1.463,3.365-2.523,6.518-2.523s4.566,1.056,6.521,2.523a16.487,16.487,0,0,0,6.824,3.434,16.2,16.2,0,0,1-15.848,12.963Z" transform="translate(-8 -8)"/>
      </g>
    </g>
  </g>
</svg>
