<svg xmlns="http://www.w3.org/2000/svg" width="142" height="142" viewBox="0 0 142 142">
  <g id="t2-ic-x3" transform="translate(-543 -588)">
    <rect id="Rectangle_5396" data-name="Rectangle 5396" width="142" height="142" transform="translate(543 588)" fill="none"/>
    <g id="Group_57730" data-name="Group 57730" transform="translate(5983.803 3446.706)">
      <g id="Group_57693" data-name="Group 57693" transform="translate(-5422.727 -2856.632)">
        <path id="Path_102569" data-name="Path 102569" d="M-378.13,3143.352l-16.35-32.774a1.89,1.89,0,0,1,.272-2.093,46.532,46.532,0,0,0,11.622-30.763,46.853,46.853,0,0,0-46.385-46.784,46.717,46.717,0,0,0-47.05,46.716,46.734,46.734,0,0,0,1.8,12.9,2.646,2.646,0,0,1-.155,1.855l-8.137,17.288a4.277,4.277,0,0,0,2.166,5.745l8.055,3.5a.829.829,0,0,1,.5.729l.155,4.092a3.02,3.02,0,0,1-.2,1.2l-.642,1.659a3.019,3.019,0,0,0,1.3,3.7l2.879,1.665.012,5.345a12.407,12.407,0,0,0,7.249,11.256,12.408,12.408,0,0,0,8.574.643l16.047-4.595a1.263,1.263,0,0,1,1.274.691l10.569,21.186a4.1,4.1,0,0,0,5.5,1.841l39.094-19.5a4.1,4.1,0,0,0,1.84-5.5Z" transform="translate(482.916 -3030.937)" fill="#fed2a4"/>
      </g>
      <g id="Group_57695" data-name="Group 57695" transform="translate(-5377.645 -2856.632)">
        <g id="Group_57694" data-name="Group 57694" transform="translate(0 0)">
          <path id="Path_102570" data-name="Path 102570" d="M-260.664,3143.352l-16.35-32.774a1.889,1.889,0,0,1,.27-2.09,46.533,46.533,0,0,0,11.624-30.766,46.853,46.853,0,0,0-46.385-46.784,46.982,46.982,0,0,0-8.864.78,46.9,46.9,0,0,1,38.209,46,46.521,46.521,0,0,1-10.958,29.991,3.48,3.48,0,0,0-.8,1.795l0,.024a3.416,3.416,0,0,0,.344,1.985l21.461,42.133,9.609-4.794a4.1,4.1,0,0,0,1.84-5.5Z" transform="translate(320.369 -3030.937)" fill="#ffbd86"/>
        </g>
      </g>
      <g id="Group_57700" data-name="Group 57700" transform="translate(-5383.434 -2831.937)">
        <g id="Group_57696" data-name="Group 57696" transform="translate(0 0)">
          <path id="Path_102571" data-name="Path 102571" d="M-308.164,3136.519a16.538,16.538,0,0,0-16.773-16.536,16.592,16.592,0,0,0-16.3,16.469,16.5,16.5,0,0,0,6.077,12.877,5.361,5.361,0,0,1,1.975,4.149v.16a17.538,17.538,0,0,0,2.511,9.043l2.4,3.983a4.064,4.064,0,0,0,6.928.058l2.468-3.949a17.536,17.536,0,0,0,2.666-9.294,5.386,5.386,0,0,1,1.99-4.162,16.5,16.5,0,0,0,6.063-12.8Z" transform="translate(341.24 -3119.981)" fill="#ffd566"/>
        </g>
        <g id="Group_57697" data-name="Group 57697" transform="translate(13.771 0)">
          <path id="Path_102572" data-name="Path 102572" d="M-289.056,3119.983a16.489,16.489,0,0,0-2.444.217,16.539,16.539,0,0,1,13.873,16.319,16.5,16.5,0,0,1-6.063,12.8,5.386,5.386,0,0,0-1.99,4.162,17.536,17.536,0,0,1-2.666,9.294l-2.468,3.949a4.089,4.089,0,0,1-.774.91,4.068,4.068,0,0,0,6.119-.91l2.468-3.949a17.536,17.536,0,0,0,2.666-9.294,5.386,5.386,0,0,1,1.99-4.162,16.5,16.5,0,0,0,6.063-12.8,16.538,16.538,0,0,0-16.773-16.536Z" transform="translate(291.588 -3119.981)" fill="#ffc93c"/>
        </g>
        <g id="Group_57698" data-name="Group 57698" transform="translate(9.301 41.989)">
          <path id="Path_102573" data-name="Path 102573" d="M-300.466,3284.767a7.237,7.237,0,0,1-7.236-7.237V3272a.62.62,0,0,1,.62-.62h13.233a.62.62,0,0,1,.62.62v5.531A7.236,7.236,0,0,1-300.466,3284.767Z" transform="translate(307.702 -3271.38)" fill="#9ddfd3"/>
        </g>
        <g id="Group_57699" data-name="Group 57699" transform="translate(9.972 41.989)">
          <path id="Path_102574" data-name="Path 102574" d="M-292.1,3271.38h-2.9v2.626a7.236,7.236,0,0,1-7.236,7.236,7.2,7.2,0,0,1-3.041-.67,7.236,7.236,0,0,0,6.566,4.195,7.237,7.237,0,0,0,7.236-7.237V3272a.62.62,0,0,0-.62-.62Z" transform="translate(305.285 -3271.38)" fill="#87bfb5"/>
        </g>
      </g>
      <g id="Group_57701" data-name="Group 57701" transform="translate(-5424.803 -2858.706)">
        <path id="Path_102575" data-name="Path 102575" d="M-381.685,3143.346l-3.972-7.963a2.073,2.073,0,0,0-2.78-.93,2.073,2.073,0,0,0-.93,2.78l3.972,7.963a2.018,2.018,0,0,1,.108,1.551,2.018,2.018,0,0,1-1.02,1.173l-39.094,19.5a2.034,2.034,0,0,1-2.725-.911l-10.569-21.186a3.318,3.318,0,0,0-3.7-1.759l-16.047,4.6a10.341,10.341,0,0,1-7.141-.536,10.361,10.361,0,0,1-6.038-9.375l-.012-5.345a2.074,2.074,0,0,0-1.036-1.79l-2.879-1.665c-1.055-.532.044-2.093.233-2.82a5.059,5.059,0,0,0,.339-2.029l-.155-4.093a2.916,2.916,0,0,0-1.744-2.552l-8.055-3.5a2.187,2.187,0,0,1-1.184-1.244,2.186,2.186,0,0,1,.068-1.716l8.137-17.288a4.719,4.719,0,0,0,.272-3.31,44.713,44.713,0,0,1-1.724-12.328,44.609,44.609,0,0,1,30.4-42.326,2.073,2.073,0,0,0,1.3-2.626,2.072,2.072,0,0,0-2.626-1.3,48.751,48.751,0,0,0-33.229,46.256,48.869,48.869,0,0,0,1.884,13.471.573.573,0,0,1-.038.4l-8.137,17.288a6.3,6.3,0,0,0-.2,4.945,6.3,6.3,0,0,0,3.412,3.584l7.337,3.187.126,3.311a12.666,12.666,0,0,1-.705,2.036,5.067,5.067,0,0,0,2.2,6.246l1.847,1.067.009,4.152a14.519,14.519,0,0,0,8.46,13.137,14.494,14.494,0,0,0,10.006.751l15.2-4.354,10.26,20.568a6.185,6.185,0,0,0,5.538,3.419,6.137,6.137,0,0,0,2.748-.649l39.094-19.5a6.137,6.137,0,0,0,3.1-3.569,6.135,6.135,0,0,0-.331-4.716Z" transform="translate(490.402 -3029.783)"/>
        <path id="Path_102576" data-name="Path 102576" d="M-316.613,3027.98a45.164,45.164,0,0,1,6.118-.372,44.743,44.743,0,0,1,44.326,44.708,44.6,44.6,0,0,1-11.106,29.4,3.949,3.949,0,0,0-.57,4.387l8.342,16.722a2.075,2.075,0,0,0,2.78.93,2.073,2.073,0,0,0,.93-2.781l-8.288-16.613a48.744,48.744,0,0,0,12.057-32.037,48.9,48.9,0,0,0-48.443-48.86,49.361,49.361,0,0,0-6.679.406,2.073,2.073,0,0,0-1.789,2.322,2.071,2.071,0,0,0,2.322,1.789Z" transform="translate(366.503 -3023.461)"/>
        <path id="Path_102577" data-name="Path 102577" d="M-341.878,3145.532a3.277,3.277,0,0,1,1.214,2.544v.16a19.708,19.708,0,0,0,1.57,7.68,2.676,2.676,0,0,0-.321,1.273v5.531a9.32,9.32,0,0,0,9.31,9.31,9.32,9.32,0,0,0,9.309-9.31v-5.531a2.673,2.673,0,0,0-.361-1.34,19.7,19.7,0,0,0,1.609-7.772,3.307,3.307,0,0,1,1.231-2.559,18.553,18.553,0,0,0,6.822-14.4,18.752,18.752,0,0,0-.351-3.614,2.071,2.071,0,0,0-2.435-1.633,2.073,2.073,0,0,0-1.633,2.435,14.6,14.6,0,0,1,.273,2.813,14.422,14.422,0,0,1-5.3,11.193,7.438,7.438,0,0,0-2.749,5.766,15.532,15.532,0,0,1-1.4,6.42h-2.939v-10.221l5.341-6.374a2.073,2.073,0,0,0-.257-2.92,2.073,2.073,0,0,0-2.92.257l-4.237,5.056-4.237-5.056a2.073,2.073,0,0,0-2.92-.257,2.073,2.073,0,0,0-.257,2.92l5.341,6.374V3154.5h-3.013a15.542,15.542,0,0,1-1.326-6.26v-.16a7.409,7.409,0,0,0-2.736-5.754,14.414,14.414,0,0,1-5.316-11.263,14.532,14.532,0,0,1,14.258-14.4h.209a14.341,14.341,0,0,1,10.307,4.319,2.073,2.073,0,0,0,2.932.023,2.074,2.074,0,0,0,.024-2.932,18.418,18.418,0,0,0-13.529-5.554,18.7,18.7,0,0,0-18.346,18.533,18.546,18.546,0,0,0,6.839,14.489Zm16.936,17.188a5.169,5.169,0,0,1-5.163,5.163,5.169,5.169,0,0,1-5.163-5.163v-4.078h10.326Z" transform="translate(388.012 -3087.811)"/>
        <path id="Path_102578" data-name="Path 102578" d="M-392.92,3178.325a2.073,2.073,0,0,0-2.073-2.073h-5.951a2.073,2.073,0,0,0-2.073,2.073,2.073,2.073,0,0,0,2.073,2.073h5.951A2.073,2.073,0,0,0-392.92,3178.325Z" transform="translate(427.253 -3133.876)"/>
        <path id="Path_102579" data-name="Path 102579" d="M-326.611,3081a2.074,2.074,0,0,0,1.906,1.257,2.085,2.085,0,0,0,1.9-2.89l-2.1-4.909a2.073,2.073,0,0,0-2.722-1.089,2.073,2.073,0,0,0-1.089,2.722Z" transform="translate(373.679 -3059.408)"/>
        <path id="Path_102580" data-name="Path 102580" d="M-377.193,3114.387a2.073,2.073,0,0,0-.311-2.915l-4.288-3.46a2.073,2.073,0,0,0-2.915.312,2.073,2.073,0,0,0,.311,2.915l4.288,3.46A2.073,2.073,0,0,0-377.193,3114.387Z" transform="translate(414.354 -3084.23)"/>
        <path id="Path_102581" data-name="Path 102581" d="M-194.538,3180.4h5.951a2.073,2.073,0,0,0,2.073-2.073,2.073,2.073,0,0,0-2.073-2.073h-5.951a2.073,2.073,0,0,0-2.073,2.073A2.073,2.073,0,0,0-194.538,3180.4Z" transform="translate(278.092 -3133.876)"/>
        <path id="Path_102582" data-name="Path 102582" d="M-254.606,3074.461l-2.1,4.909a2.073,2.073,0,0,0,1.089,2.722A2.076,2.076,0,0,0-252.9,3081l2.1-4.909a2.073,2.073,0,0,0-1.089-2.722A2.073,2.073,0,0,0-254.606,3074.461Z" transform="translate(321.645 -3059.408)"/>
        <path id="Path_102583" data-name="Path 102583" d="M-200.488,3108.323a2.072,2.072,0,0,0-2.915-.312l-4.288,3.46a2.072,2.072,0,0,0-.312,2.915,2.073,2.073,0,0,0,2.915.312l4.288-3.46A2.072,2.072,0,0,0-200.488,3108.323Z" transform="translate(286.657 -3084.23)"/>
      </g>
    </g>
  </g>
</svg>
