<svg xmlns="http://www.w3.org/2000/svg" width="142" height="142" viewBox="0 0 142 142">
  <g id="t2-ic-x4" transform="translate(-543 -103)">
    <rect id="Rectangle_5192" data-name="Rectangle 5192" width="142" height="142" transform="translate(543 103)" fill="none"/>
    <g id="Group_57729" data-name="Group 57729" transform="translate(6561.924 2961.705)">
      <g id="Group_57703" data-name="Group 57703" transform="translate(-6016.847 -2776.416)">
        <circle id="Ellipse_4137" data-name="Ellipse 4137" cx="14.429" cy="14.429" r="14.429" transform="translate(0 0)" fill="#ffd566"/>
      </g>
      <g id="Group_57704" data-name="Group 57704" transform="translate(-5908.075 -2776.416)">
        <circle id="Ellipse_4138" data-name="Ellipse 4138" cx="14.429" cy="14.429" r="14.429" transform="translate(0 0)" fill="#ffd566"/>
      </g>
      <g id="Group_57705" data-name="Group 57705" transform="translate(-5967.803 -2820.146)">
        <path id="Path_102584" data-name="Path 102584" d="M-883.371,3200.817l-15.611-15.611a4.16,4.16,0,0,1,0-5.883l15.611-15.611a4.16,4.16,0,0,1,5.883,0l15.611,15.611a4.16,4.16,0,0,1,0,5.883l-15.611,15.611a4.16,4.16,0,0,1-5.883,0Z" transform="translate(900.201 -3162.493)" fill="#ffd566"/>
      </g>
      <g id="Group_57706" data-name="Group 57706" transform="translate(-5953.368 -2806.854)">
        <path id="Path_102585" data-name="Path 102585" d="M-824.258,3213.96l-3.541-3.542a4.145,4.145,0,0,1-1.16,3.595l-18.47,18.47a4.161,4.161,0,0,1-.721.573l2.4,2.4a4.155,4.155,0,0,0,5.875,0l15.619-15.619a4.155,4.155,0,0,0,0-5.875Z" transform="translate(848.151 -3210.419)" fill="#ffc93c"/>
      </g>
      <g id="Group_57707" data-name="Group 57707" transform="translate(-6016.847 -2811.245)">
        <path id="Path_102586" data-name="Path 102586" d="M-1052.338,3218.452h-20.537a4.16,4.16,0,0,1-4.16-4.16v-15.545a4.16,4.16,0,0,1,4.16-4.16h20.537a4.16,4.16,0,0,1,4.16,4.16v15.545A4.16,4.16,0,0,1-1052.338,3218.452Z" transform="translate(1077.035 -3194.587)" fill="#f24872"/>
      </g>
      <g id="Group_57708" data-name="Group 57708" transform="translate(-5908.074 -2811.245)">
        <path id="Path_102587" data-name="Path 102587" d="M-660.142,3218.452h-20.537a4.16,4.16,0,0,1-4.16-4.16v-15.545a4.16,4.16,0,0,1,4.16-4.16h20.537a4.16,4.16,0,0,1,4.16,4.16v15.545A4.16,4.16,0,0,1-660.142,3218.452Z" transform="translate(684.839 -3194.587)" fill="#f24872"/>
      </g>
      <g id="Group_57709" data-name="Group 57709" transform="translate(-5968.008 -2739.844)">
        <path id="Path_102588" data-name="Path 102588" d="M-865.147,3473.092h-31.632a4.16,4.16,0,0,1-4.16-4.16V3456.19a4.16,4.16,0,0,1,4.16-4.16h31.632a4.16,4.16,0,0,1,4.16,4.16v12.742A4.16,4.16,0,0,1-865.147,3473.092Z" transform="translate(900.939 -3452.03)" fill="#ffd566"/>
      </g>
      <g id="Group_57710" data-name="Group 57710" transform="translate(-5968.008 -2769.832)">
        <path id="Path_102589" data-name="Path 102589" d="M-865.147,3364.969h-31.632a4.16,4.16,0,0,1-4.16-4.16v-12.742a4.16,4.16,0,0,1,4.16-4.16h31.632a4.16,4.16,0,0,1,4.16,4.16v12.742a4.16,4.16,0,0,1-4.16,4.16Z" transform="translate(900.939 -3343.907)" fill="#9ddfd3"/>
      </g>
      <g id="Group_57711" data-name="Group 57711" transform="translate(-5977.676 -2856.628)">
        <ellipse id="Ellipse_4139" data-name="Ellipse 4139" cx="29.644" cy="13.488" rx="29.644" ry="13.488" transform="translate(0)" fill="#9ddfd3"/>
      </g>
      <g id="Group_57712" data-name="Group 57712" transform="translate(-6015 -2774.568)">
        <path id="Path_102590" data-name="Path 102590" d="M-1050.73,3326.828a14.358,14.358,0,0,1,1.848,7.062,14.429,14.429,0,0,1-14.429,14.429,14.359,14.359,0,0,1-7.062-1.848,14.421,14.421,0,0,0,12.581,7.366,14.429,14.429,0,0,0,14.429-14.429A14.42,14.42,0,0,0-1050.73,3326.828Z" transform="translate(1070.373 -3326.828)" fill="#ffc93c"/>
      </g>
      <g id="Group_57713" data-name="Group 57713" transform="translate(-5906.227 -2774.568)">
        <path id="Path_102591" data-name="Path 102591" d="M-658.535,3326.828a14.359,14.359,0,0,1,1.848,7.062,14.429,14.429,0,0,1-14.429,14.429,14.358,14.358,0,0,1-7.062-1.848,14.422,14.422,0,0,0,12.581,7.366,14.429,14.429,0,0,0,14.429-14.429A14.421,14.421,0,0,0-658.535,3326.828Z" transform="translate(678.178 -3326.828)" fill="#ffc93c"/>
      </g>
      <g id="Group_57714" data-name="Group 57714" transform="translate(-6016.847 -2811.245)">
        <path id="Path_102592" data-name="Path 102592" d="M-1052.332,3194.587h-1.364v14.192a4.154,4.154,0,0,1-4.154,4.155h-19.184v1.364a4.154,4.154,0,0,0,4.154,4.155h20.549a4.154,4.154,0,0,0,4.154-4.155v-15.556A4.154,4.154,0,0,0-1052.332,3194.587Z" transform="translate(1077.035 -3194.587)" fill="#cc3d60"/>
      </g>
      <g id="Group_57715" data-name="Group 57715" transform="translate(-5908.075 -2811.245)">
        <path id="Path_102593" data-name="Path 102593" d="M-660.137,3194.587H-661.5v14.192a4.155,4.155,0,0,1-4.154,4.155H-684.84v1.364a4.154,4.154,0,0,0,4.154,4.155h20.549a4.154,4.154,0,0,0,4.154-4.155v-15.556A4.154,4.154,0,0,0-660.137,3194.587Z" transform="translate(684.84 -3194.587)" fill="#cc3d60"/>
      </g>
      <g id="Group_57716" data-name="Group 57716" transform="translate(-5968.008 -2739.844)">
        <path id="Path_102594" data-name="Path 102594" d="M-865.141,3452.031h-1.364v11.389a4.154,4.154,0,0,1-4.154,4.154h-30.279v1.364a4.154,4.154,0,0,0,4.154,4.154h31.643a4.154,4.154,0,0,0,4.154-4.154v-12.753A4.154,4.154,0,0,0-865.141,3452.031Z" transform="translate(900.939 -3452.031)" fill="#ffc93c"/>
      </g>
      <g id="Group_57717" data-name="Group 57717" transform="translate(-5968.008 -2769.832)">
        <path id="Path_102595" data-name="Path 102595" d="M-865.141,3343.907h-1.364V3355.3a4.154,4.154,0,0,1-4.154,4.154h-30.279v1.364a4.154,4.154,0,0,0,4.154,4.154h31.643a4.154,4.154,0,0,0,4.154-4.154v-12.753A4.154,4.154,0,0,0-865.141,3343.907Z" transform="translate(900.939 -3343.907)" fill="#87bfb5"/>
      </g>
      <g id="Group_57718" data-name="Group 57718" transform="translate(-5977.091 -2851.338)">
        <path id="Path_102596" data-name="Path 102596" d="M-881.089,3050.026a6.571,6.571,0,0,1,.586,2.679c0,7.449-13.272,13.488-29.644,13.488-9.594,0-18.122-2.074-23.54-5.291,2.731,6.166,14.7,10.809,29.058,10.809,16.372,0,29.644-6.039,29.644-13.488C-874.984,3055.14-877.261,3052.3-881.089,3050.026Z" transform="translate(933.687 -3050.026)" fill="#87bfb5"/>
      </g>
      <path id="Path_102597" data-name="Path 102597" d="M-948.971,3096.865a6.239,6.239,0,0,0,6.232-6.232v-15.556a6.239,6.239,0,0,0-6.232-6.232H-969.52a6.239,6.239,0,0,0-6.232,6.232v4.638h-16.39a6.2,6.2,0,0,0-1.464-2.329l-6.927-6.927a2.077,2.077,0,0,0-2.938,0,2.077,2.077,0,0,0,0,2.938l6.928,6.928a2.064,2.064,0,0,1,.608,1.469,2.063,2.063,0,0,1-.608,1.469l-15.619,15.619a2.063,2.063,0,0,1-1.469.608,2.063,2.063,0,0,1-1.469-.608l-15.619-15.619a2.064,2.064,0,0,1-.608-1.469,2.063,2.063,0,0,1,.609-1.469l15.619-15.619a2.063,2.063,0,0,1,1.469-.608,2.063,2.063,0,0,1,1.469.608l1.6,1.6a2.077,2.077,0,0,0,2.938,0,2.077,2.077,0,0,0,0-2.938l-1.6-1.6a6.2,6.2,0,0,0-2.329-1.464v-5.745a52.672,52.672,0,0,0,19.745-4.1c6.384-2.9,9.9-6.963,9.9-11.428s-3.516-8.524-9.9-11.428c-5.864-2.669-13.613-4.138-21.822-4.138a60.781,60.781,0,0,0-15.852,2.008,2.078,2.078,0,0,0-1.453,2.554,2.077,2.077,0,0,0,2.553,1.452,56.581,56.581,0,0,1,14.752-1.859c16.246,0,27.567,6.014,27.567,11.411s-11.321,11.411-27.567,11.411-27.567-6.014-27.567-11.411c0-2.158,1.762-4.409,4.962-6.338a2.077,2.077,0,0,0,.706-2.851,2.077,2.077,0,0,0-2.852-.706c-4.56,2.75-6.971,6.172-6.971,9.9,0,4.465,3.516,8.523,9.9,11.428a52.671,52.671,0,0,0,19.745,4.1v5.745a6.209,6.209,0,0,0-2.329,1.464l-15.619,15.619a6.2,6.2,0,0,0-1.465,2.329h-16.39v-4.638a6.239,6.239,0,0,0-6.232-6.232h-20.548a6.239,6.239,0,0,0-6.232,6.232v15.556a6.239,6.239,0,0,0,6.232,6.232h8.2v6.944a16.527,16.527,0,0,0-14.429,16.371,16.45,16.45,0,0,0,1.053,5.813,2.077,2.077,0,0,0,2.676,1.213,2.077,2.077,0,0,0,1.213-2.676,12.31,12.31,0,0,1-.787-4.35,12.365,12.365,0,0,1,12.351-12.352,12.365,12.365,0,0,1,12.352,12.352,12.366,12.366,0,0,1-12.352,12.352,12.3,12.3,0,0,1-6.718-1.985,2.077,2.077,0,0,0-2.874.611,2.077,2.077,0,0,0,.61,2.873,16.445,16.445,0,0,0,8.982,2.656,16.525,16.525,0,0,0,16.506-16.506,16.527,16.527,0,0,0-14.429-16.371v-6.944h8.2a6.239,6.239,0,0,0,6.232-6.232v-6.763h16.39a6.205,6.205,0,0,0,1.464,2.329l15.619,15.619a6.2,6.2,0,0,0,2.329,1.464v6.976h-13.745a6.239,6.239,0,0,0-6.232,6.231v12.753a6.239,6.239,0,0,0,6.232,6.231h13.745v4.771h-13.745a6.239,6.239,0,0,0-6.232,6.231v12.753a6.239,6.239,0,0,0,6.232,6.232h31.644a6.239,6.239,0,0,0,6.232-6.232v-12.753a6.239,6.239,0,0,0-6.232-6.231h-13.745v-4.771h13.745a6.239,6.239,0,0,0,6.232-6.231V3116.49a6.239,6.239,0,0,0-6.232-6.231h-13.745v-6.976a6.2,6.2,0,0,0,2.329-1.464l15.619-15.619a6.205,6.205,0,0,0,1.465-2.329h16.39v6.763a6.239,6.239,0,0,0,6.232,6.232h8.2v6.944a16.527,16.527,0,0,0-14.429,16.371,16.525,16.525,0,0,0,16.506,16.506,16.525,16.525,0,0,0,16.506-16.506,16.528,16.528,0,0,0-14.429-16.371v-6.944h8.2Zm-106.7-6.232a2.08,2.08,0,0,1-2.077,2.077h-20.548a2.08,2.08,0,0,1-2.077-2.077v-15.556a2.08,2.08,0,0,1,2.077-2.077h20.548a2.08,2.08,0,0,1,2.077,2.077Zm59.934,55.844v12.753a2.08,2.08,0,0,1-2.077,2.077h-31.643a2.08,2.08,0,0,1-2.077-2.077v-12.753a2.079,2.079,0,0,1,2.077-2.077h31.644a2.079,2.079,0,0,1,2.077,2.077Zm0-29.987v12.753a2.08,2.08,0,0,1-2.077,2.077h-31.643a2.08,2.08,0,0,1-2.077-2.077V3116.49a2.08,2.08,0,0,1,2.077-2.077h31.644a2.079,2.079,0,0,1,2.077,2.077Zm48.839,3.69a12.366,12.366,0,0,1-12.352,12.352A12.365,12.365,0,0,1-971.6,3120.18a12.365,12.365,0,0,1,12.352-12.352A12.365,12.365,0,0,1-946.894,3120.18Zm-24.7-29.547v-15.556A2.08,2.08,0,0,1-969.52,3073h20.549a2.08,2.08,0,0,1,2.077,2.077v15.556a2.08,2.08,0,0,1-2.077,2.077H-969.52A2.08,2.08,0,0,1-971.6,3090.633Z" transform="translate(-4934.4 -5882.167)"/>
    </g>
  </g>
</svg>
