<svg xmlns="http://www.w3.org/2000/svg" width="142" height="142" viewBox="0 0 142 142">
  <g id="t2-i13" transform="translate(-543 -6928)">
    <rect id="Rectangle_5424" data-name="Rectangle 5424" width="142" height="142" transform="translate(543 6928)" fill="none"/>
    <g id="Group_57728" data-name="Group 57728" transform="translate(7035.706 9789.921)">
      <g id="Group_57720" data-name="Group 57720" transform="translate(-6479.628 -2841.631)">
        <path id="Path_102598" data-name="Path 102598" d="M-1454.479,3213.038h-79.789a5.547,5.547,0,0,1-5.547-5.547V3098.952a5.547,5.547,0,0,1,5.547-5.547h79.789a5.547,5.547,0,0,1,5.547,5.547v108.539A5.547,5.547,0,0,1-1454.479,3213.038Z" transform="translate(1539.815 -3093.405)" fill="#fff"/>
      </g>
      <g id="Group_57721" data-name="Group 57721" transform="translate(-6479.628 -2841.631)">
        <path id="Path_102599" data-name="Path 102599" d="M-1454.472,3093.405h-1.487v107.068a5.539,5.539,0,0,1-5.539,5.539h-78.317v1.487a5.539,5.539,0,0,0,5.539,5.539h79.8a5.539,5.539,0,0,0,5.539-5.539V3098.944a5.539,5.539,0,0,0-5.539-5.539Z" transform="translate(1539.815 -3093.405)" fill="#dbf6e9"/>
      </g>
      <g id="Group_57722" data-name="Group 57722" transform="translate(-6442.003 -2777.22)">
        <circle id="Ellipse_4140" data-name="Ellipse 4140" cx="7.816" cy="7.816" r="7.816" fill="#f24872"/>
      </g>
      <g id="Group_57723" data-name="Group 57723" transform="translate(-6467.632 -2768.629)">
        <circle id="Ellipse_4141" data-name="Ellipse 4141" cx="7.816" cy="7.816" r="7.816" fill="#9dc6fb"/>
      </g>
      <g id="Group_57724" data-name="Group 57724" transform="translate(-6416.375 -2768.629)">
        <circle id="Ellipse_4142" data-name="Ellipse 4142" cx="7.816" cy="7.816" r="7.816" fill="#ffc93c"/>
      </g>
      <g id="Group_57725" data-name="Group 57725" transform="translate(-6392.749 -2822.3)">
        <path id="Path_102600" data-name="Path 102600" d="M-1212.647,3231.182l-4,9.312a2.479,2.479,0,0,1-4.557,0l-4-9.312a16.7,16.7,0,0,1-1.356-6.592v-53.853a7.633,7.633,0,0,1,7.633-7.633,7.633,7.633,0,0,1,7.633,7.633v53.853a16.7,16.7,0,0,1-1.355,6.592Z" transform="translate(1226.558 -3163.104)" fill="#31326f"/>
      </g>
      <g id="Group_57726" data-name="Group 57726" transform="translate(-6387.587 -2822.301)">
        <path id="Path_102601" data-name="Path 102601" d="M-1205.476,3163.1a7.616,7.616,0,0,0-2.472.412,7.635,7.635,0,0,1,5.161,7.222v53.853a16.7,16.7,0,0,1-1.356,6.592l-3.806,8.861.194.451a2.479,2.479,0,0,0,4.557,0l4-9.312a16.7,16.7,0,0,0,1.356-6.592v-53.852A7.634,7.634,0,0,0-1205.476,3163.1Z" transform="translate(1207.948 -3163.103)" fill="#21214a"/>
      </g>
      <path id="Path_102602" data-name="Path 102602" d="M-1401.75,3318.156a9.9,9.9,0,0,0-9.893,9.893,9.9,9.9,0,0,0,9.893,9.894,9.9,9.9,0,0,0,9.893-9.894A9.9,9.9,0,0,0-1401.75,3318.156Zm0,15.633a5.746,5.746,0,0,1-5.739-5.739,5.746,5.746,0,0,1,5.739-5.739,5.746,5.746,0,0,1,5.739,5.739,5.746,5.746,0,0,1-5.739,5.739Z" transform="translate(-5032.438 -6097.454)"/>
      <path id="Path_102603" data-name="Path 102603" d="M-1494.156,3349.133a9.9,9.9,0,0,0-9.893,9.893,9.9,9.9,0,0,0,9.893,9.894,9.9,9.9,0,0,0,9.893-9.894A9.9,9.9,0,0,0-1494.156,3349.133Zm0,15.633a5.746,5.746,0,0,1-5.739-5.739,5.746,5.746,0,0,1,5.739-5.739,5.746,5.746,0,0,1,5.739,5.739A5.746,5.746,0,0,1-1494.156,3364.766Z" transform="translate(-4965.66 -6119.839)"/>
      <path id="Path_102604" data-name="Path 102604" d="M-1309.343,3349.133a9.9,9.9,0,0,0-9.893,9.893,9.9,9.9,0,0,0,9.893,9.894,9.9,9.9,0,0,0,9.893-9.894A9.9,9.9,0,0,0-1309.343,3349.133Zm0,15.633a5.746,5.746,0,0,1-5.739-5.739,5.746,5.746,0,0,1,5.739-5.739,5.746,5.746,0,0,1,5.739,5.739A5.746,5.746,0,0,1-1309.343,3364.766Z" transform="translate(-5099.216 -6119.839)"/>
      <path id="Path_102605" data-name="Path 102605" d="M-1393.682,3407.242H-1409a2.077,2.077,0,0,0-2.077,2.077A2.077,2.077,0,0,0-1409,3411.4h15.32a2.077,2.077,0,0,0,2.077-2.077A2.077,2.077,0,0,0-1393.682,3407.242Z" transform="translate(-5032.845 -6161.832)"/>
      <path id="Path_102606" data-name="Path 102606" d="M-1505.877,3281.074h33.937a2.077,2.077,0,0,0,2.077-2.077,2.077,2.077,0,0,0-2.077-2.077h-33.937a2.077,2.077,0,0,0-2.077,2.077A2.077,2.077,0,0,0-1505.877,3281.074Z" transform="translate(-4962.838 -6067.654)"/>
      <path id="Path_102607" data-name="Path 102607" d="M-1505.877,3249.314h52.563a2.077,2.077,0,0,0,2.077-2.077,2.077,2.077,0,0,0-2.077-2.077h-52.563a2.077,2.077,0,0,0-2.077,2.077A2.077,2.077,0,0,0-1505.877,3249.314Z" transform="translate(-4962.838 -6044.702)"/>
      <path id="Path_102608" data-name="Path 102608" d="M-1505.877,3217.555h52.563a2.077,2.077,0,0,0,2.077-2.077,2.077,2.077,0,0,0-2.077-2.077h-52.563a2.077,2.077,0,0,0-2.077,2.077A2.077,2.077,0,0,0-1505.877,3217.555Z" transform="translate(-4962.838 -6021.751)"/>
      <path id="Path_102609" data-name="Path 102609" d="M-1347.757,3281.074h7.671a2.077,2.077,0,0,0,2.077-2.077,2.077,2.077,0,0,0-2.077-2.077h-7.671a2.077,2.077,0,0,0-2.077,2.077,2.077,2.077,0,0,0,2.077,2.077Z" transform="translate(-5077.104 -6067.654)"/>
      <path id="Path_102610" data-name="Path 102610" d="M-1393.682,3437.986H-1409a2.077,2.077,0,0,0-2.077,2.077,2.077,2.077,0,0,0,2.077,2.077h15.32a2.077,2.077,0,0,0,2.077-2.077A2.077,2.077,0,0,0-1393.682,3437.986Z" transform="translate(-5032.845 -6184.049)"/>
      <path id="Path_102611" data-name="Path 102611" d="M-1302.161,3438.7h-15.32a2.077,2.077,0,0,0-2.077,2.077,2.077,2.077,0,0,0,2.077,2.077h15.32a2.077,2.077,0,0,0,2.077-2.077A2.077,2.077,0,0,0-1302.161,3438.7Z" transform="translate(-5098.983 -6184.568)"/>
      <path id="Path_102612" data-name="Path 102612" d="M-1302.161,3469.448h-15.32a2.077,2.077,0,0,0-2.077,2.077,2.077,2.077,0,0,0,2.077,2.077h15.32a2.077,2.077,0,0,0,2.077-2.077A2.077,2.077,0,0,0-1302.161,3469.448Z" transform="translate(-5098.983 -6206.786)"/>
      <path id="Path_102613" data-name="Path 102613" d="M-1486.813,3438.7h-15.32a2.077,2.077,0,0,0-2.077,2.077,2.077,2.077,0,0,0,2.077,2.077h15.32a2.077,2.077,0,0,0,2.077-2.077A2.077,2.077,0,0,0-1486.813,3438.7Z" transform="translate(-4965.543 -6184.568)"/>
      <path id="Path_102614" data-name="Path 102614" d="M-1486.813,3469.448h-15.32a2.077,2.077,0,0,0-2.077,2.077,2.077,2.077,0,0,0,2.077,2.077h15.32a2.077,2.077,0,0,0,2.077-2.077A2.077,2.077,0,0,0-1486.813,3469.448Z" transform="translate(-4965.543 -6206.786)"/>
      <path id="Path_102615" data-name="Path 102615" d="M-1477.022,3397.388h-62.667a3.462,3.462,0,0,1-3.462-3.462v-40.382a2.135,2.135,0,0,0-2.013-2.163,2.077,2.077,0,0,0-2.141,2.076v40.469a7.616,7.616,0,0,0,7.616,7.616h62.667a2.077,2.077,0,0,0,2.077-2.077,2.077,2.077,0,0,0-2.077-2.077Z" transform="translate(-4934.4 -6121.463)"/>
      <g id="Group_57727" data-name="Group 57727" transform="translate(-6481.706 -2844.262)">
        <path id="Path_102616" data-name="Path 102616" d="M-1265.654,3139.368h-1.045a1.725,1.725,0,0,1-1.725-1.725V3117.32a5.879,5.879,0,0,0-5.879-5.879h-2.344a9.726,9.726,0,0,0-9.486-7.638,9.735,9.735,0,0,0-1.554.126v-12.394a7.616,7.616,0,0,0-7.616-7.616h-24.256v4.154h24.256a3.462,3.462,0,0,1,3.462,3.462v14.13a9.7,9.7,0,0,0-4,7.849v53.853a18.781,18.781,0,0,0,1.524,7.412l2.478,5.769v20.1a3.462,3.462,0,0,1-3.462,3.462h-7.646a2.077,2.077,0,0,0-2.077,2.077,2.077,2.077,0,0,0,2.077,2.077h7.646a7.616,7.616,0,0,0,7.616-7.616v-14.062a4.629,4.629,0,0,0,1.554.267,4.5,4.5,0,0,0,4.187-2.759l4-9.312a18.675,18.675,0,0,0,1.524-7.411v-51.771h2.119a1.725,1.725,0,0,1,1.725,1.725v20.324a5.879,5.879,0,0,0,5.879,5.879h.957a2.135,2.135,0,0,0,2.163-2.013A2.077,2.077,0,0,0-1265.654,3139.368Zm-14.921,28a14.544,14.544,0,0,1-1.187,5.772l-4,9.312a.37.37,0,0,1-.37.243.37.37,0,0,1-.37-.244l-4-9.312a14.546,14.546,0,0,1-1.187-5.772v-37.807h11.113Zm0-41.961h-11.113v-11.891a5.562,5.562,0,0,1,5.556-5.556,5.562,5.562,0,0,1,5.556,5.556Z" transform="translate(1382.722 -3083.918)"/>
        <path id="Path_102617" data-name="Path 102617" d="M-1529.115,3085.915h-10.574a7.616,7.616,0,0,0-7.616,7.616v58.507a2.135,2.135,0,0,0,2.013,2.163,2.077,2.077,0,0,0,2.141-2.076v-58.594a3.462,3.462,0,0,1,3.462-3.462h10.574Z" transform="translate(1547.305 -3085.361)"/>
      </g>
      <circle id="Ellipse_4143" data-name="Ellipse 4143" cx="25.472" cy="25.472" r="25.472" transform="translate(-6467.319 -2861.921)"/>
      <circle id="Ellipse_4144" data-name="Ellipse 4144" cx="21.783" cy="21.783" r="21.783" transform="translate(-6463.63 -2858.238)" fill="#f1f4f6"/>
      <path id="Path_102618" data-name="Path 102618" d="M-1457.74,3080.315a3.037,3.037,0,0,0-4.3,0l-1.171,1.171a3.035,3.035,0,0,0,0,4.3l8.56,8.561a3.037,3.037,0,0,0,4.3,0l17.623-17.192a3.04,3.04,0,0,0,0-4.3l-1.172-1.172a3.039,3.039,0,0,0-4.3,0l-14.3,13.873Z" transform="translate(-4994.53 -5918.695)" fill="#81c140"/>
      <path id="Trazado_102618_-_Contorno" data-name="Trazado 102618 - Contorno" d="M-1440.386,3064.793a4.743,4.743,0,0,1,3.325,1.337l1.172,1.138a4.479,4.479,0,0,1,0,6.455l-17.638,16.706a4.731,4.731,0,0,1-3.31,1.323,4.743,4.743,0,0,1-3.325-1.337l-8.559-8.311a4.465,4.465,0,0,1-1.378-3.227,4.471,4.471,0,0,1,1.378-3.229l1.17-1.137a4.744,4.744,0,0,1,3.326-1.338,4.741,4.741,0,0,1,3.326,1.339l4.08,3.962,13.124-12.361A4.728,4.728,0,0,1-1440.386,3064.793Zm-16.45,23.729a1.387,1.387,0,0,0,.972-.391l17.637-16.706a1.305,1.305,0,0,0-.015-1.873l-1.172-1.137a1.387,1.387,0,0,0-.972-.391,1.387,1.387,0,0,0-.972.391l-15.5,14.594-6.4-6.214a1.385,1.385,0,0,0-.972-.391,1.386,1.386,0,0,0-.972.391l-1.171,1.137a1.308,1.308,0,0,0-.4.944,1.3,1.3,0,0,0,.4.941l8.561,8.312A1.385,1.385,0,0,0-1456.836,3088.521Z" transform="translate(-4990.194 -5914.359)"/>
    </g>
  </g>
</svg>
