<svg id="t2-ic11" xmlns="http://www.w3.org/2000/svg" width="189.1" height="173.817" viewBox="0 0 189.1 173.817">
  <path id="Trazado_101756_1_" d="M171.5,47.9H161.4a8.863,8.863,0,0,1-9.1-8.7h0a8.926,8.926,0,0,1,9.1-8.7h6.4a3.8,3.8,0,0,0,3.9-3.1,3.73,3.73,0,0,0-3.2-4.2H152.7c-.2,0-.5-.2-.5-.4h0a9.057,9.057,0,0,0-9.3-8.8H102.5a2.5,2.5,0,0,1-2.5-1.8,2.455,2.455,0,0,1,1.9-2.8h31.5a4.761,4.761,0,0,0,4.9-3.8,4.648,4.648,0,0,0-4-5.3,2.152,2.152,0,0,0-.8,0H43.2a4.761,4.761,0,0,0-4.9,3.8,4.648,4.648,0,0,0,4,5.3,2.152,2.152,0,0,0,.8,0H69a5.371,5.371,0,0,1,5.4,4.2,5.094,5.094,0,0,1-4.3,5.8c-.3,0-.6.1-.9.1H20.7C9.3,19.3,0,28.1,0,38.9H0c0,9.6,7.2,17.6,16.8,19.3a3.008,3.008,0,0,1,2.5,2.9v1.6a2.89,2.89,0,0,1-3.1,2.9h0C7.8,65.6,1,72.1,1,80.1H1c0,8,6.8,14.5,15.2,14.5h.1a4.464,4.464,0,0,1,4.6,4.3h0a4.654,4.654,0,0,1-4.3,4.5,3.6,3.6,0,0,0-1.1.2,11.557,11.557,0,0,0-7.9,9.7c-.5,6.6,5,12.1,11.8,12.1H153.3c6.2,0,11.5-4.4,12-10.3v-.2a5.64,5.64,0,0,1,5.6-5.1h2.2a9.591,9.591,0,0,0,9.8-9.3h0c0-3.9-3.3-7.1-7.2-8.4a5.77,5.77,0,0,1-4.1-5.3v-.3a6.19,6.19,0,0,1,4.8-5.9,16.845,16.845,0,0,0,12.7-16h0C189,55.3,181.2,47.9,171.5,47.9Z" fill="#9ddfd3"/>
  <g id="Group_57429" data-name="Group 57429">
    <path id="Path_102202" data-name="Path 102202" d="M97.1,70.6V34.4a6.594,6.594,0,0,1,6.6-6.6h36.2a6.594,6.594,0,0,1,6.6,6.6V70.6a6.594,6.594,0,0,1-6.6,6.6H103.7A6.594,6.594,0,0,1,97.1,70.6Z" fill="#ffd566"/>
    <path id="Path_102203" data-name="Path 102203" d="M102,70.6V34.4a1.58,1.58,0,0,1,1.6-1.6h36.2a1.58,1.58,0,0,1,1.6,1.6V70.6a1.58,1.58,0,0,1-1.6,1.6H103.6A1.645,1.645,0,0,1,102,70.6Z" fill="#ffc93c"/>
    <g id="Group_57425" data-name="Group 57425">
      <circle id="Ellipse_4099" data-name="Ellipse 4099" cx="3.3" cy="3.3" r="3.3" transform="translate(162.8 36)" fill="#f24872"/>
      <circle id="Ellipse_4100" data-name="Ellipse 4100" cx="3.3" cy="3.3" r="3.3" transform="translate(74.1 62.4)" fill="#f24872"/>
    </g>
    <g id="Group_57426" data-name="Group 57426">
      <circle id="Ellipse_4101" data-name="Ellipse 4101" cx="3.3" cy="3.3" r="3.3" transform="translate(166.1 77.1)" fill="#f24872"/>
      <circle id="Ellipse_4102" data-name="Ellipse 4102" cx="3.3" cy="3.3" r="3.3" transform="translate(70.8 21.3)" fill="#f24872"/>
    </g>
    <g id="Group_57427" data-name="Group 57427">
      <circle id="Ellipse_4103" data-name="Ellipse 4103" cx="3.3" cy="3.3" r="3.3" transform="translate(105.3 4.8)" fill="#f24872"/>
      <circle id="Ellipse_4104" data-name="Ellipse 4104" cx="3.3" cy="3.3" r="3.3" transform="translate(131.6 93.6)" fill="#f24872"/>
    </g>
    <g id="Group_57428" data-name="Group 57428">
      <circle id="Ellipse_4105" data-name="Ellipse 4105" cx="3.3" cy="3.3" r="3.3" transform="translate(146.4 1.5)" fill="#f24872"/>
      <circle id="Ellipse_4106" data-name="Ellipse 4106" cx="3.3" cy="3.3" r="3.3" transform="translate(90.5 96.9)" fill="#f24872"/>
    </g>
    <path id="Path_102204" data-name="Path 102204" d="M123,67a5.748,5.748,0,0,0,4.3,1.9c3,0,5.5-2.2,5.5-4.9a1.91,1.91,0,0,1,.7-1.4,6.288,6.288,0,0,0,3-5.3,5.77,5.77,0,0,0-1.3-3.7,1.65,1.65,0,0,1,0-2,5.163,5.163,0,0,0,1.2-3.3,5.9,5.9,0,0,0-4.5-5.5,1.759,1.759,0,0,1-1.2-1.9,2.2,2.2,0,0,0,.1-.8,4.374,4.374,0,0,0-4.6-4.1,5,5,0,0,0-3.5,1.4,1.694,1.694,0,0,1-2.3,0,4.826,4.826,0,0,0-3.5-1.4,4.374,4.374,0,0,0-4.6,4.1,2.485,2.485,0,0,0,.1.8,1.548,1.548,0,0,1-1.1,1.9,5.884,5.884,0,0,0-4.5,5.4,5.651,5.651,0,0,0,1.6,3.8,1.694,1.694,0,0,1,0,2.3,5.377,5.377,0,0,0,1.3,8.6,1.561,1.561,0,0,1,.8,1.3,5.291,5.291,0,0,0,5.5,4.6,5.748,5.748,0,0,0,4.3-1.9,1.845,1.845,0,0,1,1.2-.5A2.815,2.815,0,0,1,123,67Z" fill="#ffd566"/>
    <path id="Path_102205" data-name="Path 102205" d="M69.2,52.5A1.538,1.538,0,0,0,70.7,54H95.5v3.5H88.8a1.5,1.5,0,0,0,0,3h6.7V64H81.9a4.817,4.817,0,1,0-4.6,6.3A4.969,4.969,0,0,0,81.9,67H95.5v3.4a6.448,6.448,0,0,0,.3,2,1.593,1.593,0,0,0,1.5,1.2h.4a1.548,1.548,0,0,0,1.1-1.9,5.067,5.067,0,0,1-.2-1.3v-36a5.015,5.015,0,0,1,5-5h36.2a5.853,5.853,0,0,1,1.3.2,1.552,1.552,0,1,0,.8-3,6.929,6.929,0,0,0-2-.3h-3.4V21.7a3.492,3.492,0,0,1,1-2.4L147.6,9.2a5.374,5.374,0,0,0,2.1.5,4.938,4.938,0,0,0,3.4-1.4,4.769,4.769,0,0,0,0-6.8,4.769,4.769,0,0,0-6.8,0,4.889,4.889,0,0,0-.9,5.6L135.3,17.2a6.42,6.42,0,0,0-1.9,4.6v4.6h-3.5V19.7a1.5,1.5,0,0,0-3,0v6.7h-3.5V1.5a1.5,1.5,0,0,0-3,0V26.3h-3.5V19.6a1.5,1.5,0,1,0-3,0v6.7h-3.5V12.7a4.817,4.817,0,1,0-6.3-4.6,4.969,4.969,0,0,0,3.3,4.6V26.3H104a8.066,8.066,0,0,0-8.1,8.1v3.4H91.3a3.492,3.492,0,0,1-2.4-1L78.4,26.7a5.374,5.374,0,0,0,.5-2.1,4.808,4.808,0,1,0-4.8,4.8,4.648,4.648,0,0,0,2.1-.5L86.3,39a6.42,6.42,0,0,0,4.6,1.9h4.6v3.5H88.8a1.5,1.5,0,0,0,0,3h6.7V51H70.8A1.561,1.561,0,0,0,69.2,52.5Zm6.6-27.9a1.656,1.656,0,0,1-.5,1.2h0a1.845,1.845,0,0,1-1.2.5,1.656,1.656,0,0,1-1.2-.5,1.7,1.7,0,0,1,1.2-2.9,1.656,1.656,0,0,1,1.2.5A1.5,1.5,0,0,1,75.8,24.6ZM110.3,8.1a1.7,1.7,0,1,1-3.4,0,1.752,1.752,0,0,1,1.7-1.7A1.685,1.685,0,0,1,110.3,8.1Zm38.2-2h0a1.751,1.751,0,0,1,0-2.5,1.69,1.69,0,0,1,2.4,0,1.751,1.751,0,0,1,0,2.5A1.824,1.824,0,0,1,148.5,6.1ZM79.1,65.7a1.685,1.685,0,0,1-1.7,1.7,1.752,1.752,0,0,1-1.7-1.7A1.685,1.685,0,0,1,77.4,64,1.626,1.626,0,0,1,79.1,65.7Z"/>
    <path id="Path_102206" data-name="Path 102206" d="M90.4,96.8a4.769,4.769,0,0,0,0,6.8,4.829,4.829,0,0,0,6.8,0,4.889,4.889,0,0,0,.9-5.6l10.1-10.1a6.42,6.42,0,0,0,1.9-4.6V78.7h3.5v6.7a1.5,1.5,0,0,0,3,0V78.7h3.5v24.8a1.5,1.5,0,0,0,3,0V78.7h3.5v6.7a1.5,1.5,0,0,0,3,0V78.7h3.5V92.3a4.823,4.823,0,0,0,1.5,9.4,4.867,4.867,0,0,0,4.8-4.8,4.969,4.969,0,0,0-3.3-4.6V78.7h3.4a8.066,8.066,0,0,0,8.1-8.1V67.2h4.6a3.492,3.492,0,0,1,2.4,1l10.1,10.1a5.374,5.374,0,0,0-.5,2.1,4.808,4.808,0,1,0,4.8-4.8,4.648,4.648,0,0,0-2.1.5L157.2,66a6.42,6.42,0,0,0-4.6-1.9H148V60.6h6.7a1.5,1.5,0,0,0,0-3H148V54h24.8a1.5,1.5,0,0,0,0-3H148V47.5h6.7a1.5,1.5,0,0,0,0-3H148V41h13.6a4.817,4.817,0,1,0,4.6-6.3,4.969,4.969,0,0,0-4.6,3.3H148V34.6a6.448,6.448,0,0,0-.3-2,1.552,1.552,0,0,0-3,.8,5.066,5.066,0,0,1,.2,1.3V70.9a5.015,5.015,0,0,1-5,5H103.7a5.853,5.853,0,0,1-1.3-.2,1.552,1.552,0,0,0-.8,3,6.929,6.929,0,0,0,2,.3H107v4.6a3.492,3.492,0,0,1-1,2.4L95.9,95.9A4.736,4.736,0,0,0,90.4,96.8Zm74-57.5a1.685,1.685,0,0,1,1.7-1.7,1.752,1.752,0,0,1,1.7,1.7,1.7,1.7,0,1,1-3.4,0Zm3.3,41.1a1.656,1.656,0,0,1,.5-1.2h0a1.7,1.7,0,0,1,2.9,1.2,1.656,1.656,0,0,1-.5,1.2,1.69,1.69,0,0,1-2.4,0A1.5,1.5,0,0,1,167.7,80.4ZM133.1,96.9a1.685,1.685,0,0,1,1.7-1.7,1.7,1.7,0,0,1,0,3.4A1.685,1.685,0,0,1,133.1,96.9Zm-40.5,2a1.69,1.69,0,0,1,2.4,0,1.768,1.768,0,0,1-2.5,2.5A1.85,1.85,0,0,1,92.6,98.9Z"/>
    <path id="Path_102207" data-name="Path 102207" d="M138.1,57.4a8.071,8.071,0,0,0-1.6-4.7,6.642,6.642,0,0,0,1.6-4.4,7.429,7.429,0,0,0-5.7-7,5.019,5.019,0,0,0,.2-1.2c0-3.1-2.8-5.6-6.2-5.6a6.253,6.253,0,0,0-4.6,1.9,6.253,6.253,0,0,0-4.6-1.9c-3.4,0-6.2,2.5-6.2,5.6a5.019,5.019,0,0,0,.2,1.2,7.429,7.429,0,0,0-5.7,7,7.067,7.067,0,0,0,2.1,4.9,6.662,6.662,0,0,0-2.1,4.9,7.317,7.317,0,0,0,3.7,6.2c.2,3.4,3.3,6.1,7.1,6.1a7.322,7.322,0,0,0,5.5-2.5,7.322,7.322,0,0,0,5.5,2.5c3.9,0,7.1-2.9,7.1-6.5h0A7.678,7.678,0,0,0,138.1,57.4Zm-3.1-9a4.006,4.006,0,0,1-.8,2.3,8.624,8.624,0,0,0-2.8-1.1,1.53,1.53,0,0,0-.6,3,5.174,5.174,0,0,1,4.3,4.9,4.859,4.859,0,0,1-1.5,3.4l-.9-1.2a1.556,1.556,0,0,0-2.2,2.2,3.212,3.212,0,0,1,1,2.2c0,1.9-1.8,3.4-4,3.4s-4-1.5-4-3.4V60.8a3.592,3.592,0,0,1,2.6-3.2,1.518,1.518,0,0,0-.9-2.9,8.865,8.865,0,0,0-1.7.8V47a1.5,1.5,0,1,0-3,0v2a7.482,7.482,0,0,0-4-1.1,1.5,1.5,0,0,0,0,3c2.2,0,4,1.5,4,3.4V64c0,1.9-1.8,3.4-4,3.4s-4-1.5-4-3.4a3.592,3.592,0,0,1,2.6-3.2,1.518,1.518,0,0,0-.9-2.9,6.981,6.981,0,0,0-4,3.3,3.847,3.847,0,0,1-1.4-2.9,4.114,4.114,0,0,1,2.4-3.6,1.625,1.625,0,0,0,0-2.8,4.114,4.114,0,0,1-2.4-3.6c0-2.3,2.2-4.2,4.9-4.2h0a4.918,4.918,0,0,1,2.1.4,1.523,1.523,0,1,0,1.2-2.8,7.052,7.052,0,0,0-2.5-.6,2.959,2.959,0,0,1-.2-1,3.148,3.148,0,0,1,6.2,0,1.5,1.5,0,1,0,3,0,3.148,3.148,0,0,1,6.2,0,2.09,2.09,0,0,1-.6,1.5h0l-.1.1h0v.1a1.546,1.546,0,0,0,.3,2,1.777,1.777,0,0,0,1,.4h0A4.547,4.547,0,0,1,135,48.4Z"/>
  </g>
  <g id="chico_1_" transform="translate(200.127 1375.117)">
    <g id="Grupo_53406_1_" transform="translate(1.802 1.801)">
      <path id="Trazado_99303_1_" d="M-107.2-1204.9h-60.9a35.5,35.5,0,0,1,23-16.6v-12.9h14.9v12.9A35.5,35.5,0,0,1-107.2-1204.9Z" fill="#ffd566"/>
      <path id="Trazado_99304_1_" d="M-141-1234.4v12.9c-4.4,2.1-8.1,8.2-10.3,16.6h-16.8a35.5,35.5,0,0,1,23-16.6v-12.9Z" fill="#ffc93c"/>
      <path id="Trazado_99305_1_" d="M-130-1226.4h-15.5a3.116,3.116,0,0,1-3.1-3.1c-.3-2.2.4-5,3.1-4.9H-130a3.116,3.116,0,0,1,3.1,3.1C-126.7-1229.1-127.3-1226.3-130-1226.4Z" fill="#b3e59f"/>
      <path id="Trazado_99306_1_" d="M-136.5-1226.4c-2.7-.6-12.4,2-12.2-3.1h0c-1.2-7.5,8-4.3,12.2-4.9C-140.7-1234.4-140.7-1226.3-136.5-1226.4Z" fill="#95d6a4"/>
      <path id="Trazado_99307_1_" d="M-102.1-1262.2v-44.1c.4-11.5-16.1-15.9-21.6-5.8-13.2-22.2-49.5-11.4-48.8,14.2v35.4" fill="#31326f"/>
      <path id="Trazado_99308_1_" d="M-172.5-1262.4v-35.4c-.4-19,20.8-32.4,37.8-23.9-21.6,8.5-13.9,41.9-15.1,59.4h-22.7Z" fill="#21214a"/>
      <g id="Grupo_53405_1_" transform="translate(0 54.115)">
        <path id="Elipse_6_1_" d="M-170.7-1324.3c12.3-.2,12.3,19.2,0,19C-183-1305.1-183-1324.5-170.7-1324.3Z" fill="#ffbd86"/>
        <path id="Elipse_7_1_" d="M-104.6-1324.3c12.3-.2,12.3,19.2,0,19C-117-1305.1-117-1324.5-104.6-1324.3Z" fill="#ffbd86"/>
      </g>
      <path id="Trazado_99309_1_" d="M-109.4-1279v19.1c.1,34.8-56.6,34.8-56.5,0,.6-9.9-4-31.1,11.9-30.9,14.3,5.2,27.7,7.7,36.5-8.2A28.727,28.727,0,0,1-109.4-1279Z" fill="#fed2a4"/>
      <path id="Trazado_99310_1_" d="M-129.2-1234.6c-17.3,4.5-37-6.1-36.7-25.3v-19.4c.2-11,12.7-14.2,20.8-8.5-6.4,4.5-3,21.4-3.8,27.9A25.9,25.9,0,0,0-129.2-1234.6Z" fill="#ffbd86"/>
    </g>
    <g id="Grupo_53407_1_">
      <path id="Trazado_99311_1_" d="M-98.5-1269.3v-35.1c.4-12-15.7-18-23.3-8.9-15.4-21.3-51.4-8.8-50.6,17.3v26.4c-14.7,5.1-6,27.3,8.2,21a28.224,28.224,0,0,0,16.3,16.5c-1.6,3-1,8.1,2.8,9.1v1.8c-1.8.7-5.6.8-4.9,3.5a1.912,1.912,0,0,0,2.3,1.1c4.2-1.7,6.9-.4,6.1-6.2h11.3c-1.7,8.7,10.4,2.4,21.5,17.9H-163a33.159,33.159,0,0,1,9.3-8.6c2-1.2,0-4.3-1.9-3.1-2.9,1.8-16.8,12.9-10.7,15.3h60.9a1.754,1.754,0,0,0,1.5-2.7,37.3,37.3,0,0,0-22.7-17.1v-1.9c3.6-1.2,4-6,2.6-8.9a27.651,27.651,0,0,0,16.5-16.6c13.6,6.3,22.9-15.4,9-20.8Zm-63.1-44.2c10.9-11.1,30-9,38.2,4.2a1.826,1.826,0,0,0,3.1-.1c4.6-8.5,18.5-4.7,18.2,4.9v34.3a10.778,10.778,0,0,0-3.6.4c-.5-3.9,1.6-17.7-3.7-17.9a1.876,1.876,0,0,0-1.2,2.3h0c1.4,3.8,1.4,8.3,1.3,12.3l-2.2,1.2c-2-5.9-11.1-3.9-15.7-4.2a6.986,6.986,0,0,0-6.9,5.9,6.914,6.914,0,0,0-3.5,0,6.91,6.91,0,0,0-6.9-5.9c-4.6.3-13.7-1.7-15.7,4.2l-2.2-1.2c-1.6-9,5.7-17.4,14.8-12.8,10.8,6.2,25.6,2.5,32.1-8.2,1.3,1.2,2.1,4.4,4.3,3.1a1.782,1.782,0,0,0,.5-2.5c-1.5-1.8-4.3-7.7-6.8-4.5a20.594,20.594,0,0,1-28.4,8.9c-14.4-6.3-22,5.9-20.1,19.3a10.321,10.321,0,0,0-3-.4c.9-11.9-3.4-34.5,7.4-43.3Zm47,44.3c-.6,2.9,2,12.5-3.3,12.3-2.9-.6-12.8,2-12.7-3.3.6-2.9-2-12.5,3.3-12.3C-124.3-1271.9-114.4-1274.6-114.6-1269.2Zm-26.5,0c-.6,2.9,2,12.5-3.3,12.3-2.9-.6-12.8,2-12.7-3.3.6-2.9-2-12.5,3.3-12.3C-150.8-1271.9-140.9-1274.6-141.1-1269.2Zm-27.8,18.1c-12.2-.4-8.4-19.1,3-14.8v4c-2.1-.7-7.4-1.6-7.1,1.8a1.712,1.712,0,0,0,2.2,1.3c1.7-.3,3.8-.3,4.9,1.3a25.1,25.1,0,0,0,.7,5.5A9.584,9.584,0,0,1-168.9-1251.1Zm40.7,20.3c1.8-.1,1.8,4.5,0,4.4h-15.5a1.324,1.324,0,0,1-1.3-1.3c0-1.2-.3-3.4,1.6-3.1A48.429,48.429,0,0,0-128.2-1230.8Zm-5.4-3.1c-22.3,1.6-30.9-15.1-28.7-35.1l1.6.9c-.1,5.4-1,15,6.9,14.9,11.5.2,17.5,1.2,16.3-12.9a2.354,2.354,0,0,1,3.3,0c-1.2,14.1,4.8,13.1,16.3,12.9,7.9.1,7.1-9.5,6.9-14.9l1.6-.9C-107.4-1251.8-113.9-1234.3-133.6-1233.9Zm30.8-17.2a7.4,7.4,0,0,1-3.6-.9,34.486,34.486,0,0,0,.7-5.5c1.1-1.5,3.2-1.6,5-1.3a1.915,1.915,0,0,0,2.2-1.3c.3-3.4-5.1-2.5-7.1-1.8v-4c11.2-4.4,14.9,14.3,2.8,14.8Z"/>
      <path id="Elipse_8_1_" d="M-148.1-1269.6c4.1-.1,4.1,8.7,0,8.6C-152.2-1260.9-152.2-1269.7-148.1-1269.6Z"/>
      <path id="Trazado_99312_1_" d="M-123.6-1269.6c-4.1-.1-4.1,8.7,0,8.6C-119.5-1260.9-119.5-1269.7-123.6-1269.6Z"/>
      <path id="Trazado_99313_1_" d="M-154.2-1279.9c-1.7,1.6.9,4.2,2.5,2.5h0a3.744,3.744,0,0,1,5.2,0C-138.7-1275.3-147.1-1286.8-154.2-1279.9Z"/>
      <path id="Trazado_99314_1_" d="M-127.5-1279.9c-1.7,1.6.9,4.2,2.5,2.5,3-3.3,5.3,1.9,7.7,0C-115.1-1282.4-125-1283.4-127.5-1279.9Z"/>
      <path id="Trazado_99315_1_" d="M-130.1-1251.3c-2.8-1.5-4.2,4.2-8.1,1.2-1.4-2.5-5.2-1.7-3.7,1.3h0C-139.6-1243.6-126.9-1245.8-130.1-1251.3Z"/>
    </g>
  </g>
</svg>
