<svg xmlns="http://www.w3.org/2000/svg" width="315" height="209" viewBox="0 0 315 209">
  <g id="t2-ixx6" transform="translate(-1033 -2809)">
    <rect id="Rectangle_5252" data-name="Rectangle 5252" width="315" height="209" transform="translate(1033 2809)" fill="none"/>
    <path id="Path_102107" data-name="Path 102107" d="M281.323,99.021H268.369a11.915,11.915,0,0,1-11.734-12.089h0a11.916,11.916,0,0,1,11.734-12.089h8.154a5.116,5.116,0,0,0,.155-10.229h-19.46a.6.6,0,0,1-.582-.614,12.106,12.106,0,0,0-11.922-12.267H174.469a3.221,3.221,0,0,1-.118-6.441h48.967a6.395,6.395,0,0,0,.175-12.787H82.725a6.395,6.395,0,0,0-.175,12.787h24.044a7,7,0,0,1,.191,14H35.311C20.67,59.289,8.8,71.518,8.8,86.6h0a27.111,27.111,0,0,0,21.58,26.834,4,4,0,0,1,3.152,3.975v2.229a4,4,0,0,1-3.94,4.059h0c-10.772,0-19.5,9-19.5,20.1h0c0,11.1,8.733,20.094,19.5,20.094h.07a5.953,5.953,0,0,1,5.862,6.039v.015a6.2,6.2,0,0,1-5.541,6.221,6.206,6.206,0,0,0-1.436.277,15.632,15.632,0,0,0,5.025,30.254H257.9a15.535,15.535,0,0,0,15.416-14.326c.005-.072.011-.145.015-.216a7.371,7.371,0,0,1,7.23-7.053h2.78a12.744,12.744,0,0,0,12.55-12.929h0c0-5.384-4.213-9.838-9.257-11.7a7.912,7.912,0,0,1-5.2-7.421v-.373a8.561,8.561,0,0,1,6.109-8.234A23.08,23.08,0,0,0,303.8,122.18h0C303.8,109.39,293.736,99.021,281.323,99.021Z" transform="translate(1033.7 2793.417)" fill="#9ddfd3"/>
    <g id="Group_57321" data-name="Group 57321" transform="translate(1093 2815.909)">
      <g id="Group_57319" data-name="Group 57319" transform="translate(2.865 2.956)">
        <g id="Group_57318" data-name="Group 57318">
          <g id="Group_57312" data-name="Group 57312" transform="translate(102.067)">
            <path id="Path_102039" data-name="Path 102039" d="M350.494,7.591H286.7a11.99,11.99,0,0,0-11.99,11.99v74.4a11.99,11.99,0,0,0,11.99,11.99h19.837v19.258L325.8,105.973h24.7a11.99,11.99,0,0,0,11.99-11.99v-74.4a11.99,11.99,0,0,0-11.99-11.99Z" transform="translate(-274.712 -7.591)" fill="#f2fff9"/>
            <g id="Group_57311" data-name="Group 57311" transform="translate(60.504)">
              <path id="Path_102040" data-name="Path 102040" d="M448.389,7.591H433.11a11.99,11.99,0,0,1,11.99,11.99v74.4a11.99,11.99,0,0,1-11.99,11.99h15.279a11.99,11.99,0,0,0,11.99-11.99v-74.4A11.99,11.99,0,0,0,448.389,7.591Z" transform="translate(-433.11 -7.591)" fill="#dbf6e9"/>
            </g>
          </g>
          <g id="Group_57317" data-name="Group 57317" transform="translate(0 9.6)">
            <path id="Path_102041" data-name="Path 102041" d="M117.6,398.908H13.317V385.73a52.139,52.139,0,1,1,104.278,0Z" transform="translate(-11.095 -218.668)" fill="#f3f9ff"/>
            <path id="Path_102042" data-name="Path 102042" d="M106.474,381.525h33.251v47.008H106.474Z" transform="translate(-68.669 -248.293)" fill="#cc3d60"/>
            <path id="Path_102043" data-name="Path 102043" d="M72.076,403.389H63.04L50.817,376.651h9.931l-5.6-26.388a50.319,50.319,0,0,1,16.93-9.422Z" transform="translate(-34.271 -223.149)" fill="#dbf6e9"/>
            <path id="Path_102044" data-name="Path 102044" d="M193.643,403.389h9.036L214.9,376.651h-9.931l5.6-26.388a50.319,50.319,0,0,0-16.93-9.422v62.548Z" transform="translate(-122.542 -223.149)" fill="#dbf6e9"/>
            <g id="Group_57316" data-name="Group 57316">
              <path id="Path_102045" data-name="Path 102045" d="M139.725,327.724a32.779,32.779,0,0,1-33.251,0V294.473h33.251Z" transform="translate(-68.669 -194.492)" fill="#ffe7db"/>
              <g id="Group_57315" data-name="Group 57315">
                <path id="Path_102046" data-name="Path 102046" d="M95.042,143.827H28.68A21.18,21.18,0,0,1,7.5,122.647V87.085a54.361,54.361,0,1,1,108.722,0v35.562a21.18,21.18,0,0,1-21.18,21.18Z" transform="translate(-7.5 -32.724)" fill="#31326f"/>
                <path id="Path_102047" data-name="Path 102047" d="M137.456,32.724a54.771,54.771,0,0,0-7.639.537,54.37,54.37,0,0,1,46.722,53.824v35.562a21.18,21.18,0,0,1-21.18,21.18h15.279a21.18,21.18,0,0,0,21.18-21.18V87.085a54.361,54.361,0,0,0-54.361-54.361Z" transform="translate(-83.095 -32.724)" fill="#21214a"/>
                <g id="Group_57313" data-name="Group 57313" transform="translate(12.869 37.382)">
                  <path id="Path_102048" data-name="Path 102048" d="M105.6,130.591c-14.9,20.626-39.725,19.1-39.725,19.1V137.466c-7.541,9.35-19.843,11.317-24.685,11.73v24.731a41.492,41.492,0,0,0,82.984,0V148.483c-16.029-1.023-18.574-17.892-18.574-17.892Z" transform="translate(-41.191 -130.591)" fill="#fed2a4"/>
                </g>
                <g id="Group_57314" data-name="Group 57314" transform="translate(46.653 37.382)">
                  <path id="Path_102049" data-name="Path 102049" d="M160.263,130.591a44.064,44.064,0,0,1-10.686,10.5s4.135,10.321,13.981,12.743v20.1c0,20.03-14.822,37.123-33.921,40.756a41.533,41.533,0,0,0,49.2-40.756V148.483c-16.029-1.023-18.574-17.892-18.574-17.892Z" transform="translate(-129.637 -130.591)" fill="#ffbd86"/>
                </g>
              </g>
              <path id="Path_102050" data-name="Path 102050" d="M129.012,307.452a16.943,16.943,0,0,1-12.02-4.971,2.865,2.865,0,1,1,4.052-4.051,11.281,11.281,0,0,0,15.936,0,2.865,2.865,0,1,1,4.051,4.052A16.945,16.945,0,0,1,129.012,307.452Z" transform="translate(-74.651 -196.419)" fill="#f0c2ad"/>
            </g>
          </g>
        </g>
        <ellipse id="Ellipse_4094" data-name="Ellipse 4094" cx="6.443" cy="6.476" rx="6.443" ry="6.476" transform="translate(117.798 47.305) rotate(-44.676)" fill="#9ddfd3"/>
        <ellipse id="Ellipse_4095" data-name="Ellipse 4095" cx="6.443" cy="6.476" rx="6.443" ry="6.476" transform="translate(155.769 40.109) rotate(-44.676)" fill="#cc3d60"/>
        <ellipse id="Ellipse_4096" data-name="Ellipse 4096" cx="6.443" cy="6.476" rx="6.443" ry="6.476" transform="translate(136.772 22.758) rotate(-44.676)" fill="#ffc93c"/>
      </g>
      <g id="Group_57320" data-name="Group 57320" transform="translate(0 0.091)">
        <path id="Path_102051" data-name="Path 102051" d="M189.841,80.771v8.576a9.136,9.136,0,0,1-9.125,9.125h-24.7a2.866,2.866,0,0,0-2.026.839l-14.368,14.368V101.337a2.865,2.865,0,0,0-2.865-2.865H116.923a9.12,9.12,0,0,1-2.47-.339V66.916A56.869,56.869,0,0,0,107.8,40.157V14.946a9.136,9.136,0,0,1,9.125-9.125h63.792a9.136,9.136,0,0,1,9.125,9.125v50.93a2.865,2.865,0,1,0,5.73,0V14.946A14.872,14.872,0,0,0,180.715.091H116.922a14.872,14.872,0,0,0-14.855,14.855V31.405A57.2,57.2,0,0,0,0,66.917v35.562a24.072,24.072,0,0,0,24.045,24.045H27.91a44.628,44.628,0,0,0,5,3.821,53.688,53.688,0,0,0-18.042,14.18c-2.292,2.834,2.069,6.553,4.455,3.6.831-1.028,1.718-2.016,2.65-2.972l3.83,18.038H19.411a2.907,2.907,0,0,0-2.605,4.056l12.223,26.738c1.5,3.289,6.748.979,5.211-2.382L23.871,168.923h5.472a2.865,2.865,0,0,0,2.8-3.46l-5.24-24.68a54.186,54.186,0,0,1,10.9-6.413V192.8c0,3.7,5.73,3.7,5.73,0V150.421a35.707,35.707,0,0,0,27.567-.03v42.4c0,3.7,5.73,3.7,5.73,0V134.4a49.06,49.06,0,0,1,10.877,6.489l-5.216,24.569a2.865,2.865,0,0,0,2.8,3.46h5.472L80.4,191.6c-1.5,3.281,3.675,5.74,5.211,2.382l12.223-26.738a2.907,2.907,0,0,0-2.605-4.056H88.832l3.791-17.858a49.85,49.85,0,0,1,4.9,5.912,48.952,48.952,0,0,1,8.982,28.371V192.8c0,3.7,5.73,3.7,5.73,0V179.618a55,55,0,0,0-30.74-49.369,45.484,45.484,0,0,0,4.845-3.725h4.071A24.073,24.073,0,0,0,114.4,103.986a14.955,14.955,0,0,0,2.522.216h16.973V120.6a2.879,2.879,0,0,0,4.891,2.026L157.205,104.2h23.51A14.872,14.872,0,0,0,195.57,89.347V80.771c0-3.7-5.73-3.7-5.73,0ZM71.057,144.1a29.969,29.969,0,0,1-27.522.006v-8.65A44.154,44.154,0,0,0,57.2,137.61h.047a43.48,43.48,0,0,0,13.809-2.243Zm13.361-23.622a38.277,38.277,0,0,1-27.173,11.406H57.2A38.649,38.649,0,0,1,18.6,93.276V71.1c4.859-.7,12.481-2.57,18.956-7.532v5.474A2.864,2.864,0,0,0,40.243,71.9a51.335,51.335,0,0,0,15.2-1.909,49.085,49.085,0,0,0,23.5-14.054,28.314,28.314,0,0,0,2.028,4.055A21.332,21.332,0,0,0,95.854,70.372v22.9a38.275,38.275,0,0,1-11.435,27.2Zm7.45.256a43.706,43.706,0,0,0,9.714-27.455V67.83A2.865,2.865,0,0,0,98.9,64.971C85.426,64.111,83.07,50.1,82.976,49.5a2.887,2.887,0,0,0-5.154-1.241c-10.976,15.2-27.994,17.557-34.538,17.884V56.813a2.885,2.885,0,0,0-5.095-1.8C31.361,63.483,20.041,65.3,15.49,65.69a2.865,2.865,0,0,0-2.621,2.854V93.275a44.118,44.118,0,0,0,9.538,27.442A18.338,18.338,0,0,1,5.73,102.479V66.917a51.5,51.5,0,0,1,102.993,0v35.562h0A18.336,18.336,0,0,1,91.868,120.73Z" transform="translate(0 -0.091)"/>
        <path id="Path_102052" data-name="Path 102052" d="M343.724,114.436a3.086,3.086,0,0,0,2.867-2.863l.019-22.694h16.162a2.865,2.865,0,0,0,2.865-2.865V78.579a9.363,9.363,0,1,0-5.73-.031v4.6H346.616l.019-21.927a9.363,9.363,0,1,0-5.73-.031l-.031,36.148H327.655V85.772a9.363,9.363,0,1,0-5.73-.031V100.2a2.865,2.865,0,0,0,2.865,2.865h16.079l-.007,8.5a2.864,2.864,0,0,0,2.862,2.868ZM359.147,69.7a3.614,3.614,0,1,1,3.614,3.614A3.614,3.614,0,0,1,359.147,69.7ZM340.189,52.331a3.614,3.614,0,1,1,3.614,3.614A3.614,3.614,0,0,1,340.189,52.331ZM324.776,80.538a3.614,3.614,0,1,1,3.614-3.614A3.614,3.614,0,0,1,324.776,80.538Z" transform="translate(-194.972 -26.614)"/>
        <path id="Path_102053" data-name="Path 102053" d="M12.105,419.33a2.864,2.864,0,0,0-3.617,1.825c-3.125,9.493-2.991,19.211-2.862,28.61-.906,6.064,6.861,6.044,5.729-.079-.129-9.338-.25-18.158,2.575-26.74A2.865,2.865,0,0,0,12.105,419.33Z" transform="translate(-3.432 -259.103)"/>
        <path id="Path_102054" data-name="Path 102054" d="M136.981,298.43a11.281,11.281,0,0,1-15.936,0,2.865,2.865,0,1,0-4.052,4.051,17.017,17.017,0,0,0,24.038,0,2.865,2.865,0,1,0-4.051-4.052Z" transform="translate(-71.787 -183.955)"/>
      </g>
    </g>
  </g>
</svg>
