<svg xmlns="http://www.w3.org/2000/svg" width="315" height="209" viewBox="0 0 315 209">
  <g id="t2-ixx1" transform="translate(-1033 -289)">
    <rect id="Rectangle_5247" data-name="Rectangle 5247" width="315" height="209" transform="translate(1033 289)" fill="none"/>
    <path id="Path_102087" data-name="Path 102087" d="M281.323,99.021H268.369a11.915,11.915,0,0,1-11.734-12.089h0a11.916,11.916,0,0,1,11.734-12.089h8.154a5.116,5.116,0,0,0,.155-10.229h-19.46a.6.6,0,0,1-.582-.614,12.106,12.106,0,0,0-11.922-12.267H174.469a3.221,3.221,0,0,1-.118-6.441h48.967a6.395,6.395,0,0,0,.175-12.787H82.725a6.395,6.395,0,0,0-.175,12.787h24.044a7,7,0,0,1,.191,14H35.311C20.67,59.289,8.8,71.518,8.8,86.6h0a27.111,27.111,0,0,0,21.58,26.834,4,4,0,0,1,3.152,3.975v2.229a4,4,0,0,1-3.94,4.059h0c-10.772,0-19.5,9-19.5,20.1h0c0,11.1,8.733,20.094,19.5,20.094h.07a5.953,5.953,0,0,1,5.862,6.039v.015a6.2,6.2,0,0,1-5.541,6.221,6.206,6.206,0,0,0-1.436.277,15.632,15.632,0,0,0,5.025,30.254H257.9a15.535,15.535,0,0,0,15.416-14.326c.005-.072.011-.145.015-.216a7.371,7.371,0,0,1,7.23-7.053h2.78a12.744,12.744,0,0,0,12.55-12.929h0c0-5.384-4.213-9.838-9.257-11.7a7.912,7.912,0,0,1-5.2-7.421v-.373a8.561,8.561,0,0,1,6.109-8.234A23.08,23.08,0,0,0,303.8,122.18h0C303.8,109.39,293.736,99.021,281.323,99.021Z" transform="translate(1033.7 273.417)" fill="#9ddfd3"/>
    <g id="Group_57310" data-name="Group 57310" transform="translate(1090 290)">
      <path id="Path_102001" data-name="Path 102001" d="M230.677,260.2l-43.953-43.953a7.038,7.038,0,1,1,9.953-9.953l-11.318-11.317A7.02,7.02,0,0,1,183.293,190a7.245,7.245,0,0,1,.089-1.126,7.028,7.028,0,0,1,11.261-4.428l-4.307-4.308a7.04,7.04,0,0,1-2.068-4.985,6.726,6.726,0,0,1,.094-1.145,7.041,7.041,0,0,1,11.93-3.825l4.932,4.932a7.038,7.038,0,1,1,9.953-9.953l28.563,28.564.081-.114a12.869,12.869,0,0,1,18.218.014l13.319,13.319a13.67,13.67,0,0,1,4,9.644l.007,8.332a14.707,14.707,0,0,0,4.31,10.388l2.971,2.969-33.971,33.97-3.795-3.8a14.71,14.71,0,0,0-9.44-4.277A13.654,13.654,0,0,1,230.677,260.2Z" transform="translate(-111.949 -95.161)" fill="#fecbaa"/>
      <path id="Path_102002" data-name="Path 102002" d="M354.383,387.194l38.557-38.557a3.253,3.253,0,0,1,4.6,0l13.733,13.731a3.255,3.255,0,0,1,0,4.6l-38.558,38.558a3.255,3.255,0,0,1-4.6,0L354.383,391.8A3.252,3.252,0,0,1,354.383,387.194Z" transform="translate(-215.863 -207.903)" fill="#ffc93c"/>
      <path id="Path_102003" data-name="Path 102003" d="M119.126,260.209l43.953-43.953a7.038,7.038,0,1,0-9.954-9.953l11.318-11.318a7.033,7.033,0,0,0-9.284-10.533l4.308-4.308a7.037,7.037,0,0,0,2.068-4.984,6.709,6.709,0,0,0-.094-1.145,7.011,7.011,0,0,0-5.823-5.8,7.037,7.037,0,0,0-6.106,1.975l-4.932,4.932a7.037,7.037,0,0,0,1.977-6.1,6.965,6.965,0,0,0-1.968-3.856,7.044,7.044,0,0,0-9.96.008l-28.564,28.564-.081-.112a12.871,12.871,0,0,0-18.218.014L74.447,206.953a13.661,13.661,0,0,0-4,9.644l-.009,8.332a14.7,14.7,0,0,1-4.309,10.387l-2.971,2.969,33.97,33.97,3.8-3.8a14.711,14.711,0,0,1,9.44-4.277A13.662,13.662,0,0,0,119.126,260.209Z" transform="translate(-38.574 -95.166)" fill="#fecbaa"/>
      <path id="Path_102004" data-name="Path 102004" d="M65.339,387.2,26.781,348.645a3.252,3.252,0,0,0-4.6,0L8.447,362.378a3.256,3.256,0,0,0,0,4.6l38.559,38.557a3.252,3.252,0,0,0,4.6,0L65.339,391.8A3.255,3.255,0,0,0,65.339,387.2Z" transform="translate(-4.578 -207.908)" fill="#cc3d60"/>
      <path id="Path_102005" data-name="Path 102005" d="M219.548,104.18v62.159a7.038,7.038,0,1,1-14.076,0v16.006a7.033,7.033,0,0,1-14.012.883v6.093a7.035,7.035,0,0,1-2.063,4.985,6.576,6.576,0,0,1-.876.743,7.04,7.04,0,0,1-11.14-5.729v-6.976a7.037,7.037,0,1,1-14.075,0v-40.4l-.137.024A12.873,12.873,0,0,1,150.3,129.081V110.245a13.67,13.67,0,0,1,3.99-9.65l5.886-5.9a14.708,14.708,0,0,0,4.3-10.394v-4.2H212.51v5.367a14.722,14.722,0,0,0,3.651,9.7A13.654,13.654,0,0,1,219.548,104.18Z" transform="translate(-91.797 -45.262)" fill="#fedfc5"/>
      <path id="Path_102006" data-name="Path 102006" d="M212,206.3a7.044,7.044,0,0,0-9.96.007l11.318-11.318a7.033,7.033,0,0,0-9.284-10.533l4.308-4.308a7.035,7.035,0,0,0,2.066-4.984,6.556,6.556,0,0,0-.094-1.145,7.041,7.041,0,0,0-11.928-3.827l-4.932,4.932a7.036,7.036,0,0,0,1.975-6.1,6.965,6.965,0,0,0-1.968-3.856,7.044,7.044,0,0,0-9.96.008l-28.564,28.564-.081-.112a12.8,12.8,0,0,0-4.974-3.091,12.934,12.934,0,0,0-6.682-.412,18.887,18.887,0,0,0,9.916,7.5v35.419a12.891,12.891,0,0,0,15.391,12.642,12.9,12.9,0,0,0,7.467,6.555l35.977-35.978A7.036,7.036,0,0,0,212,206.3Z" transform="translate(-87.485 -95.497)" fill="#ffae85"/>
      <path id="Path_102007" data-name="Path 102007" d="M245.528,217.026V192.168a12.911,12.911,0,0,0-1.72,1.444l-.079.112-28.565-28.564a7.038,7.038,0,1,0-9.953,9.953l-4.932-4.932a7.034,7.034,0,0,0-11.929,3.827,6.751,6.751,0,0,0-.093,1.145,7.03,7.03,0,0,0,2.068,4.984l4.307,4.308a7.034,7.034,0,0,0-9.285,10.533L196.666,206.3a7.037,7.037,0,1,0-9.951,9.953l29.445,29.445a12.914,12.914,0,0,0,2.419.227,12.882,12.882,0,0,0,12.875-12.887V229.86q.595.055,1.2.055A12.9,12.9,0,0,0,245.528,217.026Z" transform="translate(-111.942 -95.518)" fill="#ffae85"/>
      <path id="Path_102008" data-name="Path 102008" d="M219.548,104.18v62.159a7.04,7.04,0,0,1-7.038,7.049c-.105,0-.218,0-.332-.007a6.963,6.963,0,0,1-3.778-1.323s0,0-.009,0a7.034,7.034,0,0,1-2.919-5.714v16.006a7.033,7.033,0,0,1-14.012.883v6.093a7.035,7.035,0,0,1-2.063,4.985,6.576,6.576,0,0,1-.876.743,7.04,7.04,0,0,1-11.14-5.729v-6.976a7.037,7.037,0,1,1-14.075,0v-40.4l-.137.024A12.873,12.873,0,0,1,150.3,129.081V110.245a13.67,13.67,0,0,1,3.99-9.65l5.886-5.9a14.732,14.732,0,0,0,4.3-10.394v-4.2H212.51v5.367a13.262,13.262,0,0,0,.464,3.632,14.623,14.623,0,0,0,3.187,6.068A13.765,13.765,0,0,1,219.548,104.18Z" transform="translate(-91.797 -45.262)" fill="#fedfc5"/>
      <path id="Path_102009" data-name="Path 102009" d="M240.756,104.18v62.159a7.04,7.04,0,0,1-7.038,7.049c-.105,0-.218,0-.332-.007a6.963,6.963,0,0,1-3.778-1.323l.12-59.9a9.174,9.174,0,0,0-.234-1.662c-2.685-13.082-13.728-21.849-27.084-21.849H185.02a14.659,14.659,0,0,0,.657-4.344v-4.2h48.041v5.367a13.264,13.264,0,0,0,.464,3.632,14.623,14.623,0,0,0,3.187,6.068A13.765,13.765,0,0,1,240.756,104.18Z" transform="translate(-113.004 -45.262)" fill="#fecbaa"/>
      <path id="Path_102010" data-name="Path 102010" d="M227.482,39.427h-54.53a3.253,3.253,0,0,1-3.252-3.254V16.754a3.253,3.253,0,0,1,3.252-3.254h54.53a3.253,3.253,0,0,1,3.252,3.254V36.173A3.253,3.253,0,0,1,227.482,39.427Z" transform="translate(-103.647 -4.581)" fill="#9ddfd3"/>
      <path id="Path_102011" data-name="Path 102011" d="M204.858,453.8l-.585,2.86.564-2.863a2.919,2.919,0,1,0-1.128,5.728l.053.011a3,3,0,0,0,.552.053,2.92,2.92,0,0,0,.544-5.788Z" transform="translate(-122.98 -272.676)"/>
      <path id="Path_102012" data-name="Path 102012" d="M263.577,456.272l.29,2.9-.3-2.9a2.919,2.919,0,0,0,.295,5.823c.1,0,.2-.006.3-.015l.081-.009a2.92,2.92,0,0,0-.669-5.8Z" transform="translate(-159.378 -274.215)"/>
      <path id="Path_102013" data-name="Path 102013" d="M234.173,457.236l-.042,0a2.9,2.9,0,0,0-3.026,2.787,2.936,2.936,0,0,0,2.8,3.047c.046,0,.09,0,.135,0a2.919,2.919,0,0,0,.129-5.835Z" transform="translate(-141.149 -274.811)"/>
      <path id="Path_102014" data-name="Path 102014" d="M176.5,445.975l-.037-.014a2.9,2.9,0,0,0-3.716,1.767,2.928,2.928,0,1,0,3.752-1.753Z" transform="translate(-105.404 -267.823)"/>
      <path id="Path_102015" data-name="Path 102015" d="M292.553,450.9l.719,2.83-.728-2.827A2.919,2.919,0,1,0,294,456.554l.077-.02a2.92,2.92,0,0,0-1.525-5.636Z" transform="translate(-177.338 -270.885)"/>
      <path id="Path_102016" data-name="Path 102016" d="M320.354,441.2l1.157,2.679-1.166-2.676a2.919,2.919,0,1,0,2.331,5.353l.072-.032a2.919,2.919,0,0,0-2.393-5.325Z" transform="translate(-194.585 -264.868)"/>
      <path id="Path_102017" data-name="Path 102017" d="M149.409,90.532a2.92,2.92,0,1,0-1.364-5.5l-.035.018a2.915,2.915,0,0,0,1.4,5.48Z" transform="translate(-89.464 -48.061)"/>
      <path id="Path_102018" data-name="Path 102018" d="M64.8,174.775a2.918,2.918,0,0,0,3.943-1.23l.052-.1a2.92,2.92,0,1,0-3.994,1.332Z" transform="translate(-38.623 -99.433)"/>
      <path id="Path_102019" data-name="Path 102019" d="M53.581,202.7a2.916,2.916,0,0,0,3.7-1.829l.038-.116a2.92,2.92,0,1,0-3.739,1.945Z" transform="translate(-31.513 -116.336)"/>
      <path id="Path_102020" data-name="Path 102020" d="M80.165,148.9a2.917,2.917,0,0,0,4.078-.643l.038-.052a2.919,2.919,0,0,0-4.75-3.4l2.352,1.73-2.361-1.718A2.919,2.919,0,0,0,80.165,148.9Z" transform="translate(-48.228 -83.817)"/>
      <path id="Path_102021" data-name="Path 102021" d="M123.965,106.69a2.932,2.932,0,1,0-1.691-5.3l-.073.053a2.922,2.922,0,0,0,1.764,5.252Z" transform="translate(-73.93 -57.76)"/>
      <path id="Path_102022" data-name="Path 102022" d="M49.778,319.437a2.916,2.916,0,1,0-.038-.128Z" transform="translate(-30.316 -188.604)"/>
      <path id="Path_102023" data-name="Path 102023" d="M101.31,126.468a2.929,2.929,0,1,0-2.039-5.005l-.049.049a2.917,2.917,0,0,0,2.088,4.956Z" transform="translate(-60.093 -69.813)"/>
      <path id="Path_102024" data-name="Path 102024" d="M49.164,288.737a2.92,2.92,0,0,0-5.795.722l.017.117a2.914,2.914,0,0,0,2.883,2.491,2.976,2.976,0,0,0,.427-.032A2.922,2.922,0,0,0,49.164,288.737Z" transform="translate(-26.476 -170.679)"/>
      <path id="Path_102025" data-name="Path 102025" d="M44.423,262.026h.088a2.919,2.919,0,0,0,2.916-2.834l0-.125a2.92,2.92,0,1,0-3.008,2.957Z" transform="translate(-25.403 -152.377)"/>
      <path id="Path_102026" data-name="Path 102026" d="M46.737,232.016a2.976,2.976,0,0,0,.518.046,2.923,2.923,0,0,0,2.871-2.405c.007-.042.014-.085.02-.128a2.92,2.92,0,1,0-3.409,2.487Z" transform="translate(-27.076 -134.124)"/>
      <path id="Path_102027" data-name="Path 102027" d="M403.454,152.364a2.919,2.919,0,0,0,4.806-3.315l-2.426,1.624,2.417-1.638a2.92,2.92,0,0,0-4.833,3.277Z" transform="translate(-246.087 -86.349)"/>
      <path id="Path_102028" data-name="Path 102028" d="M438.533,235.042a2.918,2.918,0,0,0-2.574,3.228l.015.126a2.921,2.921,0,0,0,2.887,2.506,2.968,2.968,0,0,0,.417-.029,2.94,2.94,0,0,0-.745-5.831Z" transform="translate(-266.258 -139.509)"/>
      <path id="Path_102029" data-name="Path 102029" d="M429.758,208.031l.013.038a2.919,2.919,0,0,0,2.8,2.1,2.874,2.874,0,0,0,.824-.12,2.919,2.919,0,0,0,1.978-3.625l-.012-.038a2.919,2.919,0,0,0-5.6,1.648Z" transform="translate(-262.41 -120.785)"/>
      <path id="Path_102030" data-name="Path 102030" d="M418.851,179.2a2.934,2.934,0,0,0,2.633,1.639,2.878,2.878,0,0,0,1.28-.3,2.909,2.909,0,0,0,1.333-3.9l-2.646,1.233,2.643-1.239a2.919,2.919,0,0,0-5.287,2.478Z" transform="translate(-255.626 -102.92)"/>
      <path id="Path_102031" data-name="Path 102031" d="M384.057,128.343a2.942,2.942,0,1,0-.088-.093Z" transform="translate(-234.043 -71.484)"/>
      <path id="Path_102032" data-name="Path 102032" d="M440.322,266.385a2.938,2.938,0,0,0-.25,5.869c.057,0,.11,0,.166,0a2.92,2.92,0,0,0,2.912-2.758l0-.12A2.915,2.915,0,0,0,440.322,266.385Z" transform="translate(-267.099 -158.612)"/>
      <path id="Path_102033" data-name="Path 102033" d="M335.069,90.75l.07.038a2.908,2.908,0,0,0,3.932-1.2,2.929,2.929,0,0,0-1.186-3.952l-1.413,2.555,1.4-2.56a2.919,2.919,0,1,0-2.807,5.119Z" transform="translate(-203.723 -48.416)"/>
      <path id="Path_102034" data-name="Path 102034" d="M361.024,107.582l.046.035a2.92,2.92,0,0,0,3.529-4.652l-.02-.014a2.919,2.919,0,1,0-3.555,4.631Z" transform="translate(-219.804 -58.689)"/>
      <path id="Path_102035" data-name="Path 102035" d="M197.485,152.134l-13.7-13.783a6.147,6.147,0,0,0-8.729,0l-.318.319-.9-.9a11.834,11.834,0,0,1-2.556-3.839,2.882,2.882,0,0,0-.208-.543,11.893,11.893,0,0,1-.68-3.981v-3.9a2.914,2.914,0,0,0,4.233-2.064A2.931,2.931,0,0,0,172.333,120a2.9,2.9,0,0,0-1.96.3,16.557,16.557,0,0,0-4.825-11.022L152.254,95.9a15.726,15.726,0,0,0-20.17-1.818l-1.411-1.424V59.133a16.681,16.681,0,0,0-4.113-10.976,11.858,11.858,0,0,1-2.925-7.807V37.894h.2a6.192,6.192,0,0,0,6.172-6.2V12.2A6.192,6.192,0,0,0,123.835,6H69.3a6.192,6.192,0,0,0-6.172,6.2V31.7a6.192,6.192,0,0,0,6.172,6.2h.45v1.285a11.784,11.784,0,0,1-3.445,8.364l-5.886,5.92a16.57,16.57,0,0,0-4.842,11.759v18.91a15.858,15.858,0,0,0,1.7,7.144A15.647,15.647,0,0,0,47.033,95.9L33.739,109.27A16.572,16.572,0,0,0,28.9,121.029V129.4a11.781,11.781,0,0,1-3.444,8.364l-.89.895-.011.009-.316-.319a6.147,6.147,0,0,0-8.729,0L1.8,152.134a6.232,6.232,0,0,0,0,8.766L6.5,165.618a2.909,2.909,0,0,0,4.128,0,2.941,2.941,0,0,0,0-4.146l-4.692-4.72a.341.341,0,0,1,0-.481l13.705-13.784a.326.326,0,0,1,.464,0l2.383,2.4h0L55.02,177.609l3.645,3.666a.341.341,0,0,1,0,.481l-13.7,13.783a.327.327,0,0,1-.466,0l-25.6-25.752a2.91,2.91,0,0,0-4.128,0,2.94,2.94,0,0,0,0,4.146l25.606,25.752a6.148,6.148,0,0,0,8.729,0L62.8,185.9a6.23,6.23,0,0,0,0-8.764l-.149-.15,1.729-1.739a11.71,11.71,0,0,1,7.552-3.438,16.489,16.489,0,0,0,10.629-4.839L95.147,154.3a10.019,10.019,0,0,0,7.225-7.645,9.862,9.862,0,0,0,4.266.966,9.995,9.995,0,0,0,9.957-10.01v-6.96a9.858,9.858,0,0,0,4.119.9,9.993,9.993,0,0,0,9.956-10.01V100.967l8.98,9.06a2.914,2.914,0,0,0,4.13.009,2.94,2.94,0,0,0,.009-4.144L136.3,98.339a9.911,9.911,0,0,1,11.818,1.7l13.295,13.37a10.738,10.738,0,0,1,3.137,7.618V129.4a17.622,17.622,0,0,0,5.15,12.506l.906.911-4.234,4.259-25.61,25.758-1.428-1.437c-.016-.014-.029-.029-.044-.043l-.251-.254a17.546,17.546,0,0,0-11.3-5.145,10.685,10.685,0,0,1-6.885-3.137l-9.592-9.579a2.925,2.925,0,1,0-4.117,4.155l9.586,9.572a16.49,16.49,0,0,0,10.631,4.839,11.716,11.716,0,0,1,7.55,3.436l.142.142a2.751,2.751,0,0,0,.242.244l1.346,1.353-.149.151a6.23,6.23,0,0,0,0,8.764l13.7,13.783a6.15,6.15,0,0,0,8.73,0L197.485,160.9A6.23,6.23,0,0,0,197.485,152.134Zm-25.137-29.145-.055-.009-.532-.109ZM78.426,162.827a10.663,10.663,0,0,1-6.874,3.131A17.547,17.547,0,0,0,60.246,171.1l-1.723,1.733-1.551-1.56c-.02-.02-.039-.041-.059-.06l-28.235-28.4.906-.911a17.622,17.622,0,0,0,5.15-12.506v-8.372a10.731,10.731,0,0,1,3.137-7.618l13.295-13.37A9.91,9.91,0,0,1,63,98.348l-7.5,7.541a2.94,2.94,0,0,0,0,4.145,2.914,2.914,0,0,0,4.129,0l8.957-9.01v36.592a9.994,9.994,0,0,0,9.957,10.01,9.863,9.863,0,0,0,4.321-.992,10.043,10.043,0,0,0,4.948,6.749Zm46.409-41.283a4.119,4.119,0,1,1-8.238,0V88.849a2.919,2.919,0,1,0-5.838,0v48.765a4.115,4.115,0,0,1-8.177.685V88.816a2.95,2.95,0,0,0-5.9.034v48.763a10.042,10.042,0,0,0,.061,1.1v5.907a4.118,4.118,0,1,1-8.236,0V88.781a2.92,2.92,0,1,0-5.84,0v48.832a4.118,4.118,0,1,1-8.236,0V83.091a2.919,2.919,0,1,0-5.838,0V93.176a2.855,2.855,0,0,0-.7.337,10.028,10.028,0,0,1-6.469-9.381V65.222A10.737,10.737,0,0,1,64.556,57.6l5.886-5.92a17.617,17.617,0,0,0,5.151-12.506V37.894h5.869a2.931,2.931,0,0,0,0-5.862H69.3a.335.335,0,0,1-.333-.336V12.2a.335.335,0,0,1,.333-.336h54.529a.335.335,0,0,1,.335.336V31.7a.334.334,0,0,1-.335.336H95.167a2.931,2.931,0,0,0,0,5.862H117.8V40.35a17.74,17.74,0,0,0,4.373,11.674,10.8,10.8,0,0,1,2.665,7.109Zm68.519,35.212L154.791,195.54a.312.312,0,0,1-.233.1.316.316,0,0,1-.233-.1l-13.7-13.783a.341.341,0,0,1,0-.481l2.206-2.219,0,0,22.386-22.514,13.968-14.049a.325.325,0,0,1,.464,0l13.705,13.784A.341.341,0,0,1,193.353,156.756Z" transform="translate(0 0)"/>
      <path id="Path_102036" data-name="Path 102036" d="M196.924,38.805a3.114,3.114,0,1,0,3.109,3.114A3.115,3.115,0,0,0,196.924,38.805Z" transform="translate(-118.377 -20.036)"/>
      <path id="Path_102037" data-name="Path 102037" d="M458.523,380.688a3.114,3.114,0,1,0,3.108,3.114A3.115,3.115,0,0,0,458.523,380.688Z" transform="translate(-278.152 -228.239)"/>
      <path id="Path_102038" data-name="Path 102038" d="M115.229,452.318a3.108,3.108,0,1,0-3.108,3.114A3.114,3.114,0,0,0,115.229,452.318Z" transform="translate(-66.581 -269.908)"/>
    </g>
  </g>
</svg>
