<svg xmlns="http://www.w3.org/2000/svg" width="400" height="350.736" viewBox="0 0 400 350.736">
  <g id="t2-ic2" transform="translate(556.083 -284.882)">
    <rect id="Rectángulo_5151" data-name="Rectángulo 5151" width="400" height="350" transform="translate(-556.083 285.25)" fill="none"/>
    <path id="Trazado_102231" data-name="Trazado 102231" d="M-189.65,391.34H-209c-9.68,0-17.526-8.631-17.526-19.279h0c0-10.648,7.846-19.281,17.526-19.281h12.18a7.8,7.8,0,0,0,7.568-6.946c.605-4.459-2.189-8.613-6.241-9.279a6.716,6.716,0,0,0-1.1-.09h-29.067a.925.925,0,0,1-.87-.972v-.008c-.013-10.811-7.984-19.566-17.812-19.564H-349.258a4.893,4.893,0,0,1-4.748-4.07,5.156,5.156,0,0,1,3.613-6.088,4.256,4.256,0,0,1,.959-.11h73.141c4.608.068,8.586-3.536,9.409-8.524.841-5.558-2.573-10.814-7.626-11.74a8.488,8.488,0,0,0-1.525-.138H-445.661c-4.608-.069-8.587,3.535-9.41,8.522-.837,5.561,2.582,10.814,7.637,11.734a8.425,8.425,0,0,0,1.511.137h35.915c5.044-.074,9.4,3.871,10.3,9.331.918,6.086-2.823,11.838-8.355,12.848a9.236,9.236,0,0,1-1.658.15H-516.486c-21.869,0-39.6,19.5-39.6,43.559h0c0,20.932,13.537,38.9,32.234,42.8a6.305,6.305,0,0,1,4.707,6.34v3.555c0,3.575-2.634,6.474-5.884,6.474h0c-16.091,0-29.134,14.348-29.134,32.048h0c0,17.7,13.043,32.049,29.134,32.049h.1c4.836,0,8.756,4.312,8.756,9.632h0v.024c-.022,5.159-3.606,9.454-8.276,9.921a8.7,8.7,0,0,0-2.145.44c-11.765,4.516-17.974,18.668-13.868,31.61,3.17,9.992,11.752,16.674,21.373,16.641h294.448c11.863,0,22.078-9.84,23.025-22.849.008-.11.016-.231.023-.344.337-6.3,5.065-11.223,10.8-11.249h4.151c10.353,0,18.745-9.232,18.745-20.62h0c0-8.588-6.292-15.69-13.827-18.665a12.6,12.6,0,0,1-7.76-11.836v-.6c.032-6.128,3.757-11.489,9.124-13.132,14.375-4.565,24.273-19.038,24.274-35.5h0C-156.083,407.88-171.11,391.345-189.65,391.34Z" fill="#dbf6e9"/>
    <g id="Group_57468" data-name="Group 57468">
      <path id="Path_102232" data-name="Path 102232" d="M-397.711,330.087v-3.831a4.523,4.523,0,0,0,4.517-4.52,4.521,4.521,0,0,0-4.517-4.516,4.5,4.5,0,0,0-1.831.388,1.919,1.919,0,0,1-1.82-.149,1.915,1.915,0,0,1-.869-1.6l0-.2A10.7,10.7,0,0,0-412.9,304.91a10.684,10.684,0,0,0-10.673,10.67,10.906,10.906,0,0,0,.2,2.073,1.915,1.915,0,0,1-.63,1.816,1.915,1.915,0,0,1-1.888.356,3.154,3.154,0,0,0-1.051-.175,3.306,3.306,0,0,0-3.3,3.3,3.307,3.307,0,0,0,3.3,3.3l3.648,0,0,3.831-3.648,0a7.142,7.142,0,0,1-7.133-7.134,7.144,7.144,0,0,1,6.673-7.118c0-.084,0-.168,0-.253a14.519,14.519,0,0,1,14.5-14.5,14.526,14.526,0,0,1,14.347,12.352,8.416,8.416,0,0,1,.841-.042,8.358,8.358,0,0,1,8.349,8.347A8.36,8.36,0,0,1-397.711,330.087Z"/>
    </g>
    <path id="Path_102233" data-name="Path 102233" d="M-448.212,362.911c.175,0,.346.019.5.028a15.43,15.43,0,0,1-1.013-5.456,15.145,15.145,0,0,1,15.158-15.149,15.024,15.024,0,0,1,6.444,1.445,25.951,25.951,0,0,1,24.858-18.455,25.974,25.974,0,0,1,25.97,25.971c0,.255-.015.5-.015.745h.015a15.136,15.136,0,0,1,15.139,15.144,15.137,15.137,0,0,1-15.139,15.141h-71.919a9.7,9.7,0,0,1-9.69-9.7A9.7,9.7,0,0,1-448.212,362.911Z" fill="#9ddfd3"/>
    <path id="Path_102234" data-name="Path 102234" d="M-252.048,635.618l-14.073-73.931.145-.46,22.761-72.246a95.182,95.182,0,0,0,5.147-30.929A95.456,95.456,0,0,0-333.413,362.7a95.464,95.464,0,0,0-95.359,95.351l-.056,11.987-.093.283-19.685,60.65h23.38l4.878,61.316,46.512-5.564,7.026,48.26-3.79.551-6.49-44.563-46.76,5.594-4.914-61.763h-25.114l21.221-65.379.054-11.381a99.3,99.3,0,0,1,99.19-99.173,99.292,99.292,0,0,1,99.177,99.182,98.9,98.9,0,0,1-5.34,32.125l-22.6,71.741,13.892,72.983Z"/>
    <g id="Group_57473" data-name="Group 57473">
      <g id="Group_57469" data-name="Group 57469">
        <rect id="Rectangle_5266" data-name="Rectangle 5266" width="3.831" height="3.831" transform="translate(-335.337 567.868)"/>
        <rect id="Rectangle_5267" data-name="Rectangle 5267" width="3.831" height="3.831" transform="translate(-335.337 575.813)"/>
        <rect id="Rectangle_5268" data-name="Rectangle 5268" width="3.831" height="3.831" transform="translate(-335.337 583.759)"/>
        <rect id="Rectangle_5269" data-name="Rectangle 5269" width="3.831" height="3.831" transform="translate(-335.337 591.703)"/>
        <rect id="Rectangle_5270" data-name="Rectangle 5270" width="3.831" height="3.831" transform="translate(-335.337 599.648)"/>
        <rect id="Rectangle_5271" data-name="Rectangle 5271" width="3.831" height="3.831" transform="translate(-335.337 607.593)"/>
        <rect id="Rectangle_5272" data-name="Rectangle 5272" width="3.831" height="3.831" transform="translate(-335.337 615.539)"/>
        <rect id="Rectangle_5273" data-name="Rectangle 5273" width="3.831" height="3.831" transform="translate(-335.337 623.483)"/>
        <rect id="Rectangle_5274" data-name="Rectangle 5274" width="3.831" height="3.83" transform="translate(-335.337 631.429)"/>
      </g>
      <path id="Path_102235" data-name="Path 102235" d="M-333.417,403.319a54.745,54.745,0,0,0-54.737,54.743,54.594,54.594,0,0,0,17.846,40.43c.519.45,1.045.9,1.567,1.358a42.49,42.49,0,0,1,13.933,31.5v7.12h42.773v-7.12a42.486,42.486,0,0,1,13.933-31.5c.524-.457,1.045-.908,1.567-1.358a54.605,54.605,0,0,0,17.846-40.43A54.742,54.742,0,0,0-333.417,403.319Z" fill="#ffc93c"/>
      <rect id="Rectangle_5275" data-name="Rectangle 5275" width="16.193" height="8.638" transform="translate(-341.518 561.146)" fill="#9ddfd3"/>
      <path id="Path_102236" data-name="Path 102236" d="M-310.12,563.062h-46.6v-26.5h46.6Zm-42.772-3.832h38.941V540.391h-38.941Z"/>
      <g id="Group_57470" data-name="Group 57470">
        <rect id="Rectangle_5276" data-name="Rectangle 5276" width="50.743" height="3.831" transform="translate(-358.793 536.559)"/>
        <rect id="Rectangle_5277" data-name="Rectangle 5277" width="50.743" height="3.831" transform="translate(-358.793 544.116)"/>
        <rect id="Rectangle_5278" data-name="Rectangle 5278" width="50.743" height="3.831" transform="translate(-358.793 551.674)"/>
        <rect id="Rectangle_5279" data-name="Rectangle 5279" width="50.743" height="3.831" transform="translate(-358.793 559.23)"/>
      </g>
      <path id="Path_102237" data-name="Path 102237" d="M-323.41,571.7h-20.024V559.23h20.024Zm-16.193-3.831h12.362v-4.806H-339.6Z"/>
      <g id="Group_57471" data-name="Group 57471">
        <rect id="Rectangle_5280" data-name="Rectangle 5280" width="3.831" height="50.519" transform="translate(-335.337 487.956)"/>
        <path id="Path_102238" data-name="Path 102238" d="M-330.488,468.21l-5.864-11.73-1.75,3.5h-10.644v-3.831h8.277l4.117-8.232,5.864,11.728,1.747-3.5H-318.1v3.831h-8.276Z"/>
        <path id="Path_102239" data-name="Path 102239" d="M-333.417,491.532l-18.6-29.3,3.235-2.052,15.36,24.2,15.36-24.194,3.235,2.054Z"/>
        <path id="Path_102240" data-name="Path 102240" d="M-352.578,463.809a5.753,5.753,0,0,1-5.747-5.747,5.753,5.753,0,0,1,5.747-5.747,5.754,5.754,0,0,1,5.747,5.747A5.754,5.754,0,0,1-352.578,463.809Zm0-7.663a1.919,1.919,0,0,0-1.916,1.916,1.919,1.919,0,0,0,1.916,1.916,1.918,1.918,0,0,0,1.915-1.916A1.918,1.918,0,0,0-352.578,456.146Z"/>
        <path id="Path_102241" data-name="Path 102241" d="M-314.265,463.809a5.753,5.753,0,0,1-5.747-5.747,5.753,5.753,0,0,1,5.747-5.747,5.753,5.753,0,0,1,5.746,5.747A5.753,5.753,0,0,1-314.265,463.809Zm0-7.663a1.918,1.918,0,0,0-1.916,1.916,1.918,1.918,0,0,0,1.916,1.916,1.918,1.918,0,0,0,1.915-1.916A1.918,1.918,0,0,0-314.265,456.146Z"/>
      </g>
      <g id="Group_57472" data-name="Group 57472">
        <rect id="Rectangle_5281" data-name="Rectangle 5281" width="3.831" height="7.663" transform="translate(-335.337 384.823)"/>
        <rect id="Rectangle_5282" data-name="Rectangle 5282" width="7.663" height="3.832" transform="translate(-321.664 393.521) rotate(-78.004)"/>
        <rect id="Rectangle_5283" data-name="Rectangle 5283" width="7.663" height="3.831" transform="translate(-308.503 397.376) rotate(-66.011)"/>
        <rect id="Rectangle_5284" data-name="Rectangle 5284" width="7.664" height="3.832" transform="translate(-296.432 403.882) rotate(-53.998)"/>
        <rect id="Rectangle_5285" data-name="Rectangle 5285" width="7.663" height="3.831" transform="matrix(0.743, -0.669, 0.669, 0.743, -285.977, 412.756)"/>
        <rect id="Rectangle_5286" data-name="Rectangle 5286" width="7.662" height="3.832" transform="matrix(0.866, -0.501, 0.501, 0.866, -277.595, 423.612)"/>
        <rect id="Rectangle_5287" data-name="Rectangle 5287" width="7.664" height="3.831" transform="translate(-271.655 435.97) rotate(-18.012)"/>
        <rect id="Rectangle_5288" data-name="Rectangle 5288" width="7.664" height="3.831" transform="matrix(0.994, -0.105, 0.105, 0.994, -268.414, 449.295)"/>
        <rect id="Rectangle_5289" data-name="Rectangle 5289" width="3.831" height="7.664" transform="translate(-268.413 466.811) rotate(-84.011)"/>
        <rect id="Rectangle_5290" data-name="Rectangle 5290" width="3.831" height="7.665" transform="translate(-271.655 480.135) rotate(-72.015)"/>
        <rect id="Rectangle_5291" data-name="Rectangle 5291" width="3.831" height="7.664" transform="translate(-277.594 492.495) rotate(-60.017)"/>
        <rect id="Rectangle_5292" data-name="Rectangle 5292" width="3.832" height="7.664" transform="translate(-285.976 503.349) rotate(-48.024)"/>
        <rect id="Rectangle_5293" data-name="Rectangle 5293" width="3.831" height="7.663" transform="matrix(0.809, -0.588, 0.588, 0.809, -296.429, 512.223)"/>
        <rect id="Rectangle_5294" data-name="Rectangle 5294" width="3.832" height="7.662" transform="matrix(0.978, -0.208, 0.208, 0.978, -350.52, 386.823)"/>
        <rect id="Rectangle_5295" data-name="Rectangle 5295" width="3.831" height="7.663" transform="matrix(0.914, -0.407, 0.407, 0.914, -364.956, 391.935)"/>
        <rect id="Rectangle_5296" data-name="Rectangle 5296" width="3.832" height="7.662" transform="matrix(0.809, -0.588, 0.588, 0.809, -378.014, 399.937)"/>
        <rect id="Rectangle_5297" data-name="Rectangle 5297" width="3.832" height="7.663" transform="translate(-389.122 410.479) rotate(-48.014)"/>
        <rect id="Rectangle_5298" data-name="Rectangle 5298" width="3.831" height="7.662" transform="matrix(0.5, -0.866, 0.866, 0.5, -397.796, 423.1)"/>
        <rect id="Rectangle_5299" data-name="Rectangle 5299" width="3.831" height="7.663" transform="translate(-403.656 437.248) rotate(-72.01)"/>
        <rect id="Rectangle_5300" data-name="Rectangle 5300" width="3.831" height="7.662" transform="matrix(0.104, -0.995, 0.995, 0.104, -406.446, 452.305)"/>
        <rect id="Rectangle_5301" data-name="Rectangle 5301" width="7.662" height="3.831" transform="translate(-406.447 463.806) rotate(-6.023)"/>
        <rect id="Rectangle_5302" data-name="Rectangle 5302" width="7.661" height="3.832" transform="translate(-403.655 478.861) rotate(-18.005)"/>
        <rect id="Rectangle_5303" data-name="Rectangle 5303" width="7.661" height="3.831" transform="translate(-397.793 493.009) rotate(-29.998)"/>
        <rect id="Rectangle_5304" data-name="Rectangle 5304" width="7.662" height="3.831" transform="matrix(0.743, -0.669, 0.669, 0.743, -389.117, 505.629)"/>
        <rect id="Rectangle_5305" data-name="Rectangle 5305" width="7.662" height="3.831" transform="matrix(0.588, -0.809, 0.809, 0.588, -378.009, 516.172)"/>
      </g>
    </g>
    <g id="Group_57475" data-name="Group 57475">
      <path id="Path_102242" data-name="Path 102242" d="M-232.851,390.111h-8.774l-1.685-8.39a31.217,31.217,0,0,1-4.015-1.078l-5.648,6.429-7.6-4.387,2.742-8.113a30.392,30.392,0,0,1-2.933-2.931l-8.112,2.743-4.391-7.6,6.428-5.649a30.987,30.987,0,0,1-1.079-4.009l-8.386-1.686v-8.781l8.385-1.669a31.1,31.1,0,0,1,1.082-4.029l-6.43-5.635,4.391-7.609,8.11,2.747a31.231,31.231,0,0,1,2.934-2.932l-2.741-8.119,7.6-4.38,5.652,6.426a31.371,31.371,0,0,1,4.005-1.075l1.682-8.391h8.783l1.674,8.389a31.332,31.332,0,0,1,4.007,1.072l5.66-6.416,7.6,4.374-2.742,8.121a31.8,31.8,0,0,1,2.931,2.931l8.126-2.748,4.366,7.611-6.419,5.64a31.27,31.27,0,0,1,1.078,4.02l8.382,1.673v8.78l-8.384,1.69a31.482,31.482,0,0,1-1.073,4l6.416,5.659-4.366,7.6-8.128-2.745a31.3,31.3,0,0,1-2.93,2.931l2.743,8.114-7.6,4.386-5.657-6.423a31.333,31.333,0,0,1-4.011,1.076Zm-5.636-3.831h2.493l1.579-7.913,1.331-.2a27.314,27.314,0,0,0,5.8-1.553l1.247-.484,5.331,6.053,2.162-1.248-2.585-7.649,1.046-.838a27.328,27.328,0,0,0,4.239-4.24l.838-1.047,7.658,2.587,1.24-2.159-6.049-5.335.482-1.246a27.669,27.669,0,0,0,1.552-5.786l.2-1.324,7.9-1.594v-2.5l-7.9-1.576-.2-1.327a27.454,27.454,0,0,0-1.558-5.813l-.484-1.249,6.056-5.32-1.24-2.162L-215,334.943l-.839-1.043a27.86,27.86,0,0,0-4.246-4.247l-1.042-.839,2.582-7.648-2.162-1.244-5.337,6.049-1.245-.483a27.581,27.581,0,0,0-5.8-1.551l-1.327-.2-1.578-7.908h-2.5l-1.585,7.91-1.325.2a27.685,27.685,0,0,0-5.8,1.554l-1.248.485-5.327-6.058-2.161,1.246,2.584,7.654-1.047.838a27.307,27.307,0,0,0-4.243,4.24l-.839,1.048-7.646-2.59-1.249,2.163,6.061,5.312-.486,1.25a27.309,27.309,0,0,0-1.561,5.818l-.2,1.331-7.909,1.575v2.5l7.913,1.59.2,1.329a27.145,27.145,0,0,0,1.557,5.794l.485,1.248-6.058,5.324,1.249,2.159,7.654-2.588.838,1.051a26.64,26.64,0,0,0,4.234,4.231l1.052.838-2.587,7.655,2.161,1.247,5.322-6.058,1.249.484a27.293,27.293,0,0,0,5.8,1.556l1.329.2Z"/>
      <path id="Path_102243" data-name="Path 102243" d="M-237.236,371.839a20.763,20.763,0,0,1-20.8-20.786,20.773,20.773,0,0,1,20.8-20.8,20.8,20.8,0,0,1,20.8,20.8A20.786,20.786,0,0,1-237.236,371.839Z" fill="#cc3d60"/>
      <g id="Group_57474" data-name="Group 57474">
        <path id="Path_102244" data-name="Path 102244" d="M-237.192,363.358h-.044a12.3,12.3,0,0,1-4.207-.735l1.3-3.6a8.517,8.517,0,0,0,2.9.505Zm4.214-.755-1.323-3.6a8.443,8.443,0,0,0,2.543-1.482l2.473,2.927A12.278,12.278,0,0,1-232.978,362.6Zm-12.171-2.113a12.259,12.259,0,0,1-2.752-3.272l3.316-1.918a8.438,8.438,0,0,0,1.9,2.251Zm18.6-3.321-3.325-1.9a8.416,8.416,0,0,0,1-2.768l3.775.647A12.216,12.216,0,0,1-226.547,357.169Zm-22.819-3.969a12.457,12.457,0,0,1-.187-2.149,12.486,12.486,0,0,1,.181-2.118l3.776.652a8.534,8.534,0,0,0-.126,1.466,8.566,8.566,0,0,0,.13,1.485Zm20.479-3.653a8.4,8.4,0,0,0-1.013-2.76l3.309-1.929a12.2,12.2,0,0,1,1.475,4.015Zm-15.71-2.728-3.32-1.91a12.278,12.278,0,0,1,2.743-3.279l2.467,2.932A8.449,8.449,0,0,0-244.6,346.819Zm12.8-2.281a8.43,8.43,0,0,0-2.554-1.465l1.3-3.605a12.245,12.245,0,0,1,3.71,2.127Zm-8.36-1.452-1.315-3.6a12.3,12.3,0,0,1,4.207-.747l.009,3.832A8.489,8.489,0,0,0-240.161,343.086Z"/>
      </g>
    </g>
    <g id="Group_57476" data-name="Group 57476">
      <path id="Path_102245" data-name="Path 102245" d="M-202.241,452.835h-7.135l-1.947-5.1a18.168,18.168,0,0,1-2.647-1.1l-4.993,2.224L-224,443.818l2.231-4.989a17.907,17.907,0,0,1-1.1-2.649l-5.1-1.945v-7.142l5.1-1.944a18.214,18.214,0,0,1,1.1-2.648L-224,417.512l5.042-5.044,4.99,2.233a17.851,17.851,0,0,1,2.648-1.1l1.947-5.1h7.135l1.947,5.1a17.739,17.739,0,0,1,2.649,1.1l4.991-2.233,5.04,5.044-2.228,4.989a18.248,18.248,0,0,1,1.1,2.647l5.1,1.947v7.14l-5.1,1.945a18.081,18.081,0,0,1-1.1,2.649l2.227,4.989-5.038,5.038-4.994-2.224a18.074,18.074,0,0,1-2.648,1.1Zm-4.5-3.832h1.857l1.7-4.441.949-.251a14.241,14.241,0,0,0,3.538-1.469l.848-.5,4.35,1.938,1.312-1.312-1.94-4.347.495-.849a14.276,14.276,0,0,0,1.471-3.54l.252-.949,4.439-1.693v-1.861l-4.438-1.694-.253-.947a14.449,14.449,0,0,0-1.473-3.546l-.491-.848,1.938-4.343-1.311-1.312-4.355,1.947-.852-.5a13.944,13.944,0,0,0-3.529-1.465l-.95-.25-1.7-4.442h-1.857l-1.7,4.441-.949.251a14.09,14.09,0,0,0-3.533,1.466l-.851.5-4.351-1.946-1.312,1.312,1.943,4.344-.494.849a14.285,14.285,0,0,0-1.471,3.542l-.251.95-4.441,1.693V431.6l4.441,1.694.251.951a14.1,14.1,0,0,0,1.468,3.535l.5.851-1.944,4.347,1.313,1.312,4.347-1.937.847.493a14.428,14.428,0,0,0,3.541,1.471l.949.251Z"/>
      <path id="Path_102246" data-name="Path 102246" d="M-205.807,439.409a8.744,8.744,0,0,1-8.745-8.743,8.748,8.748,0,0,1,8.745-8.746,8.749,8.749,0,0,1,8.744,8.746A8.745,8.745,0,0,1-205.807,439.409Z" fill="#c8ea73"/>
    </g>
    <g id="Group_57481" data-name="Group 57481">
      <g id="Group_57477" data-name="Group 57477">
        <path id="Path_102247" data-name="Path 102247" d="M-501.2,567.115h-3.18v-2.553a10.057,10.057,0,0,1,4.762-8.58l.108-.062c.136-.071.265-.147.393-.226a6.9,6.9,0,0,0,3.262-5.88,6.937,6.937,0,0,0-6.928-6.93,6.937,6.937,0,0,0-6.927,6.93h-3.18a10.12,10.12,0,0,1,10.107-10.11,10.12,10.12,0,0,1,10.108,10.11,10.062,10.062,0,0,1-4.762,8.58c-.179.111-.357.216-.544.315a6.9,6.9,0,0,0-3.219,5.853Z" fill="#f24872"/>
        <rect id="Rectangle_5306" data-name="Rectangle 5306" width="3.18" height="2.981" transform="translate(-504.382 570.097)" fill="#f24872"/>
      </g>
      <g id="Group_57480" data-name="Group 57480">
        <g id="Group_57478" data-name="Group 57478">
          <path id="Path_102248" data-name="Path 102248" d="M-483.5,574.4h-3.18v-1.531a6.663,6.663,0,0,1,3.157-5.687l.09-.053c.078-.042.156-.088.236-.135a3.5,3.5,0,0,0,1.631-2.975,3.525,3.525,0,0,0-3.521-3.521,3.525,3.525,0,0,0-3.52,3.521h-3.18a6.708,6.708,0,0,1,6.7-6.7,6.709,6.709,0,0,1,6.7,6.7,6.671,6.671,0,0,1-3.153,5.688c-.129.078-.236.14-.339.2a3.5,3.5,0,0,0-1.622,2.966Z" fill="#f24872"/>
          <rect id="Rectangle_5307" data-name="Rectangle 5307" width="3.18" height="2.981" transform="translate(-486.684 577.381)" fill="#f24872"/>
        </g>
        <g id="Group_57479" data-name="Group 57479">
          <path id="Path_102249" data-name="Path 102249" d="M-518.892,574.4h-3.18v-1.531a6.663,6.663,0,0,1,3.157-5.687l.111-.063c.058-.031.116-.063.169-.1a3.516,3.516,0,0,0,1.679-3,3.526,3.526,0,0,0-3.522-3.521A3.525,3.525,0,0,0-524,564.017h-3.18a6.709,6.709,0,0,1,6.7-6.7,6.709,6.709,0,0,1,6.7,6.7,6.674,6.674,0,0,1-3.157,5.689c-.1.065-.22.134-.344.2a3.5,3.5,0,0,0-1.615,2.961Z" fill="#f24872"/>
          <rect id="Rectangle_5308" data-name="Rectangle 5308" width="3.18" height="2.981" transform="translate(-522.072 577.381)" fill="#f24872"/>
        </g>
      </g>
    </g>
    <path id="Path_102250" data-name="Path 102250" d="M-467.709,505.755a4.692,4.692,0,0,0-1.558.262,11.879,11.879,0,0,0,.218-2.25,11.614,11.614,0,0,0-11.62-11.62,11.62,11.62,0,0,0-11.629,11.62c0,.086.009.168.009.253a5.935,5.935,0,0,0-2.4-.509,5.937,5.937,0,0,0-5.94,5.939,5.941,5.941,0,0,0,5.94,5.942l26.985,0a4.82,4.82,0,0,0,4.817-4.818A4.82,4.82,0,0,0-467.709,505.755Z" fill="#9ddfd3"/>
    <g id="Group_57482" data-name="Group 57482">
      <path id="Path_102251" data-name="Path 102251" d="M-447.158,456.785h-.009l0-3.831h.005a3.055,3.055,0,0,0,2.172-.9,3.059,3.059,0,0,0,.9-2.179,3.088,3.088,0,0,0-3.083-3.083,3.058,3.058,0,0,0-.842.119,1.916,1.916,0,0,1-1.635-.275,1.918,1.918,0,0,1-.808-1.446,7.313,7.313,0,0,0-7.285-6.844,7.313,7.313,0,0,0-6.021,3.166,1.909,1.909,0,0,1-1.372.818,1.905,1.905,0,0,1-1.516-.508,6.52,6.52,0,0,0-6.323-1.467,1.923,1.923,0,0,1-1.639-.243,1.913,1.913,0,0,1-.836-1.431,13.254,13.254,0,0,0-13.142-12.1,13.2,13.2,0,0,0-13.185,13.188c0,.273.01.54.027.808a1.917,1.917,0,0,1-1.683,2.021,5.194,5.194,0,0,0-4.561,5.156,5.207,5.207,0,0,0,5.2,5.2v3.831a9.043,9.043,0,0,1-9.033-9.032,9.035,9.035,0,0,1,6.228-8.583,17.039,17.039,0,0,1,17.006-16.421,17.126,17.126,0,0,1,16.655,13.523,10.282,10.282,0,0,1,6.3,1.52,11.137,11.137,0,0,1,7.892-3.279,11.16,11.16,0,0,1,10.8,8.45,6.926,6.926,0,0,1,6.68,6.909,6.869,6.869,0,0,1-2.027,4.892A6.866,6.866,0,0,1-447.158,456.785Z"/>
      <path id="Path_102252" data-name="Path 102252" d="M-481.065,474.745v-3.831h23.792a1.809,1.809,0,0,0,1.806-1.807,1.809,1.809,0,0,0-1.806-1.808,1.735,1.735,0,0,0-.573.1,1.914,1.914,0,0,1-1.888-.359,1.916,1.916,0,0,1-.624-1.818,7.233,7.233,0,0,0,.134-1.369,7.07,7.07,0,0,0-7.064-7.062v-3.831A10.907,10.907,0,0,1-456.4,463.535a5.649,5.649,0,0,1,4.762,5.571,5.645,5.645,0,0,1-5.638,5.638Z"/>
      <rect id="Rectangle_5309" data-name="Rectangle 5309" width="19.87" height="3.831" transform="translate(-502.785 452.954)"/>
      <rect id="Rectangle_5310" data-name="Rectangle 5310" width="4.909" height="3.831" transform="translate(-478.027 452.954)"/>
    </g>
    <path id="Path_102253" data-name="Path 102253" d="M-215.046,531.389a14.952,14.952,0,0,1-4.113-1.2l1.588-3.486a11.128,11.128,0,0,0,3.062.893Zm4.276-.005-.543-3.793a11.092,11.092,0,0,0,3.058-.9l1.6,3.483A14.974,14.974,0,0,1-210.77,531.384Zm-11.993-3.509a15.148,15.148,0,0,1-2.809-3.227l3.218-2.082a11.275,11.275,0,0,0,2.1,2.411Zm19.705-.019-2.512-2.893a11.252,11.252,0,0,0,2.092-2.416l3.222,2.074A15.131,15.131,0,0,1-203.058,527.856Zm-24.3-7.1a15.03,15.03,0,0,1-.614-4.237l3.831-.007a11.206,11.206,0,0,0,.458,3.159Zm28.883-.029-3.678-1.079a11.186,11.186,0,0,0,.451-3.16l3.832-.053v.053A15.092,15.092,0,0,1-198.476,520.725Zm-25.222-7.377-3.68-1.07a15.035,15.035,0,0,1,1.772-3.9l3.228,2.064A11.167,11.167,0,0,0-223.7,513.348Zm21.533-.065a11.208,11.208,0,0,0-1.339-2.9l3.214-2.086a15.026,15.026,0,0,1,1.8,3.888Zm-18.125-5.258-2.519-2.888a15.02,15.02,0,0,1,3.594-2.327l1.6,3.479A11.209,11.209,0,0,0-220.29,508.025Zm14.684-.044a11.221,11.221,0,0,0-2.69-1.72l1.582-3.489a15.068,15.068,0,0,1,3.609,2.306Zm-8.948-2.6-.554-3.792a15.216,15.216,0,0,1,2.175-.157h.011a15.1,15.1,0,0,1,2.093.145l-.53,3.8c-.517-.073-1.092-.09-1.573-.109A11.242,11.242,0,0,0-214.554,505.384Z"/>
    <path id="Path_102254" data-name="Path 102254" d="M-186.585,396.679l-.01-3.831a5.728,5.728,0,0,0,2.863-.774l1.927,3.313A9.572,9.572,0,0,1-186.585,396.679Zm-4.788-1.264a9.645,9.645,0,0,1-3.512-3.48l3.306-1.937a5.8,5.8,0,0,0,2.113,2.094Zm13.06-3.531-3.318-1.915a5.748,5.748,0,0,0,.765-2.868l3.832-.091v.091A9.578,9.578,0,0,1-178.313,391.884Zm-14.045-4.737-3.832,0a9.6,9.6,0,0,1,1.25-4.775l3.329,1.895a5.746,5.746,0,0,0-.748,2.792Zm10.692-2.971a5.791,5.791,0,0,0-2.126-2.082l1.888-3.334a9.63,9.63,0,0,1,3.532,3.46Zm-7.857-2.031-1.946-3.3a9.586,9.586,0,0,1,4.772-1.321l.034,3.832A5.74,5.74,0,0,0-189.523,382.145Z"/>
    <g id="Group_57484" data-name="Group 57484">
      <g id="Group_57483" data-name="Group 57483">
        <rect id="Rectangle_5311" data-name="Rectangle 5311" width="3.832" height="4.948" transform="translate(-299.854 295.03) rotate(-45.018)"/>
        <rect id="Rectangle_5312" data-name="Rectangle 5312" width="3.832" height="4.937" transform="translate(-307.298 287.599) rotate(-45.148)"/>
        <rect id="Rectangle_5313" data-name="Rectangle 5313" width="4.937" height="3.832" transform="matrix(0.709, -0.705, 0.705, 0.709, -299.851, 288.364)"/>
        <rect id="Rectangle_5314" data-name="Rectangle 5314" width="4.948" height="3.832" transform="matrix(0.707, -0.707, 0.707, 0.707, -307.301, 295.818)"/>
      </g>
    </g>
    <g id="Group_57486" data-name="Group 57486">
      <g id="Group_57485" data-name="Group 57485">
        <rect id="Rectangle_5315" data-name="Rectangle 5315" width="3.831" height="6.927" transform="matrix(0.707, -0.707, 0.707, 0.707, -183.237, 479.175)"/>
        <rect id="Rectangle_5316" data-name="Rectangle 5316" width="3.831" height="6.911" transform="matrix(0.705, -0.709, 0.709, 0.705, -193.661, 468.77)"/>
        <rect id="Rectangle_5317" data-name="Rectangle 5317" width="6.911" height="3.831" transform="translate(-183.234 470.93) rotate(-44.864)"/>
        <rect id="Rectangle_5318" data-name="Rectangle 5318" width="6.927" height="3.831" transform="translate(-193.664 481.364) rotate(-44.999)"/>
      </g>
    </g>
    <circle id="Ellipse_4107" data-name="Ellipse 4107" cx="4.379" cy="4.379" r="4.379" transform="translate(-183.329 491.747)" fill="#afafaf"/>
    <circle id="Ellipse_4108" data-name="Ellipse 4108" cx="8.21" cy="8.21" r="8.21" transform="translate(-241.261 537.17)" fill="#ffc93c"/>
    <g id="Group_57487" data-name="Group 57487">
      <rect id="Rectangle_5319" data-name="Rectangle 5319" width="28.014" height="3.831" transform="translate(-527.023 467.25)"/>
      <rect id="Rectangle_5320" data-name="Rectangle 5320" width="5.2" height="3.831" transform="translate(-537.595 467.25)"/>
    </g>
    <rect id="Rectangle_5321" data-name="Rectangle 5321" width="6.288" height="3.831" transform="translate(-510.77 493.016)"/>
    <g id="Group_57488" data-name="Group 57488">
      <rect id="Rectangle_5322" data-name="Rectangle 5322" width="5.478" height="3.831" transform="translate(-463.655 322.291)"/>
      <path id="Path_102255" data-name="Path 102255" d="M-440.672,334.286h-35.762a5.1,5.1,0,0,1-5.093-5.09,5.1,5.1,0,0,1,4.073-4.99,9.591,9.591,0,0,1,9.566-9.075v3.831a5.753,5.753,0,0,0-5.747,5.746,6.027,6.027,0,0,0,.111,1.125,1.915,1.915,0,0,1-.632,1.811,1.924,1.924,0,0,1-1.886.355,1.14,1.14,0,0,0-.392-.065A1.262,1.262,0,0,0-477.7,329.2a1.261,1.261,0,0,0,1.261,1.259h35.762Z"/>
    </g>
    <path id="Path_102256" data-name="Path 102256" d="M-480.8,357.06c.01-.164.017-.328.017-.495a8.081,8.081,0,0,0-8.077-8.079,8.079,8.079,0,0,0-8.052,7.413,4.449,4.449,0,0,0-1.321-.2,4.459,4.459,0,0,0-3.064,1.217,4.928,4.928,0,0,0-4.065-2.137,4.931,4.931,0,0,0-4.919,4.621,2.671,2.671,0,0,0-.733-.1,2.673,2.673,0,0,0-2.675,2.673,2.674,2.674,0,0,0,2.675,2.672h29.75a3.8,3.8,0,0,0,3.805-3.806A3.806,3.806,0,0,0-480.8,357.06Z" fill="#fff"/>
    <g id="Group_57490" data-name="Group 57490">
      <path id="Path_102257" data-name="Path 102257" d="M-338.625,343.246A17.857,17.857,0,0,1-353.8,325.5h2.689a15.182,15.182,0,0,0,12.9,15.085Z"/>
      <path id="Path_102258" data-name="Path 102258" d="M-333.042,343.246l-.414-2.657A15.18,15.18,0,0,0-320.561,325.5a15.288,15.288,0,0,0-15.272-15.271v-2.69A17.982,17.982,0,0,1-317.871,325.5,17.856,17.856,0,0,1-333.042,343.246Z"/>
      <g id="Group_57489" data-name="Group 57489">
        <path id="Path_102259" data-name="Path 102259" d="M-340.5,320.864l-7.311-7.308,17.235-17.238,7.307,7.316Z" fill="#9ddfd3"/>
        <path id="Path_102260" data-name="Path 102260" d="M-340.5,322.765l-9.214-9.209,19.137-19.14,9.207,9.218Zm-5.41-9.209,5.409,5.406,15.33-15.329-5.407-5.413Z"/>
        <path id="Path_102261" data-name="Path 102261" d="M-325.1,303.7l-5.555-5.553,5.555-5.554,5.561,5.554Zm-1.751-5.553,1.752,1.752,1.754-1.752L-325.1,296.4Z"/>
        <rect id="Rectangle_5323" data-name="Rectangle 5323" width="5.167" height="2.689" transform="translate(-348.763 319.913) rotate(-45)"/>
      </g>
      <rect id="Rectangle_5324" data-name="Rectangle 5324" width="18.464" height="2.689" transform="translate(-361.681 324.159)"/>
      <path id="Path_102262" data-name="Path 102262" d="M-326,310.058a3.692,3.692,0,0,1-3.7,3.692,3.691,3.691,0,0,1-3.691-3.692,3.692,3.692,0,0,1,3.691-3.692A3.692,3.692,0,0,1-326,310.058Z" fill="#fff"/>
      <path id="Path_102263" data-name="Path 102263" d="M-329.7,315.1a5.042,5.042,0,0,1-5.036-5.037,5.042,5.042,0,0,1,5.036-5.036,5.044,5.044,0,0,1,5.041,5.036A5.044,5.044,0,0,1-329.7,315.1Zm0-7.384a2.35,2.35,0,0,0-2.347,2.347,2.351,2.351,0,0,0,2.347,2.348,2.352,2.352,0,0,0,2.351-2.348A2.351,2.351,0,0,0-329.7,307.711Z"/>
      <path id="Path_102264" data-name="Path 102264" d="M-331.9,349.184h-7.858v-10.2a3.909,3.909,0,0,1,1.151-2.781,3.909,3.909,0,0,1,2.779-1.144,3.9,3.9,0,0,1,2.774,1.141,3.912,3.912,0,0,1,1.154,2.784Zm-5.169-2.69h2.48v-7.515a1.258,1.258,0,0,0-.365-.882,1.291,1.291,0,0,0-1.753,0,1.256,1.256,0,0,0-.362.879Z"/>
      <path id="Path_102265" data-name="Path 102265" d="M-317.871,353.007h-2.689v-3.824h-30.546v3.824H-353.8v-6.513h35.924Z"/>
    </g>
    <g id="Group_57496" data-name="Group 57496">
      <g id="Group_57491" data-name="Group 57491">
        <path id="Path_102266" data-name="Path 102266" d="M-480.168,404.3a16.339,16.339,0,0,0,16.333,16.337A16.334,16.334,0,0,0-447.508,404.3Z" fill="#f24872"/>
        <path id="Path_102267" data-name="Path 102267" d="M-463.835,422.124a17.842,17.842,0,0,1-17.82-17.824,17.79,17.79,0,0,1,12.248-16.9V366.52h11.14v20.875a17.789,17.789,0,0,1,12.246,16.9A17.839,17.839,0,0,1-463.835,422.124Zm-2.6-52.631V389.66l-1.116.287A14.821,14.821,0,0,0-478.681,404.3a14.865,14.865,0,0,0,14.846,14.851A14.863,14.863,0,0,0-448.994,404.3a14.821,14.821,0,0,0-11.13-14.353l-1.116-.287V369.493Z"/>
        <rect id="Rectangle_5325" data-name="Rectangle 5325" width="17.965" height="2.973" transform="translate(-472.821 366.52)"/>
      </g>
      <g id="Group_57493" data-name="Group 57493">
        <g id="Group_57492" data-name="Group 57492">
          <rect id="Rectangle_5326" data-name="Rectangle 5326" width="2.973" height="3.563" transform="matrix(0.707, -0.708, 0.708, 0.707, -454.593, 358.423)"/>
          <rect id="Rectangle_5327" data-name="Rectangle 5327" width="2.974" height="3.553" transform="translate(-459.95 353.066) rotate(-45.113)"/>
          <rect id="Rectangle_5328" data-name="Rectangle 5328" width="3.556" height="2.974" transform="translate(-454.591 353.466) rotate(-44.831)"/>
          <rect id="Rectangle_5329" data-name="Rectangle 5329" width="3.56" height="2.974" transform="matrix(0.707, -0.707, 0.707, 0.707, -459.952, 358.838)"/>
        </g>
      </g>
      <g id="Group_57495" data-name="Group 57495">
        <g id="Group_57494" data-name="Group 57494">
          <rect id="Rectangle_5330" data-name="Rectangle 5330" width="2.974" height="4.993" transform="translate(-475.918 351.106) rotate(-44.93)"/>
          <rect id="Rectangle_5331" data-name="Rectangle 5331" width="2.973" height="4.971" transform="translate(-483.418 343.625) rotate(-45.105)"/>
          <rect id="Rectangle_5332" data-name="Rectangle 5332" width="4.974" height="2.973" transform="translate(-475.914 345.027) rotate(-44.866)"/>
          <rect id="Rectangle_5333" data-name="Rectangle 5333" width="4.99" height="2.974" transform="matrix(0.706, -0.708, 0.708, 0.706, -483.422, 352.541)"/>
        </g>
      </g>
    </g>
    <g id="Group_57497" data-name="Group 57497">
      <path id="Path_102268" data-name="Path 102268" d="M-455.989,605.72a10.921,10.921,0,0,1-7.772-3.22,11.016,11.016,0,0,1,0-15.544,10.929,10.929,0,0,1,7.773-3.218,10.914,10.914,0,0,1,7.768,3.217,11,11,0,0,1,0,15.545A10.9,10.9,0,0,1-455.989,605.72Zm0-18.482a7.449,7.449,0,0,0-5.3,2.192,7.511,7.511,0,0,0,0,10.6,7.441,7.441,0,0,0,5.3,2.194,7.428,7.428,0,0,0,5.292-2.194,7.5,7.5,0,0,0,0-10.6A7.436,7.436,0,0,0-455.989,587.238Z"/>
      <rect id="Rectangle_5334" data-name="Rectangle 5334" width="18.472" height="3.5" transform="translate(-476.824 613.085) rotate(-45)"/>
    </g>
  </g>
</svg>
