<svg xmlns="http://www.w3.org/2000/svg" width="142" height="142.5" viewBox="0 0 142 142.5">
  <g id="t3-i11" transform="translate(-308 -2915.5)">
    <rect id="Rectangle_5192" data-name="Rectangle 5192" width="142" height="142" transform="translate(308 2916)" fill="none"/>
    <g id="Group_57222" data-name="Group 57222" transform="translate(209 2907.5)">
      <g id="Group_57220" data-name="Group 57220" transform="translate(138.29 10.29)">
        <path id="Path_101802" data-name="Path 101802" d="M176,16h45.806V139.677H176Z" transform="translate(-166.839 -16)" fill="#31326f"/>
        <circle id="Ellipse_4068" data-name="Ellipse 4068" cx="16.032" cy="16.032" r="16.032" transform="translate(16.032 45.806)" fill="#ffc93c"/>
        <circle id="Ellipse_4069" data-name="Ellipse 4069" cx="16.032" cy="16.032" r="16.032" transform="translate(16.032 6.871)" fill="#d80027"/>
        <circle id="Ellipse_4070" data-name="Ellipse 4070" cx="16.032" cy="16.032" r="16.032" transform="translate(16.032 84.742)" fill="#c8ea73"/>
        <g id="Group_57219" data-name="Group 57219" transform="translate(0 6.871)">
          <path id="Path_101803" data-name="Path 101803" d="M342.871,72.065H336V40h9.161Z" transform="translate(-281.032 -40)" fill="#202047"/>
          <path id="Path_101804" data-name="Path 101804" d="M342.871,208.065H336V176h9.161Z" transform="translate(-281.032 -137.065)" fill="#202047"/>
          <path id="Path_101805" data-name="Path 101805" d="M342.871,344.065H336V312h9.161Z" transform="translate(-281.032 -234.129)" fill="#202047"/>
          <path id="Path_101806" data-name="Path 101806" d="M146.29,72.065h6.871V40H144Z" transform="translate(-144 -40)" fill="#202047"/>
          <path id="Path_101807" data-name="Path 101807" d="M146.29,208.065h6.871V176H144Z" transform="translate(-144 -137.065)" fill="#202047"/>
          <path id="Path_101808" data-name="Path 101808" d="M146.29,344.065h6.871V312H144Z" transform="translate(-144 -234.129)" fill="#202047"/>
          <path id="Path_101809" data-name="Path 101809" d="M240,448h9.161v13.742H240Z" transform="translate(-212.516 -331.194)" fill="#202047"/>
        </g>
      </g>
      <g id="Group_57221" data-name="Group 57221" transform="translate(136 8)">
        <path id="Path_101810" data-name="Path 101810" d="M210.323,168a18.323,18.323,0,1,0,18.323,18.323A18.323,18.323,0,0,0,210.323,168Zm0,32.065a13.742,13.742,0,1,1,13.742-13.742A13.742,13.742,0,0,1,210.323,200.065Z" transform="translate(-175.968 -122.194)"/>
        <path id="Path_101811" data-name="Path 101811" d="M210.323,32a18.323,18.323,0,1,0,18.323,18.323A18.323,18.323,0,0,0,210.323,32Zm0,32.065a13.742,13.742,0,1,1,13.742-13.742A13.742,13.742,0,0,1,210.323,64.065Z" transform="translate(-175.968 -25.129)"/>
        <path id="Path_101812" data-name="Path 101812" d="M227.452,56A11.465,11.465,0,0,0,216,67.452a2.29,2.29,0,1,0,4.581,0,6.879,6.879,0,0,1,6.871-6.871,2.29,2.29,0,1,0,0-4.581Z" transform="translate(-193.097 -42.258)"/>
        <path id="Path_101813" data-name="Path 101813" d="M227.452,192A11.465,11.465,0,0,0,216,203.452a2.29,2.29,0,1,0,4.581,0,6.879,6.879,0,0,1,6.871-6.871,2.29,2.29,0,1,0,0-4.581Z" transform="translate(-193.097 -139.323)"/>
        <path id="Path_101814" data-name="Path 101814" d="M227.452,328A11.465,11.465,0,0,0,216,339.452a2.29,2.29,0,1,0,4.581,0,6.879,6.879,0,0,1,6.871-6.871,2.29,2.29,0,1,0,0-4.581Z" transform="translate(-193.097 -236.387)"/>
        <path id="Path_101815" data-name="Path 101815" d="M210.323,304a18.323,18.323,0,1,0,18.323,18.323A18.323,18.323,0,0,0,210.323,304Zm0,32.065a13.742,13.742,0,1,1,13.742-13.742A13.742,13.742,0,0,1,210.323,336.065Z" transform="translate(-175.968 -219.258)"/>
        <path id="Path_101816" data-name="Path 101816" d="M200.129,90.452a2.29,2.29,0,0,0,2.285-2.127L204.7,56.26a2.293,2.293,0,0,0-2.128-2.448c-.052,0-.1-.006-.157-.006h-6.871v-2.29h4.581a2.29,2.29,0,0,0,2.285-2.127l2.29-32.065a2.293,2.293,0,0,0-2.128-2.448c-.052,0-.1-.006-.157-.006h-6.871V10.29A2.29,2.29,0,0,0,193.258,8H147.452a2.29,2.29,0,0,0-2.29,2.29v4.581H138.29a2.294,2.294,0,0,0-2.29,2.3c0,.052,0,.1.006.157l2.29,32.065a2.29,2.29,0,0,0,2.285,2.127h4.581v2.29H138.29A2.294,2.294,0,0,0,136,56.1c0,.052,0,.1.006.157l2.29,32.065a2.29,2.29,0,0,0,2.285,2.127h4.581v2.29H138.29a2.294,2.294,0,0,0-2.29,2.3c0,.052,0,.1.006.157l2.29,32.065a2.29,2.29,0,0,0,2.285,2.127h4.581v4.581a2.29,2.29,0,0,0,2.29,2.29h16.032V147.71a2.29,2.29,0,0,0,2.29,2.29h9.161a2.29,2.29,0,0,0,2.29-2.29V136.258h16.032a2.29,2.29,0,0,0,2.29-2.29v-4.581h4.581a2.29,2.29,0,0,0,2.285-2.127L204.7,95.2a2.293,2.293,0,0,0-2.128-2.448c-.052,0-.1-.006-.157-.006h-6.871v-2.29Zm-4.581-71h4.412L198,46.935h-2.448Zm0,38.935h4.412L198,85.871h-2.448Zm-50.387,66.419h-2.448L140.75,97.323h4.412Zm0-38.935h-2.448L140.75,58.387h4.412Zm0-38.935h-2.448L140.75,19.452h4.412Zm27.484,98.484h-4.581v-9.161h4.581Zm18.323-13.742H149.742V12.581h41.226Zm8.992-34.355L198,124.806h-2.448V97.323Z" transform="translate(-136 -8)"/>
      </g>
    </g>
  </g>
</svg>
