<svg id="t3-i7" xmlns="http://www.w3.org/2000/svg" width="164.348" height="175" viewBox="0 0 164.348 175">
  <g id="Group_57288" data-name="Group 57288" transform="translate(2.563 2.563)">
    <path id="Path_101943" data-name="Path 101943" d="M180.408,251.439c-7.7-9.753-13.222-12.585-13.222-12.585H38.2s-5.52,2.832-13.222,12.585A8.839,8.839,0,0,0,27.234,264.4a187.569,187.569,0,0,1,42.41,36.8h66.095a187.576,187.576,0,0,1,42.41-36.8A8.838,8.838,0,0,0,180.408,251.439Z" transform="translate(-23.081 -159.778)" fill="#f24872"/>
    <path id="Path_101944" data-name="Path 101944" d="M79.568,323.667A236.032,236.032,0,0,0,26.2,277.354a11.224,11.224,0,0,1-1.387-1.027,8.837,8.837,0,0,0,2.426,12.736,187.568,187.568,0,0,1,42.41,36.8Z" transform="translate(-23.085 -184.443)" fill="#cc3d60"/>
    <path id="Path_101945" data-name="Path 101945" d="M50.59,77.708a70.208,70.208,0,0,1,140.417,0Z" transform="translate(-41.187 -7.5)" fill="#31326f"/>
    <path id="Path_101946" data-name="Path 101946" d="M127.634,7.834c-2.25-.218-4.53-.334-6.836-.334A70.288,70.288,0,0,0,50.59,77.708H64.262A70.3,70.3,0,0,1,127.634,7.834Z" transform="translate(-41.187 -7.5)" fill="#21214a"/>
    <circle id="Ellipse_4090" data-name="Ellipse 4090" cx="13.826" cy="13.826" r="13.826" transform="translate(124.231 62.432)" fill="#ffbd86"/>
    <path id="Path_101947" data-name="Path 101947" d="M182.7,368.749s27.443,14.214,27.443,46.4H104.988c0-32.186,27.443-46.4,27.443-46.4Z" transform="translate(-76.992 -245.275)" fill="#9ddfd3"/>
    <path id="Path_101948" data-name="Path 101948" d="M140.976,368.748h-8.545s-27.443,14.214-27.443,46.4h8.545C113.533,382.962,140.976,368.748,140.976,368.748Z" transform="translate(-76.992 -245.275)" fill="#87bfb5"/>
    <path id="Path_101949" data-name="Path 101949" d="M190.045,98.331a15.034,15.034,0,0,0-18.4-4.44,67.015,67.015,0,0,1-28.192,6.652,67.013,67.013,0,0,1-28.191-6.652,15.1,15.1,0,0,0-18.514,4.585,58.445,58.445,0,1,0,93.3-.146Z" transform="translate(-63.839 -63.406)" fill="#fed2a4"/>
    <path id="Path_101950" data-name="Path 101950" d="M72.053,134.1a58.187,58.187,0,0,1,11.739-35.61,15.112,15.112,0,0,1,5.249-4.4l-.407-.19A15.1,15.1,0,0,0,70.12,98.492a58.141,58.141,0,0,0-11.227,27.374c-.17-.006-.34-.013-.514-.013a13.826,13.826,0,0,0,0,27.652,11.843,11.843,0,0,0,3.282-.437,58.309,58.309,0,0,0,56.127,39q2.97-.048,5.863-.387a58.278,58.278,0,0,1-51.6-57.579Z" transform="translate(-37.214 -63.422)" fill="#ffbd86"/>
    <path id="Path_101951" data-name="Path 101951" d="M210.689,157.707a10.832,10.832,0,0,0-15.072-6.539L166.1,165.5l-29.514-14.329a10.832,10.832,0,0,0-15.072,6.539,46.72,46.72,0,0,0,1.411,31.6,10.785,10.785,0,0,0,14.687,5.5L166.1,180.968,194.591,194.8a10.785,10.785,0,0,0,14.687-5.5,46.72,46.72,0,0,0,1.411-31.6Z" transform="translate(-86.492 -101.345)" fill="#f24872"/>
    <g id="Group_57287" data-name="Group 57287" transform="translate(46.564 65.825)">
      <path id="Path_101952" data-name="Path 101952" d="M174.678,203.29a52.307,52.307,0,0,0-10.8-3.142,3.882,3.882,0,0,0-4.564,3.753,9.252,9.252,0,0,0,9.758,9.42,9.236,9.236,0,0,0,7.487-4.589A3.848,3.848,0,0,0,174.678,203.29Z" transform="translate(-159.313 -200.085)" fill="#ffc93c"/>
      <path id="Path_101953" data-name="Path 101953" d="M303.141,203.29a52.308,52.308,0,0,1,10.8-3.142A3.882,3.882,0,0,1,318.5,203.9a9.252,9.252,0,0,1-9.758,9.42,9.236,9.236,0,0,1-7.487-4.589A3.848,3.848,0,0,1,303.141,203.29Z" transform="translate(-252.411 -200.085)" fill="#ffc93c"/>
      <path id="Path_101954" data-name="Path 101954" d="M243.549,421.971l-4.319-2.362-2.362-4.319a3.454,3.454,0,0,0-6.061,0l-2.362,4.319-4.319,2.362a3.454,3.454,0,0,0,0,6.061l4.319,2.362,2.362,4.319a3.454,3.454,0,0,0,6.061,0l2.362-4.319,4.319-2.362A3.454,3.454,0,0,0,243.549,421.971Z" transform="translate(-200.79 -340.551)" fill="#ffc93c"/>
    </g>
  </g>
  <g id="Group_57289" data-name="Group 57289" transform="translate(0)">
    <path id="Path_101955" data-name="Path 101955" d="M133.8,192.168l27.368-13.287,27.368,13.288a13.349,13.349,0,0,0,18.176-6.823,49.26,49.26,0,0,0,1.49-33.336,13.4,13.4,0,0,0-18.639-8.083l-28.395,13.786L132.77,143.925a13.4,13.4,0,0,0-18.639,8.083,49.263,49.263,0,0,0,1.49,33.336A13.35,13.35,0,0,0,133.8,192.168Zm-14.77-38.636a8.271,8.271,0,0,1,11.5-4.994l29.515,14.329a2.564,2.564,0,0,0,2.239,0L191.8,148.538a8.27,8.27,0,0,1,11.5,4.994,44.137,44.137,0,0,1-1.333,29.857,8.223,8.223,0,0,1-11.2,4.168l-28.488-13.831a2.563,2.563,0,0,0-2.239,0l-28.488,13.831a8.224,8.224,0,0,1-11.2-4.167A44.138,44.138,0,0,1,119.027,153.532Z" transform="translate(-78.991 -93.844)"/>
    <path id="Path_101956" data-name="Path 101956" d="M164.284,210.943a11.807,11.807,0,0,0,9.556-5.859,6.411,6.411,0,0,0-3.11-9.1,54.6,54.6,0,0,0-11.331-3.3,6.447,6.447,0,0,0-7.582,6.227A11.836,11.836,0,0,0,164.284,210.943Zm-6.035-13.231a47.1,47.1,0,0,1,10.5,3.007,1.286,1.286,0,0,1,.655,1.787,6.686,6.686,0,0,1-12.466-3.493,1.324,1.324,0,0,1,1.307-1.3Z" transform="translate(-105.251 -126.759)"/>
    <path id="Path_101957" data-name="Path 101957" d="M303.664,210.943a11.835,11.835,0,0,0,12.468-12.028,6.446,6.446,0,0,0-7.582-6.227,54.63,54.63,0,0,0-11.331,3.3,6.412,6.412,0,0,0-3.11,9.1,11.807,11.807,0,0,0,9.556,5.859Zm-4.47-10.225a47.806,47.806,0,0,1,10.5-3.007,1.323,1.323,0,0,1,1.307,1.3,6.686,6.686,0,0,1-12.466,3.493,1.286,1.286,0,0,1,.655-1.788Z" transform="translate(-198.349 -126.76)"/>
    <path id="Path_101958" data-name="Path 101958" d="M246.744,267.731a2.563,2.563,0,0,0-3.617.249,6.032,6.032,0,0,1-9.1,0,2.564,2.564,0,1,0-3.865,3.368,11.16,11.16,0,0,0,16.833,0A2.563,2.563,0,0,0,246.744,267.731Z" transform="translate(-156.402 -175.806)"/>
    <path id="Path_101959" data-name="Path 101959" d="M239.853,414.794l-3.66-2-2-3.66a6.022,6.022,0,0,0-10.559,0l-2,3.66-3.66,2a6.022,6.022,0,0,0,0,10.56l3.66,2,2,3.66a6.021,6.021,0,0,0,10.559,0l2-3.66,3.66-2a6.018,6.018,0,0,0,0-10.56Zm-2.46,6.061-4.319,2.362c-1.1.6-1.064,1.331-3.381,5.338a.889.889,0,0,1-1.563,0c-2.322-4.015-2.281-4.737-3.381-5.338l-4.319-2.362a.889.889,0,0,1,0-1.563c4.014-2.321,4.737-2.281,5.338-3.381l2.362-4.319a.889.889,0,0,1,1.563,0c2.322,4.015,2.281,4.737,3.381,5.338l4.319,2.362a.9.9,0,0,1,0,1.564Z" transform="translate(-146.738 -267.235)"/>
    <path id="Path_101960" data-name="Path 101960" d="M20.939,109.355a183.685,183.685,0,0,1,34.88,28.6,54.14,54.14,0,0,0-12.241,34.48A2.564,2.564,0,0,0,46.141,175H151.3a2.564,2.564,0,0,0,2.563-2.563,55.593,55.593,0,0,0-13-35.687,187.819,187.819,0,0,1,14.792-13.657,2.564,2.564,0,0,0-3.271-3.948,193.158,193.158,0,0,0-14.949,13.772,64.8,64.8,0,0,0-8.74-7.538,61.408,61.408,0,0,0,25.856-30.251,16.317,16.317,0,0,0,13.74-5.228,73.923,73.923,0,0,1,5.172,5.914,6.274,6.274,0,0,1-1.608,9.2c-3.758,2.354-7.589,4.975-11.385,7.791a2.564,2.564,0,0,0,3.054,4.118c3.689-2.736,7.407-5.281,11.051-7.564a11.406,11.406,0,0,0,2.91-16.72,77.137,77.137,0,0,0-6.329-7.117,16.325,16.325,0,0,0-.663-14.708A72.756,72.756,0,0,0,68.049,6.344a2.564,2.564,0,1,0,2.1,4.677A66.96,66.96,0,0,1,97.757,5.127a67.722,67.722,0,0,1,67.192,59.82,16.58,16.58,0,0,0-7.036-2.427,60.427,60.427,0,0,0-11.519-26.581,17.661,17.661,0,0,0-20.638-5.6c-2.849,1.155-13.652,6.8-28,6.8-15.7,0-26.486-6.523-29.984-7.469A17.77,17.77,0,0,0,49,36.091,60.413,60.413,0,0,0,37.6,62.52a16.5,16.5,0,0,0-7.031,2.425,67.664,67.664,0,0,1,30.535-49,2.564,2.564,0,1,0-2.786-4.3A72.738,72.738,0,0,0,25.023,70.806a16.325,16.325,0,0,0-.665,14.712,77.123,77.123,0,0,0-6.329,7.117,11.406,11.406,0,0,0,2.91,16.72ZM131.5,169.873V156.259a2.563,2.563,0,0,0-5.127,0v13.614H69.144V156.259a2.563,2.563,0,0,0-5.127,0v13.614H48.765a48.516,48.516,0,0,1,12.64-30.583,56.243,56.243,0,0,1,12.314-10.376,61.536,61.536,0,0,0,49.822-.822,58.94,58.94,0,0,1,12.146,10.483,50.029,50.029,0,0,1,12.988,31.3ZM29.9,84.993a11.271,11.271,0,0,1,7.05-17.182c-.145,1.815-.211,3.661-.2,5.453a61.989,61.989,0,0,0,2.457,16.817A11.245,11.245,0,0,1,29.9,84.993ZM53.649,38.5a12.613,12.613,0,0,1,12.99-3.826c5.27,1.527,28.321,15.846,60.4.69a12.568,12.568,0,0,1,14.2,2.449,11.984,11.984,0,0,1,1.069,1.23,56.554,56.554,0,0,1,10.832,26.3c2.283,17.2-3.837,34.4-14.309,45.3C110.1,141.8,58.813,130.711,45.027,91.405v0a56.112,56.112,0,0,1,6.956-50.685C52.478,40.009,53.112,39.119,53.649,38.5ZM165.134,71.971a11.269,11.269,0,0,1-8.852,18.111,61.662,61.662,0,0,0,2.287-22.27A11.266,11.266,0,0,1,165.134,71.971ZM22.053,95.813A73.976,73.976,0,0,1,27.225,89.9a16.32,16.32,0,0,0,13.7,5.232A61.088,61.088,0,0,0,68.335,126.3a61.781,61.781,0,0,0-9.112,7.8A188.8,188.8,0,0,0,23.66,105.01a6.274,6.274,0,0,1-1.608-9.2Z" transform="translate(-15.582)"/>
  </g>
</svg>
