<svg xmlns="http://www.w3.org/2000/svg" width="142" height="142.5" viewBox="0 0 142 142.5">
  <g id="t3-i19" transform="translate(-543 -657)">
    <rect id="Rectangle_5217" data-name="Rectangle 5217" width="142" height="142" transform="translate(543 657.5)" fill="none"/>
    <g id="Group_57295" data-name="Group 57295" transform="translate(545 657)">
      <g id="Group_57293" data-name="Group 57293" transform="translate(2.076 2.08)">
        <path id="Path_101961" data-name="Path 101961" d="M175.629,41.745a53.706,53.706,0,0,0-100.112,0Z" transform="translate(-58.918 -7.5)" fill="#f24872"/>
        <path id="Path_101962" data-name="Path 101962" d="M129.733,7.659q-2.059-.158-4.16-.159A53.7,53.7,0,0,0,75.517,41.745h8.32A53.724,53.724,0,0,1,129.733,7.659Z" transform="translate(-58.918 -7.5)" fill="#cc3d60"/>
        <path id="Path_101963" data-name="Path 101963" d="M156.809,286.954c-2.191,15.855,21.161,32.636-17.658,46.486H67.092c-38.819-13.849-15.467-30.63-17.658-46.486Z" transform="translate(-36.467 -209.449)" fill="#f24872"/>
        <path id="Path_101964" data-name="Path 101964" d="M49.439,286.954c1.994,14.431-17.171,29.63,8.643,42.687-12.586-11.71,1.395-24.709-.323-37.14Z" transform="translate(-36.472 -209.449)" fill="#cc3d60"/>
        <path id="Path_101965" data-name="Path 101965" d="M171.352,377.48H127.076s-18.845,9.551-18.845,35.228H125.96l23.254-6.477,23.254,6.477H190.2c0-25.677-18.845-35.228-18.845-35.228Z" transform="translate(-82.559 -274.868)" fill="#fed2a4"/>
        <path id="Path_101966" data-name="Path 101966" d="M135.4,377.481h-8.32s-18.845,9.551-18.845,35.228h8.32C116.551,387.032,135.4,377.481,135.4,377.481Z" transform="translate(-82.559 -274.869)" fill="#ffbd86"/>
        <path id="Path_101967" data-name="Path 101967" d="M66.055,130.974a53.687,53.687,0,1,0,100.112,0Z" transform="translate(-49.456 -96.729)" fill="#fed2a4"/>
        <path id="Path_101968" data-name="Path 101968" d="M73.518,150.416a53.549,53.549,0,0,1,3.632-19.443H66.056a53.715,53.715,0,0,0,50.056,73.13,54.3,54.3,0,0,0,5.547-.284A53.694,53.694,0,0,1,73.518,150.416Z" transform="translate(-49.457 -96.728)" fill="#ffbd86"/>
        <path id="Path_101969" data-name="Path 101969" d="M144.415,57.355a5.184,5.184,0,0,0-8.2-2.322c-4.428,3.6-12.338,7.875-25.918,9.694a30.542,30.542,0,0,1-23.513-6.745,6.994,6.994,0,0,0-8.916,0,30.541,30.541,0,0,1-23.513,6.745c-13.579-1.819-21.49-6.095-25.918-9.694a5.184,5.184,0,0,0-8.2,2.322c-12.45,37.124,2.953,65.042,17.692,81.7a5.418,5.418,0,0,0,7.109.9l2.828-1.924a5.413,5.413,0,0,0,1.007-8.057c-6.58-7.476-17.259-23.935-7.877-44.753H60.752A30.559,30.559,0,0,1,78,90.562l.373.255a7,7,0,0,0,7.9,0l.373-.255A30.561,30.561,0,0,1,103.9,85.228h19.759c9.383,20.817-1.3,37.276-7.877,44.753a5.412,5.412,0,0,0,1.007,8.057l2.828,1.924a5.418,5.418,0,0,0,7.109-.9c14.739-16.662,30.142-44.58,17.692-81.7Z" transform="translate(-15.67 -40.998)" fill="#9ddfd3"/>
        <path id="Path_101970" data-name="Path 101970" d="M46.246,139.058C31.506,122.4,16.1,94.479,28.553,57.355a5.128,5.128,0,0,1,.851-1.568c-.339-.254-.664-.506-.969-.754a5.184,5.184,0,0,0-8.2,2.322c-12.45,37.124,2.953,65.042,17.692,81.7a5.418,5.418,0,0,0,7.109.9l1.257-.856c-.015-.016-.031-.031-.046-.047Z" transform="translate(-15.669 -40.998)" fill="#87bfb5"/>
        <g id="Group_57292" data-name="Group 57292" transform="translate(28.045 60.931)">
          <g id="Group_57291" data-name="Group 57291">
            <ellipse id="Ellipse_4091" data-name="Ellipse 4091" cx="10.406" cy="8.287" rx="10.406" ry="8.287" fill="#ffbd86"/>
            <ellipse id="Ellipse_4092" data-name="Ellipse 4092" cx="10.406" cy="8.287" rx="10.406" ry="8.287" transform="translate(56.406)" fill="#ffbd86"/>
          </g>
        </g>
        <ellipse id="Ellipse_4093" data-name="Ellipse 4093" cx="5.836" cy="7.357" rx="5.836" ry="7.357" transform="translate(60.818 26.888)" fill="#e8e8e8"/>
        <path id="Path_101971" data-name="Path 101971" d="M210.4,446.622l-15,3.017-15-3.017a6.9,6.9,0,0,0-8.258,6.762v9.19h46.508v-9.191a6.9,6.9,0,0,0-8.258-6.762Z" transform="translate(-128.754 -324.734)" fill="#9ddfd3"/>
        <path id="Path_101972" data-name="Path 101972" d="M184.032,447.35l-3.62-.728a6.9,6.9,0,0,0-8.258,6.762v9.19h8.32v-9.191a6.881,6.881,0,0,1,3.558-6.034Z" transform="translate(-128.754 -324.734)" fill="#87bfb5"/>
      </g>
      <g id="Group_57294" data-name="Group 57294" transform="translate(0)">
        <path id="Path_101973" data-name="Path 101973" d="M170.763,213.887a2.08,2.08,0,0,0,2.08-2.08v-4.254a2.08,2.08,0,1,0-4.16,0v4.254A2.08,2.08,0,0,0,170.763,213.887Z" transform="translate(-124.17 -148.486)"/>
        <path id="Path_101974" data-name="Path 101974" d="M330.406,213.887a2.08,2.08,0,0,0,2.08-2.08v-4.254a2.08,2.08,0,1,0-4.16,0v4.254A2.08,2.08,0,0,0,330.406,213.887Z" transform="translate(-239.537 -148.486)"/>
        <path id="Path_101975" data-name="Path 101975" d="M242.78,234.23a2.08,2.08,0,1,0-3.136-2.733,5.657,5.657,0,0,1-8.537,0,2.08,2.08,0,1,0-3.136,2.733A9.819,9.819,0,0,0,242.78,234.23Z" transform="translate(-166.644 -166.777)"/>
        <path id="Path_101976" data-name="Path 101976" d="M243.294,106.384c0-5.2-3.551-9.437-7.917-9.437s-7.917,4.233-7.917,9.437,3.551,9.437,7.917,9.437S243.294,111.588,243.294,106.384Zm-11.673,0c0-2.86,1.72-5.277,3.756-5.277s3.756,2.417,3.756,5.277-1.72,5.277-3.756,5.277-3.756-2.417-3.756-5.277Z" transform="translate(-166.646 -70.059)"/>
        <path id="Path_101977" data-name="Path 101977" d="M13.811,70.123a2.081,2.081,0,0,0,1.983-2.711c-4.908-15.437-4.571-31.691,1-48.313a3.1,3.1,0,0,1,4.917-1.37c7.347,5.971,18.518,9.249,27.8,10.243a32.721,32.721,0,0,0,24.273-7.306,4.912,4.912,0,0,1,5.769-.355,33.279,33.279,0,0,0,23.314,7.781c5.5-.336,14.721-2.633,17.053-3.72a41.949,41.949,0,0,0,12.2-6.643,3.1,3.1,0,0,1,4.917,1.37,85.359,85.359,0,0,1,4.106,18.94,2.08,2.08,0,1,0,4.141-.4,89.517,89.517,0,0,0-4.3-19.866A7.268,7.268,0,0,0,129.492,14.5a36.62,36.62,0,0,1-9.782,5.511,55.762,55.762,0,0,0-85.589,0A36.625,36.625,0,0,1,24.339,14.5a7.323,7.323,0,0,0-6.657-1.355,7.212,7.212,0,0,0-4.829,4.629c-5.861,17.476-6.205,34.6-1.023,50.9a2.081,2.081,0,0,0,1.982,1.45ZM76.916,4.16a51.32,51.32,0,0,1,38.56,17.308,71.617,71.617,0,0,1-10.865,2.279A28.549,28.549,0,0,1,82.7,17.461a9.091,9.091,0,0,0-11.567,0,28.545,28.545,0,0,1-21.924,6.285,71.82,71.82,0,0,1-10.853-2.277A51.321,51.321,0,0,1,76.916,4.16Z" transform="translate(-8.184)"/>
        <path id="Path_101978" data-name="Path 101978" d="M160.414,158.76a2.084,2.084,0,0,0-2.1,2.056c-.227,19.86-8.517,37.737-21.729,52.676a3.348,3.348,0,0,1-4.38.561c-3.1-2.121-3.112-2.05-3.594-2.647a3.343,3.343,0,0,1-.351-3.483c.763-1.561,20.852-20.806,8.713-47.739a2.08,2.08,0,0,0-1.9-1.225H115.314a33.2,33.2,0,0,0-18.8,5.953,4.884,4.884,0,0,1-5.548,0,33.14,33.14,0,0,0-18.8-5.953H52.41a2.08,2.08,0,0,0-1.9,1.225c-12.1,26.849,7.881,46.094,8.686,47.684a3.33,3.33,0,0,1-1.09,4.26c-3.057,2.074-3.058,2.149-3.731,2.352a3.349,3.349,0,0,1-3.478-.99,91.66,91.66,0,0,1-15.447-23.827,2.08,2.08,0,1,0-3.813,1.665,88.457,88.457,0,0,0,5.675,10.837C34.2,214.5,24,229.208,52.583,241.055a47.636,47.636,0,0,0-1.9,13.594,2.08,2.08,0,0,0,2.08,2.08h81.966a2.08,2.08,0,0,0,2.08-2.08,47.627,47.627,0,0,0-1.9-13.594c28.584-11.846,18.381-26.556,15.266-38.886a80.007,80.007,0,0,0,12.3-41.305,2.08,2.08,0,0,0-2.056-2.1ZM53.776,163.119H72.17a28.367,28.367,0,0,1,16.077,4.972,10.158,10.158,0,0,0,3.5,1.626,9.1,9.1,0,0,0,7.489-1.626A28.349,28.349,0,0,1,112.1,163.3c2.769-.312,3.166-.126,21.609-.18,6.164,14.855,2.3,29.515-8.072,41.3a7.513,7.513,0,0,0-1.362,7.686,51.591,51.591,0,0,1-9.237,5.415l-.019.007A51.6,51.6,0,0,1,63.211,212.1a7.512,7.512,0,0,0-1.362-7.686c-10.424-11.844-14.253-26.4-8.072-41.3ZM37.757,223.977c-1.758-5.344.678-11.237,2.563-17.216,1.327,1.91,6.692,9.078,8.531,10.476a7.523,7.523,0,0,0,8.771.256c2.909-1.982,2.86-1.941,3.055-2.085a56.5,56.5,0,0,0,6.7,4.255,40.553,40.553,0,0,0-13.44,17.455c-9.246-3.86-14.549-8.169-16.184-13.141Zm71.391,16.758a4.817,4.817,0,0,1,5.768,4.723v7.111H72.567v-7.111a4.817,4.817,0,0,1,5.768-4.723c15.538,3.07,15.063,3.169,15.817,3.017Zm9.928,11.833v-7.111a8.978,8.978,0,0,0-10.748-8.8l-14.586,2.935-14.586-2.935a8.978,8.978,0,0,0-10.748,8.8v7.111H54.882A42.182,42.182,0,0,1,57.034,240.7c.026-.058.051-.117.072-.178a36.434,36.434,0,0,1,14.609-18.762,56.14,56.14,0,0,0,44.056,0c3.387,2.1,15.987,11.187,16.829,30.809H119.076Zm28.087-45.807c1.9,6.013,4.318,11.88,2.563,17.216-1.635,4.971-6.938,9.28-16.184,13.14a40.553,40.553,0,0,0-13.44-17.455,56.472,56.472,0,0,0,6.7-4.255c.2.145.291.2,3.055,2.085a7.517,7.517,0,0,0,9.837-1.244,104.82,104.82,0,0,0,7.465-9.487Z" transform="translate(-25.01 -114.728)"/>
      </g>
    </g>
  </g>
</svg>
