<svg xmlns="http://www.w3.org/2000/svg" width="142" height="142" viewBox="0 0 142 142">
  <g id="t3-i9" transform="translate(-543 -131)">
    <rect id="Rectangle_5207" data-name="Rectangle 5207" width="142" height="142" transform="translate(543 131)" fill="none"/>
    <g id="Group_57281" data-name="Group 57281" transform="translate(557 131)">
      <path id="Path_101906" data-name="Path 101906" d="M405.962,180.687a9.531,9.531,0,1,1-9.531-9.531A9.532,9.532,0,0,1,405.962,180.687Z" transform="translate(-293.185 -123.687)" fill="#ffbf9d"/>
      <path id="Path_101907" data-name="Path 101907" d="M75.564,180.687a9.532,9.532,0,1,1-9.532-9.531A9.532,9.532,0,0,1,75.564,180.687Z" transform="translate(-54.42 -123.687)" fill="#ffbf9d"/>
      <path id="Path_101908" data-name="Path 101908" d="M94.688,387.876a44.758,44.758,0,1,1,89.516,0Z" transform="translate(-82.017 -247.956)" fill="#f24872"/>
      <path id="Path_101909" data-name="Path 101909" d="M284.267,387.245v.63h16.562a44.758,44.758,0,0,0-44.757-44.759l11.068,29.542a8.846,8.846,0,0,0,8.283,5.742A8.844,8.844,0,0,1,284.267,387.245Z" transform="translate(-198.641 -247.956)" fill="#31326f"/>
      <path id="Path_101910" data-name="Path 101910" d="M94.688,387.876H111.25v-.63a8.844,8.844,0,0,1,8.844-8.845,8.847,8.847,0,0,0,8.284-5.742l11.068-29.542A44.758,44.758,0,0,0,94.688,387.876Z" transform="translate(-82.017 -247.956)" fill="#31326f"/>
      <path id="Path_101911" data-name="Path 101911" d="M144.992,343.46a45.255,45.255,0,0,0-5.547-.343,44.758,44.758,0,0,0-44.757,44.759h11.094A44.765,44.765,0,0,1,144.992,343.46Z" transform="translate(-82.017 -247.956)" fill="#21214a"/>
      <path id="Path_101912" data-name="Path 101912" d="M187.93,374.691l20.107-20.107a44.751,44.751,0,0,0-59.826,0l20.107,20.107A13.867,13.867,0,0,0,187.93,374.691Z" transform="translate(-120.695 -247.956)" fill="#ffd566"/>
      <path id="Path_101913" data-name="Path 101913" d="M183.669,343.46a45.219,45.219,0,0,0-5.545-.343,44.593,44.593,0,0,0-29.913,11.466l5.737,5.737A44.7,44.7,0,0,1,183.669,343.46Z" transform="translate(-120.695 -247.956)" fill="#ffc93c"/>
      <path id="Path_101914" data-name="Path 101914" d="M178.862,70.586A48.085,48.085,0,1,1,130.776,22.5,48.086,48.086,0,0,1,178.862,70.586Z" transform="translate(-73.348 -16.26)" fill="#f24872"/>
      <path id="Path_101915" data-name="Path 101915" d="M93.786,70.586a48.09,48.09,0,0,1,42.538-47.765,48.576,48.576,0,0,0-5.547-.321,48.085,48.085,0,0,0,0,96.17,48.577,48.577,0,0,0,5.547-.321A48.09,48.09,0,0,1,93.786,70.586Z" transform="translate(-73.348 -16.26)" fill="#cc3d60"/>
      <path id="Path_101916" data-name="Path 101916" d="M148.982,236.91c-18.317,0-32.955,7.913-41.1,13.589.034.057.069.114.1.171a48.094,48.094,0,0,0,81.989,0c.035-.057.07-.114.1-.171C181.935,244.823,167.3,236.91,148.982,236.91Z" transform="translate(-91.552 -171.204)" fill="#ffd4bd"/>
      <path id="Path_101917" data-name="Path 101917" d="M154.536,295.38a48.123,48.123,0,0,1-38.267-27.907,80.785,80.785,0,0,0-8.386,5.112c.034.057.069.114.1.171a48.1,48.1,0,0,0,46.549,22.623Z" transform="translate(-91.552 -193.291)" fill="#ffbf9d"/>
      <path id="Path_101918" data-name="Path 101918" d="M161.306,8.426l-4.7,13.357L111.849,29.99,67.091,21.783l-4.7-13.357A1.387,1.387,0,0,0,61.084,7.5h-3.2A1.387,1.387,0,0,0,56.5,8.887V33.8a1.388,1.388,0,0,0,.883,1.292l52.449,20.469a5.55,5.55,0,0,0,4.033,0l52.45-20.469A1.387,1.387,0,0,0,167.2,33.8V8.887A1.387,1.387,0,0,0,165.81,7.5h-3.2A1.389,1.389,0,0,0,161.306,8.426Z" transform="translate(-54.42 -5.42)" fill="#ffd566"/>
      <path id="Path_101919" data-name="Path 101919" d="M67.091,21.783l-4.7-13.357A1.387,1.387,0,0,0,61.084,7.5h-3.2A1.387,1.387,0,0,0,56.5,8.887V33.8a1.388,1.388,0,0,0,.883,1.292l52.449,20.469a5.557,5.557,0,0,0,2.016.379V29.99Z" transform="translate(-54.42 -5.42)" fill="#ffc93c"/>
      <path id="Path_101920" data-name="Path 101920" d="M244.222,254.961a2.081,2.081,0,0,0-2.841.766,3.279,3.279,0,0,1-5.689,0,2.08,2.08,0,0,0-3.607,2.074,7.44,7.44,0,0,0,12.9,0A2.081,2.081,0,0,0,244.222,254.961Z" transform="translate(-181.108 -184.048)"/>
      <path id="Path_101921" data-name="Path 101921" d="M317.338,203.754a2.08,2.08,0,0,0-2.08,2.08v3.149a2.08,2.08,0,0,0,4.16,0v-3.149A2.08,2.08,0,0,0,317.338,203.754Z" transform="translate(-241.413 -147.244)"/>
      <path id="Path_101922" data-name="Path 101922" d="M183.959,203.754a2.081,2.081,0,0,0-2.08,2.08v3.149a2.08,2.08,0,0,0,4.16,0v-3.149A2.08,2.08,0,0,0,183.959,203.754Z" transform="translate(-145.026 -147.244)"/>
      <path id="Path_101923" data-name="Path 101923" d="M161.651,31.61a3.446,3.446,0,0,0,2.206-3.23V3.467A3.47,3.47,0,0,0,160.39,0h-3.2a3.471,3.471,0,0,0-3.271,2.316l-4.3,12.218L139.3,16.428a50.162,50.162,0,0,0-65.735,0L63.232,14.534l-4.3-12.218A3.471,3.471,0,0,0,55.664,0h-3.2A3.471,3.471,0,0,0,49,3.467V28.38a3.447,3.447,0,0,0,2.207,3.23l8.887,3.469a49.451,49.451,0,0,0-3.142,10.9,11.614,11.614,0,0,0,1.317,22.4,49.924,49.924,0,0,0,5.159,11.758,2.1,2.1,0,0,0,.195.35c.025.035.052.065.078.1A50.52,50.52,0,0,0,83.624,99,46.959,46.959,0,0,0,59.59,139.92,2.08,2.08,0,0,0,61.67,142h89.517a2.08,2.08,0,0,0,2.08-2.08,46.951,46.951,0,0,0-15.451-34.758s0,0,0,0c-.017-.017-.036-.032-.054-.05s-.038-.035-.057-.051-.034-.031-.052-.047A46.681,46.681,0,0,0,129.234,99a50.52,50.52,0,0,0,19.916-18.409c.029-.036.059-.07.085-.108a2.17,2.17,0,0,0,.195-.347,49.952,49.952,0,0,0,5.16-11.761,11.615,11.615,0,0,0,1.317-22.4,49.546,49.546,0,0,0-3.142-10.9ZM106.429,8.32a45.9,45.9,0,0,1,27.469,9.1l-27.469,5.037L78.961,17.419A45.9,45.9,0,0,1,106.429,8.32ZM53.16,57a7.434,7.434,0,0,1,3.224-6.138c-.077,1.147-.12,2.3-.12,3.462a50.19,50.19,0,0,0,.862,9.27A7.432,7.432,0,0,1,53.16,57Zm23.318,52.531L92.537,125.59a6.777,6.777,0,0,1-5.459,2.775,10.939,10.939,0,0,0-10.826,9.475H63.8A42.778,42.778,0,0,1,76.478,109.531Zm40.875,19.01a10.945,10.945,0,0,0,8.427,3.983,6.775,6.775,0,0,1,6.607,5.315H80.47a6.776,6.776,0,0,1,6.607-5.315,10.946,10.946,0,0,0,8.428-3.983,15.951,15.951,0,0,0,21.848,0Zm15.923-21.79-5.487,5.487a2.08,2.08,0,0,0,2.943,2.941l5.649-5.649a42.793,42.793,0,0,1,12.675,28.308H136.607a10.941,10.941,0,0,0-10.826-9.476,6.776,6.776,0,0,1-5.459-2.773l4.893-4.893a2.08,2.08,0,0,0-2.941-2.943l-7.51,7.51a11.8,11.8,0,0,1-16.67,0L79.582,106.751a42.521,42.521,0,0,1,8.929-5.572,50.142,50.142,0,0,0,35.837,0A42.571,42.571,0,0,1,133.277,106.751Zm-26.848-6.421A46,46,0,0,1,68.187,79.869c8.724-5.759,22-12.084,38.242-12.084s29.517,6.325,38.242,12.084A46,46,0,0,1,106.429,100.33ZM159.7,57a7.507,7.507,0,0,1-3.962,6.575,50.172,50.172,0,0,0,.859-9.25c0-1.162-.044-2.316-.121-3.462A7.428,7.428,0,0,1,159.7,57Zm-7.263-2.675a45.726,45.726,0,0,1-5.6,21.986c-9.222-6.064-23.227-12.686-40.4-12.686s-31.18,6.623-40.4,12.686A46.018,46.018,0,0,1,63.97,36.591l39.686,15.488a7.607,7.607,0,0,0,5.546,0L126.322,45.4a2.08,2.08,0,1,0-1.512-3.875L107.69,48.2a3.458,3.458,0,0,1-2.521,0L53.16,27.907V4.16h2.012l4.537,12.893A2.08,2.08,0,0,0,61.3,18.41l44.759,8.205a2.076,2.076,0,0,0,.75,0l44.759-8.205a2.082,2.082,0,0,0,1.587-1.356L157.685,4.16H159.7V27.907L132.14,38.661a2.08,2.08,0,0,0,1.512,3.875l15.236-5.945A45.625,45.625,0,0,1,152.434,54.326Z" transform="translate(-49 0)"/>
    </g>
  </g>
</svg>
