<svg xmlns="http://www.w3.org/2000/svg" width="546.943" height="350.027" viewBox="0 0 546.943 350.027">
  <g id="banner-princiapal" transform="translate(3151.697 -1778.821)">
    <g id="Group_57738" data-name="Group 57738">
      <path id="Path_102619" data-name="Path 102619" d="M-3073.277,1894.6a.585.585,0,0,1-.567-.443,38.567,38.567,0,0,1-.851-6.8.587.587,0,0,1,.556-.615.593.593,0,0,1,.615.556,38.153,38.153,0,0,0,.817,6.577.586.586,0,0,1-.427.71A.578.578,0,0,1-3073.277,1894.6Zm-.763-13.432a.6.6,0,0,1-.586-.626,60.911,60.911,0,0,1,.852-6.757.592.592,0,0,1,.682-.471.586.586,0,0,1,.471.682,59.412,59.412,0,0,0-.835,6.627A.587.587,0,0,1-3074.04,1881.172Zm2.426-13.245a.576.576,0,0,1-.168-.025.586.586,0,0,1-.393-.73,63.292,63.292,0,0,1,2.315-6.4.583.583,0,0,1,.769-.31.586.586,0,0,1,.311.768,61.643,61.643,0,0,0-2.272,6.279A.586.586,0,0,1-3071.614,1867.927Zm5.253-12.393a.579.579,0,0,1-.283-.075.585.585,0,0,1-.228-.8,67.628,67.628,0,0,1,3.6-5.767.589.589,0,0,1,.816-.146.589.589,0,0,1,.146.817,65.837,65.837,0,0,0-3.54,5.664A.589.589,0,0,1-3066.361,1855.534Zm7.685-11.057a.586.586,0,0,1-.38-.139.587.587,0,0,1-.068-.827c1.432-1.687,2.985-3.363,4.617-4.98a.584.584,0,0,1,.828,0,.587.587,0,0,1,0,.829c-1.608,1.593-3.139,3.244-4.547,4.906A.585.585,0,0,1-3058.676,1844.477Zm9.56-9.485a.587.587,0,0,1-.448-.208.586.586,0,0,1,.071-.826c1.69-1.425,3.486-2.831,5.341-4.179a.583.583,0,0,1,.819.129.588.588,0,0,1-.129.82c-1.833,1.33-3.608,2.719-5.276,4.127A.584.584,0,0,1-3049.116,1834.992Zm10.889-7.933a.584.584,0,0,1-.5-.272.586.586,0,0,1,.181-.809c1.864-1.178,3.826-2.339,5.832-3.45a.587.587,0,0,1,.8.23.587.587,0,0,1-.23.8c-1.985,1.1-3.926,2.247-5.771,3.414A.586.586,0,0,1-3038.227,1827.059Zm108.126-.759a.59.59,0,0,1-.332-.1c-1.751-1.2-3.663-2.4-5.683-3.555a.584.584,0,0,1-.219-.8.585.585,0,0,1,.8-.218c2.051,1.172,3.99,2.384,5.766,3.606a.584.584,0,0,1,.151.815A.583.583,0,0,1-2930.1,1826.3Zm-96.341-5.78a.587.587,0,0,1-.528-.33.588.588,0,0,1,.271-.784c2.04-.99,4.12-1.925,6.183-2.779a.584.584,0,0,1,.765.317.585.585,0,0,1-.317.766c-2.041.845-4.1,1.771-6.118,2.751A.6.6,0,0,1-3026.442,1820.52Zm84.641-.931a.587.587,0,0,1-.255-.059c-2-.958-4.062-1.863-6.142-2.691a.584.584,0,0,1-.328-.761.582.582,0,0,1,.761-.328c2.1.837,4.2,1.754,6.218,2.724a.586.586,0,0,1,.275.781A.59.59,0,0,1-2941.8,1819.589Zm-72.183-4.218a.587.587,0,0,1-.555-.4.585.585,0,0,1,.365-.744c2.148-.734,4.331-1.4,6.486-1.983a.584.584,0,0,1,.718.414.586.586,0,0,1-.413.718c-2.131.575-4.288,1.235-6.412,1.961A.591.591,0,0,1-3013.984,1815.371Zm59.65-.766a.6.6,0,0,1-.179-.028c-2.133-.682-4.305-1.294-6.453-1.817a.587.587,0,0,1-.43-.709.577.577,0,0,1,.709-.431c2.173.531,4.372,1.15,6.532,1.84a.586.586,0,0,1,.379.736A.585.585,0,0,1-2954.334,1814.6Zm-46.636-2.736a.586.586,0,0,1-.574-.474.587.587,0,0,1,.462-.688c2.222-.437,4.476-.8,6.7-1.073a.6.6,0,0,1,.654.51.587.587,0,0,1-.511.653c-2.194.272-4.421.628-6.616,1.061A.633.633,0,0,1-3000.97,1811.869Zm33.541-.457a.672.672,0,0,1-.1-.008c-2.2-.375-4.44-.673-6.646-.884a.586.586,0,0,1-.527-.639.59.59,0,0,1,.64-.528c2.232.215,4.5.516,6.729.894a.585.585,0,0,1,.48.676A.588.588,0,0,1-2967.429,1811.412Zm-20.161-1.2a.586.586,0,0,1-.586-.555.588.588,0,0,1,.556-.616c2.243-.114,4.548-.146,6.785-.093a.585.585,0,0,1,.572.6.551.551,0,0,1-.6.572c-2.207-.051-4.483-.019-6.7.093Z" fill="#81c140"/>
    </g>
    <path id="Path_102620" data-name="Path 102620" d="M-2723.623,1931.578l.213,11.919,2.9,1.739,20.978-2.725,3.854-18.8-11.17-9.321-10.7,1.875s-7.169,4.071-7.477,4.312-.9,4.4-.9,4.4l2.44,1.707Z" fill="#fed2a4"/>
    <path id="Path_102621" data-name="Path 102621" d="M-2712.071,1922.027s-1.289,4.5-8.439,5.866v14.618l-2.9.986.32-20.645,3.867.461,4.88-.7Z" fill="#ffbd86"/>
    <path id="Path_102622" data-name="Path 102622" d="M-2702.931,1983.339l11.03-16.66-1.125-22.551,3.214.442,3.428-.765,2.893-3.859s-.053-4.446,0-4.607a38.594,38.594,0,0,0-2.2-3.268l-2.832-1.232h-3.643l-2.947,1.484-1.714,2.856.214,3.107.926,5.842-.183,6.326-1.386,3.367-2.774,2.588-5.315,1.162-9.507.238-.061,9.03,11.4,16.768Z" fill="#fed2a4"/>
    <path id="Path_102623" data-name="Path 102623" d="M-2714.916,1954.25V1970.2l4.131,5.9-.277-18.3Z" fill="#ffbd86"/>
    <path id="Path_102624" data-name="Path 102624" d="M-2691.915,1967.245l10.055,7.017-5.8,28.32-1.572-.674-16.341,38.081-4.089-4.856L-2715.74,2006l-2.032,3.572-7.066-34.719,9.921-8.01,11.4,16.768.585-.268Z" fill="#fff"/>
    <path id="Path_102625" data-name="Path 102625" d="M-2714.343,1957.763s13.669.632,16.63-2.755,2.124-11.62,1.626-13.75a43.588,43.588,0,0,1-.579-6.5s3.58-6.769,9.965-3.751c0,0,1.885-7.175.5-13.183s-5.7-10.617-13.816-8.007l-.588-.242a22.339,22.339,0,0,0-12.194-2.685c-7.046.484-14.343,8.7-14.3,16.085,0,0,3.537,8.828,3.481,8.606s.267-8.711.267-8.711a19.943,19.943,0,0,0,9.013-.253c4.545-1.307,10.2-5.761,10.2-5.761s.58,9.562,5.708,13.337c0,0-.565,1.768-.606,2.133s-.335,7.672-2.075,8.266-7.4-.754-9.791.669-2.745,2.626-4.39,2.174a26.415,26.415,0,0,0-4.938-.931,4.861,4.861,0,0,0-3.174,1S-2724.774,1958.464-2714.343,1957.763Z" fill="#ffd566"/>
    <path id="Path_102626" data-name="Path 102626" d="M-2767.233,1993.135s18.232-18.839,42.4-18.286l7.067,34.72,2.031-3.573,6.08,29.137,4.321,4.317,16.108-37.542,1.572.674,5.8-28.32s14.143.641,24.2,4.74,16.828,11.4,24.437,32.956,15.584,42.978,18.37,50.367,3.269,32.669-11.963,41.127-20.838,2.737-20.838,2.737v21.577h-97.623Z" fill="#1a1a1a"/>
    <g id="Group_57740" data-name="Group 57740">
      <g id="Group_57739" data-name="Group 57739">
        <circle id="Ellipse_4145" data-name="Ellipse 4145" cx="1.535" cy="1.535" r="1.535" transform="matrix(0.21, -0.978, 0.978, 0.21, -2632.015, 1970.901)" fill="#9ddfd3"/>
        <path id="Path_102627" data-name="Path 102627" d="M-2618.26,1971.337a1.614,1.614,0,0,0,1.614-1.614,1.614,1.614,0,0,0-1.614-1.615,1.615,1.615,0,0,0-1.615,1.615A1.615,1.615,0,0,0-2618.26,1971.337Z" fill="#9ddfd3"/>
        <path id="Path_102628" data-name="Path 102628" d="M-2606.329,1971.218a1.5,1.5,0,0,0,1.5-1.495,1.5,1.5,0,0,0-1.5-1.5,1.5,1.5,0,0,0-1.495,1.5A1.5,1.5,0,0,0-2606.329,1971.218Z" fill="#9ddfd3"/>
        <circle id="Ellipse_4146" data-name="Ellipse 4146" cx="1.615" cy="1.615" r="1.615" transform="translate(-2631.806 1980.04)" fill="#9ddfd3"/>
        <path id="Path_102629" data-name="Path 102629" d="M-2618.26,1983.348a1.694,1.694,0,0,0,1.694-1.694,1.694,1.694,0,0,0-1.694-1.694,1.694,1.694,0,0,0-1.694,1.694A1.694,1.694,0,0,0-2618.26,1983.348Z" fill="#9ddfd3"/>
        <path id="Path_102630" data-name="Path 102630" d="M-2606.329,1983.229a1.575,1.575,0,0,0,1.575-1.575,1.575,1.575,0,0,0-1.575-1.575,1.576,1.576,0,0,0-1.575,1.575A1.575,1.575,0,0,0-2606.329,1983.229Z" fill="#9ddfd3"/>
        <path id="Path_102631" data-name="Path 102631" d="M-2630.192,1995.081a1.5,1.5,0,0,0,1.5-1.495,1.5,1.5,0,0,0-1.5-1.5,1.5,1.5,0,0,0-1.5,1.5A1.5,1.5,0,0,0-2630.192,1995.081Z" fill="#9ddfd3"/>
        <path id="Path_102632" data-name="Path 102632" d="M-2618.26,1995.16a1.575,1.575,0,0,0,1.575-1.574,1.575,1.575,0,0,0-1.575-1.575,1.575,1.575,0,0,0-1.575,1.575A1.575,1.575,0,0,0-2618.26,1995.16Z" fill="#9ddfd3"/>
        <path id="Path_102633" data-name="Path 102633" d="M-2606.329,1995.054a1.468,1.468,0,0,0,1.469-1.468,1.469,1.469,0,0,0-1.469-1.47,1.47,1.47,0,0,0-1.469,1.47A1.469,1.469,0,0,0-2606.329,1995.054Z" fill="#9ddfd3"/>
      </g>
    </g>
    <path id="Path_102634" data-name="Path 102634" d="M-2652.458,2059.8l15-35.689-51.777-22.205-32.11,74.765,51.314,22.4,1.417-1.627s-18.961-11.441-23.4-17.067a67.28,67.28,0,0,0-9.788-9.846,62.448,62.448,0,0,1,9.27-16.286,116.015,116.015,0,0,1,9.994-11.474Z" fill="#81c140"/>
    <path id="Path_102635" data-name="Path 102635" d="M-2695.956,1997.482c-.276.2-2.507,6.791-2.507,6.791l1.712,14.658-8.952,20.251-3.957-4.049-1.4-6.724,3.652-23.543-3.375-7.981,7.276-12.893Z" fill="#9ddfd3"/>
    <path id="Path_102636" data-name="Path 102636" d="M-2708.266,1952.2s-.255-3.188,1.559-4.706a8.123,8.123,0,0,1,3.191-1.8s-.674-1.668-2.118-1.564-1.3,2.622-3.183,3.1-3.146-.888-4.553-.037-1.924,1.036-1.258,2.184,2,2.826,3.96,2.968S-2708.266,1952.2-2708.266,1952.2Z" fill="#962d2b"/>
    <path id="Path_102637" data-name="Path 102637" d="M-2704.482,2051.014s-3.147.539-6.336,1.158l-4.922,11.46s17.91,21.7,35.365,30.919l10.348,4.517,1.417-1.627s-18.961-11.441-23.4-17.067a67.243,67.243,0,0,0-9.788-9.845,59,59,0,0,1,5.069-10.247Z" fill="#659632"/>
    <path id="Path_102638" data-name="Path 102638" d="M-2684.322,2044.194s-2.139-4.979-2.731-6.9-1.851-7.7-4.59-7.4-3.775,2.961-3.035,5.7,3.109,9.032.37,9.624-7.1-2.254-10.174-4.977-10.766-8.752-10.766-8.752-2.453.922-3.045,2.255.493,3.143.493,3.143-2-.633-3.1.7-1.548,3.655-.842,4.457c0,0-3.676,2.592-1.3,5.88a61,61,0,0,0,10.075,11.356c4.294,3.554,7.266,6.645,12.553,7.913,0,0,4.474-8.8,6.769-11.984S-2684.322,2044.194-2684.322,2044.194Z" fill="#fed2a4"/>
    <path id="Path_102639" data-name="Path 102639" d="M-2703.516,1945.7s-6.917,2.538-4.48,6.24a5.977,5.977,0,0,0,3.287-1.962A7.14,7.14,0,0,0-2703.516,1945.7Z" fill="#ff8faa"/>
    <path id="Path_102640" data-name="Path 102640" d="M-2723.356,1922.867a19.943,19.943,0,0,0,9.013-.253,19.939,19.939,0,0,0,3.5-1.448c-4.243,1.358-11.45-2.4-11.45-2.4.484-6.023,9.506-11.273,10.675-11.929-.389.005-.784.018-1.186.045-7.046.484-14.343,8.7-14.3,16.085,0,0,3.537,8.828,3.481,8.606S-2723.356,1922.867-2723.356,1922.867Z" fill="#ffce26"/>
    <path id="Path_102641" data-name="Path 102641" d="M-2708,1957.173c-14.8.944-12.514-14.662-12.514-14.662s-.668.1-1.566.261a5.124,5.124,0,0,0-1.334.725s-1.364,14.966,9.067,14.266a64.22,64.22,0,0,0,10.4-.443A11.462,11.462,0,0,0-2708,1957.173Z" fill="#ffce26"/>
    <path id="Path_102642" data-name="Path 102642" d="M-2701.327,1987.89l-5.139,8.954,2.957,7.356-4.4,32.68-1.116-1.022-1.758-7.448,3.515-23.768-2.916-7.8,6.979-12.863Z" fill="#b4fff1"/>
    <g id="Group_57741" data-name="Group 57741">
      <path id="Path_102643" data-name="Path 102643" d="M-2639.659,2107.74c-20.526,0-47.7-20.775-62.573-36.9a.585.585,0,0,1-.117-.6,73.642,73.642,0,0,1,8.813-15.956,109.548,109.548,0,0,1,10.257-11.988.6.6,0,0,1,.66-.1c.292.141,29.413,14.18,47.911,29.742a.585.585,0,0,1,.071.825.58.58,0,0,1-.824.072c-17.256-14.516-43.851-27.718-47.3-29.4a113.333,113.333,0,0,0-9.841,11.561,72.3,72.3,0,0,0-8.523,15.33c22.36,24.122,55.46,43.914,73.049,33.248,25.016-15.184,10.293-51.311-1.535-80.338-2.064-5.062-4.011-9.841-5.664-14.3-.175-.474-.366-1-.573-1.578-2.386-6.634-6.828-18.984-17.331-25.385-7.421-4.525-17.876-7.12-28.684-7.12a.585.585,0,0,1-.585-.585.585.585,0,0,1,.585-.586c11.017,0,21.694,2.657,29.295,7.29,10.856,6.615,15.387,19.219,17.822,25.989.2.571.4,1.1.57,1.569,1.646,4.436,3.592,9.208,5.65,14.261,12,29.439,26.929,66.08,1.056,81.781A23.079,23.079,0,0,1-2639.659,2107.74Z"/>
    </g>
    <g id="Group_57746" data-name="Group 57746">
      <g id="Group_57745" data-name="Group 57745">
        <g id="Group_57742" data-name="Group 57742">
          <path id="Path_102644" data-name="Path 102644" d="M-2700.41,2067.773c-8.227-1.267-22.234-15.907-23.686-20.859a4.367,4.367,0,0,1,1.778-5.062,3.443,3.443,0,0,1,.582-4.283,4.263,4.263,0,0,1,1.508-1.071,3.557,3.557,0,0,1,3.143.414.589.589,0,0,1,.22.8.588.588,0,0,1-.8.22,2.42,2.42,0,0,0-2.13-.347,3.118,3.118,0,0,0-1.09.788,2.289,2.289,0,0,0-.13,3.284.585.585,0,0,1,.126.51.583.583,0,0,1-.333.407,3.277,3.277,0,0,0-1.748,4.009c1.356,4.631,15.037,18.845,22.651,20.024a.589.589,0,0,1,.489.67A.587.587,0,0,1-2700.41,2067.773Z"/>
        </g>
        <g id="Group_57743" data-name="Group 57743">
          <path id="Path_102645" data-name="Path 102645" d="M-2704.782,2048.823a.574.574,0,0,1-.313-.09,103.566,103.566,0,0,1-10.259-8.514c-.209-.207-.456-.433-.72-.676-1.322-1.213-3.131-2.872-3.135-4.787a3.617,3.617,0,0,1,1.33-2.674c2.971-2.757,5.681-.141,7.476,1.584.337.324.83.817,1.418,1.406a84.751,84.751,0,0,0,6.38,5.976c1.523,1.161,6.167,4.694,7.988,3.822,1.318-.627,1.725-1.828.1-6.378-1.168-3.273-1.277-6.338-.289-8a2.592,2.592,0,0,1,1.848-1.3c3.544-.527,4.459,2.171,5.2,4.354.168.495.334.983.526,1.422a21.643,21.643,0,0,1,1.037,3.271,15.108,15.108,0,0,0,2.335,5.6.585.585,0,0,1-.113.821.58.58,0,0,1-.821-.113,16.007,16.007,0,0,1-2.534-6.012,21.044,21.044,0,0,0-.978-3.1c-.205-.469-.382-.987-.563-1.516-.84-2.471-1.542-3.947-3.909-3.571a1.4,1.4,0,0,0-1.021.738c-.791,1.328-.637,4.145.384,7.01,1.446,4.058,1.8,6.639-.7,7.828-2.183,1.032-5.88-1.411-9.2-3.951a84.475,84.475,0,0,1-6.5-6.077c-.582-.582-1.07-1.07-1.4-1.392-2.459-2.365-4.039-3.256-5.868-1.568a2.478,2.478,0,0,0-.951,1.813c0,1.4,1.593,2.861,2.755,3.927.275.252.533.489.752.706a104.363,104.363,0,0,0,10.059,8.355.585.585,0,0,1,.183.808A.582.582,0,0,1-2704.782,2048.823Z"/>
        </g>
        <g id="Group_57744" data-name="Group 57744">
          <path id="Path_102646" data-name="Path 102646" d="M-2708.758,2054.384a.579.579,0,0,1-.369-.13s-3.047-2.463-6.451-5.252a53.951,53.951,0,0,1-6.055-6.254.571.571,0,0,1-.621-.3.585.585,0,0,1,.237-.8c.079-.041.156-.083.209-.107a.739.739,0,0,1,.8.12,56.341,56.341,0,0,0,6.17,6.425c3.4,2.787,6.446,5.249,6.447,5.249a.587.587,0,0,1,.087.825A.581.581,0,0,1-2708.758,2054.384Z"/>
        </g>
      </g>
    </g>
    <g id="Group_57750" data-name="Group 57750">
      <g id="Group_57748" data-name="Group 57748">
        <g id="Group_57747" data-name="Group 57747">
          <path id="Path_102647" data-name="Path 102647" d="M-2709.6,1952.933a6.57,6.57,0,0,1-3.474-.989,4.3,4.3,0,0,1-2.213-2.917,2.283,2.283,0,0,1,.889-2.126,3.308,3.308,0,0,1,3.186-.22c1.467.589,1.633.524,2.005.382s.539-.213,1.209-1.646a3.314,3.314,0,0,1,2.488-2.005,2.266,2.266,0,0,1,2.1.953,4.1,4.1,0,0,1,.29,3.489,6.83,6.83,0,0,1-3.966,4.6A6.864,6.864,0,0,1-2709.6,1952.933Zm-4.52-4.011a3.258,3.258,0,0,0,1.661,2.026,5.49,5.49,0,0,0,4.94.413,5.658,5.658,0,0,0,3.267-3.817,3.114,3.114,0,0,0-.088-2.464,1.123,1.123,0,0,0-1.042-.5,2.181,2.181,0,0,0-1.553,1.336c-.795,1.7-1.136,1.963-1.842,2.24s-1.138.314-2.876-.386a2.165,2.165,0,0,0-2.047.075,1.123,1.123,0,0,0-.42,1.079Z"/>
        </g>
      </g>
      <g id="Group_57749" data-name="Group 57749">
        <path id="Path_102648" data-name="Path 102648" d="M-2708.089,1952.745a.589.589,0,0,1-.569-.441c-1.1-4.361,2.784-6.6,4.994-7.175a.583.583,0,0,1,.714.418.588.588,0,0,1-.418.716c-.215.056-5.248,1.435-4.152,5.751a.589.589,0,0,1-.424.714A.665.665,0,0,1-2708.089,1952.745Z"/>
      </g>
    </g>
    <g id="Group_57751" data-name="Group 57751">
      <path id="Path_102649" data-name="Path 102649" d="M-2720.38,1936.6a1.864,1.864,0,0,1-.245-.018c-2.467-.366-1.833-5.18-1.752-5.728a.6.6,0,0,1,.665-.494.586.586,0,0,1,.5.664c-.247,1.692-.176,4.258.764,4.4a.468.468,0,0,0,.4-.121c.765-.6,1.228-2.842,1.341-4.111a.57.57,0,0,1,.635-.532.586.586,0,0,1,.533.636c-.034.387-.375,3.817-1.784,4.928A1.677,1.677,0,0,1-2720.38,1936.6Z"/>
    </g>
    <g id="Group_57752" data-name="Group 57752">
      <path id="Path_102650" data-name="Path 102650" d="M-2706.515,1936.695a1.732,1.732,0,0,1-.276-.023c-2.46-.425-1.709-5.222-1.614-5.767a.578.578,0,0,1,.678-.478.585.585,0,0,1,.478.676c-.288,1.684-.279,4.253.657,4.413a.447.447,0,0,0,.379-.108c.8-.6,1.335-2.933,1.487-4.264a.571.571,0,0,1,.648-.516.585.585,0,0,1,.516.648c-.045.405-.491,3.978-1.949,5.07A1.648,1.648,0,0,1-2706.515,1936.695Z"/>
    </g>
    <g id="Group_57753" data-name="Group 57753">
      <path id="Path_102651" data-name="Path 102651" d="M-2766.309,1993.72a.589.589,0,0,1-.369-.13.588.588,0,0,1-.086-.825,24.071,24.071,0,0,1,3.293-3.3c13.043-11.215,25.144-13.1,35.82-14.761.917-.143,1.823-.284,2.719-.429a.579.579,0,0,1,.672.484.584.584,0,0,1-.484.672c-.9.147-1.807.288-2.727.431-10.521,1.639-22.447,3.494-35.235,14.491a23,23,0,0,0-3.147,3.155A.587.587,0,0,1-2766.309,1993.72Z"/>
    </g>
    <g id="Group_57754" data-name="Group 57754">
      <path id="Path_102652" data-name="Path 102652" d="M-2717.772,2010.155a.613.613,0,0,1-.575-.468l-7.065-34.316a.581.581,0,0,1,.19-.561l9.928-8.593a.6.6,0,0,1,.461-.14.589.589,0,0,1,.409.255l11.207,16.588,10.811-16.581a.589.589,0,0,1,.39-.258.591.591,0,0,1,.455.111l10.056,7.6a.586.586,0,0,1,.221.583l-5.8,28.321a.583.583,0,0,1-.691.458.586.586,0,0,1-.458-.691l5.727-27.96-9.262-7-10.756,16.5,11.977,21.709a.583.583,0,0,1-.23.8.58.58,0,0,1-.795-.23l-11.644-21.1-14.048,24.679A.583.583,0,0,1-2717.772,2010.155Zm-6.422-34.684,6.682,32.456,13.615-23.92-11.13-16.472Z"/>
    </g>
    <g id="Group_57755" data-name="Group 57755">
      <path id="Path_102653" data-name="Path 102653" d="M-2707.27,2005.245a.582.582,0,0,1-.54-.359l-3.26-7.816a.587.587,0,0,1,.314-.766.583.583,0,0,1,.767.314l3.109,7.454,8-.017,2.373-7.116a.587.587,0,0,1,.74-.371.584.584,0,0,1,.371.74l-2.507,7.517a.584.584,0,0,1-.553.4l-8.808.019Z"/>
    </g>
    <g id="Group_57756" data-name="Group 57756">
      <path id="Path_102654" data-name="Path 102654" d="M-2691.915,1967.245a.587.587,0,0,1-.585-.555l-1.134-22.527a.589.589,0,0,1,.556-.616.6.6,0,0,1,.615.556l1.134,22.526a.589.589,0,0,1-.556.616Z"/>
    </g>
    <g id="Group_57757" data-name="Group 57757">
      <path id="Path_102655" data-name="Path 102655" d="M-2714.91,1967.245a.586.586,0,0,1-.585-.593l.109-8.919a.585.585,0,0,1,.585-.578.586.586,0,0,1,.586.593l-.109,8.919A.586.586,0,0,1-2714.91,1967.245Z"/>
    </g>
    <g id="Group_57758" data-name="Group 57758">
      <path id="Path_102656" data-name="Path 102656" d="M-2710.786,2028.995a.6.6,0,0,1-.58-.672l3.516-23.75a.593.593,0,0,1,.667-.494.588.588,0,0,1,.493.667l-3.516,23.75A.586.586,0,0,1-2710.786,2028.995Z"/>
    </g>
    <g id="Group_57759" data-name="Group 57759">
      <path id="Path_102657" data-name="Path 102657" d="M-2696.683,2019.86a.585.585,0,0,1-.582-.514l-1.779-14.634a.586.586,0,0,1,.51-.653.582.582,0,0,1,.653.51l1.78,14.634a.587.587,0,0,1-.51.654Z"/>
    </g>
    <g id="Group_57760" data-name="Group 57760">
      <path id="Path_102658" data-name="Path 102658" d="M-2709.66,2035.718a.586.586,0,0,1-.574-.465l-6.081-29.136a.588.588,0,0,1,.454-.695.593.593,0,0,1,.7.454l6.081,29.136a.588.588,0,0,1-.454.7A.631.631,0,0,1-2709.66,2035.718Z"/>
    </g>
    <g id="Group_57761" data-name="Group 57761">
      <path id="Path_102659" data-name="Path 102659" d="M-2702.9,2128.848a.586.586,0,0,1-.586-.582l-.243-43.712a.592.592,0,0,1,.586-.589.584.584,0,0,1,.585.582l.243,43.711a.585.585,0,0,1-.582.59Z"/>
    </g>
    <g id="Group_57762" data-name="Group 57762">
      <path id="Path_102660" data-name="Path 102660" d="M-2713.432,1958.328c-3.139,0-6.406-.374-8.429-3.457-2.071-3.156-2.084-7.271-2.095-10.9,0-.8-.006-1.574-.029-2.325-.077-2.473.294-17.58.309-18.221a.586.586,0,0,1,.586-.571.588.588,0,0,1,.585.6c0,.157-.384,15.716-.308,18.155.024.763.026,1.553.028,2.359.013,3.637.024,7.4,1.9,10.262,2,3.043,5.531,2.971,8.941,2.909.437-.009.87-.017,1.3-.019a33.915,33.915,0,0,0,7.419-.738c2-.45,4.068-.915,5.237-2.646,1.286-1.9,1.558-4.466,1.65-6.489a25.5,25.5,0,0,0-.1-3.962c-.39-3.194-.946-8.149-.946-8.149a.569.569,0,0,1,.034-.274,7.7,7.7,0,0,1,2.3-3.2,7.586,7.586,0,0,1,5.611-1.7,7.6,7.6,0,0,1,5.172,2.761,7.67,7.67,0,0,1-1.055,10.781,7.622,7.622,0,0,1-9.525.163.587.587,0,0,1-.107-.823.587.587,0,0,1,.823-.107,6.451,6.451,0,0,0,8.063-.137,6.5,6.5,0,0,0,.9-9.134,6.452,6.452,0,0,0-4.382-2.338,6.407,6.407,0,0,0-4.752,1.444,6.5,6.5,0,0,0-1.9,2.582c.094.836.578,5.127.929,8a26.8,26.8,0,0,1,.1,4.149c-.1,2.177-.4,4.949-1.849,7.092-1.429,2.114-3.83,2.657-5.951,3.135a35.01,35.01,0,0,1-7.67.765c-.422,0-.849.011-1.28.019C-2712.415,1958.317-2712.923,1958.328-2713.432,1958.328Z"/>
    </g>
    <g id="Group_57763" data-name="Group 57763">
      <path id="Path_102661" data-name="Path 102661" d="M-2722.964,1928.818a.581.581,0,0,1-.247-.055.585.585,0,0,1-.284-.778c.013-.029,1.439-2.956,5.587-1.875a.585.585,0,0,1,.418.715.577.577,0,0,1-.715.419c-3.213-.839-4.217,1.213-4.228,1.234A.584.584,0,0,1-2722.964,1928.818Z"/>
    </g>
    <g id="Group_57764" data-name="Group 57764">
      <path id="Path_102662" data-name="Path 102662" d="M-2702.764,1929.148a.585.585,0,0,1-.461-.224c-2.719-3.477-5.444-1.841-5.559-1.769a.59.59,0,0,1-.806-.183.583.583,0,0,1,.177-.805c.038-.022,3.715-2.3,7.111,2.034a.585.585,0,0,1-.1.822A.584.584,0,0,1-2702.764,1929.148Z"/>
    </g>
    <g id="Group_57765" data-name="Group 57765">
      <path id="Path_102663" data-name="Path 102663" d="M-2687.941,1941.843a.582.582,0,0,1-.26-.06l-5.5-2.719a.59.59,0,0,1-.318-.428.584.584,0,0,1,.16-.508l5-5.107a.584.584,0,0,1,.828-.01.586.586,0,0,1,.008.829l-4.433,4.531,4.774,2.361a.586.586,0,0,1,.265.785A.582.582,0,0,1-2687.941,1941.843Z"/>
    </g>
    <g id="Group_57766" data-name="Group 57766">
      <path id="Path_102664" data-name="Path 102664" d="M-2702.993,1913.73a.585.585,0,0,1-.367-.129.585.585,0,0,1-.089-.824l2.876-3.573a.587.587,0,0,1,.823-.089.586.586,0,0,1,.088.824l-2.876,3.572A.579.579,0,0,1-2702.993,1913.73Z"/>
    </g>
    <g id="Group_57767" data-name="Group 57767">
      <path id="Path_102665" data-name="Path 102665" d="M-2711.057,1942.225a.586.586,0,0,1-.424-.18.587.587,0,0,1,.019-.829c1.71-1.635,4.838-1.346,7.36-1.113a10.632,10.632,0,0,0,2.557.07c.678-.177,1.6-4.006,1.932-8.031l.429-1.748a22.786,22.786,0,0,1-5.547-12.269,22.136,22.136,0,0,1-19.839,5.087.586.586,0,0,1-.437-.7.578.578,0,0,1,.7-.437,20.944,20.944,0,0,0,19.606-5.606.587.587,0,0,1,.638-.162.587.587,0,0,1,.386.531,21.99,21.99,0,0,0,5.561,12.987.588.588,0,0,1,.143.546l-.491,1.965c-.2,2.468-.9,8.479-2.787,8.974a10.078,10.078,0,0,1-2.965-.037c-2.156-.2-5.114-.473-6.44.795A.58.58,0,0,1-2711.057,1942.225Z"/>
    </g>
    <g id="Group_57768" data-name="Group 57768">
      <path id="Path_102666" data-name="Path 102666" d="M-2723.356,1943.805a.582.582,0,0,1-.493-.269.586.586,0,0,1,.177-.81,5.564,5.564,0,0,1,4.6-.542.585.585,0,0,1,.35.749.585.585,0,0,1-.747.354,4.45,4.45,0,0,0-3.574.426A.589.589,0,0,1-2723.356,1943.805Z"/>
    </g>
    <g id="Group_57769" data-name="Group 57769">
      <path id="Path_102667" data-name="Path 102667" d="M-2723.408,1932.777a.586.586,0,0,1-.526-.328c-.4-.8-3.87-7.914-3.753-9.843.03-.478.827-11.763,10.824-15.342a19.232,19.232,0,0,1,16.485,1.758c1.675-.5,10.179-2.629,13.452,4.66,3.489,7.766,1.026,16.894.919,17.279a.581.581,0,0,1-.721.409.585.585,0,0,1-.409-.721c.024-.091,2.454-9.114-.859-16.486-3.175-7.075-11.909-4.077-12.276-3.946a.6.6,0,0,1-.533-.073,18.366,18.366,0,0,0-15.662-1.777c-9.278,3.322-10.022,13.863-10.049,14.31-.075,1.22,2.189,6.324,3.633,9.254a.587.587,0,0,1-.266.785A.592.592,0,0,1-2723.408,1932.777Z"/>
    </g>
    <g id="Group_57770" data-name="Group 57770">
      <path id="Path_102668" data-name="Path 102668" d="M-2714.343,1944.082a5.92,5.92,0,0,1-3.279-.83,3.3,3.3,0,0,1-1.425-2.258,5.5,5.5,0,0,1,1.339-3.992,15.2,15.2,0,0,0,2.382-3.817,5.36,5.36,0,0,0-.505-5.027.585.585,0,0,1,.111-.821.584.584,0,0,1,.82.108,6.532,6.532,0,0,1,.666,6.166,16.284,16.284,0,0,1-2.555,4.121,4.336,4.336,0,0,0-1.1,3.1,2.1,2.1,0,0,0,.941,1.467,4.91,4.91,0,0,0,2.62.616.585.585,0,0,1,.569.6A.586.586,0,0,1-2714.343,1944.082Z"/>
    </g>
    <g id="Group_57771" data-name="Group 57771">
      <path id="Path_102669" data-name="Path 102669" d="M-2647.378,1970.2a.585.585,0,0,1-.586-.585.64.64,0,0,1,.123-.36,56.608,56.608,0,0,0,3.064-4.823.591.591,0,0,1,.8-.214.591.591,0,0,1,.215.8c-1.662,2.873-2.9,4.608-3.134,4.926A.583.583,0,0,1-2647.378,1970.2Zm6.252-10.864a.59.59,0,0,1-.252-.056.586.586,0,0,1-.277-.781c.962-2.016,1.86-4.085,2.67-6.151a.589.589,0,0,1,.759-.333.587.587,0,0,1,.333.761c-.821,2.092-1.73,4.188-2.7,6.227A.585.585,0,0,1-2641.126,1959.339Zm4.919-12.558a.558.558,0,0,1-.174-.027.586.586,0,0,1-.386-.732c.66-2.128,1.245-4.3,1.739-6.471a.579.579,0,0,1,.7-.44.583.583,0,0,1,.441.7c-.5,2.194-1.092,4.4-1.761,6.557A.583.583,0,0,1-2636.207,1946.781Zm2.986-13.144a.6.6,0,0,1-.58-.67c.324-2.216.558-4.457.693-6.66a.585.585,0,0,1,.622-.548.588.588,0,0,1,.55.621c-.14,2.235-.377,4.508-.7,6.756A.588.588,0,0,1-2633.221,1933.637Zm.829-13.449a.586.586,0,0,1-.586-.573c-.052-2.23-.2-4.476-.446-6.675a.586.586,0,0,1,.518-.648.6.6,0,0,1,.646.518c.249,2.233.4,4.514.454,6.779a.587.587,0,0,1-.573.6Zm-1.49-13.389a.587.587,0,0,1-.574-.47c-.435-2.168-.977-4.352-1.608-6.495a.588.588,0,0,1,.4-.728.591.591,0,0,1,.729.4c.64,2.176,1.188,4.4,1.631,6.6a.586.586,0,0,1-.46.69A.491.491,0,0,1-2633.882,1906.8Zm-113.627-10.724a7.294,7.294,0,0,1-4.19-1.377.585.585,0,0,1-.149-.814.583.583,0,0,1,.816-.15,5.948,5.948,0,0,0,5.851.7.588.588,0,0,1,.762.324.586.586,0,0,1-.326.763A7.371,7.371,0,0,1-2747.509,1896.075Zm109.831-2.2a.587.587,0,0,1-.546-.374c-.8-2.054-1.7-4.118-2.678-6.136a.587.587,0,0,1,.271-.783.59.59,0,0,1,.784.271c.992,2.047,1.905,4.14,2.715,6.222a.587.587,0,0,1-.333.759A.587.587,0,0,1-2637.678,1893.873Zm-102.135-2.554a.577.577,0,0,1-.365-.128.584.584,0,0,1-.092-.823,25.912,25.912,0,0,0,3.393-5.634.589.589,0,0,1,.774-.3.585.585,0,0,1,.3.773,27.077,27.077,0,0,1-3.548,5.889A.583.583,0,0,1-2739.813,1891.319Zm-15.688-1.749a.586.586,0,0,1-.529-.335,24.29,24.29,0,0,1-1.974-6.606.586.586,0,0,1,.49-.668.567.567,0,0,1,.67.489,23.023,23.023,0,0,0,1.872,6.282.584.584,0,0,1-.279.78A.574.574,0,0,1-2755.5,1889.57Zm111.951-7.825a.585.585,0,0,1-.506-.291c-1.106-1.9-2.311-3.8-3.582-5.663a.587.587,0,0,1,.154-.815.588.588,0,0,1,.814.154c1.288,1.886,2.508,3.815,3.627,5.733a.588.588,0,0,1-.211.8A.589.589,0,0,1-2643.55,1881.745Zm-90.722-2.593a.586.586,0,0,1-.123-.014.585.585,0,0,1-.45-.7,37.924,37.924,0,0,0,.8-6.583.606.606,0,0,1,.607-.565.587.587,0,0,1,.565.606,38.816,38.816,0,0,1-.831,6.789A.584.584,0,0,1-2734.272,1879.152Zm-23.355-2.752a.6.6,0,0,1-.584-.639,27.387,27.387,0,0,1,1.465-6.718.588.588,0,0,1,.748-.355.585.585,0,0,1,.355.749,26.331,26.331,0,0,0-1.4,6.43A.588.588,0,0,1-2757.627,1876.4Zm106.469-5.778a.584.584,0,0,1-.457-.219c-1.416-1.768-2.9-3.464-4.4-5.04a.586.586,0,0,1,.019-.829.583.583,0,0,1,.828.019c1.527,1.6,3.03,3.323,4.467,5.117a.588.588,0,0,1-.09.824A.59.59,0,0,1-2651.158,1870.622Zm-82.589-4.89a.587.587,0,0,1-.582-.516,47.484,47.484,0,0,0-1.258-6.537.587.587,0,0,1,.416-.717.582.582,0,0,1,.718.416,48.82,48.82,0,0,1,1.288,6.7.588.588,0,0,1-.512.652A.584.584,0,0,1-2733.747,1865.732Zm-19.355-1.875a.583.583,0,0,1-.339-.108.586.586,0,0,1-.139-.817,24.735,24.735,0,0,1,4.734-5,.583.583,0,0,1,.823.092.585.585,0,0,1-.092.823,23.552,23.552,0,0,0-4.509,4.76A.586.586,0,0,1-2753.1,1863.857Zm92.638-2.97a.585.585,0,0,1-.384-.143,65.634,65.634,0,0,0-5.262-4.116.588.588,0,0,1-.143-.817.585.585,0,0,1,.817-.142,66.48,66.48,0,0,1,5.356,4.19.586.586,0,0,1,.059.827A.581.581,0,0,1-2660.464,1860.887Zm-82.284-5.438a.587.587,0,0,1-.522-.321.586.586,0,0,1,.256-.788c1.661-.845,3.378-1.655,5.12-2.415a55.608,55.608,0,0,0-2.717-5.569.585.585,0,0,1,.226-.8.586.586,0,0,1,.8.226,57.028,57.028,0,0,1,2.772,5.68.591.591,0,0,1,.725.328.587.587,0,0,1-.312.768c-2.07.874-4.117,1.824-6.081,2.824A.586.586,0,0,1-2742.748,1855.449Zm71.262-2.287a.579.579,0,0,1-.283-.074,60.763,60.763,0,0,0-6.014-2.9.586.586,0,0,1-.315-.766.587.587,0,0,1,.766-.317,62.113,62.113,0,0,1,6.128,2.957.584.584,0,0,1,.23.8A.584.584,0,0,1-2671.486,1853.162Zm-58.843-2.96a.586.586,0,0,1-.554-.4.587.587,0,0,1,.364-.745c2.133-.73,4.318-1.393,6.493-1.971a.582.582,0,0,1,.717.417.587.587,0,0,1-.416.717c-2.149.57-4.307,1.225-6.414,1.946A.585.585,0,0,1-2730.329,1850.2Zm46.414-2.209a.585.585,0,0,1-.164-.025,62.746,62.746,0,0,0-6.5-1.528.586.586,0,0,1-.473-.681.583.583,0,0,1,.68-.474,64.036,64.036,0,0,1,6.623,1.559.586.586,0,0,1,.4.727A.588.588,0,0,1-2683.915,1847.993Zm-33.385-1.229a.589.589,0,0,1-.576-.48.587.587,0,0,1,.469-.683c2.243-.417,4.5-.744,6.719-.974a.574.574,0,0,1,.644.523.587.587,0,0,1-.523.643c-2.185.226-4.414.549-6.625.96A.57.57,0,0,1-2717.3,1846.764Zm20.139-1.172c-2.241-.172-4.505-.241-6.727-.2a.6.6,0,0,1-.595-.576.585.585,0,0,1,.576-.595c2.264-.038,4.56.03,6.791.2a.586.586,0,0,1,.539.63A.586.586,0,0,1-2697.161,1845.592Zm-46.548-4.627a.581.581,0,0,1-.476-.244,64.864,64.864,0,0,0-4.168-5.221.586.586,0,0,1,.051-.827.584.584,0,0,1,.827.05,65.806,65.806,0,0,1,4.243,5.316.585.585,0,0,1-.136.817A.576.576,0,0,1-2743.709,1840.965Zm-8.917-10.089a.582.582,0,0,1-.4-.156c-1.606-1.5-3.32-2.955-5.1-4.335a.586.586,0,0,1-.1-.822.582.582,0,0,1,.823-.1c1.8,1.4,3.544,2.882,5.175,4.4a.587.587,0,0,1,.03.829A.588.588,0,0,1-2752.626,1830.876Zm-10.623-8.286a.588.588,0,0,1-.322-.1c-1.82-1.2-3.749-2.358-5.734-3.458a.585.585,0,0,1-.228-.8.587.587,0,0,1,.8-.228c2.009,1.113,3.964,2.292,5.81,3.5a.587.587,0,0,1,.167.811A.584.584,0,0,1-2763.249,1822.59Zm-82.9-6.246a.59.59,0,0,1-.473-.238.586.586,0,0,1,.126-.819,38.2,38.2,0,0,1,5.983-3.359.589.589,0,0,1,.78.283.587.587,0,0,1-.283.779,37.947,37.947,0,0,0-5.787,3.241A.586.586,0,0,1-2846.152,1816.344Zm71.126-.3a.56.56,0,0,1-.248-.057c-2.047-.96-4.119-1.856-6.156-2.661a.585.585,0,0,1-.33-.761.584.584,0,0,1,.759-.329c2.062.814,4.156,1.719,6.224,2.691a.584.584,0,0,1,.282.779A.588.588,0,0,1-2775.026,1816.047Zm-12.543-4.938a.573.573,0,0,1-.177-.028c-2.151-.681-4.322-1.283-6.458-1.788a.589.589,0,0,1-.435-.706.586.586,0,0,1,.706-.436c2.162.513,4.364,1.123,6.541,1.813a.585.585,0,0,1,.382.735A.588.588,0,0,1-2787.569,1811.109Zm-46.431-.557a.585.585,0,0,1-.556-.4.584.584,0,0,1,.369-.741,65.685,65.685,0,0,1,6.561-1.817.59.59,0,0,1,.7.445.588.588,0,0,1-.447.7,64.487,64.487,0,0,0-6.44,1.783A.576.576,0,0,1-2834,1810.552Zm33.313-2.535c-2.3-.348-4.543-.593-6.742-.739a.588.588,0,0,1-.546-.624.581.581,0,0,1,.625-.546c2.231.148,4.5.4,6.751.743a.589.589,0,0,1,.492.668A.59.59,0,0,1-2800.687,1808.017Zm-20.169-.4a.586.586,0,0,1-.582-.515.587.587,0,0,1,.512-.652c2.23-.268,4.512-.432,6.78-.487a.588.588,0,0,1,.6.572.586.586,0,0,1-.57.6c-2.234.054-4.477.215-6.67.479A.54.54,0,0,1-2820.856,1807.618Z" fill="#ffc93c"/>
    </g>
    <g id="Group_57772" data-name="Group 57772">
      <path id="Path_102670" data-name="Path 102670" d="M-2700.468,1909.438a.586.586,0,0,1-.153-.021.585.585,0,0,1-.414-.713c.027-.1.512-2.255-2.109-4.5a.585.585,0,0,1-.066-.825.588.588,0,0,1,.827-.065c3.222,2.753,2.512,5.567,2.482,5.686A.589.589,0,0,1-2700.468,1909.438Z"/>
    </g>
    <g id="Group_57773" data-name="Group 57773">
      <path id="Path_102671" data-name="Path 102671" d="M-2699.029,1909.862a.6.6,0,0,1-.586-.623,8.211,8.211,0,0,1,1.3-3.824.589.589,0,0,1,.819-.128.587.587,0,0,1,.126.82,7.029,7.029,0,0,0-1.073,3.207A.588.588,0,0,1-2699.029,1909.862Z"/>
    </g>
    <g id="Group_57774" data-name="Group 57774">
      <path id="Path_102672" data-name="Path 102672" d="M-2669.307,2099.653a.577.577,0,0,1-.232-.047l-52.033-22.326a.586.586,0,0,1-.307-.771l7.638-17.8a.585.585,0,0,1,.77-.307.587.587,0,0,1,.307.77l-7.407,17.263,50.957,21.863.465-1.086a.586.586,0,0,1,.77-.307.585.585,0,0,1,.307.77l-.7,1.625a.589.589,0,0,1-.322.313A.581.581,0,0,1-2669.307,2099.653Z"/>
    </g>
    <g id="Group_57775" data-name="Group 57775">
      <path id="Path_102673" data-name="Path 102673" d="M-2652.459,2060.388a.589.589,0,0,1-.231-.047.586.586,0,0,1-.307-.771l15.029-35.028-50.956-21.864-15.877,37a.588.588,0,0,1-.77.307.585.585,0,0,1-.307-.77l16.108-37.542a.585.585,0,0,1,.322-.313.576.576,0,0,1,.448.006l52.034,22.326a.587.587,0,0,1,.307.771l-15.261,35.567A.586.586,0,0,1-2652.459,2060.388Z"/>
    </g>
    <g id="Group_57776" data-name="Group 57776">
      <path id="Path_102674" data-name="Path 102674" d="M-2647.649,2128.351a.593.593,0,0,1-.584-.629c.6-8.294,0-21.374,0-21.506a.587.587,0,0,1,.559-.612.656.656,0,0,1,.612.559c.006.132.607,13.28,0,21.645A.587.587,0,0,1-2647.649,2128.351Z"/>
    </g>
    <path id="Path_102675" data-name="Path 102675" d="M-2909.453,1997.941l9.336,33.749,1.66,3.748,3.971,3.247,1.911.959,17.275-.061,6.607,20.465h-50.055l-17.165-61.807Z" fill="#ffc93c"/>
    <path id="Path_102676" data-name="Path 102676" d="M-2964.823,2013.553s-19.529-2.138-30.853-13.574l-13.363,28.858s-4-18.823-5.032-23.4-1.172-13.608-26.042-13.46l-19.615-.006s-23.394-.874-31.36,12.282-8.3,19.819-8.3,19.819l-19.574,77.224-5.441,26.466h121.871l-1.316-36.809s9.976.949,17.4-9.111a106.867,106.867,0,0,0,14.616-28.933c2.137-6.792,6.776-24.076,6.776-24.076Z" fill="#81c140"/>
    <path id="Path_102677" data-name="Path 102677" d="M-3004.141,2090.925s16.688,2.5,27.938-27.068,11.25-38.571,11.25-38.571l.13-11.147-6.133-2s-.587,17.161-10.229,38.375A295.976,295.976,0,0,1-3004.141,2090.925Z" fill="#659632"/>
    <path id="Path_102678" data-name="Path 102678" d="M-3120.432,2108.451s42.014,20.031,101.8-1.192v-34.408l-80.568,4.34-19.175,9.6,2.581,8.143-3.167,6.369Z" fill="#659632"/>
    <path id="Path_102679" data-name="Path 102679" d="M-3112.151,1923.8v85.759a168.242,168.242,0,0,1,48.185-23.186c28.761-8.6,41-9.142,41-9.142v-85.485a233.726,233.726,0,0,0-46.926,11.018A187.5,187.5,0,0,0-3112.151,1923.8Z" fill="#fff"/>
    <path id="Path_102680" data-name="Path 102680" d="M-2771.135,1947.346l-2.5-8.46-4.031-4.468-3.965-1.324h-128.9l-3.492,1.053-4.264,4.261-1.333,3.941,1.022,5,22.084,79.833,1.66,3.748,2.837,2.678,3.045,1.529,80.468-.286,51.449-30.2Z" fill="#9ddfd3"/>
    <path id="Path_102681" data-name="Path 102681" d="M-2781.634,1945.347l-2.343-2.872-3.232-.972-117.426.024-3.026,1.561-1.131,3.481,20.9,75.279,2.143,2.832,4.214,1.981h78.507s40.641-30.124,40.641-30.457S-2781.634,1945.347-2781.634,1945.347Z" fill="#fff"/>
    <path id="Path_102682" data-name="Path 102682" d="M-2781.488,2001.559s-12.59,2.449-18.084,13.41-11.459,24.776-13.623,28.712-10.279,5.272-12.622,1.4-15.236-44.071-15.236-44.071-4.16-4.9-18.992-4.022-16.818,9.478-16.818,9.478,4.763,30.6,9.537,42.844,13.856,38.866,40.407,38.795c0,0,11.385.54,15.582-1.32,0,0-2.095,34.626-4.557,40.979h88.632s-1.128-30.735-1.083-40.063,1.436-25.429.573-35.089a98.088,98.088,0,0,1,0-17.481l-38.061-37.477Z" fill="#f24872"/>
    <g id="Group_57778" data-name="Group 57778">
      <g id="Group_57777" data-name="Group 57777">
        <circle id="Ellipse_4147" data-name="Ellipse 4147" cx="2.005" cy="2.005" r="2.005" transform="translate(-2812.742 1849.838) rotate(-77.881)" fill="#81c140"/>
        <path id="Path_102683" data-name="Path 102683" d="M-2794.775,1850.407a2.109,2.109,0,0,0,2.108-2.109,2.109,2.109,0,0,0-2.108-2.109,2.109,2.109,0,0,0-2.109,2.109A2.109,2.109,0,0,0-2794.775,1850.407Z" fill="#81c140"/>
        <path id="Path_102684" data-name="Path 102684" d="M-2779.191,1850.252a1.953,1.953,0,0,0,1.953-1.954,1.953,1.953,0,0,0-1.953-1.953,1.953,1.953,0,0,0-1.953,1.953A1.953,1.953,0,0,0-2779.191,1850.252Z" fill="#81c140"/>
        <circle id="Ellipse_4148" data-name="Ellipse 4148" cx="2.109" cy="2.109" r="2.109" transform="translate(-2812.469 1861.774)" fill="#81c140"/>
        <path id="Path_102685" data-name="Path 102685" d="M-2794.775,1866.1a2.213,2.213,0,0,0,2.212-2.213,2.213,2.213,0,0,0-2.212-2.213,2.213,2.213,0,0,0-2.213,2.213A2.213,2.213,0,0,0-2794.775,1866.1Z" fill="#81c140"/>
        <path id="Path_102686" data-name="Path 102686" d="M-2779.191,1865.94a2.057,2.057,0,0,0,2.057-2.057,2.057,2.057,0,0,0-2.057-2.057,2.057,2.057,0,0,0-2.057,2.057A2.057,2.057,0,0,0-2779.191,1865.94Z" fill="#81c140"/>
        <path id="Path_102687" data-name="Path 102687" d="M-2810.36,1881.421a1.953,1.953,0,0,0,1.953-1.953,1.953,1.953,0,0,0-1.953-1.954,1.954,1.954,0,0,0-1.954,1.954A1.954,1.954,0,0,0-2810.36,1881.421Z" fill="#81c140"/>
        <path id="Path_102688" data-name="Path 102688" d="M-2794.775,1881.525a2.056,2.056,0,0,0,2.056-2.057,2.056,2.056,0,0,0-2.056-2.058,2.057,2.057,0,0,0-2.058,2.058A2.057,2.057,0,0,0-2794.775,1881.525Z" fill="#81c140"/>
        <path id="Path_102689" data-name="Path 102689" d="M-2779.191,1881.386a1.919,1.919,0,0,0,1.919-1.918,1.919,1.919,0,0,0-1.919-1.919,1.919,1.919,0,0,0-1.919,1.919A1.919,1.919,0,0,0-2779.191,1881.386Z" fill="#81c140"/>
      </g>
    </g>
    <g id="Group_57780" data-name="Group 57780">
      <g id="Group_57779" data-name="Group 57779">
        <circle id="Ellipse_4149" data-name="Ellipse 4149" cx="2.005" cy="2.005" r="2.005" transform="matrix(0.21, -0.978, 0.978, 0.21, -3112.423, 1798.206)" fill="#9ddfd3"/>
        <path id="Path_102690" data-name="Path 102690" d="M-3094.457,1798.775a2.109,2.109,0,0,0,2.109-2.109,2.109,2.109,0,0,0-2.109-2.108,2.108,2.108,0,0,0-2.109,2.108A2.109,2.109,0,0,0-3094.457,1798.775Z" fill="#9ddfd3"/>
        <path id="Path_102691" data-name="Path 102691" d="M-3078.873,1798.62a1.954,1.954,0,0,0,1.954-1.954,1.954,1.954,0,0,0-1.954-1.953,1.954,1.954,0,0,0-1.953,1.953A1.954,1.954,0,0,0-3078.873,1798.62Z" fill="#9ddfd3"/>
        <circle id="Ellipse_4150" data-name="Ellipse 4150" cx="2.109" cy="2.109" r="2.109" transform="translate(-3112.151 1810.142)" fill="#9ddfd3"/>
        <path id="Path_102692" data-name="Path 102692" d="M-3094.457,1814.464a2.212,2.212,0,0,0,2.212-2.213,2.212,2.212,0,0,0-2.212-2.213,2.213,2.213,0,0,0-2.213,2.213A2.213,2.213,0,0,0-3094.457,1814.464Z" fill="#9ddfd3"/>
        <path id="Path_102693" data-name="Path 102693" d="M-3078.873,1814.308a2.057,2.057,0,0,0,2.057-2.057,2.057,2.057,0,0,0-2.057-2.057,2.057,2.057,0,0,0-2.057,2.057A2.057,2.057,0,0,0-3078.873,1814.308Z" fill="#9ddfd3"/>
        <path id="Path_102694" data-name="Path 102694" d="M-3110.042,1829.789a1.953,1.953,0,0,0,1.954-1.953,1.954,1.954,0,0,0-1.954-1.954,1.953,1.953,0,0,0-1.953,1.954A1.952,1.952,0,0,0-3110.042,1829.789Z" fill="#9ddfd3"/>
        <path id="Path_102695" data-name="Path 102695" d="M-3094.457,1829.893a2.057,2.057,0,0,0,2.057-2.057,2.057,2.057,0,0,0-2.057-2.057,2.057,2.057,0,0,0-2.057,2.057A2.057,2.057,0,0,0-3094.457,1829.893Z" fill="#9ddfd3"/>
        <path id="Path_102696" data-name="Path 102696" d="M-3078.873,1829.754a1.918,1.918,0,0,0,1.919-1.918,1.919,1.919,0,0,0-1.919-1.919,1.919,1.919,0,0,0-1.918,1.919A1.918,1.918,0,0,0-3078.873,1829.754Z" fill="#9ddfd3"/>
      </g>
    </g>
    <path id="Path_102697" data-name="Path 102697" d="M-2846.251,1997.519l2.873-9.493s2.32-6.276-.931-7.321-5.224,2.585-5.831,4.54-1.367,5.212-5.334,3.561c0,0-2.171-1.541-3.763-8.287a104.573,104.573,0,0,0-5.432-15.3s-1.59-4.32-4.705-3.159-2.384,4.926-1.435,7.779,3.373,10.651,3.373,10.651-5.021-.435-5.315,3.779c0,0-4.279,1.322-4.535,4.489s1.179,8.875,2.028,10.636,1.593,3.025,1.593,3.025a23.347,23.347,0,0,1,11.947-5.275A70.465,70.465,0,0,1-2846.251,1997.519Z" fill="#fed2a4"/>
    <path id="Path_102698" data-name="Path 102698" d="M-3059.026,1991.941l-.2-16.492s-5.091,1.619-7.36-4.747,8.434-7.522,9.507-6.977c0,0,6.768-3.174,9.545-4.885,5.189-3.2,9.221-12.16,9.221-12.16l3.151,4.493,2.8,16.485s.951,10.957-1.537,13.571a9.457,9.457,0,0,1-7.3,3.025l.579,7.721s1.965,6.318,2.248,7.4,1.763,6.231-2.9,7.637-8.554-1.465-10.865-4.239S-3059.026,1991.941-3059.026,1991.941Z" fill="#fed2a4"/>
    <path id="Path_102699" data-name="Path 102699" d="M-2990.481,2003.829l3.939-6.679s2.269-12,3.231-12.9,2-3.481,7.181-3.353a7.665,7.665,0,0,0,1.113-.759c.13-.182,9.346-10.588,9.346-10.588a3.9,3.9,0,0,1,3.64.481c1.595,1.3,1.163,3.858.343,5.3s-5.521,7.664-5.521,7.664,4.755.047,5.246,2.186l-1.962,2.061-.606,18.839s-4.641,5.64-6.936,6.061C-2971.467,2012.143-2986.4,2007.827-2990.481,2003.829Z" fill="#fed2a4"/>
    <path id="Path_102700" data-name="Path 102700" d="M-3035.522,1951.066a13.3,13.3,0,0,0-3.094-11.612c-4.806-5.655-19.861-.2-19.861-.2s2.144-6.621-1.024-11.85-10.053-7.248-16.271-4.128-8.518,11.143-7.294,16.644,5.007,8.831,8.52,8.98a32.573,32.573,0,0,0,.3,14.647c2.026,7.857,6.978,14.06,15.051,14.623l-.033-2.722s-6.07.916-7.032-4.266a6.42,6.42,0,0,1,4.338-7.635,18.874,18.874,0,0,1,3.99.2,33.255,33.255,0,0,0,7.144-2.813,33.268,33.268,0,0,0,8.162-6.943c.98-1.311,4.385-7.011,4.385-7.011S-3035.839,1949.493-3035.522,1951.066Z" fill="#ffd566"/>
    <path id="Path_102701" data-name="Path 102701" d="M-2789.038,1959.782s-.954-9.09,2.914-12.752c0,0,7.21-2.315,13.436.666,0,0,8.876-1.521,12.067-1.157s10.6,5.118,11.594,11.29a38.51,38.51,0,0,1-.446,15.453c-1.005,3.932-2.85,10.108-2.184,13.924a14.993,14.993,0,0,0,9.143,11.127c5.885,2.535,11.241,6.859,13.423,10.206s6.585,11.428,7,17.573-1.862,16.037-7.386,19.308a24.06,24.06,0,0,1-22.079,1.853c-8.91-3.617-10.718-8.212-10.916-11.207s2.672-17.875,2.154-21.132a10.241,10.241,0,0,0-9-7.954c-5.29-.634-13.373-2.508-14.84-9.5s-2-10.679-2-10.679Z" fill="#494aa6"/>
    <path id="Path_102702" data-name="Path 102702" d="M-2779.942,1969.359a8.264,8.264,0,0,1,5.782-.076c2.941,1.16,4.406,5.458,3.313,8.056a6.591,6.591,0,0,1-7.756,3.874s-6.654,4.452-7.019,9.278l-.365.5s-5.665-.447-7.108-4.2-1.433-6.216-1.049-8.064.614-4.181.614-4.181l-2.15-.448-.856-1.536,3.4-11.348,1.147-1.1,2.045,1,.592-.919S-2785.056,1968.5-2779.942,1969.359Z" fill="#fed2a4"/>
    <path id="Path_102703" data-name="Path 102703" d="M-2963.925,1987.243l-2.361,87.195s33.618-20.5,38.537-50.033v-84.388a34.222,34.222,0,0,0-4.847-23.544c-7.409-11.841-24.556-18.534-24.556-18.534l-.369,84.206Z" fill="#fff"/>
    <path id="Path_102704" data-name="Path 102704" d="M-3021.866,2014.189l-1.1,85.878s-33,9.518-60.522,7.646-46.272-8.75-56.441-18.711-10.989-21.352-10.989-21.352l-.193-89s-2.248,23.871,28.254,35.556,64.706,7.2,67.83,6.874C-3049.048,2020.463-3021.866,2014.189-3021.866,2014.189Z" fill="#fff"/>
    <path id="Path_102705" data-name="Path 102705" d="M-3051.464,2059.765s40.261-3.577,52.412-11.727v29.715s-21.589,10.249-52.412,11.676Z" fill="#f24872"/>
    <path id="Path_102706" data-name="Path 102706" d="M-2990.481,2003.829l2.352-3.987s-6.679-1.682-7.306-.383S-2990.481,2003.829-2990.481,2003.829Z" fill="#1a1a1a"/>
    <path id="Path_102707" data-name="Path 102707" d="M-2964.823,2006.429s-4.345,5.33-6.133,5.714a31.114,31.114,0,0,0,6.133,1.162Z" fill="#1a1a1a"/>
    <circle id="Ellipse_4151" data-name="Ellipse 4151" cx="60.36" cy="60.36" r="60.36" transform="translate(-2949.97 1778.821)" fill="#ffc93c"/>
    <path id="Path_102708" data-name="Path 102708" d="M-3111.8,1961.891v25.639l-14.258,6.922v-25.639Z" fill="#81c140"/>
    <path id="Path_102709" data-name="Path 102709" d="M-2957.475,1906.247v21.705s-8.2-4.076-15.88-5.158-13.287-1.5-13.287-1.5v-21.705a62.179,62.179,0,0,1,17.047,2.289A99.939,99.939,0,0,1-2957.475,1906.247Z" fill="#ffc93c"/>
    <path id="Path_102710" data-name="Path 102710" d="M-2957.152,1897.939l-.369,84.206s13.075-9.111,19.589-19.475,9.813-19.546,10.183-22.653,1.261-14.882-3.817-21.778S-2938.766,1906.941-2957.152,1897.939Z" fill="#9ddfd3"/>
    <path id="Path_102711" data-name="Path 102711" d="M-2773.189,2049.139s-8.819,33.752-38.43,47.966l.282-10.318s13.02-4.315,21.26-11.655C-2778.011,2064.384-2773.189,2049.139-2773.189,2049.139Z" fill="#cc3d60"/>
    <path id="Path_102712" data-name="Path 102712" d="M-3063.761,1931.245c1.666,8.328.444,8.661.444,8.661h3.443l1.421-.728c.225-.749,1.921-6.872-1.048-11.773-3.168-5.229-10.053-7.248-16.271-4.128a11.873,11.873,0,0,0-1.6.984C-3075.155,1924.11-3065.218,1923.958-3063.761,1931.245Z" fill="#ffc93c"/>
    <path id="Path_102713" data-name="Path 102713" d="M-3053.494,1937.834c2.569.2,12.446,1.333,12.108,7.18-.388,6.707-12.332,17.29-12.37,17.324a28.1,28.1,0,0,0,2.969-1.408,33.268,33.268,0,0,0,8.162-6.943c.98-1.311,4.385-7.011,4.385-7.011s2.4,2.517,2.718,4.09a13.3,13.3,0,0,0-3.094-11.612C-3041.627,1935.911-3048.659,1936.729-3053.494,1937.834Z" fill="#ffc93c"/>
    <path id="Path_102714" data-name="Path 102714" d="M-2804.237,2084.467s-4.088-14.7-19.634-13.976-20.536,12.587-20.536,12.587,7.711,5.142,20.813,5.133S-2804.237,2084.467-2804.237,2084.467Z" fill="#ff8faa"/>
    <g id="Group_57787" data-name="Group 57787">
      <g id="Group_57781" data-name="Group 57781">
        <path id="Path_102715" data-name="Path 102715" d="M-2990.482,2004.934a.579.579,0,0,1-.3-.084.585.585,0,0,1-.2-.8c1.052-1.737,4.015-7.343,4.045-7.4l1.951-7.6c.081-.363.172-.746.266-1.126.646-2.544,1.523-5.375,3.762-6.783a6.86,6.86,0,0,1,4-.825,26.461,26.461,0,0,1,5.265.58,9.671,9.671,0,0,1,2.469.813,4.141,4.141,0,0,1,2.118,5.226,5.006,5.006,0,0,1-2.969,2.6,14.969,14.969,0,0,1-4.68.723,14.067,14.067,0,0,1-6.857-1.529.584.584,0,0,1-.25-.789.587.587,0,0,1,.789-.251,13.124,13.124,0,0,0,6.292,1.4,13.885,13.885,0,0,0,4.3-.652,3.9,3.9,0,0,0,2.3-1.962,2.979,2.979,0,0,0-1.583-3.723,8.73,8.73,0,0,0-2.172-.708,25.407,25.407,0,0,0-5.031-.554,6.079,6.079,0,0,0-3.367.644c-1.876,1.181-2.661,3.757-3.251,6.081-.094.367-.181.742-.264,1.113l-2.005,7.742c-.171.357-3.057,5.82-4.128,7.585A.582.582,0,0,1-2990.482,2004.934Z"/>
      </g>
      <g id="Group_57782" data-name="Group 57782">
        <path id="Path_102716" data-name="Path 102716" d="M-2964.339,2003.078a3.687,3.687,0,0,1-3.245-2.966,5.8,5.8,0,0,1,.349-3.974,15.01,15.01,0,0,1,2.661-4,.588.588,0,0,1,.826-.058.585.585,0,0,1,.059.827,13.987,13.987,0,0,0-2.469,3.7,4.624,4.624,0,0,0-.307,3.16c.428,1.367,1.1,2.029,2.19,2.148a.583.583,0,0,1,.518.646A.586.586,0,0,1-2964.339,2003.078Z"/>
      </g>
      <g id="Group_57783" data-name="Group 57783">
        <path id="Path_102717" data-name="Path 102717" d="M-2967.616,1983.935a.59.59,0,0,1-.357-.12.588.588,0,0,1-.108-.823c1.094-1.422,2.205-2.832,3.32-4.239l.354-.444c1.654-2.07,3.215-4.025,2.539-6.635-.281-1.079-1.092-2.224-2.4-1.924a4.906,4.906,0,0,0-1.994,1.193,54.477,54.477,0,0,0-8.738,10.2.592.592,0,0,1-.818.143.589.589,0,0,1-.143-.817,55.5,55.5,0,0,1,8.936-10.41,6.049,6.049,0,0,1,2.493-1.447c2-.48,3.358,1.057,3.8,2.772.822,3.177-1.08,5.558-2.757,7.659l-.351.441c-1.111,1.4-2.218,2.81-3.309,4.228A.592.592,0,0,1-2967.616,1983.935Z"/>
      </g>
      <g id="Group_57784" data-name="Group 57784">
        <path id="Path_102718" data-name="Path 102718" d="M-2961.857,1986.05a.587.587,0,0,1-.559-.408,2.658,2.658,0,0,0-2.089-1.936,2.486,2.486,0,0,0-2.721.694.587.587,0,0,1-.817.144.59.59,0,0,1-.143-.818,3.529,3.529,0,0,1,3.962-1.158,3.818,3.818,0,0,1,2.926,2.72.588.588,0,0,1-.382.736A.574.574,0,0,1-2961.857,1986.05Z"/>
      </g>
      <g id="Group_57785" data-name="Group 57785">
        <path id="Path_102719" data-name="Path 102719" d="M-2969.939,1997.185a5.227,5.227,0,0,1-4.52-2.429c-.595-1.072-.955-2.894.7-5.48a.59.59,0,0,1,.809-.177.587.587,0,0,1,.178.81c-1.061,1.661-1.288,3.141-.66,4.28a4.053,4.053,0,0,0,3.528,1.825,4.487,4.487,0,0,0,2.939-1.493,22.243,22.243,0,0,0,1.529-1.727c.29-.352.59-.716.944-1.117a.582.582,0,0,1,.827-.051.586.586,0,0,1,.05.827c-.342.39-.634.744-.917,1.086a22.684,22.684,0,0,1-1.6,1.81,5.6,5.6,0,0,1-3.757,1.836Z"/>
      </g>
      <g id="Group_57786" data-name="Group 57786">
        <path id="Path_102720" data-name="Path 102720" d="M-2974.781,2003.479a.582.582,0,0,1-.365-.128.584.584,0,0,1-.093-.823,10.087,10.087,0,0,0,2.153-6.563.588.588,0,0,1,.529-.638.594.594,0,0,1,.638.527,11.088,11.088,0,0,1-2.4,7.4A.586.586,0,0,1-2974.781,2003.479Z"/>
      </g>
    </g>
    <g id="Group_57788" data-name="Group 57788">
      <path id="Path_102721" data-name="Path 102721" d="M-2964.823,2014.139c-3.235,0-8.909-1.54-15.568-4.22-5.919-2.384-16.793-7.683-15.588-10.679.52-1.294,2.057-1.247,2.978-1.2a13.806,13.806,0,0,1,4.877,1.006.587.587,0,0,1,.313.768.588.588,0,0,1-.767.313,12.521,12.521,0,0,0-4.4-.913c-.931-.042-1.715-.023-1.913.465-.368.917,4.57,4.979,14.938,9.154,6.429,2.589,12.086,4.135,15.131,4.137a.585.585,0,0,1,.586.586A.585.585,0,0,1-2964.823,2014.139Z"/>
    </g>
    <g id="Group_57793" data-name="Group 57793">
      <g id="Group_57789" data-name="Group 57789">
        <path id="Path_102722" data-name="Path 102722" d="M-2846.393,1998.422a.609.609,0,0,1-.254-.056.589.589,0,0,1-.275-.783,36.745,36.745,0,0,0,1.644-5.273c.354-1.343.687-2.61,1-3.475.676-1.9,1.492-4.192.966-6a2.574,2.574,0,0,0-1.25-1.607,2.722,2.722,0,0,0-2.561.29,6.023,6.023,0,0,0-1.928,2.266,8.154,8.154,0,0,0-.507,1.567c-.45,1.721-1.068,4.077-3.119,4.568-2.949.686-5.154-1.687-6.555-7.1-.589-2.271-1.109-4.157-1.64-5.934a73.784,73.784,0,0,0-4.32-11.406l-.183-.381a5.467,5.467,0,0,0-1.523-2.207,2.334,2.334,0,0,0-1.535-.412,2.534,2.534,0,0,0-1.985,1.039,4.767,4.767,0,0,0-.525,3.8c.719,2.876,4.356,12.87,4.391,12.97a.581.581,0,0,1-.114.593.606.606,0,0,1-.579.177,4.824,4.824,0,0,0-3.412.487,3.826,3.826,0,0,0-1.51,2.8.587.587,0,0,1-.541.5,4.815,4.815,0,0,0-3.028,1.55,5.326,5.326,0,0,0-.956,4.117.584.584,0,0,1-.52.644.57.57,0,0,1-.644-.52,6.421,6.421,0,0,1,1.231-5.005,5.83,5.83,0,0,1,3.371-1.889,4.752,4.752,0,0,1,1.949-3.181,5.336,5.336,0,0,1,3.322-.791c-.926-2.567-3.487-9.73-4.1-12.176a5.877,5.877,0,0,1,.718-4.778,3.711,3.711,0,0,1,2.855-1.52,3.627,3.627,0,0,1,2.3.639,6.441,6.441,0,0,1,1.889,2.647l.179.371a75.079,75.079,0,0,1,4.387,11.586c.535,1.791,1.061,3.689,1.652,5.975,1.215,4.679,2.943,6.77,5.15,6.254,1.366-.326,1.859-2.211,2.256-3.725a8.549,8.549,0,0,1,.616-1.838,7.122,7.122,0,0,1,2.32-2.683,3.852,3.852,0,0,1,3.71-.356,3.709,3.709,0,0,1,1.861,2.331c.63,2.173-.294,4.768-.968,6.663-.313.875-.641,2.12-.987,3.436a36.718,36.718,0,0,1-1.719,5.484A.589.589,0,0,1-2846.393,1998.422Z"/>
      </g>
      <g id="Group_57790" data-name="Group 57790">
        <path id="Path_102723" data-name="Path 102723" d="M-2869.74,1992.556a.583.583,0,0,1-.488-.261c-3.118-4.71-3.082-8.085-3.079-8.226a.6.6,0,0,1,.6-.572.588.588,0,0,1,.575.6c0,.03-.014,3.178,2.883,7.553a.585.585,0,0,1-.164.811A.587.587,0,0,1-2869.74,1992.556Z"/>
      </g>
      <g id="Group_57791" data-name="Group 57791">
        <path id="Path_102724" data-name="Path 102724" d="M-2864.467,1987.977a.584.584,0,0,1-.535-.347c-2.42-5.388-2.674-6.986-2.683-7.052a.587.587,0,0,1,.5-.665.591.591,0,0,1,.665.49c0,.026.284,1.6,2.593,6.749a.588.588,0,0,1-.3.774A.591.591,0,0,1-2864.467,1987.977Z"/>
      </g>
      <g id="Group_57792" data-name="Group 57792">
        <path id="Path_102725" data-name="Path 102725" d="M-2873.664,2003.01a.585.585,0,0,1-.494-.269,26.451,26.451,0,0,1-3.774-13.1c0-.324.273-.646.59-.582a.586.586,0,0,1,.582.59,25.754,25.754,0,0,0,3.589,12.455.586.586,0,0,1-.177.81A.589.589,0,0,1-2873.664,2003.01Z"/>
      </g>
    </g>
    <path id="Path_102726" data-name="Path 102726" d="M-3048.825,1960.379c.455-.132.792.027,1.14,1.682.388,1.845-.053,2.236-.473,2.273s-.914-.485-1.065-1.819S-3049.42,1960.553-3048.825,1960.379Z"/>
    <g id="Group_57794" data-name="Group 57794">
      <path id="Path_102727" data-name="Path 102727" d="M-3060.492,1976.179a6.653,6.653,0,0,1-3.6-1.066,6.657,6.657,0,0,1-2.922-4.209,6.7,6.7,0,0,1,5.118-7.962,6.657,6.657,0,0,1,3.809.284,3.6,3.6,0,0,1,2.253,1.514.584.584,0,0,1-.079.825.585.585,0,0,1-.824-.079c-.862-1.045-1.478-1.094-1.484-1.094a.805.805,0,0,1-.209-.041,5.532,5.532,0,0,0-3.218-.264,5.529,5.529,0,0,0-4.221,6.568,5.486,5.486,0,0,0,2.411,3.471,5.5,5.5,0,0,0,4.159.752,5.516,5.516,0,0,0,2.611-1.375.588.588,0,0,1,.829.022.587.587,0,0,1-.024.829,6.686,6.686,0,0,1-3.168,1.668A6.74,6.74,0,0,1-3060.492,1976.179Z"/>
    </g>
    <g id="Group_57795" data-name="Group 57795">
      <path id="Path_102728" data-name="Path 102728" d="M-3061.553,1973.2a.583.583,0,0,1-.426-.182.588.588,0,0,1,.023-.829l3.22-3.045-4.2-2.5a.583.583,0,0,1-.2-.8.583.583,0,0,1,.8-.2l4.865,2.9a.585.585,0,0,1,.283.439.586.586,0,0,1-.18.489l-3.783,3.578A.586.586,0,0,1-3061.553,1973.2Z"/>
    </g>
    <g id="Group_57796" data-name="Group 57796">
      <path id="Path_102729" data-name="Path 102729" d="M-3059.027,1992.526a.584.584,0,0,1-.585-.58l-.154-16.49a.578.578,0,0,1,.586-.592.584.584,0,0,1,.585.58l.154,16.491a.584.584,0,0,1-.58.591Z"/>
    </g>
    <g id="Group_57797" data-name="Group 57797">
      <path id="Path_102730" data-name="Path 102730" d="M-3002.531,2128.351a.586.586,0,0,1-.586-.56c-.324-7.1-.549-14.163-.767-20.989-.319-9.992-.649-20.325-1.292-30.79a.587.587,0,0,1,.549-.621.594.594,0,0,1,.62.55c.644,10.481.975,20.824,1.294,30.825.219,6.821.444,13.875.768,20.973a.587.587,0,0,1-.56.612Z"/>
    </g>
    <g id="Group_57798" data-name="Group 57798">
      <path id="Path_102731" data-name="Path 102731" d="M-3006.731,2047.684a.586.586,0,0,1-.582-.529,252.918,252.918,0,0,0-6.612-38.946,31.878,31.878,0,0,0-3-8.227c-4.267-7.333-13.178-7.369-21.039-7.4-.908,0-1.8-.008-2.672-.023a.585.585,0,0,1-.575-.6.585.585,0,0,1,.585-.576c.875.015,1.763.017,2.667.021,8.176.032,17.442.069,22.047,7.98a32.86,32.86,0,0,1,3.118,8.529,253.939,253.939,0,0,1,6.644,39.123.587.587,0,0,1-.527.64C-3006.693,2047.684-3006.712,2047.684-3006.731,2047.684Z"/>
    </g>
    <g id="Group_57799" data-name="Group 57799">
      <path id="Path_102732" data-name="Path 102732" d="M-3098.613,2020.975a.565.565,0,0,1-.185-.03.586.586,0,0,1-.372-.74c3.88-11.721,8.564-19.319,13.92-22.585,6.312-3.847,12.782-6.231,25.523-6.231a.585.585,0,0,1,.585.586.585.585,0,0,1-.585.585c-12.467,0-18.774,2.32-24.912,6.062-5.113,3.115-9.628,10.5-13.418,21.952A.585.585,0,0,1-3098.613,2020.975Z"/>
    </g>
    <g id="Group_57800" data-name="Group 57800">
      <path id="Path_102733" data-name="Path 102733" d="M-3124.4,2128.351a.616.616,0,0,1-.119-.012.587.587,0,0,1-.457-.691c1.839-8.99,3.671-17.731,5.442-25.983a.589.589,0,0,1,.7-.451.586.586,0,0,1,.45.695c-1.772,8.25-3.6,16.988-5.44,25.973A.586.586,0,0,1-3124.4,2128.351Z"/>
    </g>
    <g id="Group_57801" data-name="Group 57801">
      <path id="Path_102734" data-name="Path 102734" d="M-3076.888,2128.351a.644.644,0,0,1-.121-.012.586.586,0,0,1-.454-.693c1.327-6.372,2.474-12.694,3.608-19.891a.583.583,0,0,1,.671-.488.584.584,0,0,1,.487.668c-1.138,7.22-2.288,13.559-3.619,19.949A.586.586,0,0,1-3076.888,2128.351Z"/>
    </g>
    <g id="Group_57802" data-name="Group 57802">
      <path id="Path_102735" data-name="Path 102735" d="M-3059.726,1978.757c-9.893-.944-16.661-11.491-16.149-25.084.185-4.922,1.767-8.691,4.7-11.2,4.391-3.755,10.287-3.414,11.355-3.32,1.771-.747,17.3-7,22.576,1.085,4.117,6.3,2.629,11.851,2.564,12.084a.545.545,0,0,1-.589.428.588.588,0,0,1-.551-.475,9.485,9.485,0,0,0-2.282-4.574c-1.317,2.985-6.653,13.2-19.169,16.645a.581.581,0,0,1-.72-.409.586.586,0,0,1,.41-.721c14.062-3.866,18.667-16.6,18.712-16.73a.6.6,0,0,1,.388-.369.578.578,0,0,1,.526.1,9.492,9.492,0,0,1,2.4,3.169,15.784,15.784,0,0,0-2.672-8.51c-4.942-7.564-21.108-.659-21.271-.589a.655.655,0,0,1-.3.045c-.066-.01-6.278-.688-10.623,3.037-2.671,2.288-4.113,5.77-4.285,10.348-.488,12.951,5.834,22.99,15.032,23.869a.589.589,0,0,1,.528.641A.585.585,0,0,1-3059.726,1978.757Z"/>
    </g>
    <g id="Group_57803" data-name="Group 57803">
      <path id="Path_102736" data-name="Path 102736" d="M-2815.9,2128.351a.576.576,0,0,1-.186-.031.586.586,0,0,1-.37-.741c2.68-7.991,3.925-28.705,4.594-39.835l.058-.992a.568.568,0,0,1,.621-.55.588.588,0,0,1,.55.621l-.06.991c-.672,11.184-1.923,32-4.651,40.137A.588.588,0,0,1-2815.9,2128.351Z"/>
    </g>
    <g id="Group_57804" data-name="Group 57804">
      <path id="Path_102737" data-name="Path 102737" d="M-2630.355,2128.351h-504.9a.586.586,0,0,1-.586-.586.586.586,0,0,1,.586-.586h504.9a.585.585,0,0,1,.586.586A.586.586,0,0,1-2630.355,2128.351Z"/>
    </g>
    <g id="Group_57805" data-name="Group 57805">
      <path id="Path_102738" data-name="Path 102738" d="M-2776.343,1978.936a.584.584,0,0,1-.475-.242l-3.1-4.255a.59.59,0,0,1-.079-.535.58.58,0,0,1,.391-.373l5.285-1.527a.589.589,0,0,1,.725.4.585.585,0,0,1-.4.725l-4.481,1.3,2.61,3.58a.587.587,0,0,1-.129.819A.579.579,0,0,1-2776.343,1978.936Z"/>
    </g>
    <g id="Group_57806" data-name="Group 57806">
      <path id="Path_102739" data-name="Path 102739" d="M-2727.262,2128.351a.586.586,0,0,1-.584-.53,297.8,297.8,0,0,1-.543-42.856c.692-10.352.788-23.852.3-41.268a.585.585,0,0,1,.569-.6.589.589,0,0,1,.6.568c.492,17.455.4,30.99-.295,41.381a295.91,295.91,0,0,0,.538,42.664.586.586,0,0,1-.527.641A.544.544,0,0,1-2727.262,2128.351Z"/>
    </g>
    <g id="Group_57807" data-name="Group 57807">
      <path id="Path_102740" data-name="Path 102740" d="M-2785.667,1991.579c-3.521-.324-6.045-1.621-7.553-3.857-2.747-4.073-1.1-9.734-1.024-9.971l4.606-18.822a.575.575,0,0,1,.708-.429.585.585,0,0,1,.429.708l-4.613,18.85c-.023.081-1.569,5.405.87,9.013,1.3,1.928,3.534,3.052,6.632,3.339a.586.586,0,0,1,.529.638A.586.586,0,0,1-2785.667,1991.579Z"/>
    </g>
    <g id="Group_57808" data-name="Group 57808">
      <path id="Path_102741" data-name="Path 102741" d="M-2794.357,1975.183a2.469,2.469,0,0,1-.665-.093l-.147-.041a2.43,2.43,0,0,1-1.474-1.162,2.428,2.428,0,0,1-.226-1.861l2.95-10.521a2.463,2.463,0,0,1,3.025-1.7l.147.042a2.456,2.456,0,0,1,1.7,3.024l-2.951,10.52a2.437,2.437,0,0,1-1.162,1.474A2.443,2.443,0,0,1-2794.357,1975.183Zm2.8-14.3a1.285,1.285,0,0,0-1.234.933l-2.95,10.522a1.268,1.268,0,0,0,.116.971,1.276,1.276,0,0,0,.768.6l.147.041a1.265,1.265,0,0,0,.974-.116,1.264,1.264,0,0,0,.606-.769l2.951-10.519a1.281,1.281,0,0,0-.885-1.578l-.147-.041A1.269,1.269,0,0,0-2791.555,1960.888Z"/>
    </g>
    <g id="Group_57809" data-name="Group 57809">
      <path id="Path_102742" data-name="Path 102742" d="M-2871.3,2035.718h-15.41a10.61,10.61,0,0,1-10.2-7.758l-22.715-82.113a10.5,10.5,0,0,1,1.778-9.228,10.5,10.5,0,0,1,8.42-4.173h126.7a10.61,10.61,0,0,1,10.2,7.759l1.964,6.983a.589.589,0,0,1-.407.723.588.588,0,0,1-.723-.407l-1.964-6.985a9.433,9.433,0,0,0-9.068-6.9h-126.7a9.336,9.336,0,0,0-7.488,3.711,9.334,9.334,0,0,0-1.58,8.205l22.715,82.113a9.432,9.432,0,0,0,9.067,6.9h15.41a.585.585,0,0,1,.586.586A.585.585,0,0,1-2871.3,2035.718Z"/>
    </g>
    <g id="Group_57810" data-name="Group 57810">
      <path id="Path_102743" data-name="Path 102743" d="M-2808.822,2035.718h-21.055a.585.585,0,0,1-.586-.585.585.585,0,0,1,.586-.586h21.055a.585.585,0,0,1,.586.586A.585.585,0,0,1-2808.822,2035.718Z"/>
    </g>
    <g id="Group_57811" data-name="Group 57811">
      <path id="Path_102744" data-name="Path 102744" d="M-2781.635,1946.276a.585.585,0,0,1-.565-.429,5.2,5.2,0,0,0-5.391-3.757h-6.619a.585.585,0,0,1-.586-.586.585.585,0,0,1,.586-.585h6.619c3.284,0,5.721,1.724,6.521,4.615a.584.584,0,0,1-.408.721A.574.574,0,0,1-2781.635,1946.276Z"/>
    </g>
    <g id="Group_57812" data-name="Group 57812">
      <path id="Path_102745" data-name="Path 102745" d="M-2873.209,2027.246h-7.186a8.865,8.865,0,0,1-8.519-6.482l-20.274-73.286a5.136,5.136,0,0,1,.872-4.518,5.133,5.133,0,0,1,4.12-2.041h89.764a.585.585,0,0,1,.586.585.585.585,0,0,1-.586.586H-2904.2a3.975,3.975,0,0,0-3.188,1.58,3.977,3.977,0,0,0-.674,3.495l20.274,73.287a7.692,7.692,0,0,0,7.389,5.623h7.186a.585.585,0,0,1,.586.585A.585.585,0,0,1-2873.209,2027.246Z"/>
    </g>
    <g id="Group_57813" data-name="Group 57813">
      <path id="Path_102746" data-name="Path 102746" d="M-2805.376,2027.246h-27.588a.585.585,0,0,1-.586-.586.585.585,0,0,1,.586-.585h27.588a.585.585,0,0,1,.586.585A.585.585,0,0,1-2805.376,2027.246Z"/>
    </g>
    <g id="Group_57817" data-name="Group 57817">
      <g id="Group_57814" data-name="Group 57814">
        <path id="Path_102747" data-name="Path 102747" d="M-2853.81,1957.036h-34a.585.585,0,0,1-.586-.585.585.585,0,0,1,.586-.586h34a.585.585,0,0,1,.585.586A.584.584,0,0,1-2853.81,1957.036Z"/>
      </g>
      <g id="Group_57815" data-name="Group 57815">
        <path id="Path_102748" data-name="Path 102748" d="M-2851.626,1964.439h-13.47a.585.585,0,0,1-.586-.585.586.586,0,0,1,.586-.586h13.47a.586.586,0,0,1,.586.586A.585.585,0,0,1-2851.626,1964.439Z"/>
      </g>
      <g id="Group_57816" data-name="Group 57816">
        <path id="Path_102749" data-name="Path 102749" d="M-2871.7,1964.439h-13.92a.585.585,0,0,1-.586-.585.586.586,0,0,1,.586-.586h13.92a.586.586,0,0,1,.586.586A.585.585,0,0,1-2871.7,1964.439Z"/>
      </g>
    </g>
    <g id="Group_57820" data-name="Group 57820">
      <g id="Group_57818" data-name="Group 57818">
        <path id="Path_102750" data-name="Path 102750" d="M-2794.145,1957.036h-34a.585.585,0,0,1-.586-.585.585.585,0,0,1,.586-.586h34a.585.585,0,0,1,.586.586A.585.585,0,0,1-2794.145,1957.036Z"/>
      </g>
      <g id="Group_57819" data-name="Group 57819">
        <path id="Path_102751" data-name="Path 102751" d="M-2793.968,1964.439h-31.99a.585.585,0,0,1-.586-.585.586.586,0,0,1,.586-.586h31.99a.586.586,0,0,1,.586.586A.585.585,0,0,1-2793.968,1964.439Z"/>
      </g>
    </g>
    <g id="Group_57825" data-name="Group 57825">
      <g id="Group_57821" data-name="Group 57821">
        <path id="Path_102752" data-name="Path 102752" d="M-2845.894,1979.318h-13.837a.585.585,0,0,1-.586-.586.585.585,0,0,1,.586-.585h13.837a.585.585,0,0,1,.586.585A.585.585,0,0,1-2845.894,1979.318Z"/>
      </g>
      <g id="Group_57822" data-name="Group 57822">
        <path id="Path_102753" data-name="Path 102753" d="M-2867.74,1979.318h-12.15a.586.586,0,0,1-.586-.586.585.585,0,0,1,.586-.585h12.15a.585.585,0,0,1,.586.585A.585.585,0,0,1-2867.74,1979.318Z"/>
      </g>
      <g id="Group_57823" data-name="Group 57823">
        <path id="Path_102754" data-name="Path 102754" d="M-2850.385,1986.721h-6.661a.585.585,0,0,1-.585-.586.585.585,0,0,1,.585-.586h6.661a.586.586,0,0,1,.586.586A.585.585,0,0,1-2850.385,1986.721Z"/>
      </g>
      <g id="Group_57824" data-name="Group 57824">
        <path id="Path_102755" data-name="Path 102755" d="M-2876.534,1986.721h-1.172a.585.585,0,0,1-.585-.586.585.585,0,0,1,.585-.586h1.172a.585.585,0,0,1,.585.586A.585.585,0,0,1-2876.534,1986.721Z"/>
      </g>
    </g>
    <g id="Group_57828" data-name="Group 57828">
      <g id="Group_57826" data-name="Group 57826">
        <path id="Path_102756" data-name="Path 102756" d="M-2794.145,1979.318h-26.079a.585.585,0,0,1-.586-.586.585.585,0,0,1,.586-.585h26.079a.585.585,0,0,1,.586.585A.585.585,0,0,1-2794.145,1979.318Z"/>
      </g>
      <g id="Group_57827" data-name="Group 57827">
        <path id="Path_102757" data-name="Path 102757" d="M-2793.531,1986.721h-24.509a.585.585,0,0,1-.586-.586.586.586,0,0,1,.586-.586h24.509a.586.586,0,0,1,.586.586A.585.585,0,0,1-2793.531,1986.721Z"/>
      </g>
    </g>
    <g id="Group_57831" data-name="Group 57831">
      <g id="Group_57829" data-name="Group 57829">
        <path id="Path_102758" data-name="Path 102758" d="M-2838.109,2001.6h-2.943a.585.585,0,0,1-.586-.585.585.585,0,0,1,.586-.586h2.943a.585.585,0,0,1,.586.586A.585.585,0,0,1-2838.109,2001.6Z"/>
      </g>
      <g id="Group_57830" data-name="Group 57830">
        <path id="Path_102759" data-name="Path 102759" d="M-2835.926,2009h-2.687a.585.585,0,0,1-.586-.585.585.585,0,0,1,.586-.586h2.687a.585.585,0,0,1,.586.586A.585.585,0,0,1-2835.926,2009Z"/>
      </g>
    </g>
    <g id="Group_57834" data-name="Group 57834">
      <g id="Group_57832" data-name="Group 57832">
        <path id="Path_102760" data-name="Path 102760" d="M-2782.083,2001.6h-30.356a.585.585,0,0,1-.586-.585.585.585,0,0,1,.586-.586h30.356a.585.585,0,0,1,.586.586A.585.585,0,0,1-2782.083,2001.6Z"/>
      </g>
      <g id="Group_57833" data-name="Group 57833">
        <path id="Path_102761" data-name="Path 102761" d="M-2794.34,2009h-15.917a.585.585,0,0,1-.586-.585.585.585,0,0,1,.586-.586h15.917a.585.585,0,0,1,.585.586A.585.585,0,0,1-2794.34,2009Z"/>
      </g>
    </g>
    <g id="Group_57835" data-name="Group 57835">
      <path id="Path_102762" data-name="Path 102762" d="M-3075.316,1949.487a.57.57,0,0,1-.146-.019c-6.735-1.732-9.084-8.917-8.418-14.858.665-5.917,4.606-12.916,13.522-13.167q6.781-.175,10.13,3.827c4.354,5.2,2.661,13.683,2.587,14.04a.591.591,0,0,1-.693.456.588.588,0,0,1-.455-.693c.016-.083,1.65-8.3-2.341-13.054-1.992-2.375-5.111-3.52-9.194-3.405-8.166.231-11.778,6.677-12.391,12.127s1.488,12.034,7.545,13.593a.586.586,0,0,1,.422.714A.586.586,0,0,1-3075.316,1949.487Z"/>
    </g>
    <g id="Group_57836" data-name="Group 57836">
      <path id="Path_102763" data-name="Path 102763" d="M-3112.444,2010.143a.583.583,0,0,1-.486-.256.585.585,0,0,1,.155-.813c15.343-10.429,33.281-18.742,53.315-24.711a.586.586,0,0,1,.73.393.586.586,0,0,1-.4.729c-19.919,5.936-37.747,14.2-52.991,24.557A.576.576,0,0,1-3112.444,2010.143Z"/>
    </g>
    <g id="Group_57837" data-name="Group 57837">
      <path id="Path_102764" data-name="Path 102764" d="M-3032.365,1979.178a.585.585,0,0,1-.577-.487.587.587,0,0,1,.48-.676c3.289-.558,6.2-.979,9.427-1.367a.576.576,0,0,1,.652.512.586.586,0,0,1-.513.651c-3.21.386-6.1.806-9.37,1.36A.55.55,0,0,1-3032.365,1979.178Z"/>
    </g>
    <g id="Group_57838" data-name="Group 57838">
      <path id="Path_102765" data-name="Path 102765" d="M-3112.149,1924.384a.585.585,0,0,1-.485-.255.585.585,0,0,1,.153-.814c16.038-10.949,35.128-19.575,56.741-25.637q1.124-.316,2.239-.617a.58.58,0,0,1,.719.413.587.587,0,0,1-.414.719q-1.11.3-2.227.612c-21.49,6.029-40.464,14.6-56.4,25.478A.591.591,0,0,1-3112.149,1924.384Z"/>
    </g>
    <g id="Group_57839" data-name="Group 57839">
      <path id="Path_102766" data-name="Path 102766" d="M-3035.539,1894.191a.587.587,0,0,1-.576-.482.587.587,0,0,1,.472-.682c4.182-.754,8.425-1.381,12.611-1.863a.59.59,0,0,1,.649.515.586.586,0,0,1-.515.649c-4.161.48-8.38,1.1-12.536,1.853A.621.621,0,0,1-3035.539,1894.191Z"/>
    </g>
    <g id="Group_57840" data-name="Group 57840">
      <path id="Path_102767" data-name="Path 102767" d="M-2964.531,2010.2a.59.59,0,0,1-.586-.6l.607-22.366a.579.579,0,0,1,.248-.463q3.208-2.266,6.156-4.593l.368-84.236a.58.58,0,0,1,.265-.488.591.591,0,0,1,.554-.047s3.93,1.714,5.225,2.321c12.407,5.812,20.57,14.615,23.611,25.456,5.047,17.988-5.719,39.164-28.968,57.651a.573.573,0,0,1-.239.19q-2.9,2.3-6.056,4.533l-.6,22.072A.586.586,0,0,1-2964.531,2010.2Zm7.96-111.362-.36,82.4c22.278-18.014,32.573-38.439,27.718-55.737-2.945-10.5-10.89-19.049-22.978-24.711C-2953.108,1900.355-2955.354,1899.367-2956.571,1898.834Z"/>
    </g>
    <g id="Group_57841" data-name="Group 57841">
      <path id="Path_102768" data-name="Path 102768" d="M-2966.288,2075.024a.59.59,0,0,1-.586-.6l1.757-64.828a.586.586,0,0,1,.586-.57.589.589,0,0,1,.586.6l-1.757,64.828A.587.587,0,0,1-2966.288,2075.024Z"/>
    </g>
    <g id="Group_57842" data-name="Group 57842">
      <path id="Path_102769" data-name="Path 102769" d="M-2966.286,2075.024a.593.593,0,0,1-.486-.257.589.589,0,0,1,.156-.815c23.429-15.873,37.471-34.848,38.528-52.06l.03-.738-.008-23.317a.585.585,0,0,1,.586-.586.585.585,0,0,1,.586.586l.007,23.34-.03.774c-1.079,17.59-15.31,36.894-39.039,52.973A.6.6,0,0,1-2966.286,2075.024Z"/>
    </g>
    <g id="Group_57843" data-name="Group 57843" transform="translate(13.02)">
      <path id="Path_102770" data-name="Path 102770" d="M-2940.492,1984.817a.585.585,0,0,1-.586-.586l-.018-52.048a.584.584,0,0,1,.585-.585.585.585,0,0,1,.586.585l.019,52.048A.585.585,0,0,1-2940.492,1984.817Z"/>
    </g>
    <g id="Group_57844" data-name="Group 57844">
      <path id="Path_102771" data-name="Path 102771" d="M-3022.965,2100.653a.586.586,0,0,1-.586-.593l.239-18.658a.587.587,0,0,1,.586-.578.587.587,0,0,1,.586.593l-.24,18.658A.585.585,0,0,1-3022.965,2100.653Z"/>
    </g>
    <g id="Group_57845" data-name="Group 57845">
      <path id="Path_102772" data-name="Path 102772" d="M-3022.336,2051.5a.585.585,0,0,1-.586-.593l.47-36.721a.647.647,0,0,1,.593-.578.583.583,0,0,1,.578.593l-.47,36.721A.585.585,0,0,1-3022.336,2051.5Z"/>
    </g>
    <g id="Group_57846" data-name="Group 57846">
      <path id="Path_102773" data-name="Path 102773" d="M-3076.917,2022.805c-19.049,0-36.268-3.186-49.4-9.519a.584.584,0,0,1-.274-.781.59.59,0,0,1,.783-.273c24.672,11.9,64.016,12.558,102.679,1.708l1.1-.313a.587.587,0,0,1,.724.4.585.585,0,0,1-.4.725l-1.1.315A202.829,202.829,0,0,1-3076.917,2022.805Z"/>
    </g>
    <g id="Group_57847" data-name="Group 57847">
      <path id="Path_102774" data-name="Path 102774" d="M-3142.341,2001.545a.584.584,0,0,1-.437-.2,34.685,34.685,0,0,1-7.686-13.783,33.434,33.434,0,0,1-1.232-8.917.583.583,0,0,1,.584-.587.586.586,0,0,1,.588.584,32.245,32.245,0,0,0,1.188,8.6,33.553,33.553,0,0,0,7.432,13.319.586.586,0,0,1-.046.827A.588.588,0,0,1-3142.341,2001.545Z"/>
    </g>
    <g id="Group_57848" data-name="Group 57848">
      <path id="Path_102775" data-name="Path 102775" d="M-3076.909,2047.539a149.448,149.448,0,0,1-20.135-1.313.586.586,0,0,1-.5-.659.585.585,0,0,1,.66-.5,165.206,165.206,0,0,0,41.413,0,.581.581,0,0,1,.651.513.587.587,0,0,1-.514.651A184.139,184.139,0,0,1-3076.909,2047.539Z"/>
    </g>
    <g id="Group_57849" data-name="Group 57849">
      <path id="Path_102776" data-name="Path 102776" d="M-3076.919,2057.544a148.586,148.586,0,0,1-21.2-1.461.586.586,0,0,1-.5-.663.6.6,0,0,1,.663-.5,164.4,164.4,0,0,0,42.478.147.581.581,0,0,1,.651.514.586.586,0,0,1-.514.649A184.408,184.408,0,0,1-3076.919,2057.544Z"/>
    </g>
    <g id="Group_57850" data-name="Group 57850">
      <path id="Path_102777" data-name="Path 102777" d="M-3076.873,2108.451a140.466,140.466,0,0,1-29.216-2.892c-24.2-5.166-39.957-16.683-44.375-32.43a33.3,33.3,0,0,1-1.218-8.054l-.015-1.2V2006.43a.585.585,0,0,1,.586-.586.586.586,0,0,1,.586.586l.014,58.62a32.139,32.139,0,0,0,1.175,7.763c4.294,15.308,19.74,26.53,43.492,31.6,23.882,5.1,53.261,3.356,82.72-4.911a.586.586,0,0,1,.723.406.588.588,0,0,1-.406.723A202.231,202.231,0,0,1-3076.873,2108.451Z"/>
    </g>
    <g id="Group_57851" data-name="Group 57851">
      <path id="Path_102778" data-name="Path 102778" d="M-3151.111,2007.015a.585.585,0,0,1-.586-.585V1979.7a.586.586,0,0,1,.586-.586.586.586,0,0,1,.586.586v26.728A.585.585,0,0,1-3151.111,2007.015Z"/>
    </g>
    <g id="Group_57852" data-name="Group 57852">
      <path id="Path_102779" data-name="Path 102779" d="M-3112.15,2010.143a.585.585,0,0,1-.586-.585V1923.8a.586.586,0,0,1,.586-.586.585.585,0,0,1,.585.586v85.759A.585.585,0,0,1-3112.15,2010.143Z"/>
    </g>
    <g id="Group_57853" data-name="Group 57853">
      <path id="Path_102780" data-name="Path 102780" d="M-3022.965,1977.815a.585.585,0,0,1-.586-.586v-85.483a.585.585,0,0,1,.586-.586.585.585,0,0,1,.585.586v85.483A.585.585,0,0,1-3022.965,1977.815Z"/>
    </g>
    <g id="Group_57854" data-name="Group 57854">
      <path id="Path_102781" data-name="Path 102781" d="M-2955.539,2021.308a.585.585,0,0,1-.463-.226.587.587,0,0,1,.1-.823,135.147,135.147,0,0,0,18.154-16.814.585.585,0,0,1,.827-.055.586.586,0,0,1,.054.827,136.405,136.405,0,0,1-18.315,16.969A.587.587,0,0,1-2955.539,2021.308Z"/>
    </g>
    <g id="Group_57855" data-name="Group 57855">
      <path id="Path_102782" data-name="Path 102782" d="M-3002.964,2091.543c-.2,0-.407,0-.611-.012a.585.585,0,0,1-.566-.606.563.563,0,0,1,.605-.565q.288.009.575.009c20.871,0,32.361-39.369,37.374-62.989a.573.573,0,0,1,.694-.45.582.582,0,0,1,.45.695C-2969.527,2051.593-2981.265,2091.543-3002.964,2091.543Z"/>
    </g>
    <g id="Group_57856" data-name="Group 57856">
      <path id="Path_102783" data-name="Path 102783" d="M-3009.039,2029.423a.572.572,0,0,1-.247-.055.585.585,0,0,1-.285-.777l13.552-29.266a.581.581,0,0,1,.778-.285.587.587,0,0,1,.286.778l-13.552,29.266A.587.587,0,0,1-3009.039,2029.423Z"/>
    </g>
    <g id="Group_57857" data-name="Group 57857">
      <path id="Path_102784" data-name="Path 102784" d="M-2970.956,2012.729a.586.586,0,0,1-.5-.285.588.588,0,0,1,.2-.8,16.856,16.856,0,0,0,6.264-6.478.59.59,0,0,1,.794-.237.587.587,0,0,1,.238.795,18.017,18.017,0,0,1-6.693,6.926A.587.587,0,0,1-2970.956,2012.729Z"/>
    </g>
    <g id="Group_57858" data-name="Group 57858">
      <path id="Path_102785" data-name="Path 102785" d="M-3051.465,2056.086a.586.586,0,0,1-.583-.536.586.586,0,0,1,.536-.633c.365-.03,36.7-3.113,52.177-11.655a.58.58,0,0,1,.8.23.585.585,0,0,1-.23.8c-15.7,8.664-52.279,11.767-52.647,11.8Z"/>
    </g>
    <g id="Group_57859" data-name="Group 57859">
      <path id="Path_102786" data-name="Path 102786" d="M-3051.465,2085.752a.587.587,0,0,1-.583-.537.586.586,0,0,1,.536-.633c.365-.03,36.7-3.112,52.177-11.655a.579.579,0,0,1,.8.23.584.584,0,0,1-.23.795c-15.7,8.664-52.279,11.768-52.647,11.8A.41.41,0,0,1-3051.465,2085.752Z"/>
    </g>
    <g id="Group_57860" data-name="Group 57860">
      <path id="Path_102787" data-name="Path 102787" d="M-3051.464,2085.846a.585.585,0,0,1-.586-.586V2055.5a.585.585,0,0,1,.586-.586.586.586,0,0,1,.586.586v29.759A.586.586,0,0,1-3051.464,2085.846Z"/>
    </g>
    <g id="Group_57861" data-name="Group 57861">
      <path id="Path_102788" data-name="Path 102788" d="M-2999.052,2074.074a.585.585,0,0,1-.586-.585v-29.758a.585.585,0,0,1,.586-.585.585.585,0,0,1,.586.585v29.758A.585.585,0,0,1-2999.052,2074.074Z"/>
    </g>
    <g id="Group_57862" data-name="Group 57862">
      <path id="Path_102789" data-name="Path 102789" d="M-3126.7,1989.6a.573.573,0,0,1-.281-.072.582.582,0,0,1-.305-.514v-25.639a.585.585,0,0,1,.269-.493c4.435-2.846,13.948-6.8,14.351-6.97a.578.578,0,0,1,.765.317.583.583,0,0,1-.317.764c-.095.042-9.431,3.925-13.9,6.7v24.27a137.588,137.588,0,0,1,13.449-6.416.579.579,0,0,1,.765.317.583.583,0,0,1-.317.764c-.1.042-9.819,4.085-14.166,6.876A.581.581,0,0,1-3126.7,1989.6Z"/>
    </g>
    <g id="Group_57863" data-name="Group 57863">
      <path id="Path_102790" data-name="Path 102790" d="M-2986.643,1927.663a.585.585,0,0,1-.586-.586v-21.705a.584.584,0,0,1,.183-.425.688.688,0,0,1,.433-.161c20.278,1.033,29.089,6.522,29.453,6.754a.585.585,0,0,1,.179.809.585.585,0,0,1-.808.18c-.087-.055-8.776-5.443-28.268-6.538v21.086A.586.586,0,0,1-2986.643,1927.663Z"/>
    </g>
    <g id="Group_57864" data-name="Group 57864">
      <path id="Path_102791" data-name="Path 102791" d="M-2957.475,1934.325a.582.582,0,0,1-.314-.092c-.089-.055-8.958-5.557-28.884-6.57a.587.587,0,0,1-.556-.616.586.586,0,0,1,.616-.555c20.278,1.032,29.089,6.52,29.453,6.753a.584.584,0,0,1,.179.808A.586.586,0,0,1-2957.475,1934.325Z"/>
    </g>
    <g id="Group_57868" data-name="Group 57868">
      <g id="Group_57867" data-name="Group 57867">
        <g id="Group_57866" data-name="Group 57866">
          <g id="Group_57865" data-name="Group 57865">
            <path id="Path_102792" data-name="Path 102792" d="M-2889.054,1894.339a54.7,54.7,0,0,1-53.022-42.367.587.587,0,0,1,.445-.7.575.575,0,0,1,.7.442,53.521,53.521,0,0,0,51.877,41.454,53.237,53.237,0,0,0,53.177-53.176,53.236,53.236,0,0,0-53.177-53.174,52.817,52.817,0,0,0-45.561,25.74.584.584,0,0,1-.8.2.586.586,0,0,1-.2-.8,53.973,53.973,0,0,1,46.563-26.3,54.407,54.407,0,0,1,54.348,54.345A54.407,54.407,0,0,1-2889.054,1894.339Z"/>
          </g>
        </g>
      </g>
    </g>
    <g id="Group_57869" data-name="Group 57869">
      <path id="Path_102793" data-name="Path 102793" d="M-2864.55,2100.049h-19.3a.586.586,0,0,1-.565-.43l-7.042-25.351a.583.583,0,0,1,.1-.51.586.586,0,0,1,.467-.232h27.108a.587.587,0,0,1,.565.43l4.885,17.59a.586.586,0,0,1-.408.721.577.577,0,0,1-.722-.408l-4.766-17.161h-25.891l6.717,24.179h18.852a.585.585,0,0,1,.586.586A.586.586,0,0,1-2864.55,2100.049Z" fill="#81c140"/>
    </g>
    <path id="Path_102794" data-name="Path 102794" d="M-3105.531,2039.623v19.4s-12.329.144-20.526-6.667V2032.27S-3120.189,2038-3105.531,2039.623Z" fill="#31326f"/>
    <g id="Group_57870" data-name="Group 57870">
      <path id="Path_102795" data-name="Path 102795" d="M-2955.113,2033.137a.582.582,0,0,1-.473-.241.585.585,0,0,1,.126-.818c3.977-2.9,7.708-5.911,11.088-8.941a.591.591,0,0,1,.829.045.59.59,0,0,1-.045.829c-3.411,3.054-7.172,6.088-11.181,9.013A.572.572,0,0,1-2955.113,2033.137Z"/>
    </g>
    <g id="Group_57871" data-name="Group 57871">
      <path id="Path_102796" data-name="Path 102796" d="M-2804.236,2084.5a.586.586,0,0,1-.571-.45c-1.859-7.775-9.717-13-19.551-13-8.809,0-16.739,5.011-19.289,12.184a.587.587,0,0,1-.748.356.585.585,0,0,1-.356-.748c2.754-7.755,10.949-12.963,20.393-12.963,10.388,0,18.7,5.585,20.692,13.9a.584.584,0,0,1-.435.706A.618.618,0,0,1-2804.236,2084.5Z"/>
    </g>
    <g id="Group_57872" data-name="Group 57872">
      <path id="Path_102797" data-name="Path 102797" d="M-2727.262,2128.351H-2815.9a.584.584,0,0,1-.484-.255.588.588,0,0,1-.062-.544c2.182-5.627,4.111-34.416,4.461-39.9-4.742,1.5-14.525,1.062-14.967,1.041h-.108c-25.71,0-35.12-24.4-40.18-37.523l-.637-1.644c-4.742-12.166-9.523-42.661-9.572-42.968a.6.6,0,0,1,.009-.223c.085-.369,2.258-9.033,17.356-9.931,14.956-.9,19.3,4.02,19.473,4.229a.539.539,0,0,1,.111.2c.13.4,12.9,40.179,15.179,43.947.809,1.335,2.568,2.025,4.743,2.03,2.925-.062,5.812-1.5,6.864-3.412,1.008-1.832,2.91-5.96,5.111-10.742,2.49-5.406,5.587-12.135,8.5-17.95,5.557-11.092,17.969-13.619,18.5-13.721a.576.576,0,0,1,.685.462.585.585,0,0,1-.461.687c-.124.025-12.378,2.531-17.673,13.1-2.906,5.8-6,12.519-8.486,17.918-2.3,5-4.12,8.947-5.146,10.815-1.264,2.3-4.5,3.949-7.868,4.018-2.6.066-4.74-.89-5.77-2.595-2.309-3.811-14.31-41.137-15.25-44.067-.6-.586-5.171-4.539-18.444-3.744-13.462.8-15.971,7.93-16.253,8.922.333,2.117,4.939,30.943,9.485,42.6l.639,1.648c4.958,12.856,14.186,36.774,39.119,36.774h.1c.145.006,11.324.514,15.346-1.269a.582.582,0,0,1,.571.052.59.59,0,0,1,.252.518c-.083,1.366-1.983,32.408-4.329,40.356h87.21c-.156-4.369-1.1-30.972-1.06-39.48.015-3.25.194-7.324.384-11.638.352-8.03.752-17.129.192-23.394-.243-2.706-.371-5.518-.384-8.36a.586.586,0,0,1,.584-.587.585.585,0,0,1,.587.584c.014,2.807.142,5.585.381,8.257.567,6.345.166,15.485-.188,23.551-.191,4.3-.368,8.365-.385,11.595-.043,9.206,1.072,39.728,1.083,40.037a.581.581,0,0,1-.164.428A.581.581,0,0,1-2727.262,2128.351Z"/>
    </g>
    <g id="Group_57874" data-name="Group 57874">
      <g id="Group_57873" data-name="Group 57873">
        <path id="Path_102798" data-name="Path 102798" d="M-2923.765,1836.351c-2.153-.9-3.46-1.52-3.46-2.433s1.061-1.642,2.415-1.642a6.2,6.2,0,0,1,3.74,1.47,1.553,1.553,0,0,0,1.3.4,1.55,1.55,0,0,0,1.114-.783l1.393-2.538a1.55,1.55,0,0,0-.246-1.825,10.526,10.526,0,0,0-7.3-2.667c-4.907,0-8.607,3.287-8.607,7.648,0,4.666,3.995,6.409,6.913,7.681,2.287,1,3.676,1.681,3.676,2.753,0,1.591-1.857,1.671-2.23,1.671a7.131,7.131,0,0,1-4.476-1.9,1.573,1.573,0,0,0-1.2-.454,1.548,1.548,0,0,0-1.134.62l-1.734,2.323a1.547,1.547,0,0,0,.092,1.962,11.77,11.77,0,0,0,8.393,3.39c4.916,0,8.483-3.242,8.483-7.71C-2916.637,1839.35-2920.757,1837.617-2923.765,1836.351Z" fill="#fff"/>
        <path id="Path_102799" data-name="Path 102799" d="M-2895.46,1826.7h-18.051a1.547,1.547,0,0,0-1.548,1.547v2.664a1.547,1.547,0,0,0,1.548,1.547h5.945v17.649a1.547,1.547,0,0,0,1.548,1.547h3.065a1.547,1.547,0,0,0,1.548-1.547v-17.649h5.945a1.547,1.547,0,0,0,1.548-1.547v-2.664A1.547,1.547,0,0,0-2895.46,1826.7Z" fill="#fff"/>
        <path id="Path_102800" data-name="Path 102800" d="M-2876.018,1845.9h-8.608v-3.933h6.285a1.548,1.548,0,0,0,1.548-1.548v-2.662a1.548,1.548,0,0,0-1.548-1.548h-6.285v-3.747h8.081a1.547,1.547,0,0,0,1.548-1.547v-2.664a1.547,1.547,0,0,0-1.548-1.547h-12.694a1.547,1.547,0,0,0-1.548,1.547v21.86a1.547,1.547,0,0,0,1.548,1.547h13.221a1.547,1.547,0,0,0,1.548-1.547v-2.664A1.547,1.547,0,0,0-2876.018,1845.9Z" fill="#fff"/>
        <path id="Path_102801" data-name="Path 102801" d="M-2847.078,1828.127a1.547,1.547,0,0,0-1.542-1.423h-3.22a1.547,1.547,0,0,0-1.425.943l-4.705,11.1-4.706-11.1a1.548,1.548,0,0,0-1.425-.943h-3.22a1.548,1.548,0,0,0-1.543,1.423l-1.764,21.86a1.545,1.545,0,0,0,.405,1.173,1.547,1.547,0,0,0,1.137.5h3.066a1.547,1.547,0,0,0,1.543-1.43l.774-10.134,2.954,6.708a1.547,1.547,0,0,0,1.416.923h2.725a1.546,1.546,0,0,0,1.414-.92l2.966-6.687.795,10.113a1.548,1.548,0,0,0,1.543,1.427h3.035a1.547,1.547,0,0,0,1.137-.5,1.547,1.547,0,0,0,.405-1.173Z" fill="#fff"/>
      </g>
    </g>
    <g id="Group_57876" data-name="Group 57876">
      <g id="Group_57875" data-name="Group 57875">
        <path id="Path_102802" data-name="Path 102802" d="M-2923.765,1832.963c-2.153-.905-3.46-1.52-3.46-2.433s1.061-1.642,2.415-1.642a6.2,6.2,0,0,1,3.74,1.469,1.546,1.546,0,0,0,1.3.4,1.547,1.547,0,0,0,1.114-.783l1.393-2.537a1.55,1.55,0,0,0-.246-1.825,10.519,10.519,0,0,0-7.3-2.668c-4.907,0-8.607,3.288-8.607,7.649,0,4.666,3.995,6.408,6.913,7.681,2.287,1,3.676,1.681,3.676,2.752,0,1.592-1.857,1.672-2.23,1.672a7.124,7.124,0,0,1-4.476-1.9,1.575,1.575,0,0,0-1.2-.453,1.548,1.548,0,0,0-1.134.62l-1.734,2.323a1.546,1.546,0,0,0,.092,1.962,11.77,11.77,0,0,0,8.393,3.39c4.916,0,8.483-3.242,8.483-7.71C-2916.637,1835.962-2920.757,1834.228-2923.765,1832.963Z" fill="none" stroke="#000" stroke-miterlimit="10" stroke-width="1.2"/>
        <path id="Path_102803" data-name="Path 102803" d="M-2895.46,1823.315h-18.051a1.548,1.548,0,0,0-1.548,1.548v2.663a1.547,1.547,0,0,0,1.548,1.548h5.945v17.648a1.547,1.547,0,0,0,1.548,1.548h3.065a1.547,1.547,0,0,0,1.548-1.548v-17.648h5.945a1.547,1.547,0,0,0,1.548-1.548v-2.663A1.548,1.548,0,0,0-2895.46,1823.315Z" fill="none" stroke="#000" stroke-miterlimit="10" stroke-width="1.2"/>
        <path id="Path_102804" data-name="Path 102804" d="M-2876.018,1842.511h-8.608v-3.933h6.285a1.547,1.547,0,0,0,1.548-1.547v-2.662a1.547,1.547,0,0,0-1.548-1.548h-6.285v-3.747h8.081a1.547,1.547,0,0,0,1.548-1.548v-2.663a1.548,1.548,0,0,0-1.548-1.548h-12.694a1.548,1.548,0,0,0-1.548,1.548v21.859a1.547,1.547,0,0,0,1.548,1.548h13.221a1.547,1.547,0,0,0,1.548-1.548v-2.663A1.548,1.548,0,0,0-2876.018,1842.511Z" fill="none" stroke="#000" stroke-miterlimit="10" stroke-width="1.2"/>
        <path id="Path_102805" data-name="Path 102805" d="M-2847.078,1824.739a1.548,1.548,0,0,0-1.542-1.424h-3.22a1.549,1.549,0,0,0-1.425.943l-4.705,11.1-4.706-11.1a1.55,1.55,0,0,0-1.425-.943h-3.22a1.549,1.549,0,0,0-1.543,1.424l-1.764,21.859a1.542,1.542,0,0,0,.405,1.173,1.544,1.544,0,0,0,1.137.5h3.066a1.548,1.548,0,0,0,1.543-1.43l.774-10.134,2.954,6.708a1.549,1.549,0,0,0,1.416.923h2.725a1.546,1.546,0,0,0,1.414-.92l2.966-6.687.795,10.113a1.548,1.548,0,0,0,1.543,1.427h3.035a1.544,1.544,0,0,0,1.137-.5,1.544,1.544,0,0,0,.405-1.173Z" fill="none" stroke="#000" stroke-miterlimit="10" stroke-width="1.2"/>
      </g>
    </g>
    <path id="Path_102806" data-name="Path 102806" d="M-2786.465,1946.553s-.354,10.911,2.954,15.17,9.351,7.56,9.351,7.56,6.812,3.362,2.032,10.035c0,0-7.98,10-4.13,14.4s13.491,1.187,19.2,14.207-.481,23.868,2.091,29.412,6.267,11.94,18.241,11.193c0,0-10.527,3.13-22.581-5.437,0,0-5.389-4.872-2.293-17.809,0,0,5.186-14.625-3.814-17.036,0,0-15.781-1.849-18.739-10.768,0,0-5.945-9.315,5.553-16.269l3.383.037,1.646-.911,1-.964.938-1.152.75-2.143.08-2.142-1.419-2.867-2.545-1.714-1.848-.562-1.982.16-1.179.536-5.009-2.839-3.455-4.741-1.34-3.59.436-4.553,1.9-4.822Z" fill="#31326f"/>
    <g id="Group_57877" data-name="Group 57877">
      <path id="Path_102807" data-name="Path 102807" d="M-2740.836,2049.723a36.274,36.274,0,0,1-10.6-1.8c-2.983-.906-6.34-2.183-8.624-4.8-2.788-3.189-3.759-7.977-2.887-14.235.214-1.542.508-3.094.792-4.593a53.529,53.529,0,0,0,1.093-7.883,8.767,8.767,0,0,0-.874-4.755c-1.509-2.546-5.008-3.565-7.508-4.111-.594-.128-1.189-.245-1.785-.362a28.669,28.669,0,0,1-5.416-1.431c-5.426-2.218-9.46-8.335-9.588-14.543-.094-4.5,3.727-8.248,7.335-10.258a.583.583,0,0,1,.8.228.584.584,0,0,1-.228.8c-3.309,1.844-6.815,5.23-6.732,9.211.12,5.763,3.845,11.431,8.86,13.482a27.87,27.87,0,0,0,5.2,1.365c.6.118,1.208.237,1.809.367,2.716.591,6.525,1.719,8.269,4.657a9.835,9.835,0,0,1,1.036,5.4,54.357,54.357,0,0,1-1.113,8.058c-.281,1.486-.573,3.023-.783,4.537-.821,5.905.056,10.381,2.608,13.3,2.09,2.392,5.259,3.59,8.082,4.447a35.152,35.152,0,0,0,10.258,1.747h.235c10.271-.1,17.977-8.165,17.924-18.765-.057-11.314-5.715-22.425-14.082-27.645-1.292-.806-2.7-1.541-4.066-2.25-3.461-1.805-7.041-3.671-9.278-6.961-3.676-5.4-2.121-11.365-.614-17.127a56.076,56.076,0,0,0,1.337-5.994c2.454-17.14-5.834-21.549-10.994-22.651-1.32-.278-8.037.515-12.231,1.119a.6.6,0,0,1-.307-.04c-7.987-3.308-12.178-1.146-12.794-.779-.535.815-4.282,6.824-2.637,12.69,1.036,3.69,4,6.633,8.8,8.748a.586.586,0,0,1,.3.772.587.587,0,0,1-.772.3c-5.143-2.265-8.324-5.467-9.457-9.512-1.908-6.815,2.674-13.481,2.87-13.762a.568.568,0,0,1,.139-.141c.184-.132,4.661-3.218,13.852.54,1.645-.235,10.6-1.482,12.484-1.081,5.559,1.187,14.5,5.878,11.909,23.962a57.391,57.391,0,0,1-1.363,6.124c-1.441,5.51-2.929,11.206.448,16.172,2.071,3.047,5.365,4.763,8.852,6.58,1.383.719,2.814,1.465,4.145,2.3,8.695,5.426,14.574,16.932,14.632,28.632.057,11.269-8.148,19.843-19.083,19.945Z"/>
    </g>
    <g id="Group_57878" data-name="Group 57878">
      <path id="Path_102808" data-name="Path 102808" d="M-2776.818,1982.06a6.952,6.952,0,0,1-2.465-.454,6.929,6.929,0,0,1-3.284-2.573.586.586,0,0,1,.153-.815.588.588,0,0,1,.815.153,5.774,5.774,0,0,0,2.731,2.139,5.759,5.759,0,0,0,4.434-.141,5.763,5.763,0,0,0,3.038-3.237,5.752,5.752,0,0,0-.141-4.435,5.762,5.762,0,0,0-3.237-3.038,5.784,5.784,0,0,0-5.571.817.585.585,0,0,1-.821-.109.585.585,0,0,1,.109-.821,6.931,6.931,0,0,1,6.7-.983,6.921,6.921,0,0,1,3.89,3.65,6.91,6.91,0,0,1,.17,5.333,6.918,6.918,0,0,1-3.65,3.89A6.982,6.982,0,0,1-2776.818,1982.06Z"/>
    </g>
    <g id="Group_57879" data-name="Group 57879">
      <path id="Path_102809" data-name="Path 102809" d="M-3040.832,1976.035a4,4,0,0,1-1.842-.433,5.535,5.535,0,0,1-2.511-3.427.587.587,0,0,1,.44-.7.594.594,0,0,1,.7.438,4.405,4.405,0,0,0,1.91,2.65,3.729,3.729,0,0,0,3.2-.134.589.589,0,0,1,.767.315.585.585,0,0,1-.313.766A6.123,6.123,0,0,1-3040.832,1976.035Z"/>
    </g>
    <path id="Path_102810" data-name="Path 102810" d="M-3040.113,1950.652s5.833,20.916,3.425,27.257-10.122,6.026-10.122,6.026l5.609.319s9.246.308,9.016-10.505c0,0,.251-8.209-3.812-23.765l-2.317-3.3Z" fill="#ffbd86"/>
    <g id="Group_57880" data-name="Group 57880">
      <path id="Path_102811" data-name="Path 102811" d="M-3037.048,1970.2a.5.5,0,0,1-.133-.015.585.585,0,0,1-.438-.7c.459-1.972.563-4.092.212-4.363a6.663,6.663,0,0,0-2.785.943.593.593,0,0,1-.529.008.588.588,0,0,1-.32-.422l-1.47-8.067a.586.586,0,0,1,.471-.682.578.578,0,0,1,.682.471l1.331,7.3c1.142-.531,2.627-1.03,3.336-.482,1.156.893.534,4.183.213,5.558A.586.586,0,0,1-3037.048,1970.2Z"/>
    </g>
    <path id="Path_102812" data-name="Path 102812" d="M-3036.91,1957.851c.45-.148.792,0,1.2,1.642.45,1.831.023,2.236-.4,2.288s-.929-.454-1.125-1.782S-3037.5,1958.045-3036.91,1957.851Z"/>
    <g id="Group_57881" data-name="Group 57881">
      <path id="Path_102813" data-name="Path 102813" d="M-3034.762,1954.865a.582.582,0,0,1-.322-.1c-.665-.441-1.467-.81-3.312-.06a.589.589,0,0,1-.763-.326.588.588,0,0,1,.324-.763c2.261-.913,3.449-.453,4.4.17a.584.584,0,0,1,.165.811A.582.582,0,0,1-3034.762,1954.865Z"/>
    </g>
    <path id="Path_102814" data-name="Path 102814" d="M-3044.025,1984.338s-.428,7.386,1.179,10.988,3.07,12.291-5.59,10.518c0,0,8.393,5.865,10.313-1.972,0,0,.918-2.695-1.742-7.033,0,0-1.307-5.5-1.066-7.151a29.114,29.114,0,0,0-.27-5.434Z" fill="#ffbd86"/>
    <g id="Group_57882" data-name="Group 57882">
      <path id="Path_102815" data-name="Path 102815" d="M-3043.163,2008.367a7.676,7.676,0,0,1-2.415-.4,18.275,18.275,0,0,1-7.376-5.2,38.08,38.08,0,0,1-6.342-9.97l-.27-.618a.586.586,0,0,1,.31-.768.589.589,0,0,1,.769.309l.261.6a36.964,36.964,0,0,0,6.142,9.664,17.148,17.148,0,0,0,6.874,4.876,5.3,5.3,0,0,0,4.347-.23c3.783-2.219,2.431-5.893,1-9.781a19.181,19.181,0,0,1-1.342-4.821l-.58-7.742,1.169-.086.58,7.743a18.351,18.351,0,0,0,1.274,4.5c1.391,3.779,3.122,8.484-1.506,11.2A5.674,5.674,0,0,1-3043.163,2008.367Z"/>
    </g>
    <g id="Group_57883" data-name="Group 57883">
      <path id="Path_102816" data-name="Path 102816" d="M-3044.742,1984.841c-1.094,0-2.3-.026-3.494-.113a.585.585,0,0,1-.543-.625.575.575,0,0,1,.626-.542c1.922.137,3.867.118,5.343.084l.613-.011c2.651-.049,5.154-.094,7.07-1.9a6.584,6.584,0,0,0,1.468-2.056,12.542,12.542,0,0,0,.815-3.447,26.375,26.375,0,0,0,.215-4.368,69.96,69.96,0,0,0-.855-8.121l-.092-.64c-.466-3.243-2.219-10.73-2.237-10.805a.587.587,0,0,1,.437-.7.581.581,0,0,1,.7.437c.073.309,1.783,7.612,2.256,10.907l.093.639a71.446,71.446,0,0,1,.866,8.257,27.757,27.757,0,0,1-.225,4.561,13.657,13.657,0,0,1-.911,3.771,7.792,7.792,0,0,1-1.73,2.425c-2.245,2.115-5.1,2.166-7.853,2.216l-.608.012C-3043.373,1984.83-3044.036,1984.841-3044.742,1984.841Z"/>
    </g>
  </g>
</svg>
