<svg xmlns="http://www.w3.org/2000/svg" width="400" height="183" viewBox="0 0 400 183">
  <g id="t1-ic2" transform="translate(-180 -1401.592)">
    <g id="Image_Place_Holder" data-name="Image Place Holder" transform="translate(180 1451.592)" opacity="0.25">
      <rect id="Image_Place_Holder-2" data-name="Image Place Holder" width="400" height="133" rx="10" fill="#dbf6e9"/>
    </g>
    <g id="Filled_outline" data-name="Filled outline" transform="translate(284 1385.592)">
      <path id="Path_102129" data-name="Path 102129" d="M86.167,360H32a16.667,16.667,0,0,1,0,20H86.167A16.667,16.667,0,0,0,86.167,360Z" transform="translate(-5.5 -236.5)" fill="#dbf6e9"/>
      <path id="Path_102130" data-name="Path 102130" d="M277.834,360h-72.5a16.667,16.667,0,0,1,0,20h72.5A16.667,16.667,0,0,0,277.834,360Z" transform="translate(-124.667 -236.5)" fill="#f24872"/>
      <path id="Path_102131" data-name="Path 102131" d="M280.4,365H207.9a16.585,16.585,0,0,0-2.566-5h72.5A16.585,16.585,0,0,1,280.4,365Z" transform="translate(-124.664 -236.5)" fill="#cc3d60"/>
      <path id="Path_102132" data-name="Path 102132" d="M299.334,442.768H353.5a16.667,16.667,0,0,1,0-20H299.334A16.667,16.667,0,0,0,299.334,442.768Z" transform="translate(-187 -279.653)" fill="#dbf6e9"/>
      <path id="Path_102133" data-name="Path 102133" d="M67.334,442.768h72.5a16.667,16.667,0,0,1,0-20h-72.5A16.667,16.667,0,0,0,67.334,442.768Z" transform="translate(-27.5 -279.653)" fill="#ffc93c"/>
      <path id="Path_102134" data-name="Path 102134" d="M141.264,422.77a16.676,16.676,0,0,0-2.684,5.384H66.08a16.676,16.676,0,0,1,2.684-5.384Z" transform="translate(-28.93 -279.654)" fill="#cca130"/>
      <rect id="Rectangle_5261" data-name="Rectangle 5261" width="115.294" height="99.922" rx="24" transform="translate(38.781 18.778)" fill="#9ddfd3"/>
      <path id="Path_102135" data-name="Path 102135" d="M253.537,24H218.594l-38.9,100h73.847a7.5,7.5,0,0,0,7.5-7.5v-85A7.5,7.5,0,0,0,253.537,24Z" transform="translate(-107.037 -5.5)" fill="#87bfb5"/>
      <path id="Path_102136" data-name="Path 102136" d="M122.5,314.5a8.536,8.536,0,0,1-6.036,2.5H98.536a8.536,8.536,0,0,1-6.036-2.5,8.536,8.536,0,0,0-6.036-2.5H40v7.5a7.5,7.5,0,0,0,7.5,7.5h120a7.5,7.5,0,0,0,7.5-7.5V312H128.536A8.536,8.536,0,0,0,122.5,314.5Z" transform="translate(-11 -203.5)" fill="#dbf6e9"/>
      <path id="Path_102137" data-name="Path 102137" d="M391.5,312v7.5A7.5,7.5,0,0,1,384,327h20a7.5,7.5,0,0,0,7.5-7.5V312Z" transform="translate(-247.5 -203.5)" fill="#e0e0de"/>
      <path id="Path_102138" data-name="Path 102138" d="M226,136v40a64.868,64.868,0,0,0-24.106,4.644L201,181l-.894-.356A64.867,64.867,0,0,0,176,176V136Z" transform="translate(-104.5 -82.5)" fill="#31326f"/>
      <path id="Path_102139" data-name="Path 102139" d="M226,136v13.887L201,161l-25-11.113V136Z" transform="translate(-104.5 -82.5)" fill="#374357"/>
      <path id="Path_102140" data-name="Path 102140" d="M112,92l45-20,45,20-45,20Z" transform="translate(-60.5 -38.5)" fill="#444599"/>
      <path id="Path_102141" data-name="Path 102141" d="M368,231h10l-5-15Z" transform="translate(-236.5 -137.5)" fill="#ffb531"/>
      <circle id="Ellipse_4098" data-name="Ellipse 4098" cx="5.026" cy="5.026" r="5.026" transform="translate(91.403 48.341)" fill="#556a8a"/>
      <path id="Path_102142" data-name="Path 102142" d="M96,48h5v5H96Z" transform="translate(-49.5 -22)"/>
      <path id="Path_102143" data-name="Path 102143" d="M128,48h5v5h-5Z" transform="translate(-71.5 -22)"/>
      <path id="Path_102144" data-name="Path 102144" d="M160,48h5v5h-5Z" transform="translate(-93.5 -22)"/>
      <path id="Path_102145" data-name="Path 102145" d="M96,160h5v5H96Z" transform="translate(-49.5 -99)"/>
      <path id="Path_102146" data-name="Path 102146" d="M96,192h5v25H96Z" transform="translate(-49.5 -121)"/>
      <path id="Path_102147" data-name="Path 102147" d="M24.264,144.618A2.5,2.5,0,0,0,26.5,146h9.038a19.285,19.285,0,0,0,2.3,19,2.5,2.5,0,0,0,2,1H166.5a2.5,2.5,0,0,0,2-4,14.24,14.24,0,0,1,0-17,2.5,2.5,0,0,0-2-4h-9.038a19.359,19.359,0,0,0-.02-15.046A10.013,10.013,0,0,0,166.5,116v-7.5A2.5,2.5,0,0,0,164,106h-7.5V26a10.011,10.011,0,0,0-10-10H46.5a10.011,10.011,0,0,0-10,10v80H29a2.5,2.5,0,0,0-2.5,2.5V116h5v-5H75.465a6,6,0,0,1,4.268,1.768,10.963,10.963,0,0,0,7.8,3.232h17.929a10.963,10.963,0,0,0,7.8-3.232A6,6,0,0,1,117.536,111H161.5v5a5.006,5.006,0,0,1-5,5H26.5a2.5,2.5,0,0,0-2,4,14.24,14.24,0,0,1,0,17,2.5,2.5,0,0,0-.236,2.618Zm85.469-35.386A6,6,0,0,1,105.465,111H87.536a6,6,0,0,1-4.268-1.768,10.963,10.963,0,0,0-7.8-3.232H41.5V26a5.006,5.006,0,0,1,5-5h100a5.006,5.006,0,0,1,5,5v80H117.536a10.963,10.963,0,0,0-7.8,3.232ZM32.142,136H81.26a14.1,14.1,0,0,1-1.91,5H30.8A19.224,19.224,0,0,0,32.142,136Zm104.708,5H102.463a19.36,19.36,0,0,0,0-15H136.85A14.263,14.263,0,0,1,136.85,141Zm-28.812,20H96.15a14.264,14.264,0,0,1,0-15h11.888A19.361,19.361,0,0,0,108.038,161ZM56.15,146H90.537a19.361,19.361,0,0,0,0,15H56.15A14.264,14.264,0,0,1,56.15,146Zm40.7-5H84.963a19.361,19.361,0,0,0,0-15H96.85A14.263,14.263,0,0,1,96.85,141Zm-55.7,5h9.388a19.361,19.361,0,0,0,0,15H41.149A14.264,14.264,0,0,1,41.149,146Zm72.5,15a14.1,14.1,0,0,1-1.91-5h49.119a19.211,19.211,0,0,0,1.344,5Zm47.208-10H111.74a14.1,14.1,0,0,1,1.91-5H162.2a19.2,19.2,0,0,0-1.344,5Zm-9.007-10h-9.388a19.361,19.361,0,0,0,0-15h9.389a14.265,14.265,0,0,1,0,15ZM36.5,126H79.35a14.1,14.1,0,0,1,1.91,5H32.142a19.223,19.223,0,0,0-1.344-5Z"/>
      <path id="Path_102148" data-name="Path 102148" d="M194,111.093V90.346l3.515-1.562a2.5,2.5,0,0,0,0-4.569l-45-20a2.5,2.5,0,0,0-2.031,0l-45,20a2.5,2.5,0,0,0,0,4.569L124,97.013V126.5a2.5,2.5,0,0,0,2.5,2.5,62.1,62.1,0,0,1,23.181,4.466l.894.356a2.5,2.5,0,0,0,1.852,0l.9-.358A62.087,62.087,0,0,1,176.5,129a2.5,2.5,0,0,0,2.5-2.5V97.013l10-4.444v18.525l-4.872,14.616A2.5,2.5,0,0,0,186.5,129h10a2.5,2.5,0,0,0,2.372-3.291ZM151.5,69.235l15.32,6.809L156.7,81.1a7.518,7.518,0,1,0,2.24,4.469l13.677-6.839-.074-.147,17.8,7.913L151.5,103.764,112.653,86.5ZM154,86.5a2.5,2.5,0,1,1-2.5-2.5A2.5,2.5,0,0,1,154,86.5Zm20,37.546a67.014,67.014,0,0,0-22.5,4.763,67.014,67.014,0,0,0-22.5-4.763V99.235l21.485,9.549a2.5,2.5,0,0,0,2.031,0L174,99.235ZM189.965,124l1.531-4.594L193.028,124Z" transform="translate(-54.996 -32.999)"/>
    </g>
  </g>
</svg>
