<svg xmlns="http://www.w3.org/2000/svg" width="190" height="140" viewBox="0 0 190 140">
  <g id="t1-ic6" transform="translate(-285 -2745)">
    <path id="Trazado_101756_1_" d="M173.455,44.99H163.96a8.327,8.327,0,0,1-8.555-8.169h0a8.387,8.387,0,0,1,8.555-8.169h6.016a3.569,3.569,0,0,0,3.666-2.911,3.5,3.5,0,0,0-3.008-3.943H155.781c-.188,0-.47-.188-.47-.376h0a8.51,8.51,0,0,0-8.743-8.262H108.589a2.345,2.345,0,0,1-2.35-1.69,2.305,2.305,0,0,1,1.786-2.629h29.612a4.475,4.475,0,0,0,4.606-3.568A4.365,4.365,0,0,0,138.484.3a2.026,2.026,0,0,0-.752,0H40.611A4.475,4.475,0,0,0,36,3.865a4.365,4.365,0,0,0,3.76,4.976,2.026,2.026,0,0,0,.752,0H64.865a5.048,5.048,0,0,1,5.076,3.943A4.784,4.784,0,0,1,65.9,18.231c-.282,0-.564.094-.846.094H19.46C8.743,18.137,0,26.4,0,36.54H0c0,9.014,6.769,16.525,15.793,18.121a2.825,2.825,0,0,1,2.35,2.723v1.5a2.716,2.716,0,0,1-2.914,2.723h0c-7.9,0-14.289,6.1-14.289,13.614h0c0,7.511,6.393,13.614,14.289,13.614h.094a4.194,4.194,0,0,1,4.324,4.037h0A4.372,4.372,0,0,1,15.605,97.1a3.383,3.383,0,0,0-1.034.188A10.854,10.854,0,0,0,7.145,106.4c-.47,6.2,4.7,11.361,11.093,11.361H156.345c5.828,0,10.811-4.131,11.281-9.671V107.9a5.3,5.3,0,0,1,5.264-4.788h2.068a9.012,9.012,0,0,0,9.213-8.732h0c0-3.662-3.1-6.666-6.769-7.887a5.419,5.419,0,0,1-3.854-4.976v-.282a5.813,5.813,0,0,1,4.512-5.54A15.82,15.82,0,0,0,190,60.67h0C189.906,51.938,182.573,44.99,173.455,44.99Z" transform="translate(285 2744.744)" fill="#9ddfd3"/>
    <g id="Group_57467" data-name="Group 57467" transform="translate(8732.038 11770.914)">
      <g id="Group_57439" data-name="Group 57439" transform="translate(-8391.491 -9004.597)">
        <path id="Path_102213" data-name="Path 102213" d="M-352.855,148.1V108.882h-85.887V226h85.887V148.1Z" transform="translate(438.742 -108.882)" fill="#f2fff9"/>
      </g>
      <g id="Group_57440" data-name="Group 57440" transform="translate(-8391.198 -9004.597)">
        <path id="Path_102214" data-name="Path 102214" d="M-428.705,210.766V108.882h-9.474V226h85.887v-9.473h-70.652A5.762,5.762,0,0,1-428.705,210.766Z" transform="translate(438.179 -108.882)" fill="#dbf6e9"/>
      </g>
      <g id="Group_57441" data-name="Group 57441" transform="translate(-8363.52 -9010.294)">
        <rect id="Rectangle_5262" data-name="Rectangle 5262" width="35.125" height="17.172" transform="translate(0 0)" fill="#ffc93c"/>
      </g>
      <g id="Group_57442" data-name="Group 57442" transform="translate(-8357.931 -9025.914)">
        <path id="Path_102215" data-name="Path 102215" d="M-351.929,81.493h-20.822a1.563,1.563,0,0,1-1.563-1.563,11.987,11.987,0,0,1,11.973-11.973A11.987,11.987,0,0,1-350.367,79.93,1.562,1.562,0,0,1-351.929,81.493Zm-19.121-3.125h17.42a8.863,8.863,0,0,0-8.71-7.285A8.863,8.863,0,0,0-371.051,78.368Z" transform="translate(374.314 -67.957)"/>
      </g>
      <g id="Group_57443" data-name="Group 57443" transform="translate(-8383.245 -8981.713)">
        <rect id="Rectangle_5263" data-name="Rectangle 5263" width="16.373" height="16.373" transform="translate(0 0)" fill="#fff"/>
      </g>
      <g id="Group_57444" data-name="Group 57444" transform="translate(-8383.245 -8955.315)">
        <rect id="Rectangle_5264" data-name="Rectangle 5264" width="16.373" height="16.373" transform="translate(0 0)" fill="#fff"/>
      </g>
      <g id="Group_57445" data-name="Group 57445" transform="translate(-8383.245 -8928.92)">
        <rect id="Rectangle_5265" data-name="Rectangle 5265" width="16.373" height="16.373" transform="translate(0 0)" fill="#fff"/>
      </g>
      <g id="Group_57446" data-name="Group 57446" transform="translate(-8393.055 -9006.159)">
        <path id="Path_102216" data-name="Path 102216" d="M-354.292,226.127H-440.18a1.563,1.563,0,0,1-1.563-1.563V107.445a1.563,1.563,0,0,1,1.563-1.563h27.027a1.563,1.563,0,0,1,1.563,1.563,1.563,1.563,0,0,1-1.563,1.563h-25.464V223h82.762v-8.608a1.562,1.562,0,0,1,1.563-1.563,1.563,1.563,0,0,1,1.563,1.563v10.171A1.563,1.563,0,0,1-354.292,226.127Z" transform="translate(441.743 -105.882)"/>
      </g>
      <g id="Group_57447" data-name="Group 57447" transform="translate(-8400.038 -9013.144)">
        <path id="Path_102217" data-name="Path 102217" d="M-453.587,212.719a1.563,1.563,0,0,1-1.563-1.563V94.037a1.563,1.563,0,0,1,1.563-1.563h27.026A1.563,1.563,0,0,1-425,94.037a1.563,1.563,0,0,1-1.563,1.563h-25.464V211.156A1.563,1.563,0,0,1-453.587,212.719Z" transform="translate(455.15 -92.474)"/>
      </g>
      <g id="Group_57448" data-name="Group 57448" transform="translate(-8329.957 -9006.159)">
        <path id="Path_102218" data-name="Path 102218" d="M-296.258,201.938a1.562,1.562,0,0,1-1.563-1.563V109.007h-21.228a1.562,1.562,0,0,1-1.563-1.563,1.563,1.563,0,0,1,1.563-1.563h22.79a1.563,1.563,0,0,1,1.563,1.563v92.93A1.563,1.563,0,0,1-296.258,201.938Z" transform="translate(320.611 -105.882)"/>
      </g>
      <g id="Group_57449" data-name="Group 57449" transform="translate(-8365.082 -9011.857)">
        <path id="Path_102219" data-name="Path 102219" d="M-351.356,115.241h-35.126a1.563,1.563,0,0,1-1.563-1.563V96.506a1.563,1.563,0,0,1,1.563-1.563h35.126a1.563,1.563,0,0,1,1.563,1.563v17.172A1.563,1.563,0,0,1-351.356,115.241Zm-33.563-3.125h32V98.068h-32Z" transform="translate(388.044 -94.943)"/>
      </g>
      <g id="Group_57450" data-name="Group 57450" transform="translate(-8385.39 -8983.275)">
        <path id="Path_102220" data-name="Path 102220" d="M-409.092,169.311h-16.373a1.563,1.563,0,0,1-1.563-1.563V151.376a1.563,1.563,0,0,1,1.563-1.563h16.373a1.563,1.563,0,0,1,1.563,1.563v16.373A1.563,1.563,0,0,1-409.092,169.311Zm-14.81-3.125h13.248V152.938H-423.9Z" transform="translate(427.028 -149.813)"/>
      </g>
      <g id="Group_57451" data-name="Group 57451" transform="translate(-8385.39 -8956.879)">
        <path id="Path_102221" data-name="Path 102221" d="M-409.092,219.986h-16.373a1.563,1.563,0,0,1-1.563-1.563V202.051a1.563,1.563,0,0,1,1.563-1.563h16.373a1.563,1.563,0,0,1,1.563,1.563v16.373A1.563,1.563,0,0,1-409.092,219.986Zm-14.81-3.125h13.248V203.613H-423.9Z" transform="translate(427.028 -200.488)"/>
      </g>
      <g id="Group_57452" data-name="Group 57452" transform="translate(-8385.39 -8930.482)">
        <path id="Path_102222" data-name="Path 102222" d="M-409.092,270.662h-16.373a1.563,1.563,0,0,1-1.563-1.563V252.726a1.563,1.563,0,0,1,1.563-1.563h16.373a1.563,1.563,0,0,1,1.563,1.563V269.1A1.563,1.563,0,0,1-409.092,270.662Zm-14.81-3.125h13.248V254.288H-423.9Z" transform="translate(427.028 -251.163)"/>
      </g>
      <g id="Group_57453" data-name="Group 57453" transform="translate(-8362.385 -8916.022)">
        <path id="Path_102223" data-name="Path 102223" d="M-363.161,282.046H-381.3a1.563,1.563,0,0,1-1.563-1.563,1.563,1.563,0,0,1,1.563-1.563h18.141a1.563,1.563,0,0,1,1.563,1.563A1.563,1.563,0,0,1-363.161,282.046Z" transform="translate(382.864 -278.921)"/>
      </g>
      <g id="Group_57454" data-name="Group 57454" transform="translate(-8362.385 -8926.383)">
        <path id="Path_102224" data-name="Path 102224" d="M-339.4,262.158h-41.9a1.563,1.563,0,0,1-1.563-1.563,1.563,1.563,0,0,1,1.563-1.563h41.9a1.563,1.563,0,0,1,1.563,1.563A1.563,1.563,0,0,1-339.4,262.158Z" transform="translate(382.864 -259.033)"/>
      </g>
      <g id="Group_57455" data-name="Group 57455" transform="translate(-8362.385 -8953.872)">
        <path id="Path_102225" data-name="Path 102225" d="M-337.838,209.385H-381.3a1.563,1.563,0,0,1-1.563-1.563,1.563,1.563,0,0,1,1.563-1.563h43.463a1.563,1.563,0,0,1,1.563,1.563A1.563,1.563,0,0,1-337.838,209.385Z" transform="translate(382.864 -206.26)"/>
      </g>
      <g id="Group_57456" data-name="Group 57456" transform="translate(-8362.385 -8943.513)">
        <path id="Path_102226" data-name="Path 102226" d="M-350.6,229.273h-30.7a1.563,1.563,0,0,1-1.563-1.563,1.563,1.563,0,0,1,1.563-1.563h30.7a1.563,1.563,0,0,1,1.563,1.563A1.563,1.563,0,0,1-350.6,229.273Z" transform="translate(382.864 -226.148)"/>
      </g>
      <g id="Group_57457" data-name="Group 57457" transform="translate(-8362.385 -8979.457)">
        <path id="Path_102227" data-name="Path 102227" d="M-337.921,160.267H-381.3a1.563,1.563,0,0,1-1.563-1.563,1.563,1.563,0,0,1,1.563-1.563h43.38a1.563,1.563,0,0,1,1.563,1.563A1.563,1.563,0,0,1-337.921,160.267Z" transform="translate(382.864 -157.142)"/>
      </g>
      <g id="Group_57458" data-name="Group 57458" transform="translate(-8362.385 -8969.1)">
        <path id="Path_102228" data-name="Path 102228" d="M-345.612,180.154H-381.3a1.563,1.563,0,0,1-1.563-1.563,1.563,1.563,0,0,1,1.563-1.563h35.689a1.563,1.563,0,0,1,1.563,1.563A1.562,1.562,0,0,1-345.612,180.154Z" transform="translate(382.864 -177.029)"/>
      </g>
      <g id="Group_57464" data-name="Group 57464" transform="translate(-8384.962 -8985.881)">
        <g id="Group_57463" data-name="Group 57463" transform="translate(0 0)">
          <g id="Group_57461" data-name="Group 57461" transform="translate(0.964 0.914)">
            <path id="Path_102229" data-name="Path 102229" d="M-177.471,483.635l-4.282,4.282,15.658-15.658-4.282-4.282-11.376,11.376-5.174-5.174-4.282,4.282,5.174,5.174,4.282,4.282Z" transform="translate(191.209 -467.977)" fill="#cc3d60"/>
          </g>
          <g id="Group_57462" data-name="Group 57462" transform="translate(0 0)">
            <path id="Path_102230" data-name="Path 102230" d="M-184.006,486.744a.91.91,0,0,1-.646-.268.913.913,0,0,1,0-1.292l15.012-15.012-2.99-2.99-10.73,10.73a.913.913,0,0,1-1.292,0l-4.528-4.528-2.99,2.99,4.528,4.528a.913.913,0,0,1,0,1.292.913.913,0,0,1-1.292,0l-5.174-5.174a.913.913,0,0,1,0-1.292l4.282-4.282a.94.94,0,0,1,1.292,0l4.528,4.528,10.73-10.73a.913.913,0,0,1,1.292,0l4.282,4.282a.915.915,0,0,1,.268.646.915.915,0,0,1-.268.646l-11.364,11.364-.012.012-4.282,4.282A.911.911,0,0,1-184.006,486.744Z" transform="translate(194.375 -464.977)"/>
          </g>
        </g>
      </g>
      <g id="Group_57465" data-name="Group 57465" transform="translate(-8384.962 -8959.484)">
        <g id="Group_57463-2" data-name="Group 57463" transform="translate(0 0)">
          <g id="Group_57461-2" data-name="Group 57461" transform="translate(0.964 0.914)">
            <path id="Path_102229-2" data-name="Path 102229" d="M-177.471,483.635l-4.282,4.282,15.658-15.658-4.282-4.282-11.376,11.376-5.174-5.174-4.282,4.282,5.174,5.174,4.282,4.282Z" transform="translate(191.209 -467.977)" fill="#cc3d60"/>
          </g>
          <g id="Group_57462-2" data-name="Group 57462" transform="translate(0 0)">
            <path id="Path_102230-2" data-name="Path 102230" d="M-184.006,486.744a.91.91,0,0,1-.646-.268.913.913,0,0,1,0-1.292l15.012-15.012-2.99-2.99-10.73,10.73a.913.913,0,0,1-1.292,0l-4.528-4.528-2.99,2.99,4.528,4.528a.913.913,0,0,1,0,1.292.913.913,0,0,1-1.292,0l-5.174-5.174a.913.913,0,0,1,0-1.292l4.282-4.282a.94.94,0,0,1,1.292,0l4.528,4.528,10.73-10.73a.913.913,0,0,1,1.292,0l4.282,4.282a.915.915,0,0,1,.268.646.915.915,0,0,1-.268.646l-11.364,11.364-.012.012-4.282,4.282A.911.911,0,0,1-184.006,486.744Z" transform="translate(194.375 -464.977)"/>
          </g>
        </g>
      </g>
      <g id="Group_57466" data-name="Group 57466" transform="translate(-8384.962 -8933.153)">
        <g id="Group_57463-3" data-name="Group 57463" transform="translate(0 0)">
          <g id="Group_57461-3" data-name="Group 57461" transform="translate(0.964 0.914)">
            <path id="Path_102229-3" data-name="Path 102229" d="M-177.471,483.635l-4.282,4.282,15.658-15.658-4.282-4.282-11.376,11.376-5.174-5.174-4.282,4.282,5.174,5.174,4.282,4.282Z" transform="translate(191.209 -467.977)" fill="#cc3d60"/>
          </g>
          <g id="Group_57462-3" data-name="Group 57462" transform="translate(0 0)">
            <path id="Path_102230-3" data-name="Path 102230" d="M-184.006,486.744a.91.91,0,0,1-.646-.268.913.913,0,0,1,0-1.292l15.012-15.012-2.99-2.99-10.73,10.73a.913.913,0,0,1-1.292,0l-4.528-4.528-2.99,2.99,4.528,4.528a.913.913,0,0,1,0,1.292.913.913,0,0,1-1.292,0l-5.174-5.174a.913.913,0,0,1,0-1.292l4.282-4.282a.94.94,0,0,1,1.292,0l4.528,4.528,10.73-10.73a.913.913,0,0,1,1.292,0l4.282,4.282a.915.915,0,0,1,.268.646.915.915,0,0,1-.268.646l-11.364,11.364-.012.012-4.282,4.282A.911.911,0,0,1-184.006,486.744Z" transform="translate(194.375 -464.977)"/>
          </g>
        </g>
      </g>
    </g>
  </g>
</svg>
