<svg xmlns="http://www.w3.org/2000/svg" width="52.996" height="52" viewBox="0 0 52.996 52">
  <g id="t2-ic4" transform="translate(-6.792 -11.45)">
    <g id="Group_57233" data-name="Group 57233" transform="translate(7.641 12.305)">
      <path id="Path_101854" data-name="Path 101854" d="M365.88,361.172a2.237,2.237,0,0,1-3.163,0l-11.728-11.728,3.163-3.163,11.728,11.728a2.237,2.237,0,0,1,0,3.163Z" transform="translate(-315.241 -311.535)" fill="#31326f"/>
      <g id="Group_57232" data-name="Group 57232" transform="translate(19.718 18.716)">
        <circle id="Ellipse_4077" data-name="Ellipse 4077" cx="13.529" cy="13.529" r="13.529" fill="#9ddfd3"/>
        <circle id="Ellipse_4078" data-name="Ellipse 4078" cx="9.289" cy="9.289" r="9.289" transform="matrix(0.383, -0.924, 0.924, 0.383, 1.405, 18.56)" fill="#ffe2e2"/>
        <path id="Path_101855" data-name="Path 101855" d="M257,264.716a9.155,9.155,0,0,1-.983,1.16,9.286,9.286,0,0,1-13.133-13.133,9.167,9.167,0,0,1,1.16-.983A9.285,9.285,0,0,0,257,264.716Z" transform="translate(-235.924 -245.781)" fill="#ffefee"/>
        <path id="Path_101856" data-name="Path 101856" d="M254.346,290.047l3.92-2.263a.728.728,0,0,0,0-1.261l-3.92-2.263a10.025,10.025,0,0,0-10.025,0l-3.92,2.263a.728.728,0,0,0,0,1.261l3.92,2.263A10.025,10.025,0,0,0,254.346,290.047Z" transform="translate(-235.805 -273.625)" fill="#dbf6e9"/>
        <circle id="Ellipse_4079" data-name="Ellipse 4079" cx="4.234" cy="4.234" r="4.234" transform="translate(9.295 9.295)" fill="#c8ea73"/>
        <path id="Path_101857" data-name="Path 101857" d="M295.754,291.985a4.234,4.234,0,1,1-5.59-5.59,4.234,4.234,0,0,0,5.59,5.59Z" transform="translate(-278.359 -276.733)" fill="#aecc64"/>
        <path id="Path_101858" data-name="Path 101858" d="M224.4,242.29a13.528,13.528,0,1,1-19.012-19.012A13.529,13.529,0,0,0,224.4,242.29Z" transform="translate(-200.289 -220.327)" fill="#73d7f9"/>
      </g>
      <path id="Path_101859" data-name="Path 101859" d="M36.253,30.238A10.737,10.737,0,1,0,16.812,36.52a19.694,19.694,0,0,1,3.87,11.522v.471h9.671v-.376a18.764,18.764,0,0,1,3.708-11.4,10.679,10.679,0,0,0,2.193-6.5Z" transform="translate(-14.781 -19.501)" fill="#ffc93c"/>
      <circle id="Ellipse_4080" data-name="Ellipse 4080" cx="2.606" cy="2.606" r="2.606" transform="translate(27.526 2.893)" fill="#cc3d60"/>
      <circle id="Ellipse_4081" data-name="Ellipse 4081" cx="2.606" cy="2.606" r="2.606" transform="translate(35.641 9.734)" fill="#cc3d60"/>
      <path id="Path_101860" data-name="Path 101860" d="M79.953,292.362V299.4a4.836,4.836,0,1,1-9.671,0v-7.041Z" transform="translate(-64.381 -263.35)" fill="#636363"/>
      <path id="Path_101861" data-name="Path 101861" d="M79.953,345.1v1.433a4.836,4.836,0,0,1-9.671,0V345.1Z" transform="translate(-64.381 -310.483)" fill="#796e84"/>
      <path id="Path_101862" data-name="Path 101862" d="M20,36.516a19.69,19.69,0,0,1,3.87,11.521v.472h-3.19v-.472a19.69,19.69,0,0,0-3.87-11.521,10.734,10.734,0,0,1,7.942-16.993,10.9,10.9,0,0,1,2.35.091,10.735,10.735,0,0,0-7.1,16.9Z" transform="translate(-14.777 -19.498)" fill="#ffd566"/>
      <path id="Path_101863" data-name="Path 101863" d="M76.712,303.968a.036.036,0,0,1-.021.006,4.837,4.837,0,0,1-6.409-4.572v-7.041h3.19V299.4A4.883,4.883,0,0,0,76.712,303.968Z" transform="translate(-64.381 -263.35)" fill="#afafaf"/>
      <path id="Path_101864" data-name="Path 101864" d="M76.712,351.1a.036.036,0,0,1-.021.006,4.837,4.837,0,0,1-6.409-4.572V345.1h3.19v1.433A4.883,4.883,0,0,0,76.712,351.1Z" transform="translate(-64.381 -310.483)" fill="#87828e"/>
    </g>
    <g id="Group_57234" data-name="Group 57234" transform="translate(6.792 11.45)">
      <circle id="Ellipse_4082" data-name="Ellipse 4082" cx="1.554" cy="1.554" r="1.554" transform="translate(32.542 31.546)"/>
      <path id="Path_101865" data-name="Path 101865" d="M249.352,230.348a10.139,10.139,0,1,0-7.168,17.3,10.161,10.161,0,0,0,7.168-17.3Zm-2.56,5.023,3.715,2.145-3.715,2.145a5.07,5.07,0,0,0,0-4.29Zm1.357-3.82a8.383,8.383,0,0,1,2.216,3.919l-2.744-1.584a10.942,10.942,0,0,0-10.875,0L234,235.47a8.445,8.445,0,0,1,14.148-3.919Zm-2.582,5.965a3.383,3.383,0,1,1-3.346-3.381A3.385,3.385,0,0,1,245.566,237.516Zm-7.991-2.145a5.069,5.069,0,0,0,0,4.29l-3.715-2.145Zm10.574,8.111A8.445,8.445,0,0,1,234,239.562l2.744,1.584a10.941,10.941,0,0,0,10.875,0l2.744-1.584A8.385,8.385,0,0,1,248.149,243.482Z" transform="translate(-208.087 -204.416)"/>
      <path id="Path_101866" data-name="Path 101866" d="M224.488,215.588l-5.88-5.881a14.378,14.378,0,0,0-22.28-17.913c-9.066,9.066-2.557,24.54,10.167,24.54a14.37,14.37,0,0,0,7.746-2.26l5.881,5.881a3.088,3.088,0,1,0,4.367-4.367Zm-26.957-4.661a12.678,12.678,0,1,1,17.93,0A12.692,12.692,0,0,1,197.53,210.927Zm24.774,8.232a1.387,1.387,0,0,1-.981-.406l-5.69-5.69a14.145,14.145,0,0,0,1.961-1.961l5.69,5.69A1.389,1.389,0,0,1,222.3,219.159Z" transform="translate(-172.399 -168.862)"/>
      <path id="Path_101867" data-name="Path 101867" d="M27.6,30.057A11.477,11.477,0,0,0,29.949,22.5l5.119-2.549a3.44,3.44,0,0,0,4.767.619l2.958,2.541a3.454,3.454,0,1,0,6.313.287l7.761-5.521a.85.85,0,1,0-.986-1.386l-7.761,5.521a3.439,3.439,0,0,0-4.22-.192l-2.993-2.571a3.454,3.454,0,1,0-6.537-.851l-4.647,2.314A11.585,11.585,0,1,0,8.983,29.823a18.779,18.779,0,0,1,3.708,11.023v7.513a5.686,5.686,0,1,0,11.371,0c.4-4.912-1.437-11.783,3.534-18.3Zm18.29-7.167a1.755,1.755,0,1,1-1.755,1.755A1.757,1.757,0,0,1,45.887,22.89Zm-8.114-6.841A1.755,1.755,0,1,1,36.017,17.8,1.757,1.757,0,0,1,37.773,16.049ZM22.362,48.359a3.985,3.985,0,1,1-7.969,0v-.583h7.969v.583Zm0-2.285H14.392V42.168h7.969Zm.005-5.607H14.389a20.522,20.522,0,0,0-4.028-11.642,9.885,9.885,0,1,1,15.883.2A19.644,19.644,0,0,0,22.367,40.467Z" transform="translate(-6.792 -11.45)"/>
      <path id="Path_101868" data-name="Path 101868" d="M177.253,106.14c0-.282-.013-.564-.039-.838a.85.85,0,1,0-1.694.158c.021.222.031.451.031.68q0,.149-.006.3a.85.85,0,0,0,.816.884h.035a.851.851,0,0,0,.849-.816c.005-.125.007-.249.007-.37Z" transform="translate(-157.577 -94.633)"/>
      <path id="Path_101869" data-name="Path 101869" d="M135.847,49.184a9.161,9.161,0,0,0-4.254-3.63A.851.851,0,1,0,131,47.148a7.444,7.444,0,0,1,3.388,2.908.85.85,0,1,0,1.461-.872Z" transform="translate(-117.298 -41.88)"/>
    </g>
  </g>
</svg>
