<svg xmlns="http://www.w3.org/2000/svg" width="315" height="209" viewBox="0 0 315 209">
  <g id="t2-ic10" transform="translate(-1020 -2956)">
    <rect id="Rectangle_5246" data-name="Rectangle 5246" width="315" height="209" transform="translate(1020 2956)" fill="none"/>
    <path id="Path_101756" data-name="Path 101756" d="M281.323,99.021H268.369a11.915,11.915,0,0,1-11.734-12.089h0a11.916,11.916,0,0,1,11.734-12.089h8.154a5.116,5.116,0,0,0,.155-10.229h-19.46a.6.6,0,0,1-.582-.614,12.106,12.106,0,0,0-11.922-12.267H174.469a3.221,3.221,0,0,1-.118-6.441h48.967a6.395,6.395,0,0,0,.175-12.787H82.725a6.395,6.395,0,0,0-.175,12.787h24.044a7,7,0,0,1,.191,14H35.311C20.67,59.289,8.8,71.518,8.8,86.6h0a27.111,27.111,0,0,0,21.58,26.834,4,4,0,0,1,3.152,3.975v2.229a4,4,0,0,1-3.94,4.059h0c-10.772,0-19.5,9-19.5,20.1h0c0,11.1,8.733,20.094,19.5,20.094h.07a5.953,5.953,0,0,1,5.862,6.039v.015a6.2,6.2,0,0,1-5.541,6.221,6.206,6.206,0,0,0-1.436.277,15.632,15.632,0,0,0,5.025,30.254H257.9a15.535,15.535,0,0,0,15.416-14.326c.005-.072.011-.145.015-.216a7.371,7.371,0,0,1,7.23-7.053h2.78a12.744,12.744,0,0,0,12.55-12.929h0c0-5.384-4.213-9.838-9.257-11.7a7.912,7.912,0,0,1-5.2-7.421v-.373a8.561,8.561,0,0,1,6.109-8.234A23.08,23.08,0,0,0,303.8,122.18h0C303.8,109.39,293.736,99.021,281.323,99.021Z" transform="translate(1021.2 2940.417)" fill="#9ddfd3"/>
    <g id="Group_57235" data-name="Group 57235" transform="translate(1077.762 2962.62)">
      <g id="Group_57233" data-name="Group 57233" transform="translate(3.188 3.213)">
        <path id="Path_101854" data-name="Path 101854" d="M406.909,402.2a8.4,8.4,0,0,1-11.879,0l-44.042-44.042,11.879-11.879,44.042,44.042a8.4,8.4,0,0,1,0,11.879Z" transform="translate(-216.751 -215.808)" fill="#31326f"/>
        <g id="Group_57232" data-name="Group 57232" transform="translate(74.046 70.282)">
          <circle id="Ellipse_4077" data-name="Ellipse 4077" cx="50.802" cy="50.802" r="50.802" fill="#9ddfd3"/>
          <circle id="Ellipse_4078" data-name="Ellipse 4078" cx="34.883" cy="34.883" r="34.883" transform="matrix(0.383, -0.924, 0.924, 0.383, 5.278, 69.695)" fill="#ffe2e2"/>
          <path id="Path_101855" data-name="Path 101855" d="M303.378,300.411a34.367,34.367,0,0,1-3.692,4.358,34.872,34.872,0,0,1-49.316-49.316,34.429,34.429,0,0,1,4.358-3.692,34.869,34.869,0,0,0,48.651,48.651Z" transform="translate(-224.225 -229.308)" fill="#ffefee"/>
          <path id="Path_101856" data-name="Path 101856" d="M293.77,309.694l14.72-8.5a2.735,2.735,0,0,0,0-4.737l-14.72-8.5a37.646,37.646,0,0,0-37.645,0l-14.72,8.5a2.735,2.735,0,0,0,0,4.737l14.72,8.5A37.646,37.646,0,0,0,293.77,309.694Z" transform="translate(-224.145 -248.025)" fill="#dbf6e9"/>
          <circle id="Ellipse_4079" data-name="Ellipse 4079" cx="15.899" cy="15.899" r="15.899" transform="translate(34.904 34.904)" fill="#c8ea73"/>
          <path id="Path_101857" data-name="Path 101857" d="M318.074,307.387a15.9,15.9,0,1,1-20.993-20.993,15.9,15.9,0,0,0,20.993,20.993Z" transform="translate(-252.75 -250.114)" fill="#aecc64"/>
          <path id="Path_101858" data-name="Path 101858" d="M290.794,294.672A50.8,50.8,0,1,1,219.4,223.278a50.8,50.8,0,0,0,71.394,71.394Z" transform="translate(-200.271 -212.198)" fill="#73d7f9"/>
        </g>
        <path id="Path_101859" data-name="Path 101859" d="M95.413,59.817a40.318,40.318,0,1,0-73,23.591c9.157,12.656,14.532,27.647,14.532,43.267v1.77H73.254v-1.411c0-15.383,4.6-30.578,13.925-42.811a40.1,40.1,0,0,0,8.234-24.407Z" transform="translate(-14.78 -19.5)" fill="#ffc93c"/>
        <circle id="Ellipse_4080" data-name="Ellipse 4080" cx="9.786" cy="9.786" r="9.786" transform="translate(103.366 10.863)" fill="#cc3d60"/>
        <circle id="Ellipse_4081" data-name="Ellipse 4081" cx="9.786" cy="9.786" r="9.786" transform="translate(133.836 36.552)" fill="#cc3d60"/>
        <path id="Path_101860" data-name="Path 101860" d="M106.6,292.362V318.8a18.158,18.158,0,1,1-36.317,0V292.362Z" transform="translate(-48.121 -183.417)" fill="#636363"/>
        <path id="Path_101861" data-name="Path 101861" d="M106.6,345.1v5.382a18.158,18.158,0,0,1-36.317,0V345.1Z" transform="translate(-48.121 -215.1)" fill="#796e84"/>
        <path id="Path_101862" data-name="Path 101862" d="M34.383,83.405c9.159,12.657,14.533,27.645,14.533,43.264v1.773H36.938v-1.773c0-15.619-5.374-30.607-14.533-43.264A40.308,40.308,0,0,1,52.23,19.6a40.925,40.925,0,0,1,8.824.343A40.312,40.312,0,0,0,34.383,83.405Z" transform="translate(-14.777 -19.498)" fill="#ffd566"/>
        <path id="Path_101863" data-name="Path 101863" d="M94.429,335.945a.135.135,0,0,1-.08.024A18.165,18.165,0,0,1,70.282,318.8V292.362H82.26V318.8C82.26,329.652,92,335.945,94.429,335.945Z" transform="translate(-48.121 -183.417)" fill="#afafaf"/>
        <path id="Path_101864" data-name="Path 101864" d="M94.429,367.628a.135.135,0,0,1-.08.024,18.165,18.165,0,0,1-24.068-17.168V345.1H82.26v5.382C82.26,361.335,92,367.628,94.429,367.628Z" transform="translate(-48.121 -215.1)" fill="#87828e"/>
      </g>
      <g id="Group_57234" data-name="Group 57234" transform="translate(0 0)">
        <circle id="Ellipse_4082" data-name="Ellipse 4082" cx="5.836" cy="5.836" r="5.836" transform="translate(122.201 118.461)"/>
        <path id="Path_101865" data-name="Path 101865" d="M297.059,238.542c-23.988-23.987-65.012-6.712-65.023,26.917a38.1,38.1,0,0,0,38.1,38.053c33.629,0,50.978-40.912,26.918-64.97Zm-9.613,18.864L301.4,265.46l-13.952,8.055a19.038,19.038,0,0,0,0-16.109Zm5.1-14.346a31.482,31.482,0,0,1,8.322,14.718l-10.3-5.949a41.088,41.088,0,0,0-40.839,0l-10.3,5.949c5.9-23.757,35.712-32.133,53.127-14.718Zm-9.7,22.4a12.7,12.7,0,1,1-12.563-12.7A12.712,12.712,0,0,1,282.845,265.46ZM252.836,257.4a19.036,19.036,0,0,0,0,16.11l-13.952-8.055Zm39.707,30.457c-17.413,17.413-47.228,9.033-53.126-14.718l10.3,5.949a41.086,41.086,0,0,0,40.839,0l10.3-5.95A31.489,31.489,0,0,1,292.543,287.861Z" transform="translate(-142.104 -141.163)"/>
        <path id="Path_101866" data-name="Path 101866" d="M313.717,292.729l-22.082-22.082a53.992,53.992,0,0,0-83.666-67.267c-34.044,34.044-9.6,92.151,38.181,92.151a53.962,53.962,0,0,0,29.086-8.487l22.082,22.082a11.595,11.595,0,1,0,16.4-16.4Zm-101.23-17.5a47.608,47.608,0,1,1,67.328,0A47.662,47.662,0,0,1,212.487,275.224Zm93.032,30.912a5.209,5.209,0,0,1-3.683-1.526l-21.368-21.368a53.128,53.128,0,0,0,7.364-7.364L309.2,297.246A5.215,5.215,0,0,1,305.519,306.136Z" transform="translate(-118.114 -117.264)"/>
        <path id="Path_101867" data-name="Path 101867" d="M84.919,81.325a43.1,43.1,0,0,0,8.834-28.38l19.224-9.571a12.919,12.919,0,0,0,17.9,2.326l11.108,9.541A12.97,12.97,0,1,0,165.7,56.32L194.84,35.586a3.194,3.194,0,1,0-3.7-5.2L161.992,51.115a12.915,12.915,0,0,0-15.845-.722l-11.24-9.654a12.97,12.97,0,1,0-24.549-3.195l-17.45,8.688A43.685,43.685,0,0,0,79.979,23.167C53.39-1.65,10.261,15.489,6.981,50.834a43.6,43.6,0,0,0,8.04,29.61c9.11,12.59,13.925,26.9,13.925,41.395v28.212a21.351,21.351,0,1,0,42.7,0c1.513-18.447-5.4-44.246,13.272-68.726ZM153.6,54.41A6.591,6.591,0,1,1,147.01,61,6.6,6.6,0,0,1,153.6,54.41ZM123.131,28.72a6.592,6.592,0,1,1-6.592,6.592A6.6,6.6,0,0,1,123.131,28.72ZM65.261,150.051a14.963,14.963,0,1,1-29.926,0v-2.191H65.261v2.191Zm0-8.579H35.334V126.8H65.261Zm.02-21.057H35.32C35.016,105.059,29.8,89.974,20.2,76.7a37.214,37.214,0,0,1-6.855-25.275c2.793-30.1,39.556-44.8,62.278-23.588a37.133,37.133,0,0,1,4.22,49.614C70.777,89.335,65.638,104.53,65.281,120.414Z" transform="translate(-6.792 -11.45)"/>
        <path id="Path_101868" data-name="Path 101868" d="M182.036,110.575c0-1.06-.049-2.118-.145-3.148a3.194,3.194,0,1,0-6.359.593c.077.833.117,1.693.117,2.554q0,.559-.022,1.135a3.194,3.194,0,0,0,3.063,3.319l.131,0a3.2,3.2,0,0,0,3.189-3.066c.019-.47.027-.933.027-1.391Z" transform="translate(-108.151 -67.366)"/>
        <path id="Path_101869" data-name="Path 101869" d="M150.73,59.333A34.4,34.4,0,0,0,134.757,45.7a3.194,3.194,0,0,0-2.233,5.985,27.955,27.955,0,0,1,12.722,10.918,3.194,3.194,0,1,0,5.485-3.273Z" transform="translate(-81.075 -31.905)"/>
      </g>
    </g>
  </g>
</svg>
