<svg xmlns="http://www.w3.org/2000/svg" width="52.019" height="52" viewBox="0 0 52.019 52">
  <g id="t2-ic9" transform="translate(0 -0.091)">
    <g id="Group_57319" data-name="Group 57319" transform="translate(0.762 0.853)">
      <g id="Group_57318" data-name="Group 57318">
        <g id="Group_57312" data-name="Group 57312" transform="translate(27.148)">
          <path id="Path_102039" data-name="Path 102039" d="M294.869,7.591H277.9a3.189,3.189,0,0,0-3.189,3.189V30.57a3.189,3.189,0,0,0,3.189,3.189h5.276v5.122l5.122-5.122h6.569a3.189,3.189,0,0,0,3.189-3.189V10.78a3.189,3.189,0,0,0-3.189-3.189Z" transform="translate(-274.712 -7.591)" fill="#f2fff9"/>
          <g id="Group_57311" data-name="Group 57311" transform="translate(16.093)">
            <path id="Path_102040" data-name="Path 102040" d="M437.174,7.591H433.11A3.189,3.189,0,0,1,436.3,10.78V30.57a3.189,3.189,0,0,1-3.189,3.189h4.064a3.189,3.189,0,0,0,3.189-3.189V10.78A3.189,3.189,0,0,0,437.174,7.591Z" transform="translate(-433.11 -7.591)" fill="#dbf6e9"/>
          </g>
        </g>
        <g id="Group_57317" data-name="Group 57317" transform="translate(0 2.553)">
          <path id="Path_102041" data-name="Path 102041" d="M41.053,350.964H13.317v-3.505a13.868,13.868,0,1,1,27.736,0Z" transform="translate(-12.726 -303.023)" fill="#f3f9ff"/>
          <path id="Path_102042" data-name="Path 102042" d="M106.474,381.525h8.844v12.5h-8.844Z" transform="translate(-96.418 -346.087)" fill="#cc3d60"/>
          <path id="Path_102043" data-name="Path 102043" d="M56.472,357.478h-2.4l-3.251-7.112h2.642l-1.49-7.019a13.384,13.384,0,0,1,4.5-2.506Z" transform="translate(-46.416 -309.537)" fill="#dbf6e9"/>
          <path id="Path_102044" data-name="Path 102044" d="M193.643,357.478h2.4l3.251-7.112h-2.642l1.49-7.019a13.384,13.384,0,0,0-4.5-2.506v16.637Z" transform="translate(-174.731 -309.537)" fill="#dbf6e9"/>
          <g id="Group_57316" data-name="Group 57316">
            <path id="Path_102045" data-name="Path 102045" d="M115.318,303.317a8.719,8.719,0,0,1-8.844,0v-8.844h8.844Z" transform="translate(-96.418 -267.88)" fill="#ffe7db"/>
            <g id="Group_57315" data-name="Group 57315">
              <path id="Path_102046" data-name="Path 102046" d="M30.785,62.276H13.134A5.634,5.634,0,0,1,7.5,56.642V47.183a14.459,14.459,0,0,1,28.918,0v9.459a5.634,5.634,0,0,1-5.634,5.634Z" transform="translate(-7.5 -32.724)" fill="#31326f"/>
              <path id="Path_102047" data-name="Path 102047" d="M131.849,32.724a14.569,14.569,0,0,0-2.032.143,14.462,14.462,0,0,1,12.427,14.316v9.459a5.634,5.634,0,0,1-5.634,5.634h4.064a5.634,5.634,0,0,0,5.634-5.634V47.183a14.459,14.459,0,0,0-14.459-14.459Z" transform="translate(-117.39 -32.724)" fill="#21214a"/>
              <g id="Group_57313" data-name="Group 57313" transform="translate(3.423 9.943)">
                <path id="Path_102048" data-name="Path 102048" d="M58.323,130.591c-3.962,5.486-10.566,5.08-10.566,5.08V132.42c-2.006,2.487-5.278,3.01-6.566,3.12v6.578a11.036,11.036,0,0,0,22.073,0V135.35c-4.263-.272-4.94-4.759-4.94-4.759Z" transform="translate(-41.191 -130.591)" fill="#fed2a4"/>
              </g>
              <g id="Group_57314" data-name="Group 57314" transform="translate(12.409 9.943)">
                <path id="Path_102049" data-name="Path 102049" d="M137.783,130.591a11.721,11.721,0,0,1-2.842,2.792,6.042,6.042,0,0,0,3.719,3.389v5.346a11.159,11.159,0,0,1-9.023,10.84,11.047,11.047,0,0,0,13.087-10.84V135.35c-4.263-.272-4.94-4.759-4.94-4.759Z" transform="translate(-129.637 -130.591)" fill="#ffbd86"/>
              </g>
            </g>
            <path id="Path_102050" data-name="Path 102050" d="M119.573,300.214a4.506,4.506,0,0,1-3.2-1.322.762.762,0,0,1,1.078-1.078,3,3,0,0,0,4.239,0,.762.762,0,1,1,1.077,1.078A4.507,4.507,0,0,1,119.573,300.214Z" transform="translate(-105.114 -270.681)" fill="#f0c2ad"/>
          </g>
        </g>
      </g>
      <ellipse id="Ellipse_4094" data-name="Ellipse 4094" cx="1.714" cy="1.722" rx="1.714" ry="1.722" transform="translate(31.332 12.582) rotate(-44.676)" fill="#9ddfd3"/>
      <ellipse id="Ellipse_4095" data-name="Ellipse 4095" cx="1.714" cy="1.722" rx="1.714" ry="1.722" transform="translate(41.432 10.668) rotate(-44.676)" fill="#cc3d60"/>
      <ellipse id="Ellipse_4096" data-name="Ellipse 4096" cx="1.714" cy="1.722" rx="1.714" ry="1.722" transform="translate(36.379 6.053) rotate(-44.676)" fill="#ffc93c"/>
    </g>
    <g id="Group_57320" data-name="Group 57320" transform="translate(0 0.091)">
      <path id="Path_102051" data-name="Path 102051" d="M50.495,21.551v2.281a2.43,2.43,0,0,1-2.427,2.427H41.5a.762.762,0,0,0-.539.223L37.138,30.3V27.021a.762.762,0,0,0-.762-.762H31.1a2.426,2.426,0,0,1-.657-.09v-8.3a15.126,15.126,0,0,0-1.77-7.117V4.042A2.43,2.43,0,0,1,31.1,1.615H48.067a2.43,2.43,0,0,1,2.427,2.427V17.589a.762.762,0,1,0,1.524,0V4.042A3.956,3.956,0,0,0,48.067.091H31.1a3.956,3.956,0,0,0-3.951,3.951V8.42A15.215,15.215,0,0,0,0,17.866v9.459a6.4,6.4,0,0,0,6.4,6.4H7.424a11.87,11.87,0,0,0,1.331,1.016,14.28,14.28,0,0,0-4.8,3.772.762.762,0,0,0,1.185.958c.221-.273.457-.536.7-.791l1.019,4.8h-1.7a.773.773,0,0,0-.693,1.079l3.251,7.112a.763.763,0,0,0,1.386-.634L6.349,45H7.8a.762.762,0,0,0,.745-.92L7.156,37.513a14.413,14.413,0,0,1,2.9-1.706v15.54a.762.762,0,0,0,1.524,0V40.077a9.5,9.5,0,0,0,7.332-.008V51.348a.762.762,0,0,0,1.524,0V35.816a13.05,13.05,0,0,1,2.893,1.726l-1.387,6.535a.762.762,0,0,0,.745.92h1.455l-2.758,6.033a.763.763,0,0,0,1.386.634l3.251-7.112a.773.773,0,0,0-.693-1.079h-1.7l1.008-4.75a13.259,13.259,0,0,1,1.3,1.573,13.02,13.02,0,0,1,2.389,7.546v3.505a.762.762,0,0,0,1.524,0V47.842a14.629,14.629,0,0,0-8.176-13.132,12.1,12.1,0,0,0,1.289-.991h1.083a6.4,6.4,0,0,0,6.382-5.995,3.977,3.977,0,0,0,.671.057h4.514v4.36a.766.766,0,0,0,1.3.539l4.9-4.9h6.253a3.956,3.956,0,0,0,3.951-3.951V21.551a.762.762,0,0,0-1.524,0ZM18.9,38.394a7.971,7.971,0,0,1-7.32,0v-2.3a11.744,11.744,0,0,0,3.635.574h.013a11.565,11.565,0,0,0,3.673-.6Zm3.554-6.283a10.181,10.181,0,0,1-7.228,3.034h-.011A10.28,10.28,0,0,1,4.947,24.877v-5.9a11,11,0,0,0,5.042-2V18.43a.762.762,0,0,0,.715.76,13.654,13.654,0,0,0,4.044-.508A13.056,13.056,0,0,0,21,14.944a7.531,7.531,0,0,0,.539,1.079A5.674,5.674,0,0,0,25.5,18.785v6.092a10.181,10.181,0,0,1-3.042,7.234Zm1.982.068a11.625,11.625,0,0,0,2.584-7.3V18.109a.762.762,0,0,0-.713-.76c-3.584-.229-4.211-3.955-4.236-4.114A.768.768,0,0,0,20.7,12.9a12.1,12.1,0,0,1-9.187,4.757V15.178a.767.767,0,0,0-1.355-.478C8.342,16.952,5.33,17.436,4.12,17.539a.762.762,0,0,0-.7.759v6.578a11.735,11.735,0,0,0,2.537,7.3,4.878,4.878,0,0,1-4.436-4.851V17.866a13.7,13.7,0,0,1,27.394,0v9.459h0a4.877,4.877,0,0,1-4.483,4.855Z" transform="translate(0 -0.091)"/>
      <path id="Path_102052" data-name="Path 102052" d="M322.989,62.005a.821.821,0,0,0,.763-.761l.005-6.036h4.3a.762.762,0,0,0,.762-.762V52.468a2.491,2.491,0,1,0-1.524-.008v1.224h-3.535l.005-5.832a2.49,2.49,0,1,0-1.524-.008l-.008,9.615h-3.516V54.381a2.49,2.49,0,1,0-1.524-.008V58.22a.762.762,0,0,0,.762.762h4.277l0,2.261a.762.762,0,0,0,.761.763Zm4.1-11.9a.961.961,0,1,1,.961.961A.961.961,0,0,1,327.091,50.107Zm-5.043-4.621a.961.961,0,1,1,.961.961A.961.961,0,0,1,322.049,45.486Zm-4.1,7.5a.961.961,0,1,1,.961-.961A.961.961,0,0,1,317.949,52.989Z" transform="translate(-283.423 -38.646)"/>
      <path id="Path_102053" data-name="Path 102053" d="M7.3,419.224a.762.762,0,0,0-.962.486,22.859,22.859,0,0,0-.761,7.61c-.241,1.613,1.825,1.608,1.524-.021a21.386,21.386,0,0,1,.685-7.112A.762.762,0,0,0,7.3,419.224Z" transform="translate(-4.989 -376.606)"/>
      <path id="Path_102054" data-name="Path 102054" d="M121.694,297.814a3,3,0,0,1-4.239,0,.762.762,0,0,0-1.078,1.078,4.526,4.526,0,0,0,6.394,0,.762.762,0,1,0-1.077-1.078Z" transform="translate(-104.353 -267.366)"/>
    </g>
  </g>
</svg>
