<svg xmlns="http://www.w3.org/2000/svg" xmlns:xlink="http://www.w3.org/1999/xlink" width="1240" height="600" viewBox="0 0 1240 600">
  <defs>
    <radialGradient id="radial-gradient" cx="0.5" cy="0.5" r="0.956" gradientTransform="translate(0.243 0.242) scale(0.514 0.516)" gradientUnits="objectBoundingBox">
      <stop offset="0" stop-color="#4d4d4d" stop-opacity="0.749"/>
      <stop offset="0.164" stop-color="#7d7d7d" stop-opacity="0.545"/>
      <stop offset="0.468" stop-color="#c4c4c4" stop-opacity="0.247"/>
      <stop offset="0.754" stop-color="#f0f0f0" stop-opacity="0.063"/>
      <stop offset="1" stop-color="#fff" stop-opacity="0"/>
    </radialGradient>
    <radialGradient id="radial-gradient-2" cx="0.5" cy="0.5" r="0.956" xlink:href="#radial-gradient"/>
    <radialGradient id="radial-gradient-3" cx="0.5" cy="0.5" r="0.956" xlink:href="#radial-gradient"/>
    <radialGradient id="radial-gradient-4" cx="0.5" cy="0.5" r="0.956" xlink:href="#radial-gradient"/>
    <radialGradient id="radial-gradient-5" cx="0.5" cy="0.5" r="0.956" xlink:href="#radial-gradient"/>
    <radialGradient id="radial-gradient-6" cx="0.5" cy="0.5" r="0.956" xlink:href="#radial-gradient"/>
    <radialGradient id="radial-gradient-7" cx="0.5" cy="0.5" r="0.956" xlink:href="#radial-gradient"/>
    <radialGradient id="radial-gradient-8" cx="0.5" cy="0.5" r="0.5" gradientUnits="objectBoundingBox">
      <stop offset="0" stop-color="#4d4d4d" stop-opacity="0.8"/>
      <stop offset="0.078" stop-color="#646464" stop-opacity="0.827"/>
      <stop offset="0.247" stop-color="#939393" stop-opacity="0.878"/>
      <stop offset="0.415" stop-color="#bababa" stop-opacity="0.922"/>
      <stop offset="0.576" stop-color="#d8d8d8" stop-opacity="0.957"/>
      <stop offset="0.731" stop-color="#ededed" stop-opacity="0.98"/>
      <stop offset="0.876" stop-color="#fafafa" stop-opacity="0.996"/>
      <stop offset="1" stop-color="#fff"/>
    </radialGradient>
    <linearGradient id="linear-gradient" x1="0.487" y1="0.224" x2="0.487" y2="1.008" gradientUnits="objectBoundingBox">
      <stop offset="0" stop-color="#fff"/>
      <stop offset="0.499" stop-color="#f4f4f4"/>
      <stop offset="1" stop-color="#e6e6e6"/>
    </linearGradient>
    <linearGradient id="linear-gradient-2" x1="0.5" y1="0.529" x2="0.5" y2="1.313" gradientUnits="objectBoundingBox">
      <stop offset="0" stop-color="#fff"/>
      <stop offset="0.395" stop-color="#fafafa"/>
      <stop offset="0.853" stop-color="#ececec"/>
      <stop offset="1" stop-color="#e6e6e6"/>
    </linearGradient>
  </defs>
  <g id="t2-ix1" transform="translate(-180 -5479)">
    <rect id="Rect치ngulo_5172" data-name="Rect치ngulo 5172" width="1240" height="600" transform="translate(180 5479)" fill="none"/>
    <rect id="Rectangle_5335" data-name="Rectangle 5335" width="145.744" height="74.883" rx="15.7" transform="translate(806.359 5566.944)" fill="url(#radial-gradient)"/>
    <rect id="Rectangle_5336" data-name="Rectangle 5336" width="145.744" height="74.883" rx="15.7" transform="translate(935.038 5685.744)" fill="url(#radial-gradient-2)"/>
    <rect id="Rectangle_5337" data-name="Rectangle 5337" width="145.744" height="74.883" rx="15.7" transform="translate(932.561 5818.444)" fill="url(#radial-gradient-3)"/>
    <rect id="Rectangle_5338" data-name="Rectangle 5338" width="145.744" height="74.883" rx="15.7" transform="translate(808.032 5951.76)" fill="url(#radial-gradient-4)"/>
    <rect id="Rectangle_5339" data-name="Rectangle 5339" width="145.744" height="74.883" rx="15.7" transform="translate(652.784 5947.021)" fill="url(#radial-gradient-5)"/>
    <rect id="Rectangle_5340" data-name="Rectangle 5340" width="145.744" height="74.883" rx="15.7" transform="translate(528.41 5821.906)" fill="url(#radial-gradient-6)"/>
    <rect id="Rectangle_5341" data-name="Rectangle 5341" width="145.744" height="74.883" rx="15.7" transform="translate(529.727 5686.319)" fill="url(#radial-gradient-7)"/>
    <g id="Group_57616" data-name="Group 57616" transform="translate(2316.921 4650.449)">
      <circle id="Ellipse_4117" data-name="Ellipse 4117" cx="102.3" cy="102.3" r="102.3" transform="translate(-1604.075 1061.104)" fill="url(#radial-gradient-8)"/>
      <circle id="Ellipse_4118" data-name="Ellipse 4118" cx="102.3" cy="102.3" r="102.3" transform="translate(-1617.912 1040.024)" fill="url(#linear-gradient)"/>
      <circle id="Ellipse_4119" data-name="Ellipse 4119" cx="95.798" cy="95.798" r="95.798" transform="translate(-1611.41 1046.525)" fill="url(#linear-gradient-2)"/>
      <text id="Restricciones" transform="translate(-1583.251 1148.753)" fill="#12263f" font-size="22" font-family="Roboto-Bold, Roboto" font-weight="700"><tspan x="0" y="0">Restricciones</tspan></text>
      <path id="Path_102334" data-name="Path 102334" d="M-1349.793,994.457c-79.72-86.35-211.55-95.828-302.54-24.744l22.871-1.358-2.951,21.083c79.595-59.887,193.191-50.887,262.2,23.867,73.577,79.7,68.616,203.952-11.081,277.529s-203.952,68.617-277.53-11.081c-69.86-75.67-68.907-191.5-.417-265.994l11.48,12.434,6.584-47.027-47.4,2.814,10.433,11.3c-79.733,84.959-81.367,218.368-1.093,305.319,83.987,90.972,225.82,96.636,316.792,12.649S-1265.806,1085.43-1349.793,994.457Z" fill="#f24872" opacity="0.25"/>
      <g id="Group_57543" data-name="Group 57543">
        <g id="Group_57536" data-name="Group 57536">
          <g id="Group_57532" data-name="Group 57532">
            <path id="Path_102335" data-name="Path 102335" d="M-1448.867,972.732h-1.014a.76.76,0,0,1-.76-.761.76.76,0,0,1,.76-.76h1.014a.761.761,0,0,1,.761.76A.761.761,0,0,1-1448.867,972.732Z"/>
          </g>
          <g id="Group_57533" data-name="Group 57533">
            <path id="Path_102336" data-name="Path 102336" d="M-1425.739,972.732h-1.632a.76.76,0,0,1-.76-.761.76.76,0,0,1,.76-.76l1.933-.005a.754.754,0,0,1,.781.739.761.761,0,0,1-.739.782Zm-5.541,0h-1.953a.761.761,0,0,1-.761-.761.761.761,0,0,1,.761-.76h1.953a.76.76,0,0,1,.761.76A.761.761,0,0,1-1431.28,972.732Zm-5.862,0h-1.954a.76.76,0,0,1-.76-.761.76.76,0,0,1,.76-.76h1.954a.761.761,0,0,1,.761.76A.761.761,0,0,1-1437.142,972.732Zm-5.862,0h-1.954a.761.761,0,0,1-.761-.761.76.76,0,0,1,.761-.76H-1443a.76.76,0,0,1,.76.76A.761.761,0,0,1-1443,972.732Zm21.4-.765a.763.763,0,0,1-.71-.488.762.762,0,0,1,.437-.983,10.811,10.811,0,0,0,1.642-.8.759.759,0,0,1,1.042.265.76.76,0,0,1-.266,1.043,12.467,12.467,0,0,1-1.871.908A.751.751,0,0,1-1421.6,971.967Zm4.719-3.372a.762.762,0,0,1-.489-.178.761.761,0,0,1-.093-1.072,11.126,11.126,0,0,0,1.053-1.491.759.759,0,0,1,1.041-.27.762.762,0,0,1,.27,1.042,12.528,12.528,0,0,1-1.2,1.7A.758.758,0,0,1-1416.884,968.595Zm2.5-5.233a.8.8,0,0,1-.145-.014.761.761,0,0,1-.6-.89,10.765,10.765,0,0,0,.19-1.812.776.776,0,0,1,.776-.746.762.762,0,0,1,.745.776,12.327,12.327,0,0,1-.218,2.068A.76.76,0,0,1-1414.387,963.362Zm.207-5.849a.761.761,0,0,1-.761-.761V954.8a.761.761,0,0,1,.761-.76.76.76,0,0,1,.76.76v1.954A.76.76,0,0,1-1414.18,957.513Zm0-5.862a.761.761,0,0,1-.761-.761v-1.954a.761.761,0,0,1,.761-.761.76.76,0,0,1,.76.761v1.954A.76.76,0,0,1-1414.18,951.651Zm0-5.863a.761.761,0,0,1-.761-.76v-1.955a.761.761,0,0,1,.761-.76.76.76,0,0,1,.76.76v1.955A.76.76,0,0,1-1414.18,945.788Zm0-5.862a.761.761,0,0,1-.761-.761v-1.954a.761.761,0,0,1,.761-.761.76.76,0,0,1,.76.761v1.954A.761.761,0,0,1-1414.18,939.926Z"/>
          </g>
          <g id="Group_57534" data-name="Group 57534">
            <path id="Path_102337" data-name="Path 102337" d="M-1414.18,934.052a.761.761,0,0,1-.761-.76v-1.014a.761.761,0,0,1,.761-.761.76.76,0,0,1,.76.761v1.014A.76.76,0,0,1-1414.18,934.052Z"/>
          </g>
          <g id="Group_57535" data-name="Group 57535">
            <path id="Path_102338" data-name="Path 102338" d="M-1414.18,929.3a.761.761,0,0,1-.761-.761v-3.565a.761.761,0,0,1,.761-.761.76.76,0,0,1,.76.761v3.565A.76.76,0,0,1-1414.18,929.3Z"/>
          </g>
        </g>
        <g id="Group_57537" data-name="Group 57537">
          <path id="Path_102339" data-name="Path 102339" d="M-1453.357,972.732h-152.017a12.333,12.333,0,0,1-12.319-12.319V937.43a.76.76,0,0,1,.76-.76.76.76,0,0,1,.761.76v22.983a10.81,10.81,0,0,0,10.8,10.8h152.017a.761.761,0,0,1,.761.76A.761.761,0,0,1-1453.357,972.732Z"/>
        </g>
        <g id="Group_57541" data-name="Group 57541">
          <g id="Group_57538" data-name="Group 57538">
            <path id="Path_102340" data-name="Path 102340" d="M-1578.243,913.925h-1.014a.76.76,0,0,1-.76-.76.76.76,0,0,1,.76-.761h1.014a.761.761,0,0,1,.761.761A.76.76,0,0,1-1578.243,913.925Z"/>
          </g>
          <g id="Group_57539" data-name="Group 57539">
            <path id="Path_102341" data-name="Path 102341" d="M-1616.933,930.454a.76.76,0,0,1-.76-.761v-2.052a.76.76,0,0,1,.76-.76.76.76,0,0,1,.761.76v2.052A.761.761,0,0,1-1616.933,930.454Zm.061-6.153a.676.676,0,0,1-.077,0,.76.76,0,0,1-.68-.833,12.1,12.1,0,0,1,.414-2.146.761.761,0,0,1,.942-.52.761.761,0,0,1,.519.942,10.553,10.553,0,0,0-.362,1.876A.761.761,0,0,1-1616.872,924.3Zm2.195-5.671a.753.753,0,0,1-.451-.149.759.759,0,0,1-.16-1.063,12.481,12.481,0,0,1,1.447-1.635.76.76,0,0,1,1.074.029.76.76,0,0,1-.029,1.075,11,11,0,0,0-1.268,1.435A.76.76,0,0,1-1614.677,918.63Zm4.768-3.778a.761.761,0,0,1-.7-.461.761.761,0,0,1,.4-1,12.39,12.39,0,0,1,2.078-.677.762.762,0,0,1,.912.571.762.762,0,0,1-.572.912,10.72,10.72,0,0,0-1.82.593A.755.755,0,0,1-1609.909,914.852Zm26.549-.927h-2.052a.76.76,0,0,1-.761-.76.761.761,0,0,1,.761-.761h2.052a.761.761,0,0,1,.76.761A.76.76,0,0,1-1583.36,913.925Zm-6.156,0h-2.052a.76.76,0,0,1-.76-.76.76.76,0,0,1,.76-.761h2.052a.761.761,0,0,1,.761.761A.76.76,0,0,1-1589.516,913.925Zm-6.156,0h-2.051a.761.761,0,0,1-.761-.76.761.761,0,0,1,.761-.761h2.051a.761.761,0,0,1,.761.761A.76.76,0,0,1-1595.672,913.925Zm-6.155,0h-2.053a.76.76,0,0,1-.761-.76.761.761,0,0,1,.761-.761h2.053a.76.76,0,0,1,.76.761A.76.76,0,0,1-1601.827,913.925Z"/>
          </g>
          <g id="Group_57540" data-name="Group 57540">
            <path id="Path_102342" data-name="Path 102342" d="M-1616.933,935.583a.76.76,0,0,1-.76-.76v-1.014a.761.761,0,0,1,.76-.761.761.761,0,0,1,.761.761v1.014A.76.76,0,0,1-1616.933,935.583Z"/>
          </g>
        </g>
        <g id="Group_57542" data-name="Group 57542">
          <path id="Path_102343" data-name="Path 102343" d="M-1414.18,925.484a.761.761,0,0,1-.761-.761,10.81,10.81,0,0,0-10.8-10.8H-1575.2a.76.76,0,0,1-.76-.76.761.761,0,0,1,.76-.761h149.462a12.334,12.334,0,0,1,12.319,12.319A.76.76,0,0,1-1414.18,925.484Z"/>
        </g>
        <rect id="Rectangle_5342" data-name="Rectangle 5342" width="191.595" height="47.649" rx="8.009" transform="translate(-1611.354 918.743)" fill="#fff"/>
        <path id="Path_102344" data-name="Path 102344" d="M-1430.813,922.8a7,7,0,0,1,6.995,6.995v25.543a7,7,0,0,1-6.995,6.995H-1600.3a7,7,0,0,1-6.995-6.995V929.8a7,7,0,0,1,6.995-6.995h171.518m1.014-5.072h-175.576a9.034,9.034,0,0,0-9.023,9.023v31.631a9.033,9.033,0,0,0,9.023,9.023h175.576a9.032,9.032,0,0,0,9.023-9.023V926.752a9.033,9.033,0,0,0-9.023-9.023Z" fill="#9ddfd3"/>
      </g>
      <g id="Group_57555" data-name="Group 57555">
        <g id="Group_57548" data-name="Group 57548">
          <g id="Group_57544" data-name="Group 57544">
            <path id="Path_102345" data-name="Path 102345" d="M-1261.879,1086.332h-1.014a.761.761,0,0,1-.76-.761.76.76,0,0,1,.76-.76h1.014a.76.76,0,0,1,.761.76A.761.761,0,0,1-1261.879,1086.332Z"/>
          </g>
          <g id="Group_57545" data-name="Group 57545">
            <path id="Path_102346" data-name="Path 102346" d="M-1238.751,1086.332h-1.632a.761.761,0,0,1-.76-.761.76.76,0,0,1,.76-.76l1.933,0a.753.753,0,0,1,.781.739.761.761,0,0,1-.739.781Zm-5.541,0h-1.953a.761.761,0,0,1-.761-.761.76.76,0,0,1,.761-.76h1.953a.76.76,0,0,1,.761.76A.761.761,0,0,1-1244.292,1086.332Zm-5.862,0h-1.954a.761.761,0,0,1-.76-.761.76.76,0,0,1,.76-.76h1.954a.761.761,0,0,1,.761.76A.761.761,0,0,1-1250.154,1086.332Zm-5.862,0h-1.954a.761.761,0,0,1-.761-.761.76.76,0,0,1,.761-.76h1.954a.76.76,0,0,1,.76.76A.761.761,0,0,1-1256.016,1086.332Zm21.4-.765a.761.761,0,0,1-.711-.488.76.76,0,0,1,.437-.982,10.921,10.921,0,0,0,1.642-.8.759.759,0,0,1,1.042.266.759.759,0,0,1-.266,1.042,12.379,12.379,0,0,1-1.871.908A.749.749,0,0,1-1234.614,1085.567Zm4.718-3.372a.762.762,0,0,1-.489-.178.761.761,0,0,1-.093-1.072,11.038,11.038,0,0,0,1.053-1.491.759.759,0,0,1,1.041-.269.76.76,0,0,1,.27,1.041,12.538,12.538,0,0,1-1.2,1.7A.754.754,0,0,1-1229.9,1082.195Zm2.5-5.233a.718.718,0,0,1-.145-.014.76.76,0,0,1-.6-.89,10.753,10.753,0,0,0,.19-1.812.775.775,0,0,1,.776-.745.76.76,0,0,1,.745.775,12.324,12.324,0,0,1-.218,2.069A.759.759,0,0,1-1227.4,1076.962Zm.207-5.849a.761.761,0,0,1-.761-.76V1068.4a.761.761,0,0,1,.761-.761.761.761,0,0,1,.76.761v1.954A.76.76,0,0,1-1227.192,1071.113Zm0-5.862a.761.761,0,0,1-.761-.761v-1.954a.76.76,0,0,1,.761-.76.76.76,0,0,1,.76.76v1.954A.76.76,0,0,1-1227.192,1065.251Zm0-5.863a.76.76,0,0,1-.761-.76v-1.954a.761.761,0,0,1,.761-.761.761.761,0,0,1,.76.761v1.954A.76.76,0,0,1-1227.192,1059.388Zm0-5.862a.761.761,0,0,1-.761-.761v-1.954a.76.76,0,0,1,.761-.76.76.76,0,0,1,.76.76v1.954A.76.76,0,0,1-1227.192,1053.526Z"/>
          </g>
          <g id="Group_57546" data-name="Group 57546">
            <path id="Path_102347" data-name="Path 102347" d="M-1227.192,1047.653a.761.761,0,0,1-.761-.761v-1.014a.761.761,0,0,1,.761-.761.761.761,0,0,1,.76.761v1.014A.76.76,0,0,1-1227.192,1047.653Z"/>
          </g>
          <g id="Group_57547" data-name="Group 57547">
            <path id="Path_102348" data-name="Path 102348" d="M-1227.192,1042.9a.761.761,0,0,1-.761-.761v-3.565a.76.76,0,0,1,.761-.76.76.76,0,0,1,.76.76v3.565A.76.76,0,0,1-1227.192,1042.9Z"/>
          </g>
        </g>
        <g id="Group_57549" data-name="Group 57549">
          <path id="Path_102349" data-name="Path 102349" d="M-1266.369,1086.332h-152.017a12.333,12.333,0,0,1-12.319-12.319V1051.03a.76.76,0,0,1,.76-.76.761.761,0,0,1,.761.76v22.983a10.81,10.81,0,0,0,10.8,10.8h152.017a.76.76,0,0,1,.761.76A.761.761,0,0,1-1266.369,1086.332Z"/>
        </g>
        <g id="Group_57553" data-name="Group 57553">
          <g id="Group_57550" data-name="Group 57550">
            <path id="Path_102350" data-name="Path 102350" d="M-1391.255,1027.526h-1.014a.761.761,0,0,1-.76-.761.76.76,0,0,1,.76-.76h1.014a.76.76,0,0,1,.761.76A.761.761,0,0,1-1391.255,1027.526Z"/>
          </g>
          <g id="Group_57551" data-name="Group 57551">
            <path id="Path_102351" data-name="Path 102351" d="M-1429.945,1044.054a.76.76,0,0,1-.76-.76v-2.052a.761.761,0,0,1,.76-.761.761.761,0,0,1,.761.761v2.052A.761.761,0,0,1-1429.945,1044.054Zm.061-6.153a.662.662,0,0,1-.077,0,.759.759,0,0,1-.68-.833,12.123,12.123,0,0,1,.414-2.145.76.76,0,0,1,.942-.52.76.76,0,0,1,.519.941,10.581,10.581,0,0,0-.362,1.876A.76.76,0,0,1-1429.884,1037.9Zm2.2-5.67a.76.76,0,0,1-.451-.149.761.761,0,0,1-.16-1.064,12.5,12.5,0,0,1,1.447-1.635.76.76,0,0,1,1.074.029.761.761,0,0,1-.029,1.076,10.943,10.943,0,0,0-1.268,1.434A.76.76,0,0,1-1427.689,1032.231Zm4.768-3.778a.761.761,0,0,1-.7-.462.76.76,0,0,1,.4-1,12.211,12.211,0,0,1,2.078-.677.76.76,0,0,1,.912.571.762.762,0,0,1-.572.911,10.815,10.815,0,0,0-1.82.593A.757.757,0,0,1-1422.921,1028.453Zm26.549-.927h-2.052a.761.761,0,0,1-.761-.761.761.761,0,0,1,.761-.76h2.052a.76.76,0,0,1,.76.76A.761.761,0,0,1-1396.372,1027.526Zm-6.156,0h-2.052a.76.76,0,0,1-.76-.761.76.76,0,0,1,.76-.76h2.052a.761.761,0,0,1,.761.76A.761.761,0,0,1-1402.528,1027.526Zm-6.156,0h-2.051a.761.761,0,0,1-.761-.761.76.76,0,0,1,.761-.76h2.051a.761.761,0,0,1,.761.76A.761.761,0,0,1-1408.684,1027.526Zm-6.155,0h-2.053a.761.761,0,0,1-.761-.761.76.76,0,0,1,.761-.76h2.053a.76.76,0,0,1,.76.76A.76.76,0,0,1-1414.839,1027.526Z"/>
          </g>
          <g id="Group_57552" data-name="Group 57552">
            <path id="Path_102352" data-name="Path 102352" d="M-1429.945,1049.184a.76.76,0,0,1-.76-.761v-1.014a.76.76,0,0,1,.76-.76.761.761,0,0,1,.761.76v1.014A.761.761,0,0,1-1429.945,1049.184Z"/>
          </g>
        </g>
        <g id="Group_57554" data-name="Group 57554">
          <path id="Path_102353" data-name="Path 102353" d="M-1227.192,1039.084a.76.76,0,0,1-.761-.76,10.81,10.81,0,0,0-10.8-10.8h-149.462a.761.761,0,0,1-.76-.761.76.76,0,0,1,.76-.76h149.462a12.333,12.333,0,0,1,12.319,12.319A.76.76,0,0,1-1227.192,1039.084Z"/>
        </g>
        <rect id="Rectangle_5343" data-name="Rectangle 5343" width="191.595" height="47.649" rx="8.009" transform="translate(-1424.366 1032.344)" fill="#fff"/>
        <path id="Path_102354" data-name="Path 102354" d="M-1243.825,1036.4a6.994,6.994,0,0,1,6.995,6.995v25.543a6.994,6.994,0,0,1-6.995,6.994h-169.488a6.994,6.994,0,0,1-6.995-6.994V1043.4a7,7,0,0,1,6.995-6.995H-1241.8m1.014-5.072h-175.576a9.033,9.033,0,0,0-9.023,9.022v31.632a9.034,9.034,0,0,0,9.023,9.023h175.576a9.033,9.033,0,0,0,9.023-9.023v-31.632a9.032,9.032,0,0,0-9.023-9.022Z" fill="#cc3d60"/>
      </g>
      <g id="Group_57567" data-name="Group 57567">
        <g id="Group_57560" data-name="Group 57560">
          <g id="Group_57556" data-name="Group 57556">
            <path id="Path_102355" data-name="Path 102355" d="M-1251.424,1219.033h-1.014a.76.76,0,0,1-.761-.76.761.761,0,0,1,.761-.761h1.014a.761.761,0,0,1,.76.761A.76.76,0,0,1-1251.424,1219.033Z"/>
          </g>
          <g id="Group_57557" data-name="Group 57557">
            <path id="Path_102356" data-name="Path 102356" d="M-1228.3,1219.033h-1.632a.76.76,0,0,1-.761-.76.761.761,0,0,1,.761-.761l1.933,0a.754.754,0,0,1,.781.739.761.761,0,0,1-.74.781Zm-5.541,0h-1.954a.76.76,0,0,1-.76-.76.761.761,0,0,1,.76-.761h1.954a.761.761,0,0,1,.761.761A.76.76,0,0,1-1233.837,1219.033Zm-5.862,0h-1.954a.76.76,0,0,1-.761-.76.761.761,0,0,1,.761-.761h1.954a.761.761,0,0,1,.76.761A.76.76,0,0,1-1239.7,1219.033Zm-5.863,0h-1.954a.76.76,0,0,1-.76-.76.761.761,0,0,1,.76-.761h1.954a.761.761,0,0,1,.761.761A.76.76,0,0,1-1245.562,1219.033Zm21.4-.765a.762.762,0,0,1-.71-.487.761.761,0,0,1,.437-.983,10.949,10.949,0,0,0,1.642-.8.759.759,0,0,1,1.041.266.76.76,0,0,1-.265,1.042,12.437,12.437,0,0,1-1.872.909A.772.772,0,0,1-1224.16,1218.268Zm4.719-3.372a.753.753,0,0,1-.489-.178.761.761,0,0,1-.094-1.072,10.971,10.971,0,0,0,1.053-1.491.76.76,0,0,1,1.042-.269.761.761,0,0,1,.269,1.041,12.506,12.506,0,0,1-1.2,1.7A.758.758,0,0,1-1219.441,1214.9Zm2.5-5.233a.709.709,0,0,1-.144-.014.759.759,0,0,1-.6-.89,10.868,10.868,0,0,0,.19-1.812.774.774,0,0,1,.775-.745.761.761,0,0,1,.746.775,12.35,12.35,0,0,1-.218,2.069A.759.759,0,0,1-1216.945,1209.663Zm.207-5.849a.76.76,0,0,1-.76-.76V1201.1a.761.761,0,0,1,.76-.761.761.761,0,0,1,.761.761v1.954A.76.76,0,0,1-1216.738,1203.814Zm0-5.862a.761.761,0,0,1-.76-.761v-1.954a.76.76,0,0,1,.76-.76.76.76,0,0,1,.761.76v1.954A.761.761,0,0,1-1216.738,1197.952Zm0-5.863a.76.76,0,0,1-.76-.76v-1.954a.761.761,0,0,1,.76-.761.761.761,0,0,1,.761.761v1.954A.76.76,0,0,1-1216.738,1192.089Zm0-5.862a.76.76,0,0,1-.76-.76v-1.955a.76.76,0,0,1,.76-.76.761.761,0,0,1,.761.76v1.955A.761.761,0,0,1-1216.738,1186.227Z"/>
          </g>
          <g id="Group_57558" data-name="Group 57558">
            <path id="Path_102357" data-name="Path 102357" d="M-1216.738,1180.354a.761.761,0,0,1-.76-.761v-1.014a.76.76,0,0,1,.76-.76.761.761,0,0,1,.761.76v1.014A.761.761,0,0,1-1216.738,1180.354Z"/>
          </g>
          <g id="Group_57559" data-name="Group 57559">
            <path id="Path_102358" data-name="Path 102358" d="M-1216.738,1175.6a.76.76,0,0,1-.76-.76v-3.566a.76.76,0,0,1,.76-.76.761.761,0,0,1,.761.76v3.566A.76.76,0,0,1-1216.738,1175.6Z"/>
          </g>
        </g>
        <g id="Group_57561" data-name="Group 57561">
          <path id="Path_102359" data-name="Path 102359" d="M-1255.914,1219.033h-152.018a12.333,12.333,0,0,1-12.319-12.319v-22.982a.761.761,0,0,1,.761-.761.761.761,0,0,1,.76.761v22.982a10.811,10.811,0,0,0,10.8,10.8h152.018a.761.761,0,0,1,.76.761A.76.76,0,0,1-1255.914,1219.033Z"/>
        </g>
        <g id="Group_57565" data-name="Group 57565">
          <g id="Group_57562" data-name="Group 57562">
            <path id="Path_102360" data-name="Path 102360" d="M-1380.8,1160.227h-1.014a.761.761,0,0,1-.761-.761.76.76,0,0,1,.761-.76h1.014a.76.76,0,0,1,.76.76A.761.761,0,0,1-1380.8,1160.227Z"/>
          </g>
          <g id="Group_57563" data-name="Group 57563">
            <path id="Path_102361" data-name="Path 102361" d="M-1419.49,1176.755a.76.76,0,0,1-.761-.76v-2.052a.761.761,0,0,1,.761-.761.761.761,0,0,1,.76.761v2.052A.76.76,0,0,1-1419.49,1176.755Zm.061-6.153a.678.678,0,0,1-.077,0,.76.76,0,0,1-.681-.832,12.193,12.193,0,0,1,.414-2.146.761.761,0,0,1,.942-.52.761.761,0,0,1,.52.941,10.564,10.564,0,0,0-.362,1.877A.761.761,0,0,1-1419.429,1170.6Zm2.194-5.67a.759.759,0,0,1-.45-.149.761.761,0,0,1-.161-1.064,12.485,12.485,0,0,1,1.447-1.634.759.759,0,0,1,1.075.029.76.76,0,0,1-.029,1.075,11.1,11.1,0,0,0-1.269,1.434A.76.76,0,0,1-1417.235,1164.932Zm4.769-3.778a.76.76,0,0,1-.7-.462.759.759,0,0,1,.4-1,12.2,12.2,0,0,1,2.077-.677.761.761,0,0,1,.912.571.761.761,0,0,1-.571.911,10.8,10.8,0,0,0-1.82.593A.756.756,0,0,1-1412.466,1161.154Zm26.548-.927h-2.052a.761.761,0,0,1-.76-.761.76.76,0,0,1,.76-.76h2.052a.761.761,0,0,1,.761.76A.761.761,0,0,1-1385.918,1160.227Zm-6.155,0h-2.052a.761.761,0,0,1-.761-.761.76.76,0,0,1,.761-.76h2.052a.76.76,0,0,1,.76.76A.761.761,0,0,1-1392.073,1160.227Zm-6.156,0h-2.052a.761.761,0,0,1-.76-.761.76.76,0,0,1,.76-.76h2.052a.76.76,0,0,1,.76.76A.761.761,0,0,1-1398.229,1160.227Zm-6.156,0h-2.053a.761.761,0,0,1-.76-.761.76.76,0,0,1,.76-.76h2.053a.76.76,0,0,1,.761.76A.761.761,0,0,1-1404.385,1160.227Z"/>
          </g>
          <g id="Group_57564" data-name="Group 57564">
            <path id="Path_102362" data-name="Path 102362" d="M-1419.49,1181.885a.761.761,0,0,1-.761-.761v-1.014a.76.76,0,0,1,.761-.76.76.76,0,0,1,.76.76v1.014A.761.761,0,0,1-1419.49,1181.885Z"/>
          </g>
        </g>
        <g id="Group_57566" data-name="Group 57566">
          <path id="Path_102363" data-name="Path 102363" d="M-1216.738,1171.785a.76.76,0,0,1-.76-.76,10.811,10.811,0,0,0-10.8-10.8h-149.462a.761.761,0,0,1-.761-.761.761.761,0,0,1,.761-.76H-1228.3a12.333,12.333,0,0,1,12.319,12.319A.761.761,0,0,1-1216.738,1171.785Z"/>
        </g>
        <rect id="Rectangle_5344" data-name="Rectangle 5344" width="191.595" height="47.649" rx="8.009" transform="translate(-1413.911 1165.045)" fill="#fff"/>
        <path id="Path_102364" data-name="Path 102364" d="M-1233.37,1169.1a7,7,0,0,1,6.995,6.995v25.543a7,7,0,0,1-6.995,6.995h-169.488a7,7,0,0,1-6.995-6.995V1176.1a7,7,0,0,1,6.995-6.995h171.517m1.015-5.072H-1405.9a9.032,9.032,0,0,0-9.023,9.023v31.631a9.033,9.033,0,0,0,9.023,9.023h175.576a9.034,9.034,0,0,0,9.023-9.023v-31.631a9.033,9.033,0,0,0-9.023-9.023Z" fill="#ffc93c"/>
      </g>
      <g id="Group_57579" data-name="Group 57579">
        <g id="Group_57572" data-name="Group 57572">
          <g id="Group_57568" data-name="Group 57568">
            <path id="Path_102365" data-name="Path 102365" d="M-1339.288,1351.734h-1.014a.76.76,0,0,1-.76-.76.76.76,0,0,1,.76-.761h1.014a.761.761,0,0,1,.761.761A.761.761,0,0,1-1339.288,1351.734Z"/>
          </g>
          <g id="Group_57569" data-name="Group 57569">
            <path id="Path_102366" data-name="Path 102366" d="M-1316.16,1351.734h-1.632a.76.76,0,0,1-.76-.76.76.76,0,0,1,.76-.761l1.933,0a.753.753,0,0,1,.781.739.761.761,0,0,1-.739.782Zm-5.541,0h-1.953a.761.761,0,0,1-.761-.76.761.761,0,0,1,.761-.761h1.953a.761.761,0,0,1,.761.761A.761.761,0,0,1-1321.7,1351.734Zm-5.862,0h-1.954a.76.76,0,0,1-.76-.76.76.76,0,0,1,.76-.761h1.954a.761.761,0,0,1,.761.761A.76.76,0,0,1-1327.563,1351.734Zm-5.862,0h-1.954a.761.761,0,0,1-.761-.76.761.761,0,0,1,.761-.761h1.954a.761.761,0,0,1,.76.761A.76.76,0,0,1-1333.425,1351.734Zm21.4-.764a.763.763,0,0,1-.71-.488.762.762,0,0,1,.437-.983,10.714,10.714,0,0,0,1.642-.8.76.76,0,0,1,1.042.266.759.759,0,0,1-.266,1.042,12.361,12.361,0,0,1-1.871.909A.771.771,0,0,1-1312.024,1350.97Zm4.719-3.373a.756.756,0,0,1-.489-.178.76.76,0,0,1-.093-1.071,11.13,11.13,0,0,0,1.053-1.491.758.758,0,0,1,1.041-.27.761.761,0,0,1,.27,1.041,12.618,12.618,0,0,1-1.2,1.7A.757.757,0,0,1-1307.305,1347.6Zm2.5-5.233a.8.8,0,0,1-.145-.013.762.762,0,0,1-.6-.891,10.751,10.751,0,0,0,.19-1.811.775.775,0,0,1,.776-.746.761.761,0,0,1,.745.775,12.349,12.349,0,0,1-.218,2.069A.759.759,0,0,1-1304.808,1342.364Zm.207-5.848a.761.761,0,0,1-.761-.761V1333.8a.761.761,0,0,1,.761-.761.761.761,0,0,1,.76.761v1.954A.761.761,0,0,1-1304.6,1336.516Zm0-5.863a.761.761,0,0,1-.761-.76v-1.954a.761.761,0,0,1,.761-.761.761.761,0,0,1,.76.761v1.954A.76.76,0,0,1-1304.6,1330.653Zm0-5.862a.761.761,0,0,1-.761-.761v-1.954a.761.761,0,0,1,.761-.76.76.76,0,0,1,.76.76v1.954A.761.761,0,0,1-1304.6,1324.791Zm0-5.863a.761.761,0,0,1-.761-.76v-1.954a.761.761,0,0,1,.761-.761.761.761,0,0,1,.76.761v1.954A.76.76,0,0,1-1304.6,1318.928Z"/>
          </g>
          <g id="Group_57570" data-name="Group 57570">
            <path id="Path_102367" data-name="Path 102367" d="M-1304.6,1313.055a.761.761,0,0,1-.761-.761v-1.014a.761.761,0,0,1,.761-.76.76.76,0,0,1,.76.76v1.014A.761.761,0,0,1-1304.6,1313.055Z"/>
          </g>
          <g id="Group_57571" data-name="Group 57571">
            <path id="Path_102368" data-name="Path 102368" d="M-1304.6,1308.305a.761.761,0,0,1-.761-.76v-3.566a.761.761,0,0,1,.761-.76.76.76,0,0,1,.76.76v3.566A.76.76,0,0,1-1304.6,1308.305Z"/>
          </g>
        </g>
        <g id="Group_57573" data-name="Group 57573">
          <path id="Path_102369" data-name="Path 102369" d="M-1343.778,1351.734H-1495.8a12.333,12.333,0,0,1-12.319-12.319v-22.982a.76.76,0,0,1,.76-.761.761.761,0,0,1,.761.761v22.982a10.81,10.81,0,0,0,10.8,10.8h152.017a.761.761,0,0,1,.761.761A.761.761,0,0,1-1343.778,1351.734Z"/>
        </g>
        <g id="Group_57577" data-name="Group 57577">
          <g id="Group_57574" data-name="Group 57574">
            <path id="Path_102370" data-name="Path 102370" d="M-1468.664,1292.928h-1.014a.76.76,0,0,1-.76-.76.761.761,0,0,1,.76-.761h1.014a.761.761,0,0,1,.761.761A.761.761,0,0,1-1468.664,1292.928Z"/>
          </g>
          <g id="Group_57575" data-name="Group 57575">
            <path id="Path_102371" data-name="Path 102371" d="M-1507.354,1309.456a.76.76,0,0,1-.76-.76v-2.052a.76.76,0,0,1,.76-.761.761.761,0,0,1,.761.761v2.052A.761.761,0,0,1-1507.354,1309.456Zm.061-6.153-.077,0a.76.76,0,0,1-.68-.833,12.1,12.1,0,0,1,.414-2.146.761.761,0,0,1,.942-.52.76.76,0,0,1,.519.941,10.582,10.582,0,0,0-.362,1.877A.76.76,0,0,1-1507.293,1303.3Zm2.195-5.67a.759.759,0,0,1-.451-.149.76.76,0,0,1-.16-1.064,12.54,12.54,0,0,1,1.447-1.634.758.758,0,0,1,1.074.029.76.76,0,0,1-.029,1.075,11.014,11.014,0,0,0-1.268,1.434A.761.761,0,0,1-1505.1,1297.633Zm4.768-3.778a.761.761,0,0,1-.7-.462.76.76,0,0,1,.4-1,12.3,12.3,0,0,1,2.078-.677.761.761,0,0,1,.912.571.762.762,0,0,1-.572.911,10.818,10.818,0,0,0-1.82.593A.756.756,0,0,1-1500.33,1293.855Zm26.549-.927h-2.052a.76.76,0,0,1-.761-.76.761.761,0,0,1,.761-.761h2.052a.761.761,0,0,1,.76.761A.76.76,0,0,1-1473.781,1292.928Zm-6.156,0h-2.052a.76.76,0,0,1-.76-.76.761.761,0,0,1,.76-.761h2.052a.761.761,0,0,1,.761.761A.76.76,0,0,1-1479.937,1292.928Zm-6.156,0h-2.051a.761.761,0,0,1-.761-.76.761.761,0,0,1,.761-.761h2.051a.761.761,0,0,1,.761.761A.76.76,0,0,1-1486.093,1292.928Zm-6.155,0h-2.053a.761.761,0,0,1-.761-.76.761.761,0,0,1,.761-.761h2.053a.761.761,0,0,1,.76.761A.76.76,0,0,1-1492.248,1292.928Z"/>
          </g>
          <g id="Group_57576" data-name="Group 57576">
            <path id="Path_102372" data-name="Path 102372" d="M-1507.354,1314.586a.761.761,0,0,1-.76-.761v-1.014a.76.76,0,0,1,.76-.76.76.76,0,0,1,.761.76v1.014A.761.761,0,0,1-1507.354,1314.586Z"/>
          </g>
        </g>
        <g id="Group_57578" data-name="Group 57578">
          <path id="Path_102373" data-name="Path 102373" d="M-1304.6,1304.486a.761.761,0,0,1-.761-.76,10.81,10.81,0,0,0-10.8-10.8h-149.462a.761.761,0,0,1-.76-.761.76.76,0,0,1,.76-.76h149.462a12.333,12.333,0,0,1,12.319,12.319A.76.76,0,0,1-1304.6,1304.486Z"/>
        </g>
        <rect id="Rectangle_5345" data-name="Rectangle 5345" width="191.595" height="47.649" rx="8.009" transform="translate(-1501.775 1297.746)" fill="#fff"/>
        <path id="Path_102374" data-name="Path 102374" d="M-1321.234,1301.8a7,7,0,0,1,6.995,6.995v25.543a7,7,0,0,1-6.995,6.995h-169.488a7,7,0,0,1-6.995-6.995V1308.8a7,7,0,0,1,6.995-6.995H-1319.2m1.014-5.072h-175.576a9.034,9.034,0,0,0-9.023,9.023v31.631a9.034,9.034,0,0,0,9.023,9.023h175.576a9.033,9.033,0,0,0,9.023-9.023v-31.631a9.033,9.033,0,0,0-9.023-9.023Z" fill="#81c140"/>
      </g>
      <g id="Group_57591" data-name="Group 57591">
        <g id="Group_57584" data-name="Group 57584">
          <g id="Group_57580" data-name="Group 57580">
            <path id="Path_102375" data-name="Path 102375" d="M-1649.038,1219.033h-1.014a.76.76,0,0,1-.76-.76.761.761,0,0,1,.76-.761h1.014a.761.761,0,0,1,.761.761A.761.761,0,0,1-1649.038,1219.033Z"/>
          </g>
          <g id="Group_57581" data-name="Group 57581">
            <path id="Path_102376" data-name="Path 102376" d="M-1625.91,1219.033h-1.632a.76.76,0,0,1-.76-.76.761.761,0,0,1,.76-.761l1.933,0a.755.755,0,0,1,.782.739.761.761,0,0,1-.74.781Zm-5.54,0h-1.954a.761.761,0,0,1-.761-.76.761.761,0,0,1,.761-.761h1.954a.761.761,0,0,1,.76.761A.76.76,0,0,1-1631.45,1219.033Zm-5.863,0h-1.954a.76.76,0,0,1-.76-.76.761.761,0,0,1,.76-.761h1.954a.761.761,0,0,1,.761.761A.76.76,0,0,1-1637.313,1219.033Zm-5.862,0h-1.954a.761.761,0,0,1-.761-.76.761.761,0,0,1,.761-.761h1.954a.761.761,0,0,1,.76.761A.76.76,0,0,1-1643.175,1219.033Zm21.4-.765a.762.762,0,0,1-.71-.487.76.76,0,0,1,.436-.983,10.9,10.9,0,0,0,1.642-.8.76.76,0,0,1,1.042.266.76.76,0,0,1-.265,1.042,12.431,12.431,0,0,1-1.872.909A.771.771,0,0,1-1621.773,1218.268Zm4.718-3.372a.756.756,0,0,1-.489-.178.761.761,0,0,1-.093-1.072,11.068,11.068,0,0,0,1.053-1.491.76.76,0,0,1,1.042-.269.761.761,0,0,1,.269,1.041,12.692,12.692,0,0,1-1.2,1.7A.76.76,0,0,1-1617.055,1214.9Zm2.5-5.233a.719.719,0,0,1-.145-.014.76.76,0,0,1-.6-.89,10.653,10.653,0,0,0,.19-1.812.775.775,0,0,1,.776-.745.76.76,0,0,1,.745.775,12.348,12.348,0,0,1-.217,2.069A.761.761,0,0,1-1614.558,1209.663Zm.207-5.849a.761.761,0,0,1-.761-.76V1201.1a.761.761,0,0,1,.761-.761.761.761,0,0,1,.76.761v1.954A.76.76,0,0,1-1614.351,1203.814Zm0-5.862a.761.761,0,0,1-.761-.761v-1.954a.761.761,0,0,1,.761-.76.76.76,0,0,1,.76.76v1.954A.761.761,0,0,1-1614.351,1197.952Zm0-5.863a.761.761,0,0,1-.761-.76v-1.954a.761.761,0,0,1,.761-.761.761.761,0,0,1,.76.761v1.954A.76.76,0,0,1-1614.351,1192.089Zm0-5.862a.761.761,0,0,1-.761-.76v-1.955a.761.761,0,0,1,.761-.76.76.76,0,0,1,.76.76v1.955A.76.76,0,0,1-1614.351,1186.227Z"/>
          </g>
          <g id="Group_57582" data-name="Group 57582">
            <path id="Path_102377" data-name="Path 102377" d="M-1614.351,1180.354a.761.761,0,0,1-.761-.761v-1.014a.761.761,0,0,1,.761-.76.76.76,0,0,1,.76.76v1.014A.761.761,0,0,1-1614.351,1180.354Z"/>
          </g>
          <g id="Group_57583" data-name="Group 57583">
            <path id="Path_102378" data-name="Path 102378" d="M-1614.351,1175.6a.761.761,0,0,1-.761-.76v-3.566a.761.761,0,0,1,.761-.76.76.76,0,0,1,.76.76v3.566A.76.76,0,0,1-1614.351,1175.6Z"/>
          </g>
        </g>
        <g id="Group_57585" data-name="Group 57585">
          <path id="Path_102379" data-name="Path 102379" d="M-1653.528,1219.033h-152.017a12.333,12.333,0,0,1-12.319-12.319v-22.982a.761.761,0,0,1,.76-.761.761.761,0,0,1,.761.761v22.982a10.81,10.81,0,0,0,10.8,10.8h152.017a.761.761,0,0,1,.761.761A.761.761,0,0,1-1653.528,1219.033Z"/>
        </g>
        <g id="Group_57589" data-name="Group 57589">
          <g id="Group_57586" data-name="Group 57586">
            <path id="Path_102380" data-name="Path 102380" d="M-1778.413,1160.227h-1.014a.761.761,0,0,1-.761-.761.76.76,0,0,1,.761-.76h1.014a.76.76,0,0,1,.76.76A.761.761,0,0,1-1778.413,1160.227Z"/>
          </g>
          <g id="Group_57587" data-name="Group 57587">
            <path id="Path_102381" data-name="Path 102381" d="M-1817.1,1176.755a.76.76,0,0,1-.76-.76v-2.052a.76.76,0,0,1,.76-.761.761.761,0,0,1,.761.761v2.052A.76.76,0,0,1-1817.1,1176.755Zm.062-6.153a.7.7,0,0,1-.078,0,.76.76,0,0,1-.68-.832,12.1,12.1,0,0,1,.414-2.146.761.761,0,0,1,.942-.52.761.761,0,0,1,.52.941,10.654,10.654,0,0,0-.363,1.877A.759.759,0,0,1-1817.042,1170.6Zm2.194-5.67a.756.756,0,0,1-.45-.149.761.761,0,0,1-.161-1.064,12.477,12.477,0,0,1,1.447-1.634.758.758,0,0,1,1.074.029.759.759,0,0,1-.028,1.075,10.943,10.943,0,0,0-1.269,1.434A.76.76,0,0,1-1814.848,1164.932Zm4.768-3.778a.761.761,0,0,1-.7-.462.761.761,0,0,1,.4-1,12.243,12.243,0,0,1,2.078-.677.761.761,0,0,1,.912.571.761.761,0,0,1-.571.911,10.833,10.833,0,0,0-1.821.593A.756.756,0,0,1-1810.08,1161.154Zm26.549-.927h-2.052a.761.761,0,0,1-.761-.761.76.76,0,0,1,.761-.76h2.052a.76.76,0,0,1,.76.76A.761.761,0,0,1-1783.531,1160.227Zm-6.156,0h-2.052a.761.761,0,0,1-.76-.761.76.76,0,0,1,.76-.76h2.052a.76.76,0,0,1,.761.76A.761.761,0,0,1-1789.687,1160.227Zm-6.155,0h-2.052a.761.761,0,0,1-.761-.761.761.761,0,0,1,.761-.76h2.052a.76.76,0,0,1,.76.76A.761.761,0,0,1-1795.842,1160.227Zm-6.156,0h-2.053a.761.761,0,0,1-.76-.761.76.76,0,0,1,.76-.76H-1802a.76.76,0,0,1,.761.76A.761.761,0,0,1-1802,1160.227Z"/>
          </g>
          <g id="Group_57588" data-name="Group 57588">
            <path id="Path_102382" data-name="Path 102382" d="M-1817.1,1181.885a.761.761,0,0,1-.76-.761v-1.014a.76.76,0,0,1,.76-.76.76.76,0,0,1,.761.76v1.014A.761.761,0,0,1-1817.1,1181.885Z"/>
          </g>
        </g>
        <g id="Group_57590" data-name="Group 57590">
          <path id="Path_102383" data-name="Path 102383" d="M-1614.351,1171.785a.761.761,0,0,1-.761-.76,10.81,10.81,0,0,0-10.8-10.8h-149.461a.761.761,0,0,1-.761-.761.76.76,0,0,1,.761-.76h149.461a12.333,12.333,0,0,1,12.319,12.319A.76.76,0,0,1-1614.351,1171.785Z"/>
        </g>
        <rect id="Rectangle_5346" data-name="Rectangle 5346" width="191.595" height="47.649" rx="8.009" transform="translate(-1811.525 1165.045)" fill="#fff"/>
        <path id="Path_102384" data-name="Path 102384" d="M-1630.983,1169.1a6.994,6.994,0,0,1,6.994,6.995v25.543a6.994,6.994,0,0,1-6.994,6.995h-169.488a7,7,0,0,1-6.995-6.995V1176.1a7,7,0,0,1,6.995-6.995h171.517m1.015-5.072h-175.577a9.032,9.032,0,0,0-9.022,9.023v31.631a9.033,9.033,0,0,0,9.022,9.023h175.577a9.034,9.034,0,0,0,9.023-9.023v-31.631a9.033,9.033,0,0,0-9.023-9.023Z" fill="#cc3d60"/>
      </g>
      <g id="Group_57603" data-name="Group 57603">
        <g id="Group_57596" data-name="Group 57596">
          <g id="Group_57592" data-name="Group 57592">
            <path id="Path_102385" data-name="Path 102385" d="M-1641.887,1086.332h-1.014a.761.761,0,0,1-.76-.761.76.76,0,0,1,.76-.76h1.014a.761.761,0,0,1,.761.76A.761.761,0,0,1-1641.887,1086.332Z"/>
          </g>
          <g id="Group_57593" data-name="Group 57593">
            <path id="Path_102386" data-name="Path 102386" d="M-1618.759,1086.332h-1.632a.761.761,0,0,1-.76-.761.76.76,0,0,1,.76-.76l1.933,0a.755.755,0,0,1,.782.739.762.762,0,0,1-.74.781Zm-5.54,0h-1.954a.761.761,0,0,1-.761-.761.761.761,0,0,1,.761-.76h1.954a.76.76,0,0,1,.76.76A.761.761,0,0,1-1624.3,1086.332Zm-5.863,0h-1.954a.761.761,0,0,1-.76-.761.76.76,0,0,1,.76-.76h1.954a.76.76,0,0,1,.761.76A.761.761,0,0,1-1630.162,1086.332Zm-5.862,0h-1.954a.761.761,0,0,1-.761-.761.761.761,0,0,1,.761-.76h1.954a.76.76,0,0,1,.76.76A.761.761,0,0,1-1636.024,1086.332Zm21.4-.765a.76.76,0,0,1-.71-.488.759.759,0,0,1,.436-.982,10.91,10.91,0,0,0,1.642-.8.759.759,0,0,1,1.042.266.76.76,0,0,1-.265,1.042,12.378,12.378,0,0,1-1.872.908A.749.749,0,0,1-1614.622,1085.567Zm4.718-3.372a.762.762,0,0,1-.489-.178.761.761,0,0,1-.093-1.072,11.06,11.06,0,0,0,1.053-1.491.759.759,0,0,1,1.041-.269.76.76,0,0,1,.27,1.041,12.62,12.62,0,0,1-1.2,1.7A.758.758,0,0,1-1609.9,1082.195Zm2.5-5.233a.719.719,0,0,1-.145-.014.76.76,0,0,1-.6-.89,10.765,10.765,0,0,0,.19-1.812.775.775,0,0,1,.776-.745.76.76,0,0,1,.745.775,12.35,12.35,0,0,1-.218,2.069A.759.759,0,0,1-1607.407,1076.962Zm.207-5.849a.761.761,0,0,1-.761-.76V1068.4a.761.761,0,0,1,.761-.761.761.761,0,0,1,.76.761v1.954A.76.76,0,0,1-1607.2,1071.113Zm0-5.862a.761.761,0,0,1-.761-.761v-1.954a.761.761,0,0,1,.761-.76.76.76,0,0,1,.76.76v1.954A.761.761,0,0,1-1607.2,1065.251Zm0-5.863a.761.761,0,0,1-.761-.76v-1.954a.761.761,0,0,1,.761-.761.761.761,0,0,1,.76.761v1.954A.76.76,0,0,1-1607.2,1059.388Zm0-5.862a.761.761,0,0,1-.761-.761v-1.954a.761.761,0,0,1,.761-.76.76.76,0,0,1,.76.76v1.954A.761.761,0,0,1-1607.2,1053.526Z"/>
          </g>
          <g id="Group_57594" data-name="Group 57594">
            <path id="Path_102387" data-name="Path 102387" d="M-1607.2,1047.653a.761.761,0,0,1-.761-.761v-1.014a.761.761,0,0,1,.761-.761.761.761,0,0,1,.76.761v1.014A.761.761,0,0,1-1607.2,1047.653Z"/>
          </g>
          <g id="Group_57595" data-name="Group 57595">
            <path id="Path_102388" data-name="Path 102388" d="M-1607.2,1042.9a.761.761,0,0,1-.761-.761v-3.565a.761.761,0,0,1,.761-.76.76.76,0,0,1,.76.76v3.565A.761.761,0,0,1-1607.2,1042.9Z"/>
          </g>
        </g>
        <g id="Group_57597" data-name="Group 57597">
          <path id="Path_102389" data-name="Path 102389" d="M-1646.377,1086.332h-152.017a12.333,12.333,0,0,1-12.319-12.319V1051.03a.76.76,0,0,1,.76-.76.76.76,0,0,1,.761.76v22.983a10.81,10.81,0,0,0,10.8,10.8h152.017a.761.761,0,0,1,.761.76A.761.761,0,0,1-1646.377,1086.332Z"/>
        </g>
        <g id="Group_57601" data-name="Group 57601">
          <g id="Group_57598" data-name="Group 57598">
            <path id="Path_102390" data-name="Path 102390" d="M-1771.263,1027.526h-1.014a.761.761,0,0,1-.76-.761.76.76,0,0,1,.76-.76h1.014a.761.761,0,0,1,.761.76A.761.761,0,0,1-1771.263,1027.526Z"/>
          </g>
          <g id="Group_57599" data-name="Group 57599">
            <path id="Path_102391" data-name="Path 102391" d="M-1809.953,1044.054a.76.76,0,0,1-.76-.76v-2.052a.761.761,0,0,1,.76-.761.761.761,0,0,1,.761.761v2.052A.76.76,0,0,1-1809.953,1044.054Zm.062-6.153a.668.668,0,0,1-.078,0,.759.759,0,0,1-.68-.833,12.113,12.113,0,0,1,.414-2.145.76.76,0,0,1,.942-.52.761.761,0,0,1,.52.941,10.562,10.562,0,0,0-.363,1.876A.759.759,0,0,1-1809.891,1037.9Zm2.194-5.67a.761.761,0,0,1-.451-.149.761.761,0,0,1-.16-1.064,12.484,12.484,0,0,1,1.447-1.635.76.76,0,0,1,1.074.029.762.762,0,0,1-.028,1.076,10.879,10.879,0,0,0-1.269,1.434A.759.759,0,0,1-1807.7,1032.231Zm4.768-3.778a.761.761,0,0,1-.7-.462.76.76,0,0,1,.4-1,12.243,12.243,0,0,1,2.078-.677.76.76,0,0,1,.912.571.762.762,0,0,1-.572.911,10.876,10.876,0,0,0-1.82.593A.756.756,0,0,1-1802.929,1028.453Zm26.549-.927h-2.052a.761.761,0,0,1-.761-.761.76.76,0,0,1,.761-.76h2.052a.76.76,0,0,1,.76.76A.76.76,0,0,1-1776.38,1027.526Zm-6.156,0h-2.052a.76.76,0,0,1-.76-.761.76.76,0,0,1,.76-.76h2.052a.76.76,0,0,1,.761.76A.761.761,0,0,1-1782.536,1027.526Zm-6.155,0h-2.052a.761.761,0,0,1-.761-.761.761.761,0,0,1,.761-.76h2.052a.76.76,0,0,1,.76.76A.761.761,0,0,1-1788.691,1027.526Zm-6.156,0h-2.053a.761.761,0,0,1-.76-.761.76.76,0,0,1,.76-.76h2.053a.76.76,0,0,1,.76.76A.76.76,0,0,1-1794.847,1027.526Z"/>
          </g>
          <g id="Group_57600" data-name="Group 57600">
            <path id="Path_102392" data-name="Path 102392" d="M-1809.953,1049.184a.76.76,0,0,1-.76-.761v-1.014a.76.76,0,0,1,.76-.76.76.76,0,0,1,.761.76v1.014A.761.761,0,0,1-1809.953,1049.184Z"/>
          </g>
        </g>
        <g id="Group_57602" data-name="Group 57602">
          <path id="Path_102393" data-name="Path 102393" d="M-1607.2,1039.084a.761.761,0,0,1-.761-.76,10.81,10.81,0,0,0-10.8-10.8H-1768.22a.761.761,0,0,1-.761-.761.76.76,0,0,1,.761-.76h149.461a12.333,12.333,0,0,1,12.319,12.319A.76.76,0,0,1-1607.2,1039.084Z"/>
        </g>
        <rect id="Rectangle_5347" data-name="Rectangle 5347" width="191.595" height="47.649" rx="8.009" transform="translate(-1804.374 1032.344)" fill="#fff"/>
        <path id="Path_102394" data-name="Path 102394" d="M-1623.833,1036.4a6.994,6.994,0,0,1,6.995,6.995v25.543a6.994,6.994,0,0,1-6.995,6.994h-169.488a6.994,6.994,0,0,1-6.994-6.994V1043.4a6.994,6.994,0,0,1,6.994-6.995H-1621.8m1.014-5.072h-175.576a9.033,9.033,0,0,0-9.023,9.022v31.632a9.034,9.034,0,0,0,9.023,9.023h175.576a9.033,9.033,0,0,0,9.023-9.023v-31.632a9.032,9.032,0,0,0-9.023-9.022Z" fill="#ffc93c"/>
      </g>
      <g id="Group_57615" data-name="Group 57615">
        <g id="Group_57608" data-name="Group 57608">
          <g id="Group_57604" data-name="Group 57604">
            <path id="Path_102395" data-name="Path 102395" d="M-1552.528,1351.734h-1.014a.76.76,0,0,1-.76-.76.76.76,0,0,1,.76-.761h1.014a.761.761,0,0,1,.761.761A.761.761,0,0,1-1552.528,1351.734Z"/>
          </g>
          <g id="Group_57605" data-name="Group 57605">
            <path id="Path_102396" data-name="Path 102396" d="M-1529.4,1351.734h-1.632a.76.76,0,0,1-.76-.76.76.76,0,0,1,.76-.761l1.933,0a.755.755,0,0,1,.782.739.762.762,0,0,1-.74.782Zm-5.54,0h-1.954a.761.761,0,0,1-.761-.76.761.761,0,0,1,.761-.761h1.954a.76.76,0,0,1,.76.761A.76.76,0,0,1-1534.94,1351.734Zm-5.863,0h-1.954a.76.76,0,0,1-.76-.76.761.761,0,0,1,.76-.761h1.954a.761.761,0,0,1,.761.761A.761.761,0,0,1-1540.8,1351.734Zm-5.862,0h-1.954a.761.761,0,0,1-.761-.76.761.761,0,0,1,.761-.761h1.954a.76.76,0,0,1,.76.761A.76.76,0,0,1-1546.665,1351.734Zm21.4-.764a.763.763,0,0,1-.71-.488.76.76,0,0,1,.436-.983,10.714,10.714,0,0,0,1.642-.8.76.76,0,0,1,1.042.266.76.76,0,0,1-.265,1.042,12.326,12.326,0,0,1-1.872.909A.77.77,0,0,1-1525.263,1350.97Zm4.718-3.373a.757.757,0,0,1-.489-.178.76.76,0,0,1-.093-1.071,11.13,11.13,0,0,0,1.053-1.491.759.759,0,0,1,1.042-.27.761.761,0,0,1,.269,1.041,12.7,12.7,0,0,1-1.2,1.7A.76.76,0,0,1-1520.545,1347.6Zm2.5-5.233a.8.8,0,0,1-.145-.013.762.762,0,0,1-.6-.891,10.751,10.751,0,0,0,.19-1.811.776.776,0,0,1,.776-.746.76.76,0,0,1,.745.775,12.347,12.347,0,0,1-.217,2.069A.761.761,0,0,1-1518.048,1342.364Zm.207-5.848a.761.761,0,0,1-.761-.761V1333.8a.761.761,0,0,1,.761-.761.76.76,0,0,1,.76.761v1.954A.76.76,0,0,1-1517.841,1336.516Zm0-5.863a.761.761,0,0,1-.761-.76v-1.954a.761.761,0,0,1,.761-.761.761.761,0,0,1,.76.761v1.954A.76.76,0,0,1-1517.841,1330.653Zm0-5.862a.761.761,0,0,1-.761-.761v-1.954a.761.761,0,0,1,.761-.76.76.76,0,0,1,.76.76v1.954A.761.761,0,0,1-1517.841,1324.791Zm0-5.863a.761.761,0,0,1-.761-.76v-1.954a.761.761,0,0,1,.761-.761.76.76,0,0,1,.76.761v1.954A.76.76,0,0,1-1517.841,1318.928Z"/>
          </g>
          <g id="Group_57606" data-name="Group 57606">
            <path id="Path_102397" data-name="Path 102397" d="M-1517.841,1313.055a.761.761,0,0,1-.761-.761v-1.014a.761.761,0,0,1,.761-.76.76.76,0,0,1,.76.76v1.014A.761.761,0,0,1-1517.841,1313.055Z"/>
          </g>
          <g id="Group_57607" data-name="Group 57607">
            <path id="Path_102398" data-name="Path 102398" d="M-1517.841,1308.305a.761.761,0,0,1-.761-.76v-3.566a.761.761,0,0,1,.761-.76.76.76,0,0,1,.76.76v3.566A.76.76,0,0,1-1517.841,1308.305Z"/>
          </g>
        </g>
        <g id="Group_57609" data-name="Group 57609">
          <path id="Path_102399" data-name="Path 102399" d="M-1557.018,1351.734h-152.017a12.333,12.333,0,0,1-12.319-12.319v-22.982a.76.76,0,0,1,.76-.761.761.761,0,0,1,.761.761v22.982a10.81,10.81,0,0,0,10.8,10.8h152.017a.761.761,0,0,1,.761.761A.761.761,0,0,1-1557.018,1351.734Z"/>
        </g>
        <g id="Group_57613" data-name="Group 57613">
          <g id="Group_57610" data-name="Group 57610">
            <path id="Path_102400" data-name="Path 102400" d="M-1681.9,1292.928h-1.015a.76.76,0,0,1-.76-.76.761.761,0,0,1,.76-.761h1.015a.761.761,0,0,1,.76.761A.76.76,0,0,1-1681.9,1292.928Z"/>
          </g>
          <g id="Group_57611" data-name="Group 57611">
            <path id="Path_102401" data-name="Path 102401" d="M-1720.594,1309.456a.76.76,0,0,1-.76-.76v-2.052a.76.76,0,0,1,.76-.761.761.761,0,0,1,.761.761v2.052A.761.761,0,0,1-1720.594,1309.456Zm.062-6.153-.078,0a.761.761,0,0,1-.68-.833,12.1,12.1,0,0,1,.414-2.146.761.761,0,0,1,.942-.52.761.761,0,0,1,.52.941,10.574,10.574,0,0,0-.363,1.877A.759.759,0,0,1-1720.532,1303.3Zm2.194-5.67a.757.757,0,0,1-.45-.149.761.761,0,0,1-.161-1.064,12.54,12.54,0,0,1,1.447-1.634.758.758,0,0,1,1.074.029.759.759,0,0,1-.028,1.075,10.95,10.95,0,0,0-1.269,1.434A.759.759,0,0,1-1718.338,1297.633Zm4.768-3.778a.761.761,0,0,1-.7-.462.76.76,0,0,1,.4-1,12.33,12.33,0,0,1,2.078-.677.761.761,0,0,1,.912.571.761.761,0,0,1-.571.911,10.855,10.855,0,0,0-1.821.593A.756.756,0,0,1-1713.57,1293.855Zm26.549-.927h-2.052a.76.76,0,0,1-.761-.76.761.761,0,0,1,.761-.761h2.052a.761.761,0,0,1,.76.761A.76.76,0,0,1-1687.021,1292.928Zm-6.156,0h-2.052a.76.76,0,0,1-.76-.76.761.761,0,0,1,.76-.761h2.052a.761.761,0,0,1,.761.761A.76.76,0,0,1-1693.177,1292.928Zm-6.155,0h-2.052a.761.761,0,0,1-.761-.76.761.761,0,0,1,.761-.761h2.052a.761.761,0,0,1,.76.761A.76.76,0,0,1-1699.332,1292.928Zm-6.156,0h-2.053a.76.76,0,0,1-.76-.76.761.761,0,0,1,.76-.761h2.053a.761.761,0,0,1,.761.761A.76.76,0,0,1-1705.488,1292.928Z"/>
          </g>
          <g id="Group_57612" data-name="Group 57612">
            <path id="Path_102402" data-name="Path 102402" d="M-1720.594,1314.586a.761.761,0,0,1-.76-.761v-1.014a.76.76,0,0,1,.76-.76.76.76,0,0,1,.761.76v1.014A.761.761,0,0,1-1720.594,1314.586Z"/>
          </g>
        </g>
        <g id="Group_57614" data-name="Group 57614">
          <path id="Path_102403" data-name="Path 102403" d="M-1517.841,1304.486a.761.761,0,0,1-.761-.76,10.81,10.81,0,0,0-10.8-10.8h-149.461a.761.761,0,0,1-.761-.761.76.76,0,0,1,.761-.76H-1529.4a12.333,12.333,0,0,1,12.319,12.319A.76.76,0,0,1-1517.841,1304.486Z"/>
        </g>
        <rect id="Rectangle_5348" data-name="Rectangle 5348" width="191.595" height="47.649" rx="8.009" transform="translate(-1715.015 1297.746)" fill="#fff"/>
        <path id="Path_102404" data-name="Path 102404" d="M-1534.473,1301.8a6.994,6.994,0,0,1,6.994,6.995v25.543a6.994,6.994,0,0,1-6.994,6.995h-169.489a7,7,0,0,1-6.994-6.995V1308.8a7,7,0,0,1,6.994-6.995h171.518m1.015-5.072h-175.577a9.034,9.034,0,0,0-9.023,9.023v31.631a9.034,9.034,0,0,0,9.023,9.023h175.577a9.034,9.034,0,0,0,9.023-9.023v-31.631a9.034,9.034,0,0,0-9.023-9.023Z" fill="#9ddfd3"/>
      </g>
      <text id="Alcance" transform="translate(-1515.557 948.413)" fill="#12263f" font-size="20" font-family="Roboto-Bold, Roboto" font-weight="700"><tspan x="-36.177" y="0">Alcance</tspan></text>
      <text id="Social" transform="translate(-1708.577 1062.013)" fill="#12263f" font-size="20" font-family="Roboto-Bold, Roboto" font-weight="700"><tspan x="-27.681" y="0">Social</tspan></text>
      <text id="Tecnol칩gico" transform="translate(-1715.727 1194.714)" fill="#12263f" font-size="20" font-family="Roboto-Bold, Roboto" font-weight="700"><tspan x="-55.161" y="0">Tecnol칩gico</tspan></text>
      <text id="Calidad" transform="translate(-1619.217 1327.415)" fill="#12263f" font-size="20" font-family="Roboto-Bold, Roboto" font-weight="700"><tspan x="-33.838" y="0">Calidad</tspan></text>
      <text id="Tiempo" transform="translate(-1405.978 1327.415)" fill="#12263f" font-size="20" font-family="Roboto-Bold, Roboto" font-weight="700"><tspan x="-34.185" y="0">Tiempo</tspan></text>
      <text id="Costos" transform="translate(-1318.114 1194.714)" fill="#12263f" font-size="20" font-family="Roboto-Bold, Roboto" font-weight="700"><tspan x="-31.367" y="0">Costos</tspan></text>
      <text id="Riesgos" transform="translate(-1328.568 1062.013)" fill="#12263f" font-size="20" font-family="Roboto-Bold, Roboto" font-weight="700"><tspan x="-36.084" y="0">Riesgos</tspan></text>
    </g>
  </g>
</svg>
