<svg xmlns="http://www.w3.org/2000/svg" width="51.897" height="52" viewBox="0 0 51.897 52">
  <g id="t2-ic7" transform="translate(-5.784 -5.289)">
    <path id="Path_101985" data-name="Path 101985" d="M47.269,15.939A21.873,21.873,0,0,0,11.594,30.8Q11.5,31.8,11.5,32.836A21.891,21.891,0,0,0,40.668,53.467L54.428,38.8a21.906,21.906,0,0,0-7.159-22.859Z" transform="translate(-5.124 -5.08)" fill="#9ddfd3"/>
    <path id="Path_101986" data-name="Path 101986" d="M306.762,59.03l-.871,1.215A27.74,27.74,0,0,0,302.382,65l-.807,1.38a1.075,1.075,0,0,0,.131,1.233,1.9,1.9,0,0,0,1.2.635l.389.049a3.872,3.872,0,0,1,3.23,2.717,3.8,3.8,0,0,1-1.118,3.939l-3.831,3.4A1.75,1.75,0,0,0,301,79.678v.846a9.276,9.276,0,0,1,4.654-1.229A9.438,9.438,0,0,1,312.3,82.02v0c.1-.013.209-.023.316-.028l1.309-.1a21.908,21.908,0,0,0-7.16-22.859Z" transform="translate(-264.616 -48.171)" fill="#c8ea73"/>
    <path id="Path_101987" data-name="Path 101987" d="M407.556,406.922l-1.134,1.133-1.634-1.633-.008-.009a9.283,9.283,0,0,0,1.133-1.133l.009.008Z" transform="translate(-357.642 -358.534)" fill="#6d7486"/>
    <path id="Path_101988" data-name="Path 101988" d="M410.926,279.643l.627-.063q-.213.76-.481,1.5a9.5,9.5,0,0,0-1.153-1.366l0,0c.1-.013.211-.023.319-.028l.53-.024c.051,0,.1-.006.153-.011Z" transform="translate(-362.249 -245.862)" fill="#a5e2fb"/>
    <path id="Path_101989" data-name="Path 101989" d="M431.864,429.4a2.088,2.088,0,0,1-2.953,2.953l-4.3-4.3,2.953-2.954Z" transform="translate(-375.417 -376.3)" fill="#cc3d60"/>
    <path id="Path_101990" data-name="Path 101990" d="M412.914,410.46l-2.954,2.953,1.518,1.518,2.953-2.954Z" transform="translate(-362.285 -363.177)" fill="#cc3d60"/>
    <path id="Path_101991" data-name="Path 101991" d="M288.787,279.333a7.087,7.087,0,1,0-7.071,12.128,21.969,21.969,0,0,0,9.268-9.194,7.1,7.1,0,0,0-2.2-2.933Z" transform="translate(-243.392 -244.281)" fill="#86bdce"/>
    <path id="Path_101992" data-name="Path 101992" d="M322.411,279.327a3.728,3.728,0,0,0-.62.972l-.136.309A2.9,2.9,0,0,1,319,282.342h-2.256a1.045,1.045,0,0,1-1.043-.943l-.09-.9a3.66,3.66,0,0,0-.78-1.926,7.09,7.09,0,0,1,7.581.756Z" transform="translate(-277.015 -244.275)" fill="#4ca987"/>
    <path id="Path_101993" data-name="Path 101993" d="M271.586,258.739a9.5,9.5,0,0,1-.552,11.532A9.283,9.283,0,0,1,269.9,271.4a9.486,9.486,0,1,1,1.148-13.367q.285.338.537.7Zm-.723,5.407a7.089,7.089,0,1,0-7.091,7.086h.005a7.054,7.054,0,0,0,7.086-7.022Q270.863,264.178,270.863,264.146Z" transform="translate(-222.763 -223.524)" fill="#dbf6e9"/>
    <path id="Path_101994" data-name="Path 101994" d="M14.609,32.875q0-1.032.094-2.041A21.855,21.855,0,0,1,34.939,11.056Q34.164,11,33.375,11A21.862,21.862,0,0,0,11.594,30.835q-.093,1.007-.094,2.041A21.875,21.875,0,0,0,33.375,54.751q.785,0,1.557-.056a21.875,21.875,0,0,1-20.323-21.82Z" transform="translate(-5.124 -5.119)" fill="#87bfb5"/>
    <path id="Path_101995" data-name="Path 101995" d="M35.225,60.631a.757.757,0,0,1,.172.618.792.792,0,0,1-.309.5l-2.238,1.717a3.636,3.636,0,0,0-1.26,1.814l-.752,2.44a1.516,1.516,0,0,1-.286.529l-.732.881a4.181,4.181,0,0,0-.967,2.285,1.161,1.161,0,0,1-.708.967.584.584,0,0,1-.593-.084.6.6,0,0,1-.214-.377L26.653,67.8a3.2,3.2,0,0,0-.61-1.412l-2.526-3.311a2.942,2.942,0,0,1-.5-1l-.833-3.008a3.166,3.166,0,0,0-2.208-2.2l-.181-.049a2.349,2.349,0,0,1-.985-.551l-1.555-1.465a3.478,3.478,0,0,1-.628-.79,3.463,3.463,0,0,0-3.66-1.66l-.3.059-.263-.025A21.884,21.884,0,0,1,24.04,35.05l1.585,1.193,1.251.939a6.779,6.779,0,0,0,.655.435A6.864,6.864,0,0,1,29.7,39.63l1.484,2.14a2.326,2.326,0,0,1-.069,2.754l-.688.893a1.591,1.591,0,0,1-1.455.6l-.78-.1A2.818,2.818,0,0,0,25.4,47.3a1.608,1.608,0,0,1-1.6.765l-1.787-.227a2.914,2.914,0,0,0-2.8,1.263,2.586,2.586,0,0,0-.044,2.838l1.191,1.881a2.409,2.409,0,0,0,3.174.834L24.766,54a2.265,2.265,0,0,1,2.224.055l2.327,1.4a.568.568,0,0,0,.309.081,3.3,3.3,0,0,1,2.719,1.432l1.138,1.587c.08.112.165.221.254.325Z" transform="translate(-5.939 -26.677)" fill="#c8ea73"/>
    <path id="Path_101996" data-name="Path 101996" d="M15.519,52.392A21.867,21.867,0,0,1,25.4,36.074L24.04,35.05A21.884,21.884,0,0,0,12.41,52.392l.263.025.3-.059a3.444,3.444,0,0,1,2.513.473c.011-.146.022-.293.036-.438Z" transform="translate(-5.939 -26.677)" fill="#aecc64"/>
    <g id="Group_57308" data-name="Group 57308" transform="translate(5.784 5.289)">
      <path id="Path_101997" data-name="Path 101997" d="M43.024,81.751a.621.621,0,0,0,.8-.367h0a18.689,18.689,0,0,1,5.447-7.775.622.622,0,1,0-.794-.958l-.01.009a19.936,19.936,0,0,0-5.81,8.294.622.622,0,0,0,.368.8Z" transform="translate(-38.799 -65.54)"/>
      <path id="Path_101998" data-name="Path 101998" d="M113.536,58.476a.619.619,0,0,0,.348-.107c.177-.12.359-.238.539-.352a.622.622,0,0,0-.652-1.059l-.009.006c-.193.121-.386.247-.575.375a.622.622,0,0,0,.349,1.137Z" transform="translate(-101.809 -51.52)"/>
      <path id="Path_101999" data-name="Path 101999" d="M51.068,46.843a.622.622,0,0,0-.879,0l-.47.47L49.1,46.7a10.1,10.1,0,0,0,.409-11.565A22.479,22.479,0,1,0,35.457,49.074a10.1,10.1,0,0,0,11.632-.365l.617.617-.47.47a.622.622,0,0,0,0,.879l5.82,5.82a2.71,2.71,0,0,0,3.832-3.832ZM42.251,11.779a21.261,21.261,0,0,1,6.565,21.363l-.923.065a10.1,10.1,0,0,0-10.875-1.882,1.092,1.092,0,0,1,.352-.678l3.842-3.4a4.419,4.419,0,0,0,1.3-4.585A4.5,4.5,0,0,0,38.756,19.5l-.39-.048a1.281,1.281,0,0,1-.808-.428.453.453,0,0,1-.062-.51l.807-1.38a27.1,27.1,0,0,1,3.43-4.643Zm-24.2-2.664L20.563,11a7.5,7.5,0,0,0,.714.475,6.285,6.285,0,0,1,1.977,1.831l1.484,2.14a1.705,1.705,0,0,1-.051,2.02L24,18.362a.964.964,0,0,1-.884.367l-.781-.1a3.441,3.441,0,0,0-3.415,1.686.991.991,0,0,1-.98.461l-1.786-.227a3.534,3.534,0,0,0-3.389,1.532,3.211,3.211,0,0,0-.054,3.52L13.9,27.48a3.043,3.043,0,0,0,3.993,1.05l1.226-.657a1.64,1.64,0,0,1,1.61.039l2.327,1.4a1.19,1.19,0,0,0,.645.17,2.661,2.661,0,0,1,2.2,1.173l1.139,1.587c.089.124.185.247.285.365l1.49,1.752a.137.137,0,0,1,.032.117.185.185,0,0,1-.074.1L26.533,36.3a4.237,4.237,0,0,0-1.476,2.124l-.752,2.44a.907.907,0,0,1-.17.314l-.732.88A4.784,4.784,0,0,0,22.3,44.681a.54.54,0,0,1-.287.43l-.681-4.089a3.828,3.828,0,0,0-.729-1.686l-2.526-3.312a2.314,2.314,0,0,1-.391-.788l-.834-3.008A3.79,3.79,0,0,0,14.2,29.6l-.182-.05a1.714,1.714,0,0,1-.722-.4l-1.555-1.463a2.9,2.9,0,0,1-.517-.65,4.092,4.092,0,0,0-4.056-2A21.3,21.3,0,0,1,18.052,9.115Zm10.2,39.9A21.277,21.277,0,0,1,7,27.756c0-.486.018-.967.05-1.445l.1-.021a2.845,2.845,0,0,1,3,1.364,4.145,4.145,0,0,0,.739.929l1.555,1.464a2.962,2.962,0,0,0,1.247.7l.182.05a2.54,2.54,0,0,1,1.772,1.764l.833,3.008a3.55,3.55,0,0,0,.6,1.209l2.526,3.312a2.579,2.579,0,0,1,.491,1.136l.687,4.12a1.208,1.208,0,0,0,1.66.932,1.781,1.781,0,0,0,1.087-1.484,3.545,3.545,0,0,1,.825-1.944l.732-.88a2.142,2.142,0,0,0,.4-.743l.752-2.44a3,3,0,0,1,1.045-1.5l2.237-1.718a1.412,1.412,0,0,0,.545-.895,1.388,1.388,0,0,0-.312-1.119L28.271,31.8c-.078-.092-.153-.188-.223-.285L26.91,29.927a3.906,3.906,0,0,0-3.225-1.692L21.37,26.846a2.89,2.89,0,0,0-2.838-.069l-1.226.657a1.794,1.794,0,0,1-2.355-.619l-1.191-1.881a1.967,1.967,0,0,1,.033-2.157,2.3,2.3,0,0,1,2.2-1l1.787.227A2.22,2.22,0,0,0,20,20.94a2.2,2.2,0,0,1,2.182-1.077l.781.1a2.215,2.215,0,0,0,2.026-.841l.688-.893a2.944,2.944,0,0,0,.088-3.488L24.276,12.6A7.535,7.535,0,0,0,21.9,10.4a6.268,6.268,0,0,1-.6-.4l-2.021-1.52a21.216,21.216,0,0,1,22,2.5l-.5.7a28.338,28.338,0,0,0-3.562,4.829L36.418,17.9a1.692,1.692,0,0,0,.2,1.951,2.521,2.521,0,0,0,1.591.843l.389.048a3.248,3.248,0,0,1,2.71,2.28,3.174,3.174,0,0,1-.934,3.292l-3.831,3.4a2.372,2.372,0,0,0-.786,1.792v.469a10.11,10.11,0,0,0-1.5,16.173,21.244,21.244,0,0,1-6.006.862Zm12.762.487a8.876,8.876,0,1,1,8.876-8.876h0A8.886,8.886,0,0,1,41.013,49.5Zm7.278-1.852.548.548-.254.254-.548-.548q.129-.125.254-.254Zm.264,2.591,2.073-2.074.638.638-2.074,2.073Zm7.453,5.379a1.468,1.468,0,0,1-2.074,0l-3.862-3.862,2.074-2.073,3.862,3.862a1.466,1.466,0,0,1,0,2.073Z" transform="translate(-5.784 -5.289)"/>
      <path id="Path_102000" data-name="Path 102000" d="M279.024,271.813a7.708,7.708,0,1,0,7.708,7.708,7.708,7.708,0,0,0-7.708-7.708Zm0,1.244a6.425,6.425,0,0,1,3.5,1.036,4.349,4.349,0,0,0-.311.582l-.136.332A2.3,2.3,0,0,1,280,276.393h-2.256a.446.446,0,0,1-.424-.407l-.09-.914a4.332,4.332,0,0,0-.484-1.6,6.43,6.43,0,0,1,2.283-.418Zm-6.465,6.465a6.466,6.466,0,0,1,3.068-5.5,3.051,3.051,0,0,1,.359,1.161l.09.925a1.685,1.685,0,0,0,1.662,1.527H280a3.545,3.545,0,0,0,3.225-2.13l.136-.321a3.285,3.285,0,0,1,.158-.309,6.491,6.491,0,0,1,1.4,1.98,21.214,21.214,0,0,1-8.6,8.531,6.472,6.472,0,0,1-3.753-5.866Zm6.465,6.465a6.49,6.49,0,0,1-1.089-.093,22.424,22.424,0,0,0,7.469-7.41,6.461,6.461,0,0,1-6.38,7.5Z" transform="translate(-243.795 -244.189)"/>
    </g>
  </g>
</svg>
