<svg xmlns="http://www.w3.org/2000/svg" width="315" height="209" viewBox="0 0 315 209">
  <g id="t2-ixx4" transform="translate(-1033 -1549)">
    <rect id="Rectangle_5250" data-name="Rectangle 5250" width="315" height="209" transform="translate(1033 1549)" fill="none"/>
    <path id="Path_102095" data-name="Path 102095" d="M281.323,99.021H268.369a11.915,11.915,0,0,1-11.734-12.089h0a11.916,11.916,0,0,1,11.734-12.089h8.154a5.116,5.116,0,0,0,.155-10.229h-19.46a.6.6,0,0,1-.582-.614,12.106,12.106,0,0,0-11.922-12.267H174.469a3.221,3.221,0,0,1-.118-6.441h48.967a6.395,6.395,0,0,0,.175-12.787H82.725a6.395,6.395,0,0,0-.175,12.787h24.044a7,7,0,0,1,.191,14H35.311C20.67,59.289,8.8,71.518,8.8,86.6h0a27.111,27.111,0,0,0,21.58,26.834,4,4,0,0,1,3.152,3.975v2.229a4,4,0,0,1-3.94,4.059h0c-10.772,0-19.5,9-19.5,20.1h0c0,11.1,8.733,20.094,19.5,20.094h.07a5.953,5.953,0,0,1,5.862,6.039v.015a6.2,6.2,0,0,1-5.541,6.221,6.206,6.206,0,0,0-1.436.277,15.632,15.632,0,0,0,5.025,30.254H257.9a15.535,15.535,0,0,0,15.416-14.326c.005-.072.011-.145.015-.216a7.371,7.371,0,0,1,7.23-7.053h2.78a12.744,12.744,0,0,0,12.55-12.929h0c0-5.384-4.213-9.838-9.257-11.7a7.912,7.912,0,0,1-5.2-7.421v-.373a8.561,8.561,0,0,1,6.109-8.234A23.08,23.08,0,0,0,303.8,122.18h0C303.8,109.39,293.736,99.021,281.323,99.021Z" transform="translate(1033.7 1533.417)" fill="#9ddfd3"/>
    <g id="Group_57309" data-name="Group 57309" transform="translate(1087.216 1550.711)">
      <path id="Path_101985" data-name="Path 101985" d="M145.978,29.689A82.233,82.233,0,0,0,11.855,85.544q-.351,3.788-.355,7.673a82.3,82.3,0,0,0,109.66,77.563l51.732-55.149a82.357,82.357,0,0,0-26.914-85.941Z" transform="translate(-3.489 -3.459)" fill="#9ddfd3"/>
      <path id="Path_101986" data-name="Path 101986" d="M322.668,59.03,319.395,63.6A104.29,104.29,0,0,0,306.2,81.459l-3.036,5.186a4.041,4.041,0,0,0,.491,4.637,7.148,7.148,0,0,0,4.512,2.389l1.461.183a14.558,14.558,0,0,1,12.142,10.213,14.282,14.282,0,0,1-4.2,14.807l-14.4,12.8A6.578,6.578,0,0,0,301,136.659v3.18a34.875,34.875,0,0,1,17.5-4.621,35.484,35.484,0,0,1,24.986,10.244l-.005-.016c.394-.051.784-.086,1.19-.105l4.92-.37A82.367,82.367,0,0,0,322.668,59.03Z" transform="translate(-180.179 -32.8)" fill="#c8ea73"/>
      <path id="Path_101987" data-name="Path 101987" d="M415.216,411.453l-4.263,4.259-6.142-6.138-.031-.035a34.905,34.905,0,0,0,4.259-4.259l.035.031Z" transform="translate(-243.521 -244.128)" fill="#6d7486"/>
      <path id="Path_101988" data-name="Path 101988" d="M413.7,279.818l2.357-.238q-.8,2.858-1.808,5.627a35.722,35.722,0,0,0-4.333-5.136l.016-.016c.394-.051.795-.086,1.2-.105l1.991-.09c.191-.008.382-.023.577-.043Z" transform="translate(-246.658 -167.409)" fill="#a5e2fb"/>
      <path id="Path_101989" data-name="Path 101989" d="M451.883,441.275a7.85,7.85,0,0,1-11.1,11.1L424.61,436.206l11.1-11.105Z" transform="translate(-255.624 -256.225)" fill="#cc3d60"/>
      <path id="Path_101990" data-name="Path 101990" d="M421.065,410.46l-11.105,11.1,5.709,5.709,11.1-11.105Z" transform="translate(-246.682 -247.29)" fill="#cc3d60"/>
      <path id="Path_101991" data-name="Path 101991" d="M320.436,283.519a26.645,26.645,0,1,0-26.583,45.595A82.594,82.594,0,0,0,328.7,294.546a26.71,26.71,0,0,0-8.261-11.028Z" transform="translate(-165.727 -166.333)" fill="#86bdce"/>
      <path id="Path_101992" data-name="Path 101992" d="M343.33,283.514a14.014,14.014,0,0,0-2.33,3.655l-.51,1.161a10.9,10.9,0,0,1-9.983,6.519h-8.483a3.928,3.928,0,0,1-3.92-3.546l-.339-3.39a13.763,13.763,0,0,0-2.934-7.24,26.656,26.656,0,0,1,28.5,2.841Z" transform="translate(-188.621 -166.328)" fill="#4ca987"/>
      <path id="Path_101993" data-name="Path 101993" d="M319.276,270a35.7,35.7,0,0,1-2.077,43.354,34.894,34.894,0,0,1-4.259,4.259,35.665,35.665,0,1,1,4.316-50.253q1.071,1.272,2.02,2.64Zm-2.72,20.329a26.651,26.651,0,1,0-26.66,26.641h.019a26.52,26.52,0,0,0,26.641-26.4C316.557,290.488,316.557,290.407,316.556,290.326Z" transform="translate(-151.681 -152.199)" fill="#dbf6e9"/>
      <path id="Path_101994" data-name="Path 101994" d="M23.19,93.243q0-3.881.355-7.673A82.168,82.168,0,0,1,99.62,11.21Q96.708,11,93.743,11A82.193,82.193,0,0,0,11.855,85.57q-.351,3.788-.355,7.673a82.241,82.241,0,0,0,82.243,82.243q2.952,0,5.852-.209A82.242,82.242,0,0,1,23.19,93.243Z" transform="translate(-3.489 -3.486)" fill="#87bfb5"/>
      <path id="Path_101995" data-name="Path 101995" d="M98.187,131.224a2.844,2.844,0,0,1,.647,2.322,2.978,2.978,0,0,1-1.161,1.878l-8.413,6.457a13.67,13.67,0,0,0-4.738,6.819l-2.829,9.173a5.7,5.7,0,0,1-1.075,1.987l-2.751,3.312a15.718,15.718,0,0,0-3.636,8.592,4.364,4.364,0,0,1-2.661,3.636,2.2,2.2,0,0,1-2.229-.316,2.269,2.269,0,0,1-.8-1.418l-2.58-15.485a12.043,12.043,0,0,0-2.3-5.307l-9.5-12.45a11.063,11.063,0,0,1-1.867-3.756l-3.133-11.308a11.9,11.9,0,0,0-8.3-8.265l-.682-.183a8.833,8.833,0,0,1-3.7-2.073l-5.845-5.506a13.075,13.075,0,0,1-2.361-2.969,13.019,13.019,0,0,0-13.759-6.242l-1.118.222-.99-.094a82.277,82.277,0,0,1,43.724-65.2l5.958,4.485,4.7,3.53A25.486,25.486,0,0,0,69.258,44.7a25.8,25.8,0,0,1,8.171,7.567l5.58,8.047a8.743,8.743,0,0,1-.261,10.353l-2.587,3.359A5.982,5.982,0,0,1,74.69,76.3l-2.934-.374A10.6,10.6,0,0,0,61.235,81.12a6.046,6.046,0,0,1-6,2.876l-6.718-.853a10.956,10.956,0,0,0-10.509,4.75,9.724,9.724,0,0,0-.164,10.669l4.477,7.072a9.058,9.058,0,0,0,11.932,3.137l4.61-2.47a8.517,8.517,0,0,1,8.362.207l8.748,5.249a2.135,2.135,0,0,0,1.161.3,12.4,12.4,0,0,1,10.221,5.385l4.279,5.966c.3.421.62.83.955,1.224Z" transform="translate(-4.044 -18.164)" fill="#c8ea73"/>
      <path id="Path_101996" data-name="Path 101996" d="M24.1,100.249A82.212,82.212,0,0,1,61.249,38.9l-5.115-3.85a82.277,82.277,0,0,0-43.724,65.2l.99.094,1.118-.222a12.949,12.949,0,0,1,9.448,1.777c.04-.55.083-1.1.134-1.648Z" transform="translate(-4.044 -18.164)" fill="#aecc64"/>
      <g id="Group_57308" data-name="Group 57308" transform="translate(5.784 5.289)">
        <path id="Path_101997" data-name="Path 101997" d="M44.147,107.262a2.336,2.336,0,0,0,3-1.381l0,0A70.262,70.262,0,0,1,67.629,76.645a2.338,2.338,0,1,0-2.984-3.6l-.039.034A74.951,74.951,0,0,0,42.762,104.26a2.338,2.338,0,0,0,1.385,3Z" transform="translate(-28.264 -46.314)"/>
        <path id="Path_101998" data-name="Path 101998" d="M115.255,62.922a2.327,2.327,0,0,0,1.308-.4c.666-.451,1.348-.9,2.026-1.325a2.338,2.338,0,0,0-2.452-3.982l-.035.022c-.725.456-1.453.93-2.163,1.411a2.338,2.338,0,0,0,1.313,4.274Z" transform="translate(-71.168 -36.768)"/>
        <path id="Path_101999" data-name="Path 101999" d="M176.035,161.517a2.338,2.338,0,0,0-3.306,0l-1.767,1.767-2.32-2.32a37.969,37.969,0,0,0,1.538-43.479A84.514,84.514,0,1,0,117.342,169.9a37.965,37.965,0,0,0,43.73-1.371l2.32,2.32-1.767,1.767a2.338,2.338,0,0,0,0,3.306l21.879,21.88A10.188,10.188,0,0,0,197.913,183.4ZM142.886,29.689a79.933,79.933,0,0,1,24.683,80.318l-3.472.243a37.985,37.985,0,0,0-40.887-7.076,4.1,4.1,0,0,1,1.322-2.548l14.446-12.8a16.614,16.614,0,0,0,4.871-17.237,16.908,16.908,0,0,0-14.1-11.858l-1.467-.18a4.815,4.815,0,0,1-3.039-1.608,1.7,1.7,0,0,1-.234-1.918l3.034-5.188a101.882,101.882,0,0,1,12.9-17.457ZM51.907,19.672l9.44,7.1a28.189,28.189,0,0,0,2.686,1.786,23.63,23.63,0,0,1,7.432,6.883l5.58,8.046a6.412,6.412,0,0,1-.191,7.595l-2.588,3.357a3.626,3.626,0,0,1-3.323,1.38l-2.935-.374a12.937,12.937,0,0,0-12.838,6.338,3.727,3.727,0,0,1-3.685,1.732l-6.716-.853a13.288,13.288,0,0,0-12.742,5.759,12.073,12.073,0,0,0-.2,13.233L36.3,88.721a11.441,11.441,0,0,0,15.011,3.948l4.61-2.47a6.166,6.166,0,0,1,6.055.147l8.75,5.25a4.475,4.475,0,0,0,2.425.638,10,10,0,0,1,8.259,4.41l4.281,5.967c.336.468.7.93,1.072,1.372l5.6,6.588a.517.517,0,0,1,.12.44.7.7,0,0,1-.279.393l-8.412,6.459a15.929,15.929,0,0,0-5.55,7.984l-2.827,9.173a3.408,3.408,0,0,1-.64,1.182l-2.753,3.31a17.987,17.987,0,0,0-4.163,9.874A2.03,2.03,0,0,1,66.782,155L64.22,139.63a14.391,14.391,0,0,0-2.742-6.338l-9.5-12.452a8.7,8.7,0,0,1-1.471-2.961L47.376,106.57a14.249,14.249,0,0,0-9.936-9.9l-.683-.187a6.444,6.444,0,0,1-2.713-1.52l-5.847-5.5a10.894,10.894,0,0,1-1.945-2.446A15.384,15.384,0,0,0,11,79.5a80.083,80.083,0,0,1,40.9-59.832ZM90.253,169.663a79.994,79.994,0,0,1-79.9-79.905c0-1.826.067-3.636.189-5.432l.392-.078a10.7,10.7,0,0,1,11.284,5.13,15.584,15.584,0,0,0,2.779,3.493l5.847,5.5A11.135,11.135,0,0,0,35.527,101l.683.186a9.55,9.55,0,0,1,6.661,6.633L46,119.13a13.347,13.347,0,0,0,2.26,4.546l9.5,12.453a9.7,9.7,0,0,1,1.848,4.27l2.582,15.489a4.542,4.542,0,0,0,6.24,3.5,6.7,6.7,0,0,0,4.088-5.58,13.326,13.326,0,0,1,3.1-7.311l2.752-3.31a8.052,8.052,0,0,0,1.513-2.795l2.828-9.173a11.276,11.276,0,0,1,3.929-5.652l8.412-6.457a5.31,5.31,0,0,0,2.048-3.364,5.217,5.217,0,0,0-1.175-4.208l-5.6-6.588c-.293-.345-.574-.705-.837-1.071l-4.28-5.967a14.685,14.685,0,0,0-12.124-6.36l-8.7-5.222a10.865,10.865,0,0,0-10.669-.259L49.1,88.546a6.746,6.746,0,0,1-8.852-2.328l-4.478-7.07a7.4,7.4,0,0,1,.125-8.109,8.634,8.634,0,0,1,8.28-3.743l6.717.853a8.348,8.348,0,0,0,8.318-4.019,8.268,8.268,0,0,1,8.2-4.05l2.937.376a8.326,8.326,0,0,0,7.616-3.164l2.588-3.358a11.07,11.07,0,0,0,.33-13.113l-5.58-8.047a28.327,28.327,0,0,0-8.914-8.254,23.564,23.564,0,0,1-2.239-1.489l-7.6-5.715A79.763,79.763,0,0,1,139.274,26.7l-1.878,2.62A106.539,106.539,0,0,0,124,47.477l-3.047,5.21a6.362,6.362,0,0,0,.761,7.336,9.479,9.479,0,0,0,5.983,3.171l1.463.18a12.213,12.213,0,0,1,10.189,8.573,11.934,11.934,0,0,1-3.513,12.376l-14.4,12.8a8.916,8.916,0,0,0-2.954,6.737v1.762a38.009,38.009,0,0,0-5.647,60.805,79.867,79.867,0,0,1-22.582,3.239Zm47.98,1.831a33.37,33.37,0,1,1,33.37-33.37h0a33.407,33.407,0,0,1-33.37,33.369Zm27.362-6.963,2.059,2.059-.955.955-2.059-2.059q.485-.469.955-.955Zm.991,9.742,7.793-7.8,2.4,2.4-7.8,7.793ZM194.607,194.5a5.518,5.518,0,0,1-7.8,0l-14.519-14.52,7.8-7.793,14.519,14.52a5.512,5.512,0,0,1,0,7.793Z" transform="translate(-5.784 -5.289)"/>
        <path id="Path_102000" data-name="Path 102000" d="M300.3,271.813a28.981,28.981,0,1,0,28.981,28.981A28.981,28.981,0,0,0,300.3,271.813Zm0,4.676a24.154,24.154,0,0,1,13.173,3.9,16.344,16.344,0,0,0-1.169,2.19l-.51,1.247a8.647,8.647,0,0,1-7.844,5.209h-8.481a1.676,1.676,0,0,1-1.594-1.532l-.339-3.435a16.288,16.288,0,0,0-1.819-6.006,24.173,24.173,0,0,1,8.583-1.57Zm-24.3,24.3a24.308,24.308,0,0,1,11.536-20.668,11.47,11.47,0,0,1,1.351,4.364l.339,3.476a6.334,6.334,0,0,0,6.247,5.741h8.481a13.327,13.327,0,0,0,12.126-8.008l.51-1.206a12.34,12.34,0,0,1,.594-1.162,24.4,24.4,0,0,1,5.255,7.443A79.756,79.756,0,0,1,290.1,322.846a24.332,24.332,0,0,1-14.11-22.053Zm24.3,24.3a24.4,24.4,0,0,1-4.094-.351,84.3,84.3,0,0,0,28.081-27.859A24.29,24.29,0,0,1,300.3,325.1Z" transform="translate(-167.847 -167.958)"/>
      </g>
    </g>
  </g>
</svg>
