<svg xmlns="http://www.w3.org/2000/svg" width="53.221" height="52" viewBox="0 0 53.221 52">
  <g id="t2-ic5" transform="translate(0 -6)">
    <path id="Path_102001" data-name="Path 102001" d="M195.947,189.026l-11.738-11.738a1.88,1.88,0,1,1,2.658-2.658l-3.023-3.022a1.875,1.875,0,0,1-.552-1.33,1.935,1.935,0,0,1,.024-.3,1.877,1.877,0,0,1,3.007-1.182l-1.15-1.15a1.88,1.88,0,0,1-.552-1.331,1.8,1.8,0,0,1,.025-.306,1.88,1.88,0,0,1,3.186-1.022l1.317,1.317a1.879,1.879,0,1,1,2.658-2.658l7.628,7.628.022-.03a3.437,3.437,0,0,1,4.865,0l3.557,3.557a3.651,3.651,0,0,1,1.069,2.576l0,2.225a3.928,3.928,0,0,0,1.151,2.774l.793.793-9.072,9.072-1.013-1.014a3.929,3.929,0,0,0-2.521-1.142A3.646,3.646,0,0,1,195.947,189.026Z" transform="translate(-164.24 -140.763)" fill="#fecbaa"/>
    <path id="Path_102002" data-name="Path 102002" d="M353.684,358.236l10.3-10.3a.869.869,0,0,1,1.229,0l3.667,3.667a.869.869,0,0,1,0,1.229l-10.3,10.3a.869.869,0,0,1-1.229,0l-3.667-3.667A.868.868,0,0,1,353.684,358.236Z" transform="translate(-316.691 -306.167)" fill="#ffc93c"/>
    <path id="Path_102003" data-name="Path 102003" d="M78.1,189.036,89.841,177.3a1.88,1.88,0,1,0-2.658-2.658l3.023-3.023a1.878,1.878,0,0,0-2.479-2.813l1.15-1.15a1.879,1.879,0,0,0,.552-1.331,1.794,1.794,0,0,0-.025-.306,1.872,1.872,0,0,0-1.555-1.549,1.879,1.879,0,0,0-1.631.527L84.9,166.312a1.879,1.879,0,0,0,.528-1.63,1.86,1.86,0,0,0-.525-1.03,1.881,1.881,0,0,0-2.66,0l-7.628,7.628-.022-.03a3.437,3.437,0,0,0-4.865,0l-3.557,3.557a3.648,3.648,0,0,0-1.069,2.576l0,2.225a3.925,3.925,0,0,1-1.151,2.774l-.793.793,9.072,9.072,1.014-1.013a3.929,3.929,0,0,1,2.521-1.142A3.649,3.649,0,0,0,78.1,189.036Z" transform="translate(-56.591 -140.772)" fill="#fecbaa"/>
    <path id="Path_102004" data-name="Path 102004" d="M22.943,358.244l-10.3-10.3a.868.868,0,0,0-1.229,0l-3.667,3.667a.869.869,0,0,0,0,1.229l10.3,10.3a.868.868,0,0,0,1.229,0l3.667-3.667A.869.869,0,0,0,22.943,358.244Z" transform="translate(-6.716 -306.173)" fill="#cc3d60"/>
    <path id="Path_102005" data-name="Path 102005" d="M168.791,86.535v16.6a1.88,1.88,0,1,1-3.759,0v4.274a1.878,1.878,0,0,1-3.742.236v1.627a1.879,1.879,0,0,1-.551,1.331,1.757,1.757,0,0,1-.234.2,1.88,1.88,0,0,1-2.975-1.53V107.41a1.88,1.88,0,0,1-.78,1.526,1.861,1.861,0,0,1-1.1.356,1.881,1.881,0,0,1-1.88-1.882V96.622l-.037.006a3.438,3.438,0,0,1-3.438-3.443v-5.03a3.651,3.651,0,0,1,1.065-2.577L152.934,84a3.928,3.928,0,0,0,1.147-2.776V80.106h12.83v1.433a3.932,3.932,0,0,0,.975,2.591A3.646,3.646,0,0,1,168.791,86.535Z" transform="translate(-134.674 -66.403)" fill="#fedfc5"/>
    <path id="Path_102006" data-name="Path 102006" d="M161.6,174.638a1.881,1.881,0,0,0-2.66,0l3.023-3.023a1.878,1.878,0,0,0-2.479-2.813l1.15-1.15a1.879,1.879,0,0,0,.552-1.331,1.749,1.749,0,0,0-.025-.306,1.88,1.88,0,0,0-3.185-1.022l-1.317,1.317a1.879,1.879,0,0,0,.527-1.63,1.86,1.86,0,0,0-.525-1.03,1.881,1.881,0,0,0-2.66,0l-7.628,7.628-.022-.03a3.42,3.42,0,0,0-1.328-.825,3.454,3.454,0,0,0-1.785-.11,5.044,5.044,0,0,0,2.648,2v9.459a3.443,3.443,0,0,0,4.11,3.376,3.446,3.446,0,0,0,1.994,1.75L161.6,177.3A1.879,1.879,0,0,0,161.6,174.638Z" transform="translate(-128.349 -140.772)" fill="#ffae85"/>
    <path id="Path_102007" data-name="Path 102007" d="M199.9,177.5v-6.639a3.449,3.449,0,0,0-.459.386l-.021.03-7.628-7.628a1.879,1.879,0,1,0-2.658,2.658l-1.317-1.317a1.879,1.879,0,0,0-3.186,1.022,1.8,1.8,0,0,0-.025.306,1.878,1.878,0,0,0,.552,1.331l1.15,1.15a1.879,1.879,0,0,0-2.48,2.813l3.023,3.023a1.879,1.879,0,1,0-2.658,2.658l7.863,7.863a3.45,3.45,0,0,0,.646.061,3.408,3.408,0,0,0,2.012-.651,3.438,3.438,0,0,0,1.427-2.791v-.847q.159.015.32.015A3.444,3.444,0,0,0,199.9,177.5Z" transform="translate(-164.229 -140.765)" fill="#ffae85"/>
    <path id="Path_102008" data-name="Path 102008" d="M168.791,86.535v16.6a1.88,1.88,0,0,1-1.88,1.882c-.028,0-.058,0-.089,0a1.86,1.86,0,0,1-1.009-.353h0a1.879,1.879,0,0,1-.78-1.526v4.274a1.878,1.878,0,0,1-3.742.236v1.627a1.879,1.879,0,0,1-.551,1.331,1.757,1.757,0,0,1-.234.2,1.88,1.88,0,0,1-2.975-1.53V107.41a1.88,1.88,0,0,1-.78,1.526,1.861,1.861,0,0,1-1.1.356,1.881,1.881,0,0,1-1.88-1.882V96.622l-.037.006a3.438,3.438,0,0,1-3.438-3.443v-5.03a3.651,3.651,0,0,1,1.065-2.577L152.934,84a3.934,3.934,0,0,0,1.147-2.776V80.106h12.83v1.433a3.543,3.543,0,0,0,.124.97,3.905,3.905,0,0,0,.851,1.621A3.676,3.676,0,0,1,168.791,86.535Z" transform="translate(-134.674 -66.403)" fill="#fedfc5"/>
    <path id="Path_102009" data-name="Path 102009" d="M199.9,86.535v16.6a1.88,1.88,0,0,1-1.88,1.882c-.028,0-.058,0-.089,0a1.86,1.86,0,0,1-1.009-.353l.032-16a2.45,2.45,0,0,0-.063-.444,7.231,7.231,0,0,0-7.233-5.835H185.02a3.915,3.915,0,0,0,.175-1.16V80.106h12.83v1.433a3.541,3.541,0,0,0,.124.97A3.9,3.9,0,0,0,199,84.13,3.676,3.676,0,0,1,199.9,86.535Z" transform="translate(-165.788 -66.403)" fill="#fecbaa"/>
    <path id="Path_102010" data-name="Path 102010" d="M185.13,20.424H170.568a.869.869,0,0,1-.869-.869V14.369a.869.869,0,0,1,.869-.869H185.13a.869.869,0,0,1,.869.869v5.186A.869.869,0,0,1,185.13,20.424Z" transform="translate(-152.059 -6.72)" fill="#9ddfd3"/>
    <path id="Path_102011" data-name="Path 102011" d="M202.289,453.752l-.156.764.151-.765a.779.779,0,1,0-.3,1.53l.014,0a.8.8,0,0,0,.147.014.78.78,0,0,0,.145-1.546Z" transform="translate(-180.423 -401.195)"/>
    <path id="Path_102012" data-name="Path 102012" d="M261.65,456.26l.078.776-.08-.775a.78.78,0,0,0,.079,1.555c.027,0,.054,0,.081,0l.022,0a.78.78,0,0,0-.179-1.549Z" transform="translate(-233.823 -403.452)"/>
    <path id="Path_102013" data-name="Path 102013" d="M231.922,457.232h-.011a.775.775,0,0,0-.808.744.784.784,0,0,0,.749.814h.036a.78.78,0,0,0,.035-1.558Z" transform="translate(-207.079 -404.327)"/>
    <path id="Path_102014" data-name="Path 102014" d="M173.624,445.839l-.01,0a.775.775,0,0,0-.992.472.782.782,0,1,0,1-.468Z" transform="translate(-154.637 -394.075)"/>
    <path id="Path_102015" data-name="Path 102015" d="M290.94,450.828l.192.756-.194-.755a.78.78,0,0,0,.194,1.535.771.771,0,0,0,.2-.025l.021-.005a.78.78,0,0,0-.407-1.505Z" transform="translate(-260.171 -398.566)"/>
    <path id="Path_102016" data-name="Path 102016" d="M319.061,441.019l.309.715-.311-.715a.78.78,0,1,0,.622,1.43l.019-.009a.78.78,0,0,0-.639-1.422Z" transform="translate(-285.473 -389.74)"/>
    <path id="Path_102017" data-name="Path 102017" d="M147.26,86.25a.78.78,0,1,0-.364-1.468l-.009,0a.778.778,0,0,0,.374,1.463Z" transform="translate(-131.251 -70.51)"/>
    <path id="Path_102018" data-name="Path 102018" d="M63.654,170.714a.779.779,0,0,0,1.053-.328l.014-.027a.78.78,0,1,0-1.067.356Z" transform="translate(-56.663 -146.266)"/>
    <path id="Path_102019" data-name="Path 102019" d="M52.126,198.511a.779.779,0,0,0,.988-.488l.01-.031a.78.78,0,1,0-1,.519Z" transform="translate(-46.233 -171.13)"/>
    <path id="Path_102020" data-name="Path 102020" d="M79.284,145.015a.779.779,0,0,0,1.089-.172l.01-.014a.78.78,0,0,0-1.268-.907l.628.462-.631-.459A.78.78,0,0,0,79.284,145.015Z" transform="translate(-70.755 -123.295)"/>
    <path id="Path_102021" data-name="Path 102021" d="M121.824,102.389a.783.783,0,1,0-.452-1.417l-.019.014a.78.78,0,0,0,.471,1.4Z" transform="translate(-108.462 -84.965)"/>
    <path id="Path_102022" data-name="Path 102022" d="M49.674,316.64a.779.779,0,1,0-.01-.034Z" transform="translate(-44.477 -277.436)"/>
    <path id="Path_102023" data-name="Path 102023" d="M99.17,122.173a.782.782,0,1,0-.545-1.337l-.013.013a.779.779,0,0,0,.558,1.324Z" transform="translate(-88.162 -102.694)"/>
    <path id="Path_102024" data-name="Path 102024" d="M44.9,286.873a.78.78,0,0,0-1.547.193l0,.031a.778.778,0,0,0,.77.665.792.792,0,0,0,.114-.009A.78.78,0,0,0,44.9,286.873Z" transform="translate(-38.843 -251.068)"/>
    <path id="Path_102025" data-name="Path 102025" d="M42.348,257.718h.024a.779.779,0,0,0,.779-.757v-.033a.78.78,0,1,0-.8.79Z" transform="translate(-37.268 -224.147)"/>
    <path id="Path_102026" data-name="Path 102026" d="M44.974,227.742a.8.8,0,0,0,.138.012.78.78,0,0,0,.767-.642c0-.011,0-.023.005-.034a.78.78,0,1,0-.91.664Z" transform="translate(-39.724 -197.296)"/>
    <path id="Path_102027" data-name="Path 102027" d="M403.058,148.985a.78.78,0,0,0,1.283-.885l-.648.434.646-.437a.78.78,0,0,0-1.291.875Z" transform="translate(-361.032 -127.019)"/>
    <path id="Path_102028" data-name="Path 102028" d="M436.632,235.028a.779.779,0,0,0-.687.862l0,.034a.78.78,0,0,0,.771.669.792.792,0,0,0,.111-.008.785.785,0,0,0-.2-1.557Z" transform="translate(-390.625 -205.217)"/>
    <path id="Path_102029" data-name="Path 102029" d="M429.67,205.286l0,.01a.78.78,0,0,0,.747.56.767.767,0,0,0,.22-.032.779.779,0,0,0,.528-.968l0-.01a.78.78,0,1,0-1.5.44Z" transform="translate(-384.979 -177.674)"/>
    <path id="Path_102030" data-name="Path 102030" d="M418.617,176.091a.784.784,0,0,0,.7.438.779.779,0,0,0,.7-1.121l-.707.329.706-.331a.78.78,0,0,0-1.412.662Z" transform="translate(-375.026 -151.395)"/>
    <path id="Path_102031" data-name="Path 102031" d="M383.424,124.684a.785.785,0,1,0-.024-.025Z" transform="translate(-343.362 -105.153)"/>
    <path id="Path_102032" data-name="Path 102032" d="M438.119,266.385a.785.785,0,0,0-.067,1.567h.044a.78.78,0,0,0,.778-.737v-.032A.778.778,0,0,0,438.119,266.385Z" transform="translate(-391.858 -233.318)"/>
    <path id="Path_102033" data-name="Path 102033" d="M333.958,86.734l.019.01a.777.777,0,0,0,1.05-.32.782.782,0,0,0-.317-1.055l-.377.682.375-.684a.78.78,0,1,0-.75,1.367Z" transform="translate(-298.881 -71.031)"/>
    <path id="Path_102034" data-name="Path 102034" d="M360.187,103.744l.012.009a.78.78,0,0,0,.942-1.242l-.005,0a.78.78,0,1,0-.949,1.237Z" transform="translate(-322.473 -86.331)"/>
    <path id="Path_102035" data-name="Path 102035" d="M52.74,44.869,49.081,41.2a1.646,1.646,0,0,0-2.331,0l-.085.085-.24-.24a3.147,3.147,0,0,1-.683-1.021.764.764,0,0,0-.056-.144,3.152,3.152,0,0,1-.181-1.059V37.786a.785.785,0,1,0,0-1.386,4.4,4.4,0,0,0-1.288-2.932l-3.55-3.556a4.212,4.212,0,0,0-5.387-.484l-.377-.379V20.132a4.427,4.427,0,0,0-1.1-2.919,3.147,3.147,0,0,1-.781-2.077v-.653h.054a1.65,1.65,0,0,0,1.648-1.649V7.649A1.65,1.65,0,0,0,33.071,6H18.508A1.65,1.65,0,0,0,16.86,7.649v5.186a1.65,1.65,0,0,0,1.648,1.649h.12v.342a3.128,3.128,0,0,1-.92,2.225l-1.572,1.575a4.4,4.4,0,0,0-1.293,3.128v5.03a4.2,4.2,0,0,0,.453,1.9,4.186,4.186,0,0,0-2.735,1.23L9.01,33.468A4.4,4.4,0,0,0,7.717,36.6v2.227a3.127,3.127,0,0,1-.92,2.225l-.238.238,0,0L6.472,41.2a1.646,1.646,0,0,0-2.331,0L.481,44.869a1.653,1.653,0,0,0,0,2.332l1.254,1.255a.78.78,0,1,0,1.1-1.1L1.585,46.1a.09.09,0,0,1,0-.128L5.245,42.3a.087.087,0,0,1,.124,0l.636.638h0l8.688,8.7.973.975a.09.09,0,0,1,0,.128l-3.66,3.666a.088.088,0,0,1-.124,0l-6.838-6.85a.78.78,0,1,0-1.1,1.1l6.838,6.85a1.646,1.646,0,0,0,2.331,0l3.66-3.666a1.652,1.652,0,0,0,0-2.331l-.04-.04.462-.462a3.133,3.133,0,0,1,2.017-.914,4.411,4.411,0,0,0,2.839-1.287l3.362-3.369a2.669,2.669,0,0,0,1.93-2.034,2.658,2.658,0,0,0,3.8-2.405V39.156A2.657,2.657,0,0,0,34.9,36.733V31.26l2.4,2.41a.78.78,0,0,0,1.105-1.1l-2-2.009a2.655,2.655,0,0,1,3.156.453l3.55,3.556a2.85,2.85,0,0,1,.838,2.026v2.227a4.678,4.678,0,0,0,1.375,3.326l.242.242-1.131,1.133-6.839,6.851-.381-.382-.012-.011-.067-.067a4.694,4.694,0,0,0-3.019-1.368,2.859,2.859,0,0,1-1.839-.834l-2.562-2.548a.78.78,0,1,0-1.1,1.105l2.56,2.546A4.412,4.412,0,0,0,34.013,50.1a3.134,3.134,0,0,1,2.016.914l.038.038a.732.732,0,0,0,.065.065l.359.36-.04.04a1.652,1.652,0,0,0,0,2.331l3.66,3.666a1.647,1.647,0,0,0,2.332,0L52.74,47.2A1.652,1.652,0,0,0,52.74,44.869Zm-6.713-7.752-.015,0-.142-.029Zm-25.083,10.6a2.853,2.853,0,0,1-1.836.833,4.694,4.694,0,0,0-3.019,1.368l-.46.461-.414-.415-.016-.016-7.54-7.553.242-.242a4.678,4.678,0,0,0,1.375-3.326V36.6a2.849,2.849,0,0,1,.838-2.026l3.55-3.556a2.655,2.655,0,0,1,3.16-.451l-2,2.006a.78.78,0,0,0,1.1,1.1l2.392-2.4v9.733a2.658,2.658,0,0,0,3.813,2.4,2.672,2.672,0,0,0,1.321,1.8ZM33.338,36.733a1.1,1.1,0,1,1-2.2,0v-8.7a.78.78,0,1,0-1.559,0V41.007a1.1,1.1,0,0,1-2.184.182V28.028a.788.788,0,0,0-1.575.009v12.97a2.66,2.66,0,0,0,.016.292V42.87a1.1,1.1,0,1,1-2.2,0V28.018a.78.78,0,0,0-1.56,0V41.007a1.1,1.1,0,1,1-2.2,0V26.5a.78.78,0,1,0-1.559,0v2.682a.764.764,0,0,0-.188.09,2.668,2.668,0,0,1-1.728-2.5v-5.03a2.85,2.85,0,0,1,.838-2.026l1.572-1.575a4.676,4.676,0,0,0,1.376-3.326v-.342h1.567a.78.78,0,0,0,0-1.559H18.508a.089.089,0,0,1-.089-.089V7.649a.089.089,0,0,1,.089-.089H33.071a.089.089,0,0,1,.089.089v5.186a.089.089,0,0,1-.089.089H25.415a.78.78,0,1,0,0,1.559h6.043v.653a4.708,4.708,0,0,0,1.168,3.105,2.866,2.866,0,0,1,.712,1.891Zm18.3,9.366-10.3,10.316a.084.084,0,0,1-.062.026.085.085,0,0,1-.062-.026l-3.66-3.666a.09.09,0,0,1,0-.128l.589-.59h0l5.978-5.988,3.73-3.737a.087.087,0,0,1,.124,0l3.66,3.666A.09.09,0,0,1,51.637,46.1Z" transform="translate(0 0)"/>
    <path id="Path_102036" data-name="Path 102036" d="M194.646,38.805a.832.832,0,1,0,.83.832A.832.832,0,0,0,194.646,38.805Z" transform="translate(-173.669 -29.395)"/>
    <path id="Path_102037" data-name="Path 102037" d="M456.244,380.688a.832.832,0,1,0,.83.832A.832.832,0,0,0,456.244,380.688Z" transform="translate(-408.075 -335.74)"/>
    <path id="Path_102038" data-name="Path 102038" d="M110.672,450.036a.83.83,0,1,0-.83.832A.832.832,0,0,0,110.672,450.036Z" transform="translate(-97.68 -397.134)"/>
  </g>
</svg>
