<svg xmlns="http://www.w3.org/2000/svg" width="315" height="209" viewBox="0 0 315 209">
  <g id="t2-ixx3" transform="translate(-1033 -919)">
    <rect id="Rectangle_5249" data-name="Rectangle 5249" width="315" height="209" transform="translate(1033 919)" fill="none"/>
    <path id="Path_102089" data-name="Path 102089" d="M281.323,99.021H268.369a11.915,11.915,0,0,1-11.734-12.089h0a11.916,11.916,0,0,1,11.734-12.089h8.154a5.116,5.116,0,0,0,.155-10.229h-19.46a.6.6,0,0,1-.582-.614,12.106,12.106,0,0,0-11.922-12.267H174.469a3.221,3.221,0,0,1-.118-6.441h48.967a6.395,6.395,0,0,0,.175-12.787H82.725a6.395,6.395,0,0,0-.175,12.787h24.044a7,7,0,0,1,.191,14H35.311C20.67,59.289,8.8,71.518,8.8,86.6h0a27.111,27.111,0,0,0,21.58,26.834,4,4,0,0,1,3.152,3.975v2.229a4,4,0,0,1-3.94,4.059h0c-10.772,0-19.5,9-19.5,20.1h0c0,11.1,8.733,20.094,19.5,20.094h.07a5.953,5.953,0,0,1,5.862,6.039v.015a6.2,6.2,0,0,1-5.541,6.221,6.206,6.206,0,0,0-1.436.277,15.632,15.632,0,0,0,5.025,30.254H257.9a15.535,15.535,0,0,0,15.416-14.326c.005-.072.011-.145.015-.216a7.371,7.371,0,0,1,7.23-7.053h2.78a12.744,12.744,0,0,0,12.55-12.929h0c0-5.384-4.213-9.838-9.257-11.7a7.912,7.912,0,0,1-5.2-7.421v-.373a8.561,8.561,0,0,1,6.109-8.234A23.08,23.08,0,0,0,303.8,122.18h0C303.8,109.39,293.736,99.021,281.323,99.021Z" transform="translate(1033.7 903.417)" fill="#9ddfd3"/>
    <g id="Group_57353" data-name="Group 57353" transform="translate(1093 925.482)">
      <g id="Group_57255" data-name="Group 57255" transform="translate(2.875 3.31)">
        <g id="Group_57237" data-name="Group 57237" transform="translate(125.801 55.198)">
          <g id="Group_57236" data-name="Group 57236">
            <path id="Path_101870" data-name="Path 101870" d="M386.421,174.349a7.12,7.12,0,1,1,14.24,0v70.667a22.086,22.086,0,0,1-7.568,16.641l-.612.532v19.523a5.008,5.008,0,0,1-5.008,5.008h-32.65a5.008,5.008,0,0,1-5.008-5.008V263.024l-3.918-2.815a23.013,23.013,0,0,1-9.583-18.69V211.331a7.277,7.277,0,0,1,7.258-7.277V161.86a7.12,7.12,0,0,1,14.24,0h.13v-2.474a7.239,7.239,0,0,1,7.025-7.3,7.113,7.113,0,0,1,7.215,7.119v9.989a7.12,7.12,0,1,1,14.24,0Z" transform="translate(-336.314 -152.082)" fill="#ffdfcf"/>
          </g>
        </g>
        <path id="Path_101871" data-name="Path 101871" d="M366.5,303.9V282.837A14.936,14.936,0,0,0,351.56,267.9a15.013,15.013,0,0,0-2.339.184V303.9Z" transform="translate(-218.481 -168.39)" fill="#ffcebf"/>
        <g id="Group_57242" data-name="Group 57242" transform="translate(0 55.198)">
          <g id="Group_57241" data-name="Group 57241">
            <path id="Path_101872" data-name="Path 101872" d="M350.868,312.921V347.05h-1.053v-.161l-3.918-2.815a23.013,23.013,0,0,1-9.583-18.69V295.2a7.277,7.277,0,1,1,14.554,0Z" transform="translate(-210.513 -235.947)" fill="#ffdfcf"/>
            <g id="Group_57239" data-name="Group 57239" transform="translate(0 0.403)">
              <g id="Group_57238" data-name="Group 57238">
                <path id="Path_101873" data-name="Path 101873" d="M57.622,175.4a7.12,7.12,0,1,1,14.24,0V246.07a22.085,22.085,0,0,1-7.568,16.641l-.613.532v19.523a5.008,5.008,0,0,1-5.008,5.008H26.023a5.008,5.008,0,0,1-5.008-5.008V264.078L17.1,261.263a23.012,23.012,0,0,1-9.582-18.69V212.386a7.277,7.277,0,0,1,7.258-7.277V162.914a7.12,7.12,0,0,1,14.24,0h.13V160.44a7.24,7.24,0,0,1,7.025-7.3,7.113,7.113,0,0,1,7.215,7.119v9.989a7.12,7.12,0,0,1,14.24,0Z" transform="translate(-7.515 -153.136)" fill="#ffe5c2"/>
              </g>
            </g>
            <path id="Path_101874" data-name="Path 101874" d="M42.324,305.8V283.911a14.93,14.93,0,0,0-14.408-14.924V305.8Z" transform="translate(-20.11 -224.258)" fill="#fed2a4"/>
            <path id="Path_101875" data-name="Path 101875" d="M22.069,313.956v34.129H21.015v-.161L17.1,345.109a23.012,23.012,0,0,1-9.582-18.69V296.231a7.277,7.277,0,1,1,14.554,0Z" transform="translate(-7.515 -236.586)" fill="#ffe5c2"/>
            <g id="Group_57240" data-name="Group 57240" transform="translate(125.801)">
              <path id="Path_101876" data-name="Path 101876" d="M362.1,287.06a5.008,5.008,0,0,1-5.008-5.008V265.6a4.356,4.356,0,0,0-1.814-3.538l-2.1-1.511a23.013,23.013,0,0,1-9.582-18.69V211.671a7.277,7.277,0,0,1,7.258-7.277V162.2a7.115,7.115,0,0,1,.725-3.116,7.218,7.218,0,0,0-.882-.054,7.113,7.113,0,0,0-7.12,7.12v42.195a7.277,7.277,0,0,0-7.258,7.277v30.188A23.012,23.012,0,0,0,345.9,264.5l3.918,2.815V286a5.008,5.008,0,0,0,5.008,5.008h32.65a5.008,5.008,0,0,0,4.894-3.95H362.1Z" transform="translate(-336.314 -156.371)" fill="#ffcebf"/>
              <path id="Path_101877" data-name="Path 101877" d="M400.12,154.9a7.1,7.1,0,0,1,.576-2.782,7.113,7.113,0,0,0-7.852,7.249v42.669a7.277,7.277,0,0,0,7.277-7.277Z" transform="translate(-371.214 -152.082)" fill="#ffcebf"/>
            </g>
          </g>
        </g>
        <g id="Group_57245" data-name="Group 57245" transform="translate(56.736 0.081)">
          <g id="Group_57244" data-name="Group 57244">
            <g id="Group_57243" data-name="Group 57243">
              <path id="Path_101878" data-name="Path 101878" d="M215.219,34.488a8.432,8.432,0,0,1,2.478-5.982c2.881-2.881,7.821-3.69,12.426-.031a5.393,5.393,0,0,1,2.021,4.224v85.983a21.84,21.84,0,0,1-9.774,18.2l-2.241,1.482a1.739,1.739,0,0,0-.774,1.444V193.67a4.112,4.112,0,0,1-4.112,4.112H176.336a4.491,4.491,0,0,1-4.491-4.491V139.873l-4.657-3.347a27.349,27.349,0,0,1-11.386-22.21V78.44a8.644,8.644,0,0,1,8.648-8.648V19.653a5.378,5.378,0,0,1,2.043-4.238c4.616-3.616,9.532-2.8,12.4.068a8.431,8.431,0,0,1,2.478,5.982V14.693a5.387,5.387,0,0,1,2.021-4.222c4.6-3.655,9.542-2.847,12.422.034a8.431,8.431,0,0,1,2.478,5.982V28.36a8.462,8.462,0,0,1,16.924,0Z" transform="translate(-155.801 -8.027)" fill="#eb9c8d"/>
            </g>
          </g>
        </g>
        <path id="Path_101879" data-name="Path 101879" d="M194.716,192.139V165.747A16.328,16.328,0,0,0,178.4,149.439v42.7Z" transform="translate(-113.02 -95.253)" fill="#d78878"/>
        <g id="Group_57247" data-name="Group 57247" transform="translate(50.119 61.846)">
          <g id="Group_57246" data-name="Group 57246">
            <path id="Path_101880" data-name="Path 101880" d="M138.507,227.637a7.277,7.277,0,0,0,7.277-7.277V195.39a7.085,7.085,0,0,1,.512-2.629c-.224-.021-.451-.034-.681-.034a7.113,7.113,0,0,0-7.109,6.888Z" transform="translate(-138.507 -183.825)" fill="#fed2a4"/>
            <path id="Path_101881" data-name="Path 101881" d="M173.1,199.168V239.54h-1.256l-4.657-3.347a27.347,27.347,0,0,1-11.386-22.21V178.107a8.65,8.65,0,0,1,17.3,0Z" transform="translate(-149.184 -169.459)" fill="#eb9c8d"/>
          </g>
        </g>
        <path id="Path_101882" data-name="Path 101882" d="M216.969,257.221,203.69,243.884a11.341,11.341,0,0,1,14.782-17.118l2.633,1.948a.774.774,0,0,0,.92,0l2.633-1.948a11.341,11.341,0,0,1,14.783,17.118l-13.279,13.337a6.486,6.486,0,0,1-9.193,0Z" transform="translate(-126.592 -141.62)" fill="#cc3d60"/>
        <g id="Group_57248" data-name="Group 57248" transform="translate(56.736 5.059)">
          <path id="Path_101883" data-name="Path 101883" d="M180.493,189.852V152.538a7.618,7.618,0,0,0-3.12-6.149l-1.537-1.124a28,28,0,0,1-11.386-22.606V86.144a8.866,8.866,0,0,1,2.532-6.225,8.555,8.555,0,0,1,6.116-2.577V28.153a8.658,8.658,0,0,1,2.938-6.519,8.481,8.481,0,0,0-3.625-.58,8.6,8.6,0,0,0-7.961,8.653V77.826a8.644,8.644,0,0,0-8.648,8.648v35.875a27.349,27.349,0,0,0,11.386,22.21l4.658,3.347v53.777a4.132,4.132,0,0,0,4.132,4.132H215.22a4.137,4.137,0,0,0,4.137-4.137v-3.421H188.9a8.406,8.406,0,0,1-8.407-8.406Z" transform="translate(-155.802 -21.039)" fill="#d78878"/>
        </g>
        <g id="Group_57251" data-name="Group 57251" transform="translate(82.311)">
          <g id="Group_57249" data-name="Group 57249">
            <path id="Path_101884" data-name="Path 101884" d="M222.646,71.88a8.648,8.648,0,0,0,8.648-8.648V14.93a8.66,8.66,0,0,1,2.938-6.519,8.47,8.47,0,0,0-3.5-.587,8.59,8.59,0,0,0-8.087,8.649Z" transform="translate(-222.646 -7.816)" fill="#d78878"/>
          </g>
          <g id="Group_57250" data-name="Group 57250" transform="translate(16.941 11.953)">
            <path id="Path_101885" data-name="Path 101885" d="M266.923,91.168a8.648,8.648,0,0,0,8.648-8.648V44.926a8.664,8.664,0,0,1,2.016-5.572,8.462,8.462,0,0,0-10.664,7.573Z" transform="translate(-266.923 -39.057)" fill="#d78878"/>
            <path id="Path_101886" data-name="Path 101886" d="M311.13,101.138a8.648,8.648,0,0,0,8.648-8.648V59.6a8.667,8.667,0,0,1,1.2-4.408,8.268,8.268,0,0,0-1.308-.118,8.46,8.46,0,0,0-8.536,8.007Z" transform="translate(-294.216 -48.946)" fill="#d78878"/>
          </g>
        </g>
        <path id="Path_101887" data-name="Path 101887" d="M388.07,361.767,376.9,350.544a9.543,9.543,0,0,1,12.438-14.4l2.216,1.639a.652.652,0,0,0,.775,0l2.216-1.639a9.543,9.543,0,0,1,12.438,14.4L395.8,361.767a5.457,5.457,0,0,1-7.735,0Z" transform="translate(-233.851 -209.365)" fill="#cc3d60"/>
        <g id="Group_57253" data-name="Group 57253" transform="translate(0 55.601)">
          <g id="Group_57252" data-name="Group 57252">
            <path id="Path_101888" data-name="Path 101888" d="M36.191,288.114a7.9,7.9,0,0,1-7.9-7.9V266.652a4.355,4.355,0,0,0-1.814-3.538l-2.1-1.511a23.013,23.013,0,0,1-9.582-18.69V212.725a7.277,7.277,0,0,1,7.258-7.277V163.254a7.114,7.114,0,0,1,.725-3.116,7.228,7.228,0,0,0-.882-.054,7.113,7.113,0,0,0-7.12,7.12V209.4a7.277,7.277,0,0,0-7.258,7.277v30.188a23.012,23.012,0,0,0,9.582,18.69l3.918,2.815v18.688a5.008,5.008,0,0,0,5.008,5.008h32.65a5.008,5.008,0,0,0,4.894-3.95Z" transform="translate(-7.516 -157.425)" fill="#fed2a4"/>
            <path id="Path_101889" data-name="Path 101889" d="M71.321,155.957a7.1,7.1,0,0,1,.575-2.782,7.113,7.113,0,0,0-7.852,7.249v42.669a7.277,7.277,0,0,0,7.277-7.277Z" transform="translate(-42.416 -153.137)" fill="#fed2a4"/>
            <path id="Path_101890" data-name="Path 101890" d="M101.276,219.171a7.277,7.277,0,0,0,7.277-7.277V182.03a7.076,7.076,0,0,1,.564-2.75,7.256,7.256,0,0,0-.727-.039,7.118,7.118,0,0,0-7.114,7Z" transform="translate(-65.403 -169.253)" fill="#fed2a4"/>
          </g>
          <path id="Path_101891" data-name="Path 101891" d="M58.98,361.767,47.806,350.546a9.543,9.543,0,0,1,12.438-14.4l2.215,1.639a.653.653,0,0,0,.775,0l2.215-1.639a9.543,9.543,0,0,1,12.438,14.4L66.715,361.768a5.458,5.458,0,0,1-7.735,0Z" transform="translate(-30.674 -264.966)" fill="#cc3d60"/>
        </g>
        <g id="Group_57254" data-name="Group 57254" transform="translate(161.675 65.186)">
          <path id="Path_101892" data-name="Path 101892" d="M430.074,218.118a7.277,7.277,0,0,0,7.277-7.277V180.977a7.078,7.078,0,0,1,.564-2.75,7.234,7.234,0,0,0-.727-.039,7.118,7.118,0,0,0-7.114,7Z" transform="translate(-430.074 -178.188)" fill="#ffcebf"/>
          <path id="Path_101893" data-name="Path 101893" d="M467.306,226.583a7.277,7.277,0,0,0,7.277-7.277V194.336a7.085,7.085,0,0,1,.512-2.629c-.224-.021-.451-.034-.681-.034a7.113,7.113,0,0,0-7.108,6.888Z" transform="translate(-453.061 -186.514)" fill="#ffcebf"/>
        </g>
      </g>
      <g id="Group_57256" data-name="Group 57256" transform="translate(0 0.518)">
        <path id="Path_101894" data-name="Path 101894" d="M173.77,43.834a2.873,2.873,0,0,0,2.873-2.873V16.831a5.589,5.589,0,1,1,11.178,0V66.66a2.872,2.872,0,1,0,5.745,0V11.852a5.589,5.589,0,0,1,11.178,0V66.66a2.872,2.872,0,1,0,5.745,0V23.725a5.589,5.589,0,1,1,11.178,0V66.66a2.872,2.872,0,1,0,5.745,0V29.853a5.589,5.589,0,1,1,11.178,0v8.675a2.872,2.872,0,0,0,5.745,0V29.853a11.325,11.325,0,0,0-17.448-9.537,11.323,11.323,0,0,0-16.4-6.446V11.852A11.333,11.333,0,0,0,188.683,7.52,11.325,11.325,0,0,0,170.9,16.831v24.13a2.873,2.873,0,0,0,2.872,2.873Z" transform="translate(-105.511 -0.518)"/>
        <path id="Path_101895" data-name="Path 101895" d="M332.933,127.22a2.872,2.872,0,0,0-5.745,0V190.5a18.925,18.925,0,0,1-8.487,15.809l-2.239,1.484a4.6,4.6,0,0,0-2.061,3.838V269.6a2.873,2.873,0,0,0,5.745,0V212.24l1.729-1.147a24.656,24.656,0,0,0,11.057-20.6Z" transform="translate(-194.108 -76.97)"/>
        <path id="Path_101896" data-name="Path 101896" d="M210.025,168.692a14.268,14.268,0,0,0-19.238-2.166l-1.385,1.025-1.384-1.025a14.284,14.284,0,0,0-16.683-.158V154.184a11.543,11.543,0,0,0-8.65-11.16v-9.442a2.872,2.872,0,1,0-5.745,0v9.442a11.543,11.543,0,0,0-8.65,11.16V190.06A30.294,30.294,0,0,0,160.875,214.6l3.461,2.488v56.434a2.872,2.872,0,0,0,5.745,0V215.617a2.872,2.872,0,0,0-1.2-2.332l-4.657-3.347a24.537,24.537,0,0,1-10.192-19.878V154.184a5.777,5.777,0,1,1,11.554,0v21.3a14.257,14.257,0,0,0,3.9,12.5l13.279,13.336a9.358,9.358,0,0,0,13.263,0l13.279-13.336a14.284,14.284,0,0,0,.712-19.289Zm-4.782,15.235-13.279,13.337a3.614,3.614,0,0,1-5.122,0l-13.279-13.337a8.458,8.458,0,0,1,6.015-14.433,8.422,8.422,0,0,1,5.023,1.651l2.635,1.949a3.628,3.628,0,0,0,4.335,0l2.633-1.948a8.468,8.468,0,0,1,11.038,12.782Z" transform="translate(-91.554 -80.897)"/>
        <path id="Path_101897" data-name="Path 101897" d="M356.613,425.129l-3.919-2.816a20.2,20.2,0,0,1-3.249-2.931,2.872,2.872,0,1,0-4.281,3.831,25.938,25.938,0,0,0,4.177,3.766l2.723,1.956v22.216a2.872,2.872,0,0,0,5.745,0v-23.69a2.874,2.874,0,0,0-1.2-2.332Z" transform="translate(-212.65 -258.53)"/>
        <path id="Path_101898" data-name="Path 101898" d="M419.185,159.721a9.929,9.929,0,0,0-4.9,1.289,9.984,9.984,0,0,0-13.587-5.5v-.948a9.991,9.991,0,0,0-19.045-4.224A2.872,2.872,0,0,0,379,155.359a4.215,4.215,0,0,1,1.711,3.4v41.929a2.872,2.872,0,1,0,5.745,0V154.566a4.248,4.248,0,0,1,8.5,0v46.118a2.872,2.872,0,1,0,5.745,0V164.557a4.247,4.247,0,1,1,8.495,0v36.127a2.872,2.872,0,1,0,5.745,0V169.713a4.248,4.248,0,1,1,8.5,0V240.38a19.2,19.2,0,0,1-6.584,14.476l-.612.534a2.872,2.872,0,0,0-.985,2.165v24.529a2.872,2.872,0,0,0,5.745,0V258.856a24.945,24.945,0,0,0,8.181-18.475V169.713a10,10,0,0,0-9.991-9.993Z" transform="translate(-233.281 -89.457)"/>
        <path id="Path_101899" data-name="Path 101899" d="M388.231,329.222l-.894.662-.895-.662a12.415,12.415,0,0,0-16.182,18.741l11.173,11.222a8.33,8.33,0,0,0,11.806,0l11.174-11.222a12.415,12.415,0,0,0-16.183-18.741Zm12.112,14.687-11.174,11.222a2.585,2.585,0,0,1-3.664,0h0l-11.173-11.222a6.662,6.662,0,0,1,4.738-11.368,6.632,6.632,0,0,1,3.956,1.3l2.216,1.639a3.507,3.507,0,0,0,4.191,0l2.216-1.639a6.67,6.67,0,0,1,8.695,10.068Z" transform="translate(-226.376 -201.964)"/>
        <path id="Path_101900" data-name="Path 101900" d="M18.05,392.02,14.132,389.2a20.19,20.19,0,0,1-8.387-16.356v-5.179a2.872,2.872,0,1,0-5.745,0v5.179a25.949,25.949,0,0,0,10.779,21.021l2.723,1.957v22.222a2.872,2.872,0,0,0,5.745,0V394.352A2.873,2.873,0,0,0,18.05,392.02Z" transform="translate(0 -225.42)"/>
        <path id="Path_101901" data-name="Path 101901" d="M154.62,360.517a2.872,2.872,0,0,0-2.872,2.873v20.523a19.117,19.117,0,0,1-3.639,4.265l-.612.533a2.873,2.873,0,0,0-.986,2.166v24.529a2.872,2.872,0,1,0,5.745,0V392.177a24.916,24.916,0,0,0,4.854-6.036,2.869,2.869,0,0,0,.383-1.432V363.39a2.872,2.872,0,0,0-2.872-2.873Z" transform="translate(-90.455 -222.778)"/>
        <path id="Path_101902" data-name="Path 101902" d="M35.943,216.716l-.895.662-.894-.662a12.472,12.472,0,0,0-13.853-.607V206.7a10.168,10.168,0,0,0-7.278-9.735V158.756a4.248,4.248,0,1,1,8.5,0v41.928a2.872,2.872,0,1,0,5.745,0V154.566a4.247,4.247,0,1,1,8.495,0v46.118a2.873,2.873,0,0,0,5.745,0V164.557a4.252,4.252,0,0,1,4.247-4.247,4.2,4.2,0,0,1,1.741.378,2.873,2.873,0,0,0,2.364-5.236,9.954,9.954,0,0,0-8.352.063v-.948a9.992,9.992,0,0,0-19-4.32,9.986,9.986,0,0,0-15.223,8.51v38.206A10.168,10.168,0,0,0,0,206.7v12.768a2.872,2.872,0,0,0,5.745,0V206.7a4.406,4.406,0,1,1,8.811,0v17.889a12.455,12.455,0,0,0,3.416,10.871l11.174,11.222a8.33,8.33,0,0,0,11.806,0l11.174-11.222a12.415,12.415,0,0,0-16.182-18.741ZM48.055,231.4,36.88,242.625a2.585,2.585,0,0,1-3.663,0h0L22.043,231.4a6.662,6.662,0,0,1,4.738-11.368,6.632,6.632,0,0,1,3.956,1.3l2.216,1.639a3.507,3.507,0,0,0,4.191,0l2.216-1.639A6.67,6.67,0,0,1,48.055,231.4Z" transform="translate(0 -89.457)"/>
      </g>
    </g>
  </g>
</svg>
