<svg xmlns="http://www.w3.org/2000/svg" width="142" height="142" viewBox="0 0 142 142">
  <g id="t3-i3" transform="translate(-543 -1257)">
    <rect id="Rectangle_5192" data-name="Rectangle 5192" width="142" height="142" transform="translate(543 1257)" fill="none"/>
    <g id="Group_55185" data-name="Group 55185" transform="translate(541.685 1257)">
      <g id="Group_55184" data-name="Group 55184" transform="translate(40.671 88.159)">
        <rect id="Rectangle_5224" data-name="Rectangle 5224" width="8.83" height="50.771" transform="translate(26.489)" fill="#dbf6e9"/>
        <rect id="Rectangle_5225" data-name="Rectangle 5225" width="8.83" height="50.771" transform="translate(52.979)" fill="#dbf6e9"/>
        <rect id="Rectangle_5226" data-name="Rectangle 5226" width="8.83" height="50.771" fill="#dbf6e9"/>
      </g>
      <path id="Path_100474" data-name="Path 100474" d="M79.367,279.467a50.849,50.849,0,0,1,50.77,50.771h15.452a66.222,66.222,0,1,0-132.444,0H28.6A50.849,50.849,0,0,1,79.367,279.467Z" transform="translate(-7.793 -191.308)" fill="#9ddfd3"/>
      <path id="Path_100475" data-name="Path 100475" d="M212.374,135.765h-4.415v8.83H190.3v-8.83h-8.83V146.8a8.83,8.83,0,0,0,8.83,8.83h30.9V144.595A8.83,8.83,0,0,0,212.374,135.765Z" transform="translate(-129.763 -98.377)" fill="#cc3d60"/>
      <path id="Path_100476" data-name="Path 100476" d="M192.507,151.217a6.622,6.622,0,0,1-6.622-6.622v-8.83H181.47V146.8a8.83,8.83,0,0,0,8.83,8.83h30.9v-4.415Z" transform="translate(-129.763 -98.377)" fill="#af2f4e"/>
      <rect id="Rectangle_5227" data-name="Rectangle 5227" width="6.622" height="8.83" transform="translate(60.538 37.388)" fill="#dbf6e9"/>
      <path id="Path_100477" data-name="Path 100477" d="M35.529,165.968l-3.66,2.468,4.936,7.321L22.162,185.63l-4.936-7.321L9.9,183.245l6.17,9.151a8.83,8.83,0,0,0,12.257,2.385L53.956,177.5l-6.17-9.151A8.83,8.83,0,0,0,35.529,165.968Z" transform="translate(-5.446 -119.168)" fill="#cc3d60"/>
      <path id="Path_100478" data-name="Path 100478" d="M27.491,212.945a6.622,6.622,0,0,1-9.193-1.789l-4.644-6.887L9.9,206.8l6.17,9.152a8.83,8.83,0,0,0,12.257,2.385l25.624-17.277L51.2,196.962Z" transform="translate(-5.446 -142.721)" fill="#af2f4e"/>
      <rect id="Rectangle_5228" data-name="Rectangle 5228" width="6.622" height="8.829" transform="matrix(0.829, -0.559, 0.559, 0.829, 11.779, 59.141)" fill="#dbf6e9"/>
      <path id="Path_100479" data-name="Path 100479" d="M103.755,16.161a6.608,6.608,0,0,0-2.208.378V13.953a6.438,6.438,0,1,0-12.46,2.281,4.4,4.4,0,0,0-5.2,4.341H81.68a4.415,4.415,0,0,0,0,8.83h22.074a6.622,6.622,0,1,0,0-13.244Z" transform="translate(-54.255 -5.445)" fill="#ecf0f0"/>
      <path id="Path_100480" data-name="Path 100480" d="M103.755,59.782H81.681a4.413,4.413,0,0,1-3.875-2.3,4.415,4.415,0,0,0,3.875,6.53h22.074a6.622,6.622,0,0,0,6.275-8.738A6.625,6.625,0,0,1,103.755,59.782Z" transform="translate(-54.256 -40.053)" fill="#d8e0e0"/>
      <path id="Path_100481" data-name="Path 100481" d="M408.35,136.4a6.607,6.607,0,0,0-2.208.378v-2.586a6.438,6.438,0,1,0-12.46,2.281,4.4,4.4,0,0,0-5.2,4.341h-2.208a4.415,4.415,0,0,0,0,8.83h22.075a6.622,6.622,0,1,0,0-13.244Z" transform="translate(-274.968 -92.569)" fill="#ecf0f0"/>
      <path id="Path_100482" data-name="Path 100482" d="M408.35,180.017H386.276a4.413,4.413,0,0,1-3.875-2.3,4.415,4.415,0,0,0,3.875,6.53H408.35a6.622,6.622,0,0,0,6.275-8.738A6.625,6.625,0,0,1,408.35,180.017Z" transform="translate(-274.968 -127.176)" fill="#d8e0e0"/>
      <path id="Path_100483" data-name="Path 100483" d="M232.134,368.72a2.07,2.07,0,0,0-2.07,2.07v35.319a2.07,2.07,0,1,0,4.139,0V370.79A2.069,2.069,0,0,0,232.134,368.72Z" transform="translate(-164.975 -267.178)"/>
      <path id="Path_100484" data-name="Path 100484" d="M138.33,267.215a2.069,2.069,0,1,0,3.65-1.95,77.15,77.15,0,0,0-136.112-.031,2.069,2.069,0,0,0,3.65,1.952q1.333-2.493,2.84-4.85l3.878,2.758A68.019,68.019,0,0,0,5.625,301.558a2.07,2.07,0,0,0,2.067,2.072h0a2.07,2.07,0,0,0,2.07-2.067,64.152,64.152,0,1,1,128.3,0,2.069,2.069,0,0,0,2.07,2.067h0a2.07,2.07,0,0,0,2.067-2.072A68.022,68.022,0,0,0,131.6,265.094l3.878-2.758Q136.986,264.708,138.33,267.215ZM75.986,233.3v-4.693a72.913,72.913,0,0,1,30.444,7.593l-2.228,4.178A67.721,67.721,0,0,0,75.986,233.3Zm-32.354,7.076L41.4,236.2a72.911,72.911,0,0,1,30.443-7.593V233.3A67.724,67.724,0,0,0,43.631,240.378ZM18.559,261.667l-3.879-2.759a72.925,72.925,0,0,1,23.072-20.76l2.23,4.181A68.9,68.9,0,0,0,18.559,261.667Zm110.715,0a68.882,68.882,0,0,0-21.423-19.337l2.23-4.182a72.917,72.917,0,0,1,23.072,20.76Z" transform="translate(-2.343 -162.63)"/>
      <path id="Path_100485" data-name="Path 100485" d="M114.578,312.611a52.965,52.965,0,0,0-52.839,52.837,2.07,2.07,0,0,0,2.066,2.073h0a2.07,2.07,0,0,0,2.07-2.066A48.714,48.714,0,0,1,81.605,329.68v35.772a2.07,2.07,0,0,0,4.139,0v-39.2a48.918,48.918,0,0,1,4.691-3.07v42.265a2.07,2.07,0,0,0,4.139,0V321.063a48.2,48.2,0,0,1,13.521-3.879v6.325a2.07,2.07,0,0,0,4.139,0v-6.7q1.166-.056,2.346-.058t2.345.058v48.644a2.07,2.07,0,0,0,4.139,0V317.184a48.222,48.222,0,0,1,13.521,3.879v44.388a2.07,2.07,0,0,0,4.139,0V323.186a48.834,48.834,0,0,1,4.691,3.069v39.2a2.07,2.07,0,0,0,4.139,0V329.68a48.716,48.716,0,0,1,15.727,35.776,2.069,2.069,0,0,0,2.07,2.066h0a2.07,2.07,0,0,0,2.066-2.073A52.967,52.967,0,0,0,114.578,312.611Z" transform="translate(-43.005 -226.521)"/>
      <path id="Path_100486" data-name="Path 100486" d="M427.654,393.044a2.07,2.07,0,0,0-.755,2.828,55.3,55.3,0,0,1,7.4,27.661,2.07,2.07,0,0,0,4.139,0,59.45,59.45,0,0,0-7.956-29.733A2.07,2.07,0,0,0,427.654,393.044Z" transform="translate(-307.401 -284.602)"/>
      <path id="Path_100487" data-name="Path 100487" d="M97.152,292.7a55.024,55.024,0,0,1,43.611,21.279,2.07,2.07,0,0,0,3.261-2.549A59.465,59.465,0,0,0,37.689,348.027a2.07,2.07,0,0,0,4.139,0A55.386,55.386,0,0,1,97.152,292.7Z" transform="translate(-25.578 -209.096)"/>
      <path id="Path_100488" data-name="Path 100488" d="M173.955,130.32v11.037a10.912,10.912,0,0,0,10.9,10.9h30.9a2.07,2.07,0,0,0,2.07-2.07V139.149a10.912,10.912,0,0,0-10.9-10.9h-4.415a2.07,2.07,0,0,0-2.07,2.07v6.76h-6.9v-6.76a2.07,2.07,0,0,0-2.07-2.07H176.024A2.069,2.069,0,0,0,173.955,130.32Zm15.452,6.76h-2.483v-4.691h2.483Zm-11.313-4.691h4.691v6.76a2.07,2.07,0,0,0,2.07,2.07h17.659a2.07,2.07,0,0,0,2.07-2.07v-6.76h2.346a6.768,6.768,0,0,1,6.76,6.76v8.968H184.854a6.768,6.768,0,0,1-6.76-6.76v-8.968Z" transform="translate(-124.318 -92.931)"/>
      <path id="Path_100489" data-name="Path 100489" d="M248.165,188.5h.276a2.07,2.07,0,0,0,0-4.139h-.276a2.07,2.07,0,0,0,0,4.139Z" transform="translate(-176.591 -133.588)"/>
      <path id="Path_100490" data-name="Path 100490" d="M272.212,188.5h.276a2.07,2.07,0,1,0,0-4.139h-.276a2.07,2.07,0,0,0,0,4.139Z" transform="translate(-194.016 -133.588)"/>
      <path id="Path_100491" data-name="Path 100491" d="M224.118,188.5h.276a2.07,2.07,0,0,0,0-4.139h-.276a2.07,2.07,0,0,0,0,4.139Z" transform="translate(-159.167 -133.588)"/>
      <path id="Path_100492" data-name="Path 100492" d="M17.967,192.922a10.838,10.838,0,0,0,6.077-1.859l25.624-17.277a2.09,2.09,0,0,0,.559-2.873l-6.17-9.151a10.912,10.912,0,0,0-15.13-2.944l-3.66,2.468a2.069,2.069,0,0,0-.559,2.873l3.779,5.605-5.72,3.856-3.779-5.605a2.069,2.069,0,0,0-2.873-.559L3.3,176.095a2.069,2.069,0,0,0-.559,2.873l6.171,9.152A10.9,10.9,0,0,0,17.967,192.922Zm-1.255-20.877,2.622,3.89-2.059,1.388-2.623-3.89Zm-5.491,3.7L15,181.352a2.093,2.093,0,0,0,2.873.559l14.642-9.872a2.09,2.09,0,0,0,.559-2.873L29.3,163.561l1.945-1.311a6.768,6.768,0,0,1,9.385,1.826l5.013,7.435L21.73,187.631a6.768,6.768,0,0,1-9.384-1.826L7.332,178.37Z" transform="translate(0 -113.734)"/>
      <path id="Path_100493" data-name="Path 100493" d="M95.643,235.085a2.06,2.06,0,0,0,1.156-.354l.229-.155a2.069,2.069,0,1,0-2.315-3.431l-.229.155a2.07,2.07,0,0,0,1.16,3.785Z" transform="translate(-66.071 -167.233)"/>
      <path id="Path_100494" data-name="Path 100494" d="M115.582,221.642a2.062,2.062,0,0,0,1.156-.354l.229-.154a2.069,2.069,0,1,0-2.315-3.431l-.229.154a2.069,2.069,0,0,0,1.16,3.785Z" transform="translate(-80.519 -157.493)"/>
      <path id="Path_100495" data-name="Path 100495" d="M75.706,248.527a2.06,2.06,0,0,0,1.156-.354l.229-.154a2.069,2.069,0,1,0-2.315-3.431l-.229.155a2.07,2.07,0,0,0,1.16,3.785Z" transform="translate(-51.625 -176.974)"/>
      <path id="Path_100496" data-name="Path 100496" d="M76.235,26.03H98.31a8.692,8.692,0,1,0,0-17.384h-.138V8.508a8.508,8.508,0,1,0-17.016,0c0,.121,0,.242.008.362a6.511,6.511,0,0,0-4.452,4.191h-.476a6.484,6.484,0,0,0,0,12.969Zm0-8.83h2.208a2.07,2.07,0,0,0,2.07-2.07,2.348,2.348,0,0,1,2.346-2.346,4.913,4.913,0,0,0,1.3.009,2.069,2.069,0,0,0,1.424-2.739,4.369,4.369,0,1,1,8.455-1.547v2.586a2.069,2.069,0,0,0,2.759,1.951A4.553,4.553,0,1,1,98.31,21.89H76.235a2.345,2.345,0,1,1,0-4.69Z" transform="translate(-48.811)"/>
      <path id="Path_100497" data-name="Path 100497" d="M380.832,146.264h22.074a8.692,8.692,0,0,0,0-17.384h-.138v-.139a8.508,8.508,0,1,0-17.015,0c0,.121,0,.242.008.362a6.511,6.511,0,0,0-4.452,4.191h-.476a6.484,6.484,0,0,0,0,12.969Zm0-8.83h2.208a2.07,2.07,0,0,0,2.07-2.07,2.348,2.348,0,0,1,2.345-2.346,4.9,4.9,0,0,0,1.261.014,2.1,2.1,0,0,0,1.459-2.744,4.369,4.369,0,1,1,8.455-1.547v2.586a2.09,2.09,0,0,0,2.759,1.951,4.553,4.553,0,1,1,1.518,8.846H380.832a2.345,2.345,0,1,1,0-4.69Z" transform="translate(-269.524 -87.123)"/>
    </g>
  </g>
</svg>
