<svg xmlns="http://www.w3.org/2000/svg" width="142" height="142" viewBox="0 0 142 142">
  <g id="t3-i5" transform="translate(-543 -2319)">
    <rect id="Rectangle_5207" data-name="Rectangle 5207" width="142" height="142" transform="translate(543 2319)" fill="none"/>
    <g id="Group_55218" data-name="Group 55218" transform="translate(527 2304)">
      <path id="Path_100527" data-name="Path 100527" d="M304.713,68.847c0,11.943-4.819,28.287-12.716,42.265-4.754,8.415-15.12,19.222-15.12,28.872H256V24C282.9,24,304.713,43.427,304.713,68.847Z" transform="translate(-170.41 -5.68)" fill="#dbf6e9"/>
      <path id="Path_100528" data-name="Path 100528" d="M256,160h20.877v27.836H256Z" transform="translate(-170.41 -102.246)" fill="#9ddfd3"/>
      <path id="Path_100529" data-name="Path 100529" d="M88,68.847c0,11.943,4.819,28.287,12.716,42.265,4.754,8.415,15.12,19.222,15.12,28.872h20.877V24C109.81,24,88,43.427,88,68.847Z" transform="translate(-51.123 -5.68)" fill="#9ddfd3"/>
      <path id="Path_100530" data-name="Path 100530" d="M216.935,433.657H178.688a4.639,4.639,0,0,1-4.639-4.639v-.163a4.373,4.373,0,0,1,4.423-4.322q.108,0,.216.008h38.246a4.373,4.373,0,0,1,4.632,4.1q.007.108.008.217v.163A4.639,4.639,0,0,1,216.935,433.657Z" transform="translate(-112.221 -290.075)" fill="#dbf6e9"/>
      <rect id="Rectangle_5229" data-name="Rectangle 5229" width="48.713" height="9.441" rx="4.721" transform="translate(61.234 143.582)" fill="#dbf6e9"/>
      <path id="Path_100531" data-name="Path 100531" d="M172.52,96.265l-1.018,4.843a27.575,27.575,0,0,0-4.415,1.19l-3.324-3.711a32.394,32.394,0,0,0-6.811,3.982l1.537,4.682a28,28,0,0,0-3.239,3.239l-4.682-1.538a32.394,32.394,0,0,0-3.982,6.811l3.711,3.325a27.541,27.541,0,0,0-1.19,4.415l-4.843,1.018a29.7,29.7,0,0,0,0,7.912l4.843,1.018a27.575,27.575,0,0,0,1.19,4.415l-3.711,3.324A32.406,32.406,0,0,0,150.568,148l4.682-1.537a28,28,0,0,0,3.239,3.239l-1.538,4.682a32.4,32.4,0,0,0,6.811,3.982l3.325-3.711a27.567,27.567,0,0,0,4.415,1.19l1.018,4.843a32.639,32.639,0,0,0,3.956.265V96A32.633,32.633,0,0,0,172.52,96.265Z" transform="translate(-90.885 -56.803)" fill="#cc3d60"/>
      <path id="Path_100532" data-name="Path 100532" d="M210.557,181.115a18.557,18.557,0,1,1,0-37.115" transform="translate(-124.967 -90.885)" fill="#f7edd3"/>
      <circle id="Ellipse_4052" data-name="Ellipse 4052" cx="4.245" cy="4.245" r="4.245" transform="translate(95.24 32.672)" fill="#cc3d60"/>
      <circle id="Ellipse_4053" data-name="Ellipse 4053" cx="4.717" cy="4.717" r="4.717" transform="translate(113.163 43.992)" fill="#cc3d60"/>
      <ellipse id="Ellipse_4054" data-name="Ellipse 4054" cx="4.245" cy="4.717" rx="4.245" ry="4.717" transform="translate(125.427 74.178)" fill="#cc3d60"/>
      <ellipse id="Ellipse_4055" data-name="Ellipse 4055" cx="4.245" cy="4.717" rx="4.245" ry="4.717" transform="translate(99.957 101.535)" fill="#cc3d60"/>
      <path id="Path_100533" data-name="Path 100533" d="M329.993,388.207,325.68,386.5a39.236,39.236,0,0,1,2.167-4.531l4.062,2.243a34.692,34.692,0,0,0-1.915,4Z" transform="translate(-219.885 -259.853)"/>
      <path id="Path_100534" data-name="Path 100534" d="M345.761,360.3l-3.894-2.519c.87-1.346,1.779-2.677,2.691-3.987l3.808,2.651c-.882,1.269-1.762,2.555-2.605,3.856Z" transform="translate(-231.379 -239.844)"/>
      <path id="Path_100535" data-name="Path 100535" d="M364.3,333.662l-3.81-2.646c.914-1.318,1.786-2.6,2.569-3.844l3.926,2.469C366.166,330.941,365.256,332.285,364.3,333.662Z" transform="translate(-244.601 -220.945)"/>
      <path id="Path_100536" data-name="Path 100536" d="M381.259,305.6l-4.091-2.188q1.087-2.036,2.085-4.125l4.186,2Q382.4,303.468,381.259,305.6Z" transform="translate(-256.444 -201.147)"/>
      <path id="Path_100537" data-name="Path 100537" d="M395.192,276.042l-4.27-1.817c.607-1.425,1.181-2.861,1.72-4.295l4.343,1.631Q396.143,273.807,395.192,276.042Z" transform="translate(-266.21 -180.301)"/>
      <path id="Path_100538" data-name="Path 100538" d="M420,182.286l-4.623-.39c.12-1.414.18-2.789.18-4.082l0-.426,4.639-.036,0,.462C420.2,179.239,420.133,180.743,420,182.286Z" transform="translate(-283.575 -114.567)"/>
      <path id="Path_100539" data-name="Path 100539" d="M413.112,148.75a40.093,40.093,0,0,0-.772-4.4l4.517-1.056a44.951,44.951,0,0,1,.863,4.9Z" transform="translate(-281.418 -90.386)"/>
      <path id="Path_100540" data-name="Path 100540" d="M403.766,117.117A40.527,40.527,0,0,0,402.035,113l4.17-2.03a44.651,44.651,0,0,1,1.93,4.594Z" transform="translate(-274.101 -67.432)"/>
      <path id="Path_100541" data-name="Path 100541" d="M388.18,88.533a42.2,42.2,0,0,0-2.594-3.647L389.219,82a46.873,46.873,0,0,1,2.882,4.055Z" transform="translate(-262.421 -46.863)"/>
      <path id="Path_100542" data-name="Path 100542" d="M367.251,64.194a43.881,43.881,0,0,0-3.306-3.033l2.956-3.575a48.643,48.643,0,0,1,3.657,3.355Z" transform="translate(-247.055 -29.528)"/>
      <path id="Path_100543" data-name="Path 100543" d="M342.081,44.927c-1.232-.829-2.529-1.613-3.854-2.329l2.206-4.082c1.456.788,2.881,1.649,4.237,2.56Z" transform="translate(-228.794 -15.987)"/>
      <path id="Path_100544" data-name="Path 100544" d="M313.86,31.225c-1.36-.578-2.782-1.1-4.227-1.561l1.4-4.422c1.582.5,3.143,1.078,4.637,1.715Z" transform="translate(-208.492 -6.562)"/>
      <path id="Path_100545" data-name="Path 100545" d="M283.688,23.278c-1.457-.324-2.954-.584-4.45-.777l.594-4.6c1.633.213,3.269.5,4.86.85Z" transform="translate(-186.91 -1.348)"/>
      <path id="Path_100546" data-name="Path 100546" d="M175.107,71.872a6.948,6.948,0,0,0-6.532,4.639H154.23V67.232h9.279a2.319,2.319,0,0,0,2.32-2.319h0V55.207a6.96,6.96,0,1,0-4.639,0v7.387H154.23V57.954a2.319,2.319,0,0,0-2.319-2.32H147.27V43.608a6.96,6.96,0,1,0-4.639,0V55.634h-9.279V18.6a2.319,2.319,0,0,0-2.319-2.32h0C102.416,16.281,80,37,80,63.447c0,12.563,4.987,29.2,13.017,43.408,1.442,2.551,3.323,5.233,5.314,8.074,4.21,6,8.9,12.751,9.406,18.626a6.593,6.593,0,0,0-2.786,5.506,6.888,6.888,0,0,0,1.535,4.306,7.151,7.151,0,0,0-2.129,5.135,6.966,6.966,0,0,0,6.959,6.959H150.75a7,7,0,0,0,6.96-7.047v-.075a6.926,6.926,0,0,0-2.135-5,7.162,7.162,0,0,0,1.541-4.445,6.652,6.652,0,0,0-6.665-6.64q-.147,0-.294.007h-16.8V88.109h4.639v6.959a2.319,2.319,0,0,0,2.319,2.32h6.96v2.747a6.959,6.959,0,1,0,4.639,0V95.068a2.319,2.319,0,0,0-2.319-2.32h-6.96V88.109h9.279a2.319,2.319,0,0,0,2.32-2.319h0V81.15h14.346a6.947,6.947,0,1,0,6.531-9.279Zm-11.6-25.516a2.32,2.32,0,1,1-2.32,2.32A2.32,2.32,0,0,1,163.508,46.355ZM102.13,112.264c-1.926-2.746-3.743-5.337-5.074-7.693C89.513,91.222,84.639,75.079,84.639,63.447c0-23.133,19.177-41.405,44.074-42.477V37.175c-.616.046-1.244.1-1.916.184a2.319,2.319,0,0,0-1.989,1.824l-.707,3.362q-.873.207-1.742.469l-2.312-2.578a2.316,2.316,0,0,0-2.637-.587,34.909,34.909,0,0,0-7.3,4.261,2.32,2.32,0,0,0-.808,2.576l1.065,3.244c-.438.412-.865.841-1.279,1.278l-3.241-1.065a2.334,2.334,0,0,0-2.576.806,34.815,34.815,0,0,0-4.264,7.3,2.318,2.318,0,0,0,.587,2.637l2.579,2.311q-.26.86-.465,1.724l-3.608.72a2.319,2.319,0,0,0-1.865,2.274v7.911A2.319,2.319,0,0,0,98.1,78.1l3.607.721q.206.863.465,1.724L99.6,82.856a2.322,2.322,0,0,0-.587,2.637,34.82,34.82,0,0,0,4.264,7.3,2.33,2.33,0,0,0,2.575.807l3.241-1.065c.415.437.841.865,1.279,1.278L109.3,97.053a2.321,2.321,0,0,0,.806,2.576,34.823,34.823,0,0,0,7.3,4.265,2.324,2.324,0,0,0,2.637-.587l2.312-2.578q.868.262,1.742.469l.706,3.359a2.319,2.319,0,0,0,1.989,1.826c.673.082,1.3.138,1.917.184v25.7H112.275c-.948-6.836-5.79-13.79-10.146-20Zm8.026-40.393a20.9,20.9,0,0,0,18.557,20.74v7.977l-.384-1.826a2.321,2.321,0,0,0-1.859-1.808,25.128,25.128,0,0,1-4.041-1.09,2.357,2.357,0,0,0-.785-.136,2.318,2.318,0,0,0-1.727.772l-2.181,2.433a30.029,30.029,0,0,1-3.492-2.05l1.007-3.065a2.322,2.322,0,0,0-.705-2.5,25.415,25.415,0,0,1-2.969-2.967,2.33,2.33,0,0,0-2.493-.7l-3.064,1.008a30.154,30.154,0,0,1-2.051-3.493l2.435-2.182a2.325,2.325,0,0,0,.635-2.512,25.264,25.264,0,0,1-1.09-4.041,2.318,2.318,0,0,0-1.829-1.862l-3.243-.648v-4.1l3.243-.648a2.32,2.32,0,0,0,1.829-1.862,25.322,25.322,0,0,1,1.089-4.044,2.321,2.321,0,0,0-.636-2.512l-2.433-2.179a30.478,30.478,0,0,1,2.05-3.493l3.065,1.008a2.331,2.331,0,0,0,2.493-.7,25.95,25.95,0,0,1,2.971-2.974,2.317,2.317,0,0,0,.7-2.49l-1.006-3.065a30.2,30.2,0,0,1,3.491-2.05l2.181,2.433a2.329,2.329,0,0,0,2.512.636,25.068,25.068,0,0,1,4.041-1.09,2.318,2.318,0,0,0,1.859-1.805l.384-1.826v7.975a20.9,20.9,0,0,0-18.557,20.74Zm18.557-16.052v32.1a16.216,16.216,0,0,1,0-32.1Zm22.037,95H111.316a2.362,2.362,0,0,1-2.322-2.4c0-.027,0-.054,0-.081a2.322,2.322,0,0,1,2.32-2.32H150.75a2.362,2.362,0,0,1,2.322,2.4c0,.027,0,.054,0,.081A2.322,2.322,0,0,1,150.75,150.822Zm-.594-13.918a2.125,2.125,0,0,1,2.311,1.921,2.2,2.2,0,0,1,.008.236,2.322,2.322,0,0,1-2.32,2.32H111.909a2.363,2.363,0,0,1-2.323-2.4c0-.027,0-.054,0-.081a2.1,2.1,0,0,1,2.184-2c.045,0,.091.005.136.01Zm-.566-32.557a2.32,2.32,0,1,1-2.32,2.32A2.32,2.32,0,0,1,149.59,104.347Zm-4.639-69.59a2.32,2.32,0,1,1-2.32,2.32A2.32,2.32,0,0,1,144.951,34.757ZM149.59,83.47H133.352v-23.2H149.59Zm25.516-2.32a2.32,2.32,0,1,1,2.32-2.32A2.32,2.32,0,0,1,175.107,81.15Z" transform="translate(-45.443 -0.2)"/>
      <g id="Group_55217" data-name="Group 55217" transform="translate(16 16)">
        <path id="Path_100547" data-name="Path 100547" d="M32,448h4.639v4.639H32Z" transform="translate(-27.361 -322.738)" fill="#cc3d60"/>
        <path id="Path_100548" data-name="Path 100548" d="M32,480h4.639v4.639H32Z" transform="translate(-27.361 -345.459)" fill="#cc3d60"/>
        <path id="Path_100549" data-name="Path 100549" d="M48,464h4.639v4.639H48Z" transform="translate(-38.721 -334.098)" fill="#cc3d60"/>
        <path id="Path_100550" data-name="Path 100550" d="M16,464h4.639v4.639H16Z" transform="translate(-16 -334.098)" fill="#cc3d60"/>
        <path id="Path_100551" data-name="Path 100551" d="M472,16h4.639v4.639H472Z" transform="translate(-339.779 -16)" fill="#cc3d60"/>
        <path id="Path_100552" data-name="Path 100552" d="M472,48h4.639v4.639H472Z" transform="translate(-339.779 -38.721)" fill="#cc3d60"/>
        <path id="Path_100553" data-name="Path 100553" d="M488,32h4.639v4.639H488Z" transform="translate(-351.139 -27.361)" fill="#cc3d60"/>
        <path id="Path_100554" data-name="Path 100554" d="M456,32h4.639v4.639H456Z" transform="translate(-328.418 -27.361)" fill="#cc3d60"/>
      </g>
    </g>
  </g>
</svg>
