<svg xmlns="http://www.w3.org/2000/svg" width="142" height="142.5" viewBox="0 0 142 142.5">
  <g id="t3-i4" transform="translate(-543 -1762)">
    <rect id="Rectangle_5198" data-name="Rectangle 5198" width="142" height="142" transform="translate(543 1762)" fill="none"/>
    <g id="Group_55215" data-name="Group 55215" transform="translate(535 1755)">
      <g id="Group_55213" data-name="Group 55213" transform="translate(10.282 10.282)">
        <g id="Group_55187" data-name="Group 55187" transform="translate(45.645 118.677)">
          <path id="Path_100498" data-name="Path 100498" d="M221.645,450.258H176A18.253,18.253,0,0,1,194.258,432h9.129A18.253,18.253,0,0,1,221.645,450.258Z" transform="translate(-176 -432)" fill="#dbf6e9"/>
        </g>
        <g id="Group_55188" data-name="Group 55188" transform="translate(0 118.677)">
          <path id="Path_100499" data-name="Path 100499" d="M61.645,450.258H16A18.234,18.234,0,0,1,34.258,432h9.129A18.253,18.253,0,0,1,61.645,450.258Z" transform="translate(-16 -432)" fill="#9ddfd3"/>
        </g>
        <g id="Group_55189" data-name="Group 55189" transform="translate(91.29 118.769)">
          <path id="Path_100500" data-name="Path 100500" d="M351.976,434.511a6.847,6.847,0,1,0,13.694,0,6.18,6.18,0,0,0-.365-2.168l.023-.023a18.28,18.28,0,0,1,16.318,18.167H336a18.28,18.28,0,0,1,16.318-18.167l.023.023A6.18,6.18,0,0,0,351.976,434.511Z" transform="translate(-336 -432.32)" fill="#9ddfd3"/>
        </g>
        <g id="Group_55190" data-name="Group 55190" transform="translate(107.266 117.377)">
          <path id="Path_100501" data-name="Path 100501" d="M405.694,431.023a6.847,6.847,0,0,1-13.694,0,6.97,6.97,0,0,1,1.027-3.583,13.668,13.668,0,0,0,11.639,0,6.971,6.971,0,0,1,1.027,3.583Z" transform="translate(-392 -427.44)" fill="#f0d0b4"/>
        </g>
        <g id="Group_55191" data-name="Group 55191" transform="translate(100.419 91.29)">
          <path id="Path_100502" data-name="Path 100502" d="M395.387,347.411v2.282a13.689,13.689,0,0,1-7.874,12.393,13.668,13.668,0,0,1-11.64,0A13.689,13.689,0,0,1,368,349.694v-2.282A11.415,11.415,0,0,1,379.411,336h4.564A11.415,11.415,0,0,1,395.387,347.411Z" transform="translate(-368 -336)" fill="#31326f"/>
        </g>
        <g id="Group_55192" data-name="Group 55192" transform="translate(54.774 91.29)">
          <path id="Path_100503" data-name="Path 100503" d="M235.387,347.411v2.282a13.694,13.694,0,1,1-27.387,0v-2.282A11.415,11.415,0,0,1,219.411,336h4.565A11.415,11.415,0,0,1,235.387,347.411Z" transform="translate(-208 -336)" fill="#31326f"/>
        </g>
        <g id="Group_55193" data-name="Group 55193" transform="translate(82.161)">
          <path id="Path_100504" data-name="Path 100504" d="M322.258,31.976l-2.214.548a9.175,9.175,0,0,0-6.915,8.581h-2.282a6.71,6.71,0,0,0-4.542,1.757l-.023-.023s-.571-1.575-1.141-3.72A29.743,29.743,0,0,1,304,31.976a8.778,8.778,0,0,1,6.641-8.513l2.488-.616A15.4,15.4,0,0,1,325.933,16h6.048a17.688,17.688,0,0,1,17.665,17.665,17.2,17.2,0,0,1-.913,5.592l-1.232,3.72a6.865,6.865,0,0,0-4.7-1.871h-2.282a4.578,4.578,0,0,0-4.564-4.565h-9.129a4.6,4.6,0,0,1-4.565-4.565Z" transform="translate(-304 -16)" fill="#31326f"/>
        </g>
        <g id="Group_55194" data-name="Group 55194" transform="translate(9.129 91.29)">
          <path id="Path_100505" data-name="Path 100505" d="M75.387,345.129v4.565a13.694,13.694,0,1,1-27.387,0V338.282A2.289,2.289,0,0,1,50.282,336H66.258A9.127,9.127,0,0,1,75.387,345.129Z" transform="translate(-48 -336)" fill="#31326f"/>
        </g>
        <g id="Group_55195" data-name="Group 55195" transform="translate(73.032 58.312)">
          <path id="Path_100506" data-name="Path 100506" d="M293,230.191l6.39,14.059H272v-7.44a16.01,16.01,0,0,1,12.849-15.679l3.7-.73Z" transform="translate(-272 -220.4)" fill="#dbf6e9"/>
        </g>
        <g id="Group_55196" data-name="Group 55196" transform="translate(109.548 58.312)">
          <path id="Path_100507" data-name="Path 100507" d="M427.387,236.809v7.44H400l6.39-14.059,4.45-9.791,3.7.73a16.005,16.005,0,0,1,12.849,15.679Z" transform="translate(-400 -220.4)" fill="#dbf6e9"/>
        </g>
        <g id="Group_55197" data-name="Group 55197" transform="translate(100.419 68.468)">
          <path id="Path_100508" data-name="Path 100508" d="M374.847,256l2.282,13.694H368L370.282,256Z" transform="translate(-368 -256)" fill="#cc3d60"/>
        </g>
        <g id="Group_55198" data-name="Group 55198" transform="translate(100.785 59.339)">
          <path id="Path_100509" data-name="Path 100509" d="M377.679,227.355l-1.917,5.774H371.2l-1.917-5.774,4.2-3.355Z" transform="translate(-369.28 -224)" fill="#cc3d60"/>
        </g>
        <g id="Group_55199" data-name="Group 55199" transform="translate(94.029 62.694)">
          <path id="Path_100510" data-name="Path 100510" d="M354.273,241.534l-2.282,13.694-6.39-14.059,6.755-5.409Z" transform="translate(-345.6 -235.76)" fill="#9ddfd3"/>
        </g>
        <g id="Group_55200" data-name="Group 55200" transform="translate(107.266 62.694)">
          <path id="Path_100511" data-name="Path 100511" d="M393.917,235.76l6.755,5.409-6.39,14.059L392,241.534Z" transform="translate(-392 -235.76)" fill="#9ddfd3"/>
        </g>
        <g id="Group_55201" data-name="Group 55201" transform="translate(89.579 54.797)">
          <path id="Path_100512" data-name="Path 100512" d="M336.3,208.08l9.106,4.542-4.2,3.355-6.755,5.409L330,211.595l1.8-.365a6.861,6.861,0,0,0,4.5-3.15Z" transform="translate(-330 -208.08)" fill="#9ddfd3"/>
        </g>
        <g id="Group_55202" data-name="Group 55202" transform="translate(104.984 54.797)">
          <path id="Path_100513" data-name="Path 100513" d="M384,212.622l9.106-4.542a6.861,6.861,0,0,0,4.5,3.15l1.8.365-4.45,9.791-6.755-5.409Z" transform="translate(-384 -208.08)" fill="#9ddfd3"/>
        </g>
        <g id="Group_55203" data-name="Group 55203" transform="translate(59.339 63.903)">
          <path id="Path_100514" data-name="Path 100514" d="M241.916,240a15.883,15.883,0,0,0-4.222,10.818v7.44h-9.129L224,240Z" transform="translate(-224 -240)" fill="#9ddfd3"/>
        </g>
        <g id="Group_55204" data-name="Group 55204" transform="translate(22.823 63.903)">
          <path id="Path_100515" data-name="Path 100515" d="M111.976,240l-4.565,18.258H96L100.565,240Z" transform="translate(-96 -240)" fill="#9ddfd3"/>
        </g>
        <g id="Group_55205" data-name="Group 55205" transform="translate(4.565 9.129)">
          <path id="Path_100516" data-name="Path 100516" d="M119.5,77.669a13.665,13.665,0,0,0,3.241,5.112A12.533,12.533,0,0,0,125.5,84.9l-.023.023-1.3,6.527a6.694,6.694,0,0,1-.867,2.214,6.861,6.861,0,0,1-4.5,3.15l-1.8.365-3.7.73a15.939,15.939,0,0,0-8.627,4.861H32V48h80.883a8.806,8.806,0,0,0-3.286,6.847,29.744,29.744,0,0,0,1.141,7.143c.571,2.145,1.141,3.72,1.141,3.72l.023.023a6.694,6.694,0,0,0-2.305,5.089,6.857,6.857,0,0,0,6.847,6.847Z" transform="translate(-32 -48)" fill="#dee4f0"/>
        </g>
        <g id="Group_55206" data-name="Group 55206" transform="translate(50.21 22.823)">
          <path id="Path_100517" data-name="Path 100517" d="M214.823,96v18.258H196.565v-9.129H192V96Z" transform="translate(-192 -96)" fill="#cc3d60"/>
        </g>
        <g id="Group_55207" data-name="Group 55207" transform="translate(27.387 31.952)">
          <path id="Path_100518" data-name="Path 100518" d="M139.387,137.129v13.694H112V137.129h9.129V128h18.258Z" transform="translate(-112 -128)" fill="#dbf6e9"/>
        </g>
        <g id="Group_55208" data-name="Group 55208" transform="translate(13.694 18.258)">
          <path id="Path_100519" data-name="Path 100519" d="M86.823,93.694v9.129H64V80H86.823Z" transform="translate(-64 -80)" fill="#cc3d60"/>
        </g>
        <g id="Group_55209" data-name="Group 55209" transform="translate(95.878 46.033)">
          <path id="Path_100520" data-name="Path 100520" d="M370.292,186.124l-9.106,4.542-9.106-4.542a6.694,6.694,0,0,0,.867-2.214l1.3-6.527.023-.023a13.569,13.569,0,0,0,13.83,0l.023.023,1.3,6.527a6.692,6.692,0,0,0,.867,2.214Z" transform="translate(-352.08 -177.36)" fill="#f0d0b4"/>
        </g>
        <g id="Group_55210" data-name="Group 55210" transform="translate(117.901 25.105)">
          <path id="Path_100521" data-name="Path 100521" d="M437.177,115.685a6.831,6.831,0,0,1-4.838,2.008H429.28a13.79,13.79,0,0,0,.776-4.565V104h2.282a6.843,6.843,0,0,1,4.838,11.685Z" transform="translate(-429.28 -104)" fill="#f0d0b4"/>
        </g>
        <g id="Group_55211" data-name="Group 55211" transform="translate(91.29 15.976)">
          <path id="Path_100522" data-name="Path 100522" d="M363.387,81.129v9.129a13.594,13.594,0,0,1-6.778,11.8,13.569,13.569,0,0,1-13.83,0,12.533,12.533,0,0,1-2.762-2.123A13.562,13.562,0,0,1,336,90.258V81.129a9.175,9.175,0,0,1,6.915-8.581L345.129,72a4.6,4.6,0,0,0,4.565,4.565h9.129a4.578,4.578,0,0,1,4.565,4.565Z" transform="translate(-336 -72)" fill="#f0d0b4"/>
        </g>
        <g id="Group_55212" data-name="Group 55212" transform="translate(82.161 25.105)">
          <path id="Path_100523" data-name="Path 100523" d="M313.129,113.129a13.791,13.791,0,0,0,.776,4.565h-3.058A6.857,6.857,0,0,1,304,110.847,6.91,6.91,0,0,1,310.847,104h2.282v9.129Z" transform="translate(-304 -104)" fill="#f0d0b4"/>
        </g>
      </g>
      <g id="Group_55214" data-name="Group 55214" transform="translate(8 8)">
        <path id="Path_100524" data-name="Path 100524" d="M134.823,67.1l-5.5-1.1a4.552,4.552,0,0,1-3.581-3.581l-1.011-5.055a16.072,16.072,0,0,0,4.952-6h1.563a9.138,9.138,0,0,0,9.129-9.129,9.029,9.029,0,0,0-1.86-5.461l.835-2.506A19.956,19.956,0,0,0,120.415,8h-6.05A17.619,17.619,0,0,0,100.2,15.121l-1.664.418A10.989,10.989,0,0,0,95,17.129H12.565V76.468H34.746L31.322,90.161H8v4.565H149.5V85a18.3,18.3,0,0,0-14.677-17.9ZM67.839,76.468l3.423,13.694H47.44l3.423-13.694Zm4.706,0H83.178A18.147,18.147,0,0,0,81.032,85v5.162H75.968ZM85.6,85A13.729,13.729,0,0,1,96.6,71.572l1.928-.386,8.625,18.975H85.6Zm21.211-17.055,4.247,2.122-5.879,4.7L103.1,70.2a9.079,9.079,0,0,0,3.711-2.253Zm9.095,8.524h-1.273l-.9-2.7,1.536-1.228,1.536,1.228Zm-5.263,2.467-.959,5.749-2.556-5.626,2.807-2.246Zm4.277,2.1h.7l1.522,9.129h-3.743Zm4.975-2.1.708-2.123,2.807,2.246-2.556,5.626Zm7.543-8.736-2.079,4.574-5.879-4.7,4.247-2.123a9.128,9.128,0,0,0,3.711,2.253Zm-6.174-6.888c.046.228.123.445.185.666l-6.18,3.092-6.183-3.09c.062-.221.139-.438.185-.666l.746-3.725a15.69,15.69,0,0,0,10.5,0Zm5.416-18.794a11.411,11.411,0,0,1-22.823,0V35.668a6.839,6.839,0,0,1,5.153-6.635,6.854,6.854,0,0,0,6.258,4.072H124.4a2.285,2.285,0,0,1,2.282,2.282Zm4.565,2.282h-.183a16.032,16.032,0,0,0,.183-2.282V37.669a4.565,4.565,0,0,1,0,9.129ZM99.64,19.964l3.341-.835.488-.733a13.071,13.071,0,0,1,10.9-5.831h6.05a15.391,15.391,0,0,1,14.6,20.257l-.324.97a9.1,9.1,0,0,0-3.451-.687h-.42A6.837,6.837,0,0,0,124.4,28.54h-9.129a2.282,2.282,0,0,1,0-4.565h2.282V19.411h-2.282a6.858,6.858,0,0,0-6.593,5l-.739.185A11.369,11.369,0,0,0,99.617,33.1H99.29a9.071,9.071,0,0,0-3.245.623,29.857,29.857,0,0,1-1.319-7.47,6.48,6.48,0,0,1,4.914-6.294ZM99.29,37.669v6.847a16.034,16.034,0,0,0,.183,2.282H99.29a4.565,4.565,0,0,1,0-9.129ZM17.129,21.694H91.184a10.986,10.986,0,0,0-1.022,4.565,38.151,38.151,0,0,0,1.988,10.359,9.033,9.033,0,0,0-1.988,5.617,9.138,9.138,0,0,0,9.129,9.129h1.563a16.072,16.072,0,0,0,4.952,6L104.8,62.416A4.555,4.555,0,0,1,101.214,66l-5.5,1.1a18.173,18.173,0,0,0-9.1,4.8H17.129ZM39.452,76.468h6.705L42.734,90.161H36.028ZM144.935,90.161h-21.56L132,71.187l1.929.386A13.73,13.73,0,0,1,144.935,85Z" transform="translate(-8 -8)"/>
        <path id="Path_100525" data-name="Path 100525" d="M119.9,76.565H92.516v9.129H83.387V72H56V99.387H69.694v13.694h31.952V99.387H119.9Zm-59.339,0H78.823V94.823H60.565Zm36.516,31.952H74.258V99.387h9.129V90.258H97.081Zm18.258-13.694H101.645V85.694H97.081V81.129h18.258Z" transform="translate(-42.306 -53.742)"/>
        <path id="Path_100526" data-name="Path 100526" d="M134.64,356.19a16.027,16.027,0,0,0,5.731-12.215v-2.282A13.707,13.707,0,0,0,126.677,328h-4.565a13.707,13.707,0,0,0-13.694,13.694v2.282a16.029,16.029,0,0,0,5.728,12.215,20.453,20.453,0,0,0-12.591,10.339,20.618,20.618,0,0,0-12.55-10.323,15.943,15.943,0,0,0,5.719-12.231v-2.282A13.707,13.707,0,0,0,81.032,328H76.468a13.707,13.707,0,0,0-13.694,13.694v2.282a15.943,15.943,0,0,0,5.719,12.231,20.608,20.608,0,0,0-12.557,10.339,20.635,20.635,0,0,0-12.559-10.352,15.941,15.941,0,0,0,5.7-12.217v-4.564A11.424,11.424,0,0,0,37.669,328H21.694a4.569,4.569,0,0,0-4.565,4.565v11.411a15.943,15.943,0,0,0,5.719,12.231A20.564,20.564,0,0,0,8,375.927v2.282H149.5v-2.282A20.479,20.479,0,0,0,134.64,356.19Zm-5.681,3.761a4.565,4.565,0,0,1-9.129,0,4.5,4.5,0,0,1,.089-.66,15.513,15.513,0,0,0,8.951,0A4.5,4.5,0,0,1,128.96,359.952Zm-15.976-15.976v-2.282a9.138,9.138,0,0,1,9.129-9.129h4.565a9.138,9.138,0,0,1,9.129,9.129v2.282a11.411,11.411,0,0,1-22.823,0Zm-45.645,0v-2.282a9.138,9.138,0,0,1,9.129-9.129h4.565a9.138,9.138,0,0,1,9.129,9.129v2.282a11.411,11.411,0,1,1-22.823,0Zm6.847,15.976h9.129a15.989,15.989,0,0,1,15.793,13.694H58.392a15.989,15.989,0,0,1,15.793-13.694ZM21.694,343.976V332.565H37.669a6.855,6.855,0,0,1,6.847,6.847v4.564a11.411,11.411,0,1,1-22.823,0Zm-8.967,29.669A16,16,0,0,1,28.54,359.952h9.129a16,16,0,0,1,15.814,13.694Zm91.306,0a15.914,15.914,0,0,1,11.3-13.05,9.084,9.084,0,0,0,18.128,0,15.921,15.921,0,0,1,11.315,13.045Z" transform="translate(-8 -236.71)"/>
      </g>
    </g>
  </g>
</svg>
