<svg xmlns="http://www.w3.org/2000/svg" width="400" height="210" viewBox="0 0 400 210">
  <g id="t3-i1" transform="translate(-1020 -398)">
    <rect id="Rectangle_5159" data-name="Rectangle 5159" width="400" height="210" transform="translate(1020 398)" fill="none"/>
    <path id="Path_101756" data-name="Path 101756" d="M303.817,98.949H289.794c-7.015,0-12.7-5.406-12.7-12.075h0c0-6.669,5.687-12.076,12.7-12.076h8.827a5.413,5.413,0,0,0,5.484-4.351,5.2,5.2,0,0,0-5.317-5.868H277.723a.62.62,0,0,1-.631-.614c-.009-6.769-5.784-12.254-12.906-12.254H208.143a3.437,3.437,0,0,1-3.441-2.552,3.269,3.269,0,0,1,3.313-3.882h43.008a6.757,6.757,0,0,0,6.82-5.339,6.5,6.5,0,0,0-6.63-7.434H68.827a6.757,6.757,0,0,0-6.82,5.338,6.5,6.5,0,0,0,6.63,7.435h36.029a7.4,7.4,0,0,1,7.465,5.844,7.117,7.117,0,0,1-7.258,8.139H37.5c-15.85,0-28.7,12.215-28.7,27.283h0c0,13.333,10.062,24.426,23.361,26.8a4.08,4.08,0,0,1,3.412,3.971v2.226a4.164,4.164,0,0,1-4.265,4.054h0c-11.661,0-21.115,8.987-21.115,20.073h0c0,11.086,9.454,20.072,21.115,20.072h.076a6.2,6.2,0,0,1,6.346,6.033v.015a6.4,6.4,0,0,1-6,6.214,7.216,7.216,0,0,0-1.555.276A15.761,15.761,0,0,0,19.263,189.75c-.7,9.136,6.893,16.754,16.354,16.754H278.464c8.6,0,16-6.162,16.688-14.311.005-.072.012-.144.016-.216A7.714,7.714,0,0,1,303,184.932H306c7.5,0,13.585-5.783,13.585-12.915h0c0-5.378-4.561-9.827-10.021-11.69a7.963,7.963,0,0,1-5.625-7.413v-.373a8.67,8.67,0,0,1,6.613-8.225c10.16-2.779,17.592-11.681,17.592-22.233h0C328.149,109.305,317.255,98.949,303.817,98.949Z" transform="translate(1051.2 365.496)" fill="#9ddfd3"/>
    <g id="Group_57218" data-name="Group 57218" transform="translate(1112.113 398.001)">
      <g id="Group_57216" data-name="Group 57216" transform="translate(7.963 19.505)">
        <g id="Group_57214" data-name="Group 57214" transform="translate(29.826 46.333)">
          <path id="Path_101777" data-name="Path 101777" d="M214.889,368.247h.08a12.5,12.5,0,0,0,0-25c-.09,0-.18,0-.269,0H100.251c-.09,0-.18,0-.269,0a12.5,12.5,0,0,0,0,25h.08" transform="translate(-86.508 -268.299)" fill="#f1b986"/>
          <path id="Path_101778" data-name="Path 101778" d="M229.924,259.868a563.885,563.885,0,0,0-109.077,0,386.651,386.651,0,0,0-2.493,67.82,32,32,0,0,0,30.472,30.332q26.56,1.254,53.119,0a32,32,0,0,0,30.472-30.332A386.69,386.69,0,0,0,229.924,259.868Z" transform="translate(-104.418 -217.561)" fill="#f1d0a5"/>
          <path id="Path_101779" data-name="Path 101779" d="M120.853,259.863q27.265-2.644,54.54-2.641a145.227,145.227,0,0,0-27.614,2.668q-2.148,34.237-1.264,68.469c.385,15.02,5.874,27.267,13.078,30.061q-5.378-.146-10.762-.4a32,32,0,0,1-30.473-30.332,387.169,387.169,0,0,1,2.495-67.823Z" transform="translate(-104.422 -217.559)" fill="#f1b986"/>
          <path id="Path_101780" data-name="Path 101780" d="M186.358,221.627c-20.9,8.073-50.584,4.513-65.545-10.448,0,0-3.553,24.291-21.959,24.291l-8.026,2.7c-21.437-84.147,24.287-61.663,24.287-61.663,4.317-8.366,10.6-11.829,17.174-12.664.578-.071,1.157-.125,1.739-.161.046,0,.093,0,.139-.007a38.125,38.125,0,0,1,13.476,2.032c1.449.468,2.839.982,4.138,1.514a63.36,63.36,0,0,1,9.84,5.056l.157.107c4.706-6.227,9.194-11.861,14.129-11.861a5.146,5.146,0,0,1,4.363,2.014c3.56,4.667.636,15.889.4,16.77l-.011.039c0-.007.007-.021.014-.039l.025-.064c.632-1.593,7.7-18.72,20.38-18.72a9.907,9.907,0,0,1,2.157.218c9.452,2.089,2.053,18.62,1.239,20.37l-.021.05c-.021.043-.036.075-.043.089.4-.514,16.232-20.609,23.266-11.39a.037.037,0,0,0,.007.011C234.778,179.219,207.246,213.557,186.358,221.627Z" transform="translate(-85.107 -160.52)" fill="#ffd566"/>
          <g id="Group_57213" data-name="Group 57213">
            <path id="Path_101781" data-name="Path 101781" d="M399.229,179.81h0c-3.556-3.553-15.874,13.219-23.273,11.4l.054-.1c-.021.043-.036.075-.043.089C376.367,190.686,392.2,170.591,399.229,179.81Z" transform="translate(-256.659 -170.473)" fill="#ffc93c"/>
            <path id="Path_101782" data-name="Path 101782" d="M340.638,160.738c-5.343-1.213-10.294,8.956-13.093,16.174a5.979,5.979,0,0,1-8.726,2.919l-.764-.474.007-.014.011-.039h0l.025-.064c.632-1.593,7.7-18.72,20.38-18.72A9.93,9.93,0,0,1,340.638,160.738Z" transform="translate(-222.509 -160.52)" fill="#ffc93c"/>
            <path id="Path_101783" data-name="Path 101783" d="M132.286,168.617c-15.289,2.7-21.066,37.748-11.476,47.338,0,0-3.553,24.291-21.959,24.291l-8.026,2.7c-21.437-84.147,24.287-61.663,24.287-61.663,4.317-8.366,10.6-11.829,17.174-12.665Z" transform="translate(-85.105 -165.296)" fill="#ffc93c"/>
            <path id="Path_101784" data-name="Path 101784" d="M267.824,162.534c-5.373-5.373-8.955,22.184-21.052,26.6s-13.229-1.228-13.229-1.228v0c5.955-2.2,10.983-9.166,15.785-15.522l0,0c.146-.2.293-.389.439-.582.182-.247.371-.493.557-.735,4.349-5.681,8.548-10.544,13.133-10.544a5.147,5.147,0,0,1,4.363,2.014Z" transform="translate(-172.66 -160.52)" fill="#ffc93c"/>
          </g>
        </g>
        <circle id="Ellipse_4066" data-name="Ellipse 4066" cx="15.229" cy="15.229" r="15.229" transform="translate(162.415)" fill="#31326f"/>
        <path id="Path_101785" data-name="Path 101785" d="M437.171,72.08a15.229,15.229,0,1,1-20.488-20.488A15.235,15.235,0,0,0,437.171,72.08Z" transform="translate(-245.954 -49.937)" fill="#21214a"/>
        <g id="Group_57215" data-name="Group 57215" transform="translate(0 27.544)">
          <circle id="Ellipse_4067" data-name="Ellipse 4067" cx="17.488" cy="17.488" r="17.488" fill="#f6f1f1"/>
        </g>
      </g>
      <g id="Group_57217" data-name="Group 57217" transform="translate(4.887 -0.001)">
        <path id="Path_101786" data-name="Path 101786" d="M236.888,420.371a16.1,16.1,0,0,0,14.474-9.153,3.076,3.076,0,1,0-5.558-2.638,9.867,9.867,0,0,1-17.831,0,3.076,3.076,0,1,0-5.558,2.638A16.1,16.1,0,0,0,236.888,420.371Z" transform="translate(-133.019 -239.961)"/>
        <path id="Path_101787" data-name="Path 101787" d="M190.973,351.915c0-4.261-2.327-7.729-5.187-7.729s-5.186,3.467-5.186,7.729,2.326,7.729,5.186,7.729S190.973,356.176,190.973,351.915Z" transform="translate(-108.53 -203.016)"/>
        <path id="Path_101788" data-name="Path 101788" d="M320.743,351.915c0-4.261-2.327-7.729-5.187-7.729s-5.186,3.467-5.186,7.729,2.326,7.729,5.186,7.729S320.743,356.176,320.743,351.915Z" transform="translate(-185.074 -203.016)"/>
        <path id="Path_101789" data-name="Path 101789" d="M218.671,159.946c-3.5-.035-7.553,1.9-12.1,5.708.382-3.533-.1-6.391-1.446-8.531-1.175-1.869-3.59-4.1-8.414-4.1-6.974,0-12.376,4.178-16.215,8.795a12,12,0,0,0-2.139-5.562,8.221,8.221,0,0,0-6.818-3.232c-5.722,0-10.3,4.946-14.893,10.871a69.094,69.094,0,0,0-8.065-3.944c-1.439-.589-2.906-1.126-4.362-1.6a40.878,40.878,0,0,0-14.581-2.175l-.063,0-.1,0c-.641.039-1.289.1-1.938.18-7.741.984-13.827,4.966-18.125,11.849-4.808-1.714-15.04-4.175-22.82,2.137-10.506,8.525-11.7,29.507-3.554,62.361A15.562,15.562,0,0,0,91.3,258.846q.119,3.78.308,7.542a34.846,34.846,0,0,0,3.854,14.292,3.076,3.076,0,0,0,5.467-2.824,28.727,28.727,0,0,1-3.176-11.785c-.547-10.632-.639-21.429-.286-32.138,7.387-.972,13.442-5.622,17.631-13.6a44.321,44.321,0,0,0,3.173-7.9c7.339,5.664,17.176,9.594,28.277,11.228,12.734,1.874,25.717.6,36.554-3.588,6.9-2.666,14.244-7.818,20.931-13.969a384.713,384.713,0,0,1,1.641,59.962,28.842,28.842,0,0,1-27.548,27.416c-17.528.829-35.3.829-52.83,0a28.7,28.7,0,0,1-17.474-6.925,3.076,3.076,0,0,0-4,4.672,34.8,34.8,0,0,0,21.187,8.4c8.861.419,17.782.628,26.706.628s17.846-.209,26.7-.628a34.975,34.975,0,0,0,33.4-33.247q.193-3.765.308-7.54a15.574,15.574,0,0,0-.238-30.64q-.652-13.84-2.283-27.61c8.451-8.974,15.1-19.007,17.181-26.369,1.273-4.507.927-8.092-1.029-10.655a8.727,8.727,0,0,0-7.082-3.626ZM84.794,243.55a9.442,9.442,0,0,1,6.49-8.957c-.183,5.944-.228,11.911-.139,17.863a9.437,9.437,0,0,1-6.351-8.906Zm133.832,0a9.437,9.437,0,0,1-6.355,8.907q.134-8.92-.142-17.866A9.441,9.441,0,0,1,218.626,243.55Zm2.237-70.994c-3.567,12.634-23.987,35.6-39.982,41.782-9.72,3.755-21.911,4.936-33.441,3.24-11.964-1.76-22.2-6.375-28.817-12.994a3.078,3.078,0,0,0-5.218,1.726,39.826,39.826,0,0,1-3.827,11.3c-3.647,6.866-8.711,10.353-15.052,10.367l-.308,0a15.482,15.482,0,0,0-5.739,1.1c-8.629-36.05-3.771-49.24,1.972-53.921,7.228-5.891,18.835-.357,18.945-.3a3.077,3.077,0,0,0,4.091-1.35c3.4-6.581,8.246-10.186,14.817-11.022.5-.061,1-.108,1.5-.14.067,0,.133-.006.2-.011a34.858,34.858,0,0,1,12.336,1.889c1.3.421,2.623.9,3.919,1.434a62.64,62.64,0,0,1,6.64,3.193c-3.942,5.184-8.017,10.165-12.339,11.761a3.076,3.076,0,0,0,2.132,5.772c6.509-2.4,11.571-9.116,16.465-15.607,4.3-5.7,8.738-11.588,12.39-11.588a2.114,2.114,0,0,1,1.92.8c1.905,2.5,1.068,9.773-.135,14.136a3.076,3.076,0,0,0,5.841,1.914c.064-.169,6.549-16.852,17.546-16.852,2.437,0,2.995.886,3.2,1.219,1.8,2.853-.47,10.553-2.652,15.108a3.076,3.076,0,0,0,5.2,3.224c3.212-4.125,11.381-12.629,16.157-12.629h.02a2.587,2.587,0,0,1,2.223,1.206c.686.9.686,2.814,0,5.25Z" transform="translate(-47.84 -90.26)"/>
        <path id="Path_101790" data-name="Path 101790" d="M61.827,25.892h8.065l5.8,21.549A3.076,3.076,0,0,0,78.6,49.717h.062A3.077,3.077,0,0,0,81.6,47.56L94.555,6.153h18.378a3.076,3.076,0,0,0,0-6.152H92.294a3.077,3.077,0,0,0-2.936,2.157L78.886,35.631,75.22,22.016a3.076,3.076,0,0,0-2.97-2.276H61.827a3.076,3.076,0,1,0,0,6.152Z" transform="translate(-36.658 0)" fill="#f24872"/>
        <path id="Path_101791" data-name="Path 101791" d="M155.11,57.9c-5.156,7.368-8.234,11.4-9.888,13.563-2.02,2.645-2.776,3.635-2.239,5.379a3.233,3.233,0,0,0,2.1,2.127c.417.139.872.291,7.088.291,2.469,0,5.846-.024,10.49-.082a3.077,3.077,0,0,0-.038-6.153h-.039c-3.772.047-7.789.073-10.881.075,1.834-2.432,4.559-6.12,8.445-11.672a24.11,24.11,0,0,0,3.933-8.127,3.063,3.063,0,0,0,.055-.3l.161-1.258a3.112,3.112,0,0,0,.025-.391,11.4,11.4,0,0,0-22.576-2.205,3.076,3.076,0,1,0,6.037,1.186,5.244,5.244,0,0,1,10.384.846l-.112.876A18.535,18.535,0,0,1,155.11,57.9Z" transform="translate(-85.579 -23.564)" fill="#f24872"/>
        <path id="Path_101792" data-name="Path 101792" d="M427.224,43.031c9.085-11.573,8.1-15.3,6.154-17.243s-5.674-2.934-17.248,6.153a18.267,18.267,0,0,0-7.324-1.028,3.076,3.076,0,1,0,.4,6.14,12.12,12.12,0,0,1,10.742,5.17c-2.418,2.862-5.191,5.871-8.119,8.8s-5.938,5.7-8.8,8.119a12.142,12.142,0,0,1-2.4-17.726,3.076,3.076,0,0,0-4.728-3.937,18.191,18.191,0,0,0-3.176,17.871c-9.067,11.556-8.077,15.282-6.135,17.225a4.236,4.236,0,0,0,3.181,1.3c2.577,0,6.758-1.721,14.065-7.46a18.3,18.3,0,0,0,23.385-23.385Zm.283-11.375a45.1,45.1,0,0,1-3.628,5.612c-.3-.353-.616-.7-.951-1.035s-.68-.645-1.034-.948A45.11,45.11,0,0,1,427.508,31.656ZM392.461,66.7a45.023,45.023,0,0,1,3.628-5.613c.3.352.616.7.95,1.031s.682.648,1.035.951A45.167,45.167,0,0,1,392.461,66.7Zm26.116-8.932a12.116,12.116,0,0,1-8.686,3.552c2.089-1.869,4.209-3.873,6.287-5.951s4.082-4.2,5.951-6.287A12.115,12.115,0,0,1,418.577,57.77Z" transform="translate(-229.265 -14.442)"/>
        <path id="Path_101793" data-name="Path 101793" d="M225.631,47.547a3.077,3.077,0,0,0,3.97-1.78l2.427-6.373h16.28l2.4,6.364a3.076,3.076,0,1,0,5.756-2.172l-12.66-33.546c-.01-.028-.022-.056-.033-.084a3.833,3.833,0,0,0-3.558-2.383h0a3.835,3.835,0,0,0-3.557,2.392l-.027.068L223.851,43.578a3.076,3.076,0,0,0,1.78,3.969Zm14.574-29.624,5.781,15.319H234.371Z" transform="translate(-133.922 -4.467)"/>
        <path id="Path_101794" data-name="Path 101794" d="M15.813,24.757a3.077,3.077,0,0,0,4.351,0l1.481-1.481,1.481,1.481a3.077,3.077,0,1,0,4.351-4.351L26,18.926l1.481-1.481a3.076,3.076,0,0,0-4.351-4.35l-1.481,1.481L20.164,13.1a3.076,3.076,0,1,0-4.351,4.35l1.481,1.481-1.481,1.481A3.076,3.076,0,0,0,15.813,24.757Z" transform="translate(-10.8 -7.192)" fill="#ffd566"/>
        <path id="Path_101795" data-name="Path 101795" d="M484.745,145.013a3.076,3.076,0,0,0-4.35,0l-1.481,1.481-1.481-1.481a3.076,3.076,0,1,0-4.35,4.351l1.481,1.481-1.481,1.481a3.076,3.076,0,1,0,4.35,4.351l1.481-1.481,1.481,1.481a3.076,3.076,0,1,0,4.35-4.351l-1.481-1.481,1.481-1.481A3.077,3.077,0,0,0,484.745,145.013Z" transform="translate(-280.518 -85.004)" fill="#c8ea73"/>
        <path id="Path_101796" data-name="Path 101796" d="M320.245,117.97a3.076,3.076,0,0,0,4.351,0l1.481-1.481,1.481,1.481a3.076,3.076,0,1,0,4.35-4.351l-1.481-1.481,1.481-1.481a3.076,3.076,0,1,0-4.35-4.351l-1.481,1.481-1.481-1.481a3.076,3.076,0,1,0-4.35,4.351l1.481,1.481-1.481,1.481a3.076,3.076,0,0,0,0,4.351Z" transform="translate(-190.368 -62.173)"/>
        <path id="Path_101797" data-name="Path 101797" d="M34.544,294.755h-5.93v-5.931a3.076,3.076,0,0,0-6.153,0v5.931h-5.93a3.076,3.076,0,0,0,0,6.152h5.93v5.93a3.076,3.076,0,0,0,6.153,0v-5.93h5.93a3.076,3.076,0,0,0,0-6.152Z" transform="translate(-9.941 -168.546)" fill="#c8ea73"/>
        <path id="Path_101798" data-name="Path 101798" d="M25.451,148.345A20.564,20.564,0,1,0,4.887,127.781,20.587,20.587,0,0,0,25.451,148.345Zm0-34.976a14.411,14.411,0,1,1-14.412,14.412A14.428,14.428,0,0,1,25.451,113.369Z" transform="translate(-4.887 -63.241)"/>
        <path id="Path_101799" data-name="Path 101799" d="M50.6,143.353h4.6a3.076,3.076,0,0,0,0-6.152H53.676v-5.722a3.076,3.076,0,0,0-6.152,0v8.8A3.077,3.077,0,0,0,50.6,143.353Z" transform="translate(-30.036 -75.737)"/>
        <path id="Path_101800" data-name="Path 101800" d="M348.63,20.961h6.384l-5,10.4a3.076,3.076,0,1,0,5.545,2.666l7.12-14.809a3.077,3.077,0,0,0-2.773-4.41h-6.384l5-10.4a3.076,3.076,0,0,0-5.545-2.666l-7.119,14.809a3.077,3.077,0,0,0,2.773,4.41Z" transform="translate(-205.827 0.001)" fill="#ecf4ff"/>
        <path id="Path_101801" data-name="Path 101801" d="M467,227.995a10.035,10.035,0,0,0-8.052-16.03h-8.791a3.076,3.076,0,0,0-3.076,3.076V245.3a3.076,3.076,0,0,0,3.076,3.077h.014s8.084-.036,10.313-.036A11.217,11.217,0,0,0,467,227.995Zm-8.051-9.877a3.887,3.887,0,0,1,0,7.775c-.649,0-1.874,0-3.207.008h-2.508v-7.783Zm1.535,24.074c-1.324,0-4.71.013-7.25.023V232.063l2.528-.009h4.722a5.069,5.069,0,1,1,0,10.139Z" transform="translate(-265.709 -125.026)"/>
      </g>
    </g>
  </g>
</svg>
