<svg xmlns="http://www.w3.org/2000/svg" width="142" height="142" viewBox="0 0 142 142">
  <g id="t3-i6" transform="translate(-543 -1597)">
    <rect id="Rectangle_5217" data-name="Rectangle 5217" width="142" height="142" transform="translate(543 1597)" fill="none"/>
    <g id="Group_57530" data-name="Group 57530" transform="translate(2495.179 1632.683)">
      <path id="Path_102269" data-name="Path 102269" d="M-1903.026,50.95l-3.718-5.271a3.8,3.8,0,0,0-2.976-1.543h-3.2a17.573,17.573,0,0,0-17.228-14.23,2.056,2.056,0,0,0-2.056,2.056,2.056,2.056,0,0,0,2.056,2.056,13.449,13.449,0,0,1,13.434,13.434,13.449,13.449,0,0,1-13.434,13.434,13.449,13.449,0,0,1-13.434-13.434,13.478,13.478,0,0,1,4.31-9.861,2.056,2.056,0,0,0,.112-2.906,2.056,2.056,0,0,0-2.906-.112,17.6,17.6,0,0,0-5.628,12.878A17.566,17.566,0,0,0-1930.144,65a17.566,17.566,0,0,0,17.526-16.75h2.656l3.286,4.659A6.572,6.572,0,0,1-1903.026,50.95Z" transform="translate(-3.258 -43.255)" fill="#9ddfd3"/>
      <g id="Group_57498" data-name="Group 57498" transform="translate(-1943.844 -4.152)">
        <path id="Path_102270" data-name="Path 102270" d="M-1911.331,82.362a10.453,10.453,0,0,1-10.441-10.441,10.335,10.335,0,0,1,3.35-7.664,1.835,1.835,0,0,1,2.593.1,1.835,1.835,0,0,1-.1,2.593,6.705,6.705,0,0,0-2.173,4.971,6.779,6.779,0,0,0,6.772,6.772,6.779,6.779,0,0,0,6.772-6.772,6.757,6.757,0,0,0-2.464-5.22,1.835,1.835,0,0,1-.245-2.583,1.835,1.835,0,0,1,2.583-.245,10.414,10.414,0,0,1,3.8,8.048A10.454,10.454,0,0,1-1911.331,82.362Z" transform="translate(1921.772 -63.453)" fill="#9ddfd3"/>
        <path id="Path_102271" data-name="Path 102271" d="M-1895.091,87.247a4.313,4.313,0,0,1-4.308-4.308,1.512,1.512,0,0,1,1.513-1.512,1.512,1.512,0,0,1,1.513,1.512,1.284,1.284,0,0,0,1.282,1.283,1.284,1.284,0,0,0,1.283-1.283,1.284,1.284,0,0,0-1.283-1.283,1.513,1.513,0,0,1-1.512-1.513,1.513,1.513,0,0,1,1.512-1.513,4.313,4.313,0,0,1,4.308,4.308A4.313,4.313,0,0,1-1895.091,87.247Z" transform="translate(1905.532 -74.47)" fill="#9ddfd3"/>
      </g>
      <g id="Group_57499" data-name="Group 57499" transform="translate(-1951.634 -14.033)">
        <path id="Path_102272" data-name="Path 102272" d="M-1931.959,63.869a18.252,18.252,0,0,1-18.231-18.231,18.29,18.29,0,0,1,5.848-13.381,2.722,2.722,0,0,1,1.968-.728,2.725,2.725,0,0,1,1.906.877,2.744,2.744,0,0,1-.15,3.874,12.792,12.792,0,0,0-4.09,9.357,12.763,12.763,0,0,0,12.748,12.748,12.763,12.763,0,0,0,12.749-12.748,12.763,12.763,0,0,0-12.749-12.749,2.744,2.744,0,0,1-2.741-2.741,2.744,2.744,0,0,1,2.741-2.741,18.253,18.253,0,0,1,17.785,14.23h2.64A4.513,4.513,0,0,1-1908,43.47l4.343,6.157-1.069.184a5.846,5.846,0,0,0-3.271,1.754l-.575.606-3.563-5.052h-1.657A18.192,18.192,0,0,1-1931.959,63.869ZM-1942.481,32.9a1.359,1.359,0,0,0-.93.365,16.913,16.913,0,0,0-5.409,12.375,16.88,16.88,0,0,0,16.86,16.86,16.825,16.825,0,0,0,16.841-16.1l.029-.655h3.666l3.036,4.3a7.177,7.177,0,0,1,2.409-1.341l-3.141-4.453a3.128,3.128,0,0,0-2.416-1.252h-3.763l-.107-.556a16.878,16.878,0,0,0-16.555-13.674,1.372,1.372,0,0,0-1.371,1.371,1.372,1.372,0,0,0,1.371,1.371,14.135,14.135,0,0,1,14.119,14.119,14.135,14.135,0,0,1-14.119,14.119,14.135,14.135,0,0,1-14.119-14.119,14.166,14.166,0,0,1,4.53-10.363,1.372,1.372,0,0,0,.075-1.937,1.362,1.362,0,0,0-.953-.439Z" transform="translate(1950.19 -27.407)"/>
      </g>
      <g id="Group_57502" data-name="Group 57502" transform="translate(-1944.529 -4.837)">
        <g id="Group_57500" data-name="Group 57500">
          <path id="Path_102273" data-name="Path 102273" d="M-1913.146,81.233a11.139,11.139,0,0,1-11.126-11.126,11.014,11.014,0,0,1,3.57-8.167,2.52,2.52,0,0,1,1.809-.669,2.5,2.5,0,0,1,1.752.806,2.523,2.523,0,0,1-.138,3.561,6.027,6.027,0,0,0-1.953,4.468,6.093,6.093,0,0,0,6.086,6.087,6.094,6.094,0,0,0,6.087-6.087,6.074,6.074,0,0,0-2.215-4.692,2.5,2.5,0,0,1-.9-1.7,2.5,2.5,0,0,1,.567-1.844,2.5,2.5,0,0,1,1.7-.9,2.505,2.505,0,0,1,1.844.567,11.1,11.1,0,0,1,4.044,8.576A11.14,11.14,0,0,1-1913.146,81.233Zm-5.846-18.593a1.141,1.141,0,0,0-.78.306,9.656,9.656,0,0,0-3.13,7.161,9.767,9.767,0,0,0,9.755,9.756,9.768,9.768,0,0,0,9.756-9.756,9.73,9.73,0,0,0-3.547-7.519,1.134,1.134,0,0,0-.841-.259,1.14,1.14,0,0,0-.777.411,1.143,1.143,0,0,0-.259.841,1.143,1.143,0,0,0,.412.777,7.44,7.44,0,0,1,2.713,5.748,7.466,7.466,0,0,1-7.458,7.457,7.465,7.465,0,0,1-7.457-7.457,7.383,7.383,0,0,1,2.393-5.474,1.151,1.151,0,0,0,.063-1.624,1.142,1.142,0,0,0-.8-.368Z" transform="translate(1924.272 -60.953)"/>
        </g>
        <g id="Group_57501" data-name="Group 57501" transform="translate(6.133 4.161)">
          <path id="Path_102274" data-name="Path 102274" d="M-1896.905,86.118a5,5,0,0,1-4.993-4.993,2.2,2.2,0,0,1,2.2-2.2,2.185,2.185,0,0,1,.718.12,2.194,2.194,0,0,1-.12-.718,2.2,2.2,0,0,1,2.2-2.2,5,5,0,0,1,4.993,4.993A5,5,0,0,1-1896.905,86.118Zm-2.8-5.82a.828.828,0,0,0-.827.827,3.626,3.626,0,0,0,3.622,3.623,3.627,3.627,0,0,0,3.623-3.623,3.627,3.627,0,0,0-3.623-3.623.828.828,0,0,0-.827.827.828.828,0,0,0,.827.827,1.97,1.97,0,0,1,1.968,1.968,1.97,1.97,0,0,1-1.968,1.968,1.97,1.97,0,0,1-1.968-1.968A.828.828,0,0,0-1899.7,80.3Zm2.078.109a2.191,2.191,0,0,1,.12.718.6.6,0,0,0,.6.6.6.6,0,0,0,.6-.6.6.6,0,0,0-.6-.6A2.19,2.19,0,0,1-1897.623,80.407Z" transform="translate(1901.898 -76.131)"/>
        </g>
      </g>
      <g id="Group_57503" data-name="Group 57503" transform="translate(-1914.075 11.246)">
        <path id="Path_102275" data-name="Path 102275" d="M-1810.163,125.472a6.535,6.535,0,0,1-.685-2.919,6.536,6.536,0,0,1,.692-2.932,4.124,4.124,0,0,0-3.022,3.96v6.305a4.123,4.123,0,0,0,3.8,4.1,3.814,3.814,0,0,1-.783-2.314Z" transform="translate(1813.179 -119.621)" fill="#445ea0"/>
        <path id="Path_102276" data-name="Path 102276" d="M-1586.259,119.621a6.537,6.537,0,0,1,.692,2.932,6.536,6.536,0,0,1-.685,2.919v6.2a3.814,3.814,0,0,1-.783,2.314,4.123,4.123,0,0,0,3.8-4.1v-6.305A4.124,4.124,0,0,0-1586.259,119.621Z" transform="translate(1649.029 -119.621)" fill="#445ea0"/>
      </g>
      <g id="Group_57506" data-name="Group 57506" transform="translate(-1914.76 10.175)">
        <g id="Group_57504" data-name="Group 57504" transform="translate(0)">
          <path id="Path_102277" data-name="Path 102277" d="M-1809.727,131.946l-1.52-.116a4.817,4.817,0,0,1-4.432-4.779v-6.305a4.812,4.812,0,0,1,3.525-4.62l1.485-.411-.689,1.378a5.82,5.82,0,0,0-.62,2.625,5.816,5.816,0,0,0,.614,2.614l.072.144v6.357a3.117,3.117,0,0,0,.644,1.9Zm-3.469-13.719a3.423,3.423,0,0,0-1.113,2.519v6.305a3.439,3.439,0,0,0,1.817,3.018,4.491,4.491,0,0,1-.172-1.236v-6.039a7.175,7.175,0,0,1-.685-3.076A7.242,7.242,0,0,1-1813.2,118.226Z" transform="translate(1815.679 -115.714)"/>
        </g>
        <g id="Group_57505" data-name="Group 57505" transform="translate(61.21)">
          <path id="Path_102278" data-name="Path 102278" d="M-1592.391,131.946l.922-1.214a3.119,3.119,0,0,0,.643-1.9v-6.357l.072-.144a5.817,5.817,0,0,0,.614-2.614,5.82,5.82,0,0,0-.619-2.625l-.689-1.378,1.485.411a4.812,4.812,0,0,1,3.525,4.62v6.305a4.817,4.817,0,0,1-4.432,4.779Zm2.937-9.153v6.039a4.481,4.481,0,0,1-.172,1.237,3.439,3.439,0,0,0,1.817-3.018v-6.305a3.424,3.424,0,0,0-1.113-2.519,7.25,7.25,0,0,1,.153,1.491A7.174,7.174,0,0,1-1589.454,122.793Z" transform="translate(1592.391 -115.714)"/>
        </g>
      </g>
      <g id="Group_57507" data-name="Group 57507" transform="translate(-1911.333 16.466)">
        <path id="Path_102279" data-name="Path 102279" d="M-1797.011,142.956a6.59,6.59,0,0,1-6.168-4.291v6.826a4.124,4.124,0,0,0,4.112,4.112h3.476a23.85,23.85,0,0,1-1.082-6.648Z" transform="translate(1803.179 -138.665)" fill="#2e4c89"/>
        <path id="Path_102280" data-name="Path 102280" d="M-1609.438,142.956h-.338a23.846,23.846,0,0,1-1.082,6.648h3.476a4.124,4.124,0,0,0,4.112-4.112v-6.826A6.59,6.59,0,0,1-1609.438,142.956Z" transform="translate(1663.579 -138.665)" fill="#2e4c89"/>
      </g>
      <g id="Group_57510" data-name="Group 57510" transform="translate(-1912.019 12.66)">
        <g id="Group_57508" data-name="Group 57508" transform="translate(0)">
          <path id="Path_102281" data-name="Path 102281" d="M-1796.472,140.211h-4.409a4.8,4.8,0,0,1-4.8-4.8V124.781l1.328,3.567a5.923,5.923,0,0,0,5.526,3.844h1.009l.014.671a23.173,23.173,0,0,0,1.051,6.457Zm-7.836-9.155v4.358a3.431,3.431,0,0,0,3.427,3.427h2.562a24.553,24.553,0,0,1-.83-5.284A7.3,7.3,0,0,1-1804.308,131.056Z" transform="translate(1805.679 -124.781)"/>
        </g>
        <g id="Group_57509" data-name="Group 57509" transform="translate(52.473)">
          <path id="Path_102282" data-name="Path 102282" d="M-1609.854,140.211h-4.409l.28-.89a23.2,23.2,0,0,0,1.051-6.457l.014-.671h1.008a5.924,5.924,0,0,0,5.526-3.844l1.327-3.567v10.632A4.8,4.8,0,0,1-1609.854,140.211Zm-2.561-1.371h2.561a3.43,3.43,0,0,0,3.427-3.427v-4.358a7.3,7.3,0,0,1-5.157,2.5A24.591,24.591,0,0,1-1612.415,138.84Z" transform="translate(1614.263 -124.781)"/>
        </g>
      </g>
      <path id="Path_102283" data-name="Path 102283" d="M-1780.041,30.827c2.128-10.576,11.832-16.722,23.491-16.722s21.363,6.146,23.491,16.722h.442V23.51c0-13.3-10.715-21.193-23.932-21.193s-23.933,7.893-23.933,21.193v7.317Z" transform="translate(-124.629 -23.228)" fill="#ffd566"/>
      <path id="Path_102284" data-name="Path 102284" d="M-1774.653,20.8c1.252-10.743,9.956-17.383,20.939-18.355q-1.4-.123-2.837-.125c-13.218,0-23.933,7.893-23.933,21.193v7.317h.442A19.221,19.221,0,0,1-1774.653,20.8Z" transform="translate(-124.629 -23.228)" fill="#ffc93c"/>
      <g id="Group_57511" data-name="Group 57511" transform="translate(-1905.934 -21.733)">
        <path id="Path_102285" data-name="Path 102285" d="M-1733.973,29.471h-1.937l-.133-.66c-1.963-9.757-10.867-16.062-22.685-16.062s-20.722,6.3-22.685,16.062l-.133.66h-1.938V21.332c0-12.962,10.18-22.015,24.755-22.015,6.8,0,13,2.06,17.452,5.8a20.465,20.465,0,0,1,7.3,16.213ZM-1758.728.962c-13.607,0-23.11,8.377-23.11,20.37v3.253c3.456-8.307,12.109-13.48,23.11-13.48s19.654,5.172,23.11,13.479V21.332a18.868,18.868,0,0,0-6.716-14.954C-1746.494,2.885-1752.317.962-1758.728.962Z" transform="translate(1783.483 0.683)"/>
      </g>
      <path id="Path_102286" data-name="Path 102286" d="M-1744.916,298.844v-3.459H-1758.4a1.1,1.1,0,0,1-1.1-1.1V251.832a1.954,1.954,0,0,1,1.952-1.952h12.277a5.5,5.5,0,0,0-5.127-3.564h-17.133v1.941a8.79,8.79,0,0,1-8.78,8.78,8.79,8.79,0,0,1-8.78-8.78v-1.941h-12.77v21.366a2.36,2.36,0,0,1-1.05,1.819l-8.8,5.078v24.265Z" transform="translate(-104.868 -200.34)" fill="#31326f"/>
      <path id="Path_102287" data-name="Path 102287" d="M-1802.079,337.561l-5.627,3.249v24.265h5.627Z" transform="translate(-104.868 -266.571)" fill="#21214a"/>
      <g id="Group_57512" data-name="Group 57512" transform="translate(-1913.397 45.155)">
        <path id="Path_102288" data-name="Path 102288" d="M-1746.271,297.489h-64.436V271.927l9.207-5.315a1.558,1.558,0,0,0,.639-1.106V243.317h14.415v2.764a7.967,7.967,0,0,0,7.958,7.958,7.967,7.967,0,0,0,7.958-7.958v-2.764h17.955a6.342,6.342,0,0,1,5.9,4.1l.42,1.112h-13.466a1.131,1.131,0,0,0-1.129,1.129v42.456a.275.275,0,0,0,.274.274h14.311Zm-62.792-1.645h61.147V294.03h-12.666a1.921,1.921,0,0,1-1.919-1.919V249.655a2.777,2.777,0,0,1,2.774-2.774h10.9a4.677,4.677,0,0,0-3.754-1.919h-16.31v1.119a9.614,9.614,0,0,1-9.6,9.6,9.614,9.614,0,0,1-9.6-9.6v-1.119h-11.125V265.5a3.187,3.187,0,0,1-1.461,2.531l-8.385,4.841Z" transform="translate(1810.707 -243.317)"/>
      </g>
      <path id="Path_102289" data-name="Path 102289" d="M-1717.154,234.542a23.493,23.493,0,0,1-9.055-1.8V238.4a9.054,9.054,0,0,0,9.055,9.055,9.054,9.054,0,0,0,9.055-9.055v-5.664A23.492,23.492,0,0,1-1717.154,234.542Z" transform="translate(-164.025 -190.483)" fill="#ffd4bd"/>
      <path id="Path_102290" data-name="Path 102290" d="M-1720.461,238.4v-4.095a23.4,23.4,0,0,1-5.749-1.569V238.4a9.054,9.054,0,0,0,9.055,9.055,9.032,9.032,0,0,0,2.874-.469A9.056,9.056,0,0,1-1720.461,238.4Z" transform="translate(-164.024 -190.482)" fill="#ffbf9d"/>
      <g id="Group_57513" data-name="Group 57513" transform="translate(-1891.056 41.021)">
        <path id="Path_102291" data-name="Path 102291" d="M-1719.331,245.012a9.888,9.888,0,0,1-9.877-9.877v-6.9l1.139.475a22.591,22.591,0,0,0,8.738,1.74,22.594,22.594,0,0,0,8.738-1.74l1.139-.475v6.9A9.888,9.888,0,0,1-1719.331,245.012Zm-8.232-14.34v4.463a8.241,8.241,0,0,0,8.232,8.232,8.241,8.241,0,0,0,8.232-8.232v-4.463a24.252,24.252,0,0,1-8.232,1.425A24.251,24.251,0,0,1-1727.563,230.672Z" transform="translate(1729.208 -228.238)"/>
      </g>
      <path id="Path_102292" data-name="Path 102292" d="M-1732.025,61.01C-1733.99,50.193-1743.8,43.9-1755.6,43.9s-21.609,6.294-23.573,17.111Z" transform="translate(-125.58 -53.411)" fill="#ffd4bd"/>
      <path id="Path_102293" data-name="Path 102293" d="M-1752.721,44.031c-.944-.085-1.9-.132-2.877-.132-11.8,0-21.609,6.294-23.573,17.111h5.755C-1771.615,51.086-1763.21,44.973-1752.721,44.031Z" transform="translate(-125.58 -53.411)" fill="#ffbf9d"/>
      <path id="Path_102294" data-name="Path 102294" d="M-1780.459,154.317a24,24,0,0,0,23.926,23.575,24,24,0,0,0,23.926-23.575Z" transform="translate(-124.646 -133.56)" fill="#ffd4bd"/>
      <path id="Path_102295" data-name="Path 102295" d="M-1774.78,154.317h-5.68a24,24,0,0,0,23.926,23.575,23.972,23.972,0,0,0,2.84-.175A24.024,24.024,0,0,1-1774.78,154.317Z" transform="translate(-124.645 -133.56)" fill="#ffbf9d"/>
      <path id="Path_102296" data-name="Path 102296" d="M-1699.254,159.469h-1.839v-2.715h-2.627v3.152a2.192,2.192,0,0,0,2.189,2.189h2.277a1.313,1.313,0,0,0,1.314-1.314A1.313,1.313,0,0,0-1699.254,159.469Z" transform="translate(-180.349 -135.329)"/>
      <path id="Path_102297" data-name="Path 102297" d="M-1800.059,112.17a6.853,6.853,0,0,1,6.853-6.853h-5.62a6.853,6.853,0,0,0-6.853,6.853,6.853,6.853,0,0,0,6.853,6.853h5.62A6.853,6.853,0,0,1-1800.059,112.17Z" transform="translate(-106.34 -97.992)" fill="#eef6ff"/>
      <path id="Path_102298" data-name="Path 102298" d="M-1700.805,200.679h-5.953a1.028,1.028,0,0,1-1.028-1.028,1.028,1.028,0,0,1,1.028-1.028h5.953a1.028,1.028,0,0,1,1.028,1.028A1.028,1.028,0,0,1-1700.805,200.679Z" transform="translate(-177.397 -165.72)"/>
      <path id="Path_102299" data-name="Path 102299" d="M-1536.568,12.165a1.375,1.375,0,0,1-1.371,1.371h-30.81a1.375,1.375,0,0,1-1.371-1.371V-25.312a1.375,1.375,0,0,1,1.371-1.371h30.81a1.375,1.375,0,0,1,1.371,1.371V12.165Z" transform="translate(-277.325 -2.178)" fill="#dbf6e9"/>
      <path id="Path_102300" data-name="Path 102300" d="M-1530.377,10.062a.825.825,0,0,1-.822.822h-24.394a.825.825,0,0,1-.823-.822V-10.861a.825.825,0,0,1,.823-.822h24.394a.825.825,0,0,1,.822.822Z" transform="translate(-287.272 -13.066)" fill="#9ddfd3"/>
      <path id="Path_102301" data-name="Path 102301" d="M-1632.854,324.775a1.375,1.375,0,0,0,1.371,1.371h50.9a1.375,1.375,0,0,0,1.371-1.371V288.317h-53.641Z" transform="translate(-231.788 -230.826)" fill="#dbf6e9"/>
      <path id="Path_102302" data-name="Path 102302" d="M-1581.439,258.317h-49.189a2.232,2.232,0,0,0-2.226,2.226v6.272h53.641v-6.272A2.232,2.232,0,0,0-1581.439,258.317Z" transform="translate(-231.788 -209.05)" fill="#31326f"/>
      <circle id="Ellipse_4109" data-name="Ellipse 4109" cx="2.056" cy="2.056" r="2.056" transform="translate(-1861.304 51.46)" fill="#f24872"/>
      <circle id="Ellipse_4110" data-name="Ellipse 4110" cx="2.056" cy="2.056" r="2.056" transform="translate(-1855.685 51.46)" fill="#ffd566"/>
      <circle id="Ellipse_4111" data-name="Ellipse 4111" cx="2.056" cy="2.056" r="2.056" transform="translate(-1850.065 51.46)" fill="#9ddfd3"/>
      <path id="Path_102303" data-name="Path 102303" d="M-1591.16,332.552a.825.825,0,0,1-.822.822h-16.448a.825.825,0,0,1-.822-.822V305.139a.825.825,0,0,1,.822-.822h16.448a.825.825,0,0,1,.822.822Z" transform="translate(-248.919 -242.44)" fill="#9ddfd3"/>
      <path id="Path_102304" data-name="Path 102304" d="M-1603.75,332.552V305.139a.825.825,0,0,1,.822-.822h-5.5a.825.825,0,0,0-.822.822v27.413a.825.825,0,0,0,.822.822h5.5A.825.825,0,0,1-1603.75,332.552Z" transform="translate(-248.919 -242.44)" fill="#87bfb5"/>
      <g id="Group_57514" data-name="Group 57514" transform="translate(-1836.372 63.247)">
        <path id="Path_102305" data-name="Path 102305" d="M-1527.671,313.429h14.789a2.056,2.056,0,0,0,2.056-2.056,2.056,2.056,0,0,0-2.056-2.056h-14.789a2.056,2.056,0,0,0-2.056,2.056A2.056,2.056,0,0,0-1527.671,313.429Z" transform="translate(1529.727 -309.317)" fill="#c8ea73"/>
        <path id="Path_102306" data-name="Path 102306" d="M-1512.882,335.317h-14.789a2.056,2.056,0,0,0-2.056,2.056,2.056,2.056,0,0,0,2.056,2.056h14.789a2.056,2.056,0,0,0,2.056-2.056A2.056,2.056,0,0,0-1512.882,335.317Z" transform="translate(1529.727 -328.19)" fill="#c8ea73"/>
        <path id="Path_102307" data-name="Path 102307" d="M-1512.882,361.317h-14.789a2.056,2.056,0,0,0-2.056,2.056,2.056,2.056,0,0,0,2.056,2.056h14.789a2.056,2.056,0,0,0,2.056-2.056A2.056,2.056,0,0,0-1512.882,361.317Z" transform="translate(1529.727 -347.062)" fill="#c8ea73"/>
        <path id="Path_102308" data-name="Path 102308" d="M-1519.18,387.317h-8.491a2.056,2.056,0,0,0-2.056,2.056,2.056,2.056,0,0,0,2.056,2.056h8.491a2.056,2.056,0,0,0,2.056-2.056A2.056,2.056,0,0,0-1519.18,387.317Z" transform="translate(1529.727 -365.935)" fill="#c8ea73"/>
      </g>
      <path id="Path_102309" data-name="Path 102309" d="M-1536.715,16.574a.588.588,0,0,0-.99,0l-7.049,9.356a.587.587,0,0,1-.99,0l-3.725-4.944a.587.587,0,0,0-.99,0l-5.958,7.908v1.484a.825.825,0,0,0,.822.822h24.394a.825.825,0,0,0,.822-.822v-5.39Z" transform="translate(-287.273 -33.38)" fill="#31326f"/>
      <circle id="Ellipse_4112" data-name="Ellipse 4112" cx="2.741" cy="2.741" r="2.741" transform="translate(-1841.43 -22.555)" fill="#ffd566"/>
      <g id="Group_57515" data-name="Group 57515" transform="translate(-1843.688 1.362)">
        <path id="Path_102310" data-name="Path 102310" d="M-1551.208,87.953a.825.825,0,0,1-.822.822h-3.564a.825.825,0,0,1-.823-.822V84.389a.825.825,0,0,1,.823-.822h3.564a.825.825,0,0,1,.822.822Z" transform="translate(1556.416 -83.567)" fill="#87bfb5"/>
        <path id="Path_102311" data-name="Path 102311" d="M-1514.3,89.679h-15.077a2.056,2.056,0,0,1-2.056-2.056,2.056,2.056,0,0,1,2.056-2.056h15.077a2.056,2.056,0,0,1,2.056,2.056A2.056,2.056,0,0,1-1514.3,89.679Z" transform="translate(1538.28 -85.019)" fill="#87bfb5"/>
      </g>
      <path id="Path_102312" data-name="Path 102312" d="M-1900.277,216.816a2.633,2.633,0,0,1-1.187,2.056l-22.077,12.746a2.633,2.633,0,0,1-2.374,0l-22.077-12.746a2.633,2.633,0,0,1-1.187-2.056V191.324a2.633,2.633,0,0,1,1.187-2.056l22.077-12.746a2.633,2.633,0,0,1,2.374,0l22.077,12.746a2.633,2.633,0,0,1,1.187,2.056v25.491Z" transform="translate(-2.178 -149.473)" fill="#9ddfd3"/>
      <g id="Group_57516" data-name="Group 57516" transform="translate(-1942.042 38.07)">
        <path id="Path_102313" data-name="Path 102313" d="M-1909.146,251.244a.825.825,0,0,1-.822.822h-4.41a.825.825,0,0,1-.823-.822V239.2a.825.825,0,0,1,.823-.822h4.41a.825.825,0,0,1,.822.822Z" transform="translate(1915.2 -232.645)" fill="#31326f"/>
        <path id="Path_102314" data-name="Path 102314" d="M-1879.7,236.07a.825.825,0,0,1-.822.822h-4.409a.825.825,0,0,1-.823-.822V218.293a.825.825,0,0,1,.823-.822h4.409a.825.825,0,0,1,.822.822Z" transform="translate(1893.825 -217.471)" fill="#31326f"/>
        <path id="Path_102315" data-name="Path 102315" d="M-1850.25,241.129a.825.825,0,0,1-.822.822h-4.409a.825.825,0,0,1-.822-.822V225.263a.825.825,0,0,1,.822-.822h4.409a.825.825,0,0,1,.822.822Z" transform="translate(1872.449 -222.53)" fill="#31326f"/>
        <path id="Path_102316" data-name="Path 102316" d="M-1820.8,262.2a.825.825,0,0,1-.823.822h-4.41a.825.825,0,0,1-.822-.822V254.3a.825.825,0,0,1,.822-.822h4.41a.825.825,0,0,1,.823.822Z" transform="translate(1851.075 -243.605)" fill="#31326f"/>
      </g>
      <g id="Group_57517" data-name="Group 57517" transform="translate(-1935.458 63.522)">
        <path id="Path_102317" data-name="Path 102317" d="M-1842.866,314.429a3.809,3.809,0,0,1-.6-2.056,3.81,3.81,0,0,1,.6-2.056h-5.317a3.809,3.809,0,0,1,.6,2.056,3.808,3.808,0,0,1-.6,2.056Z" transform="translate(1859.971 -310.317)" fill="#87bfb5"/>
        <path id="Path_102318" data-name="Path 102318" d="M-1885.867,314.429a3.809,3.809,0,0,1-.6-2.056,3.81,3.81,0,0,1,.6-2.056h-5.317a3.809,3.809,0,0,1,.6,2.056,3.808,3.808,0,0,1-.6,2.056Z" transform="translate(1891.184 -310.317)" fill="#87bfb5"/>
      </g>
      <g id="Group_57518" data-name="Group 57518" transform="translate(-1942.806 61.466)">
        <circle id="Ellipse_4113" data-name="Ellipse 4113" cx="4.112" cy="4.112" r="4.112" transform="translate(0)" fill="#31326f"/>
        <circle id="Ellipse_4114" data-name="Ellipse 4114" cx="4.112" cy="4.112" r="4.112" transform="translate(11.788)" fill="#31326f"/>
        <circle id="Ellipse_4115" data-name="Ellipse 4115" cx="4.112" cy="4.112" r="4.112" transform="translate(23.575)" fill="#31326f"/>
      </g>
      <path id="Path_102319" data-name="Path 102319" d="M-1503.734,160.87a.8.8,0,0,1-.794.794h-23.547a.8.8,0,0,1-.794-.794v-20.2a.8.8,0,0,1,.794-.794h23.547a.8.8,0,0,1,.794.794Z" transform="translate(-307.267 -123.08)" fill="#9ddfd3"/>
      <path id="Path_102320" data-name="Path 102320" d="M-1523.112,160.87v-20.2a.8.8,0,0,1,.794-.794h-5.757a.8.8,0,0,0-.794.794v20.2a.8.8,0,0,0,.794.794h5.757A.8.8,0,0,1-1523.112,160.87Z" transform="translate(-307.267 -123.08)" fill="#87bfb5"/>
      <path id="Path_102321" data-name="Path 102321" d="M-1495.018,164.25l-4.572-10.525a2.676,2.676,0,0,0-2.432-1.756,2.676,2.676,0,0,0-2.432,1.756l-4.572,10.525a2.056,2.056,0,0,0,1.067,2.7,2.056,2.056,0,0,0,2.7-1.067l.692-1.594h5.08l.693,1.594a2.056,2.056,0,0,0,1.887,1.237,2.047,2.047,0,0,0,.818-.171A2.056,2.056,0,0,0-1495.018,164.25Zm-8.194-3.566,1.189-2.738,1.189,2.738Z" transform="translate(-321.547 -131.855)" fill="#31326f"/>
      <g id="Group_57519" data-name="Group 57519" transform="translate(-1848.267 -29.683)">
        <path id="Path_102322" data-name="Path 102322" d="M-1540.116,12.18h-30.81a2.2,2.2,0,0,1-2.193-2.193V-27.49a2.2,2.2,0,0,1,2.193-2.193h30.81a2.2,2.2,0,0,1,2.193,2.193V9.987A2.2,2.2,0,0,1-1540.116,12.18Zm-30.81-40.218a.556.556,0,0,0-.548.548V9.987a.556.556,0,0,0,.548.548h30.81a.556.556,0,0,0,.548-.548V-27.49a.556.556,0,0,0-.548-.548Z" transform="translate(1573.119 29.683)"/>
      </g>
      <g id="Group_57520" data-name="Group 57520" transform="translate(-1865.464 56.668)">
        <path id="Path_102323" data-name="Path 102323" d="M-1582.762,324.791h-50.9a2.2,2.2,0,0,1-2.193-2.193v-37.28h55.285V322.6A2.2,2.2,0,0,1-1582.762,324.791Zm-51.448-37.829V322.6a.556.556,0,0,0,.548.548h50.9a.556.556,0,0,0,.548-.548V286.962Z" transform="translate(1635.854 -285.317)"/>
      </g>
      <g id="Group_57521" data-name="Group 57521" transform="translate(-1865.464 48.444)">
        <path id="Path_102324" data-name="Path 102324" d="M-1580.569,265.46h-55.285v-7.094a3.052,3.052,0,0,1,3.048-3.048h49.189a3.052,3.052,0,0,1,3.048,3.048Zm-53.641-1.645h52v-5.45a1.4,1.4,0,0,0-1.4-1.4h-49.189a1.405,1.405,0,0,0-1.4,1.4Z" transform="translate(1635.854 -255.317)"/>
      </g>
      <g id="Group_57522" data-name="Group 57522" transform="translate(-1952.179 25.943)">
        <path id="Path_102325" data-name="Path 102325" d="M-1926.906,230.543a3.242,3.242,0,0,1-1.6-.394l-22.077-12.746a3.434,3.434,0,0,1-1.6-2.768V189.142a3.434,3.434,0,0,1,1.6-2.768l22.076-12.746a3.435,3.435,0,0,1,3.2,0l22.077,12.746a3.434,3.434,0,0,1,1.6,2.768v25.491a3.433,3.433,0,0,1-1.6,2.768l-22.077,12.746A3.243,3.243,0,0,1-1926.906,230.543Zm0-55.662a1.619,1.619,0,0,0-.776.173l-22.077,12.745a1.829,1.829,0,0,0-.776,1.344v25.491a1.828,1.828,0,0,0,.776,1.344l22.077,12.746a1.829,1.829,0,0,0,1.552,0l22.077-12.746a1.829,1.829,0,0,0,.776-1.344V189.142a1.829,1.829,0,0,0-.776-1.344l-22.077-12.745A1.618,1.618,0,0,0-1926.906,174.881Z" transform="translate(1952.179 -173.234)"/>
      </g>
      <g id="Group_57523" data-name="Group 57523" transform="translate(-1836.959 15.977)">
        <path id="Path_102326" data-name="Path 102326" d="M-1506.705,160.308h-23.547a1.618,1.618,0,0,1-1.616-1.616V138.5a1.618,1.618,0,0,1,1.616-1.616h23.547a1.618,1.618,0,0,1,1.616,1.616v20.2A1.618,1.618,0,0,1-1506.705,160.308Zm-23.519-1.645h23.49v-20.14h-23.49Z" transform="translate(1531.869 -136.879)"/>
      </g>
      <g id="Group_57524" data-name="Group 57524" transform="translate(-1844.373 -25.434)">
        <path id="Path_102327" data-name="Path 102327" d="M-1533.014,9.756h-24.394a1.51,1.51,0,0,1-1.508-1.508V-12.675a1.51,1.51,0,0,1,1.508-1.508h24.394a1.509,1.509,0,0,1,1.508,1.508V8.248A1.509,1.509,0,0,1-1533.014,9.756Zm-24.394-22.568a.139.139,0,0,0-.137.137V8.248a.139.139,0,0,0,.137.137h24.394a.139.139,0,0,0,.137-.137V-12.675a.139.139,0,0,0-.137-.137Z" transform="translate(1558.916 14.183)"/>
      </g>
      <g id="Group_57525" data-name="Group 57525" transform="translate(-1905.738 -10.334)">
        <path id="Path_102328" data-name="Path 102328" d="M-1733.649,59.655h-49.117l.176-.969a20.15,20.15,0,0,1,8.435-13.138,27.564,27.564,0,0,1,15.948-4.648,27.564,27.564,0,0,1,15.948,4.648,20.149,20.149,0,0,1,8.435,13.138Zm-47.122-1.645h45.127c-2.2-9.43-10.942-15.466-22.563-15.466S-1778.569,48.58-1780.771,58.01Z" transform="translate(1782.766 -40.899)"/>
      </g>
      <g id="Group_57526" data-name="Group 57526" transform="translate(-1905.945 19.935)">
        <path id="Path_102329" data-name="Path 102329" d="M-1758.755,176.537a24.536,24.536,0,0,1-17.334-7.125,24.829,24.829,0,0,1-7.414-17.256l-.017-.839h49.531l-.017.839a24.827,24.827,0,0,1-7.414,17.256A24.536,24.536,0,0,1-1758.755,176.537Zm-23.071-23.575a23.3,23.3,0,0,0,23.071,21.93,23.3,23.3,0,0,0,23.072-21.93Z" transform="translate(1783.521 -151.317)"/>
      </g>
      <path id="SVGCleanerId_1" data-name="SVGCleanerId 1" d="M-1744,112.17a6.853,6.853,0,0,1-6.853,6.853h-47.973a6.853,6.853,0,0,1-6.853-6.853h0a6.853,6.853,0,0,1,6.853-6.853h47.973A6.853,6.853,0,0,1-1744,112.17Z" transform="translate(-106.34 -97.992)" fill="#fff"/>
      <g id="Group_57527" data-name="Group 57527" transform="translate(-1912.019 7.325)">
        <path id="SVGCleanerId_1-2" data-name="SVGCleanerId 1" d="M-1744,112.17a6.853,6.853,0,0,1-6.853,6.853h-47.973a6.853,6.853,0,0,1-6.853-6.853h0a6.853,6.853,0,0,1,6.853-6.853h47.973A6.853,6.853,0,0,1-1744,112.17Z" transform="translate(1805.679 -105.317)" fill="#fff"/>
      </g>
      <path id="Path_102330" data-name="Path 102330" d="M-1736.117,126.929h-45.506a2.056,2.056,0,0,1-2.056-2.056,2.056,2.056,0,0,1,2.056-2.056h45.506a2.056,2.056,0,0,1,2.056,2.056A2.056,2.056,0,0,1-1736.117,126.929Z" transform="translate(-122.309 -110.695)" fill="#31326f"/>
      <path id="Path_102331" data-name="Path 102331" d="M-1641.769,106.729v1.1a1.37,1.37,0,0,0,1.371,1.371h2.741a1.37,1.37,0,0,0,1.371-1.371v-1.1Z" transform="translate(-225.317 -99.017)" fill="#f24872"/>
      <g id="Group_57528" data-name="Group 57528" transform="translate(-1912.704 6.639)">
        <g id="SVGCleanerId_1-3" data-name="SVGCleanerId 1">
          <path id="Path_102332" data-name="Path 102332" d="M-1752.667,117.894h-47.973a7.547,7.547,0,0,1-7.539-7.539,7.547,7.547,0,0,1,7.539-7.539h47.973a7.547,7.547,0,0,1,7.539,7.539A7.547,7.547,0,0,1-1752.667,117.894Zm-47.973-13.707a6.175,6.175,0,0,0-6.168,6.168,6.175,6.175,0,0,0,6.168,6.168h47.973a6.175,6.175,0,0,0,6.168-6.168,6.175,6.175,0,0,0-6.168-6.168Z" transform="translate(1808.179 -102.817)"/>
        </g>
      </g>
      <g id="Group_57529" data-name="Group 57529" transform="translate(-1858.858 61.192)">
        <path id="Path_102333" data-name="Path 102333" d="M-1593.8,332.246h-16.448a1.509,1.509,0,0,1-1.508-1.508V303.325a1.509,1.509,0,0,1,1.508-1.508h16.448a1.509,1.509,0,0,1,1.508,1.508v27.413A1.509,1.509,0,0,1-1593.8,332.246Zm-16.448-29.058a.139.139,0,0,0-.137.137v27.413a.139.139,0,0,0,.137.137h16.448a.139.139,0,0,0,.137-.137V303.325a.139.139,0,0,0-.137-.137Z" transform="translate(1611.753 -301.817)"/>
      </g>
    </g>
  </g>
</svg>
