<svg xmlns="http://www.w3.org/2000/svg" width="142.397" height="142" viewBox="0 0 142.397 142">
  <g id="t3-i13" transform="translate(-543 -131.087)">
    <rect id="Rectangle_5207" data-name="Rectangle 5207" width="142" height="142" transform="translate(543 131.087)" fill="none"/>
    <g id="Group_57231" data-name="Group 57231" transform="translate(543 130.374)">
      <g id="Group_57229" data-name="Group 57229" transform="translate(6.488 2.821)">
        <g id="Group_57225" data-name="Group 57225" transform="translate(0 40.274)">
          <circle id="Ellipse_4073" data-name="Ellipse 4073" cx="10.438" cy="10.438" r="10.438" transform="translate(0.001)" fill="#cc3d60"/>
          <path id="Path_101829" data-name="Path 101829" d="M43.069,171.224a10.438,10.438,0,1,1-14.042-14.043,10.442,10.442,0,0,0,14.042,14.043Z" transform="translate(-23.327 -156.047)" fill="#992e48"/>
        </g>
        <g id="Group_57226" data-name="Group 57226" transform="translate(109.828)">
          <circle id="Ellipse_4074" data-name="Ellipse 4074" cx="11.986" cy="11.986" r="11.986" fill="#ffc93c"/>
        </g>
        <g id="Group_57228" data-name="Group 57228" transform="translate(11.064 41.164)">
          <path id="Path_101830" data-name="Path 101830" d="M172.088,211.528c0-30.5-24.4-55.226-54.49-55.226s-54.491,24.725-54.491,55.226,24.4,32.8,54.49,32.8S172.088,242.028,172.088,211.528Z" transform="translate(-63.107 -156.302)" fill="#31326f"/>
          <path id="Path_101831" data-name="Path 101831" d="M116.882,244.329c-29.763-.036-53.775-2.54-53.775-32.8,0-30.5,24.4-55.224,54.491-55.224-15.317,0-27.732,24.726-27.732,55.224C89.866,241.555,101.9,244.253,116.882,244.329Z" transform="translate(-63.107 -156.304)" fill="#21214a"/>
          <path id="Path_101832" data-name="Path 101832" d="M196.139,280.659a21.905,21.905,0,0,1-20.863,20.765q-14.5.685-29,.276h-.017q-3.677-.1-7.353-.276a21.9,21.9,0,0,1-20.861-20.765q-.638-12.4-.1-24.813v0q.161-3.865.442-7.729c1.787-8.487,8.781-15.742,18.551-20,.288-.125.579-.249.873-.369a49.378,49.378,0,0,1,13-3.3,53.69,53.69,0,0,1,19.8,1.367v0c13.185,3.505,23.039,12,25.192,22.325a.009.009,0,0,0,0,.008A264.113,264.113,0,0,1,196.139,280.659Z" transform="translate(-102.518 -205.231)" fill="#f1d0a5"/>
          <path id="Path_101833" data-name="Path 101833" d="M146.282,311.218h-.017q-3.677-.1-7.353-.276a21.9,21.9,0,0,1-20.861-20.765,263.9,263.9,0,0,1,.34-32.545c1.787-8.487,8.78-15.742,18.551-20,.288-.125.579-.249.873-.369-.67,16.334-.829,40-.486,53.371.264,10.281,4.021,18.666,8.954,20.58Z" transform="translate(-102.52 -214.749)" fill="#f1b986"/>
          <path id="Path_101834" data-name="Path 101834" d="M171.242,225.815v0c-6.492,11.134-22.058,25.772-28.253,22.276-2.266-1.281-1.97-3.918-.692-6.756a50.283,50.283,0,0,1-9.67,11.878c-4.165,3.51-9.186,5.691-14.046,2.63v0q.161-3.865.442-7.729c1.787-8.487,8.78-15.742,18.551-20,.288-.125.579-.249.873-.369a49.378,49.378,0,0,1,13-3.3,53.692,53.692,0,0,1,19.8,1.367Z" transform="translate(-103.153 -205.231)" fill="#31326f"/>
          <path id="Path_101835" data-name="Path 101835" d="M132.628,253.215c-4.165,3.51-9.186,5.691-14.046,2.63v0q.161-3.865.442-7.729c1.787-8.487,8.78-15.742,18.551-20,.288-.125.579-.249.873-.369a49.378,49.378,0,0,1,13-3.3,52.9,52.9,0,0,1,6.282-.367c-13.606,4.747-41.7,29.133-25.1,29.133Z" transform="translate(-103.153 -205.231)" fill="#21214a"/>
          <g id="Group_57227" data-name="Group 57227" transform="translate(23.524 65.457)">
            <ellipse id="Ellipse_4075" data-name="Ellipse 4075" cx="6.666" cy="4.227" rx="6.666" ry="4.227" transform="translate(0 0)" fill="#cc3d60"/>
            <ellipse id="Ellipse_4076" data-name="Ellipse 4076" cx="6.666" cy="4.227" rx="6.666" ry="4.227" transform="translate(48.772 0)" fill="#cc3d60"/>
          </g>
          <path id="Path_101836" data-name="Path 101836" d="M196.877,224.019a20.92,20.92,0,0,1-.376,3.96c-2.645-13.782-18.993-24.39-38.771-24.39a52.865,52.865,0,0,0-6.282.367,49.4,49.4,0,0,0-12.237,3q-.829.319-1.635.672c-9.9,4.312-16.957,11.706-18.621,20.342a20.956,20.956,0,0,1-.372-3.948c0-10.311,7.612-19.335,18.993-24.288q1.767-.77,3.652-1.4a49.921,49.921,0,0,1,10.22-2.271,52.811,52.811,0,0,1,6.282-.364c21.621,0,39.147,12.682,39.147,28.326Z" transform="translate(-103.153 -184.738)" fill="#dbf6e9"/>
          <path id="Path_101837" data-name="Path 101837" d="M141.228,205.168l-2.017,8.624q-.829.319-1.635.672c-9.9,4.312-16.957,11.706-18.621,20.342a20.955,20.955,0,0,1-.372-3.948c0-10.311,7.612-19.335,18.993-24.288q1.767-.77,3.652-1.4Z" transform="translate(-103.154 -191.577)" fill="#9ddfd3"/>
        </g>
      </g>
      <g id="Group_57230" data-name="Group 57230" transform="translate(0 0.713)">
        <path id="Path_101838" data-name="Path 101838" d="M255.451,28.885h5.528l3.977,14.77a2.109,2.109,0,0,0,1.993,1.56h.043A2.108,2.108,0,0,0,269,43.736l8.879-28.38h12.6a2.109,2.109,0,0,0,0-4.217H276.333a2.109,2.109,0,0,0-2.012,1.479L267.143,35.56l-2.512-9.332a2.108,2.108,0,0,0-2.036-1.56H255.45a2.109,2.109,0,0,0,0,4.217Z" transform="translate(-182.883 -8.239)"/>
        <path id="Path_101839" data-name="Path 101839" d="M346.376,63.824c-3.535,5.05-5.644,7.812-6.777,9.3-1.384,1.813-1.9,2.491-1.535,3.686a2.216,2.216,0,0,0,1.441,1.458c.286.1.6.2,4.86.2,1.692,0,4.007-.016,7.189-.056a2.108,2.108,0,0,0-.053-4.217c-2.585.033-5.344.053-7.458.051,1.257-1.667,3.125-4.195,5.788-8a16.53,16.53,0,0,0,2.7-5.57,2.072,2.072,0,0,0,.037-.209l.11-.862a2.036,2.036,0,0,0,.017-.267,7.811,7.811,0,0,0-15.474-1.512,2.109,2.109,0,0,0,4.138.813,3.594,3.594,0,0,1,7.117.58l-.077.6a12.7,12.7,0,0,1-2.019,4.009Z" transform="translate(-243.402 -37.392)"/>
        <path id="Path_101840" data-name="Path 101840" d="M12.714,158.519a12.543,12.543,0,0,0,16.028-16.029c6.227-7.932,5.548-10.487,4.217-11.818s-3.888-2.011-11.82,4.216A12.543,12.543,0,0,0,5.111,150.916c-6.228,7.934-5.549,10.49-4.218,11.822a2.9,2.9,0,0,0,2.18.894c1.766,0,4.632-1.18,9.64-5.113Zm10.1-5.926a8.3,8.3,0,0,1-5.955,2.434c1.432-1.282,2.885-2.655,4.31-4.079s2.8-2.878,4.079-4.31A8.305,8.305,0,0,1,22.817,152.593Zm6.12-17.9a30.936,30.936,0,0,1-2.487,3.847c-.207-.242-.422-.479-.651-.708s-.467-.444-.709-.651A30.868,30.868,0,0,1,28.937,134.693Zm-17.9,6.12a8.321,8.321,0,0,1,12.718,1.122c-1.657,1.962-3.557,4.024-5.565,6.031s-4.07,3.908-6.032,5.565a8.321,8.321,0,0,1-1.122-12.718ZM7.4,154.866c.208.242.422.479.651.709s.467.444.708.651a30.987,30.987,0,0,1-3.848,2.489A30.909,30.909,0,0,1,7.4,154.866Z" transform="translate(0 -93.882)"/>
        <path id="Path_101841" data-name="Path 101841" d="M444.45,130.935l-.023-.058a2.628,2.628,0,0,0-2.439-1.634h0a2.629,2.629,0,0,0-2.438,1.638l-.019.048-8.757,22.992a2.108,2.108,0,0,0,3.941,1.5l1.664-4.368h11.159l1.646,4.362a2.109,2.109,0,0,0,3.945-1.489Zm-6.467,15.9,4-10.5,3.962,10.5Z" transform="translate(-310.867 -93.496)" fill="#ffc93c"/>
        <path id="Path_101842" data-name="Path 101842" d="M476.649,251.489a2.108,2.108,0,0,0-2.982,0l-1.015,1.015-1.015-1.015a2.108,2.108,0,0,0-2.982,2.982l1.015,1.015-1.015,1.015a2.108,2.108,0,1,0,2.982,2.981l1.015-1.015,1.015,1.015a2.108,2.108,0,0,0,2.982-2.981l-1.015-1.015,1.015-1.015a2.108,2.108,0,0,0,0-2.982Z" transform="translate(-337.868 -181.298)" fill="#ffc93c"/>
        <path id="Path_101843" data-name="Path 101843" d="M220.229,104.391a2.109,2.109,0,0,0,2.982,0l1.015-1.015,1.015,1.015a2.108,2.108,0,0,0,2.982-2.982l-1.015-1.015,1.015-1.015a2.108,2.108,0,0,0-2.982-2.982l-1.015,1.015L223.211,96.4a2.108,2.108,0,1,0-2.982,2.982l1.015,1.015-1.015,1.015a2.109,2.109,0,0,0,0,2.982Z" transform="translate(-158.534 -69.34)" fill="#9ddfd3"/>
        <path id="Path_101844" data-name="Path 101844" d="M17.479,270.952a2.108,2.108,0,0,0-2.981,0l-1.015,1.015-1.015-1.015a2.108,2.108,0,0,0-2.981,2.982l1.015,1.015-1.015,1.015a2.108,2.108,0,1,0,2.981,2.982l1.015-1.015,1.015,1.015a2.108,2.108,0,0,0,2.981-2.982l-1.015-1.015,1.015-1.015A2.108,2.108,0,0,0,17.479,270.952Z" transform="translate(-6.402 -195.348)" fill="#ffc93c"/>
        <path id="Path_101845" data-name="Path 101845" d="M86.418,53.014h4.065v4.065a2.108,2.108,0,1,0,4.217,0V53.014h4.065a2.108,2.108,0,0,0,0-4.217H94.7V44.732a2.108,2.108,0,0,0-4.217,0V48.8H86.418a2.108,2.108,0,1,0,0,4.217Z" transform="translate(-60.861 -30.968)"/>
        <path id="Path_101846" data-name="Path 101846" d="M424.736,28.9a14.095,14.095,0,1,0-14.095-14.095A14.11,14.11,0,0,0,424.736,28.9Zm0-23.972a9.878,9.878,0,1,1-9.878,9.878,9.889,9.889,0,0,1,9.878-9.878Z" transform="translate(-296.434 -0.713)"/>
        <path id="Path_101847" data-name="Path 101847" d="M455.847,32.375H459a2.108,2.108,0,0,0,0-4.217h-1.048V24.236a2.109,2.109,0,0,0-4.217,0v6.03A2.109,2.109,0,0,0,455.847,32.375Z" transform="translate(-327.545 -16.172)"/>
        <path id="Path_101848" data-name="Path 101848" d="M25.86,20.382h5.484l-4.126,8.584a2.108,2.108,0,1,0,3.8,1.827L36.6,19.187a2.109,2.109,0,0,0-1.9-3.022H29.213l4.126-8.584a2.108,2.108,0,1,0-3.8-1.827L23.96,17.36a2.108,2.108,0,0,0,1.9,3.022Z" transform="translate(-17.146 -3.489)" fill="#c8ea73"/>
        <path id="Path_101849" data-name="Path 101849" d="M160.728,39.192h.009s5.541-.025,7.068-.025a7.688,7.688,0,0,0,4.467-13.948,6.877,6.877,0,0,0-5.519-10.987h-6.025a2.109,2.109,0,0,0-2.108,2.108V37.084a2.108,2.108,0,0,0,2.108,2.108Zm7.077-4.242c-.908,0-3.228.009-4.969.016V28.008L164.569,28h3.236a3.475,3.475,0,1,1,0,6.949Zm-1.052-16.5a2.664,2.664,0,1,1,0,5.329c-.445,0-1.284,0-2.2.006h-1.719V18.45Z" transform="translate(-114.505 -10.473)" fill="#9ddfd3"/>
        <path id="Path_101850" data-name="Path 101850" d="M148.479,162.115a2.108,2.108,0,1,0-2.731,3.213A53.33,53.33,0,0,1,164.5,206.056c0,11.765-3.746,19.622-11.7,24.353a24.354,24.354,0,0,0,.554-4.043,266.957,266.957,0,0,0-.291-32,23.013,23.013,0,0,0,.4-4.252c0-8.261-4.382-15.98-12.338-21.738-7.751-5.608-18.021-8.7-28.919-8.7a55.119,55.119,0,0,0-6.526.38,50.975,50.975,0,0,0-14.47,3.833A37.893,37.893,0,0,0,76.64,174.642a24.719,24.719,0,0,0-5.69,15.47,23.169,23.169,0,0,0,.4,4.257c-.456,6.607-.67,13.26-.633,19.79a2.108,2.108,0,0,0,2.108,2.1h.013a2.109,2.109,0,0,0,2.1-2.121c-.018-3.149.025-6.327.124-9.515a10.7,10.7,0,0,0,2.869.394,11.981,11.981,0,0,0,2.925-.374c5.53-1.39,10.487-6.538,13.753-10.753a5.491,5.491,0,0,0,1.831,1.642c4.668,2.636,11.5-1.74,16.409-5.875a72.539,72.539,0,0,0,13.839-15.762c11.511,3.487,20.174,11,22.142,20.167a262.727,262.727,0,0,1,.324,32.09,19.741,19.741,0,0,1-18.856,18.767c-12,.568-24.168.568-36.168,0a19.735,19.735,0,0,1-18.853-18.764c-.069-1.363-.122-2.56-.162-3.659a2.108,2.108,0,1,0-4.214.154c.041,1.119.095,2.335.164,3.719a24.381,24.381,0,0,0,.578,4.156c-8.088-4.72-11.9-12.612-11.9-24.466,0-29.288,23.5-53.116,52.382-53.116a51.735,51.735,0,0,1,27.091,7.647,2.108,2.108,0,1,0,2.207-3.593,55.952,55.952,0,0,0-29.3-8.27c-31.209,0-56.6,25.72-56.6,57.333,0,15.258,5.959,25.138,18.2,30.181a23.937,23.937,0,0,0,20.2,12.892c6.067.287,12.174.43,18.284.43s12.217-.143,18.282-.43a23.943,23.943,0,0,0,20.25-12.981c12.1-5.068,17.983-14.919,17.983-30.091a57.539,57.539,0,0,0-20.242-43.941ZM110.123,186.43c-6.289,5.3-10.19,6.235-11.619,5.428-.867-.489-.8-1.856.2-4.06a2.108,2.108,0,0,0-3.753-1.912,53.171,53.171,0,0,1-4.755,6.754c-3.637,4.385-7.227,7.121-10.38,7.912a6.881,6.881,0,0,1-4.586-.334q.149-3.1.367-6.2c1.653-7.612,7.929-14.288,17.3-18.368a46.8,46.8,0,0,1,13.282-3.51,51.661,51.661,0,0,1,16.18.661,70,70,0,0,1-12.232,13.628Zm29.024-11.5a50.773,50.773,0,0,0-26.94-7.355,55.146,55.146,0,0,0-6.526.38,51,51,0,0,0-14.471,3.831,37.969,37.969,0,0,0-14.293,10.384,23.028,23.028,0,0,1,3.018-4.894,33.675,33.675,0,0,1,12.958-9.518,46.773,46.773,0,0,1,13.282-3.512,50.949,50.949,0,0,1,6.032-.35c16.568,0,30.631,7.74,35.349,18.38a35.089,35.089,0,0,0-8.41-7.345Z" transform="translate(-40.08 -107.559)"/>
        <path id="Path_101851" data-name="Path 101851" d="M233.083,414.363a11.02,11.02,0,0,0,9.911-6.268,2.108,2.108,0,1,0-3.81-1.808,6.753,6.753,0,0,1-12.2,0,2.108,2.108,0,0,0-3.81,1.808,11.023,11.023,0,0,0,9.912,6.268Z" transform="translate(-160.956 -292.619)"/>
        <path id="Path_101852" data-name="Path 101852" d="M306.316,354.533a2.1,2.1,0,0,0,2.878.757,12.348,12.348,0,0,1,7.979-.854,2.108,2.108,0,1,0,.8-4.141,18.654,18.654,0,0,0-3.7-.341,7.248,7.248,0,0,0,.548-2.81c0-2.918-1.593-5.291-3.551-5.291s-3.551,2.373-3.551,5.291a6.769,6.769,0,0,0,1.052,3.754,10.611,10.611,0,0,0-1.688.744,2.116,2.116,0,0,0-.76,2.889Z" transform="translate(-220.916 -246.976)"/>
        <path id="Path_101853" data-name="Path 101853" d="M165.272,350.294a2.108,2.108,0,1,0,.8,4.141,12.358,12.358,0,0,1,7.977.852,2.108,2.108,0,0,0,2.12-3.645,10.666,10.666,0,0,0-1.688-.744,6.77,6.77,0,0,0,1.052-3.754c0-2.918-1.593-5.291-3.551-5.291s-3.551,2.373-3.551,5.291a7.255,7.255,0,0,0,.547,2.81,18.681,18.681,0,0,0-3.7.341Z" transform="translate(-118.072 -246.975)"/>
      </g>
    </g>
  </g>
</svg>
