<svg xmlns="http://www.w3.org/2000/svg" width="142" height="142" viewBox="0 0 142 142">
  <g id="t3-i8" transform="translate(-543 -2159)">
    <rect id="Rectangle_5192" data-name="Rectangle 5192" width="142" height="142" transform="translate(543 2159)" fill="none"/>
    <g id="Group_57286" data-name="Group 57286" transform="translate(549.668 2159)">
      <g id="Group_57284" data-name="Group 57284" transform="translate(2.074 2.08)">
        <path id="Path_101924" data-name="Path 101924" d="M43.9,69.117c0-16.459,3.616-31.932,15.254-43.57a61.617,61.617,0,0,1,87.14,0c11.638,11.638,15.254,27.111,15.254,43.57Z" transform="translate(-40.469 -7.5)" fill="#31326f"/>
        <path id="Path_101925" data-name="Path 101925" d="M108.274,7.749c-1.834-.163-3.684-.249-5.547-.249a61.214,61.214,0,0,0-43.57,18.047C47.519,37.185,43.9,52.659,43.9,69.117H55c0-16.458,3.616-31.932,15.254-43.57A61.151,61.151,0,0,1,108.274,7.749Z" transform="translate(-40.469 -7.5)" fill="#21214a"/>
        <path id="Path_101926" data-name="Path 101926" d="M155.965,229.67c11.226,60.974-25.292,64.115-25.292,64.115H63.609s-36.518-3.141-25.292-64.115Z" transform="translate(-34.883 -168.053)" fill="#31326f"/>
        <path id="Path_101927" data-name="Path 101927" d="M49.411,229.67H38.317c-11.226,60.974,25.292,64.115,25.292,64.115H74.7S38.185,290.644,49.411,229.67Z" transform="translate(-34.883 -168.053)" fill="#21214a"/>
        <path id="Path_101928" data-name="Path 101928" d="M75.724,91.517a50.45,50.45,0,0,1,100,0Z" transform="translate(-63.465 -36.624)" fill="#9ddfd3"/>
        <circle id="Ellipse_4084" data-name="Ellipse 4084" cx="11.816" cy="11.816" r="11.816" transform="translate(100.883 55.39)" fill="#ffbd86"/>
        <path id="Path_101929" data-name="Path 101929" d="M179.77,394.541H137.135s-16.119,10.187-16.119,30.5h11.991l25.446-4.166,25.447,4.166H195.89c0-20.31-16.12-30.5-16.12-30.5Z" transform="translate(-96.195 -287.198)" fill="#fed2a4"/>
        <path id="Path_101930" data-name="Path 101930" d="M144.069,394.541h-6.934s-16.119,10.187-16.119,30.5h6.934c0-20.31,16.119-30.5,16.119-30.5Z" transform="translate(-96.195 -287.198)" fill="#ffbd86"/>
        <path id="Path_101931" data-name="Path 101931" d="M179.137,394.541h10.309v23.466H179.137Z" transform="translate(-138.197 -287.198)" fill="#f9f097"/>
        <path id="Path_101932" data-name="Path 101932" d="M306,418.006H295.693V394.54H306Z" transform="translate(-222.427 -287.197)" fill="#f9f097"/>
        <path id="Path_101933" data-name="Path 101933" d="M112.233,54.386a50.367,50.367,0,0,0-36.51,41.889h8.32a50.485,50.485,0,0,1,28.19-38.767V54.386Z" transform="translate(-63.464 -41.382)" fill="#87bfb5"/>
        <path id="Path_101934" data-name="Path 101934" d="M175.007,165.422A50.443,50.443,0,1,1,74.566,158.7c2.743-2.942,18.273-17.933,50-17.933s47.255,14.991,50,17.933a50.835,50.835,0,0,1,.444,6.724Z" transform="translate(-62.307 -103.805)" fill="#fed2a4"/>
        <path id="Path_101935" data-name="Path 101935" d="M51.657,191.835a50.833,50.833,0,0,1,.444-6.724,50.143,50.143,0,0,1,1.68-7.8,47.028,47.028,0,0,0-10,7.8c-.022.168-.038.338-.059.507-.127,0-.253-.01-.384-.01a11.816,11.816,0,1,0,0,23.632,9.262,9.262,0,0,0,2.927-.437A50.461,50.461,0,0,0,93.78,242.277h.008c1.336,0,2.857-.066,4.152-.172a50.446,50.446,0,0,1-46.283-50.271Z" transform="translate(-31.522 -130.217)" fill="#ffbd86"/>
        <g id="Group_57282" data-name="Group 57282" transform="translate(8.798 7.415)">
          <ellipse id="Ellipse_4085" data-name="Ellipse 4085" cx="6.101" cy="6.101" rx="6.101" ry="6.101" transform="translate(0 68.02)" fill="#ffc93c"/>
          <circle id="Ellipse_4086" data-name="Ellipse 4086" cx="6.101" cy="6.101" r="6.101" transform="translate(94.717 68.02)" fill="#ffc93c"/>
          <path id="Path_101936" data-name="Path 101936" d="M222.842,34.439,214.961,36.9a11.867,11.867,0,0,1-7.067,0l-7.881-2.458a4.386,4.386,0,0,0-5.692,4.187V58.731a9.854,9.854,0,0,0,3.508,7.538L207.96,74.8a5.384,5.384,0,0,0,6.934,0l10.131-8.527a9.853,9.853,0,0,0,3.508-7.538V38.626a4.386,4.386,0,0,0-5.692-4.187Z" transform="translate(-157.968 -34.237)" fill="#ffc93c"/>
        </g>
        <ellipse id="Ellipse_4087" data-name="Ellipse 4087" cx="6.116" cy="8.632" rx="6.116" ry="8.632" transform="translate(56.141 19.695)" fill="#cc3d60"/>
        <path id="Path_101937" data-name="Path 101937" d="M215.142,467.863a14.125,14.125,0,0,0-25.447-8.382,14.125,14.125,0,0,0-25.447,8.382Z" transform="translate(-127.438 -330.024)" fill="#cc3d60"/>
        <g id="Group_57283" data-name="Group 57283" transform="translate(24.327 66.136)">
          <ellipse id="Ellipse_4088" data-name="Ellipse 4088" cx="10.223" cy="8.141" rx="10.223" ry="8.141" fill="#ffbd86"/>
          <ellipse id="Ellipse_4089" data-name="Ellipse 4089" cx="10.223" cy="8.141" rx="10.223" ry="8.141" transform="translate(55.415)" fill="#ffbd86"/>
        </g>
      </g>
      <g id="Group_57285" data-name="Group 57285" transform="translate(0)">
        <path id="Path_101938" data-name="Path 101938" d="M172.169,224.518a2.08,2.08,0,0,0-2.08,2.08v4.179a2.08,2.08,0,0,0,4.16,0V226.6A2.08,2.08,0,0,0,172.169,224.518Z" transform="translate(-129.584 -162.249)"/>
        <path id="Path_101939" data-name="Path 101939" d="M328.993,224.518a2.08,2.08,0,0,0-2.08,2.08v4.179a2.08,2.08,0,1,0,4.16,0V226.6A2.08,2.08,0,0,0,328.993,224.518Z" transform="translate(-242.914 -162.249)"/>
        <path id="Path_101940" data-name="Path 101940" d="M242.742,239.647a2.08,2.08,0,0,0-2.935.2,5.52,5.52,0,0,1-8.331,0,2.08,2.08,0,0,0-3.136,2.733,9.682,9.682,0,0,0,14.6,0,2.079,2.079,0,0,0-.2-2.934Z" transform="translate(-171.309 -172.813)"/>
        <path id="Path_101941" data-name="Path 101941" d="M234.646,92.481c4.6,0,8.2-4.7,8.2-10.711s-3.6-10.711-8.2-10.711-8.2,4.705-8.2,10.711,3.6,10.711,8.2,10.711Zm0-17.263c2.15,0,4.036,3.061,4.036,6.552s-1.886,6.551-4.036,6.551-4.036-3.061-4.036-6.551S232.5,75.218,234.646,75.218Z" transform="translate(-170.314 -51.351)"/>
        <path id="Path_101942" data-name="Path 101942" d="M149.207,60.089c-.6-17.833-5.767-31.391-15.8-41.42a63.656,63.656,0,0,0-90.073,0C33.308,28.7,28.14,42.256,27.541,60.09a13.833,13.833,0,0,0-1.78,15.874C24.125,94.33,27.2,108.543,34.9,118.208a31.823,31.823,0,0,0,15.524,10.75,38.437,38.437,0,0,0-1.565,10.962,2.08,2.08,0,0,0,2.08,2.08h74.867a2.08,2.08,0,0,0,2.08-2.08,38.459,38.459,0,0,0-1.564-10.963,31.8,31.8,0,0,0,15.06-10.184,2.08,2.08,0,1,0-3.2-2.661,28.018,28.018,0,0,1-13.266,8.92A41.085,41.085,0,0,0,113.6,109.777a52.361,52.361,0,0,0,19.434-18.429,8.2,8.2,0,0,0,10.874-7.725,9.333,9.333,0,0,0-.112-1.359,14.042,14.042,0,0,0,3.337-1.849c.589,11.669-.963,21.39-4.628,28.946a2.08,2.08,0,0,0,3.742,1.815c4.418-9.108,6.011-20.954,4.741-35.214a13.833,13.833,0,0,0-1.781-15.873Zm-7.135,18.375a8.24,8.24,0,0,0-2.7-2.164,52.788,52.788,0,0,0,1.372-16.549,9.739,9.739,0,0,1,1.331,18.713Zm-6.344,9.179a4.03,4.03,0,0,1-4.021-4.021c0-4.819,7.241-5.618,7.991-.6a3.453,3.453,0,0,1,.05.6,4.038,4.038,0,0,1-4.02,4.021ZM47.167,89.017a8.178,8.178,0,0,0-5.71-13.564A48.532,48.532,0,0,1,40.368,57.91C50.61,47.351,67.324,43.489,72.729,42.48c.671.668.87.759,10.839,9.176a7.459,7.459,0,0,0,9.612,0c9.131-7.727,10.024-8.367,10.843-9.18,19.229,3.452,29.562,12.617,32.358,15.441a48.529,48.529,0,0,1-1.09,17.536,8.19,8.19,0,0,0-5.711,13.563c-18.679,30.487-63.3,30.891-82.414,0ZM97.3,115.468v8.494a16.335,16.335,0,0,0-8.927,4.434,16.374,16.374,0,0,0-8.927-4.434v-8.494a53.385,53.385,0,0,0,17.855,0Zm10.308-2.883v13.253a16.243,16.243,0,0,0-6.148-1.962v-9.295A52.179,52.179,0,0,0,107.61,112.585Zm-38.471,0a52.14,52.14,0,0,0,6.148,2v9.295a16.3,16.3,0,0,0-6.148,1.962Zm.839,17.667a12.031,12.031,0,0,1,16.73,2.532,2.054,2.054,0,0,0,1.666.835,2.107,2.107,0,0,0,1.666-.835,12.042,12.042,0,0,1,21.5,5.057H65.206a12.048,12.048,0,0,1,4.772-7.588ZM28.2,69.294a9.751,9.751,0,0,1,7.8-9.543A52.813,52.813,0,0,0,37.38,76.3a8.243,8.243,0,0,0-2.7,2.164A9.764,9.764,0,0,1,28.2,69.294Zm10.35,17.5a4.018,4.018,0,1,1,6.461-2.71,4.018,4.018,0,0,1-6.461,2.71ZM76.028,11.623c.334.056-.151-.062,8.194,2.53a13.89,13.89,0,0,0,8.305,0l7.88-2.458a2.306,2.306,0,0,1,2.992,2.2V34a7.779,7.779,0,0,1-2.282,5.5c-.418.42.174-.117-10.615,8.975a3.3,3.3,0,0,1-4.255,0c-10.84-9.13-10.279-8.633-10.663-9.022A7.758,7.758,0,0,1,73.35,34c0-21.781-.033-20.242.063-20.645a2.308,2.308,0,0,1,2.616-1.733ZM107.559,34V19.309a48.419,48.419,0,0,1,27.549,31.947c-5.316-4.15-14.6-9.71-28.53-12.522A11.918,11.918,0,0,0,107.559,34ZM46.279,21.61a59.5,59.5,0,0,1,84.19,0c8.6,8.6,13.334,20.139,14.4,35.173a13.775,13.775,0,0,0-4.624-1.312,52.586,52.586,0,0,0-32.691-40.666,6.791,6.791,0,0,0-2.634-6.117,6.431,6.431,0,0,0-3.851-1.262c-1.7.024-2.063.43-9.785,2.756a9.746,9.746,0,0,1-5.828,0L77.58,7.725a6.412,6.412,0,0,0-5.756.964,6.863,6.863,0,0,0-2.634,6.116A52.2,52.2,0,0,0,52.276,25.569a2.08,2.08,0,0,0,2.86,3.021A48.1,48.1,0,0,1,69.19,19.308V34a11.924,11.924,0,0,0,.981,4.733c-13.93,2.813-23.217,8.375-28.533,12.525a48.316,48.316,0,0,1,8.205-16.776,2.08,2.08,0,1,0-3.312-2.517A52.433,52.433,0,0,0,36.5,55.472a13.775,13.775,0,0,0-4.624,1.312c1.071-15.035,5.8-26.571,14.4-35.174Zm-16.664,58.8a14.059,14.059,0,0,0,3.337,1.849,9.094,9.094,0,0,0-.112,1.359,8.181,8.181,0,0,0,10.875,7.725A53.293,53.293,0,0,0,63.15,109.775a41.119,41.119,0,0,0-11.322,15.261c-7.492-2.257-23.911-11.064-22.212-44.623Zm35.364,33.312V129.2a16.157,16.157,0,0,0-3.987,8.636H53.08A35.09,35.09,0,0,1,64.979,113.726Zm50.777,24.114a16.174,16.174,0,0,0-3.987-8.636V113.726a35.091,35.091,0,0,1,11.9,24.114Z" transform="translate(-24.042 0)"/>
      </g>
    </g>
  </g>
</svg>
